<?xml version="1.0" encoding="utf-8" standalone="no"?>
<!DOCTYPE svg PUBLIC "-//W3C//DTD SVG 1.1//EN"
  "http://www.w3.org/Graphics/SVG/1.1/DTD/svg11.dtd">
<!-- Created with matplotlib (https://matplotlib.org/) -->
<svg height="288pt" version="1.1" viewBox="0 0 432 288" width="432pt" xmlns="http://www.w3.org/2000/svg" xmlns:xlink="http://www.w3.org/1999/xlink">
 <defs>
  <style type="text/css">
*{stroke-linecap:butt;stroke-linejoin:round;}
  </style>
 </defs>
 <g id="figure_1">
  <g id="patch_1">
   <path d="M 0 288 
L 432 288 
L 432 0 
L 0 0 
z
" style="fill:#ffffff;"/>
  </g>
  <g id="axes_1">
   <g id="patch_2">
    <path d="M 54 252 
L 388.8 252 
L 388.8 34.56 
L 54 34.56 
z
" style="fill:#ffffff;"/>
   </g>
   <g id="matplotlib.axis_1">
    <g id="xtick_1">
     <g id="line2d_1">
      <path clip-path="url(#p44a217feb3)" d="M 69.218182 252 
L 69.218182 34.56 
" style="fill:none;stroke:#b0b0b0;stroke-dasharray:0.8,1.32;stroke-dashoffset:0;stroke-width:0.8;"/>
     </g>
     <g id="line2d_2">
      <defs>
       <path d="M 0 0 
L 0 3.5 
" id="m456eefb3bd" style="stroke:#000000;stroke-width:0.8;"/>
      </defs>
      <g>
       <use style="stroke:#000000;stroke-width:0.8;" x="69.218182" xlink:href="#m456eefb3bd" y="252"/>
      </g>
     </g>
     <g id="text_1">
      <!-- 0 -->
      <defs>
       <path d="M 31.78125 66.40625 
Q 24.171875 66.40625 20.328125 58.90625 
Q 16.5 51.421875 16.5 36.375 
Q 16.5 21.390625 20.328125 13.890625 
Q 24.171875 6.390625 31.78125 6.390625 
Q 39.453125 6.390625 43.28125 13.890625 
Q 47.125 21.390625 47.125 36.375 
Q 47.125 51.421875 43.28125 58.90625 
Q 39.453125 66.40625 31.78125 66.40625 
z
M 31.78125 74.21875 
Q 44.046875 74.21875 50.515625 64.515625 
Q 56.984375 54.828125 56.984375 36.375 
Q 56.984375 17.96875 50.515625 8.265625 
Q 44.046875 -1.421875 31.78125 -1.421875 
Q 19.53125 -1.421875 13.0625 8.265625 
Q 6.59375 17.96875 6.59375 36.375 
Q 6.59375 54.828125 13.0625 64.515625 
Q 19.53125 74.21875 31.78125 74.21875 
z
" id="DejaVuSans-48"/>
      </defs>
      <g transform="translate(66.036932 266.598437)scale(0.1 -0.1)">
       <use xlink:href="#DejaVuSans-48"/>
      </g>
     </g>
    </g>
    <g id="xtick_2">
     <g id="line2d_3">
      <path clip-path="url(#p44a217feb3)" d="M 112.823287 252 
L 112.823287 34.56 
" style="fill:none;stroke:#b0b0b0;stroke-dasharray:0.8,1.32;stroke-dashoffset:0;stroke-width:0.8;"/>
     </g>
     <g id="line2d_4">
      <g>
       <use style="stroke:#000000;stroke-width:0.8;" x="112.823287" xlink:href="#m456eefb3bd" y="252"/>
      </g>
     </g>
     <g id="text_2">
      <!-- 50 -->
      <defs>
       <path d="M 10.796875 72.90625 
L 49.515625 72.90625 
L 49.515625 64.59375 
L 19.828125 64.59375 
L 19.828125 46.734375 
Q 21.96875 47.46875 24.109375 47.828125 
Q 26.265625 48.1875 28.421875 48.1875 
Q 40.625 48.1875 47.75 41.5 
Q 54.890625 34.8125 54.890625 23.390625 
Q 54.890625 11.625 47.5625 5.09375 
Q 40.234375 -1.421875 26.90625 -1.421875 
Q 22.3125 -1.421875 17.546875 -0.640625 
Q 12.796875 0.140625 7.71875 1.703125 
L 7.71875 11.625 
Q 12.109375 9.234375 16.796875 8.0625 
Q 21.484375 6.890625 26.703125 6.890625 
Q 35.15625 6.890625 40.078125 11.328125 
Q 45.015625 15.765625 45.015625 23.390625 
Q 45.015625 31 40.078125 35.4375 
Q 35.15625 39.890625 26.703125 39.890625 
Q 22.75 39.890625 18.8125 39.015625 
Q 14.890625 38.140625 10.796875 36.28125 
z
" id="DejaVuSans-53"/>
      </defs>
      <g transform="translate(106.460787 266.598437)scale(0.1 -0.1)">
       <use xlink:href="#DejaVuSans-53"/>
       <use x="63.623047" xlink:href="#DejaVuSans-48"/>
      </g>
     </g>
    </g>
    <g id="xtick_3">
     <g id="line2d_5">
      <path clip-path="url(#p44a217feb3)" d="M 156.428393 252 
L 156.428393 34.56 
" style="fill:none;stroke:#b0b0b0;stroke-dasharray:0.8,1.32;stroke-dashoffset:0;stroke-width:0.8;"/>
     </g>
     <g id="line2d_6">
      <g>
       <use style="stroke:#000000;stroke-width:0.8;" x="156.428393" xlink:href="#m456eefb3bd" y="252"/>
      </g>
     </g>
     <g id="text_3">
      <!-- 100 -->
      <defs>
       <path d="M 12.40625 8.296875 
L 28.515625 8.296875 
L 28.515625 63.921875 
L 10.984375 60.40625 
L 10.984375 69.390625 
L 28.421875 72.90625 
L 38.28125 72.90625 
L 38.28125 8.296875 
L 54.390625 8.296875 
L 54.390625 0 
L 12.40625 0 
z
" id="DejaVuSans-49"/>
      </defs>
      <g transform="translate(146.884643 266.598437)scale(0.1 -0.1)">
       <use xlink:href="#DejaVuSans-49"/>
       <use x="63.623047" xlink:href="#DejaVuSans-48"/>
       <use x="127.246094" xlink:href="#DejaVuSans-48"/>
      </g>
     </g>
    </g>
    <g id="xtick_4">
     <g id="line2d_7">
      <path clip-path="url(#p44a217feb3)" d="M 200.033498 252 
L 200.033498 34.56 
" style="fill:none;stroke:#b0b0b0;stroke-dasharray:0.8,1.32;stroke-dashoffset:0;stroke-width:0.8;"/>
     </g>
     <g id="line2d_8">
      <g>
       <use style="stroke:#000000;stroke-width:0.8;" x="200.033498" xlink:href="#m456eefb3bd" y="252"/>
      </g>
     </g>
     <g id="text_4">
      <!-- 150 -->
      <g transform="translate(190.489748 266.598437)scale(0.1 -0.1)">
       <use xlink:href="#DejaVuSans-49"/>
       <use x="63.623047" xlink:href="#DejaVuSans-53"/>
       <use x="127.246094" xlink:href="#DejaVuSans-48"/>
      </g>
     </g>
    </g>
    <g id="xtick_5">
     <g id="line2d_9">
      <path clip-path="url(#p44a217feb3)" d="M 243.638604 252 
L 243.638604 34.56 
" style="fill:none;stroke:#b0b0b0;stroke-dasharray:0.8,1.32;stroke-dashoffset:0;stroke-width:0.8;"/>
     </g>
     <g id="line2d_10">
      <g>
       <use style="stroke:#000000;stroke-width:0.8;" x="243.638604" xlink:href="#m456eefb3bd" y="252"/>
      </g>
     </g>
     <g id="text_5">
      <!-- 200 -->
      <defs>
       <path d="M 19.1875 8.296875 
L 53.609375 8.296875 
L 53.609375 0 
L 7.328125 0 
L 7.328125 8.296875 
Q 12.9375 14.109375 22.625 23.890625 
Q 32.328125 33.6875 34.8125 36.53125 
Q 39.546875 41.84375 41.421875 45.53125 
Q 43.3125 49.21875 43.3125 52.78125 
Q 43.3125 58.59375 39.234375 62.25 
Q 35.15625 65.921875 28.609375 65.921875 
Q 23.96875 65.921875 18.8125 64.3125 
Q 13.671875 62.703125 7.8125 59.421875 
L 7.8125 69.390625 
Q 13.765625 71.78125 18.9375 73 
Q 24.125 74.21875 28.421875 74.21875 
Q 39.75 74.21875 46.484375 68.546875 
Q 53.21875 62.890625 53.21875 53.421875 
Q 53.21875 48.921875 51.53125 44.890625 
Q 49.859375 40.875 45.40625 35.40625 
Q 44.1875 33.984375 37.640625 27.21875 
Q 31.109375 20.453125 19.1875 8.296875 
z
" id="DejaVuSans-50"/>
      </defs>
      <g transform="translate(234.094854 266.598437)scale(0.1 -0.1)">
       <use xlink:href="#DejaVuSans-50"/>
       <use x="63.623047" xlink:href="#DejaVuSans-48"/>
       <use x="127.246094" xlink:href="#DejaVuSans-48"/>
      </g>
     </g>
    </g>
    <g id="xtick_6">
     <g id="line2d_11">
      <path clip-path="url(#p44a217feb3)" d="M 287.243709 252 
L 287.243709 34.56 
" style="fill:none;stroke:#b0b0b0;stroke-dasharray:0.8,1.32;stroke-dashoffset:0;stroke-width:0.8;"/>
     </g>
     <g id="line2d_12">
      <g>
       <use style="stroke:#000000;stroke-width:0.8;" x="287.243709" xlink:href="#m456eefb3bd" y="252"/>
      </g>
     </g>
     <g id="text_6">
      <!-- 250 -->
      <g transform="translate(277.699959 266.598437)scale(0.1 -0.1)">
       <use xlink:href="#DejaVuSans-50"/>
       <use x="63.623047" xlink:href="#DejaVuSans-53"/>
       <use x="127.246094" xlink:href="#DejaVuSans-48"/>
      </g>
     </g>
    </g>
    <g id="xtick_7">
     <g id="line2d_13">
      <path clip-path="url(#p44a217feb3)" d="M 330.848815 252 
L 330.848815 34.56 
" style="fill:none;stroke:#b0b0b0;stroke-dasharray:0.8,1.32;stroke-dashoffset:0;stroke-width:0.8;"/>
     </g>
     <g id="line2d_14">
      <g>
       <use style="stroke:#000000;stroke-width:0.8;" x="330.848815" xlink:href="#m456eefb3bd" y="252"/>
      </g>
     </g>
     <g id="text_7">
      <!-- 300 -->
      <defs>
       <path d="M 40.578125 39.3125 
Q 47.65625 37.796875 51.625 33 
Q 55.609375 28.21875 55.609375 21.1875 
Q 55.609375 10.40625 48.1875 4.484375 
Q 40.765625 -1.421875 27.09375 -1.421875 
Q 22.515625 -1.421875 17.65625 -0.515625 
Q 12.796875 0.390625 7.625 2.203125 
L 7.625 11.71875 
Q 11.71875 9.328125 16.59375 8.109375 
Q 21.484375 6.890625 26.8125 6.890625 
Q 36.078125 6.890625 40.9375 10.546875 
Q 45.796875 14.203125 45.796875 21.1875 
Q 45.796875 27.640625 41.28125 31.265625 
Q 36.765625 34.90625 28.71875 34.90625 
L 20.21875 34.90625 
L 20.21875 43.015625 
L 29.109375 43.015625 
Q 36.375 43.015625 40.234375 45.921875 
Q 44.09375 48.828125 44.09375 54.296875 
Q 44.09375 59.90625 40.109375 62.90625 
Q 36.140625 65.921875 28.71875 65.921875 
Q 24.65625 65.921875 20.015625 65.03125 
Q 15.375 64.15625 9.8125 62.3125 
L 9.8125 71.09375 
Q 15.4375 72.65625 20.34375 73.4375 
Q 25.25 74.21875 29.59375 74.21875 
Q 40.828125 74.21875 47.359375 69.109375 
Q 53.90625 64.015625 53.90625 55.328125 
Q 53.90625 49.265625 50.4375 45.09375 
Q 46.96875 40.921875 40.578125 39.3125 
z
" id="DejaVuSans-51"/>
      </defs>
      <g transform="translate(321.305065 266.598437)scale(0.1 -0.1)">
       <use xlink:href="#DejaVuSans-51"/>
       <use x="63.623047" xlink:href="#DejaVuSans-48"/>
       <use x="127.246094" xlink:href="#DejaVuSans-48"/>
      </g>
     </g>
    </g>
    <g id="xtick_8">
     <g id="line2d_15">
      <path clip-path="url(#p44a217feb3)" d="M 374.45392 252 
L 374.45392 34.56 
" style="fill:none;stroke:#b0b0b0;stroke-dasharray:0.8,1.32;stroke-dashoffset:0;stroke-width:0.8;"/>
     </g>
     <g id="line2d_16">
      <g>
       <use style="stroke:#000000;stroke-width:0.8;" x="374.45392" xlink:href="#m456eefb3bd" y="252"/>
      </g>
     </g>
     <g id="text_8">
      <!-- 350 -->
      <g transform="translate(364.91017 266.598437)scale(0.1 -0.1)">
       <use xlink:href="#DejaVuSans-51"/>
       <use x="63.623047" xlink:href="#DejaVuSans-53"/>
       <use x="127.246094" xlink:href="#DejaVuSans-48"/>
      </g>
     </g>
    </g>
    <g id="text_9">
     <!-- Epochs -->
     <defs>
      <path d="M 9.8125 72.90625 
L 55.90625 72.90625 
L 55.90625 64.59375 
L 19.671875 64.59375 
L 19.671875 43.015625 
L 54.390625 43.015625 
L 54.390625 34.71875 
L 19.671875 34.71875 
L 19.671875 8.296875 
L 56.78125 8.296875 
L 56.78125 0 
L 9.8125 0 
z
" id="DejaVuSans-69"/>
      <path d="M 18.109375 8.203125 
L 18.109375 -20.796875 
L 9.078125 -20.796875 
L 9.078125 54.6875 
L 18.109375 54.6875 
L 18.109375 46.390625 
Q 20.953125 51.265625 25.265625 53.625 
Q 29.59375 56 35.59375 56 
Q 45.5625 56 51.78125 48.09375 
Q 58.015625 40.1875 58.015625 27.296875 
Q 58.015625 14.40625 51.78125 6.484375 
Q 45.5625 -1.421875 35.59375 -1.421875 
Q 29.59375 -1.421875 25.265625 0.953125 
Q 20.953125 3.328125 18.109375 8.203125 
z
M 48.6875 27.296875 
Q 48.6875 37.203125 44.609375 42.84375 
Q 40.53125 48.484375 33.40625 48.484375 
Q 26.265625 48.484375 22.1875 42.84375 
Q 18.109375 37.203125 18.109375 27.296875 
Q 18.109375 17.390625 22.1875 11.75 
Q 26.265625 6.109375 33.40625 6.109375 
Q 40.53125 6.109375 44.609375 11.75 
Q 48.6875 17.390625 48.6875 27.296875 
z
" id="DejaVuSans-112"/>
      <path d="M 30.609375 48.390625 
Q 23.390625 48.390625 19.1875 42.75 
Q 14.984375 37.109375 14.984375 27.296875 
Q 14.984375 17.484375 19.15625 11.84375 
Q 23.34375 6.203125 30.609375 6.203125 
Q 37.796875 6.203125 41.984375 11.859375 
Q 46.1875 17.53125 46.1875 27.296875 
Q 46.1875 37.015625 41.984375 42.703125 
Q 37.796875 48.390625 30.609375 48.390625 
z
M 30.609375 56 
Q 42.328125 56 49.015625 48.375 
Q 55.71875 40.765625 55.71875 27.296875 
Q 55.71875 13.875 49.015625 6.21875 
Q 42.328125 -1.421875 30.609375 -1.421875 
Q 18.84375 -1.421875 12.171875 6.21875 
Q 5.515625 13.875 5.515625 27.296875 
Q 5.515625 40.765625 12.171875 48.375 
Q 18.84375 56 30.609375 56 
z
" id="DejaVuSans-111"/>
      <path d="M 48.78125 52.59375 
L 48.78125 44.1875 
Q 44.96875 46.296875 41.140625 47.34375 
Q 37.3125 48.390625 33.40625 48.390625 
Q 24.65625 48.390625 19.8125 42.84375 
Q 14.984375 37.3125 14.984375 27.296875 
Q 14.984375 17.28125 19.8125 11.734375 
Q 24.65625 6.203125 33.40625 6.203125 
Q 37.3125 6.203125 41.140625 7.25 
Q 44.96875 8.296875 48.78125 10.40625 
L 48.78125 2.09375 
Q 45.015625 0.34375 40.984375 -0.53125 
Q 36.96875 -1.421875 32.421875 -1.421875 
Q 20.0625 -1.421875 12.78125 6.34375 
Q 5.515625 14.109375 5.515625 27.296875 
Q 5.515625 40.671875 12.859375 48.328125 
Q 20.21875 56 33.015625 56 
Q 37.15625 56 41.109375 55.140625 
Q 45.0625 54.296875 48.78125 52.59375 
z
" id="DejaVuSans-99"/>
      <path d="M 54.890625 33.015625 
L 54.890625 0 
L 45.90625 0 
L 45.90625 32.71875 
Q 45.90625 40.484375 42.875 44.328125 
Q 39.84375 48.1875 33.796875 48.1875 
Q 26.515625 48.1875 22.3125 43.546875 
Q 18.109375 38.921875 18.109375 30.90625 
L 18.109375 0 
L 9.078125 0 
L 9.078125 75.984375 
L 18.109375 75.984375 
L 18.109375 46.1875 
Q 21.34375 51.125 25.703125 53.5625 
Q 30.078125 56 35.796875 56 
Q 45.21875 56 50.046875 50.171875 
Q 54.890625 44.34375 54.890625 33.015625 
z
" id="DejaVuSans-104"/>
      <path d="M 44.28125 53.078125 
L 44.28125 44.578125 
Q 40.484375 46.53125 36.375 47.5 
Q 32.28125 48.484375 27.875 48.484375 
Q 21.1875 48.484375 17.84375 46.4375 
Q 14.5 44.390625 14.5 40.28125 
Q 14.5 37.15625 16.890625 35.375 
Q 19.28125 33.59375 26.515625 31.984375 
L 29.59375 31.296875 
Q 39.15625 29.25 43.1875 25.515625 
Q 47.21875 21.78125 47.21875 15.09375 
Q 47.21875 7.46875 41.1875 3.015625 
Q 35.15625 -1.421875 24.609375 -1.421875 
Q 20.21875 -1.421875 15.453125 -0.5625 
Q 10.6875 0.296875 5.421875 2 
L 5.421875 11.28125 
Q 10.40625 8.6875 15.234375 7.390625 
Q 20.0625 6.109375 24.8125 6.109375 
Q 31.15625 6.109375 34.5625 8.28125 
Q 37.984375 10.453125 37.984375 14.40625 
Q 37.984375 18.0625 35.515625 20.015625 
Q 33.0625 21.96875 24.703125 23.78125 
L 21.578125 24.515625 
Q 13.234375 26.265625 9.515625 29.90625 
Q 5.8125 33.546875 5.8125 39.890625 
Q 5.8125 47.609375 11.28125 51.796875 
Q 16.75 56 26.8125 56 
Q 31.78125 56 36.171875 55.265625 
Q 40.578125 54.546875 44.28125 53.078125 
z
" id="DejaVuSans-115"/>
     </defs>
     <g transform="translate(203.484375 280.276563)scale(0.1 -0.1)">
      <use xlink:href="#DejaVuSans-69"/>
      <use x="63.183594" xlink:href="#DejaVuSans-112"/>
      <use x="126.660156" xlink:href="#DejaVuSans-111"/>
      <use x="187.841797" xlink:href="#DejaVuSans-99"/>
      <use x="242.822266" xlink:href="#DejaVuSans-104"/>
      <use x="306.201172" xlink:href="#DejaVuSans-115"/>
     </g>
    </g>
   </g>
   <g id="matplotlib.axis_2">
    <g id="ytick_1">
     <g id="line2d_17">
      <path clip-path="url(#p44a217feb3)" d="M 54 242.116364 
L 388.8 242.116364 
" style="fill:none;stroke:#b0b0b0;stroke-dasharray:0.8,1.32;stroke-dashoffset:0;stroke-width:0.8;"/>
     </g>
     <g id="line2d_18">
      <defs>
       <path d="M 0 0 
L -3.5 0 
" id="m884bab3a7f" style="stroke:#000000;stroke-width:0.8;"/>
      </defs>
      <g>
       <use style="stroke:#000000;stroke-width:0.8;" x="54" xlink:href="#m884bab3a7f" y="242.116364"/>
      </g>
     </g>
     <g id="text_10">
      <!-- 10 -->
      <g transform="translate(34.275 245.915582)scale(0.1 -0.1)">
       <use xlink:href="#DejaVuSans-49"/>
       <use x="63.623047" xlink:href="#DejaVuSans-48"/>
      </g>
     </g>
    </g>
    <g id="ytick_2">
     <g id="line2d_19">
      <path clip-path="url(#p44a217feb3)" d="M 54 197.312934 
L 388.8 197.312934 
" style="fill:none;stroke:#b0b0b0;stroke-dasharray:0.8,1.32;stroke-dashoffset:0;stroke-width:0.8;"/>
     </g>
     <g id="line2d_20">
      <g>
       <use style="stroke:#000000;stroke-width:0.8;" x="54" xlink:href="#m884bab3a7f" y="197.312934"/>
      </g>
     </g>
     <g id="text_11">
      <!-- 20 -->
      <g transform="translate(34.275 201.112153)scale(0.1 -0.1)">
       <use xlink:href="#DejaVuSans-50"/>
       <use x="63.623047" xlink:href="#DejaVuSans-48"/>
      </g>
     </g>
    </g>
    <g id="ytick_3">
     <g id="line2d_21">
      <path clip-path="url(#p44a217feb3)" d="M 54 152.509504 
L 388.8 152.509504 
" style="fill:none;stroke:#b0b0b0;stroke-dasharray:0.8,1.32;stroke-dashoffset:0;stroke-width:0.8;"/>
     </g>
     <g id="line2d_22">
      <g>
       <use style="stroke:#000000;stroke-width:0.8;" x="54" xlink:href="#m884bab3a7f" y="152.509504"/>
      </g>
     </g>
     <g id="text_12">
      <!-- 30 -->
      <g transform="translate(34.275 156.308723)scale(0.1 -0.1)">
       <use xlink:href="#DejaVuSans-51"/>
       <use x="63.623047" xlink:href="#DejaVuSans-48"/>
      </g>
     </g>
    </g>
    <g id="ytick_4">
     <g id="line2d_23">
      <path clip-path="url(#p44a217feb3)" d="M 54 107.706074 
L 388.8 107.706074 
" style="fill:none;stroke:#b0b0b0;stroke-dasharray:0.8,1.32;stroke-dashoffset:0;stroke-width:0.8;"/>
     </g>
     <g id="line2d_24">
      <g>
       <use style="stroke:#000000;stroke-width:0.8;" x="54" xlink:href="#m884bab3a7f" y="107.706074"/>
      </g>
     </g>
     <g id="text_13">
      <!-- 40 -->
      <defs>
       <path d="M 37.796875 64.3125 
L 12.890625 25.390625 
L 37.796875 25.390625 
z
M 35.203125 72.90625 
L 47.609375 72.90625 
L 47.609375 25.390625 
L 58.015625 25.390625 
L 58.015625 17.1875 
L 47.609375 17.1875 
L 47.609375 0 
L 37.796875 0 
L 37.796875 17.1875 
L 4.890625 17.1875 
L 4.890625 26.703125 
z
" id="DejaVuSans-52"/>
      </defs>
      <g transform="translate(34.275 111.505293)scale(0.1 -0.1)">
       <use xlink:href="#DejaVuSans-52"/>
       <use x="63.623047" xlink:href="#DejaVuSans-48"/>
      </g>
     </g>
    </g>
    <g id="ytick_5">
     <g id="line2d_25">
      <path clip-path="url(#p44a217feb3)" d="M 54 62.902645 
L 388.8 62.902645 
" style="fill:none;stroke:#b0b0b0;stroke-dasharray:0.8,1.32;stroke-dashoffset:0;stroke-width:0.8;"/>
     </g>
     <g id="line2d_26">
      <g>
       <use style="stroke:#000000;stroke-width:0.8;" x="54" xlink:href="#m884bab3a7f" y="62.902645"/>
      </g>
     </g>
     <g id="text_14">
      <!-- 50 -->
      <g transform="translate(34.275 66.701863)scale(0.1 -0.1)">
       <use xlink:href="#DejaVuSans-53"/>
       <use x="63.623047" xlink:href="#DejaVuSans-48"/>
      </g>
     </g>
    </g>
    <g id="text_15">
     <!-- Accuracy -->
     <defs>
      <path d="M 34.1875 63.1875 
L 20.796875 26.90625 
L 47.609375 26.90625 
z
M 28.609375 72.90625 
L 39.796875 72.90625 
L 67.578125 0 
L 57.328125 0 
L 50.6875 18.703125 
L 17.828125 18.703125 
L 11.1875 0 
L 0.78125 0 
z
" id="DejaVuSans-65"/>
      <path d="M 8.5 21.578125 
L 8.5 54.6875 
L 17.484375 54.6875 
L 17.484375 21.921875 
Q 17.484375 14.15625 20.5 10.265625 
Q 23.53125 6.390625 29.59375 6.390625 
Q 36.859375 6.390625 41.078125 11.03125 
Q 45.3125 15.671875 45.3125 23.6875 
L 45.3125 54.6875 
L 54.296875 54.6875 
L 54.296875 0 
L 45.3125 0 
L 45.3125 8.40625 
Q 42.046875 3.421875 37.71875 1 
Q 33.40625 -1.421875 27.6875 -1.421875 
Q 18.265625 -1.421875 13.375 4.4375 
Q 8.5 10.296875 8.5 21.578125 
z
M 31.109375 56 
z
" id="DejaVuSans-117"/>
      <path d="M 41.109375 46.296875 
Q 39.59375 47.171875 37.8125 47.578125 
Q 36.03125 48 33.890625 48 
Q 26.265625 48 22.1875 43.046875 
Q 18.109375 38.09375 18.109375 28.8125 
L 18.109375 0 
L 9.078125 0 
L 9.078125 54.6875 
L 18.109375 54.6875 
L 18.109375 46.1875 
Q 20.953125 51.171875 25.484375 53.578125 
Q 30.03125 56 36.53125 56 
Q 37.453125 56 38.578125 55.875 
Q 39.703125 55.765625 41.0625 55.515625 
z
" id="DejaVuSans-114"/>
      <path d="M 34.28125 27.484375 
Q 23.390625 27.484375 19.1875 25 
Q 14.984375 22.515625 14.984375 16.5 
Q 14.984375 11.71875 18.140625 8.90625 
Q 21.296875 6.109375 26.703125 6.109375 
Q 34.1875 6.109375 38.703125 11.40625 
Q 43.21875 16.703125 43.21875 25.484375 
L 43.21875 27.484375 
z
M 52.203125 31.203125 
L 52.203125 0 
L 43.21875 0 
L 43.21875 8.296875 
Q 40.140625 3.328125 35.546875 0.953125 
Q 30.953125 -1.421875 24.3125 -1.421875 
Q 15.921875 -1.421875 10.953125 3.296875 
Q 6 8.015625 6 15.921875 
Q 6 25.140625 12.171875 29.828125 
Q 18.359375 34.515625 30.609375 34.515625 
L 43.21875 34.515625 
L 43.21875 35.40625 
Q 43.21875 41.609375 39.140625 45 
Q 35.0625 48.390625 27.6875 48.390625 
Q 23 48.390625 18.546875 47.265625 
Q 14.109375 46.140625 10.015625 43.890625 
L 10.015625 52.203125 
Q 14.9375 54.109375 19.578125 55.046875 
Q 24.21875 56 28.609375 56 
Q 40.484375 56 46.34375 49.84375 
Q 52.203125 43.703125 52.203125 31.203125 
z
" id="DejaVuSans-97"/>
      <path d="M 32.171875 -5.078125 
Q 28.375 -14.84375 24.75 -17.8125 
Q 21.140625 -20.796875 15.09375 -20.796875 
L 7.90625 -20.796875 
L 7.90625 -13.28125 
L 13.1875 -13.28125 
Q 16.890625 -13.28125 18.9375 -11.515625 
Q 21 -9.765625 23.484375 -3.21875 
L 25.09375 0.875 
L 2.984375 54.6875 
L 12.5 54.6875 
L 29.59375 11.921875 
L 46.6875 54.6875 
L 56.203125 54.6875 
z
" id="DejaVuSans-121"/>
     </defs>
     <g transform="translate(28.195312 166.194844)rotate(-90)scale(0.1 -0.1)">
      <use xlink:href="#DejaVuSans-65"/>
      <use x="68.392578" xlink:href="#DejaVuSans-99"/>
      <use x="123.373047" xlink:href="#DejaVuSans-99"/>
      <use x="178.353516" xlink:href="#DejaVuSans-117"/>
      <use x="241.732422" xlink:href="#DejaVuSans-114"/>
      <use x="282.845703" xlink:href="#DejaVuSans-97"/>
      <use x="344.125" xlink:href="#DejaVuSans-99"/>
      <use x="399.105469" xlink:href="#DejaVuSans-121"/>
     </g>
    </g>
   </g>
   <g id="line2d_27">
    <path clip-path="url(#p44a217feb3)" d="M 69.218182 228.227299 
L 70.090284 240.77226 
L 70.962386 219.266613 
L 71.834488 234.947813 
L 72.70659 220.16268 
L 73.578692 228.227299 
L 74.450794 234.499777 
L 75.322897 232.707642 
L 76.194999 227.779263 
L 77.067101 233.603709 
L 77.939203 233.603709 
L 78.811305 226.435159 
L 79.683407 233.603709 
L 80.555509 232.259606 
L 81.427611 230.019434 
L 82.299713 215.682338 
L 83.171816 207.617719 
L 84.043918 208.065755 
L 84.91602 213.442162 
L 85.788122 217.922509 
L 86.660224 223.746956 
L 87.532326 221.954816 
L 88.404428 210.753963 
L 89.27653 205.377548 
L 90.148632 196.864898 
L 91.020735 192.384555 
L 91.892837 192.384555 
L 92.764939 187.00814 
L 93.637041 185.216004 
L 94.509143 179.391553 
L 95.381245 172.223012 
L 96.253347 174.91121 
L 97.125449 175.807282 
L 97.997551 174.015147 
L 98.869654 169.086768 
L 99.741756 172.223012 
L 100.613858 165.054461 
L 101.48596 164.606425 
L 102.358062 157.885911 
L 103.230164 158.781974 
L 104.102266 168.638732 
L 104.974368 156.541803 
L 105.84647 151.613432 
L 106.718573 162.366254 
L 107.590675 140.860602 
L 108.462777 147.581117 
L 109.334879 145.340945 
L 110.206981 135.03616 
L 112.823287 133.69206 
L 113.695389 141.756674 
L 114.567492 134.588132 
L 115.439594 130.555817 
L 116.311696 129.659745 
L 117.183798 130.107789 
L 118.0559 127.867618 
L 120.672206 117.114788 
L 121.544308 117.562815 
L 122.416411 119.354959 
L 123.288513 116.66676 
L 124.160615 116.218716 
L 125.032717 110.394273 
L 125.904819 109.946246 
L 126.776921 101.881615 
L 127.649023 110.842301 
L 129.393227 101.881615 
L 130.26533 99.641443 
L 131.137432 102.329659 
L 132.009534 104.569831 
L 132.881636 104.569831 
L 133.753738 102.777687 
L 134.62584 97.401272 
L 135.497942 99.641443 
L 136.370044 92.920929 
L 137.242146 93.817001 
L 138.114249 89.336658 
L 138.986351 111.290345 
L 139.858453 94.265028 
L 140.730555 94.265028 
L 141.602657 97.401272 
L 142.474759 87.992558 
L 143.346861 83.512215 
L 144.218963 86.200414 
L 145.091065 85.752387 
L 145.963167 85.752387 
L 146.83527 91.576829 
L 147.707372 83.064171 
L 148.579474 80.823999 
L 149.451576 89.336658 
L 150.323678 87.992558 
L 151.19578 83.512215 
L 152.067882 83.064171 
L 152.939984 72.759386 
L 153.812086 70.967259 
L 154.684189 82.616143 
L 155.556291 73.655458 
L 156.428393 83.960243 
L 157.300495 89.336658 
L 158.172597 69.175115 
L 159.044699 75.895629 
L 159.916801 70.519214 
L 160.788903 85.304342 
L 161.661005 87.992558 
L 162.533108 75.447602 
L 163.40521 70.519214 
L 164.277312 67.382971 
L 165.149414 73.655458 
L 166.021516 76.343656 
L 166.893618 77.687773 
L 167.76572 64.694772 
L 168.637822 71.863313 
L 169.509924 66.038871 
L 170.382027 64.694772 
L 171.254129 64.246744 
L 172.126231 62.4546 
L 172.998333 74.103485 
L 173.870435 59.318357 
L 174.742537 62.006573 
L 175.614639 57.078185 
L 176.486741 66.486916 
L 177.358843 68.279043 
L 178.230946 62.4546 
L 179.103048 57.52623 
L 179.97515 72.759386 
L 180.847252 57.078185 
L 181.719354 55.734086 
L 182.591456 55.734086 
L 183.463558 57.52623 
L 184.33566 60.662456 
L 185.207762 53.493914 
L 186.079865 56.182113 
L 186.951967 55.286058 
L 187.824069 50.805715 
L 188.696171 56.182113 
L 189.568273 56.182113 
L 190.440375 55.734086 
L 191.312477 56.182113 
L 192.184579 52.149815 
L 193.056681 54.389986 
L 193.928784 53.493914 
L 194.800886 54.838014 
L 195.672988 53.941942 
L 196.54509 52.149815 
L 197.417192 53.045887 
L 198.289294 52.597842 
L 199.161396 54.389986 
L 200.033498 50.805715 
L 200.9056 53.493914 
L 201.777703 52.597842 
L 202.649805 54.838014 
L 203.521907 51.70177 
L 205.266111 50.805715 
L 206.138213 51.253743 
L 207.010315 50.805715 
L 207.882417 49.461599 
L 208.754519 51.253743 
L 209.626622 51.253743 
L 210.498724 50.805715 
L 212.242928 51.70177 
L 213.11503 50.357671 
L 214.859234 49.461599 
L 215.731336 49.909643 
L 216.603438 49.461599 
L 218.347643 49.461599 
L 219.219745 49.909643 
L 220.091847 49.461599 
L 226.196562 49.461599 
L 227.068664 49.909643 
L 227.940766 49.461599 
L 229.68497 49.461599 
L 230.557072 50.357671 
L 231.429174 49.909643 
L 232.301276 50.357671 
L 234.045481 49.461599 
L 234.917583 49.461599 
L 235.789685 49.909643 
L 239.278093 49.909643 
L 240.150195 49.461599 
L 241.8944 49.461599 
L 242.766502 49.909643 
L 243.638604 50.805715 
L 244.510706 50.357671 
L 247.999114 50.357671 
L 249.743319 51.253743 
L 254.103829 51.253743 
L 254.975931 50.805715 
L 255.848033 50.805715 
L 256.720135 50.357671 
L 265.441157 50.357671 
L 266.313259 49.909643 
L 268.929565 49.909643 
L 269.801667 50.357671 
L 277.650586 50.357671 
L 278.522688 50.805715 
L 279.39479 49.909643 
L 280.266892 49.909643 
L 281.138995 51.253743 
L 282.011097 50.805715 
L 286.371607 50.805715 
L 287.243709 51.253743 
L 290.732118 51.253743 
L 291.60422 50.805715 
L 292.476322 50.805715 
L 293.348424 51.253743 
L 294.220526 50.805715 
L 295.092628 51.253743 
L 296.836833 50.357671 
L 297.708935 50.805715 
L 298.581037 49.909643 
L 300.325241 50.805715 
L 302.941547 50.805715 
L 303.813649 50.357671 
L 304.685751 50.805715 
L 306.429956 50.805715 
L 307.302058 50.357671 
L 308.17416 50.805715 
L 310.790466 50.805715 
L 311.662568 50.357671 
L 312.53467 50.805715 
L 313.406773 50.805715 
L 314.278875 51.253743 
L 315.150977 51.253743 
L 316.023079 50.805715 
L 316.895181 50.805715 
L 317.767283 50.357671 
L 318.639385 50.805715 
L 319.511487 50.357671 
L 327.360406 50.357671 
L 328.232508 49.909643 
L 329.104611 50.357671 
L 330.848815 50.357671 
L 331.720917 50.805715 
L 332.593019 50.357671 
L 334.337223 51.253743 
L 335.209325 50.357671 
L 336.081427 50.805715 
L 336.95353 50.357671 
L 337.825632 50.357671 
L 338.697734 50.805715 
L 339.569836 50.357671 
L 342.186142 50.357671 
L 343.058244 50.805715 
L 343.930346 49.909643 
L 344.802449 49.461599 
L 345.674551 49.461599 
L 346.546653 49.909643 
L 347.418755 49.461599 
L 348.290857 49.909643 
L 350.035061 49.909643 
L 350.907163 50.357671 
L 351.779265 49.909643 
L 353.52347 50.805715 
L 354.395572 50.357671 
L 360.500287 50.357671 
L 361.372389 49.909643 
L 370.09341 49.909643 
L 370.965512 50.357671 
L 371.837614 50.357671 
L 373.581818 49.461599 
L 373.581818 49.461599 
" style="fill:none;stroke:#008000;stroke-linecap:square;stroke-width:1.5;"/>
   </g>
   <g id="line2d_28">
    <path clip-path="url(#p44a217feb3)" d="M 69.218182 227.062413 
L 70.090284 231.542756 
L 70.962386 221.372379 
L 71.834488 241.130691 
L 72.70659 226.121541 
L 74.450794 240.72746 
L 75.322897 238.576893 
L 76.194999 233.469305 
L 77.067101 242.116364 
L 77.939203 242.116364 
L 78.811305 234.723799 
L 79.683407 241.668332 
L 80.555509 241.041082 
L 81.427611 240.10021 
L 82.299713 223.522942 
L 83.171816 214.069416 
L 84.043918 209.409863 
L 84.91602 213.621388 
L 85.788122 213.800597 
L 86.660224 220.073076 
L 87.532326 218.28094 
L 88.404428 212.456498 
L 89.27653 203.451008 
L 90.148632 196.237653 
L 91.892837 188.352248 
L 92.764939 181.004488 
L 93.637041 181.138902 
L 94.509143 173.970351 
L 95.381245 173.701533 
L 96.253347 171.909389 
L 97.125449 172.402229 
L 98.869654 168.593936 
L 99.741756 166.30896 
L 101.48596 162.455871 
L 102.358062 159.050809 
L 103.230164 160.977358 
L 104.102266 164.651238 
L 104.974368 160.081286 
L 105.84647 160.887749 
L 106.718573 157.213869 
L 107.590675 144.803317 
L 108.462777 147.222707 
L 109.334879 154.973698 
L 110.206981 143.235196 
L 111.079083 137.276348 
L 111.951185 139.247693 
L 112.823287 135.618609 
L 113.695389 139.874938 
L 114.567492 132.616787 
L 115.439594 131.362297 
L 116.311696 130.645443 
L 117.183798 128.629285 
L 118.0559 133.512859 
L 118.928002 126.613127 
L 119.800104 120.967885 
L 120.672206 118.727714 
L 121.544308 125.000201 
L 122.416411 119.57899 
L 123.288513 116.039515 
L 124.160615 121.550335 
L 125.032717 115.591488 
L 125.904819 117.473223 
L 126.776921 110.887131 
L 127.649023 116.397951 
L 128.521125 110.707913 
L 129.393227 112.096808 
L 130.26533 106.541193 
L 131.137432 106.98922 
L 132.009534 108.467742 
L 132.881636 106.675598 
L 133.753738 101.209574 
L 134.62584 102.240068 
L 135.497942 101.4784 
L 136.370044 97.894129 
L 137.242146 97.759725 
L 138.114249 95.788363 
L 138.986351 119.08615 
L 139.858453 95.922785 
L 140.730555 93.772205 
L 141.602657 92.920946 
L 142.474759 89.023052 
L 143.346861 89.112661 
L 144.218963 88.171776 
L 145.091065 83.422624 
L 145.963167 87.544531 
L 146.83527 95.788363 
L 147.707372 85.169955 
L 148.579474 80.465598 
L 149.451576 84.229087 
L 150.323678 90.187934 
L 151.19578 81.675293 
L 152.067882 82.168133 
L 153.812086 73.655475 
L 154.684189 75.850833 
L 155.556291 71.818535 
L 156.428393 81.092843 
L 157.300495 82.257725 
L 158.172597 70.026391 
L 159.044699 74.77556 
L 159.916801 65.053207 
L 160.788903 80.062366 
L 161.661005 76.657296 
L 162.533108 70.384826 
L 163.40521 67.069365 
L 164.277312 61.244923 
L 165.149414 72.042548 
L 166.021516 69.354349 
L 166.893618 71.280898 
L 167.76572 60.438459 
L 168.637822 64.425962 
L 169.509924 57.302216 
L 170.382027 60.976096 
L 171.254129 54.390003 
L 172.126231 57.25742 
L 172.998333 69.667972 
L 173.870435 54.569221 
L 174.742537 54.703626 
L 175.614639 54.031568 
L 176.486741 58.870346 
L 177.358843 54.748422 
L 178.230946 49.820051 
L 179.103048 56.898984 
L 179.97515 65.994092 
L 180.847252 48.789575 
L 181.719354 46.863026 
L 182.591456 50.044065 
L 183.463558 47.938298 
L 184.33566 53.807554 
L 185.207762 46.728621 
L 186.079865 45.205304 
L 186.951967 48.162329 
L 187.824069 44.622854 
L 188.696171 48.655153 
L 189.568273 47.624676 
L 190.440375 46.99743 
L 191.312477 47.983111 
L 192.184579 45.250099 
L 193.056681 47.445475 
L 193.928784 46.459794 
L 194.800886 47.266257 
L 195.672988 46.325389 
L 196.54509 46.459794 
L 197.417192 45.922158 
L 198.289294 46.23578 
L 199.161396 45.250099 
L 200.033498 45.74294 
L 200.9056 44.443636 
L 201.777703 45.518926 
L 202.649805 47.221444 
L 203.521907 44.66765 
L 204.394009 46.325389 
L 205.266111 45.518926 
L 206.138213 46.190967 
L 207.010315 45.429317 
L 207.882417 45.339708 
L 208.754519 46.056563 
L 210.498724 44.891664 
L 211.370826 45.384504 
L 213.11503 45.518926 
L 213.987132 45.294895 
L 219.219745 45.474113 
L 225.324459 45.429317 
L 226.196562 45.339708 
L 227.068664 45.518926 
L 227.940766 45.339708 
L 229.68497 45.339708 
L 234.045481 45.250099 
L 236.661787 45.205304 
L 237.533889 45.294895 
L 241.022297 45.205304 
L 242.766502 45.429317 
L 243.638604 45.250099 
L 244.510706 45.384504 
L 246.25491 45.294895 
L 247.127012 45.384504 
L 249.743319 45.339708 
L 253.231727 45.429317 
L 257.592238 45.294895 
L 260.208544 45.474113 
L 265.441157 45.294895 
L 267.185361 45.294895 
L 269.801667 45.384504 
L 271.545871 45.429317 
L 273.290076 45.205304 
L 274.162178 45.384504 
L 275.906382 45.384504 
L 278.522688 45.518926 
L 279.39479 45.429317 
L 281.138995 45.653331 
L 284.627403 45.429317 
L 285.499505 45.205304 
L 287.243709 45.384504 
L 288.115811 45.429317 
L 288.987914 45.250099 
L 291.60422 45.250099 
L 292.476322 45.384504 
L 293.348424 45.294895 
L 294.220526 45.384504 
L 297.708935 45.250099 
L 299.453139 45.384504 
L 313.406773 45.474113 
L 314.278875 45.563722 
L 321.255692 45.294895 
L 323.871998 45.339708 
L 325.616202 45.339708 
L 327.360406 45.339708 
L 329.976713 45.384504 
L 330.848815 45.474113 
L 332.593019 45.384504 
L 334.337223 45.474113 
L 335.209325 45.474113 
L 336.081427 45.608535 
L 337.825632 45.429317 
L 339.569836 45.429317 
L 356.139776 45.339708 
L 358.756082 45.205304 
L 362.244491 45.474113 
L 369.221308 45.384504 
L 370.965512 45.384504 
L 373.581818 45.429317 
L 373.581818 45.429317 
" style="fill:none;stroke:#ff0000;stroke-linecap:square;stroke-width:1.5;"/>
   </g>
   <g id="patch_3">
    <path d="M 54 252 
L 54 34.56 
" style="fill:none;stroke:#000000;stroke-linecap:square;stroke-linejoin:miter;stroke-width:0.8;"/>
   </g>
   <g id="patch_4">
    <path d="M 388.8 252 
L 388.8 34.56 
" style="fill:none;stroke:#000000;stroke-linecap:square;stroke-linejoin:miter;stroke-width:0.8;"/>
   </g>
   <g id="patch_5">
    <path d="M 54 252 
L 388.8 252 
" style="fill:none;stroke:#000000;stroke-linecap:square;stroke-linejoin:miter;stroke-width:0.8;"/>
   </g>
   <g id="patch_6">
    <path d="M 54 34.56 
L 388.8 34.56 
" style="fill:none;stroke:#000000;stroke-linecap:square;stroke-linejoin:miter;stroke-width:0.8;"/>
   </g>
   <g id="text_16">
    <!-- AlexNet Accuracy -->
    <defs>
     <path d="M 9.421875 75.984375 
L 18.40625 75.984375 
L 18.40625 0 
L 9.421875 0 
z
" id="DejaVuSans-108"/>
     <path d="M 56.203125 29.59375 
L 56.203125 25.203125 
L 14.890625 25.203125 
Q 15.484375 15.921875 20.484375 11.0625 
Q 25.484375 6.203125 34.421875 6.203125 
Q 39.59375 6.203125 44.453125 7.46875 
Q 49.3125 8.734375 54.109375 11.28125 
L 54.109375 2.78125 
Q 49.265625 0.734375 44.1875 -0.34375 
Q 39.109375 -1.421875 33.890625 -1.421875 
Q 20.796875 -1.421875 13.15625 6.1875 
Q 5.515625 13.8125 5.515625 26.8125 
Q 5.515625 40.234375 12.765625 48.109375 
Q 20.015625 56 32.328125 56 
Q 43.359375 56 49.78125 48.890625 
Q 56.203125 41.796875 56.203125 29.59375 
z
M 47.21875 32.234375 
Q 47.125 39.59375 43.09375 43.984375 
Q 39.0625 48.390625 32.421875 48.390625 
Q 24.90625 48.390625 20.390625 44.140625 
Q 15.875 39.890625 15.1875 32.171875 
z
" id="DejaVuSans-101"/>
     <path d="M 54.890625 54.6875 
L 35.109375 28.078125 
L 55.90625 0 
L 45.3125 0 
L 29.390625 21.484375 
L 13.484375 0 
L 2.875 0 
L 24.125 28.609375 
L 4.6875 54.6875 
L 15.28125 54.6875 
L 29.78125 35.203125 
L 44.28125 54.6875 
z
" id="DejaVuSans-120"/>
     <path d="M 9.8125 72.90625 
L 23.09375 72.90625 
L 55.421875 11.921875 
L 55.421875 72.90625 
L 64.984375 72.90625 
L 64.984375 0 
L 51.703125 0 
L 19.390625 60.984375 
L 19.390625 0 
L 9.8125 0 
z
" id="DejaVuSans-78"/>
     <path d="M 18.3125 70.21875 
L 18.3125 54.6875 
L 36.8125 54.6875 
L 36.8125 47.703125 
L 18.3125 47.703125 
L 18.3125 18.015625 
Q 18.3125 11.328125 20.140625 9.421875 
Q 21.96875 7.515625 27.59375 7.515625 
L 36.8125 7.515625 
L 36.8125 0 
L 27.59375 0 
Q 17.1875 0 13.234375 3.875 
Q 9.28125 7.765625 9.28125 18.015625 
L 9.28125 47.703125 
L 2.6875 47.703125 
L 2.6875 54.6875 
L 9.28125 54.6875 
L 9.28125 70.21875 
z
" id="DejaVuSans-116"/>
     <path id="DejaVuSans-32"/>
    </defs>
    <g transform="translate(155.211328 28.56)scale(0.15 -0.15)">
     <use xlink:href="#DejaVuSans-65"/>
     <use x="68.408203" xlink:href="#DejaVuSans-108"/>
     <use x="96.191406" xlink:href="#DejaVuSans-101"/>
     <use x="157.699219" xlink:href="#DejaVuSans-120"/>
     <use x="216.878906" xlink:href="#DejaVuSans-78"/>
     <use x="291.683594" xlink:href="#DejaVuSans-101"/>
     <use x="353.207031" xlink:href="#DejaVuSans-116"/>
     <use x="392.416016" xlink:href="#DejaVuSans-32"/>
     <use x="424.203125" xlink:href="#DejaVuSans-65"/>
     <use x="492.595703" xlink:href="#DejaVuSans-99"/>
     <use x="547.576172" xlink:href="#DejaVuSans-99"/>
     <use x="602.556641" xlink:href="#DejaVuSans-117"/>
     <use x="665.935547" xlink:href="#DejaVuSans-114"/>
     <use x="707.048828" xlink:href="#DejaVuSans-97"/>
     <use x="768.328125" xlink:href="#DejaVuSans-99"/>
     <use x="823.308594" xlink:href="#DejaVuSans-121"/>
    </g>
   </g>
   <g id="legend_1">
    <g id="patch_7">
     <path d="M 250.646875 247 
L 381.8 247 
Q 383.8 247 383.8 245 
L 383.8 216.64375 
Q 383.8 214.64375 381.8 214.64375 
L 250.646875 214.64375 
Q 248.646875 214.64375 248.646875 216.64375 
L 248.646875 245 
Q 248.646875 247 250.646875 247 
z
" style="fill:#ffffff;opacity:0.8;stroke:#cccccc;stroke-linejoin:miter;"/>
    </g>
    <g id="line2d_29">
     <path d="M 252.646875 222.742188 
L 272.646875 222.742188 
" style="fill:none;stroke:#008000;stroke-linecap:square;stroke-width:1.5;"/>
    </g>
    <g id="line2d_30"/>
    <g id="text_17">
     <!-- Validation Accuracy -->
     <defs>
      <path d="M 28.609375 0 
L 0.78125 72.90625 
L 11.078125 72.90625 
L 34.1875 11.53125 
L 57.328125 72.90625 
L 67.578125 72.90625 
L 39.796875 0 
z
" id="DejaVuSans-86"/>
      <path d="M 9.421875 54.6875 
L 18.40625 54.6875 
L 18.40625 0 
L 9.421875 0 
z
M 9.421875 75.984375 
L 18.40625 75.984375 
L 18.40625 64.59375 
L 9.421875 64.59375 
z
" id="DejaVuSans-105"/>
      <path d="M 45.40625 46.390625 
L 45.40625 75.984375 
L 54.390625 75.984375 
L 54.390625 0 
L 45.40625 0 
L 45.40625 8.203125 
Q 42.578125 3.328125 38.25 0.953125 
Q 33.9375 -1.421875 27.875 -1.421875 
Q 17.96875 -1.421875 11.734375 6.484375 
Q 5.515625 14.40625 5.515625 27.296875 
Q 5.515625 40.1875 11.734375 48.09375 
Q 17.96875 56 27.875 56 
Q 33.9375 56 38.25 53.625 
Q 42.578125 51.265625 45.40625 46.390625 
z
M 14.796875 27.296875 
Q 14.796875 17.390625 18.875 11.75 
Q 22.953125 6.109375 30.078125 6.109375 
Q 37.203125 6.109375 41.296875 11.75 
Q 45.40625 17.390625 45.40625 27.296875 
Q 45.40625 37.203125 41.296875 42.84375 
Q 37.203125 48.484375 30.078125 48.484375 
Q 22.953125 48.484375 18.875 42.84375 
Q 14.796875 37.203125 14.796875 27.296875 
z
" id="DejaVuSans-100"/>
      <path d="M 54.890625 33.015625 
L 54.890625 0 
L 45.90625 0 
L 45.90625 32.71875 
Q 45.90625 40.484375 42.875 44.328125 
Q 39.84375 48.1875 33.796875 48.1875 
Q 26.515625 48.1875 22.3125 43.546875 
Q 18.109375 38.921875 18.109375 30.90625 
L 18.109375 0 
L 9.078125 0 
L 9.078125 54.6875 
L 18.109375 54.6875 
L 18.109375 46.1875 
Q 21.34375 51.125 25.703125 53.5625 
Q 30.078125 56 35.796875 56 
Q 45.21875 56 50.046875 50.171875 
Q 54.890625 44.34375 54.890625 33.015625 
z
" id="DejaVuSans-110"/>
     </defs>
     <g transform="translate(280.646875 226.242188)scale(0.1 -0.1)">
      <use xlink:href="#DejaVuSans-86"/>
      <use x="68.298828" xlink:href="#DejaVuSans-97"/>
      <use x="129.578125" xlink:href="#DejaVuSans-108"/>
      <use x="157.361328" xlink:href="#DejaVuSans-105"/>
      <use x="185.144531" xlink:href="#DejaVuSans-100"/>
      <use x="248.621094" xlink:href="#DejaVuSans-97"/>
      <use x="309.900391" xlink:href="#DejaVuSans-116"/>
      <use x="349.109375" xlink:href="#DejaVuSans-105"/>
      <use x="376.892578" xlink:href="#DejaVuSans-111"/>
      <use x="438.074219" xlink:href="#DejaVuSans-110"/>
      <use x="501.453125" xlink:href="#DejaVuSans-32"/>
      <use x="533.240234" xlink:href="#DejaVuSans-65"/>
      <use x="601.632812" xlink:href="#DejaVuSans-99"/>
      <use x="656.613281" xlink:href="#DejaVuSans-99"/>
      <use x="711.59375" xlink:href="#DejaVuSans-117"/>
      <use x="774.972656" xlink:href="#DejaVuSans-114"/>
      <use x="816.085938" xlink:href="#DejaVuSans-97"/>
      <use x="877.365234" xlink:href="#DejaVuSans-99"/>
      <use x="932.345703" xlink:href="#DejaVuSans-121"/>
     </g>
    </g>
    <g id="line2d_31">
     <path d="M 252.646875 237.420312 
L 272.646875 237.420312 
" style="fill:none;stroke:#ff0000;stroke-linecap:square;stroke-width:1.5;"/>
    </g>
    <g id="line2d_32"/>
    <g id="text_18">
     <!-- Test Accuracy -->
     <defs>
      <path d="M -0.296875 72.90625 
L 61.375 72.90625 
L 61.375 64.59375 
L 35.5 64.59375 
L 35.5 0 
L 25.59375 0 
L 25.59375 64.59375 
L -0.296875 64.59375 
z
" id="DejaVuSans-84"/>
     </defs>
     <g transform="translate(280.646875 240.920312)scale(0.1 -0.1)">
      <use xlink:href="#DejaVuSans-84"/>
      <use x="60.818359" xlink:href="#DejaVuSans-101"/>
      <use x="122.341797" xlink:href="#DejaVuSans-115"/>
      <use x="174.441406" xlink:href="#DejaVuSans-116"/>
      <use x="213.650391" xlink:href="#DejaVuSans-32"/>
      <use x="245.4375" xlink:href="#DejaVuSans-65"/>
      <use x="313.830078" xlink:href="#DejaVuSans-99"/>
      <use x="368.810547" xlink:href="#DejaVuSans-99"/>
      <use x="423.791016" xlink:href="#DejaVuSans-117"/>
      <use x="487.169922" xlink:href="#DejaVuSans-114"/>
      <use x="528.283203" xlink:href="#DejaVuSans-97"/>
      <use x="589.5625" xlink:href="#DejaVuSans-99"/>
      <use x="644.542969" xlink:href="#DejaVuSans-121"/>
     </g>
    </g>
   </g>
  </g>
 </g>
 <defs>
  <clipPath id="p44a217feb3">
   <rect height="217.44" width="334.8" x="54" y="34.56"/>
  </clipPath>
 </defs>
</svg>
