<?xml version="1.0" encoding="utf-8" standalone="no"?>
<!DOCTYPE svg PUBLIC "-//W3C//DTD SVG 1.1//EN"
  "http://www.w3.org/Graphics/SVG/1.1/DTD/svg11.dtd">
<!-- Created with matplotlib (https://matplotlib.org/) -->
<svg height="288pt" version="1.1" viewBox="0 0 432 288" width="432pt" xmlns="http://www.w3.org/2000/svg" xmlns:xlink="http://www.w3.org/1999/xlink">
 <defs>
  <style type="text/css">
*{stroke-linecap:butt;stroke-linejoin:round;}
  </style>
 </defs>
 <g id="figure_1">
  <g id="patch_1">
   <path d="M 0 288 
L 432 288 
L 432 0 
L 0 0 
z
" style="fill:#ffffff;"/>
  </g>
  <g id="axes_1">
   <g id="patch_2">
    <path d="M 54 252 
L 388.8 252 
L 388.8 34.56 
L 54 34.56 
z
" style="fill:#ffffff;"/>
   </g>
   <g id="matplotlib.axis_1">
    <g id="xtick_1">
     <g id="line2d_1">
      <path clip-path="url(#p78d76f0bfd)" d="M 69.218182 252 
L 69.218182 34.56 
" style="fill:none;stroke:#b0b0b0;stroke-dasharray:0.8,1.32;stroke-dashoffset:0;stroke-width:0.8;"/>
     </g>
     <g id="line2d_2">
      <defs>
       <path d="M 0 0 
L 0 3.5 
" id="mcec41d4103" style="stroke:#000000;stroke-width:0.8;"/>
      </defs>
      <g>
       <use style="stroke:#000000;stroke-width:0.8;" x="69.218182" xlink:href="#mcec41d4103" y="252"/>
      </g>
     </g>
     <g id="text_1">
      <!-- 0 -->
      <defs>
       <path d="M 31.78125 66.40625 
Q 24.171875 66.40625 20.328125 58.90625 
Q 16.5 51.421875 16.5 36.375 
Q 16.5 21.390625 20.328125 13.890625 
Q 24.171875 6.390625 31.78125 6.390625 
Q 39.453125 6.390625 43.28125 13.890625 
Q 47.125 21.390625 47.125 36.375 
Q 47.125 51.421875 43.28125 58.90625 
Q 39.453125 66.40625 31.78125 66.40625 
z
M 31.78125 74.21875 
Q 44.046875 74.21875 50.515625 64.515625 
Q 56.984375 54.828125 56.984375 36.375 
Q 56.984375 17.96875 50.515625 8.265625 
Q 44.046875 -1.421875 31.78125 -1.421875 
Q 19.53125 -1.421875 13.0625 8.265625 
Q 6.59375 17.96875 6.59375 36.375 
Q 6.59375 54.828125 13.0625 64.515625 
Q 19.53125 74.21875 31.78125 74.21875 
z
" id="DejaVuSans-48"/>
      </defs>
      <g transform="translate(66.036932 266.598437)scale(0.1 -0.1)">
       <use xlink:href="#DejaVuSans-48"/>
      </g>
     </g>
    </g>
    <g id="xtick_2">
     <g id="line2d_3">
      <path clip-path="url(#p78d76f0bfd)" d="M 107.502916 252 
L 107.502916 34.56 
" style="fill:none;stroke:#b0b0b0;stroke-dasharray:0.8,1.32;stroke-dashoffset:0;stroke-width:0.8;"/>
     </g>
     <g id="line2d_4">
      <g>
       <use style="stroke:#000000;stroke-width:0.8;" x="107.502916" xlink:href="#mcec41d4103" y="252"/>
      </g>
     </g>
     <g id="text_2">
      <!-- 20 -->
      <defs>
       <path d="M 19.1875 8.296875 
L 53.609375 8.296875 
L 53.609375 0 
L 7.328125 0 
L 7.328125 8.296875 
Q 12.9375 14.109375 22.625 23.890625 
Q 32.328125 33.6875 34.8125 36.53125 
Q 39.546875 41.84375 41.421875 45.53125 
Q 43.3125 49.21875 43.3125 52.78125 
Q 43.3125 58.59375 39.234375 62.25 
Q 35.15625 65.921875 28.609375 65.921875 
Q 23.96875 65.921875 18.8125 64.3125 
Q 13.671875 62.703125 7.8125 59.421875 
L 7.8125 69.390625 
Q 13.765625 71.78125 18.9375 73 
Q 24.125 74.21875 28.421875 74.21875 
Q 39.75 74.21875 46.484375 68.546875 
Q 53.21875 62.890625 53.21875 53.421875 
Q 53.21875 48.921875 51.53125 44.890625 
Q 49.859375 40.875 45.40625 35.40625 
Q 44.1875 33.984375 37.640625 27.21875 
Q 31.109375 20.453125 19.1875 8.296875 
z
" id="DejaVuSans-50"/>
      </defs>
      <g transform="translate(101.140416 266.598437)scale(0.1 -0.1)">
       <use xlink:href="#DejaVuSans-50"/>
       <use x="63.623047" xlink:href="#DejaVuSans-48"/>
      </g>
     </g>
    </g>
    <g id="xtick_3">
     <g id="line2d_5">
      <path clip-path="url(#p78d76f0bfd)" d="M 145.78765 252 
L 145.78765 34.56 
" style="fill:none;stroke:#b0b0b0;stroke-dasharray:0.8,1.32;stroke-dashoffset:0;stroke-width:0.8;"/>
     </g>
     <g id="line2d_6">
      <g>
       <use style="stroke:#000000;stroke-width:0.8;" x="145.78765" xlink:href="#mcec41d4103" y="252"/>
      </g>
     </g>
     <g id="text_3">
      <!-- 40 -->
      <defs>
       <path d="M 37.796875 64.3125 
L 12.890625 25.390625 
L 37.796875 25.390625 
z
M 35.203125 72.90625 
L 47.609375 72.90625 
L 47.609375 25.390625 
L 58.015625 25.390625 
L 58.015625 17.1875 
L 47.609375 17.1875 
L 47.609375 0 
L 37.796875 0 
L 37.796875 17.1875 
L 4.890625 17.1875 
L 4.890625 26.703125 
z
" id="DejaVuSans-52"/>
      </defs>
      <g transform="translate(139.42515 266.598437)scale(0.1 -0.1)">
       <use xlink:href="#DejaVuSans-52"/>
       <use x="63.623047" xlink:href="#DejaVuSans-48"/>
      </g>
     </g>
    </g>
    <g id="xtick_4">
     <g id="line2d_7">
      <path clip-path="url(#p78d76f0bfd)" d="M 184.072384 252 
L 184.072384 34.56 
" style="fill:none;stroke:#b0b0b0;stroke-dasharray:0.8,1.32;stroke-dashoffset:0;stroke-width:0.8;"/>
     </g>
     <g id="line2d_8">
      <g>
       <use style="stroke:#000000;stroke-width:0.8;" x="184.072384" xlink:href="#mcec41d4103" y="252"/>
      </g>
     </g>
     <g id="text_4">
      <!-- 60 -->
      <defs>
       <path d="M 33.015625 40.375 
Q 26.375 40.375 22.484375 35.828125 
Q 18.609375 31.296875 18.609375 23.390625 
Q 18.609375 15.53125 22.484375 10.953125 
Q 26.375 6.390625 33.015625 6.390625 
Q 39.65625 6.390625 43.53125 10.953125 
Q 47.40625 15.53125 47.40625 23.390625 
Q 47.40625 31.296875 43.53125 35.828125 
Q 39.65625 40.375 33.015625 40.375 
z
M 52.59375 71.296875 
L 52.59375 62.3125 
Q 48.875 64.0625 45.09375 64.984375 
Q 41.3125 65.921875 37.59375 65.921875 
Q 27.828125 65.921875 22.671875 59.328125 
Q 17.53125 52.734375 16.796875 39.40625 
Q 19.671875 43.65625 24.015625 45.921875 
Q 28.375 48.1875 33.59375 48.1875 
Q 44.578125 48.1875 50.953125 41.515625 
Q 57.328125 34.859375 57.328125 23.390625 
Q 57.328125 12.15625 50.6875 5.359375 
Q 44.046875 -1.421875 33.015625 -1.421875 
Q 20.359375 -1.421875 13.671875 8.265625 
Q 6.984375 17.96875 6.984375 36.375 
Q 6.984375 53.65625 15.1875 63.9375 
Q 23.390625 74.21875 37.203125 74.21875 
Q 40.921875 74.21875 44.703125 73.484375 
Q 48.484375 72.75 52.59375 71.296875 
z
" id="DejaVuSans-54"/>
      </defs>
      <g transform="translate(177.709884 266.598437)scale(0.1 -0.1)">
       <use xlink:href="#DejaVuSans-54"/>
       <use x="63.623047" xlink:href="#DejaVuSans-48"/>
      </g>
     </g>
    </g>
    <g id="xtick_5">
     <g id="line2d_9">
      <path clip-path="url(#p78d76f0bfd)" d="M 222.357118 252 
L 222.357118 34.56 
" style="fill:none;stroke:#b0b0b0;stroke-dasharray:0.8,1.32;stroke-dashoffset:0;stroke-width:0.8;"/>
     </g>
     <g id="line2d_10">
      <g>
       <use style="stroke:#000000;stroke-width:0.8;" x="222.357118" xlink:href="#mcec41d4103" y="252"/>
      </g>
     </g>
     <g id="text_5">
      <!-- 80 -->
      <defs>
       <path d="M 31.78125 34.625 
Q 24.75 34.625 20.71875 30.859375 
Q 16.703125 27.09375 16.703125 20.515625 
Q 16.703125 13.921875 20.71875 10.15625 
Q 24.75 6.390625 31.78125 6.390625 
Q 38.8125 6.390625 42.859375 10.171875 
Q 46.921875 13.96875 46.921875 20.515625 
Q 46.921875 27.09375 42.890625 30.859375 
Q 38.875 34.625 31.78125 34.625 
z
M 21.921875 38.8125 
Q 15.578125 40.375 12.03125 44.71875 
Q 8.5 49.078125 8.5 55.328125 
Q 8.5 64.0625 14.71875 69.140625 
Q 20.953125 74.21875 31.78125 74.21875 
Q 42.671875 74.21875 48.875 69.140625 
Q 55.078125 64.0625 55.078125 55.328125 
Q 55.078125 49.078125 51.53125 44.71875 
Q 48 40.375 41.703125 38.8125 
Q 48.828125 37.15625 52.796875 32.3125 
Q 56.78125 27.484375 56.78125 20.515625 
Q 56.78125 9.90625 50.3125 4.234375 
Q 43.84375 -1.421875 31.78125 -1.421875 
Q 19.734375 -1.421875 13.25 4.234375 
Q 6.78125 9.90625 6.78125 20.515625 
Q 6.78125 27.484375 10.78125 32.3125 
Q 14.796875 37.15625 21.921875 38.8125 
z
M 18.3125 54.390625 
Q 18.3125 48.734375 21.84375 45.5625 
Q 25.390625 42.390625 31.78125 42.390625 
Q 38.140625 42.390625 41.71875 45.5625 
Q 45.3125 48.734375 45.3125 54.390625 
Q 45.3125 60.0625 41.71875 63.234375 
Q 38.140625 66.40625 31.78125 66.40625 
Q 25.390625 66.40625 21.84375 63.234375 
Q 18.3125 60.0625 18.3125 54.390625 
z
" id="DejaVuSans-56"/>
      </defs>
      <g transform="translate(215.994618 266.598437)scale(0.1 -0.1)">
       <use xlink:href="#DejaVuSans-56"/>
       <use x="63.623047" xlink:href="#DejaVuSans-48"/>
      </g>
     </g>
    </g>
    <g id="xtick_6">
     <g id="line2d_11">
      <path clip-path="url(#p78d76f0bfd)" d="M 260.641852 252 
L 260.641852 34.56 
" style="fill:none;stroke:#b0b0b0;stroke-dasharray:0.8,1.32;stroke-dashoffset:0;stroke-width:0.8;"/>
     </g>
     <g id="line2d_12">
      <g>
       <use style="stroke:#000000;stroke-width:0.8;" x="260.641852" xlink:href="#mcec41d4103" y="252"/>
      </g>
     </g>
     <g id="text_6">
      <!-- 100 -->
      <defs>
       <path d="M 12.40625 8.296875 
L 28.515625 8.296875 
L 28.515625 63.921875 
L 10.984375 60.40625 
L 10.984375 69.390625 
L 28.421875 72.90625 
L 38.28125 72.90625 
L 38.28125 8.296875 
L 54.390625 8.296875 
L 54.390625 0 
L 12.40625 0 
z
" id="DejaVuSans-49"/>
      </defs>
      <g transform="translate(251.098102 266.598437)scale(0.1 -0.1)">
       <use xlink:href="#DejaVuSans-49"/>
       <use x="63.623047" xlink:href="#DejaVuSans-48"/>
       <use x="127.246094" xlink:href="#DejaVuSans-48"/>
      </g>
     </g>
    </g>
    <g id="xtick_7">
     <g id="line2d_13">
      <path clip-path="url(#p78d76f0bfd)" d="M 298.926587 252 
L 298.926587 34.56 
" style="fill:none;stroke:#b0b0b0;stroke-dasharray:0.8,1.32;stroke-dashoffset:0;stroke-width:0.8;"/>
     </g>
     <g id="line2d_14">
      <g>
       <use style="stroke:#000000;stroke-width:0.8;" x="298.926587" xlink:href="#mcec41d4103" y="252"/>
      </g>
     </g>
     <g id="text_7">
      <!-- 120 -->
      <g transform="translate(289.382837 266.598437)scale(0.1 -0.1)">
       <use xlink:href="#DejaVuSans-49"/>
       <use x="63.623047" xlink:href="#DejaVuSans-50"/>
       <use x="127.246094" xlink:href="#DejaVuSans-48"/>
      </g>
     </g>
    </g>
    <g id="xtick_8">
     <g id="line2d_15">
      <path clip-path="url(#p78d76f0bfd)" d="M 337.211321 252 
L 337.211321 34.56 
" style="fill:none;stroke:#b0b0b0;stroke-dasharray:0.8,1.32;stroke-dashoffset:0;stroke-width:0.8;"/>
     </g>
     <g id="line2d_16">
      <g>
       <use style="stroke:#000000;stroke-width:0.8;" x="337.211321" xlink:href="#mcec41d4103" y="252"/>
      </g>
     </g>
     <g id="text_8">
      <!-- 140 -->
      <g transform="translate(327.667571 266.598437)scale(0.1 -0.1)">
       <use xlink:href="#DejaVuSans-49"/>
       <use x="63.623047" xlink:href="#DejaVuSans-52"/>
       <use x="127.246094" xlink:href="#DejaVuSans-48"/>
      </g>
     </g>
    </g>
    <g id="xtick_9">
     <g id="line2d_17">
      <path clip-path="url(#p78d76f0bfd)" d="M 375.496055 252 
L 375.496055 34.56 
" style="fill:none;stroke:#b0b0b0;stroke-dasharray:0.8,1.32;stroke-dashoffset:0;stroke-width:0.8;"/>
     </g>
     <g id="line2d_18">
      <g>
       <use style="stroke:#000000;stroke-width:0.8;" x="375.496055" xlink:href="#mcec41d4103" y="252"/>
      </g>
     </g>
     <g id="text_9">
      <!-- 160 -->
      <g transform="translate(365.952305 266.598437)scale(0.1 -0.1)">
       <use xlink:href="#DejaVuSans-49"/>
       <use x="63.623047" xlink:href="#DejaVuSans-54"/>
       <use x="127.246094" xlink:href="#DejaVuSans-48"/>
      </g>
     </g>
    </g>
    <g id="text_10">
     <!-- Epochs -->
     <defs>
      <path d="M 9.8125 72.90625 
L 55.90625 72.90625 
L 55.90625 64.59375 
L 19.671875 64.59375 
L 19.671875 43.015625 
L 54.390625 43.015625 
L 54.390625 34.71875 
L 19.671875 34.71875 
L 19.671875 8.296875 
L 56.78125 8.296875 
L 56.78125 0 
L 9.8125 0 
z
" id="DejaVuSans-69"/>
      <path d="M 18.109375 8.203125 
L 18.109375 -20.796875 
L 9.078125 -20.796875 
L 9.078125 54.6875 
L 18.109375 54.6875 
L 18.109375 46.390625 
Q 20.953125 51.265625 25.265625 53.625 
Q 29.59375 56 35.59375 56 
Q 45.5625 56 51.78125 48.09375 
Q 58.015625 40.1875 58.015625 27.296875 
Q 58.015625 14.40625 51.78125 6.484375 
Q 45.5625 -1.421875 35.59375 -1.421875 
Q 29.59375 -1.421875 25.265625 0.953125 
Q 20.953125 3.328125 18.109375 8.203125 
z
M 48.6875 27.296875 
Q 48.6875 37.203125 44.609375 42.84375 
Q 40.53125 48.484375 33.40625 48.484375 
Q 26.265625 48.484375 22.1875 42.84375 
Q 18.109375 37.203125 18.109375 27.296875 
Q 18.109375 17.390625 22.1875 11.75 
Q 26.265625 6.109375 33.40625 6.109375 
Q 40.53125 6.109375 44.609375 11.75 
Q 48.6875 17.390625 48.6875 27.296875 
z
" id="DejaVuSans-112"/>
      <path d="M 30.609375 48.390625 
Q 23.390625 48.390625 19.1875 42.75 
Q 14.984375 37.109375 14.984375 27.296875 
Q 14.984375 17.484375 19.15625 11.84375 
Q 23.34375 6.203125 30.609375 6.203125 
Q 37.796875 6.203125 41.984375 11.859375 
Q 46.1875 17.53125 46.1875 27.296875 
Q 46.1875 37.015625 41.984375 42.703125 
Q 37.796875 48.390625 30.609375 48.390625 
z
M 30.609375 56 
Q 42.328125 56 49.015625 48.375 
Q 55.71875 40.765625 55.71875 27.296875 
Q 55.71875 13.875 49.015625 6.21875 
Q 42.328125 -1.421875 30.609375 -1.421875 
Q 18.84375 -1.421875 12.171875 6.21875 
Q 5.515625 13.875 5.515625 27.296875 
Q 5.515625 40.765625 12.171875 48.375 
Q 18.84375 56 30.609375 56 
z
" id="DejaVuSans-111"/>
      <path d="M 48.78125 52.59375 
L 48.78125 44.1875 
Q 44.96875 46.296875 41.140625 47.34375 
Q 37.3125 48.390625 33.40625 48.390625 
Q 24.65625 48.390625 19.8125 42.84375 
Q 14.984375 37.3125 14.984375 27.296875 
Q 14.984375 17.28125 19.8125 11.734375 
Q 24.65625 6.203125 33.40625 6.203125 
Q 37.3125 6.203125 41.140625 7.25 
Q 44.96875 8.296875 48.78125 10.40625 
L 48.78125 2.09375 
Q 45.015625 0.34375 40.984375 -0.53125 
Q 36.96875 -1.421875 32.421875 -1.421875 
Q 20.0625 -1.421875 12.78125 6.34375 
Q 5.515625 14.109375 5.515625 27.296875 
Q 5.515625 40.671875 12.859375 48.328125 
Q 20.21875 56 33.015625 56 
Q 37.15625 56 41.109375 55.140625 
Q 45.0625 54.296875 48.78125 52.59375 
z
" id="DejaVuSans-99"/>
      <path d="M 54.890625 33.015625 
L 54.890625 0 
L 45.90625 0 
L 45.90625 32.71875 
Q 45.90625 40.484375 42.875 44.328125 
Q 39.84375 48.1875 33.796875 48.1875 
Q 26.515625 48.1875 22.3125 43.546875 
Q 18.109375 38.921875 18.109375 30.90625 
L 18.109375 0 
L 9.078125 0 
L 9.078125 75.984375 
L 18.109375 75.984375 
L 18.109375 46.1875 
Q 21.34375 51.125 25.703125 53.5625 
Q 30.078125 56 35.796875 56 
Q 45.21875 56 50.046875 50.171875 
Q 54.890625 44.34375 54.890625 33.015625 
z
" id="DejaVuSans-104"/>
      <path d="M 44.28125 53.078125 
L 44.28125 44.578125 
Q 40.484375 46.53125 36.375 47.5 
Q 32.28125 48.484375 27.875 48.484375 
Q 21.1875 48.484375 17.84375 46.4375 
Q 14.5 44.390625 14.5 40.28125 
Q 14.5 37.15625 16.890625 35.375 
Q 19.28125 33.59375 26.515625 31.984375 
L 29.59375 31.296875 
Q 39.15625 29.25 43.1875 25.515625 
Q 47.21875 21.78125 47.21875 15.09375 
Q 47.21875 7.46875 41.1875 3.015625 
Q 35.15625 -1.421875 24.609375 -1.421875 
Q 20.21875 -1.421875 15.453125 -0.5625 
Q 10.6875 0.296875 5.421875 2 
L 5.421875 11.28125 
Q 10.40625 8.6875 15.234375 7.390625 
Q 20.0625 6.109375 24.8125 6.109375 
Q 31.15625 6.109375 34.5625 8.28125 
Q 37.984375 10.453125 37.984375 14.40625 
Q 37.984375 18.0625 35.515625 20.015625 
Q 33.0625 21.96875 24.703125 23.78125 
L 21.578125 24.515625 
Q 13.234375 26.265625 9.515625 29.90625 
Q 5.8125 33.546875 5.8125 39.890625 
Q 5.8125 47.609375 11.28125 51.796875 
Q 16.75 56 26.8125 56 
Q 31.78125 56 36.171875 55.265625 
Q 40.578125 54.546875 44.28125 53.078125 
z
" id="DejaVuSans-115"/>
     </defs>
     <g transform="translate(203.484375 280.276563)scale(0.1 -0.1)">
      <use xlink:href="#DejaVuSans-69"/>
      <use x="63.183594" xlink:href="#DejaVuSans-112"/>
      <use x="126.660156" xlink:href="#DejaVuSans-111"/>
      <use x="187.841797" xlink:href="#DejaVuSans-99"/>
      <use x="242.822266" xlink:href="#DejaVuSans-104"/>
      <use x="306.201172" xlink:href="#DejaVuSans-115"/>
     </g>
    </g>
   </g>
   <g id="matplotlib.axis_2">
    <g id="ytick_1">
     <g id="line2d_19">
      <path clip-path="url(#p78d76f0bfd)" d="M 54 250.145305 
L 388.8 250.145305 
" style="fill:none;stroke:#b0b0b0;stroke-dasharray:0.8,1.32;stroke-dashoffset:0;stroke-width:0.8;"/>
     </g>
     <g id="line2d_20">
      <defs>
       <path d="M 0 0 
L -3.5 0 
" id="mdff51195a9" style="stroke:#000000;stroke-width:0.8;"/>
      </defs>
      <g>
       <use style="stroke:#000000;stroke-width:0.8;" x="54" xlink:href="#mdff51195a9" y="250.145305"/>
      </g>
     </g>
     <g id="text_11">
      <!-- 0.0 -->
      <defs>
       <path d="M 10.6875 12.40625 
L 21 12.40625 
L 21 0 
L 10.6875 0 
z
" id="DejaVuSans-46"/>
      </defs>
      <g transform="translate(31.096875 253.944523)scale(0.1 -0.1)">
       <use xlink:href="#DejaVuSans-48"/>
       <use x="63.623047" xlink:href="#DejaVuSans-46"/>
       <use x="95.410156" xlink:href="#DejaVuSans-48"/>
      </g>
     </g>
    </g>
    <g id="ytick_2">
     <g id="line2d_21">
      <path clip-path="url(#p78d76f0bfd)" d="M 54 205.578187 
L 388.8 205.578187 
" style="fill:none;stroke:#b0b0b0;stroke-dasharray:0.8,1.32;stroke-dashoffset:0;stroke-width:0.8;"/>
     </g>
     <g id="line2d_22">
      <g>
       <use style="stroke:#000000;stroke-width:0.8;" x="54" xlink:href="#mdff51195a9" y="205.578187"/>
      </g>
     </g>
     <g id="text_12">
      <!-- 0.5 -->
      <defs>
       <path d="M 10.796875 72.90625 
L 49.515625 72.90625 
L 49.515625 64.59375 
L 19.828125 64.59375 
L 19.828125 46.734375 
Q 21.96875 47.46875 24.109375 47.828125 
Q 26.265625 48.1875 28.421875 48.1875 
Q 40.625 48.1875 47.75 41.5 
Q 54.890625 34.8125 54.890625 23.390625 
Q 54.890625 11.625 47.5625 5.09375 
Q 40.234375 -1.421875 26.90625 -1.421875 
Q 22.3125 -1.421875 17.546875 -0.640625 
Q 12.796875 0.140625 7.71875 1.703125 
L 7.71875 11.625 
Q 12.109375 9.234375 16.796875 8.0625 
Q 21.484375 6.890625 26.703125 6.890625 
Q 35.15625 6.890625 40.078125 11.328125 
Q 45.015625 15.765625 45.015625 23.390625 
Q 45.015625 31 40.078125 35.4375 
Q 35.15625 39.890625 26.703125 39.890625 
Q 22.75 39.890625 18.8125 39.015625 
Q 14.890625 38.140625 10.796875 36.28125 
z
" id="DejaVuSans-53"/>
      </defs>
      <g transform="translate(31.096875 209.377406)scale(0.1 -0.1)">
       <use xlink:href="#DejaVuSans-48"/>
       <use x="63.623047" xlink:href="#DejaVuSans-46"/>
       <use x="95.410156" xlink:href="#DejaVuSans-53"/>
      </g>
     </g>
    </g>
    <g id="ytick_3">
     <g id="line2d_23">
      <path clip-path="url(#p78d76f0bfd)" d="M 54 161.01107 
L 388.8 161.01107 
" style="fill:none;stroke:#b0b0b0;stroke-dasharray:0.8,1.32;stroke-dashoffset:0;stroke-width:0.8;"/>
     </g>
     <g id="line2d_24">
      <g>
       <use style="stroke:#000000;stroke-width:0.8;" x="54" xlink:href="#mdff51195a9" y="161.01107"/>
      </g>
     </g>
     <g id="text_13">
      <!-- 1.0 -->
      <g transform="translate(31.096875 164.810289)scale(0.1 -0.1)">
       <use xlink:href="#DejaVuSans-49"/>
       <use x="63.623047" xlink:href="#DejaVuSans-46"/>
       <use x="95.410156" xlink:href="#DejaVuSans-48"/>
      </g>
     </g>
    </g>
    <g id="ytick_4">
     <g id="line2d_25">
      <path clip-path="url(#p78d76f0bfd)" d="M 54 116.443953 
L 388.8 116.443953 
" style="fill:none;stroke:#b0b0b0;stroke-dasharray:0.8,1.32;stroke-dashoffset:0;stroke-width:0.8;"/>
     </g>
     <g id="line2d_26">
      <g>
       <use style="stroke:#000000;stroke-width:0.8;" x="54" xlink:href="#mdff51195a9" y="116.443953"/>
      </g>
     </g>
     <g id="text_14">
      <!-- 1.5 -->
      <g transform="translate(31.096875 120.243172)scale(0.1 -0.1)">
       <use xlink:href="#DejaVuSans-49"/>
       <use x="63.623047" xlink:href="#DejaVuSans-46"/>
       <use x="95.410156" xlink:href="#DejaVuSans-53"/>
      </g>
     </g>
    </g>
    <g id="ytick_5">
     <g id="line2d_27">
      <path clip-path="url(#p78d76f0bfd)" d="M 54 71.876836 
L 388.8 71.876836 
" style="fill:none;stroke:#b0b0b0;stroke-dasharray:0.8,1.32;stroke-dashoffset:0;stroke-width:0.8;"/>
     </g>
     <g id="line2d_28">
      <g>
       <use style="stroke:#000000;stroke-width:0.8;" x="54" xlink:href="#mdff51195a9" y="71.876836"/>
      </g>
     </g>
     <g id="text_15">
      <!-- 2.0 -->
      <g transform="translate(31.096875 75.676055)scale(0.1 -0.1)">
       <use xlink:href="#DejaVuSans-50"/>
       <use x="63.623047" xlink:href="#DejaVuSans-46"/>
       <use x="95.410156" xlink:href="#DejaVuSans-48"/>
      </g>
     </g>
    </g>
    <g id="text_16">
     <!-- Loss -->
     <defs>
      <path d="M 9.8125 72.90625 
L 19.671875 72.90625 
L 19.671875 8.296875 
L 55.171875 8.296875 
L 55.171875 0 
L 9.8125 0 
z
" id="DejaVuSans-76"/>
     </defs>
     <g transform="translate(25.017187 154.333906)rotate(-90)scale(0.1 -0.1)">
      <use xlink:href="#DejaVuSans-76"/>
      <use x="55.697266" xlink:href="#DejaVuSans-111"/>
      <use x="116.878906" xlink:href="#DejaVuSans-115"/>
      <use x="168.978516" xlink:href="#DejaVuSans-115"/>
     </g>
    </g>
   </g>
   <g id="line2d_29">
    <path clip-path="url(#p78d76f0bfd)" d="M 69.218182 44.956232 
L 71.132419 49.991016 
L 73.046655 67.299719 
L 74.960892 76.756231 
L 76.875129 80.521646 
L 78.789365 93.347821 
L 80.703602 94.611633 
L 82.617839 118.793896 
L 84.532075 122.146218 
L 86.446312 115.315246 
L 88.360549 134.078661 
L 90.274786 142.012977 
L 92.189022 125.320317 
L 94.103259 144.243244 
L 96.017496 138.770631 
L 97.931732 138.156512 
L 99.845969 156.194398 
L 101.760206 155.689458 
L 103.674443 161.095905 
L 105.588679 173.6161 
L 107.502916 161.815473 
L 109.417153 176.465734 
L 111.331389 173.063168 
L 113.245626 172.329113 
L 115.159863 182.844076 
L 117.074099 181.866555 
L 118.988336 182.692804 
L 120.902573 189.349712 
L 122.81681 181.874158 
L 124.731046 189.168306 
L 126.645283 177.291303 
L 128.55952 189.797142 
L 130.473756 197.03931 
L 132.387993 194.508174 
L 134.30223 196.563808 
L 136.216467 197.444396 
L 138.130703 184.457668 
L 140.04494 207.914665 
L 141.959177 200.239648 
L 143.873413 190.666069 
L 145.78765 197.71052 
L 147.701887 196.424139 
L 149.616123 188.314665 
L 151.53036 212.350636 
L 153.444597 205.444007 
L 155.358834 212.345719 
L 157.27307 201.623105 
L 159.187307 196.831898 
L 161.101544 206.00176 
L 163.01578 199.051772 
L 164.930017 201.469044 
L 166.844254 209.503162 
L 168.758491 213.02245 
L 170.672727 198.485176 
L 172.586964 209.349948 
L 174.501201 215.809494 
L 176.415437 218.703689 
L 178.329674 213.524843 
L 180.243911 212.066937 
L 182.158148 206.046201 
L 184.072384 207.102615 
L 185.986621 220.125186 
L 187.900858 230.528734 
L 189.815094 219.006071 
L 191.729331 219.23075 
L 193.643568 218.1262 
L 195.557804 225.485996 
L 197.472041 212.813999 
L 199.386278 223.2506 
L 203.214751 214.922615 
L 205.128988 225.802109 
L 207.043225 218.888618 
L 208.957461 230.04265 
L 210.871698 217.032153 
L 212.785935 222.129033 
L 214.700172 210.749564 
L 216.614408 220.728344 
L 218.528645 224.372834 
L 220.442882 226.423814 
L 222.357118 222.499934 
L 224.271355 226.405907 
L 226.185592 231.619733 
L 228.099828 230.746684 
L 230.014065 232.218806 
L 231.928302 222.454151 
L 233.842539 227.154138 
L 235.756775 223.540975 
L 237.671012 218.436064 
L 239.585249 233.692221 
L 241.499485 236.30341 
L 243.413722 227.804718 
L 245.327959 228.87877 
L 247.242196 232.516 
L 249.156432 231.885842 
L 251.070669 238.931602 
L 252.984906 236.595535 
L 254.899142 236.497686 
L 256.813379 232.7574 
L 258.727616 225.539294 
L 260.641852 232.263538 
L 262.556089 241.235702 
L 264.470326 236.117089 
L 266.384563 233.17706 
L 268.298799 236.900519 
L 270.213036 232.468934 
L 272.127273 235.345305 
L 274.041509 232.910487 
L 275.955746 234.542004 
L 277.869983 235.031346 
L 279.78422 233.380258 
L 281.698456 231.945858 
L 283.612693 238.750115 
L 285.52693 235.523539 
L 287.441166 228.983363 
L 289.355403 233.627992 
L 291.26964 233.535093 
L 293.183877 231.67407 
L 295.098113 237.853806 
L 297.01235 236.745687 
L 298.926587 234.92849 
L 300.840823 242.116364 
L 302.75506 231.514544 
L 304.669297 237.684338 
L 306.583533 235.336933 
L 308.49777 235.334724 
L 310.412007 235.743075 
L 312.326244 236.978102 
L 314.24048 232.082725 
L 316.154717 229.365652 
L 318.068954 235.209368 
L 319.98319 235.29682 
L 321.897427 231.709613 
L 323.811664 222.634332 
L 325.725901 236.132004 
L 327.640137 235.562584 
L 329.554374 236.255825 
L 331.468611 229.400395 
L 333.382847 233.182624 
L 335.297084 234.613499 
L 337.211321 230.888209 
L 339.125557 234.8244 
L 341.039794 239.056642 
L 342.954031 229.204678 
L 344.868268 238.304537 
L 346.782504 227.25769 
L 348.696741 235.980726 
L 350.610978 235.301256 
L 352.525214 235.881089 
L 354.439451 236.938046 
L 356.353688 230.337932 
L 358.267925 235.506487 
L 360.182161 228.720399 
L 362.096398 234.314154 
L 364.010635 227.091669 
L 365.924871 238.943931 
L 367.839108 236.26505 
L 369.753345 231.959052 
L 373.581818 238.411554 
L 373.581818 238.411554 
" style="fill:none;stroke:#ff0000;stroke-linecap:square;stroke-width:1.5;"/>
   </g>
   <g id="line2d_30">
    <path clip-path="url(#p78d76f0bfd)" d="M 69.218182 44.875046 
L 71.132419 45.103675 
L 73.046655 45.053225 
L 74.960892 45.167852 
L 76.875129 45.605858 
L 78.789365 45.111074 
L 80.703602 47.175601 
L 82.617839 45.727169 
L 84.532075 45.150382 
L 86.446312 45.269554 
L 88.360549 44.443636 
L 90.274786 47.771017 
L 92.189022 47.675733 
L 94.103259 45.894474 
L 96.017496 54.230754 
L 97.931732 55.360887 
L 99.845969 56.662781 
L 101.760206 69.391239 
L 103.674443 64.608028 
L 105.588679 73.118922 
L 107.502916 77.326414 
L 109.417153 72.636527 
L 111.331389 84.638095 
L 113.245626 83.187525 
L 115.159863 90.10862 
L 117.074099 79.746765 
L 118.988336 80.382114 
L 120.902573 91.020107 
L 122.81681 94.655357 
L 124.731046 77.412072 
L 126.645283 87.76332 
L 128.55952 104.446931 
L 130.473756 98.535549 
L 132.387993 104.897683 
L 134.30223 106.123902 
L 136.216467 97.634223 
L 138.130703 103.569137 
L 140.04494 115.781775 
L 141.959177 113.392799 
L 143.873413 119.036601 
L 145.78765 114.041875 
L 147.701887 127.474315 
L 149.616123 122.066184 
L 151.53036 126.06849 
L 153.444597 115.879555 
L 155.358834 126.56773 
L 157.27307 141.096432 
L 159.187307 129.875591 
L 161.101544 141.824748 
L 163.01578 137.81861 
L 164.930017 134.281229 
L 166.844254 137.513414 
L 168.758491 146.478179 
L 170.672727 129.827815 
L 172.586964 136.35458 
L 174.501201 145.242333 
L 176.415437 152.001738 
L 178.329674 145.625343 
L 180.243911 144.323002 
L 182.158148 140.384161 
L 184.072384 156.247559 
L 185.986621 160.389894 
L 187.900858 163.875399 
L 189.815094 155.715071 
L 191.729331 168.399407 
L 193.643568 167.076477 
L 195.557804 161.215901 
L 197.472041 154.576559 
L 199.386278 164.423218 
L 201.300515 171.245196 
L 203.214751 158.324743 
L 205.128988 161.077119 
L 207.043225 166.158305 
L 208.957461 183.615423 
L 210.871698 175.414628 
L 212.785935 183.755542 
L 214.700172 185.669254 
L 216.614408 180.61873 
L 218.528645 161.739564 
L 220.442882 171.35599 
L 222.357118 179.291076 
L 224.271355 190.884052 
L 226.185592 201.758607 
L 228.099828 201.932954 
L 230.014065 192.418498 
L 231.928302 197.230766 
L 233.842539 192.662548 
L 235.756775 203.014419 
L 237.671012 193.262956 
L 239.585249 200.904969 
L 241.499485 184.642428 
L 243.413722 201.904431 
L 245.327959 190.799286 
L 247.242196 196.061236 
L 249.156432 212.849937 
L 251.070669 195.717178 
L 252.984906 193.411988 
L 254.899142 204.182345 
L 256.813379 200.675894 
L 258.727616 199.688821 
L 260.641852 194.181484 
L 262.556089 200.913169 
L 264.470326 199.432204 
L 266.384563 200.631772 
L 268.298799 215.319846 
L 270.213036 207.181088 
L 272.127273 193.304136 
L 274.041509 201.973956 
L 275.955746 202.763417 
L 277.869983 191.140492 
L 279.78422 217.087824 
L 281.698456 202.403048 
L 283.612693 208.134201 
L 285.52693 209.257827 
L 287.441166 201.304468 
L 289.355403 221.932804 
L 291.26964 213.656512 
L 293.183877 199.688554 
L 295.098113 204.106403 
L 297.01235 208.234566 
L 298.926587 218.521815 
L 300.840823 224.1879 
L 302.75506 211.460066 
L 304.669297 218.962584 
L 306.583533 204.963696 
L 308.49777 216.256112 
L 310.412007 222.379991 
L 312.326244 220.221427 
L 314.24048 219.801515 
L 316.154717 218.9764 
L 318.068954 227.107938 
L 319.98319 225.258402 
L 321.897427 214.173491 
L 323.811664 231.685337 
L 325.725901 215.330453 
L 327.640137 227.822705 
L 329.554374 226.979941 
L 331.468611 227.109631 
L 333.382847 219.437224 
L 335.297084 220.25298 
L 337.211321 227.212849 
L 339.125557 221.885206 
L 342.954031 225.18148 
L 344.868268 213.511402 
L 346.782504 232.945339 
L 348.696741 224.063736 
L 350.610978 227.027895 
L 352.525214 231.233872 
L 354.439451 220.080506 
L 356.353688 220.627522 
L 358.267925 222.357261 
L 360.182161 222.871744 
L 362.096398 223.605319 
L 364.010635 230.312135 
L 365.924871 227.350026 
L 367.839108 229.443166 
L 369.753345 227.392543 
L 371.667581 228.513763 
L 373.581818 222.280962 
L 373.581818 222.280962 
" style="fill:none;stroke:#008000;stroke-linecap:square;stroke-width:1.5;"/>
   </g>
   <g id="line2d_31">
    <path clip-path="url(#p78d76f0bfd)" d="M 69.218182 44.875052 
L 80.703602 44.989554 
L 82.617839 44.836226 
L 84.532075 45.023513 
L 86.446312 44.918405 
L 90.274786 45.052075 
L 92.189022 45.020921 
L 94.103259 45.127007 
L 99.845969 45.076557 
L 101.760206 45.549461 
L 105.588679 45.004069 
L 107.502916 46.804326 
L 109.417153 48.998965 
L 111.331389 45.883254 
L 113.245626 48.137609 
L 115.159863 49.05815 
L 117.074099 53.027842 
L 118.988336 60.137854 
L 120.902573 55.284109 
L 122.81681 61.606698 
L 124.731046 69.070969 
L 126.645283 62.951924 
L 128.55952 53.538255 
L 130.473756 67.993764 
L 132.387993 71.786433 
L 134.30223 63.667667 
L 136.216467 70.092177 
L 138.130703 74.40207 
L 140.04494 72.181515 
L 141.959177 75.149413 
L 143.873413 74.031777 
L 145.78765 74.6699 
L 147.701887 74.394919 
L 149.616123 71.910689 
L 151.53036 72.459875 
L 153.444597 81.43444 
L 155.358834 82.769274 
L 157.27307 70.559556 
L 159.187307 79.061993 
L 161.101544 85.080625 
L 163.01578 95.583942 
L 164.930017 77.215067 
L 166.844254 81.875138 
L 168.758491 96.728885 
L 170.672727 92.734765 
L 172.586964 92.089056 
L 174.501201 82.225805 
L 178.329674 105.402097 
L 180.243911 92.25268 
L 182.158148 87.762364 
L 184.072384 97.005959 
L 185.986621 101.174192 
L 187.900858 96.955148 
L 189.815094 103.834987 
L 191.729331 89.941181 
L 193.643568 103.471219 
L 195.557804 94.634925 
L 197.472041 92.167176 
L 199.386278 100.897277 
L 201.300515 95.965115 
L 203.214751 102.795801 
L 205.128988 106.042865 
L 207.043225 111.174523 
L 208.957461 96.472999 
L 210.871698 96.739245 
L 212.785935 103.445675 
L 214.700172 98.161613 
L 216.614408 103.073799 
L 218.528645 103.87767 
L 220.442882 100.688653 
L 222.357118 95.85174 
L 224.271355 108.714945 
L 226.185592 102.759461 
L 228.099828 108.639737 
L 230.014065 100.526315 
L 231.928302 106.62821 
L 233.842539 117.73858 
L 235.756775 119.569408 
L 237.671012 119.033536 
L 239.585249 120.669298 
L 241.499485 113.945496 
L 243.413722 125.105562 
L 245.327959 114.562951 
L 247.242196 112.766147 
L 249.156432 118.08981 
L 251.070669 101.736234 
L 252.984906 107.927799 
L 254.899142 115.553462 
L 256.813379 102.155543 
L 258.727616 114.4831 
L 260.641852 110.774532 
L 262.556089 116.245987 
L 264.470326 126.175053 
L 266.384563 111.935414 
L 268.298799 124.330986 
L 270.213036 128.134504 
L 272.127273 106.301737 
L 274.041509 124.352152 
L 275.955746 118.18628 
L 277.869983 124.230223 
L 279.78422 118.915103 
L 281.698456 123.377527 
L 283.612693 113.25771 
L 285.52693 116.729687 
L 287.441166 125.17312 
L 289.355403 108.910659 
L 293.183877 135.4411 
L 295.098113 113.099845 
L 297.01235 137.088349 
L 298.926587 111.12233 
L 300.840823 124.16377 
L 302.75506 117.0487 
L 304.669297 113.485098 
L 306.583533 130.054279 
L 308.49777 120.968282 
L 310.412007 119.350318 
L 312.326244 132.691145 
L 314.24048 134.694884 
L 316.154717 140.844466 
L 318.068954 125.002037 
L 319.98319 124.378386 
L 321.897427 142.563938 
L 323.811664 124.175639 
L 325.725901 145.35988 
L 327.640137 132.07879 
L 329.554374 130.787925 
L 331.468611 139.359864 
L 333.382847 142.19746 
L 335.297084 123.684841 
L 337.211321 130.696768 
L 339.125557 136.437678 
L 341.039794 129.321758 
L 342.954031 121.125903 
L 344.868268 144.4728 
L 346.782504 123.196817 
L 348.696741 139.206037 
L 350.610978 148.21691 
L 352.525214 141.140231 
L 354.439451 144.467094 
L 356.353688 145.392363 
L 358.267925 139.711445 
L 360.182161 137.371055 
L 362.096398 132.932326 
L 364.010635 133.70415 
L 365.924871 132.234987 
L 367.839108 139.715313 
L 369.753345 148.10226 
L 371.667581 133.011731 
L 373.581818 141.949436 
L 373.581818 141.949436 
" style="fill:none;stroke:#4363d8;stroke-linecap:square;stroke-width:1.5;"/>
   </g>
   <g id="patch_3">
    <path d="M 54 252 
L 54 34.56 
" style="fill:none;stroke:#000000;stroke-linecap:square;stroke-linejoin:miter;stroke-width:0.8;"/>
   </g>
   <g id="patch_4">
    <path d="M 388.8 252 
L 388.8 34.56 
" style="fill:none;stroke:#000000;stroke-linecap:square;stroke-linejoin:miter;stroke-width:0.8;"/>
   </g>
   <g id="patch_5">
    <path d="M 54 252 
L 388.8 252 
" style="fill:none;stroke:#000000;stroke-linecap:square;stroke-linejoin:miter;stroke-width:0.8;"/>
   </g>
   <g id="patch_6">
    <path d="M 54 34.56 
L 388.8 34.56 
" style="fill:none;stroke:#000000;stroke-linecap:square;stroke-linejoin:miter;stroke-width:0.8;"/>
   </g>
   <g id="text_17">
    <!-- AlexNet Train Loss for different settings -->
    <defs>
     <path d="M 34.1875 63.1875 
L 20.796875 26.90625 
L 47.609375 26.90625 
z
M 28.609375 72.90625 
L 39.796875 72.90625 
L 67.578125 0 
L 57.328125 0 
L 50.6875 18.703125 
L 17.828125 18.703125 
L 11.1875 0 
L 0.78125 0 
z
" id="DejaVuSans-65"/>
     <path d="M 9.421875 75.984375 
L 18.40625 75.984375 
L 18.40625 0 
L 9.421875 0 
z
" id="DejaVuSans-108"/>
     <path d="M 56.203125 29.59375 
L 56.203125 25.203125 
L 14.890625 25.203125 
Q 15.484375 15.921875 20.484375 11.0625 
Q 25.484375 6.203125 34.421875 6.203125 
Q 39.59375 6.203125 44.453125 7.46875 
Q 49.3125 8.734375 54.109375 11.28125 
L 54.109375 2.78125 
Q 49.265625 0.734375 44.1875 -0.34375 
Q 39.109375 -1.421875 33.890625 -1.421875 
Q 20.796875 -1.421875 13.15625 6.1875 
Q 5.515625 13.8125 5.515625 26.8125 
Q 5.515625 40.234375 12.765625 48.109375 
Q 20.015625 56 32.328125 56 
Q 43.359375 56 49.78125 48.890625 
Q 56.203125 41.796875 56.203125 29.59375 
z
M 47.21875 32.234375 
Q 47.125 39.59375 43.09375 43.984375 
Q 39.0625 48.390625 32.421875 48.390625 
Q 24.90625 48.390625 20.390625 44.140625 
Q 15.875 39.890625 15.1875 32.171875 
z
" id="DejaVuSans-101"/>
     <path d="M 54.890625 54.6875 
L 35.109375 28.078125 
L 55.90625 0 
L 45.3125 0 
L 29.390625 21.484375 
L 13.484375 0 
L 2.875 0 
L 24.125 28.609375 
L 4.6875 54.6875 
L 15.28125 54.6875 
L 29.78125 35.203125 
L 44.28125 54.6875 
z
" id="DejaVuSans-120"/>
     <path d="M 9.8125 72.90625 
L 23.09375 72.90625 
L 55.421875 11.921875 
L 55.421875 72.90625 
L 64.984375 72.90625 
L 64.984375 0 
L 51.703125 0 
L 19.390625 60.984375 
L 19.390625 0 
L 9.8125 0 
z
" id="DejaVuSans-78"/>
     <path d="M 18.3125 70.21875 
L 18.3125 54.6875 
L 36.8125 54.6875 
L 36.8125 47.703125 
L 18.3125 47.703125 
L 18.3125 18.015625 
Q 18.3125 11.328125 20.140625 9.421875 
Q 21.96875 7.515625 27.59375 7.515625 
L 36.8125 7.515625 
L 36.8125 0 
L 27.59375 0 
Q 17.1875 0 13.234375 3.875 
Q 9.28125 7.765625 9.28125 18.015625 
L 9.28125 47.703125 
L 2.6875 47.703125 
L 2.6875 54.6875 
L 9.28125 54.6875 
L 9.28125 70.21875 
z
" id="DejaVuSans-116"/>
     <path id="DejaVuSans-32"/>
     <path d="M -0.296875 72.90625 
L 61.375 72.90625 
L 61.375 64.59375 
L 35.5 64.59375 
L 35.5 0 
L 25.59375 0 
L 25.59375 64.59375 
L -0.296875 64.59375 
z
" id="DejaVuSans-84"/>
     <path d="M 41.109375 46.296875 
Q 39.59375 47.171875 37.8125 47.578125 
Q 36.03125 48 33.890625 48 
Q 26.265625 48 22.1875 43.046875 
Q 18.109375 38.09375 18.109375 28.8125 
L 18.109375 0 
L 9.078125 0 
L 9.078125 54.6875 
L 18.109375 54.6875 
L 18.109375 46.1875 
Q 20.953125 51.171875 25.484375 53.578125 
Q 30.03125 56 36.53125 56 
Q 37.453125 56 38.578125 55.875 
Q 39.703125 55.765625 41.0625 55.515625 
z
" id="DejaVuSans-114"/>
     <path d="M 34.28125 27.484375 
Q 23.390625 27.484375 19.1875 25 
Q 14.984375 22.515625 14.984375 16.5 
Q 14.984375 11.71875 18.140625 8.90625 
Q 21.296875 6.109375 26.703125 6.109375 
Q 34.1875 6.109375 38.703125 11.40625 
Q 43.21875 16.703125 43.21875 25.484375 
L 43.21875 27.484375 
z
M 52.203125 31.203125 
L 52.203125 0 
L 43.21875 0 
L 43.21875 8.296875 
Q 40.140625 3.328125 35.546875 0.953125 
Q 30.953125 -1.421875 24.3125 -1.421875 
Q 15.921875 -1.421875 10.953125 3.296875 
Q 6 8.015625 6 15.921875 
Q 6 25.140625 12.171875 29.828125 
Q 18.359375 34.515625 30.609375 34.515625 
L 43.21875 34.515625 
L 43.21875 35.40625 
Q 43.21875 41.609375 39.140625 45 
Q 35.0625 48.390625 27.6875 48.390625 
Q 23 48.390625 18.546875 47.265625 
Q 14.109375 46.140625 10.015625 43.890625 
L 10.015625 52.203125 
Q 14.9375 54.109375 19.578125 55.046875 
Q 24.21875 56 28.609375 56 
Q 40.484375 56 46.34375 49.84375 
Q 52.203125 43.703125 52.203125 31.203125 
z
" id="DejaVuSans-97"/>
     <path d="M 9.421875 54.6875 
L 18.40625 54.6875 
L 18.40625 0 
L 9.421875 0 
z
M 9.421875 75.984375 
L 18.40625 75.984375 
L 18.40625 64.59375 
L 9.421875 64.59375 
z
" id="DejaVuSans-105"/>
     <path d="M 54.890625 33.015625 
L 54.890625 0 
L 45.90625 0 
L 45.90625 32.71875 
Q 45.90625 40.484375 42.875 44.328125 
Q 39.84375 48.1875 33.796875 48.1875 
Q 26.515625 48.1875 22.3125 43.546875 
Q 18.109375 38.921875 18.109375 30.90625 
L 18.109375 0 
L 9.078125 0 
L 9.078125 54.6875 
L 18.109375 54.6875 
L 18.109375 46.1875 
Q 21.34375 51.125 25.703125 53.5625 
Q 30.078125 56 35.796875 56 
Q 45.21875 56 50.046875 50.171875 
Q 54.890625 44.34375 54.890625 33.015625 
z
" id="DejaVuSans-110"/>
     <path d="M 37.109375 75.984375 
L 37.109375 68.5 
L 28.515625 68.5 
Q 23.6875 68.5 21.796875 66.546875 
Q 19.921875 64.59375 19.921875 59.515625 
L 19.921875 54.6875 
L 34.71875 54.6875 
L 34.71875 47.703125 
L 19.921875 47.703125 
L 19.921875 0 
L 10.890625 0 
L 10.890625 47.703125 
L 2.296875 47.703125 
L 2.296875 54.6875 
L 10.890625 54.6875 
L 10.890625 58.5 
Q 10.890625 67.625 15.140625 71.796875 
Q 19.390625 75.984375 28.609375 75.984375 
z
" id="DejaVuSans-102"/>
     <path d="M 45.40625 46.390625 
L 45.40625 75.984375 
L 54.390625 75.984375 
L 54.390625 0 
L 45.40625 0 
L 45.40625 8.203125 
Q 42.578125 3.328125 38.25 0.953125 
Q 33.9375 -1.421875 27.875 -1.421875 
Q 17.96875 -1.421875 11.734375 6.484375 
Q 5.515625 14.40625 5.515625 27.296875 
Q 5.515625 40.1875 11.734375 48.09375 
Q 17.96875 56 27.875 56 
Q 33.9375 56 38.25 53.625 
Q 42.578125 51.265625 45.40625 46.390625 
z
M 14.796875 27.296875 
Q 14.796875 17.390625 18.875 11.75 
Q 22.953125 6.109375 30.078125 6.109375 
Q 37.203125 6.109375 41.296875 11.75 
Q 45.40625 17.390625 45.40625 27.296875 
Q 45.40625 37.203125 41.296875 42.84375 
Q 37.203125 48.484375 30.078125 48.484375 
Q 22.953125 48.484375 18.875 42.84375 
Q 14.796875 37.203125 14.796875 27.296875 
z
" id="DejaVuSans-100"/>
     <path d="M 45.40625 27.984375 
Q 45.40625 37.75 41.375 43.109375 
Q 37.359375 48.484375 30.078125 48.484375 
Q 22.859375 48.484375 18.828125 43.109375 
Q 14.796875 37.75 14.796875 27.984375 
Q 14.796875 18.265625 18.828125 12.890625 
Q 22.859375 7.515625 30.078125 7.515625 
Q 37.359375 7.515625 41.375 12.890625 
Q 45.40625 18.265625 45.40625 27.984375 
z
M 54.390625 6.78125 
Q 54.390625 -7.171875 48.1875 -13.984375 
Q 42 -20.796875 29.203125 -20.796875 
Q 24.46875 -20.796875 20.265625 -20.09375 
Q 16.0625 -19.390625 12.109375 -17.921875 
L 12.109375 -9.1875 
Q 16.0625 -11.328125 19.921875 -12.34375 
Q 23.78125 -13.375 27.78125 -13.375 
Q 36.625 -13.375 41.015625 -8.765625 
Q 45.40625 -4.15625 45.40625 5.171875 
L 45.40625 9.625 
Q 42.625 4.78125 38.28125 2.390625 
Q 33.9375 0 27.875 0 
Q 17.828125 0 11.671875 7.65625 
Q 5.515625 15.328125 5.515625 27.984375 
Q 5.515625 40.671875 11.671875 48.328125 
Q 17.828125 56 27.875 56 
Q 33.9375 56 38.28125 53.609375 
Q 42.625 51.21875 45.40625 46.390625 
L 45.40625 54.6875 
L 54.390625 54.6875 
z
" id="DejaVuSans-103"/>
    </defs>
    <g transform="translate(72.038672 28.56)scale(0.15 -0.15)">
     <use xlink:href="#DejaVuSans-65"/>
     <use x="68.408203" xlink:href="#DejaVuSans-108"/>
     <use x="96.191406" xlink:href="#DejaVuSans-101"/>
     <use x="157.699219" xlink:href="#DejaVuSans-120"/>
     <use x="216.878906" xlink:href="#DejaVuSans-78"/>
     <use x="291.683594" xlink:href="#DejaVuSans-101"/>
     <use x="353.207031" xlink:href="#DejaVuSans-116"/>
     <use x="392.416016" xlink:href="#DejaVuSans-32"/>
     <use x="424.203125" xlink:href="#DejaVuSans-84"/>
     <use x="485.068359" xlink:href="#DejaVuSans-114"/>
     <use x="526.181641" xlink:href="#DejaVuSans-97"/>
     <use x="587.460938" xlink:href="#DejaVuSans-105"/>
     <use x="615.244141" xlink:href="#DejaVuSans-110"/>
     <use x="678.623047" xlink:href="#DejaVuSans-32"/>
     <use x="710.410156" xlink:href="#DejaVuSans-76"/>
     <use x="766.107422" xlink:href="#DejaVuSans-111"/>
     <use x="827.289062" xlink:href="#DejaVuSans-115"/>
     <use x="879.388672" xlink:href="#DejaVuSans-115"/>
     <use x="931.488281" xlink:href="#DejaVuSans-32"/>
     <use x="963.275391" xlink:href="#DejaVuSans-102"/>
     <use x="998.480469" xlink:href="#DejaVuSans-111"/>
     <use x="1059.662109" xlink:href="#DejaVuSans-114"/>
     <use x="1100.775391" xlink:href="#DejaVuSans-32"/>
     <use x="1132.5625" xlink:href="#DejaVuSans-100"/>
     <use x="1196.039062" xlink:href="#DejaVuSans-105"/>
     <use x="1223.822266" xlink:href="#DejaVuSans-102"/>
     <use x="1259.027344" xlink:href="#DejaVuSans-102"/>
     <use x="1294.232422" xlink:href="#DejaVuSans-101"/>
     <use x="1355.755859" xlink:href="#DejaVuSans-114"/>
     <use x="1396.837891" xlink:href="#DejaVuSans-101"/>
     <use x="1458.361328" xlink:href="#DejaVuSans-110"/>
     <use x="1521.740234" xlink:href="#DejaVuSans-116"/>
     <use x="1560.949219" xlink:href="#DejaVuSans-32"/>
     <use x="1592.736328" xlink:href="#DejaVuSans-115"/>
     <use x="1644.835938" xlink:href="#DejaVuSans-101"/>
     <use x="1706.359375" xlink:href="#DejaVuSans-116"/>
     <use x="1745.568359" xlink:href="#DejaVuSans-116"/>
     <use x="1784.777344" xlink:href="#DejaVuSans-105"/>
     <use x="1812.560547" xlink:href="#DejaVuSans-110"/>
     <use x="1875.939453" xlink:href="#DejaVuSans-103"/>
     <use x="1939.416016" xlink:href="#DejaVuSans-115"/>
    </g>
   </g>
   <g id="legend_1">
    <g id="patch_7">
     <path d="M 331.284375 86.594375 
L 381.8 86.594375 
Q 383.8 86.594375 383.8 84.594375 
L 383.8 41.56 
Q 383.8 39.56 381.8 39.56 
L 331.284375 39.56 
Q 329.284375 39.56 329.284375 41.56 
L 329.284375 84.594375 
Q 329.284375 86.594375 331.284375 86.594375 
z
" style="fill:#ffffff;opacity:0.8;stroke:#cccccc;stroke-linejoin:miter;"/>
    </g>
    <g id="line2d_32">
     <path d="M 333.284375 47.658438 
L 353.284375 47.658438 
" style="fill:none;stroke:#ff0000;stroke-linecap:square;stroke-width:1.5;"/>
    </g>
    <g id="line2d_33"/>
    <g id="text_18">
     <!-- 49k -->
     <defs>
      <path d="M 10.984375 1.515625 
L 10.984375 10.5 
Q 14.703125 8.734375 18.5 7.8125 
Q 22.3125 6.890625 25.984375 6.890625 
Q 35.75 6.890625 40.890625 13.453125 
Q 46.046875 20.015625 46.78125 33.40625 
Q 43.953125 29.203125 39.59375 26.953125 
Q 35.25 24.703125 29.984375 24.703125 
Q 19.046875 24.703125 12.671875 31.3125 
Q 6.296875 37.9375 6.296875 49.421875 
Q 6.296875 60.640625 12.9375 67.421875 
Q 19.578125 74.21875 30.609375 74.21875 
Q 43.265625 74.21875 49.921875 64.515625 
Q 56.59375 54.828125 56.59375 36.375 
Q 56.59375 19.140625 48.40625 8.859375 
Q 40.234375 -1.421875 26.421875 -1.421875 
Q 22.703125 -1.421875 18.890625 -0.6875 
Q 15.09375 0.046875 10.984375 1.515625 
z
M 30.609375 32.421875 
Q 37.25 32.421875 41.125 36.953125 
Q 45.015625 41.5 45.015625 49.421875 
Q 45.015625 57.28125 41.125 61.84375 
Q 37.25 66.40625 30.609375 66.40625 
Q 23.96875 66.40625 20.09375 61.84375 
Q 16.21875 57.28125 16.21875 49.421875 
Q 16.21875 41.5 20.09375 36.953125 
Q 23.96875 32.421875 30.609375 32.421875 
z
" id="DejaVuSans-57"/>
      <path d="M 9.078125 75.984375 
L 18.109375 75.984375 
L 18.109375 31.109375 
L 44.921875 54.6875 
L 56.390625 54.6875 
L 27.390625 29.109375 
L 57.625 0 
L 45.90625 0 
L 18.109375 26.703125 
L 18.109375 0 
L 9.078125 0 
z
" id="DejaVuSans-107"/>
     </defs>
     <g transform="translate(361.284375 51.158438)scale(0.1 -0.1)">
      <use xlink:href="#DejaVuSans-52"/>
      <use x="63.623047" xlink:href="#DejaVuSans-57"/>
      <use x="127.246094" xlink:href="#DejaVuSans-107"/>
     </g>
    </g>
    <g id="line2d_34">
     <path d="M 333.284375 62.336563 
L 353.284375 62.336563 
" style="fill:none;stroke:#008000;stroke-linecap:square;stroke-width:1.5;"/>
    </g>
    <g id="line2d_35"/>
    <g id="text_19">
     <!-- SSL -->
     <defs>
      <path d="M 53.515625 70.515625 
L 53.515625 60.890625 
Q 47.90625 63.578125 42.921875 64.890625 
Q 37.9375 66.21875 33.296875 66.21875 
Q 25.25 66.21875 20.875 63.09375 
Q 16.5 59.96875 16.5 54.203125 
Q 16.5 49.359375 19.40625 46.890625 
Q 22.3125 44.4375 30.421875 42.921875 
L 36.375 41.703125 
Q 47.40625 39.59375 52.65625 34.296875 
Q 57.90625 29 57.90625 20.125 
Q 57.90625 9.515625 50.796875 4.046875 
Q 43.703125 -1.421875 29.984375 -1.421875 
Q 24.8125 -1.421875 18.96875 -0.25 
Q 13.140625 0.921875 6.890625 3.21875 
L 6.890625 13.375 
Q 12.890625 10.015625 18.65625 8.296875 
Q 24.421875 6.59375 29.984375 6.59375 
Q 38.421875 6.59375 43.015625 9.90625 
Q 47.609375 13.234375 47.609375 19.390625 
Q 47.609375 24.75 44.3125 27.78125 
Q 41.015625 30.8125 33.5 32.328125 
L 27.484375 33.5 
Q 16.453125 35.6875 11.515625 40.375 
Q 6.59375 45.0625 6.59375 53.421875 
Q 6.59375 63.09375 13.40625 68.65625 
Q 20.21875 74.21875 32.171875 74.21875 
Q 37.3125 74.21875 42.625 73.28125 
Q 47.953125 72.359375 53.515625 70.515625 
z
" id="DejaVuSans-83"/>
     </defs>
     <g transform="translate(361.284375 65.836563)scale(0.1 -0.1)">
      <use xlink:href="#DejaVuSans-83"/>
      <use x="63.476562" xlink:href="#DejaVuSans-83"/>
      <use x="126.953125" xlink:href="#DejaVuSans-76"/>
     </g>
    </g>
    <g id="line2d_36">
     <path d="M 333.284375 77.014688 
L 353.284375 77.014688 
" style="fill:none;stroke:#4363d8;stroke-linecap:square;stroke-width:1.5;"/>
    </g>
    <g id="line2d_37"/>
    <g id="text_20">
     <!-- 4k -->
     <g transform="translate(361.284375 80.514688)scale(0.1 -0.1)">
      <use xlink:href="#DejaVuSans-52"/>
      <use x="63.623047" xlink:href="#DejaVuSans-107"/>
     </g>
    </g>
   </g>
  </g>
 </g>
 <defs>
  <clipPath id="p78d76f0bfd">
   <rect height="217.44" width="334.8" x="54" y="34.56"/>
  </clipPath>
 </defs>
</svg>
