<?xml version="1.0" encoding="utf-8" standalone="no"?>
<!DOCTYPE svg PUBLIC "-//W3C//DTD SVG 1.1//EN"
  "http://www.w3.org/Graphics/SVG/1.1/DTD/svg11.dtd">
<!-- Created with matplotlib (https://matplotlib.org/) -->
<svg height="288pt" version="1.1" viewBox="0 0 432 288" width="432pt" xmlns="http://www.w3.org/2000/svg" xmlns:xlink="http://www.w3.org/1999/xlink">
 <defs>
  <style type="text/css">
*{stroke-linecap:butt;stroke-linejoin:round;}
  </style>
 </defs>
 <g id="figure_1">
  <g id="patch_1">
   <path d="M 0 288 
L 432 288 
L 432 0 
L 0 0 
z
" style="fill:#ffffff;"/>
  </g>
  <g id="axes_1">
   <g id="patch_2">
    <path d="M 54 252 
L 388.8 252 
L 388.8 34.56 
L 54 34.56 
z
" style="fill:#ffffff;"/>
   </g>
   <g id="matplotlib.axis_1">
    <g id="xtick_1">
     <g id="line2d_1">
      <path clip-path="url(#p0db10b1ec4)" d="M 69.218182 252 
L 69.218182 34.56 
" style="fill:none;stroke:#b0b0b0;stroke-dasharray:0.8,1.32;stroke-dashoffset:0;stroke-width:0.8;"/>
     </g>
     <g id="line2d_2">
      <defs>
       <path d="M 0 0 
L 0 3.5 
" id="ma2742fd089" style="stroke:#000000;stroke-width:0.8;"/>
      </defs>
      <g>
       <use style="stroke:#000000;stroke-width:0.8;" x="69.218182" xlink:href="#ma2742fd089" y="252"/>
      </g>
     </g>
     <g id="text_1">
      <!-- 0 -->
      <defs>
       <path d="M 31.78125 66.40625 
Q 24.171875 66.40625 20.328125 58.90625 
Q 16.5 51.421875 16.5 36.375 
Q 16.5 21.390625 20.328125 13.890625 
Q 24.171875 6.390625 31.78125 6.390625 
Q 39.453125 6.390625 43.28125 13.890625 
Q 47.125 21.390625 47.125 36.375 
Q 47.125 51.421875 43.28125 58.90625 
Q 39.453125 66.40625 31.78125 66.40625 
z
M 31.78125 74.21875 
Q 44.046875 74.21875 50.515625 64.515625 
Q 56.984375 54.828125 56.984375 36.375 
Q 56.984375 17.96875 50.515625 8.265625 
Q 44.046875 -1.421875 31.78125 -1.421875 
Q 19.53125 -1.421875 13.0625 8.265625 
Q 6.59375 17.96875 6.59375 36.375 
Q 6.59375 54.828125 13.0625 64.515625 
Q 19.53125 74.21875 31.78125 74.21875 
z
" id="DejaVuSans-48"/>
      </defs>
      <g transform="translate(66.036932 266.598437)scale(0.1 -0.1)">
       <use xlink:href="#DejaVuSans-48"/>
      </g>
     </g>
    </g>
    <g id="xtick_2">
     <g id="line2d_3">
      <path clip-path="url(#p0db10b1ec4)" d="M 112.823287 252 
L 112.823287 34.56 
" style="fill:none;stroke:#b0b0b0;stroke-dasharray:0.8,1.32;stroke-dashoffset:0;stroke-width:0.8;"/>
     </g>
     <g id="line2d_4">
      <g>
       <use style="stroke:#000000;stroke-width:0.8;" x="112.823287" xlink:href="#ma2742fd089" y="252"/>
      </g>
     </g>
     <g id="text_2">
      <!-- 50 -->
      <defs>
       <path d="M 10.796875 72.90625 
L 49.515625 72.90625 
L 49.515625 64.59375 
L 19.828125 64.59375 
L 19.828125 46.734375 
Q 21.96875 47.46875 24.109375 47.828125 
Q 26.265625 48.1875 28.421875 48.1875 
Q 40.625 48.1875 47.75 41.5 
Q 54.890625 34.8125 54.890625 23.390625 
Q 54.890625 11.625 47.5625 5.09375 
Q 40.234375 -1.421875 26.90625 -1.421875 
Q 22.3125 -1.421875 17.546875 -0.640625 
Q 12.796875 0.140625 7.71875 1.703125 
L 7.71875 11.625 
Q 12.109375 9.234375 16.796875 8.0625 
Q 21.484375 6.890625 26.703125 6.890625 
Q 35.15625 6.890625 40.078125 11.328125 
Q 45.015625 15.765625 45.015625 23.390625 
Q 45.015625 31 40.078125 35.4375 
Q 35.15625 39.890625 26.703125 39.890625 
Q 22.75 39.890625 18.8125 39.015625 
Q 14.890625 38.140625 10.796875 36.28125 
z
" id="DejaVuSans-53"/>
      </defs>
      <g transform="translate(106.460787 266.598437)scale(0.1 -0.1)">
       <use xlink:href="#DejaVuSans-53"/>
       <use x="63.623047" xlink:href="#DejaVuSans-48"/>
      </g>
     </g>
    </g>
    <g id="xtick_3">
     <g id="line2d_5">
      <path clip-path="url(#p0db10b1ec4)" d="M 156.428393 252 
L 156.428393 34.56 
" style="fill:none;stroke:#b0b0b0;stroke-dasharray:0.8,1.32;stroke-dashoffset:0;stroke-width:0.8;"/>
     </g>
     <g id="line2d_6">
      <g>
       <use style="stroke:#000000;stroke-width:0.8;" x="156.428393" xlink:href="#ma2742fd089" y="252"/>
      </g>
     </g>
     <g id="text_3">
      <!-- 100 -->
      <defs>
       <path d="M 12.40625 8.296875 
L 28.515625 8.296875 
L 28.515625 63.921875 
L 10.984375 60.40625 
L 10.984375 69.390625 
L 28.421875 72.90625 
L 38.28125 72.90625 
L 38.28125 8.296875 
L 54.390625 8.296875 
L 54.390625 0 
L 12.40625 0 
z
" id="DejaVuSans-49"/>
      </defs>
      <g transform="translate(146.884643 266.598437)scale(0.1 -0.1)">
       <use xlink:href="#DejaVuSans-49"/>
       <use x="63.623047" xlink:href="#DejaVuSans-48"/>
       <use x="127.246094" xlink:href="#DejaVuSans-48"/>
      </g>
     </g>
    </g>
    <g id="xtick_4">
     <g id="line2d_7">
      <path clip-path="url(#p0db10b1ec4)" d="M 200.033498 252 
L 200.033498 34.56 
" style="fill:none;stroke:#b0b0b0;stroke-dasharray:0.8,1.32;stroke-dashoffset:0;stroke-width:0.8;"/>
     </g>
     <g id="line2d_8">
      <g>
       <use style="stroke:#000000;stroke-width:0.8;" x="200.033498" xlink:href="#ma2742fd089" y="252"/>
      </g>
     </g>
     <g id="text_4">
      <!-- 150 -->
      <g transform="translate(190.489748 266.598437)scale(0.1 -0.1)">
       <use xlink:href="#DejaVuSans-49"/>
       <use x="63.623047" xlink:href="#DejaVuSans-53"/>
       <use x="127.246094" xlink:href="#DejaVuSans-48"/>
      </g>
     </g>
    </g>
    <g id="xtick_5">
     <g id="line2d_9">
      <path clip-path="url(#p0db10b1ec4)" d="M 243.638604 252 
L 243.638604 34.56 
" style="fill:none;stroke:#b0b0b0;stroke-dasharray:0.8,1.32;stroke-dashoffset:0;stroke-width:0.8;"/>
     </g>
     <g id="line2d_10">
      <g>
       <use style="stroke:#000000;stroke-width:0.8;" x="243.638604" xlink:href="#ma2742fd089" y="252"/>
      </g>
     </g>
     <g id="text_5">
      <!-- 200 -->
      <defs>
       <path d="M 19.1875 8.296875 
L 53.609375 8.296875 
L 53.609375 0 
L 7.328125 0 
L 7.328125 8.296875 
Q 12.9375 14.109375 22.625 23.890625 
Q 32.328125 33.6875 34.8125 36.53125 
Q 39.546875 41.84375 41.421875 45.53125 
Q 43.3125 49.21875 43.3125 52.78125 
Q 43.3125 58.59375 39.234375 62.25 
Q 35.15625 65.921875 28.609375 65.921875 
Q 23.96875 65.921875 18.8125 64.3125 
Q 13.671875 62.703125 7.8125 59.421875 
L 7.8125 69.390625 
Q 13.765625 71.78125 18.9375 73 
Q 24.125 74.21875 28.421875 74.21875 
Q 39.75 74.21875 46.484375 68.546875 
Q 53.21875 62.890625 53.21875 53.421875 
Q 53.21875 48.921875 51.53125 44.890625 
Q 49.859375 40.875 45.40625 35.40625 
Q 44.1875 33.984375 37.640625 27.21875 
Q 31.109375 20.453125 19.1875 8.296875 
z
" id="DejaVuSans-50"/>
      </defs>
      <g transform="translate(234.094854 266.598437)scale(0.1 -0.1)">
       <use xlink:href="#DejaVuSans-50"/>
       <use x="63.623047" xlink:href="#DejaVuSans-48"/>
       <use x="127.246094" xlink:href="#DejaVuSans-48"/>
      </g>
     </g>
    </g>
    <g id="xtick_6">
     <g id="line2d_11">
      <path clip-path="url(#p0db10b1ec4)" d="M 287.243709 252 
L 287.243709 34.56 
" style="fill:none;stroke:#b0b0b0;stroke-dasharray:0.8,1.32;stroke-dashoffset:0;stroke-width:0.8;"/>
     </g>
     <g id="line2d_12">
      <g>
       <use style="stroke:#000000;stroke-width:0.8;" x="287.243709" xlink:href="#ma2742fd089" y="252"/>
      </g>
     </g>
     <g id="text_6">
      <!-- 250 -->
      <g transform="translate(277.699959 266.598437)scale(0.1 -0.1)">
       <use xlink:href="#DejaVuSans-50"/>
       <use x="63.623047" xlink:href="#DejaVuSans-53"/>
       <use x="127.246094" xlink:href="#DejaVuSans-48"/>
      </g>
     </g>
    </g>
    <g id="xtick_7">
     <g id="line2d_13">
      <path clip-path="url(#p0db10b1ec4)" d="M 330.848815 252 
L 330.848815 34.56 
" style="fill:none;stroke:#b0b0b0;stroke-dasharray:0.8,1.32;stroke-dashoffset:0;stroke-width:0.8;"/>
     </g>
     <g id="line2d_14">
      <g>
       <use style="stroke:#000000;stroke-width:0.8;" x="330.848815" xlink:href="#ma2742fd089" y="252"/>
      </g>
     </g>
     <g id="text_7">
      <!-- 300 -->
      <defs>
       <path d="M 40.578125 39.3125 
Q 47.65625 37.796875 51.625 33 
Q 55.609375 28.21875 55.609375 21.1875 
Q 55.609375 10.40625 48.1875 4.484375 
Q 40.765625 -1.421875 27.09375 -1.421875 
Q 22.515625 -1.421875 17.65625 -0.515625 
Q 12.796875 0.390625 7.625 2.203125 
L 7.625 11.71875 
Q 11.71875 9.328125 16.59375 8.109375 
Q 21.484375 6.890625 26.8125 6.890625 
Q 36.078125 6.890625 40.9375 10.546875 
Q 45.796875 14.203125 45.796875 21.1875 
Q 45.796875 27.640625 41.28125 31.265625 
Q 36.765625 34.90625 28.71875 34.90625 
L 20.21875 34.90625 
L 20.21875 43.015625 
L 29.109375 43.015625 
Q 36.375 43.015625 40.234375 45.921875 
Q 44.09375 48.828125 44.09375 54.296875 
Q 44.09375 59.90625 40.109375 62.90625 
Q 36.140625 65.921875 28.71875 65.921875 
Q 24.65625 65.921875 20.015625 65.03125 
Q 15.375 64.15625 9.8125 62.3125 
L 9.8125 71.09375 
Q 15.4375 72.65625 20.34375 73.4375 
Q 25.25 74.21875 29.59375 74.21875 
Q 40.828125 74.21875 47.359375 69.109375 
Q 53.90625 64.015625 53.90625 55.328125 
Q 53.90625 49.265625 50.4375 45.09375 
Q 46.96875 40.921875 40.578125 39.3125 
z
" id="DejaVuSans-51"/>
      </defs>
      <g transform="translate(321.305065 266.598437)scale(0.1 -0.1)">
       <use xlink:href="#DejaVuSans-51"/>
       <use x="63.623047" xlink:href="#DejaVuSans-48"/>
       <use x="127.246094" xlink:href="#DejaVuSans-48"/>
      </g>
     </g>
    </g>
    <g id="xtick_8">
     <g id="line2d_15">
      <path clip-path="url(#p0db10b1ec4)" d="M 374.45392 252 
L 374.45392 34.56 
" style="fill:none;stroke:#b0b0b0;stroke-dasharray:0.8,1.32;stroke-dashoffset:0;stroke-width:0.8;"/>
     </g>
     <g id="line2d_16">
      <g>
       <use style="stroke:#000000;stroke-width:0.8;" x="374.45392" xlink:href="#ma2742fd089" y="252"/>
      </g>
     </g>
     <g id="text_8">
      <!-- 350 -->
      <g transform="translate(364.91017 266.598437)scale(0.1 -0.1)">
       <use xlink:href="#DejaVuSans-51"/>
       <use x="63.623047" xlink:href="#DejaVuSans-53"/>
       <use x="127.246094" xlink:href="#DejaVuSans-48"/>
      </g>
     </g>
    </g>
    <g id="text_9">
     <!-- Epochs -->
     <defs>
      <path d="M 9.8125 72.90625 
L 55.90625 72.90625 
L 55.90625 64.59375 
L 19.671875 64.59375 
L 19.671875 43.015625 
L 54.390625 43.015625 
L 54.390625 34.71875 
L 19.671875 34.71875 
L 19.671875 8.296875 
L 56.78125 8.296875 
L 56.78125 0 
L 9.8125 0 
z
" id="DejaVuSans-69"/>
      <path d="M 18.109375 8.203125 
L 18.109375 -20.796875 
L 9.078125 -20.796875 
L 9.078125 54.6875 
L 18.109375 54.6875 
L 18.109375 46.390625 
Q 20.953125 51.265625 25.265625 53.625 
Q 29.59375 56 35.59375 56 
Q 45.5625 56 51.78125 48.09375 
Q 58.015625 40.1875 58.015625 27.296875 
Q 58.015625 14.40625 51.78125 6.484375 
Q 45.5625 -1.421875 35.59375 -1.421875 
Q 29.59375 -1.421875 25.265625 0.953125 
Q 20.953125 3.328125 18.109375 8.203125 
z
M 48.6875 27.296875 
Q 48.6875 37.203125 44.609375 42.84375 
Q 40.53125 48.484375 33.40625 48.484375 
Q 26.265625 48.484375 22.1875 42.84375 
Q 18.109375 37.203125 18.109375 27.296875 
Q 18.109375 17.390625 22.1875 11.75 
Q 26.265625 6.109375 33.40625 6.109375 
Q 40.53125 6.109375 44.609375 11.75 
Q 48.6875 17.390625 48.6875 27.296875 
z
" id="DejaVuSans-112"/>
      <path d="M 30.609375 48.390625 
Q 23.390625 48.390625 19.1875 42.75 
Q 14.984375 37.109375 14.984375 27.296875 
Q 14.984375 17.484375 19.15625 11.84375 
Q 23.34375 6.203125 30.609375 6.203125 
Q 37.796875 6.203125 41.984375 11.859375 
Q 46.1875 17.53125 46.1875 27.296875 
Q 46.1875 37.015625 41.984375 42.703125 
Q 37.796875 48.390625 30.609375 48.390625 
z
M 30.609375 56 
Q 42.328125 56 49.015625 48.375 
Q 55.71875 40.765625 55.71875 27.296875 
Q 55.71875 13.875 49.015625 6.21875 
Q 42.328125 -1.421875 30.609375 -1.421875 
Q 18.84375 -1.421875 12.171875 6.21875 
Q 5.515625 13.875 5.515625 27.296875 
Q 5.515625 40.765625 12.171875 48.375 
Q 18.84375 56 30.609375 56 
z
" id="DejaVuSans-111"/>
      <path d="M 48.78125 52.59375 
L 48.78125 44.1875 
Q 44.96875 46.296875 41.140625 47.34375 
Q 37.3125 48.390625 33.40625 48.390625 
Q 24.65625 48.390625 19.8125 42.84375 
Q 14.984375 37.3125 14.984375 27.296875 
Q 14.984375 17.28125 19.8125 11.734375 
Q 24.65625 6.203125 33.40625 6.203125 
Q 37.3125 6.203125 41.140625 7.25 
Q 44.96875 8.296875 48.78125 10.40625 
L 48.78125 2.09375 
Q 45.015625 0.34375 40.984375 -0.53125 
Q 36.96875 -1.421875 32.421875 -1.421875 
Q 20.0625 -1.421875 12.78125 6.34375 
Q 5.515625 14.109375 5.515625 27.296875 
Q 5.515625 40.671875 12.859375 48.328125 
Q 20.21875 56 33.015625 56 
Q 37.15625 56 41.109375 55.140625 
Q 45.0625 54.296875 48.78125 52.59375 
z
" id="DejaVuSans-99"/>
      <path d="M 54.890625 33.015625 
L 54.890625 0 
L 45.90625 0 
L 45.90625 32.71875 
Q 45.90625 40.484375 42.875 44.328125 
Q 39.84375 48.1875 33.796875 48.1875 
Q 26.515625 48.1875 22.3125 43.546875 
Q 18.109375 38.921875 18.109375 30.90625 
L 18.109375 0 
L 9.078125 0 
L 9.078125 75.984375 
L 18.109375 75.984375 
L 18.109375 46.1875 
Q 21.34375 51.125 25.703125 53.5625 
Q 30.078125 56 35.796875 56 
Q 45.21875 56 50.046875 50.171875 
Q 54.890625 44.34375 54.890625 33.015625 
z
" id="DejaVuSans-104"/>
      <path d="M 44.28125 53.078125 
L 44.28125 44.578125 
Q 40.484375 46.53125 36.375 47.5 
Q 32.28125 48.484375 27.875 48.484375 
Q 21.1875 48.484375 17.84375 46.4375 
Q 14.5 44.390625 14.5 40.28125 
Q 14.5 37.15625 16.890625 35.375 
Q 19.28125 33.59375 26.515625 31.984375 
L 29.59375 31.296875 
Q 39.15625 29.25 43.1875 25.515625 
Q 47.21875 21.78125 47.21875 15.09375 
Q 47.21875 7.46875 41.1875 3.015625 
Q 35.15625 -1.421875 24.609375 -1.421875 
Q 20.21875 -1.421875 15.453125 -0.5625 
Q 10.6875 0.296875 5.421875 2 
L 5.421875 11.28125 
Q 10.40625 8.6875 15.234375 7.390625 
Q 20.0625 6.109375 24.8125 6.109375 
Q 31.15625 6.109375 34.5625 8.28125 
Q 37.984375 10.453125 37.984375 14.40625 
Q 37.984375 18.0625 35.515625 20.015625 
Q 33.0625 21.96875 24.703125 23.78125 
L 21.578125 24.515625 
Q 13.234375 26.265625 9.515625 29.90625 
Q 5.8125 33.546875 5.8125 39.890625 
Q 5.8125 47.609375 11.28125 51.796875 
Q 16.75 56 26.8125 56 
Q 31.78125 56 36.171875 55.265625 
Q 40.578125 54.546875 44.28125 53.078125 
z
" id="DejaVuSans-115"/>
     </defs>
     <g transform="translate(203.484375 280.276563)scale(0.1 -0.1)">
      <use xlink:href="#DejaVuSans-69"/>
      <use x="63.183594" xlink:href="#DejaVuSans-112"/>
      <use x="126.660156" xlink:href="#DejaVuSans-111"/>
      <use x="187.841797" xlink:href="#DejaVuSans-99"/>
      <use x="242.822266" xlink:href="#DejaVuSans-104"/>
      <use x="306.201172" xlink:href="#DejaVuSans-115"/>
     </g>
    </g>
   </g>
   <g id="matplotlib.axis_2">
    <g id="ytick_1">
     <g id="line2d_17">
      <path clip-path="url(#p0db10b1ec4)" d="M 54 249.512402 
L 388.8 249.512402 
" style="fill:none;stroke:#b0b0b0;stroke-dasharray:0.8,1.32;stroke-dashoffset:0;stroke-width:0.8;"/>
     </g>
     <g id="line2d_18">
      <defs>
       <path d="M 0 0 
L -3.5 0 
" id="m9d8ca67129" style="stroke:#000000;stroke-width:0.8;"/>
      </defs>
      <g>
       <use style="stroke:#000000;stroke-width:0.8;" x="54" xlink:href="#m9d8ca67129" y="249.512402"/>
      </g>
     </g>
     <g id="text_10">
      <!-- 0.0 -->
      <defs>
       <path d="M 10.6875 12.40625 
L 21 12.40625 
L 21 0 
L 10.6875 0 
z
" id="DejaVuSans-46"/>
      </defs>
      <g transform="translate(31.096875 253.311621)scale(0.1 -0.1)">
       <use xlink:href="#DejaVuSans-48"/>
       <use x="63.623047" xlink:href="#DejaVuSans-46"/>
       <use x="95.410156" xlink:href="#DejaVuSans-48"/>
      </g>
     </g>
    </g>
    <g id="ytick_2">
     <g id="line2d_19">
      <path clip-path="url(#p0db10b1ec4)" d="M 54 204.971416 
L 388.8 204.971416 
" style="fill:none;stroke:#b0b0b0;stroke-dasharray:0.8,1.32;stroke-dashoffset:0;stroke-width:0.8;"/>
     </g>
     <g id="line2d_20">
      <g>
       <use style="stroke:#000000;stroke-width:0.8;" x="54" xlink:href="#m9d8ca67129" y="204.971416"/>
      </g>
     </g>
     <g id="text_11">
      <!-- 0.5 -->
      <g transform="translate(31.096875 208.770635)scale(0.1 -0.1)">
       <use xlink:href="#DejaVuSans-48"/>
       <use x="63.623047" xlink:href="#DejaVuSans-46"/>
       <use x="95.410156" xlink:href="#DejaVuSans-53"/>
      </g>
     </g>
    </g>
    <g id="ytick_3">
     <g id="line2d_21">
      <path clip-path="url(#p0db10b1ec4)" d="M 54 160.430429 
L 388.8 160.430429 
" style="fill:none;stroke:#b0b0b0;stroke-dasharray:0.8,1.32;stroke-dashoffset:0;stroke-width:0.8;"/>
     </g>
     <g id="line2d_22">
      <g>
       <use style="stroke:#000000;stroke-width:0.8;" x="54" xlink:href="#m9d8ca67129" y="160.430429"/>
      </g>
     </g>
     <g id="text_12">
      <!-- 1.0 -->
      <g transform="translate(31.096875 164.229648)scale(0.1 -0.1)">
       <use xlink:href="#DejaVuSans-49"/>
       <use x="63.623047" xlink:href="#DejaVuSans-46"/>
       <use x="95.410156" xlink:href="#DejaVuSans-48"/>
      </g>
     </g>
    </g>
    <g id="ytick_4">
     <g id="line2d_23">
      <path clip-path="url(#p0db10b1ec4)" d="M 54 115.889443 
L 388.8 115.889443 
" style="fill:none;stroke:#b0b0b0;stroke-dasharray:0.8,1.32;stroke-dashoffset:0;stroke-width:0.8;"/>
     </g>
     <g id="line2d_24">
      <g>
       <use style="stroke:#000000;stroke-width:0.8;" x="54" xlink:href="#m9d8ca67129" y="115.889443"/>
      </g>
     </g>
     <g id="text_13">
      <!-- 1.5 -->
      <g transform="translate(31.096875 119.688662)scale(0.1 -0.1)">
       <use xlink:href="#DejaVuSans-49"/>
       <use x="63.623047" xlink:href="#DejaVuSans-46"/>
       <use x="95.410156" xlink:href="#DejaVuSans-53"/>
      </g>
     </g>
    </g>
    <g id="ytick_5">
     <g id="line2d_25">
      <path clip-path="url(#p0db10b1ec4)" d="M 54 71.348456 
L 388.8 71.348456 
" style="fill:none;stroke:#b0b0b0;stroke-dasharray:0.8,1.32;stroke-dashoffset:0;stroke-width:0.8;"/>
     </g>
     <g id="line2d_26">
      <g>
       <use style="stroke:#000000;stroke-width:0.8;" x="54" xlink:href="#m9d8ca67129" y="71.348456"/>
      </g>
     </g>
     <g id="text_14">
      <!-- 2.0 -->
      <g transform="translate(31.096875 75.147675)scale(0.1 -0.1)">
       <use xlink:href="#DejaVuSans-50"/>
       <use x="63.623047" xlink:href="#DejaVuSans-46"/>
       <use x="95.410156" xlink:href="#DejaVuSans-48"/>
      </g>
     </g>
    </g>
    <g id="text_15">
     <!-- Loss -->
     <defs>
      <path d="M 9.8125 72.90625 
L 19.671875 72.90625 
L 19.671875 8.296875 
L 55.171875 8.296875 
L 55.171875 0 
L 9.8125 0 
z
" id="DejaVuSans-76"/>
     </defs>
     <g transform="translate(25.017187 154.333906)rotate(-90)scale(0.1 -0.1)">
      <use xlink:href="#DejaVuSans-76"/>
      <use x="55.697266" xlink:href="#DejaVuSans-111"/>
      <use x="116.878906" xlink:href="#DejaVuSans-115"/>
      <use x="168.978516" xlink:href="#DejaVuSans-115"/>
     </g>
    </g>
   </g>
   <g id="line2d_27">
    <path clip-path="url(#p0db10b1ec4)" d="M 69.218182 44.443636 
L 70.090284 49.475469 
L 70.962386 66.774023 
L 71.834488 76.224991 
L 72.70659 79.988197 
L 73.578692 92.806852 
L 74.450794 94.069924 
L 75.322897 118.238008 
L 76.194999 121.588365 
L 77.067101 114.761397 
L 77.939203 133.513811 
L 78.811305 141.443476 
L 79.683407 124.760602 
L 80.555509 143.672434 
L 81.427611 138.20303 
L 82.299713 137.589271 
L 83.171816 155.616582 
L 84.043918 155.111937 
L 84.91602 160.515215 
L 85.788122 173.028068 
L 86.660224 161.23436 
L 87.532326 175.876032 
L 88.404428 172.475461 
L 89.27653 171.741836 
L 90.148632 182.250634 
L 91.020735 181.273686 
L 91.892837 182.099451 
L 92.764939 188.752456 
L 93.637041 181.281284 
L 94.509143 188.571156 
L 95.381245 176.701116 
L 96.253347 189.199623 
L 97.125449 196.437545 
L 97.997551 193.907893 
L 98.869654 195.962322 
L 99.741756 196.842394 
L 100.613858 183.86328 
L 101.48596 207.306524 
L 102.358062 199.636007 
L 103.230164 190.06804 
L 104.102266 197.108362 
L 104.974368 195.822735 
L 105.84647 187.718015 
L 106.718573 211.739894 
L 107.590675 204.837314 
L 108.462777 211.73498 
L 109.334879 201.018653 
L 110.206981 196.230254 
L 111.079083 205.39474 
L 111.951185 198.448827 
L 112.823287 200.864682 
L 113.695389 208.894089 
L 114.567492 212.411314 
L 115.439594 197.882564 
L 116.311696 208.740965 
L 117.183798 215.196724 
L 118.0559 218.089222 
L 118.928002 212.913412 
L 119.800104 211.456362 
L 120.672206 205.439155 
L 121.544308 206.494949 
L 122.416411 219.509885 
L 123.288513 229.907333 
L 124.160615 218.391426 
L 125.032717 218.615973 
L 125.904819 217.512071 
L 126.776921 224.867552 
L 127.649023 212.202985 
L 128.521125 222.633467 
L 130.26533 214.310365 
L 131.137432 225.18348 
L 132.009534 218.274042 
L 132.881636 229.421534 
L 133.753738 216.418666 
L 134.62584 221.512558 
L 135.497942 210.139761 
L 136.370044 220.11269 
L 137.242146 223.755043 
L 138.114249 225.804821 
L 138.986351 221.883241 
L 139.858453 225.786924 
L 140.730555 230.997693 
L 141.602657 230.125156 
L 142.474759 231.596415 
L 143.346861 221.837485 
L 144.218963 226.534716 
L 145.091065 222.923671 
L 145.963167 217.821754 
L 146.83527 233.068966 
L 147.707372 235.678623 
L 148.579474 227.184915 
L 149.451576 228.258337 
L 150.323678 231.893434 
L 151.19578 231.263645 
L 152.067882 238.305274 
L 152.939984 235.970577 
L 153.812086 235.872786 
L 154.684189 232.134692 
L 155.556291 224.920819 
L 156.428393 231.64112 
L 157.300495 240.608024 
L 158.172597 235.492412 
L 159.044699 232.554107 
L 159.916801 236.275383 
L 160.788903 231.846396 
L 161.661005 234.72108 
L 162.533108 232.28769 
L 163.40521 233.918251 
L 164.277312 234.407306 
L 166.021516 231.323626 
L 166.893618 238.123894 
L 167.76572 234.89921 
L 168.637822 228.362869 
L 169.509924 233.004774 
L 170.382027 232.91193 
L 171.254129 231.051998 
L 172.126231 237.22811 
L 172.998333 236.120641 
L 173.870435 234.30451 
L 174.742537 241.488169 
L 175.614639 230.892565 
L 176.486741 237.058742 
L 177.358843 234.712713 
L 178.230946 234.710506 
L 179.103048 235.118617 
L 179.97515 236.352921 
L 180.847252 231.460414 
L 181.719354 228.744934 
L 182.591456 234.585223 
L 183.463558 234.672624 
L 184.33566 231.08752 
L 185.207762 222.017561 
L 186.079865 235.507318 
L 186.951967 234.938232 
L 187.824069 235.631067 
L 188.696171 228.779657 
L 189.568273 232.559667 
L 190.440375 233.989704 
L 191.312477 230.266598 
L 193.056681 238.430242 
L 193.928784 228.584054 
L 194.800886 237.678577 
L 195.672988 226.638207 
L 196.54509 235.356129 
L 197.417192 234.677057 
L 198.289294 235.25655 
L 199.161396 236.312888 
L 200.033498 229.716643 
L 200.9056 234.882168 
L 201.777703 228.100059 
L 202.649805 233.690534 
L 203.521907 226.472284 
L 204.394009 238.317597 
L 205.266111 235.640286 
L 206.138213 231.336813 
L 207.882417 237.785532 
L 208.754519 233.364829 
L 209.626622 233.605536 
L 210.498724 235.607968 
L 211.370826 234.880538 
L 212.242928 234.704139 
L 213.11503 237.235281 
L 213.987132 229.058202 
L 214.859234 230.161283 
L 215.731336 233.632775 
L 216.603438 230.979792 
L 217.475541 233.27612 
L 218.347643 234.794994 
L 219.219745 234.591211 
L 220.091847 238.144456 
L 220.963949 232.0424 
L 221.836051 230.409906 
L 222.708153 232.610568 
L 223.580255 228.1617 
L 224.452357 230.865933 
L 225.324459 242.116364 
L 227.940766 228.8712 
L 228.812868 235.85578 
L 230.557072 226.055515 
L 231.429174 236.679903 
L 232.301276 232.466687 
L 233.173378 226.273882 
L 234.045481 233.878364 
L 234.917583 234.879969 
L 235.789685 235.317243 
L 236.661787 236.334526 
L 237.533889 230.175863 
L 238.405991 230.186435 
L 239.278093 234.748736 
L 240.150195 219.912998 
L 241.8944 238.160662 
L 242.766502 233.103175 
L 243.638604 224.034384 
L 244.510706 233.240096 
L 245.382808 234.862367 
L 246.25491 231.754308 
L 247.127012 236.598367 
L 247.999114 233.052393 
L 248.871216 240.651153 
L 249.743319 237.362089 
L 250.615421 231.937353 
L 251.487523 236.887853 
L 252.359625 228.681496 
L 253.231727 231.254008 
L 254.103829 226.802856 
L 254.975931 235.085864 
L 255.848033 228.534779 
L 256.720135 234.168948 
L 257.592238 232.801701 
L 258.46434 239.25673 
L 259.336442 235.887103 
L 260.208544 233.570654 
L 261.080646 235.950885 
L 261.952748 233.272833 
L 262.82485 239.165756 
L 263.696952 235.807642 
L 264.569054 234.341965 
L 265.441157 225.383722 
L 266.313259 232.22143 
L 267.185361 230.161612 
L 268.057463 234.798331 
L 268.929565 221.12812 
L 269.801667 236.844191 
L 270.673769 236.00946 
L 271.545871 235.916798 
L 272.417973 237.649124 
L 273.290076 229.211252 
L 274.162178 234.87819 
L 275.03428 232.635542 
L 275.906382 232.655344 
L 276.778484 240.617678 
L 277.650586 233.323878 
L 278.522688 231.904861 
L 279.39479 237.688756 
L 280.266892 229.304994 
L 281.138995 231.894775 
L 282.011097 228.573805 
L 282.883199 235.104986 
L 283.755301 240.739824 
L 284.627403 228.193082 
L 285.499505 233.354454 
L 286.371607 233.946311 
L 287.243709 236.700119 
L 288.115811 227.314008 
L 288.987914 223.281062 
L 289.860016 232.576559 
L 290.732118 227.498993 
L 291.60422 238.498313 
L 292.476322 232.73623 
L 293.348424 232.802726 
L 294.220526 238.248284 
L 295.092628 235.39352 
L 295.96473 234.933832 
L 296.836833 233.605464 
L 297.708935 234.891528 
L 298.581037 232.817204 
L 299.453139 228.519826 
L 300.325241 228.216712 
L 301.197343 231.147013 
L 302.069445 237.718059 
L 303.813649 233.148934 
L 304.685751 238.814507 
L 305.557854 230.522661 
L 306.429956 231.001106 
L 307.302058 229.609641 
L 308.17416 239.172257 
L 309.046262 226.270569 
L 309.918364 234.247231 
L 310.790466 236.811883 
L 311.662568 236.25077 
L 312.53467 236.015641 
L 313.406773 234.525566 
L 314.278875 228.986228 
L 315.150977 233.872455 
L 316.023079 227.650411 
L 317.767283 236.623394 
L 318.639385 230.420655 
L 319.511487 226.514719 
L 321.255692 237.131981 
L 322.127794 235.679114 
L 322.999896 232.984954 
L 323.871998 232.45084 
L 324.7441 228.851789 
L 325.616202 232.710201 
L 326.488304 231.415816 
L 327.360406 237.226053 
L 328.232508 230.173689 
L 329.104611 225.862096 
L 329.976713 230.61162 
L 330.848815 230.592572 
L 331.720917 228.961616 
L 332.593019 234.858612 
L 333.465121 235.041563 
L 334.337223 229.831306 
L 335.209325 229.584198 
L 336.95353 234.995961 
L 337.825632 238.691439 
L 338.697734 228.808735 
L 339.569836 226.923327 
L 340.441938 228.558079 
L 341.31404 235.68929 
L 342.186142 239.150849 
L 343.058244 231.950247 
L 343.930346 229.506108 
L 344.802449 237.206972 
L 345.674551 221.800312 
L 346.546653 235.27408 
L 347.418755 234.85549 
L 348.290857 228.266701 
L 349.162959 238.687368 
L 350.035061 228.703258 
L 350.907163 224.147339 
L 351.779265 238.212661 
L 352.651368 233.113174 
L 353.52347 229.681143 
L 354.395572 237.244624 
L 355.267674 233.79912 
L 356.139776 236.919994 
L 357.011878 223.70981 
L 357.88398 234.101036 
L 358.756082 233.89617 
L 359.628184 237.17474 
L 360.500287 226.818214 
L 361.372389 238.649764 
L 362.244491 231.766461 
L 363.116593 238.146448 
L 363.988695 237.063106 
L 364.860797 223.033946 
L 365.732899 235.811362 
L 366.605001 226.272024 
L 367.477103 233.313608 
L 368.349206 228.007251 
L 369.221308 232.287515 
L 370.09341 233.363776 
L 370.965512 234.890629 
L 371.837614 233.87898 
L 372.709716 236.68714 
L 373.581818 238.355827 
L 373.581818 238.355827 
" style="fill:none;stroke:#4363d8;stroke-linecap:square;stroke-width:1.5;"/>
   </g>
   <g id="line2d_28">
    <path clip-path="url(#p0db10b1ec4)" d="M 69.218182 44.604329 
L 70.090284 49.722008 
L 70.962386 70.569587 
L 72.70659 98.216289 
L 73.578692 105.258384 
L 74.450794 118.12558 
L 75.322897 121.418019 
L 76.194999 122.919326 
L 77.067101 129.320455 
L 77.939203 133.631538 
L 78.811305 136.752558 
L 79.683407 143.248582 
L 80.555509 139.527003 
L 82.299713 156.190528 
L 83.171816 148.71136 
L 84.043918 163.234052 
L 84.91602 169.302295 
L 85.788122 167.418966 
L 86.660224 169.879486 
L 87.532326 175.776634 
L 88.404428 175.918727 
L 89.27653 183.682007 
L 90.148632 184.819084 
L 91.020735 188.004447 
L 91.892837 189.272955 
L 92.764939 191.841756 
L 94.509143 193.768805 
L 95.381245 195.719552 
L 96.253347 197.171701 
L 97.125449 195.571331 
L 97.997551 199.904736 
L 98.869654 198.98944 
L 99.741756 199.194962 
L 100.613858 202.256885 
L 101.48596 202.013892 
L 102.358062 200.630912 
L 103.230164 203.778921 
L 104.102266 204.653015 
L 104.974368 206.737422 
L 105.84647 207.925786 
L 106.718573 204.416048 
L 107.590675 201.791607 
L 108.462777 206.161482 
L 109.334879 205.321078 
L 110.206981 208.805672 
L 111.079083 208.639972 
L 111.951185 209.304492 
L 112.823287 209.473582 
L 113.695389 209.875866 
L 114.567492 209.390111 
L 115.439594 212.396165 
L 116.311696 212.124494 
L 117.183798 212.433301 
L 118.0559 211.441532 
L 118.928002 212.873754 
L 120.672206 212.562449 
L 121.544308 212.72508 
L 123.288513 214.679516 
L 124.160615 212.045619 
L 125.032717 213.474318 
L 125.904819 215.973015 
L 126.776921 213.954535 
L 127.649023 215.983448 
L 128.521125 215.262999 
L 129.393227 216.903396 
L 130.26533 216.966659 
L 131.137432 214.13335 
L 132.009534 214.116343 
L 133.753738 217.417564 
L 134.62584 218.477 
L 135.497942 214.920877 
L 136.370044 215.049438 
L 137.242146 217.730666 
L 138.114249 216.923847 
L 138.986351 218.222559 
L 139.858453 211.855736 
L 140.730555 219.486501 
L 141.602657 220.146449 
L 142.474759 219.428793 
L 143.346861 219.276643 
L 144.218963 218.527806 
L 145.091065 220.022282 
L 145.963167 219.072536 
L 146.83527 219.077352 
L 147.707372 219.369072 
L 148.579474 219.947511 
L 149.451576 219.789215 
L 150.323678 219.164869 
L 151.19578 218.812467 
L 152.067882 219.572789 
L 154.684189 220.11217 
L 155.556291 219.578646 
L 157.300495 219.504777 
L 159.044699 219.813884 
L 159.916801 219.608391 
L 160.788903 219.572757 
L 162.533108 219.799697 
L 163.40521 219.86187 
L 165.149414 219.685652 
L 166.021516 219.862638 
L 167.76572 219.77417 
L 176.486741 219.827355 
L 186.951967 219.788867 
L 208.754519 219.732022 
L 214.859234 219.72788 
L 221.836051 219.777268 
L 227.068664 219.765486 
L 235.789685 219.786621 
L 245.382808 219.775657 
L 251.487523 219.775638 
L 280.266892 219.707223 
L 285.499505 219.753502 
L 291.60422 219.699269 
L 296.836833 219.778275 
L 317.767283 219.757992 
L 323.871998 219.781734 
L 335.209325 219.752124 
L 339.569836 219.768696 
L 347.418755 219.752029 
L 373.581818 219.757527 
L 373.581818 219.757527 
" style="fill:none;stroke:#008000;stroke-linecap:square;stroke-width:1.5;"/>
   </g>
   <g id="patch_3">
    <path d="M 54 252 
L 54 34.56 
" style="fill:none;stroke:#000000;stroke-linecap:square;stroke-linejoin:miter;stroke-width:0.8;"/>
   </g>
   <g id="patch_4">
    <path d="M 388.8 252 
L 388.8 34.56 
" style="fill:none;stroke:#000000;stroke-linecap:square;stroke-linejoin:miter;stroke-width:0.8;"/>
   </g>
   <g id="patch_5">
    <path d="M 54 252 
L 388.8 252 
" style="fill:none;stroke:#000000;stroke-linecap:square;stroke-linejoin:miter;stroke-width:0.8;"/>
   </g>
   <g id="patch_6">
    <path d="M 54 34.56 
L 388.8 34.56 
" style="fill:none;stroke:#000000;stroke-linecap:square;stroke-linejoin:miter;stroke-width:0.8;"/>
   </g>
   <g id="text_16">
    <!-- AlexNet Loss -->
    <defs>
     <path d="M 34.1875 63.1875 
L 20.796875 26.90625 
L 47.609375 26.90625 
z
M 28.609375 72.90625 
L 39.796875 72.90625 
L 67.578125 0 
L 57.328125 0 
L 50.6875 18.703125 
L 17.828125 18.703125 
L 11.1875 0 
L 0.78125 0 
z
" id="DejaVuSans-65"/>
     <path d="M 9.421875 75.984375 
L 18.40625 75.984375 
L 18.40625 0 
L 9.421875 0 
z
" id="DejaVuSans-108"/>
     <path d="M 56.203125 29.59375 
L 56.203125 25.203125 
L 14.890625 25.203125 
Q 15.484375 15.921875 20.484375 11.0625 
Q 25.484375 6.203125 34.421875 6.203125 
Q 39.59375 6.203125 44.453125 7.46875 
Q 49.3125 8.734375 54.109375 11.28125 
L 54.109375 2.78125 
Q 49.265625 0.734375 44.1875 -0.34375 
Q 39.109375 -1.421875 33.890625 -1.421875 
Q 20.796875 -1.421875 13.15625 6.1875 
Q 5.515625 13.8125 5.515625 26.8125 
Q 5.515625 40.234375 12.765625 48.109375 
Q 20.015625 56 32.328125 56 
Q 43.359375 56 49.78125 48.890625 
Q 56.203125 41.796875 56.203125 29.59375 
z
M 47.21875 32.234375 
Q 47.125 39.59375 43.09375 43.984375 
Q 39.0625 48.390625 32.421875 48.390625 
Q 24.90625 48.390625 20.390625 44.140625 
Q 15.875 39.890625 15.1875 32.171875 
z
" id="DejaVuSans-101"/>
     <path d="M 54.890625 54.6875 
L 35.109375 28.078125 
L 55.90625 0 
L 45.3125 0 
L 29.390625 21.484375 
L 13.484375 0 
L 2.875 0 
L 24.125 28.609375 
L 4.6875 54.6875 
L 15.28125 54.6875 
L 29.78125 35.203125 
L 44.28125 54.6875 
z
" id="DejaVuSans-120"/>
     <path d="M 9.8125 72.90625 
L 23.09375 72.90625 
L 55.421875 11.921875 
L 55.421875 72.90625 
L 64.984375 72.90625 
L 64.984375 0 
L 51.703125 0 
L 19.390625 60.984375 
L 19.390625 0 
L 9.8125 0 
z
" id="DejaVuSans-78"/>
     <path d="M 18.3125 70.21875 
L 18.3125 54.6875 
L 36.8125 54.6875 
L 36.8125 47.703125 
L 18.3125 47.703125 
L 18.3125 18.015625 
Q 18.3125 11.328125 20.140625 9.421875 
Q 21.96875 7.515625 27.59375 7.515625 
L 36.8125 7.515625 
L 36.8125 0 
L 27.59375 0 
Q 17.1875 0 13.234375 3.875 
Q 9.28125 7.765625 9.28125 18.015625 
L 9.28125 47.703125 
L 2.6875 47.703125 
L 2.6875 54.6875 
L 9.28125 54.6875 
L 9.28125 70.21875 
z
" id="DejaVuSans-116"/>
     <path id="DejaVuSans-32"/>
    </defs>
    <g transform="translate(173.002734 28.56)scale(0.15 -0.15)">
     <use xlink:href="#DejaVuSans-65"/>
     <use x="68.408203" xlink:href="#DejaVuSans-108"/>
     <use x="96.191406" xlink:href="#DejaVuSans-101"/>
     <use x="157.699219" xlink:href="#DejaVuSans-120"/>
     <use x="216.878906" xlink:href="#DejaVuSans-78"/>
     <use x="291.683594" xlink:href="#DejaVuSans-101"/>
     <use x="353.207031" xlink:href="#DejaVuSans-116"/>
     <use x="392.416016" xlink:href="#DejaVuSans-32"/>
     <use x="424.203125" xlink:href="#DejaVuSans-76"/>
     <use x="479.900391" xlink:href="#DejaVuSans-111"/>
     <use x="541.082031" xlink:href="#DejaVuSans-115"/>
     <use x="593.181641" xlink:href="#DejaVuSans-115"/>
    </g>
   </g>
   <g id="legend_1">
    <g id="patch_7">
     <path d="M 274.36875 71.91625 
L 381.8 71.91625 
Q 383.8 71.91625 383.8 69.91625 
L 383.8 41.56 
Q 383.8 39.56 381.8 39.56 
L 274.36875 39.56 
Q 272.36875 39.56 272.36875 41.56 
L 272.36875 69.91625 
Q 272.36875 71.91625 274.36875 71.91625 
z
" style="fill:#ffffff;opacity:0.8;stroke:#cccccc;stroke-linejoin:miter;"/>
    </g>
    <g id="line2d_29">
     <path d="M 276.36875 47.658437 
L 296.36875 47.658437 
" style="fill:none;stroke:#4363d8;stroke-linecap:square;stroke-width:1.5;"/>
    </g>
    <g id="line2d_30"/>
    <g id="text_17">
     <!-- Train Loss -->
     <defs>
      <path d="M -0.296875 72.90625 
L 61.375 72.90625 
L 61.375 64.59375 
L 35.5 64.59375 
L 35.5 0 
L 25.59375 0 
L 25.59375 64.59375 
L -0.296875 64.59375 
z
" id="DejaVuSans-84"/>
      <path d="M 41.109375 46.296875 
Q 39.59375 47.171875 37.8125 47.578125 
Q 36.03125 48 33.890625 48 
Q 26.265625 48 22.1875 43.046875 
Q 18.109375 38.09375 18.109375 28.8125 
L 18.109375 0 
L 9.078125 0 
L 9.078125 54.6875 
L 18.109375 54.6875 
L 18.109375 46.1875 
Q 20.953125 51.171875 25.484375 53.578125 
Q 30.03125 56 36.53125 56 
Q 37.453125 56 38.578125 55.875 
Q 39.703125 55.765625 41.0625 55.515625 
z
" id="DejaVuSans-114"/>
      <path d="M 34.28125 27.484375 
Q 23.390625 27.484375 19.1875 25 
Q 14.984375 22.515625 14.984375 16.5 
Q 14.984375 11.71875 18.140625 8.90625 
Q 21.296875 6.109375 26.703125 6.109375 
Q 34.1875 6.109375 38.703125 11.40625 
Q 43.21875 16.703125 43.21875 25.484375 
L 43.21875 27.484375 
z
M 52.203125 31.203125 
L 52.203125 0 
L 43.21875 0 
L 43.21875 8.296875 
Q 40.140625 3.328125 35.546875 0.953125 
Q 30.953125 -1.421875 24.3125 -1.421875 
Q 15.921875 -1.421875 10.953125 3.296875 
Q 6 8.015625 6 15.921875 
Q 6 25.140625 12.171875 29.828125 
Q 18.359375 34.515625 30.609375 34.515625 
L 43.21875 34.515625 
L 43.21875 35.40625 
Q 43.21875 41.609375 39.140625 45 
Q 35.0625 48.390625 27.6875 48.390625 
Q 23 48.390625 18.546875 47.265625 
Q 14.109375 46.140625 10.015625 43.890625 
L 10.015625 52.203125 
Q 14.9375 54.109375 19.578125 55.046875 
Q 24.21875 56 28.609375 56 
Q 40.484375 56 46.34375 49.84375 
Q 52.203125 43.703125 52.203125 31.203125 
z
" id="DejaVuSans-97"/>
      <path d="M 9.421875 54.6875 
L 18.40625 54.6875 
L 18.40625 0 
L 9.421875 0 
z
M 9.421875 75.984375 
L 18.40625 75.984375 
L 18.40625 64.59375 
L 9.421875 64.59375 
z
" id="DejaVuSans-105"/>
      <path d="M 54.890625 33.015625 
L 54.890625 0 
L 45.90625 0 
L 45.90625 32.71875 
Q 45.90625 40.484375 42.875 44.328125 
Q 39.84375 48.1875 33.796875 48.1875 
Q 26.515625 48.1875 22.3125 43.546875 
Q 18.109375 38.921875 18.109375 30.90625 
L 18.109375 0 
L 9.078125 0 
L 9.078125 54.6875 
L 18.109375 54.6875 
L 18.109375 46.1875 
Q 21.34375 51.125 25.703125 53.5625 
Q 30.078125 56 35.796875 56 
Q 45.21875 56 50.046875 50.171875 
Q 54.890625 44.34375 54.890625 33.015625 
z
" id="DejaVuSans-110"/>
     </defs>
     <g transform="translate(304.36875 51.158437)scale(0.1 -0.1)">
      <use xlink:href="#DejaVuSans-84"/>
      <use x="60.865234" xlink:href="#DejaVuSans-114"/>
      <use x="101.978516" xlink:href="#DejaVuSans-97"/>
      <use x="163.257812" xlink:href="#DejaVuSans-105"/>
      <use x="191.041016" xlink:href="#DejaVuSans-110"/>
      <use x="254.419922" xlink:href="#DejaVuSans-32"/>
      <use x="286.207031" xlink:href="#DejaVuSans-76"/>
      <use x="341.904297" xlink:href="#DejaVuSans-111"/>
      <use x="403.085938" xlink:href="#DejaVuSans-115"/>
      <use x="455.185547" xlink:href="#DejaVuSans-115"/>
     </g>
    </g>
    <g id="line2d_31">
     <path d="M 276.36875 62.336562 
L 296.36875 62.336562 
" style="fill:none;stroke:#008000;stroke-linecap:square;stroke-width:1.5;"/>
    </g>
    <g id="line2d_32"/>
    <g id="text_18">
     <!-- Validation Loss -->
     <defs>
      <path d="M 28.609375 0 
L 0.78125 72.90625 
L 11.078125 72.90625 
L 34.1875 11.53125 
L 57.328125 72.90625 
L 67.578125 72.90625 
L 39.796875 0 
z
" id="DejaVuSans-86"/>
      <path d="M 45.40625 46.390625 
L 45.40625 75.984375 
L 54.390625 75.984375 
L 54.390625 0 
L 45.40625 0 
L 45.40625 8.203125 
Q 42.578125 3.328125 38.25 0.953125 
Q 33.9375 -1.421875 27.875 -1.421875 
Q 17.96875 -1.421875 11.734375 6.484375 
Q 5.515625 14.40625 5.515625 27.296875 
Q 5.515625 40.1875 11.734375 48.09375 
Q 17.96875 56 27.875 56 
Q 33.9375 56 38.25 53.625 
Q 42.578125 51.265625 45.40625 46.390625 
z
M 14.796875 27.296875 
Q 14.796875 17.390625 18.875 11.75 
Q 22.953125 6.109375 30.078125 6.109375 
Q 37.203125 6.109375 41.296875 11.75 
Q 45.40625 17.390625 45.40625 27.296875 
Q 45.40625 37.203125 41.296875 42.84375 
Q 37.203125 48.484375 30.078125 48.484375 
Q 22.953125 48.484375 18.875 42.84375 
Q 14.796875 37.203125 14.796875 27.296875 
z
" id="DejaVuSans-100"/>
     </defs>
     <g transform="translate(304.36875 65.836562)scale(0.1 -0.1)">
      <use xlink:href="#DejaVuSans-86"/>
      <use x="68.298828" xlink:href="#DejaVuSans-97"/>
      <use x="129.578125" xlink:href="#DejaVuSans-108"/>
      <use x="157.361328" xlink:href="#DejaVuSans-105"/>
      <use x="185.144531" xlink:href="#DejaVuSans-100"/>
      <use x="248.621094" xlink:href="#DejaVuSans-97"/>
      <use x="309.900391" xlink:href="#DejaVuSans-116"/>
      <use x="349.109375" xlink:href="#DejaVuSans-105"/>
      <use x="376.892578" xlink:href="#DejaVuSans-111"/>
      <use x="438.074219" xlink:href="#DejaVuSans-110"/>
      <use x="501.453125" xlink:href="#DejaVuSans-32"/>
      <use x="533.240234" xlink:href="#DejaVuSans-76"/>
      <use x="588.9375" xlink:href="#DejaVuSans-111"/>
      <use x="650.119141" xlink:href="#DejaVuSans-115"/>
      <use x="702.21875" xlink:href="#DejaVuSans-115"/>
     </g>
    </g>
   </g>
  </g>
 </g>
 <defs>
  <clipPath id="p0db10b1ec4">
   <rect height="217.44" width="334.8" x="54" y="34.56"/>
  </clipPath>
 </defs>
</svg>
