<?xml version="1.0" encoding="utf-8" standalone="no"?>
<!DOCTYPE svg PUBLIC "-//W3C//DTD SVG 1.1//EN"
  "http://www.w3.org/Graphics/SVG/1.1/DTD/svg11.dtd">
<!-- Created with matplotlib (https://matplotlib.org/) -->
<svg height="288pt" version="1.1" viewBox="0 0 432 288" width="432pt" xmlns="http://www.w3.org/2000/svg" xmlns:xlink="http://www.w3.org/1999/xlink">
 <defs>
  <style type="text/css">
*{stroke-linecap:butt;stroke-linejoin:round;}
  </style>
 </defs>
 <g id="figure_1">
  <g id="patch_1">
   <path d="M 0 288 
L 432 288 
L 432 0 
L 0 0 
z
" style="fill:#ffffff;"/>
  </g>
  <g id="axes_1">
   <g id="patch_2">
    <path d="M 54 252 
L 388.8 252 
L 388.8 34.56 
L 54 34.56 
z
" style="fill:#ffffff;"/>
   </g>
   <g id="matplotlib.axis_1">
    <g id="xtick_1">
     <g id="line2d_1">
      <path clip-path="url(#p84880471f5)" d="M 69.218182 252 
L 69.218182 34.56 
" style="fill:none;stroke:#b0b0b0;stroke-dasharray:0.8,1.32;stroke-dashoffset:0;stroke-width:0.8;"/>
     </g>
     <g id="line2d_2">
      <defs>
       <path d="M 0 0 
L 0 3.5 
" id="m6205e797d1" style="stroke:#000000;stroke-width:0.8;"/>
      </defs>
      <g>
       <use style="stroke:#000000;stroke-width:0.8;" x="69.218182" xlink:href="#m6205e797d1" y="252"/>
      </g>
     </g>
     <g id="text_1">
      <!-- 0 -->
      <defs>
       <path d="M 31.78125 66.40625 
Q 24.171875 66.40625 20.328125 58.90625 
Q 16.5 51.421875 16.5 36.375 
Q 16.5 21.390625 20.328125 13.890625 
Q 24.171875 6.390625 31.78125 6.390625 
Q 39.453125 6.390625 43.28125 13.890625 
Q 47.125 21.390625 47.125 36.375 
Q 47.125 51.421875 43.28125 58.90625 
Q 39.453125 66.40625 31.78125 66.40625 
z
M 31.78125 74.21875 
Q 44.046875 74.21875 50.515625 64.515625 
Q 56.984375 54.828125 56.984375 36.375 
Q 56.984375 17.96875 50.515625 8.265625 
Q 44.046875 -1.421875 31.78125 -1.421875 
Q 19.53125 -1.421875 13.0625 8.265625 
Q 6.59375 17.96875 6.59375 36.375 
Q 6.59375 54.828125 13.0625 64.515625 
Q 19.53125 74.21875 31.78125 74.21875 
z
" id="DejaVuSans-48"/>
      </defs>
      <g transform="translate(66.036932 266.598437)scale(0.1 -0.1)">
       <use xlink:href="#DejaVuSans-48"/>
      </g>
     </g>
    </g>
    <g id="xtick_2">
     <g id="line2d_3">
      <path clip-path="url(#p84880471f5)" d="M 132.892583 252 
L 132.892583 34.56 
" style="fill:none;stroke:#b0b0b0;stroke-dasharray:0.8,1.32;stroke-dashoffset:0;stroke-width:0.8;"/>
     </g>
     <g id="line2d_4">
      <g>
       <use style="stroke:#000000;stroke-width:0.8;" x="132.892583" xlink:href="#m6205e797d1" y="252"/>
      </g>
     </g>
     <g id="text_2">
      <!-- 50 -->
      <defs>
       <path d="M 10.796875 72.90625 
L 49.515625 72.90625 
L 49.515625 64.59375 
L 19.828125 64.59375 
L 19.828125 46.734375 
Q 21.96875 47.46875 24.109375 47.828125 
Q 26.265625 48.1875 28.421875 48.1875 
Q 40.625 48.1875 47.75 41.5 
Q 54.890625 34.8125 54.890625 23.390625 
Q 54.890625 11.625 47.5625 5.09375 
Q 40.234375 -1.421875 26.90625 -1.421875 
Q 22.3125 -1.421875 17.546875 -0.640625 
Q 12.796875 0.140625 7.71875 1.703125 
L 7.71875 11.625 
Q 12.109375 9.234375 16.796875 8.0625 
Q 21.484375 6.890625 26.703125 6.890625 
Q 35.15625 6.890625 40.078125 11.328125 
Q 45.015625 15.765625 45.015625 23.390625 
Q 45.015625 31 40.078125 35.4375 
Q 35.15625 39.890625 26.703125 39.890625 
Q 22.75 39.890625 18.8125 39.015625 
Q 14.890625 38.140625 10.796875 36.28125 
z
" id="DejaVuSans-53"/>
      </defs>
      <g transform="translate(126.530083 266.598437)scale(0.1 -0.1)">
       <use xlink:href="#DejaVuSans-53"/>
       <use x="63.623047" xlink:href="#DejaVuSans-48"/>
      </g>
     </g>
    </g>
    <g id="xtick_3">
     <g id="line2d_5">
      <path clip-path="url(#p84880471f5)" d="M 196.566984 252 
L 196.566984 34.56 
" style="fill:none;stroke:#b0b0b0;stroke-dasharray:0.8,1.32;stroke-dashoffset:0;stroke-width:0.8;"/>
     </g>
     <g id="line2d_6">
      <g>
       <use style="stroke:#000000;stroke-width:0.8;" x="196.566984" xlink:href="#m6205e797d1" y="252"/>
      </g>
     </g>
     <g id="text_3">
      <!-- 100 -->
      <defs>
       <path d="M 12.40625 8.296875 
L 28.515625 8.296875 
L 28.515625 63.921875 
L 10.984375 60.40625 
L 10.984375 69.390625 
L 28.421875 72.90625 
L 38.28125 72.90625 
L 38.28125 8.296875 
L 54.390625 8.296875 
L 54.390625 0 
L 12.40625 0 
z
" id="DejaVuSans-49"/>
      </defs>
      <g transform="translate(187.023234 266.598437)scale(0.1 -0.1)">
       <use xlink:href="#DejaVuSans-49"/>
       <use x="63.623047" xlink:href="#DejaVuSans-48"/>
       <use x="127.246094" xlink:href="#DejaVuSans-48"/>
      </g>
     </g>
    </g>
    <g id="xtick_4">
     <g id="line2d_7">
      <path clip-path="url(#p84880471f5)" d="M 260.241385 252 
L 260.241385 34.56 
" style="fill:none;stroke:#b0b0b0;stroke-dasharray:0.8,1.32;stroke-dashoffset:0;stroke-width:0.8;"/>
     </g>
     <g id="line2d_8">
      <g>
       <use style="stroke:#000000;stroke-width:0.8;" x="260.241385" xlink:href="#m6205e797d1" y="252"/>
      </g>
     </g>
     <g id="text_4">
      <!-- 150 -->
      <g transform="translate(250.697635 266.598437)scale(0.1 -0.1)">
       <use xlink:href="#DejaVuSans-49"/>
       <use x="63.623047" xlink:href="#DejaVuSans-53"/>
       <use x="127.246094" xlink:href="#DejaVuSans-48"/>
      </g>
     </g>
    </g>
    <g id="xtick_5">
     <g id="line2d_9">
      <path clip-path="url(#p84880471f5)" d="M 323.915785 252 
L 323.915785 34.56 
" style="fill:none;stroke:#b0b0b0;stroke-dasharray:0.8,1.32;stroke-dashoffset:0;stroke-width:0.8;"/>
     </g>
     <g id="line2d_10">
      <g>
       <use style="stroke:#000000;stroke-width:0.8;" x="323.915785" xlink:href="#m6205e797d1" y="252"/>
      </g>
     </g>
     <g id="text_5">
      <!-- 200 -->
      <defs>
       <path d="M 19.1875 8.296875 
L 53.609375 8.296875 
L 53.609375 0 
L 7.328125 0 
L 7.328125 8.296875 
Q 12.9375 14.109375 22.625 23.890625 
Q 32.328125 33.6875 34.8125 36.53125 
Q 39.546875 41.84375 41.421875 45.53125 
Q 43.3125 49.21875 43.3125 52.78125 
Q 43.3125 58.59375 39.234375 62.25 
Q 35.15625 65.921875 28.609375 65.921875 
Q 23.96875 65.921875 18.8125 64.3125 
Q 13.671875 62.703125 7.8125 59.421875 
L 7.8125 69.390625 
Q 13.765625 71.78125 18.9375 73 
Q 24.125 74.21875 28.421875 74.21875 
Q 39.75 74.21875 46.484375 68.546875 
Q 53.21875 62.890625 53.21875 53.421875 
Q 53.21875 48.921875 51.53125 44.890625 
Q 49.859375 40.875 45.40625 35.40625 
Q 44.1875 33.984375 37.640625 27.21875 
Q 31.109375 20.453125 19.1875 8.296875 
z
" id="DejaVuSans-50"/>
      </defs>
      <g transform="translate(314.372035 266.598437)scale(0.1 -0.1)">
       <use xlink:href="#DejaVuSans-50"/>
       <use x="63.623047" xlink:href="#DejaVuSans-48"/>
       <use x="127.246094" xlink:href="#DejaVuSans-48"/>
      </g>
     </g>
    </g>
    <g id="xtick_6">
     <g id="line2d_11">
      <path clip-path="url(#p84880471f5)" d="M 387.590186 252 
L 387.590186 34.56 
" style="fill:none;stroke:#b0b0b0;stroke-dasharray:0.8,1.32;stroke-dashoffset:0;stroke-width:0.8;"/>
     </g>
     <g id="line2d_12">
      <g>
       <use style="stroke:#000000;stroke-width:0.8;" x="387.590186" xlink:href="#m6205e797d1" y="252"/>
      </g>
     </g>
     <g id="text_6">
      <!-- 250 -->
      <g transform="translate(378.046436 266.598437)scale(0.1 -0.1)">
       <use xlink:href="#DejaVuSans-50"/>
       <use x="63.623047" xlink:href="#DejaVuSans-53"/>
       <use x="127.246094" xlink:href="#DejaVuSans-48"/>
      </g>
     </g>
    </g>
    <g id="text_7">
     <!-- Epochs -->
     <defs>
      <path d="M 9.8125 72.90625 
L 55.90625 72.90625 
L 55.90625 64.59375 
L 19.671875 64.59375 
L 19.671875 43.015625 
L 54.390625 43.015625 
L 54.390625 34.71875 
L 19.671875 34.71875 
L 19.671875 8.296875 
L 56.78125 8.296875 
L 56.78125 0 
L 9.8125 0 
z
" id="DejaVuSans-69"/>
      <path d="M 18.109375 8.203125 
L 18.109375 -20.796875 
L 9.078125 -20.796875 
L 9.078125 54.6875 
L 18.109375 54.6875 
L 18.109375 46.390625 
Q 20.953125 51.265625 25.265625 53.625 
Q 29.59375 56 35.59375 56 
Q 45.5625 56 51.78125 48.09375 
Q 58.015625 40.1875 58.015625 27.296875 
Q 58.015625 14.40625 51.78125 6.484375 
Q 45.5625 -1.421875 35.59375 -1.421875 
Q 29.59375 -1.421875 25.265625 0.953125 
Q 20.953125 3.328125 18.109375 8.203125 
z
M 48.6875 27.296875 
Q 48.6875 37.203125 44.609375 42.84375 
Q 40.53125 48.484375 33.40625 48.484375 
Q 26.265625 48.484375 22.1875 42.84375 
Q 18.109375 37.203125 18.109375 27.296875 
Q 18.109375 17.390625 22.1875 11.75 
Q 26.265625 6.109375 33.40625 6.109375 
Q 40.53125 6.109375 44.609375 11.75 
Q 48.6875 17.390625 48.6875 27.296875 
z
" id="DejaVuSans-112"/>
      <path d="M 30.609375 48.390625 
Q 23.390625 48.390625 19.1875 42.75 
Q 14.984375 37.109375 14.984375 27.296875 
Q 14.984375 17.484375 19.15625 11.84375 
Q 23.34375 6.203125 30.609375 6.203125 
Q 37.796875 6.203125 41.984375 11.859375 
Q 46.1875 17.53125 46.1875 27.296875 
Q 46.1875 37.015625 41.984375 42.703125 
Q 37.796875 48.390625 30.609375 48.390625 
z
M 30.609375 56 
Q 42.328125 56 49.015625 48.375 
Q 55.71875 40.765625 55.71875 27.296875 
Q 55.71875 13.875 49.015625 6.21875 
Q 42.328125 -1.421875 30.609375 -1.421875 
Q 18.84375 -1.421875 12.171875 6.21875 
Q 5.515625 13.875 5.515625 27.296875 
Q 5.515625 40.765625 12.171875 48.375 
Q 18.84375 56 30.609375 56 
z
" id="DejaVuSans-111"/>
      <path d="M 48.78125 52.59375 
L 48.78125 44.1875 
Q 44.96875 46.296875 41.140625 47.34375 
Q 37.3125 48.390625 33.40625 48.390625 
Q 24.65625 48.390625 19.8125 42.84375 
Q 14.984375 37.3125 14.984375 27.296875 
Q 14.984375 17.28125 19.8125 11.734375 
Q 24.65625 6.203125 33.40625 6.203125 
Q 37.3125 6.203125 41.140625 7.25 
Q 44.96875 8.296875 48.78125 10.40625 
L 48.78125 2.09375 
Q 45.015625 0.34375 40.984375 -0.53125 
Q 36.96875 -1.421875 32.421875 -1.421875 
Q 20.0625 -1.421875 12.78125 6.34375 
Q 5.515625 14.109375 5.515625 27.296875 
Q 5.515625 40.671875 12.859375 48.328125 
Q 20.21875 56 33.015625 56 
Q 37.15625 56 41.109375 55.140625 
Q 45.0625 54.296875 48.78125 52.59375 
z
" id="DejaVuSans-99"/>
      <path d="M 54.890625 33.015625 
L 54.890625 0 
L 45.90625 0 
L 45.90625 32.71875 
Q 45.90625 40.484375 42.875 44.328125 
Q 39.84375 48.1875 33.796875 48.1875 
Q 26.515625 48.1875 22.3125 43.546875 
Q 18.109375 38.921875 18.109375 30.90625 
L 18.109375 0 
L 9.078125 0 
L 9.078125 75.984375 
L 18.109375 75.984375 
L 18.109375 46.1875 
Q 21.34375 51.125 25.703125 53.5625 
Q 30.078125 56 35.796875 56 
Q 45.21875 56 50.046875 50.171875 
Q 54.890625 44.34375 54.890625 33.015625 
z
" id="DejaVuSans-104"/>
      <path d="M 44.28125 53.078125 
L 44.28125 44.578125 
Q 40.484375 46.53125 36.375 47.5 
Q 32.28125 48.484375 27.875 48.484375 
Q 21.1875 48.484375 17.84375 46.4375 
Q 14.5 44.390625 14.5 40.28125 
Q 14.5 37.15625 16.890625 35.375 
Q 19.28125 33.59375 26.515625 31.984375 
L 29.59375 31.296875 
Q 39.15625 29.25 43.1875 25.515625 
Q 47.21875 21.78125 47.21875 15.09375 
Q 47.21875 7.46875 41.1875 3.015625 
Q 35.15625 -1.421875 24.609375 -1.421875 
Q 20.21875 -1.421875 15.453125 -0.5625 
Q 10.6875 0.296875 5.421875 2 
L 5.421875 11.28125 
Q 10.40625 8.6875 15.234375 7.390625 
Q 20.0625 6.109375 24.8125 6.109375 
Q 31.15625 6.109375 34.5625 8.28125 
Q 37.984375 10.453125 37.984375 14.40625 
Q 37.984375 18.0625 35.515625 20.015625 
Q 33.0625 21.96875 24.703125 23.78125 
L 21.578125 24.515625 
Q 13.234375 26.265625 9.515625 29.90625 
Q 5.8125 33.546875 5.8125 39.890625 
Q 5.8125 47.609375 11.28125 51.796875 
Q 16.75 56 26.8125 56 
Q 31.78125 56 36.171875 55.265625 
Q 40.578125 54.546875 44.28125 53.078125 
z
" id="DejaVuSans-115"/>
     </defs>
     <g transform="translate(203.484375 280.276563)scale(0.1 -0.1)">
      <use xlink:href="#DejaVuSans-69"/>
      <use x="63.183594" xlink:href="#DejaVuSans-112"/>
      <use x="126.660156" xlink:href="#DejaVuSans-111"/>
      <use x="187.841797" xlink:href="#DejaVuSans-99"/>
      <use x="242.822266" xlink:href="#DejaVuSans-104"/>
      <use x="306.201172" xlink:href="#DejaVuSans-115"/>
     </g>
    </g>
   </g>
   <g id="matplotlib.axis_2">
    <g id="ytick_1">
     <g id="line2d_13">
      <path clip-path="url(#p84880471f5)" d="M 54 233.861568 
L 388.8 233.861568 
" style="fill:none;stroke:#b0b0b0;stroke-dasharray:0.8,1.32;stroke-dashoffset:0;stroke-width:0.8;"/>
     </g>
     <g id="line2d_14">
      <defs>
       <path d="M 0 0 
L -3.5 0 
" id="m122eeafe68" style="stroke:#000000;stroke-width:0.8;"/>
      </defs>
      <g>
       <use style="stroke:#000000;stroke-width:0.8;" x="54" xlink:href="#m122eeafe68" y="233.861568"/>
      </g>
     </g>
     <g id="text_8">
      <!-- 30 -->
      <defs>
       <path d="M 40.578125 39.3125 
Q 47.65625 37.796875 51.625 33 
Q 55.609375 28.21875 55.609375 21.1875 
Q 55.609375 10.40625 48.1875 4.484375 
Q 40.765625 -1.421875 27.09375 -1.421875 
Q 22.515625 -1.421875 17.65625 -0.515625 
Q 12.796875 0.390625 7.625 2.203125 
L 7.625 11.71875 
Q 11.71875 9.328125 16.59375 8.109375 
Q 21.484375 6.890625 26.8125 6.890625 
Q 36.078125 6.890625 40.9375 10.546875 
Q 45.796875 14.203125 45.796875 21.1875 
Q 45.796875 27.640625 41.28125 31.265625 
Q 36.765625 34.90625 28.71875 34.90625 
L 20.21875 34.90625 
L 20.21875 43.015625 
L 29.109375 43.015625 
Q 36.375 43.015625 40.234375 45.921875 
Q 44.09375 48.828125 44.09375 54.296875 
Q 44.09375 59.90625 40.109375 62.90625 
Q 36.140625 65.921875 28.71875 65.921875 
Q 24.65625 65.921875 20.015625 65.03125 
Q 15.375 64.15625 9.8125 62.3125 
L 9.8125 71.09375 
Q 15.4375 72.65625 20.34375 73.4375 
Q 25.25 74.21875 29.59375 74.21875 
Q 40.828125 74.21875 47.359375 69.109375 
Q 53.90625 64.015625 53.90625 55.328125 
Q 53.90625 49.265625 50.4375 45.09375 
Q 46.96875 40.921875 40.578125 39.3125 
z
" id="DejaVuSans-51"/>
      </defs>
      <g transform="translate(34.275 237.660787)scale(0.1 -0.1)">
       <use xlink:href="#DejaVuSans-51"/>
       <use x="63.623047" xlink:href="#DejaVuSans-48"/>
      </g>
     </g>
    </g>
    <g id="ytick_2">
     <g id="line2d_15">
      <path clip-path="url(#p84880471f5)" d="M 54 197.009832 
L 388.8 197.009832 
" style="fill:none;stroke:#b0b0b0;stroke-dasharray:0.8,1.32;stroke-dashoffset:0;stroke-width:0.8;"/>
     </g>
     <g id="line2d_16">
      <g>
       <use style="stroke:#000000;stroke-width:0.8;" x="54" xlink:href="#m122eeafe68" y="197.009832"/>
      </g>
     </g>
     <g id="text_9">
      <!-- 35 -->
      <g transform="translate(34.275 200.809051)scale(0.1 -0.1)">
       <use xlink:href="#DejaVuSans-51"/>
       <use x="63.623047" xlink:href="#DejaVuSans-53"/>
      </g>
     </g>
    </g>
    <g id="ytick_3">
     <g id="line2d_17">
      <path clip-path="url(#p84880471f5)" d="M 54 160.158095 
L 388.8 160.158095 
" style="fill:none;stroke:#b0b0b0;stroke-dasharray:0.8,1.32;stroke-dashoffset:0;stroke-width:0.8;"/>
     </g>
     <g id="line2d_18">
      <g>
       <use style="stroke:#000000;stroke-width:0.8;" x="54" xlink:href="#m122eeafe68" y="160.158095"/>
      </g>
     </g>
     <g id="text_10">
      <!-- 40 -->
      <defs>
       <path d="M 37.796875 64.3125 
L 12.890625 25.390625 
L 37.796875 25.390625 
z
M 35.203125 72.90625 
L 47.609375 72.90625 
L 47.609375 25.390625 
L 58.015625 25.390625 
L 58.015625 17.1875 
L 47.609375 17.1875 
L 47.609375 0 
L 37.796875 0 
L 37.796875 17.1875 
L 4.890625 17.1875 
L 4.890625 26.703125 
z
" id="DejaVuSans-52"/>
      </defs>
      <g transform="translate(34.275 163.957314)scale(0.1 -0.1)">
       <use xlink:href="#DejaVuSans-52"/>
       <use x="63.623047" xlink:href="#DejaVuSans-48"/>
      </g>
     </g>
    </g>
    <g id="ytick_4">
     <g id="line2d_19">
      <path clip-path="url(#p84880471f5)" d="M 54 123.306358 
L 388.8 123.306358 
" style="fill:none;stroke:#b0b0b0;stroke-dasharray:0.8,1.32;stroke-dashoffset:0;stroke-width:0.8;"/>
     </g>
     <g id="line2d_20">
      <g>
       <use style="stroke:#000000;stroke-width:0.8;" x="54" xlink:href="#m122eeafe68" y="123.306358"/>
      </g>
     </g>
     <g id="text_11">
      <!-- 45 -->
      <g transform="translate(34.275 127.105577)scale(0.1 -0.1)">
       <use xlink:href="#DejaVuSans-52"/>
       <use x="63.623047" xlink:href="#DejaVuSans-53"/>
      </g>
     </g>
    </g>
    <g id="ytick_5">
     <g id="line2d_21">
      <path clip-path="url(#p84880471f5)" d="M 54 86.454622 
L 388.8 86.454622 
" style="fill:none;stroke:#b0b0b0;stroke-dasharray:0.8,1.32;stroke-dashoffset:0;stroke-width:0.8;"/>
     </g>
     <g id="line2d_22">
      <g>
       <use style="stroke:#000000;stroke-width:0.8;" x="54" xlink:href="#m122eeafe68" y="86.454622"/>
      </g>
     </g>
     <g id="text_12">
      <!-- 50 -->
      <g transform="translate(34.275 90.253841)scale(0.1 -0.1)">
       <use xlink:href="#DejaVuSans-53"/>
       <use x="63.623047" xlink:href="#DejaVuSans-48"/>
      </g>
     </g>
    </g>
    <g id="ytick_6">
     <g id="line2d_23">
      <path clip-path="url(#p84880471f5)" d="M 54 49.602885 
L 388.8 49.602885 
" style="fill:none;stroke:#b0b0b0;stroke-dasharray:0.8,1.32;stroke-dashoffset:0;stroke-width:0.8;"/>
     </g>
     <g id="line2d_24">
      <g>
       <use style="stroke:#000000;stroke-width:0.8;" x="54" xlink:href="#m122eeafe68" y="49.602885"/>
      </g>
     </g>
     <g id="text_13">
      <!-- 55 -->
      <g transform="translate(34.275 53.402104)scale(0.1 -0.1)">
       <use xlink:href="#DejaVuSans-53"/>
       <use x="63.623047" xlink:href="#DejaVuSans-53"/>
      </g>
     </g>
    </g>
    <g id="text_14">
     <!-- Accuracy -->
     <defs>
      <path d="M 34.1875 63.1875 
L 20.796875 26.90625 
L 47.609375 26.90625 
z
M 28.609375 72.90625 
L 39.796875 72.90625 
L 67.578125 0 
L 57.328125 0 
L 50.6875 18.703125 
L 17.828125 18.703125 
L 11.1875 0 
L 0.78125 0 
z
" id="DejaVuSans-65"/>
      <path d="M 8.5 21.578125 
L 8.5 54.6875 
L 17.484375 54.6875 
L 17.484375 21.921875 
Q 17.484375 14.15625 20.5 10.265625 
Q 23.53125 6.390625 29.59375 6.390625 
Q 36.859375 6.390625 41.078125 11.03125 
Q 45.3125 15.671875 45.3125 23.6875 
L 45.3125 54.6875 
L 54.296875 54.6875 
L 54.296875 0 
L 45.3125 0 
L 45.3125 8.40625 
Q 42.046875 3.421875 37.71875 1 
Q 33.40625 -1.421875 27.6875 -1.421875 
Q 18.265625 -1.421875 13.375 4.4375 
Q 8.5 10.296875 8.5 21.578125 
z
M 31.109375 56 
z
" id="DejaVuSans-117"/>
      <path d="M 41.109375 46.296875 
Q 39.59375 47.171875 37.8125 47.578125 
Q 36.03125 48 33.890625 48 
Q 26.265625 48 22.1875 43.046875 
Q 18.109375 38.09375 18.109375 28.8125 
L 18.109375 0 
L 9.078125 0 
L 9.078125 54.6875 
L 18.109375 54.6875 
L 18.109375 46.1875 
Q 20.953125 51.171875 25.484375 53.578125 
Q 30.03125 56 36.53125 56 
Q 37.453125 56 38.578125 55.875 
Q 39.703125 55.765625 41.0625 55.515625 
z
" id="DejaVuSans-114"/>
      <path d="M 34.28125 27.484375 
Q 23.390625 27.484375 19.1875 25 
Q 14.984375 22.515625 14.984375 16.5 
Q 14.984375 11.71875 18.140625 8.90625 
Q 21.296875 6.109375 26.703125 6.109375 
Q 34.1875 6.109375 38.703125 11.40625 
Q 43.21875 16.703125 43.21875 25.484375 
L 43.21875 27.484375 
z
M 52.203125 31.203125 
L 52.203125 0 
L 43.21875 0 
L 43.21875 8.296875 
Q 40.140625 3.328125 35.546875 0.953125 
Q 30.953125 -1.421875 24.3125 -1.421875 
Q 15.921875 -1.421875 10.953125 3.296875 
Q 6 8.015625 6 15.921875 
Q 6 25.140625 12.171875 29.828125 
Q 18.359375 34.515625 30.609375 34.515625 
L 43.21875 34.515625 
L 43.21875 35.40625 
Q 43.21875 41.609375 39.140625 45 
Q 35.0625 48.390625 27.6875 48.390625 
Q 23 48.390625 18.546875 47.265625 
Q 14.109375 46.140625 10.015625 43.890625 
L 10.015625 52.203125 
Q 14.9375 54.109375 19.578125 55.046875 
Q 24.21875 56 28.609375 56 
Q 40.484375 56 46.34375 49.84375 
Q 52.203125 43.703125 52.203125 31.203125 
z
" id="DejaVuSans-97"/>
      <path d="M 32.171875 -5.078125 
Q 28.375 -14.84375 24.75 -17.8125 
Q 21.140625 -20.796875 15.09375 -20.796875 
L 7.90625 -20.796875 
L 7.90625 -13.28125 
L 13.1875 -13.28125 
Q 16.890625 -13.28125 18.9375 -11.515625 
Q 21 -9.765625 23.484375 -3.21875 
L 25.09375 0.875 
L 2.984375 54.6875 
L 12.5 54.6875 
L 29.59375 11.921875 
L 46.6875 54.6875 
L 56.203125 54.6875 
z
" id="DejaVuSans-121"/>
     </defs>
     <g transform="translate(28.195312 166.194844)rotate(-90)scale(0.1 -0.1)">
      <use xlink:href="#DejaVuSans-65"/>
      <use x="68.392578" xlink:href="#DejaVuSans-99"/>
      <use x="123.373047" xlink:href="#DejaVuSans-99"/>
      <use x="178.353516" xlink:href="#DejaVuSans-117"/>
      <use x="241.732422" xlink:href="#DejaVuSans-114"/>
      <use x="282.845703" xlink:href="#DejaVuSans-97"/>
      <use x="344.125" xlink:href="#DejaVuSans-99"/>
      <use x="399.105469" xlink:href="#DejaVuSans-121"/>
     </g>
    </g>
   </g>
   <g id="line2d_25">
    <path clip-path="url(#p84880471f5)" d="M 69.218182 237.546728 
L 70.49167 220.594935 
L 71.765158 196.27278 
L 73.038646 191.850583 
L 74.312134 197.009832 
L 75.585622 208.065353 
L 76.85911 186.691334 
L 78.132598 175.635813 
L 79.406086 174.89879 
L 80.679574 177.109888 
L 81.953062 166.054367 
L 83.22655 174.89879 
L 84.500038 173.424715 
L 85.773526 173.424715 
L 87.047014 177.846912 
L 88.320502 171.95064 
L 89.59399 171.95064 
L 90.867478 154.998846 
L 92.140966 180.05801 
L 93.414454 160.158095 
L 94.687942 175.635813 
L 95.96143 151.313673 
L 97.234918 171.95064 
L 98.508406 146.154424 
L 99.781894 160.895119 
L 101.055382 163.106217 
L 102.32887 149.102546 
L 103.602358 133.624828 
L 104.875846 151.313673 
L 106.149334 146.154424 
L 107.422822 168.265466 
L 108.69631 135.098903 
L 109.969798 143.943325 
L 111.243286 167.528442 
L 112.516774 132.150753 
L 113.790262 165.317316 
L 115.06375 139.5211 
L 117.610727 158.68402 
L 118.884215 148.365523 
L 120.157703 140.995175 
L 121.431191 144.680349 
L 122.704679 141.732199 
L 123.978167 151.313673 
L 125.251655 139.5211 
L 126.525143 131.413729 
L 127.798631 166.054367 
L 129.072119 146.154424 
L 130.345607 136.572978 
L 131.619095 146.154424 
L 132.892583 124.043382 
L 134.166071 127.728556 
L 135.439559 127.728556 
L 136.713047 118.884133 
L 137.986535 121.095232 
L 139.260023 112.250809 
L 140.533511 140.258152 
L 141.806999 129.939654 
L 143.080487 123.30633 
L 144.353975 120.358208 
L 145.627463 135.835926 
L 146.900951 125.517457 
L 148.174439 107.828612 
L 149.447927 87.928669 
L 150.721415 98.98419 
L 151.994903 95.299016 
L 153.268391 100.458265 
L 154.541879 92.350894 
L 155.815367 98.247166 
L 157.088855 84.980547 
L 158.362343 89.402744 
L 159.635831 94.561993 
L 160.909319 98.247166 
L 162.182807 85.71757 
L 163.456295 87.928669 
L 164.729783 87.191645 
L 166.003271 81.295373 
L 167.276759 88.66572 
L 168.550247 83.506472 
L 169.823735 77.610199 
L 171.097223 72.450951 
L 172.370711 77.610199 
L 173.644199 70.976876 
L 176.191175 69.5028 
L 177.464663 70.239852 
L 178.738151 74.662049 
L 180.011639 70.976876 
L 181.285127 68.765777 
L 182.558615 64.343552 
L 183.832103 68.765777 
L 185.105591 70.976876 
L 186.379079 64.343552 
L 187.652568 59.184331 
L 188.926056 66.554678 
L 190.199544 78.347223 
L 191.473032 73.925026 
L 192.74652 76.873148 
L 194.020008 66.554678 
L 195.293496 66.554678 
L 196.566984 64.343552 
L 197.840472 68.028725 
L 199.11396 66.554678 
L 200.387448 62.132453 
L 201.660936 56.973204 
L 202.934424 65.080603 
L 204.207912 67.291702 
L 205.4814 65.817627 
L 206.754888 54.025082 
L 208.028376 66.554678 
L 209.301864 70.239852 
L 210.575352 59.184331 
L 211.84884 57.710256 
L 213.122328 52.551007 
L 214.395816 54.025082 
L 215.669304 59.184331 
L 216.942792 59.184331 
L 218.21628 56.973204 
L 219.489768 59.184331 
L 220.763256 56.236181 
L 222.036744 54.025082 
L 223.310232 52.551007 
L 224.58372 56.973204 
L 225.857208 57.710256 
L 227.130696 62.869505 
L 228.404184 57.710256 
L 229.677672 62.869505 
L 230.95116 56.236181 
L 232.224648 60.658378 
L 233.498136 60.658378 
L 234.771624 56.973204 
L 236.045112 55.499157 
L 237.3186 56.236181 
L 238.592088 54.025082 
L 239.865576 51.076932 
L 241.139064 54.762106 
L 242.412552 49.602857 
L 243.68604 59.184331 
L 244.959528 52.551007 
L 246.233016 48.12881 
L 247.506504 53.288031 
L 248.779992 50.339909 
L 250.05348 55.499157 
L 251.326968 57.710256 
L 252.600456 51.076932 
L 253.873944 55.499157 
L 255.147432 54.025082 
L 256.420921 51.813984 
L 257.694409 50.339909 
L 258.967897 51.813984 
L 261.514873 51.813984 
L 262.788361 53.288031 
L 264.061849 53.288031 
L 265.335337 52.551007 
L 266.608825 52.551007 
L 267.882313 51.813984 
L 269.155801 56.973204 
L 270.429289 49.602857 
L 271.702777 50.339909 
L 272.976265 54.025082 
L 274.249753 50.339909 
L 275.523241 49.602857 
L 276.796729 51.813984 
L 278.070217 47.391758 
L 279.343705 48.12881 
L 280.617193 49.602857 
L 281.890681 49.602857 
L 283.164169 51.813984 
L 284.437657 44.443636 
L 285.711145 52.551007 
L 286.984633 50.339909 
L 288.258121 51.076932 
L 289.531609 53.288031 
L 290.805097 54.762106 
L 292.078585 50.339909 
L 293.352073 53.288031 
L 294.625561 50.339909 
L 295.899049 54.762106 
L 297.172537 54.025082 
L 298.446025 48.865834 
L 299.719513 54.762106 
L 300.993001 52.551007 
L 302.266489 53.288031 
L 304.813465 50.339909 
L 306.086953 50.339909 
L 307.360441 49.602857 
L 308.633929 50.339909 
L 309.907417 47.391758 
L 311.180905 47.391758 
L 312.454393 49.602857 
L 313.727881 47.391758 
L 315.001369 49.602857 
L 317.548345 48.12881 
L 318.821833 48.865834 
L 320.095321 48.12881 
L 321.368809 48.865834 
L 322.642297 48.865834 
L 323.915785 48.12881 
L 325.189273 49.602857 
L 326.462762 48.865834 
L 327.73625 50.339909 
L 329.009738 51.076932 
L 330.283226 50.339909 
L 332.830202 50.339909 
L 334.10369 51.076932 
L 335.377178 50.339909 
L 337.924154 50.339909 
L 339.197642 51.076932 
L 340.47113 51.076932 
L 341.744618 50.339909 
L 343.018106 51.076932 
L 344.291594 50.339909 
L 345.565082 50.339909 
L 346.83857 51.076932 
L 348.112058 50.339909 
L 349.385546 50.339909 
L 350.659034 51.813984 
L 351.932522 50.339909 
L 354.479498 51.813984 
L 355.752986 51.076932 
L 357.026474 51.076932 
L 358.299962 51.813984 
L 359.57345 51.076932 
L 360.846938 52.551007 
L 362.120426 51.813984 
L 363.393914 52.551007 
L 365.94089 52.551007 
L 367.214378 53.288031 
L 368.487866 52.551007 
L 369.761354 53.288031 
L 371.034842 53.288031 
L 372.30833 54.025082 
L 373.581818 53.288031 
L 373.581818 53.288031 
" style="fill:none;stroke:#008000;stroke-linecap:square;stroke-width:1.5;"/>
   </g>
   <g id="line2d_26">
    <path clip-path="url(#p84880471f5)" d="M 69.218182 242.116364 
L 70.49167 206.075356 
L 71.765158 208.286482 
L 73.038646 200.179083 
L 74.312134 203.274644 
L 75.585622 189.270973 
L 76.85911 189.344664 
L 78.132598 176.741377 
L 80.679574 187.796898 
L 81.953062 172.761382 
L 83.22655 177.99435 
L 84.500038 178.878784 
L 85.773526 172.24546 
L 87.047014 174.89879 
L 88.320502 170.255491 
L 89.59399 161.189939 
L 90.867478 156.178129 
L 92.140966 171.434746 
L 93.414454 169.223619 
L 94.687942 173.793255 
L 95.96143 155.588488 
L 97.234918 174.456587 
L 98.508406 154.261823 
L 99.781894 160.452916 
L 101.055382 168.265494 
L 102.32887 149.692215 
L 103.602358 142.248149 
L 104.875846 159.273661 
L 106.149334 153.15626 
L 107.422822 172.46659 
L 108.69631 145.196299 
L 109.969798 146.965195 
L 111.243286 159.642173 
L 112.516774 139.594847 
L 113.790262 154.482924 
L 115.06375 147.628499 
L 116.337238 159.273661 
L 117.610727 150.797751 
L 118.884215 154.851464 
L 120.157703 143.280021 
L 121.431191 139.300027 
L 122.704679 133.772266 
L 123.978167 138.415565 
L 125.251655 141.879637 
L 126.525143 138.489284 
L 127.798631 172.319179 
L 129.072119 142.69038 
L 130.345607 138.341874 
L 131.619095 144.238146 
L 132.892583 131.561168 
L 134.166071 138.341874 
L 135.439559 131.266347 
L 136.713047 130.676706 
L 137.986535 138.562975 
L 139.260023 122.643026 
L 140.533511 151.313673 
L 141.806999 131.340038 
L 143.080487 132.740422 
L 144.353975 135.688544 
L 145.627463 145.63853 
L 146.900951 135.909674 
L 148.174439 111.882326 
L 149.447927 102.669392 
L 150.721415 107.82864 
L 151.994903 104.364568 
L 153.268391 109.007895 
L 154.541879 98.320885 
L 155.815367 105.10162 
L 157.088855 102.374571 
L 158.362343 96.994221 
L 159.635831 95.962377 
L 160.909319 97.583862 
L 162.182807 100.753114 
L 163.456295 101.047906 
L 164.729783 94.193509 
L 167.276759 96.552018 
L 168.550247 88.73944 
L 169.823735 86.896853 
L 171.097223 85.9387 
L 172.370711 92.056102 
L 173.644199 88.149798 
L 174.917687 85.643879 
L 176.191175 87.855006 
L 177.464663 83.801292 
L 178.738151 88.665748 
L 180.011639 88.518338 
L 181.285127 85.201676 
L 182.558615 86.528341 
L 183.832103 84.833164 
L 185.105591 84.390934 
L 186.379079 85.275367 
L 187.652568 85.865009 
L 188.926056 85.201676 
L 190.199544 86.823162 
L 191.473032 84.685754 
L 192.74652 85.127957 
L 194.020008 86.454622 
L 195.293496 83.801292 
L 196.566984 83.28537 
L 197.840472 82.474656 
L 199.11396 78.12615 
L 200.387448 79.526505 
L 201.660936 78.12615 
L 202.934424 84.906856 
L 204.207912 82.548347 
L 205.4814 79.084274 
L 206.754888 76.283563 
L 208.028376 79.895017 
L 209.301864 77.610227 
L 210.575352 73.040592 
L 211.84884 74.440976 
L 213.122328 73.703924 
L 214.395816 75.030589 
L 215.669304 73.556514 
L 216.942792 72.81949 
L 218.21628 73.335413 
L 219.489768 71.713927 
L 220.763256 70.829493 
L 222.036744 70.313571 
L 223.310232 69.502829 
L 224.58372 70.682083 
L 225.857208 71.640236 
L 227.130696 70.313571 
L 228.404184 69.576548 
L 229.677672 72.598389 
L 230.95116 70.829493 
L 232.224648 69.797649 
L 233.498136 70.460982 
L 234.771624 68.397293 
L 236.045112 71.124314 
L 237.3186 70.387262 
L 238.592088 67.881343 
L 239.865576 69.429137 
L 241.139064 69.060626 
L 242.412552 66.554706 
L 243.68604 67.881343 
L 244.959528 67.14432 
L 246.233016 67.660242 
L 247.506504 64.785811 
L 248.779992 66.038756 
L 250.05348 65.817655 
L 251.326968 67.660242 
L 252.600456 66.038756 
L 253.873944 68.323574 
L 255.147432 66.775808 
L 256.420921 67.070629 
L 257.694409 68.028753 
L 258.967897 65.080631 
L 260.241385 65.891374 
L 261.514873 66.554706 
L 262.788361 66.186167 
L 264.061849 66.923218 
L 265.335337 67.14432 
L 266.608825 66.554706 
L 267.882313 67.43914 
L 269.155801 65.817655 
L 271.702777 65.522834 
L 272.976265 66.554706 
L 274.249753 66.554706 
L 275.523241 65.670245 
L 276.796729 65.228042 
L 278.070217 65.080631 
L 279.343705 65.743964 
L 280.617193 63.753967 
L 281.890681 63.680247 
L 283.164169 64.34358 
L 284.437657 65.670245 
L 285.711145 66.038756 
L 286.984633 65.670245 
L 288.258121 67.586551 
L 289.531609 66.554706 
L 290.805097 65.965065 
L 292.078585 67.070629 
L 294.625561 66.038756 
L 297.172537 65.449143 
L 298.446025 64.859502 
L 299.719513 66.407296 
L 300.993001 66.038756 
L 302.266489 66.259886 
L 303.539977 65.596553 
L 304.813465 66.480987 
L 306.086953 65.596553 
L 307.360441 65.670245 
L 309.907417 66.186167 
L 311.180905 65.670245 
L 312.454393 65.596553 
L 313.727881 65.817655 
L 315.001369 65.301733 
L 317.548345 65.670245 
L 320.095321 65.449143 
L 321.368809 65.228042 
L 322.642297 64.859502 
L 323.915785 65.228042 
L 325.189273 65.080631 
L 326.462762 65.080631 
L 327.73625 65.228042 
L 329.009738 65.228042 
L 330.283226 65.080631 
L 332.830202 65.375452 
L 334.10369 64.859502 
L 335.377178 65.154322 
L 336.650666 65.006912 
L 337.924154 65.080631 
L 339.197642 64.859502 
L 340.47113 65.301733 
L 341.744618 64.933221 
L 343.018106 65.228042 
L 344.291594 64.6384 
L 348.112058 64.785811 
L 349.385546 64.6384 
L 351.932522 64.122478 
L 353.20601 64.122478 
L 354.479498 64.34358 
L 355.752986 65.301733 
L 357.026474 65.228042 
L 358.299962 65.375452 
L 362.120426 65.228042 
L 363.393914 64.564709 
L 364.667402 64.122478 
L 365.94089 64.048787 
L 367.214378 64.122478 
L 368.487866 64.417299 
L 369.761354 64.269889 
L 372.30833 64.34358 
L 373.581818 64.71212 
L 373.581818 64.71212 
" style="fill:none;stroke:#ff0000;stroke-linecap:square;stroke-width:1.5;"/>
   </g>
   <g id="patch_3">
    <path d="M 54 252 
L 54 34.56 
" style="fill:none;stroke:#000000;stroke-linecap:square;stroke-linejoin:miter;stroke-width:0.8;"/>
   </g>
   <g id="patch_4">
    <path d="M 388.8 252 
L 388.8 34.56 
" style="fill:none;stroke:#000000;stroke-linecap:square;stroke-linejoin:miter;stroke-width:0.8;"/>
   </g>
   <g id="patch_5">
    <path d="M 54 252 
L 388.8 252 
" style="fill:none;stroke:#000000;stroke-linecap:square;stroke-linejoin:miter;stroke-width:0.8;"/>
   </g>
   <g id="patch_6">
    <path d="M 54 34.56 
L 388.8 34.56 
" style="fill:none;stroke:#000000;stroke-linecap:square;stroke-linejoin:miter;stroke-width:0.8;"/>
   </g>
   <g id="text_15">
    <!-- 3 layer NN Accuracy -->
    <defs>
     <path id="DejaVuSans-32"/>
     <path d="M 9.421875 75.984375 
L 18.40625 75.984375 
L 18.40625 0 
L 9.421875 0 
z
" id="DejaVuSans-108"/>
     <path d="M 56.203125 29.59375 
L 56.203125 25.203125 
L 14.890625 25.203125 
Q 15.484375 15.921875 20.484375 11.0625 
Q 25.484375 6.203125 34.421875 6.203125 
Q 39.59375 6.203125 44.453125 7.46875 
Q 49.3125 8.734375 54.109375 11.28125 
L 54.109375 2.78125 
Q 49.265625 0.734375 44.1875 -0.34375 
Q 39.109375 -1.421875 33.890625 -1.421875 
Q 20.796875 -1.421875 13.15625 6.1875 
Q 5.515625 13.8125 5.515625 26.8125 
Q 5.515625 40.234375 12.765625 48.109375 
Q 20.015625 56 32.328125 56 
Q 43.359375 56 49.78125 48.890625 
Q 56.203125 41.796875 56.203125 29.59375 
z
M 47.21875 32.234375 
Q 47.125 39.59375 43.09375 43.984375 
Q 39.0625 48.390625 32.421875 48.390625 
Q 24.90625 48.390625 20.390625 44.140625 
Q 15.875 39.890625 15.1875 32.171875 
z
" id="DejaVuSans-101"/>
     <path d="M 9.8125 72.90625 
L 23.09375 72.90625 
L 55.421875 11.921875 
L 55.421875 72.90625 
L 64.984375 72.90625 
L 64.984375 0 
L 51.703125 0 
L 19.390625 60.984375 
L 19.390625 0 
L 9.8125 0 
z
" id="DejaVuSans-78"/>
    </defs>
    <g transform="translate(145.066406 28.56)scale(0.15 -0.15)">
     <use xlink:href="#DejaVuSans-51"/>
     <use x="63.623047" xlink:href="#DejaVuSans-32"/>
     <use x="95.410156" xlink:href="#DejaVuSans-108"/>
     <use x="123.193359" xlink:href="#DejaVuSans-97"/>
     <use x="184.472656" xlink:href="#DejaVuSans-121"/>
     <use x="243.652344" xlink:href="#DejaVuSans-101"/>
     <use x="305.175781" xlink:href="#DejaVuSans-114"/>
     <use x="346.289062" xlink:href="#DejaVuSans-32"/>
     <use x="378.076172" xlink:href="#DejaVuSans-78"/>
     <use x="452.880859" xlink:href="#DejaVuSans-78"/>
     <use x="527.685547" xlink:href="#DejaVuSans-32"/>
     <use x="559.472656" xlink:href="#DejaVuSans-65"/>
     <use x="627.865234" xlink:href="#DejaVuSans-99"/>
     <use x="682.845703" xlink:href="#DejaVuSans-99"/>
     <use x="737.826172" xlink:href="#DejaVuSans-117"/>
     <use x="801.205078" xlink:href="#DejaVuSans-114"/>
     <use x="842.318359" xlink:href="#DejaVuSans-97"/>
     <use x="903.597656" xlink:href="#DejaVuSans-99"/>
     <use x="958.578125" xlink:href="#DejaVuSans-121"/>
    </g>
   </g>
   <g id="legend_1">
    <g id="patch_7">
     <path d="M 250.646875 247 
L 381.8 247 
Q 383.8 247 383.8 245 
L 383.8 216.64375 
Q 383.8 214.64375 381.8 214.64375 
L 250.646875 214.64375 
Q 248.646875 214.64375 248.646875 216.64375 
L 248.646875 245 
Q 248.646875 247 250.646875 247 
z
" style="fill:#ffffff;opacity:0.8;stroke:#cccccc;stroke-linejoin:miter;"/>
    </g>
    <g id="line2d_27">
     <path d="M 252.646875 222.742188 
L 272.646875 222.742188 
" style="fill:none;stroke:#008000;stroke-linecap:square;stroke-width:1.5;"/>
    </g>
    <g id="line2d_28"/>
    <g id="text_16">
     <!-- Validation Accuracy -->
     <defs>
      <path d="M 28.609375 0 
L 0.78125 72.90625 
L 11.078125 72.90625 
L 34.1875 11.53125 
L 57.328125 72.90625 
L 67.578125 72.90625 
L 39.796875 0 
z
" id="DejaVuSans-86"/>
      <path d="M 9.421875 54.6875 
L 18.40625 54.6875 
L 18.40625 0 
L 9.421875 0 
z
M 9.421875 75.984375 
L 18.40625 75.984375 
L 18.40625 64.59375 
L 9.421875 64.59375 
z
" id="DejaVuSans-105"/>
      <path d="M 45.40625 46.390625 
L 45.40625 75.984375 
L 54.390625 75.984375 
L 54.390625 0 
L 45.40625 0 
L 45.40625 8.203125 
Q 42.578125 3.328125 38.25 0.953125 
Q 33.9375 -1.421875 27.875 -1.421875 
Q 17.96875 -1.421875 11.734375 6.484375 
Q 5.515625 14.40625 5.515625 27.296875 
Q 5.515625 40.1875 11.734375 48.09375 
Q 17.96875 56 27.875 56 
Q 33.9375 56 38.25 53.625 
Q 42.578125 51.265625 45.40625 46.390625 
z
M 14.796875 27.296875 
Q 14.796875 17.390625 18.875 11.75 
Q 22.953125 6.109375 30.078125 6.109375 
Q 37.203125 6.109375 41.296875 11.75 
Q 45.40625 17.390625 45.40625 27.296875 
Q 45.40625 37.203125 41.296875 42.84375 
Q 37.203125 48.484375 30.078125 48.484375 
Q 22.953125 48.484375 18.875 42.84375 
Q 14.796875 37.203125 14.796875 27.296875 
z
" id="DejaVuSans-100"/>
      <path d="M 18.3125 70.21875 
L 18.3125 54.6875 
L 36.8125 54.6875 
L 36.8125 47.703125 
L 18.3125 47.703125 
L 18.3125 18.015625 
Q 18.3125 11.328125 20.140625 9.421875 
Q 21.96875 7.515625 27.59375 7.515625 
L 36.8125 7.515625 
L 36.8125 0 
L 27.59375 0 
Q 17.1875 0 13.234375 3.875 
Q 9.28125 7.765625 9.28125 18.015625 
L 9.28125 47.703125 
L 2.6875 47.703125 
L 2.6875 54.6875 
L 9.28125 54.6875 
L 9.28125 70.21875 
z
" id="DejaVuSans-116"/>
      <path d="M 54.890625 33.015625 
L 54.890625 0 
L 45.90625 0 
L 45.90625 32.71875 
Q 45.90625 40.484375 42.875 44.328125 
Q 39.84375 48.1875 33.796875 48.1875 
Q 26.515625 48.1875 22.3125 43.546875 
Q 18.109375 38.921875 18.109375 30.90625 
L 18.109375 0 
L 9.078125 0 
L 9.078125 54.6875 
L 18.109375 54.6875 
L 18.109375 46.1875 
Q 21.34375 51.125 25.703125 53.5625 
Q 30.078125 56 35.796875 56 
Q 45.21875 56 50.046875 50.171875 
Q 54.890625 44.34375 54.890625 33.015625 
z
" id="DejaVuSans-110"/>
     </defs>
     <g transform="translate(280.646875 226.242188)scale(0.1 -0.1)">
      <use xlink:href="#DejaVuSans-86"/>
      <use x="68.298828" xlink:href="#DejaVuSans-97"/>
      <use x="129.578125" xlink:href="#DejaVuSans-108"/>
      <use x="157.361328" xlink:href="#DejaVuSans-105"/>
      <use x="185.144531" xlink:href="#DejaVuSans-100"/>
      <use x="248.621094" xlink:href="#DejaVuSans-97"/>
      <use x="309.900391" xlink:href="#DejaVuSans-116"/>
      <use x="349.109375" xlink:href="#DejaVuSans-105"/>
      <use x="376.892578" xlink:href="#DejaVuSans-111"/>
      <use x="438.074219" xlink:href="#DejaVuSans-110"/>
      <use x="501.453125" xlink:href="#DejaVuSans-32"/>
      <use x="533.240234" xlink:href="#DejaVuSans-65"/>
      <use x="601.632812" xlink:href="#DejaVuSans-99"/>
      <use x="656.613281" xlink:href="#DejaVuSans-99"/>
      <use x="711.59375" xlink:href="#DejaVuSans-117"/>
      <use x="774.972656" xlink:href="#DejaVuSans-114"/>
      <use x="816.085938" xlink:href="#DejaVuSans-97"/>
      <use x="877.365234" xlink:href="#DejaVuSans-99"/>
      <use x="932.345703" xlink:href="#DejaVuSans-121"/>
     </g>
    </g>
    <g id="line2d_29">
     <path d="M 252.646875 237.420312 
L 272.646875 237.420312 
" style="fill:none;stroke:#ff0000;stroke-linecap:square;stroke-width:1.5;"/>
    </g>
    <g id="line2d_30"/>
    <g id="text_17">
     <!-- Test Accuracy -->
     <defs>
      <path d="M -0.296875 72.90625 
L 61.375 72.90625 
L 61.375 64.59375 
L 35.5 64.59375 
L 35.5 0 
L 25.59375 0 
L 25.59375 64.59375 
L -0.296875 64.59375 
z
" id="DejaVuSans-84"/>
     </defs>
     <g transform="translate(280.646875 240.920312)scale(0.1 -0.1)">
      <use xlink:href="#DejaVuSans-84"/>
      <use x="60.818359" xlink:href="#DejaVuSans-101"/>
      <use x="122.341797" xlink:href="#DejaVuSans-115"/>
      <use x="174.441406" xlink:href="#DejaVuSans-116"/>
      <use x="213.650391" xlink:href="#DejaVuSans-32"/>
      <use x="245.4375" xlink:href="#DejaVuSans-65"/>
      <use x="313.830078" xlink:href="#DejaVuSans-99"/>
      <use x="368.810547" xlink:href="#DejaVuSans-99"/>
      <use x="423.791016" xlink:href="#DejaVuSans-117"/>
      <use x="487.169922" xlink:href="#DejaVuSans-114"/>
      <use x="528.283203" xlink:href="#DejaVuSans-97"/>
      <use x="589.5625" xlink:href="#DejaVuSans-99"/>
      <use x="644.542969" xlink:href="#DejaVuSans-121"/>
     </g>
    </g>
   </g>
  </g>
 </g>
 <defs>
  <clipPath id="p84880471f5">
   <rect height="217.44" width="334.8" x="54" y="34.56"/>
  </clipPath>
 </defs>
</svg>
