<?xml version="1.0" encoding="utf-8" standalone="no"?>
<!DOCTYPE svg PUBLIC "-//W3C//DTD SVG 1.1//EN"
  "http://www.w3.org/Graphics/SVG/1.1/DTD/svg11.dtd">
<!-- Created with matplotlib (https://matplotlib.org/) -->
<svg height="288pt" version="1.1" viewBox="0 0 432 288" width="432pt" xmlns="http://www.w3.org/2000/svg" xmlns:xlink="http://www.w3.org/1999/xlink">
 <defs>
  <style type="text/css">
*{stroke-linecap:butt;stroke-linejoin:round;}
  </style>
 </defs>
 <g id="figure_1">
  <g id="patch_1">
   <path d="M 0 288 
L 432 288 
L 432 0 
L 0 0 
z
" style="fill:#ffffff;"/>
  </g>
  <g id="axes_1">
   <g id="patch_2">
    <path d="M 54 252 
L 388.8 252 
L 388.8 34.56 
L 54 34.56 
z
" style="fill:#ffffff;"/>
   </g>
   <g id="matplotlib.axis_1">
    <g id="xtick_1">
     <g id="line2d_1">
      <path clip-path="url(#pffae01e88d)" d="M 69.218182 252 
L 69.218182 34.56 
" style="fill:none;stroke:#b0b0b0;stroke-dasharray:0.8,1.32;stroke-dashoffset:0;stroke-width:0.8;"/>
     </g>
     <g id="line2d_2">
      <defs>
       <path d="M 0 0 
L 0 3.5 
" id="mc24f0ca9da" style="stroke:#000000;stroke-width:0.8;"/>
      </defs>
      <g>
       <use style="stroke:#000000;stroke-width:0.8;" x="69.218182" xlink:href="#mc24f0ca9da" y="252"/>
      </g>
     </g>
     <g id="text_1">
      <!-- 0 -->
      <defs>
       <path d="M 31.78125 66.40625 
Q 24.171875 66.40625 20.328125 58.90625 
Q 16.5 51.421875 16.5 36.375 
Q 16.5 21.390625 20.328125 13.890625 
Q 24.171875 6.390625 31.78125 6.390625 
Q 39.453125 6.390625 43.28125 13.890625 
Q 47.125 21.390625 47.125 36.375 
Q 47.125 51.421875 43.28125 58.90625 
Q 39.453125 66.40625 31.78125 66.40625 
z
M 31.78125 74.21875 
Q 44.046875 74.21875 50.515625 64.515625 
Q 56.984375 54.828125 56.984375 36.375 
Q 56.984375 17.96875 50.515625 8.265625 
Q 44.046875 -1.421875 31.78125 -1.421875 
Q 19.53125 -1.421875 13.0625 8.265625 
Q 6.59375 17.96875 6.59375 36.375 
Q 6.59375 54.828125 13.0625 64.515625 
Q 19.53125 74.21875 31.78125 74.21875 
z
" id="DejaVuSans-48"/>
      </defs>
      <g transform="translate(66.036932 266.598437)scale(0.1 -0.1)">
       <use xlink:href="#DejaVuSans-48"/>
      </g>
     </g>
    </g>
    <g id="xtick_2">
     <g id="line2d_3">
      <path clip-path="url(#pffae01e88d)" d="M 132.892583 252 
L 132.892583 34.56 
" style="fill:none;stroke:#b0b0b0;stroke-dasharray:0.8,1.32;stroke-dashoffset:0;stroke-width:0.8;"/>
     </g>
     <g id="line2d_4">
      <g>
       <use style="stroke:#000000;stroke-width:0.8;" x="132.892583" xlink:href="#mc24f0ca9da" y="252"/>
      </g>
     </g>
     <g id="text_2">
      <!-- 50 -->
      <defs>
       <path d="M 10.796875 72.90625 
L 49.515625 72.90625 
L 49.515625 64.59375 
L 19.828125 64.59375 
L 19.828125 46.734375 
Q 21.96875 47.46875 24.109375 47.828125 
Q 26.265625 48.1875 28.421875 48.1875 
Q 40.625 48.1875 47.75 41.5 
Q 54.890625 34.8125 54.890625 23.390625 
Q 54.890625 11.625 47.5625 5.09375 
Q 40.234375 -1.421875 26.90625 -1.421875 
Q 22.3125 -1.421875 17.546875 -0.640625 
Q 12.796875 0.140625 7.71875 1.703125 
L 7.71875 11.625 
Q 12.109375 9.234375 16.796875 8.0625 
Q 21.484375 6.890625 26.703125 6.890625 
Q 35.15625 6.890625 40.078125 11.328125 
Q 45.015625 15.765625 45.015625 23.390625 
Q 45.015625 31 40.078125 35.4375 
Q 35.15625 39.890625 26.703125 39.890625 
Q 22.75 39.890625 18.8125 39.015625 
Q 14.890625 38.140625 10.796875 36.28125 
z
" id="DejaVuSans-53"/>
      </defs>
      <g transform="translate(126.530083 266.598437)scale(0.1 -0.1)">
       <use xlink:href="#DejaVuSans-53"/>
       <use x="63.623047" xlink:href="#DejaVuSans-48"/>
      </g>
     </g>
    </g>
    <g id="xtick_3">
     <g id="line2d_5">
      <path clip-path="url(#pffae01e88d)" d="M 196.566984 252 
L 196.566984 34.56 
" style="fill:none;stroke:#b0b0b0;stroke-dasharray:0.8,1.32;stroke-dashoffset:0;stroke-width:0.8;"/>
     </g>
     <g id="line2d_6">
      <g>
       <use style="stroke:#000000;stroke-width:0.8;" x="196.566984" xlink:href="#mc24f0ca9da" y="252"/>
      </g>
     </g>
     <g id="text_3">
      <!-- 100 -->
      <defs>
       <path d="M 12.40625 8.296875 
L 28.515625 8.296875 
L 28.515625 63.921875 
L 10.984375 60.40625 
L 10.984375 69.390625 
L 28.421875 72.90625 
L 38.28125 72.90625 
L 38.28125 8.296875 
L 54.390625 8.296875 
L 54.390625 0 
L 12.40625 0 
z
" id="DejaVuSans-49"/>
      </defs>
      <g transform="translate(187.023234 266.598437)scale(0.1 -0.1)">
       <use xlink:href="#DejaVuSans-49"/>
       <use x="63.623047" xlink:href="#DejaVuSans-48"/>
       <use x="127.246094" xlink:href="#DejaVuSans-48"/>
      </g>
     </g>
    </g>
    <g id="xtick_4">
     <g id="line2d_7">
      <path clip-path="url(#pffae01e88d)" d="M 260.241385 252 
L 260.241385 34.56 
" style="fill:none;stroke:#b0b0b0;stroke-dasharray:0.8,1.32;stroke-dashoffset:0;stroke-width:0.8;"/>
     </g>
     <g id="line2d_8">
      <g>
       <use style="stroke:#000000;stroke-width:0.8;" x="260.241385" xlink:href="#mc24f0ca9da" y="252"/>
      </g>
     </g>
     <g id="text_4">
      <!-- 150 -->
      <g transform="translate(250.697635 266.598437)scale(0.1 -0.1)">
       <use xlink:href="#DejaVuSans-49"/>
       <use x="63.623047" xlink:href="#DejaVuSans-53"/>
       <use x="127.246094" xlink:href="#DejaVuSans-48"/>
      </g>
     </g>
    </g>
    <g id="xtick_5">
     <g id="line2d_9">
      <path clip-path="url(#pffae01e88d)" d="M 323.915785 252 
L 323.915785 34.56 
" style="fill:none;stroke:#b0b0b0;stroke-dasharray:0.8,1.32;stroke-dashoffset:0;stroke-width:0.8;"/>
     </g>
     <g id="line2d_10">
      <g>
       <use style="stroke:#000000;stroke-width:0.8;" x="323.915785" xlink:href="#mc24f0ca9da" y="252"/>
      </g>
     </g>
     <g id="text_5">
      <!-- 200 -->
      <defs>
       <path d="M 19.1875 8.296875 
L 53.609375 8.296875 
L 53.609375 0 
L 7.328125 0 
L 7.328125 8.296875 
Q 12.9375 14.109375 22.625 23.890625 
Q 32.328125 33.6875 34.8125 36.53125 
Q 39.546875 41.84375 41.421875 45.53125 
Q 43.3125 49.21875 43.3125 52.78125 
Q 43.3125 58.59375 39.234375 62.25 
Q 35.15625 65.921875 28.609375 65.921875 
Q 23.96875 65.921875 18.8125 64.3125 
Q 13.671875 62.703125 7.8125 59.421875 
L 7.8125 69.390625 
Q 13.765625 71.78125 18.9375 73 
Q 24.125 74.21875 28.421875 74.21875 
Q 39.75 74.21875 46.484375 68.546875 
Q 53.21875 62.890625 53.21875 53.421875 
Q 53.21875 48.921875 51.53125 44.890625 
Q 49.859375 40.875 45.40625 35.40625 
Q 44.1875 33.984375 37.640625 27.21875 
Q 31.109375 20.453125 19.1875 8.296875 
z
" id="DejaVuSans-50"/>
      </defs>
      <g transform="translate(314.372035 266.598437)scale(0.1 -0.1)">
       <use xlink:href="#DejaVuSans-50"/>
       <use x="63.623047" xlink:href="#DejaVuSans-48"/>
       <use x="127.246094" xlink:href="#DejaVuSans-48"/>
      </g>
     </g>
    </g>
    <g id="xtick_6">
     <g id="line2d_11">
      <path clip-path="url(#pffae01e88d)" d="M 387.590186 252 
L 387.590186 34.56 
" style="fill:none;stroke:#b0b0b0;stroke-dasharray:0.8,1.32;stroke-dashoffset:0;stroke-width:0.8;"/>
     </g>
     <g id="line2d_12">
      <g>
       <use style="stroke:#000000;stroke-width:0.8;" x="387.590186" xlink:href="#mc24f0ca9da" y="252"/>
      </g>
     </g>
     <g id="text_6">
      <!-- 250 -->
      <g transform="translate(378.046436 266.598437)scale(0.1 -0.1)">
       <use xlink:href="#DejaVuSans-50"/>
       <use x="63.623047" xlink:href="#DejaVuSans-53"/>
       <use x="127.246094" xlink:href="#DejaVuSans-48"/>
      </g>
     </g>
    </g>
    <g id="text_7">
     <!-- Epochs -->
     <defs>
      <path d="M 9.8125 72.90625 
L 55.90625 72.90625 
L 55.90625 64.59375 
L 19.671875 64.59375 
L 19.671875 43.015625 
L 54.390625 43.015625 
L 54.390625 34.71875 
L 19.671875 34.71875 
L 19.671875 8.296875 
L 56.78125 8.296875 
L 56.78125 0 
L 9.8125 0 
z
" id="DejaVuSans-69"/>
      <path d="M 18.109375 8.203125 
L 18.109375 -20.796875 
L 9.078125 -20.796875 
L 9.078125 54.6875 
L 18.109375 54.6875 
L 18.109375 46.390625 
Q 20.953125 51.265625 25.265625 53.625 
Q 29.59375 56 35.59375 56 
Q 45.5625 56 51.78125 48.09375 
Q 58.015625 40.1875 58.015625 27.296875 
Q 58.015625 14.40625 51.78125 6.484375 
Q 45.5625 -1.421875 35.59375 -1.421875 
Q 29.59375 -1.421875 25.265625 0.953125 
Q 20.953125 3.328125 18.109375 8.203125 
z
M 48.6875 27.296875 
Q 48.6875 37.203125 44.609375 42.84375 
Q 40.53125 48.484375 33.40625 48.484375 
Q 26.265625 48.484375 22.1875 42.84375 
Q 18.109375 37.203125 18.109375 27.296875 
Q 18.109375 17.390625 22.1875 11.75 
Q 26.265625 6.109375 33.40625 6.109375 
Q 40.53125 6.109375 44.609375 11.75 
Q 48.6875 17.390625 48.6875 27.296875 
z
" id="DejaVuSans-112"/>
      <path d="M 30.609375 48.390625 
Q 23.390625 48.390625 19.1875 42.75 
Q 14.984375 37.109375 14.984375 27.296875 
Q 14.984375 17.484375 19.15625 11.84375 
Q 23.34375 6.203125 30.609375 6.203125 
Q 37.796875 6.203125 41.984375 11.859375 
Q 46.1875 17.53125 46.1875 27.296875 
Q 46.1875 37.015625 41.984375 42.703125 
Q 37.796875 48.390625 30.609375 48.390625 
z
M 30.609375 56 
Q 42.328125 56 49.015625 48.375 
Q 55.71875 40.765625 55.71875 27.296875 
Q 55.71875 13.875 49.015625 6.21875 
Q 42.328125 -1.421875 30.609375 -1.421875 
Q 18.84375 -1.421875 12.171875 6.21875 
Q 5.515625 13.875 5.515625 27.296875 
Q 5.515625 40.765625 12.171875 48.375 
Q 18.84375 56 30.609375 56 
z
" id="DejaVuSans-111"/>
      <path d="M 48.78125 52.59375 
L 48.78125 44.1875 
Q 44.96875 46.296875 41.140625 47.34375 
Q 37.3125 48.390625 33.40625 48.390625 
Q 24.65625 48.390625 19.8125 42.84375 
Q 14.984375 37.3125 14.984375 27.296875 
Q 14.984375 17.28125 19.8125 11.734375 
Q 24.65625 6.203125 33.40625 6.203125 
Q 37.3125 6.203125 41.140625 7.25 
Q 44.96875 8.296875 48.78125 10.40625 
L 48.78125 2.09375 
Q 45.015625 0.34375 40.984375 -0.53125 
Q 36.96875 -1.421875 32.421875 -1.421875 
Q 20.0625 -1.421875 12.78125 6.34375 
Q 5.515625 14.109375 5.515625 27.296875 
Q 5.515625 40.671875 12.859375 48.328125 
Q 20.21875 56 33.015625 56 
Q 37.15625 56 41.109375 55.140625 
Q 45.0625 54.296875 48.78125 52.59375 
z
" id="DejaVuSans-99"/>
      <path d="M 54.890625 33.015625 
L 54.890625 0 
L 45.90625 0 
L 45.90625 32.71875 
Q 45.90625 40.484375 42.875 44.328125 
Q 39.84375 48.1875 33.796875 48.1875 
Q 26.515625 48.1875 22.3125 43.546875 
Q 18.109375 38.921875 18.109375 30.90625 
L 18.109375 0 
L 9.078125 0 
L 9.078125 75.984375 
L 18.109375 75.984375 
L 18.109375 46.1875 
Q 21.34375 51.125 25.703125 53.5625 
Q 30.078125 56 35.796875 56 
Q 45.21875 56 50.046875 50.171875 
Q 54.890625 44.34375 54.890625 33.015625 
z
" id="DejaVuSans-104"/>
      <path d="M 44.28125 53.078125 
L 44.28125 44.578125 
Q 40.484375 46.53125 36.375 47.5 
Q 32.28125 48.484375 27.875 48.484375 
Q 21.1875 48.484375 17.84375 46.4375 
Q 14.5 44.390625 14.5 40.28125 
Q 14.5 37.15625 16.890625 35.375 
Q 19.28125 33.59375 26.515625 31.984375 
L 29.59375 31.296875 
Q 39.15625 29.25 43.1875 25.515625 
Q 47.21875 21.78125 47.21875 15.09375 
Q 47.21875 7.46875 41.1875 3.015625 
Q 35.15625 -1.421875 24.609375 -1.421875 
Q 20.21875 -1.421875 15.453125 -0.5625 
Q 10.6875 0.296875 5.421875 2 
L 5.421875 11.28125 
Q 10.40625 8.6875 15.234375 7.390625 
Q 20.0625 6.109375 24.8125 6.109375 
Q 31.15625 6.109375 34.5625 8.28125 
Q 37.984375 10.453125 37.984375 14.40625 
Q 37.984375 18.0625 35.515625 20.015625 
Q 33.0625 21.96875 24.703125 23.78125 
L 21.578125 24.515625 
Q 13.234375 26.265625 9.515625 29.90625 
Q 5.8125 33.546875 5.8125 39.890625 
Q 5.8125 47.609375 11.28125 51.796875 
Q 16.75 56 26.8125 56 
Q 31.78125 56 36.171875 55.265625 
Q 40.578125 54.546875 44.28125 53.078125 
z
" id="DejaVuSans-115"/>
     </defs>
     <g transform="translate(203.484375 280.276563)scale(0.1 -0.1)">
      <use xlink:href="#DejaVuSans-69"/>
      <use x="63.183594" xlink:href="#DejaVuSans-112"/>
      <use x="126.660156" xlink:href="#DejaVuSans-111"/>
      <use x="187.841797" xlink:href="#DejaVuSans-99"/>
      <use x="242.822266" xlink:href="#DejaVuSans-104"/>
      <use x="306.201172" xlink:href="#DejaVuSans-115"/>
     </g>
    </g>
   </g>
   <g id="matplotlib.axis_2">
    <g id="ytick_1">
     <g id="line2d_13">
      <path clip-path="url(#pffae01e88d)" d="M 54 244.039679 
L 388.8 244.039679 
" style="fill:none;stroke:#b0b0b0;stroke-dasharray:0.8,1.32;stroke-dashoffset:0;stroke-width:0.8;"/>
     </g>
     <g id="line2d_14">
      <defs>
       <path d="M 0 0 
L -3.5 0 
" id="m0cba5e90af" style="stroke:#000000;stroke-width:0.8;"/>
      </defs>
      <g>
       <use style="stroke:#000000;stroke-width:0.8;" x="54" xlink:href="#m0cba5e90af" y="244.039679"/>
      </g>
     </g>
     <g id="text_8">
      <!-- 0.8 -->
      <defs>
       <path d="M 10.6875 12.40625 
L 21 12.40625 
L 21 0 
L 10.6875 0 
z
" id="DejaVuSans-46"/>
       <path d="M 31.78125 34.625 
Q 24.75 34.625 20.71875 30.859375 
Q 16.703125 27.09375 16.703125 20.515625 
Q 16.703125 13.921875 20.71875 10.15625 
Q 24.75 6.390625 31.78125 6.390625 
Q 38.8125 6.390625 42.859375 10.171875 
Q 46.921875 13.96875 46.921875 20.515625 
Q 46.921875 27.09375 42.890625 30.859375 
Q 38.875 34.625 31.78125 34.625 
z
M 21.921875 38.8125 
Q 15.578125 40.375 12.03125 44.71875 
Q 8.5 49.078125 8.5 55.328125 
Q 8.5 64.0625 14.71875 69.140625 
Q 20.953125 74.21875 31.78125 74.21875 
Q 42.671875 74.21875 48.875 69.140625 
Q 55.078125 64.0625 55.078125 55.328125 
Q 55.078125 49.078125 51.53125 44.71875 
Q 48 40.375 41.703125 38.8125 
Q 48.828125 37.15625 52.796875 32.3125 
Q 56.78125 27.484375 56.78125 20.515625 
Q 56.78125 9.90625 50.3125 4.234375 
Q 43.84375 -1.421875 31.78125 -1.421875 
Q 19.734375 -1.421875 13.25 4.234375 
Q 6.78125 9.90625 6.78125 20.515625 
Q 6.78125 27.484375 10.78125 32.3125 
Q 14.796875 37.15625 21.921875 38.8125 
z
M 18.3125 54.390625 
Q 18.3125 48.734375 21.84375 45.5625 
Q 25.390625 42.390625 31.78125 42.390625 
Q 38.140625 42.390625 41.71875 45.5625 
Q 45.3125 48.734375 45.3125 54.390625 
Q 45.3125 60.0625 41.71875 63.234375 
Q 38.140625 66.40625 31.78125 66.40625 
Q 25.390625 66.40625 21.84375 63.234375 
Q 18.3125 60.0625 18.3125 54.390625 
z
" id="DejaVuSans-56"/>
      </defs>
      <g transform="translate(31.096875 247.838898)scale(0.1 -0.1)">
       <use xlink:href="#DejaVuSans-48"/>
       <use x="63.623047" xlink:href="#DejaVuSans-46"/>
       <use x="95.410156" xlink:href="#DejaVuSans-56"/>
      </g>
     </g>
    </g>
    <g id="ytick_2">
     <g id="line2d_15">
      <path clip-path="url(#pffae01e88d)" d="M 54 213.636337 
L 388.8 213.636337 
" style="fill:none;stroke:#b0b0b0;stroke-dasharray:0.8,1.32;stroke-dashoffset:0;stroke-width:0.8;"/>
     </g>
     <g id="line2d_16">
      <g>
       <use style="stroke:#000000;stroke-width:0.8;" x="54" xlink:href="#m0cba5e90af" y="213.636337"/>
      </g>
     </g>
     <g id="text_9">
      <!-- 1.0 -->
      <g transform="translate(31.096875 217.435556)scale(0.1 -0.1)">
       <use xlink:href="#DejaVuSans-49"/>
       <use x="63.623047" xlink:href="#DejaVuSans-46"/>
       <use x="95.410156" xlink:href="#DejaVuSans-48"/>
      </g>
     </g>
    </g>
    <g id="ytick_3">
     <g id="line2d_17">
      <path clip-path="url(#pffae01e88d)" d="M 54 183.232995 
L 388.8 183.232995 
" style="fill:none;stroke:#b0b0b0;stroke-dasharray:0.8,1.32;stroke-dashoffset:0;stroke-width:0.8;"/>
     </g>
     <g id="line2d_18">
      <g>
       <use style="stroke:#000000;stroke-width:0.8;" x="54" xlink:href="#m0cba5e90af" y="183.232995"/>
      </g>
     </g>
     <g id="text_10">
      <!-- 1.2 -->
      <g transform="translate(31.096875 187.032214)scale(0.1 -0.1)">
       <use xlink:href="#DejaVuSans-49"/>
       <use x="63.623047" xlink:href="#DejaVuSans-46"/>
       <use x="95.410156" xlink:href="#DejaVuSans-50"/>
      </g>
     </g>
    </g>
    <g id="ytick_4">
     <g id="line2d_19">
      <path clip-path="url(#pffae01e88d)" d="M 54 152.829653 
L 388.8 152.829653 
" style="fill:none;stroke:#b0b0b0;stroke-dasharray:0.8,1.32;stroke-dashoffset:0;stroke-width:0.8;"/>
     </g>
     <g id="line2d_20">
      <g>
       <use style="stroke:#000000;stroke-width:0.8;" x="54" xlink:href="#m0cba5e90af" y="152.829653"/>
      </g>
     </g>
     <g id="text_11">
      <!-- 1.4 -->
      <defs>
       <path d="M 37.796875 64.3125 
L 12.890625 25.390625 
L 37.796875 25.390625 
z
M 35.203125 72.90625 
L 47.609375 72.90625 
L 47.609375 25.390625 
L 58.015625 25.390625 
L 58.015625 17.1875 
L 47.609375 17.1875 
L 47.609375 0 
L 37.796875 0 
L 37.796875 17.1875 
L 4.890625 17.1875 
L 4.890625 26.703125 
z
" id="DejaVuSans-52"/>
      </defs>
      <g transform="translate(31.096875 156.628872)scale(0.1 -0.1)">
       <use xlink:href="#DejaVuSans-49"/>
       <use x="63.623047" xlink:href="#DejaVuSans-46"/>
       <use x="95.410156" xlink:href="#DejaVuSans-52"/>
      </g>
     </g>
    </g>
    <g id="ytick_5">
     <g id="line2d_21">
      <path clip-path="url(#pffae01e88d)" d="M 54 122.426311 
L 388.8 122.426311 
" style="fill:none;stroke:#b0b0b0;stroke-dasharray:0.8,1.32;stroke-dashoffset:0;stroke-width:0.8;"/>
     </g>
     <g id="line2d_22">
      <g>
       <use style="stroke:#000000;stroke-width:0.8;" x="54" xlink:href="#m0cba5e90af" y="122.426311"/>
      </g>
     </g>
     <g id="text_12">
      <!-- 1.6 -->
      <defs>
       <path d="M 33.015625 40.375 
Q 26.375 40.375 22.484375 35.828125 
Q 18.609375 31.296875 18.609375 23.390625 
Q 18.609375 15.53125 22.484375 10.953125 
Q 26.375 6.390625 33.015625 6.390625 
Q 39.65625 6.390625 43.53125 10.953125 
Q 47.40625 15.53125 47.40625 23.390625 
Q 47.40625 31.296875 43.53125 35.828125 
Q 39.65625 40.375 33.015625 40.375 
z
M 52.59375 71.296875 
L 52.59375 62.3125 
Q 48.875 64.0625 45.09375 64.984375 
Q 41.3125 65.921875 37.59375 65.921875 
Q 27.828125 65.921875 22.671875 59.328125 
Q 17.53125 52.734375 16.796875 39.40625 
Q 19.671875 43.65625 24.015625 45.921875 
Q 28.375 48.1875 33.59375 48.1875 
Q 44.578125 48.1875 50.953125 41.515625 
Q 57.328125 34.859375 57.328125 23.390625 
Q 57.328125 12.15625 50.6875 5.359375 
Q 44.046875 -1.421875 33.015625 -1.421875 
Q 20.359375 -1.421875 13.671875 8.265625 
Q 6.984375 17.96875 6.984375 36.375 
Q 6.984375 53.65625 15.1875 63.9375 
Q 23.390625 74.21875 37.203125 74.21875 
Q 40.921875 74.21875 44.703125 73.484375 
Q 48.484375 72.75 52.59375 71.296875 
z
" id="DejaVuSans-54"/>
      </defs>
      <g transform="translate(31.096875 126.22553)scale(0.1 -0.1)">
       <use xlink:href="#DejaVuSans-49"/>
       <use x="63.623047" xlink:href="#DejaVuSans-46"/>
       <use x="95.410156" xlink:href="#DejaVuSans-54"/>
      </g>
     </g>
    </g>
    <g id="ytick_6">
     <g id="line2d_23">
      <path clip-path="url(#pffae01e88d)" d="M 54 92.022969 
L 388.8 92.022969 
" style="fill:none;stroke:#b0b0b0;stroke-dasharray:0.8,1.32;stroke-dashoffset:0;stroke-width:0.8;"/>
     </g>
     <g id="line2d_24">
      <g>
       <use style="stroke:#000000;stroke-width:0.8;" x="54" xlink:href="#m0cba5e90af" y="92.022969"/>
      </g>
     </g>
     <g id="text_13">
      <!-- 1.8 -->
      <g transform="translate(31.096875 95.822188)scale(0.1 -0.1)">
       <use xlink:href="#DejaVuSans-49"/>
       <use x="63.623047" xlink:href="#DejaVuSans-46"/>
       <use x="95.410156" xlink:href="#DejaVuSans-56"/>
      </g>
     </g>
    </g>
    <g id="ytick_7">
     <g id="line2d_25">
      <path clip-path="url(#pffae01e88d)" d="M 54 61.619627 
L 388.8 61.619627 
" style="fill:none;stroke:#b0b0b0;stroke-dasharray:0.8,1.32;stroke-dashoffset:0;stroke-width:0.8;"/>
     </g>
     <g id="line2d_26">
      <g>
       <use style="stroke:#000000;stroke-width:0.8;" x="54" xlink:href="#m0cba5e90af" y="61.619627"/>
      </g>
     </g>
     <g id="text_14">
      <!-- 2.0 -->
      <g transform="translate(31.096875 65.418846)scale(0.1 -0.1)">
       <use xlink:href="#DejaVuSans-50"/>
       <use x="63.623047" xlink:href="#DejaVuSans-46"/>
       <use x="95.410156" xlink:href="#DejaVuSans-48"/>
      </g>
     </g>
    </g>
    <g id="text_15">
     <!-- Loss -->
     <defs>
      <path d="M 9.8125 72.90625 
L 19.671875 72.90625 
L 19.671875 8.296875 
L 55.171875 8.296875 
L 55.171875 0 
L 9.8125 0 
z
" id="DejaVuSans-76"/>
     </defs>
     <g transform="translate(25.017187 154.333906)rotate(-90)scale(0.1 -0.1)">
      <use xlink:href="#DejaVuSans-76"/>
      <use x="55.697266" xlink:href="#DejaVuSans-111"/>
      <use x="116.878906" xlink:href="#DejaVuSans-115"/>
      <use x="168.978516" xlink:href="#DejaVuSans-115"/>
     </g>
    </g>
   </g>
   <g id="line2d_27">
    <path clip-path="url(#pffae01e88d)" d="M 69.218182 121.993368 
L 70.49167 135.296198 
L 71.765158 129.004378 
L 73.038646 127.36655 
L 74.312134 99.097371 
L 76.85911 162.21106 
L 78.132598 135.437877 
L 79.406086 129.812651 
L 80.679574 148.528948 
L 81.953062 118.554446 
L 84.500038 174.490818 
L 85.773526 150.896001 
L 87.047014 167.390422 
L 88.320502 170.008909 
L 89.59399 142.399635 
L 90.867478 196.155176 
L 92.140966 180.946816 
L 93.414454 151.544808 
L 94.687942 146.610497 
L 95.96143 183.653017 
L 97.234918 148.071682 
L 98.508406 153.995165 
L 99.781894 162.178833 
L 101.055382 168.195046 
L 102.32887 189.930699 
L 103.602358 113.540478 
L 104.875846 171.104646 
L 106.149334 160.223898 
L 107.422822 114.066304 
L 108.69631 151.637842 
L 109.969798 115.831978 
L 111.243286 157.237986 
L 112.516774 153.528322 
L 113.790262 175.693574 
L 115.06375 179.454924 
L 116.337238 202.286617 
L 117.610727 188.041132 
L 118.884215 180.970986 
L 120.157703 170.04585 
L 121.431191 154.332946 
L 122.704679 189.397577 
L 123.978167 172.655368 
L 125.251655 135.183097 
L 127.798631 202.363842 
L 129.072119 183.864472 
L 130.345607 186.546807 
L 131.619095 226.638478 
L 132.892583 155.618704 
L 134.166071 207.165138 
L 135.439559 148.72885 
L 136.713047 180.334949 
L 137.986535 192.687218 
L 139.260023 220.754215 
L 140.533511 196.757618 
L 141.806999 195.194126 
L 143.080487 188.027602 
L 144.353975 197.292717 
L 145.627463 161.797119 
L 146.900951 185.66283 
L 148.174439 173.910418 
L 149.447927 187.601195 
L 150.721415 185.809222 
L 151.994903 189.051131 
L 153.268391 208.533136 
L 154.541879 155.871659 
L 155.815367 242.116364 
L 157.088855 202.861697 
L 158.362343 219.890609 
L 159.635831 232.688439 
L 160.909319 207.733984 
L 162.182807 144.099637 
L 163.456295 220.241919 
L 164.729783 212.926267 
L 166.003271 184.723215 
L 167.276759 187.466508 
L 168.550247 158.430101 
L 169.823735 198.300891 
L 171.097223 172.167395 
L 172.370711 193.103592 
L 173.644199 185.245848 
L 174.917687 204.959375 
L 176.191175 174.62064 
L 177.464663 198.822157 
L 178.738151 191.976844 
L 180.011639 220.604023 
L 181.285127 169.093769 
L 182.558615 181.184418 
L 183.832103 211.833115 
L 185.105591 178.511356 
L 186.379079 191.643016 
L 187.652568 237.366906 
L 188.926056 217.116912 
L 190.199544 194.784137 
L 191.473032 169.669304 
L 192.74652 208.76557 
L 194.020008 163.04168 
L 195.293496 213.49633 
L 196.566984 161.838619 
L 197.840472 191.15337 
L 199.11396 207.05675 
L 200.387448 169.649238 
L 201.660936 174.708962 
L 202.934424 202.498985 
L 204.207912 208.127099 
L 205.4814 216.659645 
L 206.754888 235.313008 
L 208.028376 160.828772 
L 209.301864 193.427236 
L 210.575352 205.795315 
L 211.84884 198.500337 
L 213.122328 216.43238 
L 214.395816 214.602099 
L 215.669304 199.499695 
L 216.942792 187.092243 
L 218.21628 200.990979 
L 219.489768 196.511199 
L 220.763256 173.996308 
L 222.036744 174.733589 
L 223.310232 228.485329 
L 224.58372 175.630791 
L 225.857208 214.274351 
L 227.130696 201.713971 
L 228.404184 224.893935 
L 229.677672 170.593718 
L 230.95116 228.612415 
L 232.224648 225.72349 
L 233.498136 167.603701 
L 234.771624 181.256322 
L 236.045112 154.178345 
L 237.3186 186.883372 
L 238.592088 230.868191 
L 239.865576 201.515133 
L 241.139064 204.906473 
L 242.412552 166.455823 
L 243.68604 188.159553 
L 244.959528 177.972609 
L 246.233016 202.470406 
L 247.506504 216.799501 
L 248.779992 180.873088 
L 250.05348 151.169175 
L 251.326968 198.941034 
L 252.600456 167.53499 
L 253.873944 197.021367 
L 255.147432 197.234342 
L 256.420921 207.573759 
L 257.694409 210.805026 
L 258.967897 185.386312 
L 260.241385 213.915744 
L 261.514873 184.102531 
L 262.788361 193.318392 
L 264.061849 205.226317 
L 265.335337 208.795821 
L 266.608825 187.125079 
L 267.882313 154.499557 
L 269.155801 221.156604 
L 270.429289 212.100664 
L 270.429289 212.100664 
" style="fill:none;stroke:#ff0000;stroke-linecap:square;stroke-width:1.5;"/>
   </g>
   <g id="line2d_28">
    <path clip-path="url(#pffae01e88d)" d="M 69.218182 67.499174 
L 70.49167 44.443636 
L 71.765158 122.079021 
L 73.038646 125.766247 
L 74.312134 88.032011 
L 75.585622 122.349344 
L 76.85911 106.663437 
L 78.132598 137.165097 
L 79.406086 87.890371 
L 80.679574 92.541677 
L 81.953062 99.31037 
L 83.22655 114.731192 
L 84.500038 98.237124 
L 85.773526 129.989968 
L 87.047014 107.04008 
L 88.320502 133.451305 
L 89.59399 105.001432 
L 90.867478 138.884512 
L 92.140966 118.031081 
L 93.414454 126.42077 
L 94.687942 117.09114 
L 95.96143 141.795997 
L 97.234918 149.805001 
L 98.508406 82.941307 
L 99.781894 98.636184 
L 101.055382 123.381906 
L 102.32887 115.426561 
L 103.602358 120.523554 
L 104.875846 108.434589 
L 106.149334 99.643177 
L 107.422822 133.456125 
L 108.69631 141.315805 
L 109.969798 127.766096 
L 111.243286 106.726555 
L 112.516774 152.921063 
L 113.790262 156.248335 
L 115.06375 130.480543 
L 116.337238 96.163211 
L 117.610727 149.960613 
L 118.884215 148.506247 
L 120.157703 131.7893 
L 121.431191 138.625316 
L 122.704679 110.795335 
L 123.978167 145.966368 
L 125.251655 124.469885 
L 126.525143 126.223097 
L 127.798631 123.311521 
L 129.072119 132.554765 
L 130.345607 115.657886 
L 131.619095 127.426149 
L 132.892583 174.664292 
L 134.166071 156.734996 
L 135.439559 132.279767 
L 136.713047 144.550982 
L 137.986535 179.64681 
L 139.260023 149.900919 
L 140.533511 156.678492 
L 141.806999 102.553031 
L 143.080487 162.644426 
L 144.353975 153.633304 
L 145.627463 134.566593 
L 146.900951 125.34506 
L 148.174439 144.050984 
L 149.447927 126.042822 
L 150.721415 161.052516 
L 151.994903 144.504772 
L 153.268391 154.976402 
L 154.541879 146.079647 
L 155.815367 116.477843 
L 157.088855 131.94464 
L 158.362343 138.001726 
L 159.635831 182.296906 
L 160.909319 152.645213 
L 162.182807 143.047996 
L 163.456295 195.675219 
L 164.729783 145.388735 
L 166.003271 168.8232 
L 167.276759 134.810114 
L 168.550247 170.35152 
L 169.823735 154.918177 
L 171.097223 177.428955 
L 172.370711 159.22649 
L 173.644199 167.925736 
L 174.917687 172.074179 
L 176.191175 173.924306 
L 177.464663 192.749055 
L 178.738151 143.85322 
L 180.011639 171.570302 
L 181.285127 150.175374 
L 182.558615 178.898488 
L 183.832103 191.750924 
L 185.105591 154.416184 
L 186.379079 154.751438 
L 187.652568 180.104621 
L 188.926056 184.670065 
L 190.199544 156.704878 
L 191.473032 187.917075 
L 192.74652 184.043467 
L 194.020008 200.945312 
L 195.293496 161.634733 
L 196.566984 147.512973 
L 197.840472 175.941463 
L 199.11396 188.114368 
L 200.387448 155.816692 
L 201.660936 164.800866 
L 202.934424 164.495749 
L 204.207912 187.303689 
L 205.4814 143.493611 
L 206.754888 149.370476 
L 208.028376 181.386593 
L 209.301864 190.238497 
L 210.575352 184.201453 
L 211.84884 171.555098 
L 213.122328 194.571438 
L 214.395816 176.322655 
L 215.669304 161.649811 
L 216.942792 173.916623 
L 218.21628 167.932114 
L 219.489768 199.473096 
L 220.763256 137.0269 
L 222.036744 169.320553 
L 224.58372 191.321963 
L 225.857208 199.793707 
L 227.130696 164.323048 
L 228.404184 187.640537 
L 229.677672 181.439853 
L 230.95116 177.684381 
L 232.224648 167.054639 
L 233.498136 202.012523 
L 234.771624 154.046391 
L 236.045112 156.589025 
L 237.3186 153.19829 
L 238.592088 150.230773 
L 239.865576 184.864729 
L 241.139064 158.819221 
L 242.412552 163.52549 
L 243.68604 154.583195 
L 244.959528 185.265076 
L 246.233016 191.015958 
L 247.506504 202.627613 
L 248.779992 180.13097 
L 250.05348 199.858438 
L 251.326968 183.440664 
L 252.600456 135.29489 
L 253.873944 167.325215 
L 255.147432 192.05055 
L 256.420921 154.605086 
L 257.694409 143.94874 
L 258.967897 192.12842 
L 260.241385 188.634935 
L 261.514873 157.846968 
L 262.788361 169.332386 
L 264.061849 185.77361 
L 265.335337 195.580424 
L 266.608825 194.771213 
L 267.882313 162.451265 
L 269.155801 141.622879 
L 270.429289 198.668923 
L 271.702777 191.8133 
L 272.976265 164.778377 
L 274.249753 202.771609 
L 275.523241 157.702719 
L 276.796729 154.759248 
L 278.070217 193.255868 
L 279.343705 172.850952 
L 280.617193 179.963651 
L 281.890681 171.10305 
L 283.164169 188.525751 
L 284.437657 172.404739 
L 285.711145 198.753588 
L 286.984633 185.573075 
L 288.258121 183.75109 
L 289.531609 156.589079 
L 290.805097 167.369722 
L 292.078585 188.680475 
L 293.352073 160.075878 
L 294.625561 168.625237 
L 295.899049 192.192317 
L 297.172537 165.920703 
L 298.446025 174.016891 
L 299.719513 171.576899 
L 300.993001 226.145121 
L 302.266489 186.430671 
L 303.539977 193.570227 
L 304.813465 159.404809 
L 306.086953 195.867636 
L 307.360441 169.893691 
L 308.633929 151.342128 
L 309.907417 189.643032 
L 311.180905 143.589222 
L 312.454393 183.63415 
L 313.727881 183.940826 
L 315.001369 178.001151 
L 316.274857 184.201743 
L 317.548345 201.492735 
L 318.821833 191.507712 
L 320.095321 187.331179 
L 321.368809 146.097733 
L 322.642297 174.072198 
L 323.915785 182.434215 
L 325.189273 199.657032 
L 326.462762 185.018729 
L 327.73625 139.441377 
L 329.009738 170.78706 
L 330.283226 186.957943 
L 331.556714 194.676001 
L 332.830202 189.790091 
L 334.10369 174.34562 
L 335.377178 197.261167 
L 336.650666 195.100812 
L 337.924154 173.197205 
L 339.197642 216.200708 
L 340.47113 179.022459 
L 341.744618 166.876519 
L 343.018106 173.115965 
L 344.291594 216.144277 
L 345.565082 198.862156 
L 346.83857 162.770082 
L 348.112058 212.60064 
L 349.385546 188.241583 
L 350.659034 220.20174 
L 351.932522 188.388931 
L 353.20601 162.250204 
L 354.479498 180.560257 
L 355.752986 193.980051 
L 357.026474 190.623567 
L 359.57345 177.830316 
L 360.846938 184.437653 
L 362.120426 200.196192 
L 363.393914 138.535576 
L 364.667402 182.926747 
L 365.94089 191.943124 
L 367.214378 178.091433 
L 368.487866 166.889096 
L 369.761354 169.241505 
L 371.034842 184.970833 
L 372.30833 167.150811 
L 373.581818 175.966018 
L 373.581818 175.966018 
" style="fill:none;stroke:#008000;stroke-linecap:square;stroke-width:1.5;"/>
   </g>
   <g id="line2d_29">
    <path clip-path="url(#pffae01e88d)" d="M 69.218182 53.075305 
L 70.49167 79.216569 
L 71.765158 97.826847 
L 73.038646 80.803369 
L 74.312134 88.623507 
L 75.585622 87.372668 
L 76.85911 105.777462 
L 78.132598 91.097913 
L 79.406086 83.479035 
L 80.679574 136.996129 
L 81.953062 114.731047 
L 83.22655 88.049046 
L 84.500038 128.180578 
L 85.773526 122.391677 
L 87.047014 96.994566 
L 88.320502 129.797841 
L 89.59399 137.898486 
L 90.867478 143.226134 
L 92.140966 150.65745 
L 93.414454 112.214345 
L 94.687942 119.295331 
L 95.96143 159.29191 
L 97.234918 159.764563 
L 98.508406 89.908995 
L 99.781894 83.761427 
L 101.055382 159.248037 
L 102.32887 130.863167 
L 103.602358 153.879036 
L 106.149334 96.30032 
L 107.422822 164.868732 
L 108.69631 137.491344 
L 109.969798 161.87617 
L 111.243286 162.301851 
L 112.516774 163.420945 
L 113.790262 141.662711 
L 115.06375 168.885031 
L 116.337238 153.714508 
L 117.610727 111.375505 
L 118.884215 119.065238 
L 120.157703 184.823792 
L 121.431191 125.691621 
L 122.704679 173.999892 
L 123.978167 136.420925 
L 125.251655 161.605213 
L 126.525143 151.4991 
L 127.798631 192.589783 
L 129.072119 147.657766 
L 130.345607 165.666345 
L 131.619095 200.541975 
L 132.892583 169.272747 
L 134.166071 195.836231 
L 135.439559 170.672421 
L 136.713047 187.077456 
L 137.986535 173.718624 
L 139.260023 187.073143 
L 140.533511 190.372707 
L 141.806999 122.93852 
L 143.080487 192.260147 
L 144.353975 171.256433 
L 145.627463 148.272802 
L 146.900951 201.158913 
L 148.174439 109.219191 
L 149.447927 182.477399 
L 150.721415 151.717485 
L 151.994903 162.112116 
L 153.268391 135.873248 
L 154.541879 216.964316 
L 155.815367 164.408855 
L 157.088855 158.880672 
L 158.362343 175.047061 
L 159.635831 122.440823 
L 160.909319 189.275377 
L 162.182807 175.862832 
L 163.456295 173.815104 
L 164.729783 153.59099 
L 166.003271 154.18881 
L 167.276759 155.022304 
L 168.550247 176.657491 
L 169.823735 184.2259 
L 171.097223 160.141478 
L 172.370711 164.635015 
L 173.644199 159.734354 
L 174.917687 211.482597 
L 176.191175 151.566168 
L 177.464663 175.352431 
L 178.738151 168.201423 
L 180.011639 205.68719 
L 181.285127 159.66763 
L 182.558615 201.861224 
L 183.832103 197.405217 
L 185.105591 156.207452 
L 186.379079 143.87841 
L 187.652568 190.631541 
L 188.926056 181.343156 
L 190.199544 136.977881 
L 191.473032 164.451025 
L 192.74652 186.321541 
L 194.020008 178.764912 
L 195.293496 187.413471 
L 196.566984 175.025913 
L 197.840472 177.35683 
L 199.11396 171.68688 
L 200.387448 139.609076 
L 201.660936 172.171239 
L 204.207912 222.250772 
L 205.4814 156.531289 
L 206.754888 145.931248 
L 208.028376 193.976481 
L 209.301864 173.210271 
L 210.575352 135.416361 
L 211.84884 150.128094 
L 213.122328 142.382854 
L 214.395816 204.882618 
L 215.669304 162.146674 
L 218.21628 204.932127 
L 219.489768 122.879951 
L 220.763256 167.137781 
L 222.036744 172.084273 
L 223.310232 127.830846 
L 224.58372 170.334866 
L 225.857208 131.353126 
L 227.130696 188.028144 
L 228.404184 181.384111 
L 230.95116 155.994992 
L 232.224648 197.240309 
L 233.498136 187.958538 
L 234.771624 204.379683 
L 236.045112 188.01718 
L 237.3186 131.889423 
L 238.592088 192.447617 
L 239.865576 182.546625 
L 241.139064 155.892858 
L 242.412552 171.463782 
L 243.68604 209.874776 
L 244.959528 122.078985 
L 246.233016 159.592913 
L 247.506504 184.653031 
L 248.779992 179.855881 
L 250.05348 167.675111 
L 251.326968 163.877161 
L 252.600456 166.00207 
L 253.873944 164.416938 
L 255.147432 154.935845 
L 256.420921 167.491211 
L 257.694409 189.534646 
L 258.967897 122.331259 
L 260.241385 154.951412 
L 261.514873 196.56181 
L 262.788361 180.309669 
L 264.061849 156.087577 
L 265.335337 159.55676 
L 266.608825 214.882655 
L 267.882313 203.106699 
L 269.155801 152.609078 
L 271.702777 194.384784 
L 272.976265 184.045642 
L 274.249753 137.314964 
L 275.523241 169.419353 
L 276.796729 180.879346 
L 278.070217 219.922891 
L 279.343705 172.246119 
L 280.617193 156.444504 
L 281.890681 188.621687 
L 283.164169 167.470099 
L 284.437657 161.419863 
L 285.711145 169.123696 
L 286.984633 167.639049 
L 288.258121 164.970704 
L 289.531609 163.915417 
L 290.805097 145.779967 
L 292.078585 182.679729 
L 293.352073 157.778866 
L 294.625561 170.762686 
L 295.899049 202.686382 
L 297.172537 230.589421 
L 298.446025 207.78535 
L 299.719513 137.935781 
L 300.993001 177.738384 
L 302.266489 204.99983 
L 303.539977 171.705726 
L 304.813465 124.85472 
L 306.086953 130.544441 
L 307.360441 122.066191 
L 308.633929 159.63135 
L 309.907417 170.640164 
L 311.180905 153.748197 
L 312.454393 149.750255 
L 313.727881 179.373642 
L 315.001369 200.863618 
L 316.274857 189.034593 
L 317.548345 166.303417 
L 318.821833 178.729122 
L 320.095321 182.721301 
L 321.368809 173.22591 
L 322.642297 190.185182 
L 323.915785 182.667515 
L 325.189273 218.462889 
L 326.462762 133.081801 
L 327.73625 189.327568 
L 329.009738 129.471938 
L 330.283226 207.385438 
L 332.830202 167.025897 
L 334.10369 163.041837 
L 335.377178 205.133768 
L 336.650666 141.060179 
L 337.924154 148.974968 
L 339.197642 179.074541 
L 340.47113 161.916201 
L 341.744618 209.746872 
L 343.018106 226.524256 
L 344.291594 193.082279 
L 345.565082 100.719558 
L 346.83857 137.023584 
L 348.112058 137.630102 
L 349.385546 209.86287 
L 350.659034 112.096136 
L 351.932522 181.802906 
L 353.20601 156.839233 
L 354.479498 161.670723 
L 355.752986 190.055195 
L 357.026474 146.83172 
L 358.299962 186.82154 
L 359.57345 173.578162 
L 360.846938 172.291622 
L 362.120426 174.567286 
L 363.393914 146.051051 
L 364.667402 201.98351 
L 365.94089 156.25861 
L 367.214378 190.770009 
L 368.487866 177.026397 
L 369.761354 155.671663 
L 371.034842 140.656516 
L 372.30833 136.282656 
L 373.581818 148.614163 
L 373.581818 148.614163 
" style="fill:none;stroke:#4363d8;stroke-linecap:square;stroke-width:1.5;"/>
   </g>
   <g id="patch_3">
    <path d="M 54 252 
L 54 34.56 
" style="fill:none;stroke:#000000;stroke-linecap:square;stroke-linejoin:miter;stroke-width:0.8;"/>
   </g>
   <g id="patch_4">
    <path d="M 388.8 252 
L 388.8 34.56 
" style="fill:none;stroke:#000000;stroke-linecap:square;stroke-linejoin:miter;stroke-width:0.8;"/>
   </g>
   <g id="patch_5">
    <path d="M 54 252 
L 388.8 252 
" style="fill:none;stroke:#000000;stroke-linecap:square;stroke-linejoin:miter;stroke-width:0.8;"/>
   </g>
   <g id="patch_6">
    <path d="M 54 34.56 
L 388.8 34.56 
" style="fill:none;stroke:#000000;stroke-linecap:square;stroke-linejoin:miter;stroke-width:0.8;"/>
   </g>
   <g id="text_16">
    <!-- 3 layer NN Train Loss for different settings -->
    <defs>
     <path d="M 40.578125 39.3125 
Q 47.65625 37.796875 51.625 33 
Q 55.609375 28.21875 55.609375 21.1875 
Q 55.609375 10.40625 48.1875 4.484375 
Q 40.765625 -1.421875 27.09375 -1.421875 
Q 22.515625 -1.421875 17.65625 -0.515625 
Q 12.796875 0.390625 7.625 2.203125 
L 7.625 11.71875 
Q 11.71875 9.328125 16.59375 8.109375 
Q 21.484375 6.890625 26.8125 6.890625 
Q 36.078125 6.890625 40.9375 10.546875 
Q 45.796875 14.203125 45.796875 21.1875 
Q 45.796875 27.640625 41.28125 31.265625 
Q 36.765625 34.90625 28.71875 34.90625 
L 20.21875 34.90625 
L 20.21875 43.015625 
L 29.109375 43.015625 
Q 36.375 43.015625 40.234375 45.921875 
Q 44.09375 48.828125 44.09375 54.296875 
Q 44.09375 59.90625 40.109375 62.90625 
Q 36.140625 65.921875 28.71875 65.921875 
Q 24.65625 65.921875 20.015625 65.03125 
Q 15.375 64.15625 9.8125 62.3125 
L 9.8125 71.09375 
Q 15.4375 72.65625 20.34375 73.4375 
Q 25.25 74.21875 29.59375 74.21875 
Q 40.828125 74.21875 47.359375 69.109375 
Q 53.90625 64.015625 53.90625 55.328125 
Q 53.90625 49.265625 50.4375 45.09375 
Q 46.96875 40.921875 40.578125 39.3125 
z
" id="DejaVuSans-51"/>
     <path id="DejaVuSans-32"/>
     <path d="M 9.421875 75.984375 
L 18.40625 75.984375 
L 18.40625 0 
L 9.421875 0 
z
" id="DejaVuSans-108"/>
     <path d="M 34.28125 27.484375 
Q 23.390625 27.484375 19.1875 25 
Q 14.984375 22.515625 14.984375 16.5 
Q 14.984375 11.71875 18.140625 8.90625 
Q 21.296875 6.109375 26.703125 6.109375 
Q 34.1875 6.109375 38.703125 11.40625 
Q 43.21875 16.703125 43.21875 25.484375 
L 43.21875 27.484375 
z
M 52.203125 31.203125 
L 52.203125 0 
L 43.21875 0 
L 43.21875 8.296875 
Q 40.140625 3.328125 35.546875 0.953125 
Q 30.953125 -1.421875 24.3125 -1.421875 
Q 15.921875 -1.421875 10.953125 3.296875 
Q 6 8.015625 6 15.921875 
Q 6 25.140625 12.171875 29.828125 
Q 18.359375 34.515625 30.609375 34.515625 
L 43.21875 34.515625 
L 43.21875 35.40625 
Q 43.21875 41.609375 39.140625 45 
Q 35.0625 48.390625 27.6875 48.390625 
Q 23 48.390625 18.546875 47.265625 
Q 14.109375 46.140625 10.015625 43.890625 
L 10.015625 52.203125 
Q 14.9375 54.109375 19.578125 55.046875 
Q 24.21875 56 28.609375 56 
Q 40.484375 56 46.34375 49.84375 
Q 52.203125 43.703125 52.203125 31.203125 
z
" id="DejaVuSans-97"/>
     <path d="M 32.171875 -5.078125 
Q 28.375 -14.84375 24.75 -17.8125 
Q 21.140625 -20.796875 15.09375 -20.796875 
L 7.90625 -20.796875 
L 7.90625 -13.28125 
L 13.1875 -13.28125 
Q 16.890625 -13.28125 18.9375 -11.515625 
Q 21 -9.765625 23.484375 -3.21875 
L 25.09375 0.875 
L 2.984375 54.6875 
L 12.5 54.6875 
L 29.59375 11.921875 
L 46.6875 54.6875 
L 56.203125 54.6875 
z
" id="DejaVuSans-121"/>
     <path d="M 56.203125 29.59375 
L 56.203125 25.203125 
L 14.890625 25.203125 
Q 15.484375 15.921875 20.484375 11.0625 
Q 25.484375 6.203125 34.421875 6.203125 
Q 39.59375 6.203125 44.453125 7.46875 
Q 49.3125 8.734375 54.109375 11.28125 
L 54.109375 2.78125 
Q 49.265625 0.734375 44.1875 -0.34375 
Q 39.109375 -1.421875 33.890625 -1.421875 
Q 20.796875 -1.421875 13.15625 6.1875 
Q 5.515625 13.8125 5.515625 26.8125 
Q 5.515625 40.234375 12.765625 48.109375 
Q 20.015625 56 32.328125 56 
Q 43.359375 56 49.78125 48.890625 
Q 56.203125 41.796875 56.203125 29.59375 
z
M 47.21875 32.234375 
Q 47.125 39.59375 43.09375 43.984375 
Q 39.0625 48.390625 32.421875 48.390625 
Q 24.90625 48.390625 20.390625 44.140625 
Q 15.875 39.890625 15.1875 32.171875 
z
" id="DejaVuSans-101"/>
     <path d="M 41.109375 46.296875 
Q 39.59375 47.171875 37.8125 47.578125 
Q 36.03125 48 33.890625 48 
Q 26.265625 48 22.1875 43.046875 
Q 18.109375 38.09375 18.109375 28.8125 
L 18.109375 0 
L 9.078125 0 
L 9.078125 54.6875 
L 18.109375 54.6875 
L 18.109375 46.1875 
Q 20.953125 51.171875 25.484375 53.578125 
Q 30.03125 56 36.53125 56 
Q 37.453125 56 38.578125 55.875 
Q 39.703125 55.765625 41.0625 55.515625 
z
" id="DejaVuSans-114"/>
     <path d="M 9.8125 72.90625 
L 23.09375 72.90625 
L 55.421875 11.921875 
L 55.421875 72.90625 
L 64.984375 72.90625 
L 64.984375 0 
L 51.703125 0 
L 19.390625 60.984375 
L 19.390625 0 
L 9.8125 0 
z
" id="DejaVuSans-78"/>
     <path d="M -0.296875 72.90625 
L 61.375 72.90625 
L 61.375 64.59375 
L 35.5 64.59375 
L 35.5 0 
L 25.59375 0 
L 25.59375 64.59375 
L -0.296875 64.59375 
z
" id="DejaVuSans-84"/>
     <path d="M 9.421875 54.6875 
L 18.40625 54.6875 
L 18.40625 0 
L 9.421875 0 
z
M 9.421875 75.984375 
L 18.40625 75.984375 
L 18.40625 64.59375 
L 9.421875 64.59375 
z
" id="DejaVuSans-105"/>
     <path d="M 54.890625 33.015625 
L 54.890625 0 
L 45.90625 0 
L 45.90625 32.71875 
Q 45.90625 40.484375 42.875 44.328125 
Q 39.84375 48.1875 33.796875 48.1875 
Q 26.515625 48.1875 22.3125 43.546875 
Q 18.109375 38.921875 18.109375 30.90625 
L 18.109375 0 
L 9.078125 0 
L 9.078125 54.6875 
L 18.109375 54.6875 
L 18.109375 46.1875 
Q 21.34375 51.125 25.703125 53.5625 
Q 30.078125 56 35.796875 56 
Q 45.21875 56 50.046875 50.171875 
Q 54.890625 44.34375 54.890625 33.015625 
z
" id="DejaVuSans-110"/>
     <path d="M 37.109375 75.984375 
L 37.109375 68.5 
L 28.515625 68.5 
Q 23.6875 68.5 21.796875 66.546875 
Q 19.921875 64.59375 19.921875 59.515625 
L 19.921875 54.6875 
L 34.71875 54.6875 
L 34.71875 47.703125 
L 19.921875 47.703125 
L 19.921875 0 
L 10.890625 0 
L 10.890625 47.703125 
L 2.296875 47.703125 
L 2.296875 54.6875 
L 10.890625 54.6875 
L 10.890625 58.5 
Q 10.890625 67.625 15.140625 71.796875 
Q 19.390625 75.984375 28.609375 75.984375 
z
" id="DejaVuSans-102"/>
     <path d="M 45.40625 46.390625 
L 45.40625 75.984375 
L 54.390625 75.984375 
L 54.390625 0 
L 45.40625 0 
L 45.40625 8.203125 
Q 42.578125 3.328125 38.25 0.953125 
Q 33.9375 -1.421875 27.875 -1.421875 
Q 17.96875 -1.421875 11.734375 6.484375 
Q 5.515625 14.40625 5.515625 27.296875 
Q 5.515625 40.1875 11.734375 48.09375 
Q 17.96875 56 27.875 56 
Q 33.9375 56 38.25 53.625 
Q 42.578125 51.265625 45.40625 46.390625 
z
M 14.796875 27.296875 
Q 14.796875 17.390625 18.875 11.75 
Q 22.953125 6.109375 30.078125 6.109375 
Q 37.203125 6.109375 41.296875 11.75 
Q 45.40625 17.390625 45.40625 27.296875 
Q 45.40625 37.203125 41.296875 42.84375 
Q 37.203125 48.484375 30.078125 48.484375 
Q 22.953125 48.484375 18.875 42.84375 
Q 14.796875 37.203125 14.796875 27.296875 
z
" id="DejaVuSans-100"/>
     <path d="M 18.3125 70.21875 
L 18.3125 54.6875 
L 36.8125 54.6875 
L 36.8125 47.703125 
L 18.3125 47.703125 
L 18.3125 18.015625 
Q 18.3125 11.328125 20.140625 9.421875 
Q 21.96875 7.515625 27.59375 7.515625 
L 36.8125 7.515625 
L 36.8125 0 
L 27.59375 0 
Q 17.1875 0 13.234375 3.875 
Q 9.28125 7.765625 9.28125 18.015625 
L 9.28125 47.703125 
L 2.6875 47.703125 
L 2.6875 54.6875 
L 9.28125 54.6875 
L 9.28125 70.21875 
z
" id="DejaVuSans-116"/>
     <path d="M 45.40625 27.984375 
Q 45.40625 37.75 41.375 43.109375 
Q 37.359375 48.484375 30.078125 48.484375 
Q 22.859375 48.484375 18.828125 43.109375 
Q 14.796875 37.75 14.796875 27.984375 
Q 14.796875 18.265625 18.828125 12.890625 
Q 22.859375 7.515625 30.078125 7.515625 
Q 37.359375 7.515625 41.375 12.890625 
Q 45.40625 18.265625 45.40625 27.984375 
z
M 54.390625 6.78125 
Q 54.390625 -7.171875 48.1875 -13.984375 
Q 42 -20.796875 29.203125 -20.796875 
Q 24.46875 -20.796875 20.265625 -20.09375 
Q 16.0625 -19.390625 12.109375 -17.921875 
L 12.109375 -9.1875 
Q 16.0625 -11.328125 19.921875 -12.34375 
Q 23.78125 -13.375 27.78125 -13.375 
Q 36.625 -13.375 41.015625 -8.765625 
Q 45.40625 -4.15625 45.40625 5.171875 
L 45.40625 9.625 
Q 42.625 4.78125 38.28125 2.390625 
Q 33.9375 0 27.875 0 
Q 17.828125 0 11.671875 7.65625 
Q 5.515625 15.328125 5.515625 27.984375 
Q 5.515625 40.671875 11.671875 48.328125 
Q 17.828125 56 27.875 56 
Q 33.9375 56 38.28125 53.609375 
Q 42.625 51.21875 45.40625 46.390625 
L 45.40625 54.6875 
L 54.390625 54.6875 
z
" id="DejaVuSans-103"/>
    </defs>
    <g transform="translate(61.89375 28.56)scale(0.15 -0.15)">
     <use xlink:href="#DejaVuSans-51"/>
     <use x="63.623047" xlink:href="#DejaVuSans-32"/>
     <use x="95.410156" xlink:href="#DejaVuSans-108"/>
     <use x="123.193359" xlink:href="#DejaVuSans-97"/>
     <use x="184.472656" xlink:href="#DejaVuSans-121"/>
     <use x="243.652344" xlink:href="#DejaVuSans-101"/>
     <use x="305.175781" xlink:href="#DejaVuSans-114"/>
     <use x="346.289062" xlink:href="#DejaVuSans-32"/>
     <use x="378.076172" xlink:href="#DejaVuSans-78"/>
     <use x="452.880859" xlink:href="#DejaVuSans-78"/>
     <use x="527.685547" xlink:href="#DejaVuSans-32"/>
     <use x="559.472656" xlink:href="#DejaVuSans-84"/>
     <use x="620.337891" xlink:href="#DejaVuSans-114"/>
     <use x="661.451172" xlink:href="#DejaVuSans-97"/>
     <use x="722.730469" xlink:href="#DejaVuSans-105"/>
     <use x="750.513672" xlink:href="#DejaVuSans-110"/>
     <use x="813.892578" xlink:href="#DejaVuSans-32"/>
     <use x="845.679688" xlink:href="#DejaVuSans-76"/>
     <use x="901.376953" xlink:href="#DejaVuSans-111"/>
     <use x="962.558594" xlink:href="#DejaVuSans-115"/>
     <use x="1014.658203" xlink:href="#DejaVuSans-115"/>
     <use x="1066.757812" xlink:href="#DejaVuSans-32"/>
     <use x="1098.544922" xlink:href="#DejaVuSans-102"/>
     <use x="1133.75" xlink:href="#DejaVuSans-111"/>
     <use x="1194.931641" xlink:href="#DejaVuSans-114"/>
     <use x="1236.044922" xlink:href="#DejaVuSans-32"/>
     <use x="1267.832031" xlink:href="#DejaVuSans-100"/>
     <use x="1331.308594" xlink:href="#DejaVuSans-105"/>
     <use x="1359.091797" xlink:href="#DejaVuSans-102"/>
     <use x="1394.296875" xlink:href="#DejaVuSans-102"/>
     <use x="1429.501953" xlink:href="#DejaVuSans-101"/>
     <use x="1491.025391" xlink:href="#DejaVuSans-114"/>
     <use x="1532.107422" xlink:href="#DejaVuSans-101"/>
     <use x="1593.630859" xlink:href="#DejaVuSans-110"/>
     <use x="1657.009766" xlink:href="#DejaVuSans-116"/>
     <use x="1696.21875" xlink:href="#DejaVuSans-32"/>
     <use x="1728.005859" xlink:href="#DejaVuSans-115"/>
     <use x="1780.105469" xlink:href="#DejaVuSans-101"/>
     <use x="1841.628906" xlink:href="#DejaVuSans-116"/>
     <use x="1880.837891" xlink:href="#DejaVuSans-116"/>
     <use x="1920.046875" xlink:href="#DejaVuSans-105"/>
     <use x="1947.830078" xlink:href="#DejaVuSans-110"/>
     <use x="2011.208984" xlink:href="#DejaVuSans-103"/>
     <use x="2074.685547" xlink:href="#DejaVuSans-115"/>
    </g>
   </g>
   <g id="legend_1">
    <g id="patch_7">
     <path d="M 331.284375 86.594375 
L 381.8 86.594375 
Q 383.8 86.594375 383.8 84.594375 
L 383.8 41.56 
Q 383.8 39.56 381.8 39.56 
L 331.284375 39.56 
Q 329.284375 39.56 329.284375 41.56 
L 329.284375 84.594375 
Q 329.284375 86.594375 331.284375 86.594375 
z
" style="fill:#ffffff;opacity:0.8;stroke:#cccccc;stroke-linejoin:miter;"/>
    </g>
    <g id="line2d_30">
     <path d="M 333.284375 47.658438 
L 353.284375 47.658438 
" style="fill:none;stroke:#ff0000;stroke-linecap:square;stroke-width:1.5;"/>
    </g>
    <g id="line2d_31"/>
    <g id="text_17">
     <!-- 49k -->
     <defs>
      <path d="M 10.984375 1.515625 
L 10.984375 10.5 
Q 14.703125 8.734375 18.5 7.8125 
Q 22.3125 6.890625 25.984375 6.890625 
Q 35.75 6.890625 40.890625 13.453125 
Q 46.046875 20.015625 46.78125 33.40625 
Q 43.953125 29.203125 39.59375 26.953125 
Q 35.25 24.703125 29.984375 24.703125 
Q 19.046875 24.703125 12.671875 31.3125 
Q 6.296875 37.9375 6.296875 49.421875 
Q 6.296875 60.640625 12.9375 67.421875 
Q 19.578125 74.21875 30.609375 74.21875 
Q 43.265625 74.21875 49.921875 64.515625 
Q 56.59375 54.828125 56.59375 36.375 
Q 56.59375 19.140625 48.40625 8.859375 
Q 40.234375 -1.421875 26.421875 -1.421875 
Q 22.703125 -1.421875 18.890625 -0.6875 
Q 15.09375 0.046875 10.984375 1.515625 
z
M 30.609375 32.421875 
Q 37.25 32.421875 41.125 36.953125 
Q 45.015625 41.5 45.015625 49.421875 
Q 45.015625 57.28125 41.125 61.84375 
Q 37.25 66.40625 30.609375 66.40625 
Q 23.96875 66.40625 20.09375 61.84375 
Q 16.21875 57.28125 16.21875 49.421875 
Q 16.21875 41.5 20.09375 36.953125 
Q 23.96875 32.421875 30.609375 32.421875 
z
" id="DejaVuSans-57"/>
      <path d="M 9.078125 75.984375 
L 18.109375 75.984375 
L 18.109375 31.109375 
L 44.921875 54.6875 
L 56.390625 54.6875 
L 27.390625 29.109375 
L 57.625 0 
L 45.90625 0 
L 18.109375 26.703125 
L 18.109375 0 
L 9.078125 0 
z
" id="DejaVuSans-107"/>
     </defs>
     <g transform="translate(361.284375 51.158438)scale(0.1 -0.1)">
      <use xlink:href="#DejaVuSans-52"/>
      <use x="63.623047" xlink:href="#DejaVuSans-57"/>
      <use x="127.246094" xlink:href="#DejaVuSans-107"/>
     </g>
    </g>
    <g id="line2d_32">
     <path d="M 333.284375 62.336563 
L 353.284375 62.336563 
" style="fill:none;stroke:#008000;stroke-linecap:square;stroke-width:1.5;"/>
    </g>
    <g id="line2d_33"/>
    <g id="text_18">
     <!-- SSL -->
     <defs>
      <path d="M 53.515625 70.515625 
L 53.515625 60.890625 
Q 47.90625 63.578125 42.921875 64.890625 
Q 37.9375 66.21875 33.296875 66.21875 
Q 25.25 66.21875 20.875 63.09375 
Q 16.5 59.96875 16.5 54.203125 
Q 16.5 49.359375 19.40625 46.890625 
Q 22.3125 44.4375 30.421875 42.921875 
L 36.375 41.703125 
Q 47.40625 39.59375 52.65625 34.296875 
Q 57.90625 29 57.90625 20.125 
Q 57.90625 9.515625 50.796875 4.046875 
Q 43.703125 -1.421875 29.984375 -1.421875 
Q 24.8125 -1.421875 18.96875 -0.25 
Q 13.140625 0.921875 6.890625 3.21875 
L 6.890625 13.375 
Q 12.890625 10.015625 18.65625 8.296875 
Q 24.421875 6.59375 29.984375 6.59375 
Q 38.421875 6.59375 43.015625 9.90625 
Q 47.609375 13.234375 47.609375 19.390625 
Q 47.609375 24.75 44.3125 27.78125 
Q 41.015625 30.8125 33.5 32.328125 
L 27.484375 33.5 
Q 16.453125 35.6875 11.515625 40.375 
Q 6.59375 45.0625 6.59375 53.421875 
Q 6.59375 63.09375 13.40625 68.65625 
Q 20.21875 74.21875 32.171875 74.21875 
Q 37.3125 74.21875 42.625 73.28125 
Q 47.953125 72.359375 53.515625 70.515625 
z
" id="DejaVuSans-83"/>
     </defs>
     <g transform="translate(361.284375 65.836563)scale(0.1 -0.1)">
      <use xlink:href="#DejaVuSans-83"/>
      <use x="63.476562" xlink:href="#DejaVuSans-83"/>
      <use x="126.953125" xlink:href="#DejaVuSans-76"/>
     </g>
    </g>
    <g id="line2d_34">
     <path d="M 333.284375 77.014688 
L 353.284375 77.014688 
" style="fill:none;stroke:#4363d8;stroke-linecap:square;stroke-width:1.5;"/>
    </g>
    <g id="line2d_35"/>
    <g id="text_19">
     <!-- 4k -->
     <g transform="translate(361.284375 80.514688)scale(0.1 -0.1)">
      <use xlink:href="#DejaVuSans-52"/>
      <use x="63.623047" xlink:href="#DejaVuSans-107"/>
     </g>
    </g>
   </g>
  </g>
 </g>
 <defs>
  <clipPath id="pffae01e88d">
   <rect height="217.44" width="334.8" x="54" y="34.56"/>
  </clipPath>
 </defs>
</svg>
