<?xml version="1.0" encoding="utf-8" standalone="no"?>
<!DOCTYPE svg PUBLIC "-//W3C//DTD SVG 1.1//EN"
  "http://www.w3.org/Graphics/SVG/1.1/DTD/svg11.dtd">
<!-- Created with matplotlib (https://matplotlib.org/) -->
<svg height="288pt" version="1.1" viewBox="0 0 432 288" width="432pt" xmlns="http://www.w3.org/2000/svg" xmlns:xlink="http://www.w3.org/1999/xlink">
 <defs>
  <style type="text/css">
*{stroke-linecap:butt;stroke-linejoin:round;}
  </style>
 </defs>
 <g id="figure_1">
  <g id="patch_1">
   <path d="M 0 288 
L 432 288 
L 432 0 
L 0 0 
z
" style="fill:#ffffff;"/>
  </g>
  <g id="axes_1">
   <g id="patch_2">
    <path d="M 54 252 
L 388.8 252 
L 388.8 34.56 
L 54 34.56 
z
" style="fill:#ffffff;"/>
   </g>
   <g id="matplotlib.axis_1">
    <g id="xtick_1">
     <g id="line2d_1">
      <path clip-path="url(#p44f0e75761)" d="M 69.218182 252 
L 69.218182 34.56 
" style="fill:none;stroke:#b0b0b0;stroke-dasharray:0.8,1.32;stroke-dashoffset:0;stroke-width:0.8;"/>
     </g>
     <g id="line2d_2">
      <defs>
       <path d="M 0 0 
L 0 3.5 
" id="m8d0e96d6cf" style="stroke:#000000;stroke-width:0.8;"/>
      </defs>
      <g>
       <use style="stroke:#000000;stroke-width:0.8;" x="69.218182" xlink:href="#m8d0e96d6cf" y="252"/>
      </g>
     </g>
     <g id="text_1">
      <!-- 0 -->
      <defs>
       <path d="M 31.78125 66.40625 
Q 24.171875 66.40625 20.328125 58.90625 
Q 16.5 51.421875 16.5 36.375 
Q 16.5 21.390625 20.328125 13.890625 
Q 24.171875 6.390625 31.78125 6.390625 
Q 39.453125 6.390625 43.28125 13.890625 
Q 47.125 21.390625 47.125 36.375 
Q 47.125 51.421875 43.28125 58.90625 
Q 39.453125 66.40625 31.78125 66.40625 
z
M 31.78125 74.21875 
Q 44.046875 74.21875 50.515625 64.515625 
Q 56.984375 54.828125 56.984375 36.375 
Q 56.984375 17.96875 50.515625 8.265625 
Q 44.046875 -1.421875 31.78125 -1.421875 
Q 19.53125 -1.421875 13.0625 8.265625 
Q 6.59375 17.96875 6.59375 36.375 
Q 6.59375 54.828125 13.0625 64.515625 
Q 19.53125 74.21875 31.78125 74.21875 
z
" id="DejaVuSans-48"/>
      </defs>
      <g transform="translate(66.036932 266.598437)scale(0.1 -0.1)">
       <use xlink:href="#DejaVuSans-48"/>
      </g>
     </g>
    </g>
    <g id="xtick_2">
     <g id="line2d_3">
      <path clip-path="url(#p44f0e75761)" d="M 132.892583 252 
L 132.892583 34.56 
" style="fill:none;stroke:#b0b0b0;stroke-dasharray:0.8,1.32;stroke-dashoffset:0;stroke-width:0.8;"/>
     </g>
     <g id="line2d_4">
      <g>
       <use style="stroke:#000000;stroke-width:0.8;" x="132.892583" xlink:href="#m8d0e96d6cf" y="252"/>
      </g>
     </g>
     <g id="text_2">
      <!-- 50 -->
      <defs>
       <path d="M 10.796875 72.90625 
L 49.515625 72.90625 
L 49.515625 64.59375 
L 19.828125 64.59375 
L 19.828125 46.734375 
Q 21.96875 47.46875 24.109375 47.828125 
Q 26.265625 48.1875 28.421875 48.1875 
Q 40.625 48.1875 47.75 41.5 
Q 54.890625 34.8125 54.890625 23.390625 
Q 54.890625 11.625 47.5625 5.09375 
Q 40.234375 -1.421875 26.90625 -1.421875 
Q 22.3125 -1.421875 17.546875 -0.640625 
Q 12.796875 0.140625 7.71875 1.703125 
L 7.71875 11.625 
Q 12.109375 9.234375 16.796875 8.0625 
Q 21.484375 6.890625 26.703125 6.890625 
Q 35.15625 6.890625 40.078125 11.328125 
Q 45.015625 15.765625 45.015625 23.390625 
Q 45.015625 31 40.078125 35.4375 
Q 35.15625 39.890625 26.703125 39.890625 
Q 22.75 39.890625 18.8125 39.015625 
Q 14.890625 38.140625 10.796875 36.28125 
z
" id="DejaVuSans-53"/>
      </defs>
      <g transform="translate(126.530083 266.598437)scale(0.1 -0.1)">
       <use xlink:href="#DejaVuSans-53"/>
       <use x="63.623047" xlink:href="#DejaVuSans-48"/>
      </g>
     </g>
    </g>
    <g id="xtick_3">
     <g id="line2d_5">
      <path clip-path="url(#p44f0e75761)" d="M 196.566984 252 
L 196.566984 34.56 
" style="fill:none;stroke:#b0b0b0;stroke-dasharray:0.8,1.32;stroke-dashoffset:0;stroke-width:0.8;"/>
     </g>
     <g id="line2d_6">
      <g>
       <use style="stroke:#000000;stroke-width:0.8;" x="196.566984" xlink:href="#m8d0e96d6cf" y="252"/>
      </g>
     </g>
     <g id="text_3">
      <!-- 100 -->
      <defs>
       <path d="M 12.40625 8.296875 
L 28.515625 8.296875 
L 28.515625 63.921875 
L 10.984375 60.40625 
L 10.984375 69.390625 
L 28.421875 72.90625 
L 38.28125 72.90625 
L 38.28125 8.296875 
L 54.390625 8.296875 
L 54.390625 0 
L 12.40625 0 
z
" id="DejaVuSans-49"/>
      </defs>
      <g transform="translate(187.023234 266.598437)scale(0.1 -0.1)">
       <use xlink:href="#DejaVuSans-49"/>
       <use x="63.623047" xlink:href="#DejaVuSans-48"/>
       <use x="127.246094" xlink:href="#DejaVuSans-48"/>
      </g>
     </g>
    </g>
    <g id="xtick_4">
     <g id="line2d_7">
      <path clip-path="url(#p44f0e75761)" d="M 260.241385 252 
L 260.241385 34.56 
" style="fill:none;stroke:#b0b0b0;stroke-dasharray:0.8,1.32;stroke-dashoffset:0;stroke-width:0.8;"/>
     </g>
     <g id="line2d_8">
      <g>
       <use style="stroke:#000000;stroke-width:0.8;" x="260.241385" xlink:href="#m8d0e96d6cf" y="252"/>
      </g>
     </g>
     <g id="text_4">
      <!-- 150 -->
      <g transform="translate(250.697635 266.598437)scale(0.1 -0.1)">
       <use xlink:href="#DejaVuSans-49"/>
       <use x="63.623047" xlink:href="#DejaVuSans-53"/>
       <use x="127.246094" xlink:href="#DejaVuSans-48"/>
      </g>
     </g>
    </g>
    <g id="xtick_5">
     <g id="line2d_9">
      <path clip-path="url(#p44f0e75761)" d="M 323.915785 252 
L 323.915785 34.56 
" style="fill:none;stroke:#b0b0b0;stroke-dasharray:0.8,1.32;stroke-dashoffset:0;stroke-width:0.8;"/>
     </g>
     <g id="line2d_10">
      <g>
       <use style="stroke:#000000;stroke-width:0.8;" x="323.915785" xlink:href="#m8d0e96d6cf" y="252"/>
      </g>
     </g>
     <g id="text_5">
      <!-- 200 -->
      <defs>
       <path d="M 19.1875 8.296875 
L 53.609375 8.296875 
L 53.609375 0 
L 7.328125 0 
L 7.328125 8.296875 
Q 12.9375 14.109375 22.625 23.890625 
Q 32.328125 33.6875 34.8125 36.53125 
Q 39.546875 41.84375 41.421875 45.53125 
Q 43.3125 49.21875 43.3125 52.78125 
Q 43.3125 58.59375 39.234375 62.25 
Q 35.15625 65.921875 28.609375 65.921875 
Q 23.96875 65.921875 18.8125 64.3125 
Q 13.671875 62.703125 7.8125 59.421875 
L 7.8125 69.390625 
Q 13.765625 71.78125 18.9375 73 
Q 24.125 74.21875 28.421875 74.21875 
Q 39.75 74.21875 46.484375 68.546875 
Q 53.21875 62.890625 53.21875 53.421875 
Q 53.21875 48.921875 51.53125 44.890625 
Q 49.859375 40.875 45.40625 35.40625 
Q 44.1875 33.984375 37.640625 27.21875 
Q 31.109375 20.453125 19.1875 8.296875 
z
" id="DejaVuSans-50"/>
      </defs>
      <g transform="translate(314.372035 266.598437)scale(0.1 -0.1)">
       <use xlink:href="#DejaVuSans-50"/>
       <use x="63.623047" xlink:href="#DejaVuSans-48"/>
       <use x="127.246094" xlink:href="#DejaVuSans-48"/>
      </g>
     </g>
    </g>
    <g id="xtick_6">
     <g id="line2d_11">
      <path clip-path="url(#p44f0e75761)" d="M 387.590186 252 
L 387.590186 34.56 
" style="fill:none;stroke:#b0b0b0;stroke-dasharray:0.8,1.32;stroke-dashoffset:0;stroke-width:0.8;"/>
     </g>
     <g id="line2d_12">
      <g>
       <use style="stroke:#000000;stroke-width:0.8;" x="387.590186" xlink:href="#m8d0e96d6cf" y="252"/>
      </g>
     </g>
     <g id="text_6">
      <!-- 250 -->
      <g transform="translate(378.046436 266.598437)scale(0.1 -0.1)">
       <use xlink:href="#DejaVuSans-50"/>
       <use x="63.623047" xlink:href="#DejaVuSans-53"/>
       <use x="127.246094" xlink:href="#DejaVuSans-48"/>
      </g>
     </g>
    </g>
    <g id="text_7">
     <!-- Epochs -->
     <defs>
      <path d="M 9.8125 72.90625 
L 55.90625 72.90625 
L 55.90625 64.59375 
L 19.671875 64.59375 
L 19.671875 43.015625 
L 54.390625 43.015625 
L 54.390625 34.71875 
L 19.671875 34.71875 
L 19.671875 8.296875 
L 56.78125 8.296875 
L 56.78125 0 
L 9.8125 0 
z
" id="DejaVuSans-69"/>
      <path d="M 18.109375 8.203125 
L 18.109375 -20.796875 
L 9.078125 -20.796875 
L 9.078125 54.6875 
L 18.109375 54.6875 
L 18.109375 46.390625 
Q 20.953125 51.265625 25.265625 53.625 
Q 29.59375 56 35.59375 56 
Q 45.5625 56 51.78125 48.09375 
Q 58.015625 40.1875 58.015625 27.296875 
Q 58.015625 14.40625 51.78125 6.484375 
Q 45.5625 -1.421875 35.59375 -1.421875 
Q 29.59375 -1.421875 25.265625 0.953125 
Q 20.953125 3.328125 18.109375 8.203125 
z
M 48.6875 27.296875 
Q 48.6875 37.203125 44.609375 42.84375 
Q 40.53125 48.484375 33.40625 48.484375 
Q 26.265625 48.484375 22.1875 42.84375 
Q 18.109375 37.203125 18.109375 27.296875 
Q 18.109375 17.390625 22.1875 11.75 
Q 26.265625 6.109375 33.40625 6.109375 
Q 40.53125 6.109375 44.609375 11.75 
Q 48.6875 17.390625 48.6875 27.296875 
z
" id="DejaVuSans-112"/>
      <path d="M 30.609375 48.390625 
Q 23.390625 48.390625 19.1875 42.75 
Q 14.984375 37.109375 14.984375 27.296875 
Q 14.984375 17.484375 19.15625 11.84375 
Q 23.34375 6.203125 30.609375 6.203125 
Q 37.796875 6.203125 41.984375 11.859375 
Q 46.1875 17.53125 46.1875 27.296875 
Q 46.1875 37.015625 41.984375 42.703125 
Q 37.796875 48.390625 30.609375 48.390625 
z
M 30.609375 56 
Q 42.328125 56 49.015625 48.375 
Q 55.71875 40.765625 55.71875 27.296875 
Q 55.71875 13.875 49.015625 6.21875 
Q 42.328125 -1.421875 30.609375 -1.421875 
Q 18.84375 -1.421875 12.171875 6.21875 
Q 5.515625 13.875 5.515625 27.296875 
Q 5.515625 40.765625 12.171875 48.375 
Q 18.84375 56 30.609375 56 
z
" id="DejaVuSans-111"/>
      <path d="M 48.78125 52.59375 
L 48.78125 44.1875 
Q 44.96875 46.296875 41.140625 47.34375 
Q 37.3125 48.390625 33.40625 48.390625 
Q 24.65625 48.390625 19.8125 42.84375 
Q 14.984375 37.3125 14.984375 27.296875 
Q 14.984375 17.28125 19.8125 11.734375 
Q 24.65625 6.203125 33.40625 6.203125 
Q 37.3125 6.203125 41.140625 7.25 
Q 44.96875 8.296875 48.78125 10.40625 
L 48.78125 2.09375 
Q 45.015625 0.34375 40.984375 -0.53125 
Q 36.96875 -1.421875 32.421875 -1.421875 
Q 20.0625 -1.421875 12.78125 6.34375 
Q 5.515625 14.109375 5.515625 27.296875 
Q 5.515625 40.671875 12.859375 48.328125 
Q 20.21875 56 33.015625 56 
Q 37.15625 56 41.109375 55.140625 
Q 45.0625 54.296875 48.78125 52.59375 
z
" id="DejaVuSans-99"/>
      <path d="M 54.890625 33.015625 
L 54.890625 0 
L 45.90625 0 
L 45.90625 32.71875 
Q 45.90625 40.484375 42.875 44.328125 
Q 39.84375 48.1875 33.796875 48.1875 
Q 26.515625 48.1875 22.3125 43.546875 
Q 18.109375 38.921875 18.109375 30.90625 
L 18.109375 0 
L 9.078125 0 
L 9.078125 75.984375 
L 18.109375 75.984375 
L 18.109375 46.1875 
Q 21.34375 51.125 25.703125 53.5625 
Q 30.078125 56 35.796875 56 
Q 45.21875 56 50.046875 50.171875 
Q 54.890625 44.34375 54.890625 33.015625 
z
" id="DejaVuSans-104"/>
      <path d="M 44.28125 53.078125 
L 44.28125 44.578125 
Q 40.484375 46.53125 36.375 47.5 
Q 32.28125 48.484375 27.875 48.484375 
Q 21.1875 48.484375 17.84375 46.4375 
Q 14.5 44.390625 14.5 40.28125 
Q 14.5 37.15625 16.890625 35.375 
Q 19.28125 33.59375 26.515625 31.984375 
L 29.59375 31.296875 
Q 39.15625 29.25 43.1875 25.515625 
Q 47.21875 21.78125 47.21875 15.09375 
Q 47.21875 7.46875 41.1875 3.015625 
Q 35.15625 -1.421875 24.609375 -1.421875 
Q 20.21875 -1.421875 15.453125 -0.5625 
Q 10.6875 0.296875 5.421875 2 
L 5.421875 11.28125 
Q 10.40625 8.6875 15.234375 7.390625 
Q 20.0625 6.109375 24.8125 6.109375 
Q 31.15625 6.109375 34.5625 8.28125 
Q 37.984375 10.453125 37.984375 14.40625 
Q 37.984375 18.0625 35.515625 20.015625 
Q 33.0625 21.96875 24.703125 23.78125 
L 21.578125 24.515625 
Q 13.234375 26.265625 9.515625 29.90625 
Q 5.8125 33.546875 5.8125 39.890625 
Q 5.8125 47.609375 11.28125 51.796875 
Q 16.75 56 26.8125 56 
Q 31.78125 56 36.171875 55.265625 
Q 40.578125 54.546875 44.28125 53.078125 
z
" id="DejaVuSans-115"/>
     </defs>
     <g transform="translate(203.484375 280.276563)scale(0.1 -0.1)">
      <use xlink:href="#DejaVuSans-69"/>
      <use x="63.183594" xlink:href="#DejaVuSans-112"/>
      <use x="126.660156" xlink:href="#DejaVuSans-111"/>
      <use x="187.841797" xlink:href="#DejaVuSans-99"/>
      <use x="242.822266" xlink:href="#DejaVuSans-104"/>
      <use x="306.201172" xlink:href="#DejaVuSans-115"/>
     </g>
    </g>
   </g>
   <g id="matplotlib.axis_2">
    <g id="ytick_1">
     <g id="line2d_13">
      <path clip-path="url(#p44f0e75761)" d="M 54 230.214349 
L 388.8 230.214349 
" style="fill:none;stroke:#b0b0b0;stroke-dasharray:0.8,1.32;stroke-dashoffset:0;stroke-width:0.8;"/>
     </g>
     <g id="line2d_14">
      <defs>
       <path d="M 0 0 
L -3.5 0 
" id="m01876d54e0" style="stroke:#000000;stroke-width:0.8;"/>
      </defs>
      <g>
       <use style="stroke:#000000;stroke-width:0.8;" x="54" xlink:href="#m01876d54e0" y="230.214349"/>
      </g>
     </g>
     <g id="text_8">
      <!-- 0.8 -->
      <defs>
       <path d="M 10.6875 12.40625 
L 21 12.40625 
L 21 0 
L 10.6875 0 
z
" id="DejaVuSans-46"/>
       <path d="M 31.78125 34.625 
Q 24.75 34.625 20.71875 30.859375 
Q 16.703125 27.09375 16.703125 20.515625 
Q 16.703125 13.921875 20.71875 10.15625 
Q 24.75 6.390625 31.78125 6.390625 
Q 38.8125 6.390625 42.859375 10.171875 
Q 46.921875 13.96875 46.921875 20.515625 
Q 46.921875 27.09375 42.890625 30.859375 
Q 38.875 34.625 31.78125 34.625 
z
M 21.921875 38.8125 
Q 15.578125 40.375 12.03125 44.71875 
Q 8.5 49.078125 8.5 55.328125 
Q 8.5 64.0625 14.71875 69.140625 
Q 20.953125 74.21875 31.78125 74.21875 
Q 42.671875 74.21875 48.875 69.140625 
Q 55.078125 64.0625 55.078125 55.328125 
Q 55.078125 49.078125 51.53125 44.71875 
Q 48 40.375 41.703125 38.8125 
Q 48.828125 37.15625 52.796875 32.3125 
Q 56.78125 27.484375 56.78125 20.515625 
Q 56.78125 9.90625 50.3125 4.234375 
Q 43.84375 -1.421875 31.78125 -1.421875 
Q 19.734375 -1.421875 13.25 4.234375 
Q 6.78125 9.90625 6.78125 20.515625 
Q 6.78125 27.484375 10.78125 32.3125 
Q 14.796875 37.15625 21.921875 38.8125 
z
M 18.3125 54.390625 
Q 18.3125 48.734375 21.84375 45.5625 
Q 25.390625 42.390625 31.78125 42.390625 
Q 38.140625 42.390625 41.71875 45.5625 
Q 45.3125 48.734375 45.3125 54.390625 
Q 45.3125 60.0625 41.71875 63.234375 
Q 38.140625 66.40625 31.78125 66.40625 
Q 25.390625 66.40625 21.84375 63.234375 
Q 18.3125 60.0625 18.3125 54.390625 
z
" id="DejaVuSans-56"/>
      </defs>
      <g transform="translate(31.096875 234.013567)scale(0.1 -0.1)">
       <use xlink:href="#DejaVuSans-48"/>
       <use x="63.623047" xlink:href="#DejaVuSans-46"/>
       <use x="95.410156" xlink:href="#DejaVuSans-56"/>
      </g>
     </g>
    </g>
    <g id="ytick_2">
     <g id="line2d_15">
      <path clip-path="url(#p44f0e75761)" d="M 54 204.167482 
L 388.8 204.167482 
" style="fill:none;stroke:#b0b0b0;stroke-dasharray:0.8,1.32;stroke-dashoffset:0;stroke-width:0.8;"/>
     </g>
     <g id="line2d_16">
      <g>
       <use style="stroke:#000000;stroke-width:0.8;" x="54" xlink:href="#m01876d54e0" y="204.167482"/>
      </g>
     </g>
     <g id="text_9">
      <!-- 1.0 -->
      <g transform="translate(31.096875 207.9667)scale(0.1 -0.1)">
       <use xlink:href="#DejaVuSans-49"/>
       <use x="63.623047" xlink:href="#DejaVuSans-46"/>
       <use x="95.410156" xlink:href="#DejaVuSans-48"/>
      </g>
     </g>
    </g>
    <g id="ytick_3">
     <g id="line2d_17">
      <path clip-path="url(#p44f0e75761)" d="M 54 178.120615 
L 388.8 178.120615 
" style="fill:none;stroke:#b0b0b0;stroke-dasharray:0.8,1.32;stroke-dashoffset:0;stroke-width:0.8;"/>
     </g>
     <g id="line2d_18">
      <g>
       <use style="stroke:#000000;stroke-width:0.8;" x="54" xlink:href="#m01876d54e0" y="178.120615"/>
      </g>
     </g>
     <g id="text_10">
      <!-- 1.2 -->
      <g transform="translate(31.096875 181.919834)scale(0.1 -0.1)">
       <use xlink:href="#DejaVuSans-49"/>
       <use x="63.623047" xlink:href="#DejaVuSans-46"/>
       <use x="95.410156" xlink:href="#DejaVuSans-50"/>
      </g>
     </g>
    </g>
    <g id="ytick_4">
     <g id="line2d_19">
      <path clip-path="url(#p44f0e75761)" d="M 54 152.073748 
L 388.8 152.073748 
" style="fill:none;stroke:#b0b0b0;stroke-dasharray:0.8,1.32;stroke-dashoffset:0;stroke-width:0.8;"/>
     </g>
     <g id="line2d_20">
      <g>
       <use style="stroke:#000000;stroke-width:0.8;" x="54" xlink:href="#m01876d54e0" y="152.073748"/>
      </g>
     </g>
     <g id="text_11">
      <!-- 1.4 -->
      <defs>
       <path d="M 37.796875 64.3125 
L 12.890625 25.390625 
L 37.796875 25.390625 
z
M 35.203125 72.90625 
L 47.609375 72.90625 
L 47.609375 25.390625 
L 58.015625 25.390625 
L 58.015625 17.1875 
L 47.609375 17.1875 
L 47.609375 0 
L 37.796875 0 
L 37.796875 17.1875 
L 4.890625 17.1875 
L 4.890625 26.703125 
z
" id="DejaVuSans-52"/>
      </defs>
      <g transform="translate(31.096875 155.872967)scale(0.1 -0.1)">
       <use xlink:href="#DejaVuSans-49"/>
       <use x="63.623047" xlink:href="#DejaVuSans-46"/>
       <use x="95.410156" xlink:href="#DejaVuSans-52"/>
      </g>
     </g>
    </g>
    <g id="ytick_5">
     <g id="line2d_21">
      <path clip-path="url(#p44f0e75761)" d="M 54 126.026881 
L 388.8 126.026881 
" style="fill:none;stroke:#b0b0b0;stroke-dasharray:0.8,1.32;stroke-dashoffset:0;stroke-width:0.8;"/>
     </g>
     <g id="line2d_22">
      <g>
       <use style="stroke:#000000;stroke-width:0.8;" x="54" xlink:href="#m01876d54e0" y="126.026881"/>
      </g>
     </g>
     <g id="text_12">
      <!-- 1.6 -->
      <defs>
       <path d="M 33.015625 40.375 
Q 26.375 40.375 22.484375 35.828125 
Q 18.609375 31.296875 18.609375 23.390625 
Q 18.609375 15.53125 22.484375 10.953125 
Q 26.375 6.390625 33.015625 6.390625 
Q 39.65625 6.390625 43.53125 10.953125 
Q 47.40625 15.53125 47.40625 23.390625 
Q 47.40625 31.296875 43.53125 35.828125 
Q 39.65625 40.375 33.015625 40.375 
z
M 52.59375 71.296875 
L 52.59375 62.3125 
Q 48.875 64.0625 45.09375 64.984375 
Q 41.3125 65.921875 37.59375 65.921875 
Q 27.828125 65.921875 22.671875 59.328125 
Q 17.53125 52.734375 16.796875 39.40625 
Q 19.671875 43.65625 24.015625 45.921875 
Q 28.375 48.1875 33.59375 48.1875 
Q 44.578125 48.1875 50.953125 41.515625 
Q 57.328125 34.859375 57.328125 23.390625 
Q 57.328125 12.15625 50.6875 5.359375 
Q 44.046875 -1.421875 33.015625 -1.421875 
Q 20.359375 -1.421875 13.671875 8.265625 
Q 6.984375 17.96875 6.984375 36.375 
Q 6.984375 53.65625 15.1875 63.9375 
Q 23.390625 74.21875 37.203125 74.21875 
Q 40.921875 74.21875 44.703125 73.484375 
Q 48.484375 72.75 52.59375 71.296875 
z
" id="DejaVuSans-54"/>
      </defs>
      <g transform="translate(31.096875 129.8261)scale(0.1 -0.1)">
       <use xlink:href="#DejaVuSans-49"/>
       <use x="63.623047" xlink:href="#DejaVuSans-46"/>
       <use x="95.410156" xlink:href="#DejaVuSans-54"/>
      </g>
     </g>
    </g>
    <g id="ytick_6">
     <g id="line2d_23">
      <path clip-path="url(#p44f0e75761)" d="M 54 99.980014 
L 388.8 99.980014 
" style="fill:none;stroke:#b0b0b0;stroke-dasharray:0.8,1.32;stroke-dashoffset:0;stroke-width:0.8;"/>
     </g>
     <g id="line2d_24">
      <g>
       <use style="stroke:#000000;stroke-width:0.8;" x="54" xlink:href="#m01876d54e0" y="99.980014"/>
      </g>
     </g>
     <g id="text_13">
      <!-- 1.8 -->
      <g transform="translate(31.096875 103.779233)scale(0.1 -0.1)">
       <use xlink:href="#DejaVuSans-49"/>
       <use x="63.623047" xlink:href="#DejaVuSans-46"/>
       <use x="95.410156" xlink:href="#DejaVuSans-56"/>
      </g>
     </g>
    </g>
    <g id="ytick_7">
     <g id="line2d_25">
      <path clip-path="url(#p44f0e75761)" d="M 54 73.933148 
L 388.8 73.933148 
" style="fill:none;stroke:#b0b0b0;stroke-dasharray:0.8,1.32;stroke-dashoffset:0;stroke-width:0.8;"/>
     </g>
     <g id="line2d_26">
      <g>
       <use style="stroke:#000000;stroke-width:0.8;" x="54" xlink:href="#m01876d54e0" y="73.933148"/>
      </g>
     </g>
     <g id="text_14">
      <!-- 2.0 -->
      <g transform="translate(31.096875 77.732366)scale(0.1 -0.1)">
       <use xlink:href="#DejaVuSans-50"/>
       <use x="63.623047" xlink:href="#DejaVuSans-46"/>
       <use x="95.410156" xlink:href="#DejaVuSans-48"/>
      </g>
     </g>
    </g>
    <g id="ytick_8">
     <g id="line2d_27">
      <path clip-path="url(#p44f0e75761)" d="M 54 47.886281 
L 388.8 47.886281 
" style="fill:none;stroke:#b0b0b0;stroke-dasharray:0.8,1.32;stroke-dashoffset:0;stroke-width:0.8;"/>
     </g>
     <g id="line2d_28">
      <g>
       <use style="stroke:#000000;stroke-width:0.8;" x="54" xlink:href="#m01876d54e0" y="47.886281"/>
      </g>
     </g>
     <g id="text_15">
      <!-- 2.2 -->
      <g transform="translate(31.096875 51.6855)scale(0.1 -0.1)">
       <use xlink:href="#DejaVuSans-50"/>
       <use x="63.623047" xlink:href="#DejaVuSans-46"/>
       <use x="95.410156" xlink:href="#DejaVuSans-50"/>
      </g>
     </g>
    </g>
    <g id="text_16">
     <!-- Loss -->
     <defs>
      <path d="M 9.8125 72.90625 
L 19.671875 72.90625 
L 19.671875 8.296875 
L 55.171875 8.296875 
L 55.171875 0 
L 9.8125 0 
z
" id="DejaVuSans-76"/>
     </defs>
     <g transform="translate(25.017187 154.333906)rotate(-90)scale(0.1 -0.1)">
      <use xlink:href="#DejaVuSans-76"/>
      <use x="55.697266" xlink:href="#DejaVuSans-111"/>
      <use x="116.878906" xlink:href="#DejaVuSans-115"/>
      <use x="168.978516" xlink:href="#DejaVuSans-115"/>
     </g>
    </g>
   </g>
   <g id="line2d_29">
    <path clip-path="url(#p44f0e75761)" d="M 69.218182 132.162492 
L 70.49167 138.908275 
L 71.765158 132.287951 
L 73.038646 129.55315 
L 74.312134 88.771504 
L 75.585622 145.981856 
L 76.85911 124.760353 
L 78.132598 122.089702 
L 79.406086 123.561532 
L 80.679574 116.541265 
L 81.953062 119.243943 
L 83.22655 114.923669 
L 84.500038 137.854056 
L 85.773526 141.317606 
L 87.047014 113.530194 
L 88.320502 132.650711 
L 89.59399 130.706311 
L 90.867478 171.411558 
L 92.140966 110.454306 
L 93.414454 140.532345 
L 94.687942 140.785218 
L 95.96143 140.522719 
L 97.234918 149.130153 
L 98.508406 137.66926 
L 99.781894 151.732617 
L 101.055382 145.709219 
L 102.32887 143.542856 
L 103.602358 168.913097 
L 104.875846 126.275886 
L 106.149334 118.838458 
L 107.422822 119.624744 
L 108.69631 156.554556 
L 109.969798 143.156171 
L 111.243286 152.117315 
L 112.516774 178.094915 
L 113.790262 158.144439 
L 115.06375 151.700698 
L 116.337238 184.633064 
L 118.884215 173.926755 
L 120.157703 178.178238 
L 121.431191 153.157189 
L 122.704679 146.761575 
L 123.978167 145.173897 
L 125.251655 156.823746 
L 126.525143 154.891083 
L 127.798631 150.707368 
L 129.072119 168.285524 
L 130.345607 171.492755 
L 131.619095 149.154372 
L 132.892583 175.729054 
L 134.166071 156.000106 
L 135.439559 164.783456 
L 136.713047 140.686742 
L 137.986535 162.470799 
L 139.260023 192.521979 
L 140.533511 144.331394 
L 141.806999 193.635722 
L 143.080487 177.972297 
L 144.353975 178.000677 
L 145.627463 181.102616 
L 146.900951 153.244735 
L 148.174439 177.0837 
L 149.447927 169.457284 
L 150.721415 158.175629 
L 151.994903 166.695889 
L 153.268391 178.869386 
L 154.541879 113.779202 
L 155.815367 167.188393 
L 157.088855 153.061849 
L 158.362343 148.214418 
L 159.635831 157.962702 
L 160.909319 150.802925 
L 162.182807 155.781264 
L 163.456295 135.813074 
L 164.729783 146.406189 
L 166.003271 177.318099 
L 167.276759 161.032923 
L 168.550247 186.030017 
L 169.823735 158.973916 
L 171.097223 146.279473 
L 172.370711 149.426621 
L 173.644199 148.950636 
L 174.917687 153.001254 
L 176.191175 160.792268 
L 177.464663 191.275605 
L 178.738151 160.689693 
L 180.011639 146.997014 
L 181.285127 151.152691 
L 182.558615 208.236358 
L 183.832103 155.77687 
L 185.105591 156.255728 
L 186.379079 173.010679 
L 187.652568 160.173653 
L 188.926056 164.026077 
L 190.199544 157.380028 
L 191.473032 158.825341 
L 192.74652 159.42427 
L 194.020008 116.382147 
L 195.293496 170.325745 
L 196.566984 168.034157 
L 197.840472 139.500746 
L 199.11396 162.770078 
L 200.387448 181.627738 
L 201.660936 155.959834 
L 202.934424 168.973459 
L 204.207912 161.075726 
L 205.4814 168.678233 
L 206.754888 174.886706 
L 208.028376 149.024116 
L 209.301864 164.062344 
L 210.575352 160.969766 
L 211.84884 175.738555 
L 213.122328 172.568631 
L 214.395816 140.859165 
L 215.669304 159.131885 
L 216.942792 171.542264 
L 218.21628 157.117854 
L 219.489768 160.795124 
L 220.763256 171.06822 
L 222.036744 179.037927 
L 223.310232 164.5657 
L 224.58372 198.318648 
L 225.857208 159.829848 
L 227.130696 172.171809 
L 228.404184 180.711848 
L 229.677672 152.093949 
L 230.95116 185.367683 
L 232.224648 189.588938 
L 233.498136 165.398034 
L 234.771624 147.752204 
L 236.045112 151.634607 
L 237.3186 177.609335 
L 238.592088 173.336738 
L 239.865576 161.355551 
L 241.139064 192.688176 
L 242.412552 190.990502 
L 243.68604 191.79874 
L 244.959528 168.418683 
L 246.233016 181.004016 
L 247.506504 164.647222 
L 248.779992 156.083523 
L 250.05348 160.938965 
L 251.326968 179.423805 
L 252.600456 149.66296 
L 253.873944 143.223411 
L 255.147432 206.223678 
L 256.420921 146.718648 
L 257.694409 177.234263 
L 258.967897 122.117787 
L 260.241385 173.067905 
L 261.514873 158.477577 
L 262.788361 166.663224 
L 264.061849 157.706506 
L 265.335337 135.020267 
L 266.608825 133.698441 
L 267.882313 197.379579 
L 269.155801 184.267665 
L 270.429289 150.502079 
L 271.702777 168.513682 
L 272.976265 147.737439 
L 274.249753 166.197097 
L 275.523241 168.068871 
L 276.796729 166.263747 
L 278.070217 150.172278 
L 279.343705 142.67438 
L 280.617193 184.035455 
L 281.890681 165.177949 
L 283.164169 183.430564 
L 284.437657 209.956334 
L 285.711145 168.454966 
L 286.984633 178.871311 
L 288.258121 198.47747 
L 289.531609 171.10017 
L 290.805097 174.909745 
L 292.078585 175.100565 
L 293.352073 171.665829 
L 294.625561 171.94244 
L 295.899049 148.304635 
L 297.172537 110.452987 
L 298.446025 164.496209 
L 299.719513 148.565628 
L 300.993001 176.691349 
L 302.266489 138.715422 
L 303.539977 198.322126 
L 304.813465 191.964782 
L 306.086953 157.916018 
L 307.360441 172.277023 
L 308.633929 156.433786 
L 309.907417 174.182827 
L 311.180905 153.723267 
L 312.454393 171.377931 
L 313.727881 154.992431 
L 315.001369 161.982487 
L 316.274857 137.043954 
L 317.548345 166.425364 
L 318.821833 155.900357 
L 320.095321 154.874859 
L 321.368809 149.100127 
L 322.642297 170.545348 
L 323.915785 163.066064 
L 325.189273 145.285973 
L 326.462762 163.836795 
L 327.73625 148.045411 
L 329.009738 157.499649 
L 330.283226 138.155135 
L 331.556714 143.89787 
L 332.830202 130.277026 
L 334.10369 172.493272 
L 335.377178 190.691161 
L 336.650666 176.0002 
L 339.197642 132.163299 
L 340.47113 133.730159 
L 341.744618 181.552643 
L 343.018106 160.925147 
L 344.291594 177.8859 
L 345.565082 159.98923 
L 346.83857 161.390591 
L 348.112058 152.815434 
L 349.385546 139.60759 
L 350.659034 161.376898 
L 351.932522 167.997455 
L 353.20601 169.684433 
L 354.479498 148.485285 
L 355.752986 187.0879 
L 357.026474 162.360524 
L 358.299962 189.901071 
L 359.57345 140.628787 
L 360.846938 142.973192 
L 362.120426 168.497613 
L 363.393914 148.204544 
L 364.667402 162.776893 
L 365.94089 128.230331 
L 367.214378 180.832308 
L 368.487866 183.668254 
L 369.761354 199.286563 
L 371.034842 199.35579 
L 372.30833 167.012571 
L 373.581818 198.405682 
L 373.581818 198.405682 
" style="fill:none;stroke:#ff0000;stroke-linecap:square;stroke-width:1.5;"/>
   </g>
   <g id="line2d_30">
    <path clip-path="url(#p44f0e75761)" d="M 69.218182 46.152955 
L 70.49167 90.207751 
L 71.765158 75.227168 
L 73.038646 107.435287 
L 74.312134 95.912092 
L 75.585622 99.32885 
L 76.85911 93.831661 
L 78.132598 98.999111 
L 79.406086 130.085973 
L 80.679574 116.117118 
L 81.953062 119.13061 
L 83.22655 78.098171 
L 84.500038 107.415105 
L 85.773526 102.525476 
L 87.047014 108.709032 
L 88.320502 114.177872 
L 89.59399 108.623488 
L 90.867478 156.820967 
L 92.140966 105.608118 
L 93.414454 158.195439 
L 94.687942 145.496618 
L 95.96143 108.64187 
L 97.234918 116.98415 
L 98.508406 133.616111 
L 99.781894 137.593575 
L 101.055382 127.579035 
L 102.32887 121.58262 
L 103.602358 160.67114 
L 104.875846 124.136413 
L 106.149334 126.590643 
L 107.422822 134.691786 
L 108.69631 133.295579 
L 109.969798 151.779379 
L 111.243286 156.973253 
L 112.516774 134.081369 
L 113.790262 154.190698 
L 115.06375 160.836406 
L 116.337238 169.145726 
L 117.610727 149.687024 
L 118.884215 145.888395 
L 120.157703 152.790283 
L 121.431191 177.311656 
L 122.704679 149.08319 
L 123.978167 174.739326 
L 125.251655 138.720669 
L 127.798631 155.370205 
L 130.345607 157.476454 
L 131.619095 154.196318 
L 132.892583 146.444707 
L 134.166071 150.604467 
L 135.439559 169.137715 
L 136.713047 167.74705 
L 137.986535 123.173155 
L 139.260023 115.674247 
L 140.533511 185.405347 
L 141.806999 176.548284 
L 143.080487 148.657319 
L 144.353975 160.440654 
L 145.627463 160.47807 
L 146.900951 160.332071 
L 148.174439 160.692845 
L 149.447927 157.02666 
L 150.721415 177.545278 
L 151.994903 183.324636 
L 153.268391 175.297393 
L 154.541879 148.039807 
L 155.815367 169.031942 
L 157.088855 136.915934 
L 158.362343 151.686352 
L 159.635831 175.875068 
L 160.909319 179.421678 
L 162.182807 133.717878 
L 163.456295 179.658141 
L 164.729783 175.114087 
L 166.003271 165.138966 
L 167.276759 146.74678 
L 168.550247 172.512415 
L 169.823735 159.620306 
L 171.097223 152.248254 
L 172.370711 164.39646 
L 173.644199 133.374571 
L 174.917687 151.99139 
L 176.191175 160.209562 
L 177.464663 157.137711 
L 178.738151 164.76127 
L 180.011639 155.087647 
L 181.285127 160.426154 
L 182.558615 149.858857 
L 183.832103 160.715092 
L 185.105591 165.253557 
L 186.379079 171.70916 
L 187.652568 129.416048 
L 188.926056 161.614898 
L 190.199544 152.881105 
L 191.473032 153.388296 
L 192.74652 177.004289 
L 194.020008 164.656631 
L 195.293496 150.4789 
L 196.566984 139.894184 
L 197.840472 157.434847 
L 199.11396 169.25479 
L 201.660936 133.375037 
L 202.934424 168.362343 
L 204.207912 140.668097 
L 205.4814 162.818392 
L 206.754888 162.444391 
L 208.028376 130.199384 
L 209.301864 195.783066 
L 210.575352 169.923349 
L 211.84884 156.260603 
L 213.122328 167.442913 
L 214.395816 165.70242 
L 215.669304 136.214337 
L 216.942792 173.220548 
L 218.21628 161.271203 
L 219.489768 155.461539 
L 220.763256 140.220383 
L 222.036744 150.636558 
L 223.310232 170.430788 
L 224.58372 159.711547 
L 225.857208 164.577453 
L 227.130696 140.205851 
L 228.404184 152.498441 
L 229.677672 142.87675 
L 230.95116 165.453987 
L 232.224648 173.473887 
L 233.498136 132.761235 
L 234.771624 151.120104 
L 236.045112 166.540529 
L 237.3186 174.527035 
L 238.592088 187.356469 
L 239.865576 149.849029 
L 241.139064 134.010931 
L 242.412552 146.136269 
L 243.68604 171.799112 
L 244.959528 151.824542 
L 246.233016 166.647311 
L 247.506504 147.01552 
L 248.779992 131.907305 
L 250.05348 162.38996 
L 251.326968 161.855786 
L 252.600456 134.680049 
L 253.873944 162.239366 
L 255.147432 121.690178 
L 256.420921 146.768142 
L 257.694409 167.450132 
L 258.967897 164.46429 
L 260.241385 174.082938 
L 261.514873 136.121046 
L 262.788361 164.965643 
L 264.061849 171.933979 
L 265.335337 138.037594 
L 266.608825 169.213493 
L 267.882313 152.298369 
L 269.155801 161.965549 
L 270.429289 151.08157 
L 271.702777 166.751392 
L 272.976265 153.892879 
L 274.249753 170.043746 
L 275.523241 164.26001 
L 276.796729 156.447044 
L 278.070217 152.630126 
L 279.343705 161.890501 
L 280.617193 155.462253 
L 281.890681 153.395236 
L 283.164169 183.388553 
L 284.437657 172.014803 
L 285.711145 168.018895 
L 286.984633 169.804908 
L 288.258121 145.962605 
L 289.531609 179.045317 
L 290.805097 171.900755 
L 292.078585 160.914963 
L 293.352073 170.873985 
L 294.625561 175.59355 
L 295.899049 153.226198 
L 297.172537 154.483346 
L 298.446025 134.186334 
L 299.719513 128.640194 
L 300.993001 121.115344 
L 302.266489 132.656393 
L 303.539977 151.894669 
L 304.813465 163.267224 
L 306.086953 158.989954 
L 307.360441 153.017478 
L 308.633929 145.412518 
L 309.907417 147.146785 
L 311.180905 126.581995 
L 312.454393 130.599545 
L 313.727881 154.936184 
L 315.001369 153.981776 
L 316.274857 179.92907 
L 317.548345 164.337729 
L 318.821833 178.348937 
L 320.095321 161.53586 
L 321.368809 136.239131 
L 322.642297 141.191247 
L 323.915785 150.686129 
L 325.189273 166.410568 
L 326.462762 161.613035 
L 327.73625 138.163317 
L 329.009738 163.208818 
L 330.283226 141.905342 
L 331.556714 174.205618 
L 332.830202 151.715214 
L 334.10369 150.948877 
L 335.377178 167.418321 
L 336.650666 179.258555 
L 337.924154 161.908649 
L 339.197642 169.175674 
L 340.47113 147.180645 
L 341.744618 151.728612 
L 343.018106 185.407753 
L 344.291594 119.847561 
L 345.565082 157.446724 
L 346.83857 174.016755 
L 348.112058 165.056093 
L 349.385546 165.093322 
L 350.659034 159.308359 
L 351.932522 169.846251 
L 353.20601 168.552727 
L 354.479498 162.472911 
L 355.752986 166.773608 
L 357.026474 140.275078 
L 358.299962 149.385976 
L 359.57345 133.668602 
L 360.846938 144.463 
L 362.120426 157.198135 
L 363.393914 155.577403 
L 364.667402 164.727845 
L 365.94089 150.297628 
L 367.214378 150.678522 
L 368.487866 175.132329 
L 369.761354 103.512565 
L 371.034842 152.683781 
L 372.30833 159.047366 
L 373.581818 178.195409 
L 373.581818 178.195409 
" style="fill:none;stroke:#008000;stroke-linecap:square;stroke-width:1.5;"/>
   </g>
   <g id="line2d_31">
    <path clip-path="url(#p44f0e75761)" d="M 69.218182 48.407143 
L 70.49167 74.045658 
L 71.765158 87.691606 
L 73.038646 66.749664 
L 74.312134 108.157563 
L 75.585622 44.443636 
L 76.85911 62.8155 
L 78.132598 138.229283 
L 79.406086 97.726934 
L 80.679574 81.221783 
L 81.953062 126.784785 
L 83.22655 112.25291 
L 84.500038 135.864509 
L 85.773526 133.366669 
L 87.047014 107.790611 
L 88.320502 120.605467 
L 89.59399 86.860142 
L 90.867478 180.313659 
L 92.140966 90.440876 
L 93.414454 116.430648 
L 94.687942 135.101572 
L 95.96143 136.634028 
L 97.234918 161.089683 
L 98.508406 130.79423 
L 99.781894 158.736568 
L 101.055382 164.34796 
L 102.32887 127.621031 
L 103.602358 163.763966 
L 104.875846 151.245128 
L 106.149334 137.42196 
L 107.422822 153.811993 
L 108.69631 161.846642 
L 109.969798 153.889556 
L 111.243286 142.16368 
L 112.516774 145.606644 
L 113.790262 160.579371 
L 115.06375 206.81625 
L 116.337238 142.874468 
L 117.610727 185.501339 
L 118.884215 143.656982 
L 120.157703 144.640204 
L 121.431191 143.73987 
L 122.704679 148.585655 
L 123.978167 141.376757 
L 125.251655 161.42383 
L 126.525143 152.250179 
L 127.798631 170.891109 
L 129.072119 179.283768 
L 130.345607 184.328725 
L 131.619095 134.373987 
L 132.892583 168.881829 
L 134.166071 166.910571 
L 135.439559 156.351642 
L 136.713047 169.375374 
L 137.986535 167.017073 
L 139.260023 131.353446 
L 140.533511 173.344097 
L 141.806999 96.610288 
L 143.080487 149.928689 
L 144.353975 151.437484 
L 145.627463 176.815472 
L 146.900951 188.780948 
L 148.174439 141.771437 
L 149.447927 144.293264 
L 150.721415 130.402003 
L 151.994903 110.125841 
L 153.268391 156.341163 
L 154.541879 138.134285 
L 155.815367 126.452298 
L 157.088855 161.980546 
L 158.362343 173.738544 
L 159.635831 191.127247 
L 160.909319 193.744553 
L 162.182807 146.014412 
L 163.456295 145.235795 
L 164.729783 161.221988 
L 166.003271 157.821128 
L 167.276759 161.890733 
L 168.550247 192.762929 
L 169.823735 185.716145 
L 171.097223 177.467233 
L 172.370711 181.761969 
L 173.644199 173.345013 
L 174.917687 141.945055 
L 176.191175 124.383961 
L 177.464663 102.56682 
L 178.738151 158.72334 
L 180.011639 107.599745 
L 181.285127 200.073983 
L 182.558615 172.201586 
L 183.832103 157.004599 
L 185.105591 182.804249 
L 186.379079 152.888619 
L 187.652568 159.366035 
L 188.926056 198.927187 
L 190.199544 150.721418 
L 191.473032 173.417034 
L 192.74652 142.456779 
L 194.020008 144.939529 
L 195.293496 126.454037 
L 196.566984 164.346858 
L 197.840472 194.457685 
L 199.11396 126.227184 
L 200.387448 164.07554 
L 201.660936 198.288607 
L 202.934424 160.115418 
L 204.207912 154.329166 
L 205.4814 182.408156 
L 206.754888 197.025031 
L 208.028376 140.731952 
L 209.301864 123.644964 
L 210.575352 166.209331 
L 211.84884 179.276782 
L 214.395816 142.023752 
L 215.669304 220.082787 
L 216.942792 193.62206 
L 218.21628 115.143614 
L 219.489768 173.029278 
L 220.763256 171.506634 
L 222.036744 148.472896 
L 223.310232 139.019575 
L 224.58372 166.135758 
L 225.857208 131.331819 
L 227.130696 164.461557 
L 228.404184 242.116364 
L 229.677672 189.289722 
L 232.224648 133.246473 
L 233.498136 164.6745 
L 234.771624 155.476443 
L 236.045112 159.376064 
L 237.3186 177.123646 
L 238.592088 142.125038 
L 239.865576 158.408366 
L 241.139064 140.522968 
L 242.412552 129.169167 
L 243.68604 149.468415 
L 244.959528 150.944561 
L 246.233016 154.859055 
L 247.506504 179.800445 
L 248.779992 141.052623 
L 250.05348 174.171804 
L 251.326968 180.455373 
L 252.600456 188.122589 
L 253.873944 191.446894 
L 255.147432 151.245842 
L 256.420921 170.34984 
L 257.694409 127.195223 
L 258.967897 131.429643 
L 260.241385 137.687735 
L 261.514873 174.000236 
L 262.788361 167.726138 
L 264.061849 199.453226 
L 266.608825 142.2432 
L 267.882313 155.977269 
L 269.155801 171.665751 
L 270.429289 188.812091 
L 271.702777 167.132611 
L 272.976265 177.734747 
L 274.249753 175.991025 
L 275.523241 154.249879 
L 276.796729 228.189379 
L 278.070217 153.191003 
L 279.343705 133.124321 
L 280.617193 174.992122 
L 281.890681 128.129371 
L 283.164169 152.622953 
L 284.437657 115.825524 
L 285.711145 164.070588 
L 286.984633 148.799312 
L 288.258121 186.736271 
L 289.531609 166.565913 
L 290.805097 140.979919 
L 292.078585 177.177223 
L 293.352073 170.901914 
L 294.625561 202.219418 
L 295.899049 179.82263 
L 297.172537 162.987693 
L 298.446025 142.989136 
L 299.719513 136.182324 
L 300.993001 181.02173 
L 302.266489 175.695116 
L 303.539977 155.283435 
L 304.813465 204.805154 
L 306.086953 151.872188 
L 307.360441 176.103567 
L 308.633929 155.753909 
L 309.907417 157.129405 
L 311.180905 165.50123 
L 312.454393 131.52992 
L 313.727881 141.843288 
L 315.001369 141.789928 
L 316.274857 173.00481 
L 318.821833 126.397479 
L 320.095321 183.15903 
L 321.368809 134.021209 
L 322.642297 133.40323 
L 323.915785 150.608255 
L 325.189273 149.34839 
L 326.462762 162.337205 
L 327.73625 172.022659 
L 329.009738 189.783065 
L 330.283226 165.129496 
L 331.556714 125.625041 
L 332.830202 164.373701 
L 334.10369 131.681772 
L 335.377178 148.430808 
L 336.650666 162.467865 
L 337.924154 208.190729 
L 339.197642 156.58913 
L 340.47113 195.174978 
L 341.744618 155.720809 
L 343.018106 146.502166 
L 344.291594 116.593351 
L 345.565082 180.478008 
L 346.83857 149.466148 
L 348.112058 153.909087 
L 349.385546 168.110385 
L 350.659034 88.372151 
L 351.932522 209.255599 
L 353.20601 161.653866 
L 354.479498 133.197445 
L 355.752986 179.4692 
L 357.026474 194.626257 
L 358.299962 155.323334 
L 359.57345 206.420459 
L 360.846938 170.441439 
L 362.120426 149.821426 
L 363.393914 161.258457 
L 364.667402 122.529824 
L 365.94089 179.21954 
L 367.214378 132.922479 
L 368.487866 157.605096 
L 369.761354 145.619468 
L 371.034842 158.587418 
L 372.30833 162.540709 
L 373.581818 152.405617 
L 373.581818 152.405617 
" style="fill:none;stroke:#4363d8;stroke-linecap:square;stroke-width:1.5;"/>
   </g>
   <g id="patch_3">
    <path d="M 54 252 
L 54 34.56 
" style="fill:none;stroke:#000000;stroke-linecap:square;stroke-linejoin:miter;stroke-width:0.8;"/>
   </g>
   <g id="patch_4">
    <path d="M 388.8 252 
L 388.8 34.56 
" style="fill:none;stroke:#000000;stroke-linecap:square;stroke-linejoin:miter;stroke-width:0.8;"/>
   </g>
   <g id="patch_5">
    <path d="M 54 252 
L 388.8 252 
" style="fill:none;stroke:#000000;stroke-linecap:square;stroke-linejoin:miter;stroke-width:0.8;"/>
   </g>
   <g id="patch_6">
    <path d="M 54 34.56 
L 388.8 34.56 
" style="fill:none;stroke:#000000;stroke-linecap:square;stroke-linejoin:miter;stroke-width:0.8;"/>
   </g>
   <g id="text_17">
    <!-- 2 layer NN Train Loss for different settings -->
    <defs>
     <path id="DejaVuSans-32"/>
     <path d="M 9.421875 75.984375 
L 18.40625 75.984375 
L 18.40625 0 
L 9.421875 0 
z
" id="DejaVuSans-108"/>
     <path d="M 34.28125 27.484375 
Q 23.390625 27.484375 19.1875 25 
Q 14.984375 22.515625 14.984375 16.5 
Q 14.984375 11.71875 18.140625 8.90625 
Q 21.296875 6.109375 26.703125 6.109375 
Q 34.1875 6.109375 38.703125 11.40625 
Q 43.21875 16.703125 43.21875 25.484375 
L 43.21875 27.484375 
z
M 52.203125 31.203125 
L 52.203125 0 
L 43.21875 0 
L 43.21875 8.296875 
Q 40.140625 3.328125 35.546875 0.953125 
Q 30.953125 -1.421875 24.3125 -1.421875 
Q 15.921875 -1.421875 10.953125 3.296875 
Q 6 8.015625 6 15.921875 
Q 6 25.140625 12.171875 29.828125 
Q 18.359375 34.515625 30.609375 34.515625 
L 43.21875 34.515625 
L 43.21875 35.40625 
Q 43.21875 41.609375 39.140625 45 
Q 35.0625 48.390625 27.6875 48.390625 
Q 23 48.390625 18.546875 47.265625 
Q 14.109375 46.140625 10.015625 43.890625 
L 10.015625 52.203125 
Q 14.9375 54.109375 19.578125 55.046875 
Q 24.21875 56 28.609375 56 
Q 40.484375 56 46.34375 49.84375 
Q 52.203125 43.703125 52.203125 31.203125 
z
" id="DejaVuSans-97"/>
     <path d="M 32.171875 -5.078125 
Q 28.375 -14.84375 24.75 -17.8125 
Q 21.140625 -20.796875 15.09375 -20.796875 
L 7.90625 -20.796875 
L 7.90625 -13.28125 
L 13.1875 -13.28125 
Q 16.890625 -13.28125 18.9375 -11.515625 
Q 21 -9.765625 23.484375 -3.21875 
L 25.09375 0.875 
L 2.984375 54.6875 
L 12.5 54.6875 
L 29.59375 11.921875 
L 46.6875 54.6875 
L 56.203125 54.6875 
z
" id="DejaVuSans-121"/>
     <path d="M 56.203125 29.59375 
L 56.203125 25.203125 
L 14.890625 25.203125 
Q 15.484375 15.921875 20.484375 11.0625 
Q 25.484375 6.203125 34.421875 6.203125 
Q 39.59375 6.203125 44.453125 7.46875 
Q 49.3125 8.734375 54.109375 11.28125 
L 54.109375 2.78125 
Q 49.265625 0.734375 44.1875 -0.34375 
Q 39.109375 -1.421875 33.890625 -1.421875 
Q 20.796875 -1.421875 13.15625 6.1875 
Q 5.515625 13.8125 5.515625 26.8125 
Q 5.515625 40.234375 12.765625 48.109375 
Q 20.015625 56 32.328125 56 
Q 43.359375 56 49.78125 48.890625 
Q 56.203125 41.796875 56.203125 29.59375 
z
M 47.21875 32.234375 
Q 47.125 39.59375 43.09375 43.984375 
Q 39.0625 48.390625 32.421875 48.390625 
Q 24.90625 48.390625 20.390625 44.140625 
Q 15.875 39.890625 15.1875 32.171875 
z
" id="DejaVuSans-101"/>
     <path d="M 41.109375 46.296875 
Q 39.59375 47.171875 37.8125 47.578125 
Q 36.03125 48 33.890625 48 
Q 26.265625 48 22.1875 43.046875 
Q 18.109375 38.09375 18.109375 28.8125 
L 18.109375 0 
L 9.078125 0 
L 9.078125 54.6875 
L 18.109375 54.6875 
L 18.109375 46.1875 
Q 20.953125 51.171875 25.484375 53.578125 
Q 30.03125 56 36.53125 56 
Q 37.453125 56 38.578125 55.875 
Q 39.703125 55.765625 41.0625 55.515625 
z
" id="DejaVuSans-114"/>
     <path d="M 9.8125 72.90625 
L 23.09375 72.90625 
L 55.421875 11.921875 
L 55.421875 72.90625 
L 64.984375 72.90625 
L 64.984375 0 
L 51.703125 0 
L 19.390625 60.984375 
L 19.390625 0 
L 9.8125 0 
z
" id="DejaVuSans-78"/>
     <path d="M -0.296875 72.90625 
L 61.375 72.90625 
L 61.375 64.59375 
L 35.5 64.59375 
L 35.5 0 
L 25.59375 0 
L 25.59375 64.59375 
L -0.296875 64.59375 
z
" id="DejaVuSans-84"/>
     <path d="M 9.421875 54.6875 
L 18.40625 54.6875 
L 18.40625 0 
L 9.421875 0 
z
M 9.421875 75.984375 
L 18.40625 75.984375 
L 18.40625 64.59375 
L 9.421875 64.59375 
z
" id="DejaVuSans-105"/>
     <path d="M 54.890625 33.015625 
L 54.890625 0 
L 45.90625 0 
L 45.90625 32.71875 
Q 45.90625 40.484375 42.875 44.328125 
Q 39.84375 48.1875 33.796875 48.1875 
Q 26.515625 48.1875 22.3125 43.546875 
Q 18.109375 38.921875 18.109375 30.90625 
L 18.109375 0 
L 9.078125 0 
L 9.078125 54.6875 
L 18.109375 54.6875 
L 18.109375 46.1875 
Q 21.34375 51.125 25.703125 53.5625 
Q 30.078125 56 35.796875 56 
Q 45.21875 56 50.046875 50.171875 
Q 54.890625 44.34375 54.890625 33.015625 
z
" id="DejaVuSans-110"/>
     <path d="M 37.109375 75.984375 
L 37.109375 68.5 
L 28.515625 68.5 
Q 23.6875 68.5 21.796875 66.546875 
Q 19.921875 64.59375 19.921875 59.515625 
L 19.921875 54.6875 
L 34.71875 54.6875 
L 34.71875 47.703125 
L 19.921875 47.703125 
L 19.921875 0 
L 10.890625 0 
L 10.890625 47.703125 
L 2.296875 47.703125 
L 2.296875 54.6875 
L 10.890625 54.6875 
L 10.890625 58.5 
Q 10.890625 67.625 15.140625 71.796875 
Q 19.390625 75.984375 28.609375 75.984375 
z
" id="DejaVuSans-102"/>
     <path d="M 45.40625 46.390625 
L 45.40625 75.984375 
L 54.390625 75.984375 
L 54.390625 0 
L 45.40625 0 
L 45.40625 8.203125 
Q 42.578125 3.328125 38.25 0.953125 
Q 33.9375 -1.421875 27.875 -1.421875 
Q 17.96875 -1.421875 11.734375 6.484375 
Q 5.515625 14.40625 5.515625 27.296875 
Q 5.515625 40.1875 11.734375 48.09375 
Q 17.96875 56 27.875 56 
Q 33.9375 56 38.25 53.625 
Q 42.578125 51.265625 45.40625 46.390625 
z
M 14.796875 27.296875 
Q 14.796875 17.390625 18.875 11.75 
Q 22.953125 6.109375 30.078125 6.109375 
Q 37.203125 6.109375 41.296875 11.75 
Q 45.40625 17.390625 45.40625 27.296875 
Q 45.40625 37.203125 41.296875 42.84375 
Q 37.203125 48.484375 30.078125 48.484375 
Q 22.953125 48.484375 18.875 42.84375 
Q 14.796875 37.203125 14.796875 27.296875 
z
" id="DejaVuSans-100"/>
     <path d="M 18.3125 70.21875 
L 18.3125 54.6875 
L 36.8125 54.6875 
L 36.8125 47.703125 
L 18.3125 47.703125 
L 18.3125 18.015625 
Q 18.3125 11.328125 20.140625 9.421875 
Q 21.96875 7.515625 27.59375 7.515625 
L 36.8125 7.515625 
L 36.8125 0 
L 27.59375 0 
Q 17.1875 0 13.234375 3.875 
Q 9.28125 7.765625 9.28125 18.015625 
L 9.28125 47.703125 
L 2.6875 47.703125 
L 2.6875 54.6875 
L 9.28125 54.6875 
L 9.28125 70.21875 
z
" id="DejaVuSans-116"/>
     <path d="M 45.40625 27.984375 
Q 45.40625 37.75 41.375 43.109375 
Q 37.359375 48.484375 30.078125 48.484375 
Q 22.859375 48.484375 18.828125 43.109375 
Q 14.796875 37.75 14.796875 27.984375 
Q 14.796875 18.265625 18.828125 12.890625 
Q 22.859375 7.515625 30.078125 7.515625 
Q 37.359375 7.515625 41.375 12.890625 
Q 45.40625 18.265625 45.40625 27.984375 
z
M 54.390625 6.78125 
Q 54.390625 -7.171875 48.1875 -13.984375 
Q 42 -20.796875 29.203125 -20.796875 
Q 24.46875 -20.796875 20.265625 -20.09375 
Q 16.0625 -19.390625 12.109375 -17.921875 
L 12.109375 -9.1875 
Q 16.0625 -11.328125 19.921875 -12.34375 
Q 23.78125 -13.375 27.78125 -13.375 
Q 36.625 -13.375 41.015625 -8.765625 
Q 45.40625 -4.15625 45.40625 5.171875 
L 45.40625 9.625 
Q 42.625 4.78125 38.28125 2.390625 
Q 33.9375 0 27.875 0 
Q 17.828125 0 11.671875 7.65625 
Q 5.515625 15.328125 5.515625 27.984375 
Q 5.515625 40.671875 11.671875 48.328125 
Q 17.828125 56 27.875 56 
Q 33.9375 56 38.28125 53.609375 
Q 42.625 51.21875 45.40625 46.390625 
L 45.40625 54.6875 
L 54.390625 54.6875 
z
" id="DejaVuSans-103"/>
    </defs>
    <g transform="translate(61.89375 28.56)scale(0.15 -0.15)">
     <use xlink:href="#DejaVuSans-50"/>
     <use x="63.623047" xlink:href="#DejaVuSans-32"/>
     <use x="95.410156" xlink:href="#DejaVuSans-108"/>
     <use x="123.193359" xlink:href="#DejaVuSans-97"/>
     <use x="184.472656" xlink:href="#DejaVuSans-121"/>
     <use x="243.652344" xlink:href="#DejaVuSans-101"/>
     <use x="305.175781" xlink:href="#DejaVuSans-114"/>
     <use x="346.289062" xlink:href="#DejaVuSans-32"/>
     <use x="378.076172" xlink:href="#DejaVuSans-78"/>
     <use x="452.880859" xlink:href="#DejaVuSans-78"/>
     <use x="527.685547" xlink:href="#DejaVuSans-32"/>
     <use x="559.472656" xlink:href="#DejaVuSans-84"/>
     <use x="620.337891" xlink:href="#DejaVuSans-114"/>
     <use x="661.451172" xlink:href="#DejaVuSans-97"/>
     <use x="722.730469" xlink:href="#DejaVuSans-105"/>
     <use x="750.513672" xlink:href="#DejaVuSans-110"/>
     <use x="813.892578" xlink:href="#DejaVuSans-32"/>
     <use x="845.679688" xlink:href="#DejaVuSans-76"/>
     <use x="901.376953" xlink:href="#DejaVuSans-111"/>
     <use x="962.558594" xlink:href="#DejaVuSans-115"/>
     <use x="1014.658203" xlink:href="#DejaVuSans-115"/>
     <use x="1066.757812" xlink:href="#DejaVuSans-32"/>
     <use x="1098.544922" xlink:href="#DejaVuSans-102"/>
     <use x="1133.75" xlink:href="#DejaVuSans-111"/>
     <use x="1194.931641" xlink:href="#DejaVuSans-114"/>
     <use x="1236.044922" xlink:href="#DejaVuSans-32"/>
     <use x="1267.832031" xlink:href="#DejaVuSans-100"/>
     <use x="1331.308594" xlink:href="#DejaVuSans-105"/>
     <use x="1359.091797" xlink:href="#DejaVuSans-102"/>
     <use x="1394.296875" xlink:href="#DejaVuSans-102"/>
     <use x="1429.501953" xlink:href="#DejaVuSans-101"/>
     <use x="1491.025391" xlink:href="#DejaVuSans-114"/>
     <use x="1532.107422" xlink:href="#DejaVuSans-101"/>
     <use x="1593.630859" xlink:href="#DejaVuSans-110"/>
     <use x="1657.009766" xlink:href="#DejaVuSans-116"/>
     <use x="1696.21875" xlink:href="#DejaVuSans-32"/>
     <use x="1728.005859" xlink:href="#DejaVuSans-115"/>
     <use x="1780.105469" xlink:href="#DejaVuSans-101"/>
     <use x="1841.628906" xlink:href="#DejaVuSans-116"/>
     <use x="1880.837891" xlink:href="#DejaVuSans-116"/>
     <use x="1920.046875" xlink:href="#DejaVuSans-105"/>
     <use x="1947.830078" xlink:href="#DejaVuSans-110"/>
     <use x="2011.208984" xlink:href="#DejaVuSans-103"/>
     <use x="2074.685547" xlink:href="#DejaVuSans-115"/>
    </g>
   </g>
   <g id="legend_1">
    <g id="patch_7">
     <path d="M 331.284375 86.594375 
L 381.8 86.594375 
Q 383.8 86.594375 383.8 84.594375 
L 383.8 41.56 
Q 383.8 39.56 381.8 39.56 
L 331.284375 39.56 
Q 329.284375 39.56 329.284375 41.56 
L 329.284375 84.594375 
Q 329.284375 86.594375 331.284375 86.594375 
z
" style="fill:#ffffff;opacity:0.8;stroke:#cccccc;stroke-linejoin:miter;"/>
    </g>
    <g id="line2d_32">
     <path d="M 333.284375 47.658438 
L 353.284375 47.658438 
" style="fill:none;stroke:#ff0000;stroke-linecap:square;stroke-width:1.5;"/>
    </g>
    <g id="line2d_33"/>
    <g id="text_18">
     <!-- 49k -->
     <defs>
      <path d="M 10.984375 1.515625 
L 10.984375 10.5 
Q 14.703125 8.734375 18.5 7.8125 
Q 22.3125 6.890625 25.984375 6.890625 
Q 35.75 6.890625 40.890625 13.453125 
Q 46.046875 20.015625 46.78125 33.40625 
Q 43.953125 29.203125 39.59375 26.953125 
Q 35.25 24.703125 29.984375 24.703125 
Q 19.046875 24.703125 12.671875 31.3125 
Q 6.296875 37.9375 6.296875 49.421875 
Q 6.296875 60.640625 12.9375 67.421875 
Q 19.578125 74.21875 30.609375 74.21875 
Q 43.265625 74.21875 49.921875 64.515625 
Q 56.59375 54.828125 56.59375 36.375 
Q 56.59375 19.140625 48.40625 8.859375 
Q 40.234375 -1.421875 26.421875 -1.421875 
Q 22.703125 -1.421875 18.890625 -0.6875 
Q 15.09375 0.046875 10.984375 1.515625 
z
M 30.609375 32.421875 
Q 37.25 32.421875 41.125 36.953125 
Q 45.015625 41.5 45.015625 49.421875 
Q 45.015625 57.28125 41.125 61.84375 
Q 37.25 66.40625 30.609375 66.40625 
Q 23.96875 66.40625 20.09375 61.84375 
Q 16.21875 57.28125 16.21875 49.421875 
Q 16.21875 41.5 20.09375 36.953125 
Q 23.96875 32.421875 30.609375 32.421875 
z
" id="DejaVuSans-57"/>
      <path d="M 9.078125 75.984375 
L 18.109375 75.984375 
L 18.109375 31.109375 
L 44.921875 54.6875 
L 56.390625 54.6875 
L 27.390625 29.109375 
L 57.625 0 
L 45.90625 0 
L 18.109375 26.703125 
L 18.109375 0 
L 9.078125 0 
z
" id="DejaVuSans-107"/>
     </defs>
     <g transform="translate(361.284375 51.158438)scale(0.1 -0.1)">
      <use xlink:href="#DejaVuSans-52"/>
      <use x="63.623047" xlink:href="#DejaVuSans-57"/>
      <use x="127.246094" xlink:href="#DejaVuSans-107"/>
     </g>
    </g>
    <g id="line2d_34">
     <path d="M 333.284375 62.336563 
L 353.284375 62.336563 
" style="fill:none;stroke:#008000;stroke-linecap:square;stroke-width:1.5;"/>
    </g>
    <g id="line2d_35"/>
    <g id="text_19">
     <!-- SSL -->
     <defs>
      <path d="M 53.515625 70.515625 
L 53.515625 60.890625 
Q 47.90625 63.578125 42.921875 64.890625 
Q 37.9375 66.21875 33.296875 66.21875 
Q 25.25 66.21875 20.875 63.09375 
Q 16.5 59.96875 16.5 54.203125 
Q 16.5 49.359375 19.40625 46.890625 
Q 22.3125 44.4375 30.421875 42.921875 
L 36.375 41.703125 
Q 47.40625 39.59375 52.65625 34.296875 
Q 57.90625 29 57.90625 20.125 
Q 57.90625 9.515625 50.796875 4.046875 
Q 43.703125 -1.421875 29.984375 -1.421875 
Q 24.8125 -1.421875 18.96875 -0.25 
Q 13.140625 0.921875 6.890625 3.21875 
L 6.890625 13.375 
Q 12.890625 10.015625 18.65625 8.296875 
Q 24.421875 6.59375 29.984375 6.59375 
Q 38.421875 6.59375 43.015625 9.90625 
Q 47.609375 13.234375 47.609375 19.390625 
Q 47.609375 24.75 44.3125 27.78125 
Q 41.015625 30.8125 33.5 32.328125 
L 27.484375 33.5 
Q 16.453125 35.6875 11.515625 40.375 
Q 6.59375 45.0625 6.59375 53.421875 
Q 6.59375 63.09375 13.40625 68.65625 
Q 20.21875 74.21875 32.171875 74.21875 
Q 37.3125 74.21875 42.625 73.28125 
Q 47.953125 72.359375 53.515625 70.515625 
z
" id="DejaVuSans-83"/>
     </defs>
     <g transform="translate(361.284375 65.836563)scale(0.1 -0.1)">
      <use xlink:href="#DejaVuSans-83"/>
      <use x="63.476562" xlink:href="#DejaVuSans-83"/>
      <use x="126.953125" xlink:href="#DejaVuSans-76"/>
     </g>
    </g>
    <g id="line2d_36">
     <path d="M 333.284375 77.014688 
L 353.284375 77.014688 
" style="fill:none;stroke:#4363d8;stroke-linecap:square;stroke-width:1.5;"/>
    </g>
    <g id="line2d_37"/>
    <g id="text_20">
     <!-- 4k -->
     <g transform="translate(361.284375 80.514688)scale(0.1 -0.1)">
      <use xlink:href="#DejaVuSans-52"/>
      <use x="63.623047" xlink:href="#DejaVuSans-107"/>
     </g>
    </g>
   </g>
  </g>
 </g>
 <defs>
  <clipPath id="p44f0e75761">
   <rect height="217.44" width="334.8" x="54" y="34.56"/>
  </clipPath>
 </defs>
</svg>
