<?xml version="1.0" encoding="utf-8" standalone="no"?>
<!DOCTYPE svg PUBLIC "-//W3C//DTD SVG 1.1//EN"
  "http://www.w3.org/Graphics/SVG/1.1/DTD/svg11.dtd">
<!-- Created with matplotlib (https://matplotlib.org/) -->
<svg height="288pt" version="1.1" viewBox="0 0 432 288" width="432pt" xmlns="http://www.w3.org/2000/svg" xmlns:xlink="http://www.w3.org/1999/xlink">
 <defs>
  <style type="text/css">
*{stroke-linecap:butt;stroke-linejoin:round;}
  </style>
 </defs>
 <g id="figure_1">
  <g id="patch_1">
   <path d="M 0 288 
L 432 288 
L 432 0 
L 0 0 
z
" style="fill:#ffffff;"/>
  </g>
  <g id="axes_1">
   <g id="patch_2">
    <path d="M 54 252 
L 388.8 252 
L 388.8 34.56 
L 54 34.56 
z
" style="fill:#ffffff;"/>
   </g>
   <g id="matplotlib.axis_1">
    <g id="xtick_1">
     <g id="line2d_1">
      <path clip-path="url(#pad0fdad669)" d="M 69.218182 252 
L 69.218182 34.56 
" style="fill:none;stroke:#b0b0b0;stroke-dasharray:0.8,1.32;stroke-dashoffset:0;stroke-width:0.8;"/>
     </g>
     <g id="line2d_2">
      <defs>
       <path d="M 0 0 
L 0 3.5 
" id="ma8b7b84675" style="stroke:#000000;stroke-width:0.8;"/>
      </defs>
      <g>
       <use style="stroke:#000000;stroke-width:0.8;" x="69.218182" xlink:href="#ma8b7b84675" y="252"/>
      </g>
     </g>
     <g id="text_1">
      <!-- 0 -->
      <defs>
       <path d="M 31.78125 66.40625 
Q 24.171875 66.40625 20.328125 58.90625 
Q 16.5 51.421875 16.5 36.375 
Q 16.5 21.390625 20.328125 13.890625 
Q 24.171875 6.390625 31.78125 6.390625 
Q 39.453125 6.390625 43.28125 13.890625 
Q 47.125 21.390625 47.125 36.375 
Q 47.125 51.421875 43.28125 58.90625 
Q 39.453125 66.40625 31.78125 66.40625 
z
M 31.78125 74.21875 
Q 44.046875 74.21875 50.515625 64.515625 
Q 56.984375 54.828125 56.984375 36.375 
Q 56.984375 17.96875 50.515625 8.265625 
Q 44.046875 -1.421875 31.78125 -1.421875 
Q 19.53125 -1.421875 13.0625 8.265625 
Q 6.59375 17.96875 6.59375 36.375 
Q 6.59375 54.828125 13.0625 64.515625 
Q 19.53125 74.21875 31.78125 74.21875 
z
" id="DejaVuSans-48"/>
      </defs>
      <g transform="translate(66.036932 266.598437)scale(0.1 -0.1)">
       <use xlink:href="#DejaVuSans-48"/>
      </g>
     </g>
    </g>
    <g id="xtick_2">
     <g id="line2d_3">
      <path clip-path="url(#pad0fdad669)" d="M 112.823287 252 
L 112.823287 34.56 
" style="fill:none;stroke:#b0b0b0;stroke-dasharray:0.8,1.32;stroke-dashoffset:0;stroke-width:0.8;"/>
     </g>
     <g id="line2d_4">
      <g>
       <use style="stroke:#000000;stroke-width:0.8;" x="112.823287" xlink:href="#ma8b7b84675" y="252"/>
      </g>
     </g>
     <g id="text_2">
      <!-- 50 -->
      <defs>
       <path d="M 10.796875 72.90625 
L 49.515625 72.90625 
L 49.515625 64.59375 
L 19.828125 64.59375 
L 19.828125 46.734375 
Q 21.96875 47.46875 24.109375 47.828125 
Q 26.265625 48.1875 28.421875 48.1875 
Q 40.625 48.1875 47.75 41.5 
Q 54.890625 34.8125 54.890625 23.390625 
Q 54.890625 11.625 47.5625 5.09375 
Q 40.234375 -1.421875 26.90625 -1.421875 
Q 22.3125 -1.421875 17.546875 -0.640625 
Q 12.796875 0.140625 7.71875 1.703125 
L 7.71875 11.625 
Q 12.109375 9.234375 16.796875 8.0625 
Q 21.484375 6.890625 26.703125 6.890625 
Q 35.15625 6.890625 40.078125 11.328125 
Q 45.015625 15.765625 45.015625 23.390625 
Q 45.015625 31 40.078125 35.4375 
Q 35.15625 39.890625 26.703125 39.890625 
Q 22.75 39.890625 18.8125 39.015625 
Q 14.890625 38.140625 10.796875 36.28125 
z
" id="DejaVuSans-53"/>
      </defs>
      <g transform="translate(106.460787 266.598437)scale(0.1 -0.1)">
       <use xlink:href="#DejaVuSans-53"/>
       <use x="63.623047" xlink:href="#DejaVuSans-48"/>
      </g>
     </g>
    </g>
    <g id="xtick_3">
     <g id="line2d_5">
      <path clip-path="url(#pad0fdad669)" d="M 156.428393 252 
L 156.428393 34.56 
" style="fill:none;stroke:#b0b0b0;stroke-dasharray:0.8,1.32;stroke-dashoffset:0;stroke-width:0.8;"/>
     </g>
     <g id="line2d_6">
      <g>
       <use style="stroke:#000000;stroke-width:0.8;" x="156.428393" xlink:href="#ma8b7b84675" y="252"/>
      </g>
     </g>
     <g id="text_3">
      <!-- 100 -->
      <defs>
       <path d="M 12.40625 8.296875 
L 28.515625 8.296875 
L 28.515625 63.921875 
L 10.984375 60.40625 
L 10.984375 69.390625 
L 28.421875 72.90625 
L 38.28125 72.90625 
L 38.28125 8.296875 
L 54.390625 8.296875 
L 54.390625 0 
L 12.40625 0 
z
" id="DejaVuSans-49"/>
      </defs>
      <g transform="translate(146.884643 266.598437)scale(0.1 -0.1)">
       <use xlink:href="#DejaVuSans-49"/>
       <use x="63.623047" xlink:href="#DejaVuSans-48"/>
       <use x="127.246094" xlink:href="#DejaVuSans-48"/>
      </g>
     </g>
    </g>
    <g id="xtick_4">
     <g id="line2d_7">
      <path clip-path="url(#pad0fdad669)" d="M 200.033498 252 
L 200.033498 34.56 
" style="fill:none;stroke:#b0b0b0;stroke-dasharray:0.8,1.32;stroke-dashoffset:0;stroke-width:0.8;"/>
     </g>
     <g id="line2d_8">
      <g>
       <use style="stroke:#000000;stroke-width:0.8;" x="200.033498" xlink:href="#ma8b7b84675" y="252"/>
      </g>
     </g>
     <g id="text_4">
      <!-- 150 -->
      <g transform="translate(190.489748 266.598437)scale(0.1 -0.1)">
       <use xlink:href="#DejaVuSans-49"/>
       <use x="63.623047" xlink:href="#DejaVuSans-53"/>
       <use x="127.246094" xlink:href="#DejaVuSans-48"/>
      </g>
     </g>
    </g>
    <g id="xtick_5">
     <g id="line2d_9">
      <path clip-path="url(#pad0fdad669)" d="M 243.638604 252 
L 243.638604 34.56 
" style="fill:none;stroke:#b0b0b0;stroke-dasharray:0.8,1.32;stroke-dashoffset:0;stroke-width:0.8;"/>
     </g>
     <g id="line2d_10">
      <g>
       <use style="stroke:#000000;stroke-width:0.8;" x="243.638604" xlink:href="#ma8b7b84675" y="252"/>
      </g>
     </g>
     <g id="text_5">
      <!-- 200 -->
      <defs>
       <path d="M 19.1875 8.296875 
L 53.609375 8.296875 
L 53.609375 0 
L 7.328125 0 
L 7.328125 8.296875 
Q 12.9375 14.109375 22.625 23.890625 
Q 32.328125 33.6875 34.8125 36.53125 
Q 39.546875 41.84375 41.421875 45.53125 
Q 43.3125 49.21875 43.3125 52.78125 
Q 43.3125 58.59375 39.234375 62.25 
Q 35.15625 65.921875 28.609375 65.921875 
Q 23.96875 65.921875 18.8125 64.3125 
Q 13.671875 62.703125 7.8125 59.421875 
L 7.8125 69.390625 
Q 13.765625 71.78125 18.9375 73 
Q 24.125 74.21875 28.421875 74.21875 
Q 39.75 74.21875 46.484375 68.546875 
Q 53.21875 62.890625 53.21875 53.421875 
Q 53.21875 48.921875 51.53125 44.890625 
Q 49.859375 40.875 45.40625 35.40625 
Q 44.1875 33.984375 37.640625 27.21875 
Q 31.109375 20.453125 19.1875 8.296875 
z
" id="DejaVuSans-50"/>
      </defs>
      <g transform="translate(234.094854 266.598437)scale(0.1 -0.1)">
       <use xlink:href="#DejaVuSans-50"/>
       <use x="63.623047" xlink:href="#DejaVuSans-48"/>
       <use x="127.246094" xlink:href="#DejaVuSans-48"/>
      </g>
     </g>
    </g>
    <g id="xtick_6">
     <g id="line2d_11">
      <path clip-path="url(#pad0fdad669)" d="M 287.243709 252 
L 287.243709 34.56 
" style="fill:none;stroke:#b0b0b0;stroke-dasharray:0.8,1.32;stroke-dashoffset:0;stroke-width:0.8;"/>
     </g>
     <g id="line2d_12">
      <g>
       <use style="stroke:#000000;stroke-width:0.8;" x="287.243709" xlink:href="#ma8b7b84675" y="252"/>
      </g>
     </g>
     <g id="text_6">
      <!-- 250 -->
      <g transform="translate(277.699959 266.598437)scale(0.1 -0.1)">
       <use xlink:href="#DejaVuSans-50"/>
       <use x="63.623047" xlink:href="#DejaVuSans-53"/>
       <use x="127.246094" xlink:href="#DejaVuSans-48"/>
      </g>
     </g>
    </g>
    <g id="xtick_7">
     <g id="line2d_13">
      <path clip-path="url(#pad0fdad669)" d="M 330.848815 252 
L 330.848815 34.56 
" style="fill:none;stroke:#b0b0b0;stroke-dasharray:0.8,1.32;stroke-dashoffset:0;stroke-width:0.8;"/>
     </g>
     <g id="line2d_14">
      <g>
       <use style="stroke:#000000;stroke-width:0.8;" x="330.848815" xlink:href="#ma8b7b84675" y="252"/>
      </g>
     </g>
     <g id="text_7">
      <!-- 300 -->
      <defs>
       <path d="M 40.578125 39.3125 
Q 47.65625 37.796875 51.625 33 
Q 55.609375 28.21875 55.609375 21.1875 
Q 55.609375 10.40625 48.1875 4.484375 
Q 40.765625 -1.421875 27.09375 -1.421875 
Q 22.515625 -1.421875 17.65625 -0.515625 
Q 12.796875 0.390625 7.625 2.203125 
L 7.625 11.71875 
Q 11.71875 9.328125 16.59375 8.109375 
Q 21.484375 6.890625 26.8125 6.890625 
Q 36.078125 6.890625 40.9375 10.546875 
Q 45.796875 14.203125 45.796875 21.1875 
Q 45.796875 27.640625 41.28125 31.265625 
Q 36.765625 34.90625 28.71875 34.90625 
L 20.21875 34.90625 
L 20.21875 43.015625 
L 29.109375 43.015625 
Q 36.375 43.015625 40.234375 45.921875 
Q 44.09375 48.828125 44.09375 54.296875 
Q 44.09375 59.90625 40.109375 62.90625 
Q 36.140625 65.921875 28.71875 65.921875 
Q 24.65625 65.921875 20.015625 65.03125 
Q 15.375 64.15625 9.8125 62.3125 
L 9.8125 71.09375 
Q 15.4375 72.65625 20.34375 73.4375 
Q 25.25 74.21875 29.59375 74.21875 
Q 40.828125 74.21875 47.359375 69.109375 
Q 53.90625 64.015625 53.90625 55.328125 
Q 53.90625 49.265625 50.4375 45.09375 
Q 46.96875 40.921875 40.578125 39.3125 
z
" id="DejaVuSans-51"/>
      </defs>
      <g transform="translate(321.305065 266.598437)scale(0.1 -0.1)">
       <use xlink:href="#DejaVuSans-51"/>
       <use x="63.623047" xlink:href="#DejaVuSans-48"/>
       <use x="127.246094" xlink:href="#DejaVuSans-48"/>
      </g>
     </g>
    </g>
    <g id="xtick_8">
     <g id="line2d_15">
      <path clip-path="url(#pad0fdad669)" d="M 374.45392 252 
L 374.45392 34.56 
" style="fill:none;stroke:#b0b0b0;stroke-dasharray:0.8,1.32;stroke-dashoffset:0;stroke-width:0.8;"/>
     </g>
     <g id="line2d_16">
      <g>
       <use style="stroke:#000000;stroke-width:0.8;" x="374.45392" xlink:href="#ma8b7b84675" y="252"/>
      </g>
     </g>
     <g id="text_8">
      <!-- 350 -->
      <g transform="translate(364.91017 266.598437)scale(0.1 -0.1)">
       <use xlink:href="#DejaVuSans-51"/>
       <use x="63.623047" xlink:href="#DejaVuSans-53"/>
       <use x="127.246094" xlink:href="#DejaVuSans-48"/>
      </g>
     </g>
    </g>
    <g id="text_9">
     <!-- Epochs -->
     <defs>
      <path d="M 9.8125 72.90625 
L 55.90625 72.90625 
L 55.90625 64.59375 
L 19.671875 64.59375 
L 19.671875 43.015625 
L 54.390625 43.015625 
L 54.390625 34.71875 
L 19.671875 34.71875 
L 19.671875 8.296875 
L 56.78125 8.296875 
L 56.78125 0 
L 9.8125 0 
z
" id="DejaVuSans-69"/>
      <path d="M 18.109375 8.203125 
L 18.109375 -20.796875 
L 9.078125 -20.796875 
L 9.078125 54.6875 
L 18.109375 54.6875 
L 18.109375 46.390625 
Q 20.953125 51.265625 25.265625 53.625 
Q 29.59375 56 35.59375 56 
Q 45.5625 56 51.78125 48.09375 
Q 58.015625 40.1875 58.015625 27.296875 
Q 58.015625 14.40625 51.78125 6.484375 
Q 45.5625 -1.421875 35.59375 -1.421875 
Q 29.59375 -1.421875 25.265625 0.953125 
Q 20.953125 3.328125 18.109375 8.203125 
z
M 48.6875 27.296875 
Q 48.6875 37.203125 44.609375 42.84375 
Q 40.53125 48.484375 33.40625 48.484375 
Q 26.265625 48.484375 22.1875 42.84375 
Q 18.109375 37.203125 18.109375 27.296875 
Q 18.109375 17.390625 22.1875 11.75 
Q 26.265625 6.109375 33.40625 6.109375 
Q 40.53125 6.109375 44.609375 11.75 
Q 48.6875 17.390625 48.6875 27.296875 
z
" id="DejaVuSans-112"/>
      <path d="M 30.609375 48.390625 
Q 23.390625 48.390625 19.1875 42.75 
Q 14.984375 37.109375 14.984375 27.296875 
Q 14.984375 17.484375 19.15625 11.84375 
Q 23.34375 6.203125 30.609375 6.203125 
Q 37.796875 6.203125 41.984375 11.859375 
Q 46.1875 17.53125 46.1875 27.296875 
Q 46.1875 37.015625 41.984375 42.703125 
Q 37.796875 48.390625 30.609375 48.390625 
z
M 30.609375 56 
Q 42.328125 56 49.015625 48.375 
Q 55.71875 40.765625 55.71875 27.296875 
Q 55.71875 13.875 49.015625 6.21875 
Q 42.328125 -1.421875 30.609375 -1.421875 
Q 18.84375 -1.421875 12.171875 6.21875 
Q 5.515625 13.875 5.515625 27.296875 
Q 5.515625 40.765625 12.171875 48.375 
Q 18.84375 56 30.609375 56 
z
" id="DejaVuSans-111"/>
      <path d="M 48.78125 52.59375 
L 48.78125 44.1875 
Q 44.96875 46.296875 41.140625 47.34375 
Q 37.3125 48.390625 33.40625 48.390625 
Q 24.65625 48.390625 19.8125 42.84375 
Q 14.984375 37.3125 14.984375 27.296875 
Q 14.984375 17.28125 19.8125 11.734375 
Q 24.65625 6.203125 33.40625 6.203125 
Q 37.3125 6.203125 41.140625 7.25 
Q 44.96875 8.296875 48.78125 10.40625 
L 48.78125 2.09375 
Q 45.015625 0.34375 40.984375 -0.53125 
Q 36.96875 -1.421875 32.421875 -1.421875 
Q 20.0625 -1.421875 12.78125 6.34375 
Q 5.515625 14.109375 5.515625 27.296875 
Q 5.515625 40.671875 12.859375 48.328125 
Q 20.21875 56 33.015625 56 
Q 37.15625 56 41.109375 55.140625 
Q 45.0625 54.296875 48.78125 52.59375 
z
" id="DejaVuSans-99"/>
      <path d="M 54.890625 33.015625 
L 54.890625 0 
L 45.90625 0 
L 45.90625 32.71875 
Q 45.90625 40.484375 42.875 44.328125 
Q 39.84375 48.1875 33.796875 48.1875 
Q 26.515625 48.1875 22.3125 43.546875 
Q 18.109375 38.921875 18.109375 30.90625 
L 18.109375 0 
L 9.078125 0 
L 9.078125 75.984375 
L 18.109375 75.984375 
L 18.109375 46.1875 
Q 21.34375 51.125 25.703125 53.5625 
Q 30.078125 56 35.796875 56 
Q 45.21875 56 50.046875 50.171875 
Q 54.890625 44.34375 54.890625 33.015625 
z
" id="DejaVuSans-104"/>
      <path d="M 44.28125 53.078125 
L 44.28125 44.578125 
Q 40.484375 46.53125 36.375 47.5 
Q 32.28125 48.484375 27.875 48.484375 
Q 21.1875 48.484375 17.84375 46.4375 
Q 14.5 44.390625 14.5 40.28125 
Q 14.5 37.15625 16.890625 35.375 
Q 19.28125 33.59375 26.515625 31.984375 
L 29.59375 31.296875 
Q 39.15625 29.25 43.1875 25.515625 
Q 47.21875 21.78125 47.21875 15.09375 
Q 47.21875 7.46875 41.1875 3.015625 
Q 35.15625 -1.421875 24.609375 -1.421875 
Q 20.21875 -1.421875 15.453125 -0.5625 
Q 10.6875 0.296875 5.421875 2 
L 5.421875 11.28125 
Q 10.40625 8.6875 15.234375 7.390625 
Q 20.0625 6.109375 24.8125 6.109375 
Q 31.15625 6.109375 34.5625 8.28125 
Q 37.984375 10.453125 37.984375 14.40625 
Q 37.984375 18.0625 35.515625 20.015625 
Q 33.0625 21.96875 24.703125 23.78125 
L 21.578125 24.515625 
Q 13.234375 26.265625 9.515625 29.90625 
Q 5.8125 33.546875 5.8125 39.890625 
Q 5.8125 47.609375 11.28125 51.796875 
Q 16.75 56 26.8125 56 
Q 31.78125 56 36.171875 55.265625 
Q 40.578125 54.546875 44.28125 53.078125 
z
" id="DejaVuSans-115"/>
     </defs>
     <g transform="translate(203.484375 280.276563)scale(0.1 -0.1)">
      <use xlink:href="#DejaVuSans-69"/>
      <use x="63.183594" xlink:href="#DejaVuSans-112"/>
      <use x="126.660156" xlink:href="#DejaVuSans-111"/>
      <use x="187.841797" xlink:href="#DejaVuSans-99"/>
      <use x="242.822266" xlink:href="#DejaVuSans-104"/>
      <use x="306.201172" xlink:href="#DejaVuSans-115"/>
     </g>
    </g>
   </g>
   <g id="matplotlib.axis_2">
    <g id="ytick_1">
     <g id="line2d_17">
      <path clip-path="url(#pad0fdad669)" d="M 54 242.116364 
L 388.8 242.116364 
" style="fill:none;stroke:#b0b0b0;stroke-dasharray:0.8,1.32;stroke-dashoffset:0;stroke-width:0.8;"/>
     </g>
     <g id="line2d_18">
      <defs>
       <path d="M 0 0 
L -3.5 0 
" id="m5ece720640" style="stroke:#000000;stroke-width:0.8;"/>
      </defs>
      <g>
       <use style="stroke:#000000;stroke-width:0.8;" x="54" xlink:href="#m5ece720640" y="242.116364"/>
      </g>
     </g>
     <g id="text_10">
      <!-- 10 -->
      <g transform="translate(34.275 245.915582)scale(0.1 -0.1)">
       <use xlink:href="#DejaVuSans-49"/>
       <use x="63.623047" xlink:href="#DejaVuSans-48"/>
      </g>
     </g>
    </g>
    <g id="ytick_2">
     <g id="line2d_19">
      <path clip-path="url(#pad0fdad669)" d="M 54 211.922916 
L 388.8 211.922916 
" style="fill:none;stroke:#b0b0b0;stroke-dasharray:0.8,1.32;stroke-dashoffset:0;stroke-width:0.8;"/>
     </g>
     <g id="line2d_20">
      <g>
       <use style="stroke:#000000;stroke-width:0.8;" x="54" xlink:href="#m5ece720640" y="211.922916"/>
      </g>
     </g>
     <g id="text_11">
      <!-- 20 -->
      <g transform="translate(34.275 215.722135)scale(0.1 -0.1)">
       <use xlink:href="#DejaVuSans-50"/>
       <use x="63.623047" xlink:href="#DejaVuSans-48"/>
      </g>
     </g>
    </g>
    <g id="ytick_3">
     <g id="line2d_21">
      <path clip-path="url(#pad0fdad669)" d="M 54 181.729468 
L 388.8 181.729468 
" style="fill:none;stroke:#b0b0b0;stroke-dasharray:0.8,1.32;stroke-dashoffset:0;stroke-width:0.8;"/>
     </g>
     <g id="line2d_22">
      <g>
       <use style="stroke:#000000;stroke-width:0.8;" x="54" xlink:href="#m5ece720640" y="181.729468"/>
      </g>
     </g>
     <g id="text_12">
      <!-- 30 -->
      <g transform="translate(34.275 185.528687)scale(0.1 -0.1)">
       <use xlink:href="#DejaVuSans-51"/>
       <use x="63.623047" xlink:href="#DejaVuSans-48"/>
      </g>
     </g>
    </g>
    <g id="ytick_4">
     <g id="line2d_23">
      <path clip-path="url(#pad0fdad669)" d="M 54 151.536021 
L 388.8 151.536021 
" style="fill:none;stroke:#b0b0b0;stroke-dasharray:0.8,1.32;stroke-dashoffset:0;stroke-width:0.8;"/>
     </g>
     <g id="line2d_24">
      <g>
       <use style="stroke:#000000;stroke-width:0.8;" x="54" xlink:href="#m5ece720640" y="151.536021"/>
      </g>
     </g>
     <g id="text_13">
      <!-- 40 -->
      <defs>
       <path d="M 37.796875 64.3125 
L 12.890625 25.390625 
L 37.796875 25.390625 
z
M 35.203125 72.90625 
L 47.609375 72.90625 
L 47.609375 25.390625 
L 58.015625 25.390625 
L 58.015625 17.1875 
L 47.609375 17.1875 
L 47.609375 0 
L 37.796875 0 
L 37.796875 17.1875 
L 4.890625 17.1875 
L 4.890625 26.703125 
z
" id="DejaVuSans-52"/>
      </defs>
      <g transform="translate(34.275 155.33524)scale(0.1 -0.1)">
       <use xlink:href="#DejaVuSans-52"/>
       <use x="63.623047" xlink:href="#DejaVuSans-48"/>
      </g>
     </g>
    </g>
    <g id="ytick_5">
     <g id="line2d_25">
      <path clip-path="url(#pad0fdad669)" d="M 54 121.342573 
L 388.8 121.342573 
" style="fill:none;stroke:#b0b0b0;stroke-dasharray:0.8,1.32;stroke-dashoffset:0;stroke-width:0.8;"/>
     </g>
     <g id="line2d_26">
      <g>
       <use style="stroke:#000000;stroke-width:0.8;" x="54" xlink:href="#m5ece720640" y="121.342573"/>
      </g>
     </g>
     <g id="text_14">
      <!-- 50 -->
      <g transform="translate(34.275 125.141792)scale(0.1 -0.1)">
       <use xlink:href="#DejaVuSans-53"/>
       <use x="63.623047" xlink:href="#DejaVuSans-48"/>
      </g>
     </g>
    </g>
    <g id="ytick_6">
     <g id="line2d_27">
      <path clip-path="url(#pad0fdad669)" d="M 54 91.149126 
L 388.8 91.149126 
" style="fill:none;stroke:#b0b0b0;stroke-dasharray:0.8,1.32;stroke-dashoffset:0;stroke-width:0.8;"/>
     </g>
     <g id="line2d_28">
      <g>
       <use style="stroke:#000000;stroke-width:0.8;" x="54" xlink:href="#m5ece720640" y="91.149126"/>
      </g>
     </g>
     <g id="text_15">
      <!-- 60 -->
      <defs>
       <path d="M 33.015625 40.375 
Q 26.375 40.375 22.484375 35.828125 
Q 18.609375 31.296875 18.609375 23.390625 
Q 18.609375 15.53125 22.484375 10.953125 
Q 26.375 6.390625 33.015625 6.390625 
Q 39.65625 6.390625 43.53125 10.953125 
Q 47.40625 15.53125 47.40625 23.390625 
Q 47.40625 31.296875 43.53125 35.828125 
Q 39.65625 40.375 33.015625 40.375 
z
M 52.59375 71.296875 
L 52.59375 62.3125 
Q 48.875 64.0625 45.09375 64.984375 
Q 41.3125 65.921875 37.59375 65.921875 
Q 27.828125 65.921875 22.671875 59.328125 
Q 17.53125 52.734375 16.796875 39.40625 
Q 19.671875 43.65625 24.015625 45.921875 
Q 28.375 48.1875 33.59375 48.1875 
Q 44.578125 48.1875 50.953125 41.515625 
Q 57.328125 34.859375 57.328125 23.390625 
Q 57.328125 12.15625 50.6875 5.359375 
Q 44.046875 -1.421875 33.015625 -1.421875 
Q 20.359375 -1.421875 13.671875 8.265625 
Q 6.984375 17.96875 6.984375 36.375 
Q 6.984375 53.65625 15.1875 63.9375 
Q 23.390625 74.21875 37.203125 74.21875 
Q 40.921875 74.21875 44.703125 73.484375 
Q 48.484375 72.75 52.59375 71.296875 
z
" id="DejaVuSans-54"/>
      </defs>
      <g transform="translate(34.275 94.948344)scale(0.1 -0.1)">
       <use xlink:href="#DejaVuSans-54"/>
       <use x="63.623047" xlink:href="#DejaVuSans-48"/>
      </g>
     </g>
    </g>
    <g id="ytick_7">
     <g id="line2d_29">
      <path clip-path="url(#pad0fdad669)" d="M 54 60.955678 
L 388.8 60.955678 
" style="fill:none;stroke:#b0b0b0;stroke-dasharray:0.8,1.32;stroke-dashoffset:0;stroke-width:0.8;"/>
     </g>
     <g id="line2d_30">
      <g>
       <use style="stroke:#000000;stroke-width:0.8;" x="54" xlink:href="#m5ece720640" y="60.955678"/>
      </g>
     </g>
     <g id="text_16">
      <!-- 70 -->
      <defs>
       <path d="M 8.203125 72.90625 
L 55.078125 72.90625 
L 55.078125 68.703125 
L 28.609375 0 
L 18.3125 0 
L 43.21875 64.59375 
L 8.203125 64.59375 
z
" id="DejaVuSans-55"/>
      </defs>
      <g transform="translate(34.275 64.754897)scale(0.1 -0.1)">
       <use xlink:href="#DejaVuSans-55"/>
       <use x="63.623047" xlink:href="#DejaVuSans-48"/>
      </g>
     </g>
    </g>
    <g id="text_17">
     <!-- Accuracy -->
     <defs>
      <path d="M 34.1875 63.1875 
L 20.796875 26.90625 
L 47.609375 26.90625 
z
M 28.609375 72.90625 
L 39.796875 72.90625 
L 67.578125 0 
L 57.328125 0 
L 50.6875 18.703125 
L 17.828125 18.703125 
L 11.1875 0 
L 0.78125 0 
z
" id="DejaVuSans-65"/>
      <path d="M 8.5 21.578125 
L 8.5 54.6875 
L 17.484375 54.6875 
L 17.484375 21.921875 
Q 17.484375 14.15625 20.5 10.265625 
Q 23.53125 6.390625 29.59375 6.390625 
Q 36.859375 6.390625 41.078125 11.03125 
Q 45.3125 15.671875 45.3125 23.6875 
L 45.3125 54.6875 
L 54.296875 54.6875 
L 54.296875 0 
L 45.3125 0 
L 45.3125 8.40625 
Q 42.046875 3.421875 37.71875 1 
Q 33.40625 -1.421875 27.6875 -1.421875 
Q 18.265625 -1.421875 13.375 4.4375 
Q 8.5 10.296875 8.5 21.578125 
z
M 31.109375 56 
z
" id="DejaVuSans-117"/>
      <path d="M 41.109375 46.296875 
Q 39.59375 47.171875 37.8125 47.578125 
Q 36.03125 48 33.890625 48 
Q 26.265625 48 22.1875 43.046875 
Q 18.109375 38.09375 18.109375 28.8125 
L 18.109375 0 
L 9.078125 0 
L 9.078125 54.6875 
L 18.109375 54.6875 
L 18.109375 46.1875 
Q 20.953125 51.171875 25.484375 53.578125 
Q 30.03125 56 36.53125 56 
Q 37.453125 56 38.578125 55.875 
Q 39.703125 55.765625 41.0625 55.515625 
z
" id="DejaVuSans-114"/>
      <path d="M 34.28125 27.484375 
Q 23.390625 27.484375 19.1875 25 
Q 14.984375 22.515625 14.984375 16.5 
Q 14.984375 11.71875 18.140625 8.90625 
Q 21.296875 6.109375 26.703125 6.109375 
Q 34.1875 6.109375 38.703125 11.40625 
Q 43.21875 16.703125 43.21875 25.484375 
L 43.21875 27.484375 
z
M 52.203125 31.203125 
L 52.203125 0 
L 43.21875 0 
L 43.21875 8.296875 
Q 40.140625 3.328125 35.546875 0.953125 
Q 30.953125 -1.421875 24.3125 -1.421875 
Q 15.921875 -1.421875 10.953125 3.296875 
Q 6 8.015625 6 15.921875 
Q 6 25.140625 12.171875 29.828125 
Q 18.359375 34.515625 30.609375 34.515625 
L 43.21875 34.515625 
L 43.21875 35.40625 
Q 43.21875 41.609375 39.140625 45 
Q 35.0625 48.390625 27.6875 48.390625 
Q 23 48.390625 18.546875 47.265625 
Q 14.109375 46.140625 10.015625 43.890625 
L 10.015625 52.203125 
Q 14.9375 54.109375 19.578125 55.046875 
Q 24.21875 56 28.609375 56 
Q 40.484375 56 46.34375 49.84375 
Q 52.203125 43.703125 52.203125 31.203125 
z
" id="DejaVuSans-97"/>
      <path d="M 32.171875 -5.078125 
Q 28.375 -14.84375 24.75 -17.8125 
Q 21.140625 -20.796875 15.09375 -20.796875 
L 7.90625 -20.796875 
L 7.90625 -13.28125 
L 13.1875 -13.28125 
Q 16.890625 -13.28125 18.9375 -11.515625 
Q 21 -9.765625 23.484375 -3.21875 
L 25.09375 0.875 
L 2.984375 54.6875 
L 12.5 54.6875 
L 29.59375 11.921875 
L 46.6875 54.6875 
L 56.203125 54.6875 
z
" id="DejaVuSans-121"/>
     </defs>
     <g transform="translate(28.195312 166.194844)rotate(-90)scale(0.1 -0.1)">
      <use xlink:href="#DejaVuSans-65"/>
      <use x="68.392578" xlink:href="#DejaVuSans-99"/>
      <use x="123.373047" xlink:href="#DejaVuSans-99"/>
      <use x="178.353516" xlink:href="#DejaVuSans-117"/>
      <use x="241.732422" xlink:href="#DejaVuSans-114"/>
      <use x="282.845703" xlink:href="#DejaVuSans-97"/>
      <use x="344.125" xlink:href="#DejaVuSans-99"/>
      <use x="399.105469" xlink:href="#DejaVuSans-121"/>
     </g>
    </g>
   </g>
   <g id="line2d_31">
    <path clip-path="url(#pad0fdad669)" d="M 69.218182 239.285728 
L 70.090284 219.471278 
L 70.962386 217.112415 
L 71.834488 210.979371 
L 72.70659 210.979371 
L 73.578692 214.753552 
L 74.450794 198.713283 
L 75.322897 199.185055 
L 76.194999 179.370605 
L 77.067101 176.53997 
L 77.939203 184.088332 
L 78.811305 173.709334 
L 79.683407 175.124652 
L 80.555509 177.483515 
L 81.427611 174.181107 
L 82.299713 162.858564 
L 83.171816 163.802109 
L 84.043918 164.273882 
L 84.91602 156.253747 
L 85.788122 167.57629 
L 87.532326 156.72552 
L 88.404428 152.951339 
L 89.27653 155.310202 
L 90.148632 142.572341 
L 91.892837 133.608661 
L 92.764939 141.628796 
L 93.637041 129.83448 
L 94.509143 128.419163 
L 95.381245 136.439297 
L 96.253347 120.870801 
L 97.125449 122.286118 
L 97.997551 116.624847 
L 98.869654 117.568392 
L 99.741756 110.02003 
L 100.613858 110.963576 
L 101.48596 102.943441 
L 102.358062 105.774077 
L 103.230164 110.963576 
L 104.102266 104.830532 
L 104.974368 105.774077 
L 105.84647 93.979761 
L 106.718573 99.16926 
L 107.590675 88.790263 
L 108.462777 91.620898 
L 109.334879 98.697488 
L 111.079083 92.092671 
L 111.951185 84.544309 
L 112.823287 92.092671 
L 113.695389 79.35481 
L 114.567492 87.374945 
L 115.439594 84.072536 
L 116.311696 79.826583 
L 117.183798 86.431399 
L 118.0559 95.395079 
L 118.928002 97.753942 
L 119.800104 70.862903 
L 120.672206 84.072536 
L 121.544308 79.35481 
L 122.416411 85.016082 
L 123.288513 70.862903 
L 124.160615 70.39113 
L 125.032717 79.35481 
L 125.904819 71.806448 
L 126.776921 68.975813 
L 127.649023 72.278221 
L 128.521125 68.50404 
L 129.393227 68.975813 
L 130.26533 73.693539 
L 131.137432 74.165311 
L 132.009534 72.749993 
L 132.881636 69.447585 
L 133.753738 68.975813 
L 134.62584 66.616949 
L 135.497942 67.088722 
L 136.370044 66.616949 
L 137.242146 80.298355 
L 138.114249 76.524174 
L 138.986351 75.108857 
L 139.858453 73.221766 
L 140.730555 63.786314 
L 141.602657 80.770128 
L 142.474759 74.637084 
L 143.346861 61.899223 
L 144.218963 69.919358 
L 145.091065 69.919358 
L 145.963167 84.544309 
L 146.83527 78.883038 
L 147.707372 68.975813 
L 148.579474 66.145177 
L 149.451576 76.052402 
L 150.323678 73.221766 
L 151.19578 68.032267 
L 152.067882 69.919358 
L 152.939984 62.842768 
L 153.812086 74.165311 
L 154.684189 64.258086 
L 155.556291 68.975813 
L 156.428393 72.749993 
L 157.300495 57.65327 
L 158.172597 59.068588 
L 159.044699 59.54036 
L 159.916801 58.596815 
L 160.788903 60.012133 
L 161.661005 69.919358 
L 162.533108 71.334676 
L 163.40521 63.314541 
L 164.277312 62.842768 
L 165.149414 62.842768 
L 166.021516 63.314541 
L 166.893618 65.201632 
L 167.76572 66.145177 
L 168.637822 53.879089 
L 169.509924 67.088722 
L 170.382027 64.729859 
L 171.254129 67.088722 
L 172.126231 68.50404 
L 172.998333 67.088722 
L 173.870435 67.088722 
L 174.742537 67.560495 
L 175.614639 67.088722 
L 177.358843 63.314541 
L 178.230946 65.673404 
L 179.103048 64.729859 
L 179.97515 60.483905 
L 180.847252 68.975813 
L 181.719354 66.145177 
L 182.591456 68.975813 
L 183.463558 61.427451 
L 184.33566 67.088722 
L 185.207762 55.766179 
L 186.079865 63.786314 
L 186.951967 63.786314 
L 187.824069 68.50404 
L 188.696171 64.258086 
L 189.568273 67.088722 
L 190.440375 67.560495 
L 191.312477 65.201632 
L 192.184579 61.427451 
L 193.056681 65.673404 
L 193.928784 65.673404 
L 194.800886 66.145177 
L 195.672988 63.786314 
L 196.54509 56.709724 
L 197.417192 69.447585 
L 198.289294 59.068588 
L 199.161396 57.181497 
L 200.033498 59.54036 
L 200.9056 59.54036 
L 201.777703 66.145177 
L 202.649805 69.919358 
L 203.521907 56.709724 
L 204.394009 73.221766 
L 205.266111 55.766179 
L 206.138213 62.842768 
L 207.010315 58.125042 
L 207.882417 61.899223 
L 208.754519 60.955678 
L 209.626622 59.54036 
L 210.498724 60.483905 
L 211.370826 58.596815 
L 212.242928 60.483905 
L 213.11503 64.258086 
L 213.987132 65.201632 
L 214.859234 64.729859 
L 215.731336 71.334676 
L 216.603438 52.463771 
L 217.475541 57.65327 
L 218.347643 60.955678 
L 219.219745 59.068588 
L 220.091847 55.294407 
L 220.963949 60.955678 
L 221.836051 62.370996 
L 222.708153 62.842768 
L 223.580255 54.350861 
L 224.452357 67.560495 
L 226.196562 53.879089 
L 227.068664 63.314541 
L 227.940766 49.633135 
L 228.812868 59.068588 
L 229.68497 60.012133 
L 231.429174 59.068588 
L 232.301276 62.370996 
L 233.173378 60.483905 
L 234.045481 55.766179 
L 235.789685 56.709724 
L 236.661787 63.314541 
L 238.405991 64.258086 
L 239.278093 63.314541 
L 240.150195 59.068588 
L 241.022297 66.145177 
L 241.8944 56.237952 
L 242.766502 59.068588 
L 243.638604 58.596815 
L 244.510706 64.258086 
L 245.382808 66.616949 
L 246.25491 60.955678 
L 247.127012 57.181497 
L 247.999114 66.616949 
L 248.871216 62.370996 
L 249.743319 59.068588 
L 250.615421 59.068588 
L 251.487523 57.181497 
L 252.359625 55.766179 
L 253.231727 64.258086 
L 254.103829 54.822634 
L 254.975931 62.370996 
L 255.848033 61.899223 
L 256.720135 68.50404 
L 257.592238 63.786314 
L 258.46434 61.899223 
L 259.336442 56.709724 
L 260.208544 68.032267 
L 261.080646 56.709724 
L 261.952748 52.935544 
L 262.82485 60.955678 
L 263.696952 53.879089 
L 265.441157 62.842768 
L 266.313259 51.991998 
L 267.185361 60.955678 
L 268.057463 56.237952 
L 268.929565 59.54036 
L 269.801667 54.350861 
L 271.545871 63.786314 
L 272.417973 65.673404 
L 273.290076 64.258086 
L 274.162178 60.483905 
L 275.03428 52.935544 
L 275.906382 66.616949 
L 276.778484 57.65327 
L 277.650586 65.673404 
L 278.522688 52.935544 
L 279.39479 59.54036 
L 280.266892 55.294407 
L 281.138995 52.935544 
L 282.011097 60.955678 
L 282.883199 64.258086 
L 283.755301 60.483905 
L 284.627403 49.161363 
L 285.499505 56.709724 
L 286.371607 61.899223 
L 287.243709 50.57668 
L 288.115811 60.955678 
L 288.987914 55.294407 
L 289.860016 60.012133 
L 290.732118 53.407316 
L 291.60422 60.955678 
L 292.476322 57.181497 
L 293.348424 62.370996 
L 294.220526 57.65327 
L 295.092628 57.181497 
L 295.96473 55.294407 
L 296.836833 61.427451 
L 297.708935 57.181497 
L 298.581037 51.991998 
L 299.453139 52.463771 
L 300.325241 56.709724 
L 301.197343 52.463771 
L 302.069445 51.991998 
L 302.941547 49.161363 
L 303.813649 55.294407 
L 304.685751 54.822634 
L 305.557854 56.237952 
L 307.302058 57.181497 
L 308.17416 58.125042 
L 309.046262 58.125042 
L 309.918364 57.181497 
L 310.790466 60.012133 
L 311.662568 52.935544 
L 312.53467 47.746045 
L 313.406773 51.991998 
L 314.278875 47.746045 
L 315.150977 56.237952 
L 316.023079 52.935544 
L 316.895181 58.596815 
L 317.767283 56.709724 
L 318.639385 63.786314 
L 319.511487 56.237952 
L 320.383589 68.032267 
L 321.255692 59.068588 
L 322.127794 62.370996 
L 322.999896 53.879089 
L 323.871998 53.879089 
L 324.7441 51.048453 
L 325.616202 53.407316 
L 326.488304 53.879089 
L 327.360406 52.463771 
L 328.232508 56.237952 
L 329.104611 61.427451 
L 329.976713 53.879089 
L 330.848815 56.709724 
L 331.720917 57.181497 
L 332.593019 57.181497 
L 333.465121 61.427451 
L 334.337223 60.012133 
L 335.209325 47.746045 
L 336.081427 49.161363 
L 336.95353 60.012133 
L 337.825632 53.407316 
L 338.697734 51.048453 
L 339.569836 51.048453 
L 340.441938 55.766179 
L 341.31404 44.443636 
L 342.186142 49.633135 
L 343.058244 56.237952 
L 343.930346 54.822634 
L 344.802449 55.294407 
L 345.674551 52.935544 
L 346.546653 54.822634 
L 347.418755 55.294407 
L 348.290857 57.65327 
L 349.162959 54.350861 
L 350.035061 60.483905 
L 350.907163 60.483905 
L 351.779265 56.709724 
L 352.651368 61.427451 
L 353.52347 54.350861 
L 354.395572 63.786314 
L 355.267674 52.935544 
L 356.139776 54.350861 
L 357.011878 58.125042 
L 357.88398 56.237952 
L 358.756082 60.483905 
L 359.628184 62.370996 
L 360.500287 59.068588 
L 361.372389 54.822634 
L 362.244491 56.237952 
L 363.116593 60.955678 
L 363.988695 52.935544 
L 364.860797 59.54036 
L 365.732899 56.237952 
L 366.605001 59.54036 
L 367.477103 59.068588 
L 368.349206 52.935544 
L 369.221308 57.65327 
L 370.09341 58.125042 
L 370.965512 55.766179 
L 371.837614 60.483905 
L 372.709716 58.125042 
L 373.581818 59.068588 
L 373.581818 59.068588 
" style="fill:none;stroke:#008000;stroke-linecap:square;stroke-width:1.5;"/>
   </g>
   <g id="line2d_32">
    <path clip-path="url(#pad0fdad669)" d="M 69.218182 242.116364 
L 70.090284 220.346891 
L 70.962386 214.761102 
L 71.834488 214.881873 
L 72.70659 211.560598 
L 73.578692 204.283977 
L 74.450794 203.287594 
L 75.322897 198.517029 
L 76.194999 196.675227 
L 77.067101 184.86959 
L 77.939203 183.571271 
L 78.811305 181.548309 
L 79.683407 172.339304 
L 80.555509 170.678667 
L 81.427611 173.788588 
L 82.299713 167.115839 
L 83.171816 156.759486 
L 84.043918 154.887495 
L 84.91602 154.676142 
L 85.788122 159.627866 
L 86.660224 155.883885 
L 87.532326 154.283624 
L 88.404428 150.811385 
L 89.27653 151.475633 
L 91.020735 140.273866 
L 91.892837 132.967057 
L 92.764939 137.254521 
L 93.637041 131.91028 
L 94.509143 144.742495 
L 95.381245 125.811202 
L 96.253347 127.471851 
L 97.125449 123.939212 
L 97.997551 117.840134 
L 98.869654 119.108265 
L 99.741756 110.714478 
L 100.613858 108.299005 
L 101.48596 118.866711 
L 102.358062 122.006833 
L 103.230164 113.52247 
L 104.102266 106.577979 
L 104.974368 106.487403 
L 105.84647 100.931808 
L 106.718573 101.505479 
L 107.590675 98.667299 
L 108.462777 89.4281 
L 109.334879 93.745764 
L 110.206981 92.930539 
L 111.079083 105.27966 
L 111.951185 110.865455 
L 112.823287 90.001783 
L 113.695389 100.931808 
L 114.567492 89.397912 
L 115.439594 89.186558 
L 116.311696 95.104471 
L 117.183798 83.72154 
L 118.0559 85.442566 
L 118.928002 95.255436 
L 119.800104 99.663677 
L 120.672206 80.219101 
L 121.544308 80.702196 
L 122.416411 93.745764 
L 123.288513 88.190169 
L 124.160615 81.245678 
L 125.032717 82.060903 
L 125.904819 83.570575 
L 126.776921 75.810849 
L 127.649023 82.453421 
L 128.521125 76.052402 
L 129.393227 77.380921 
L 130.26533 74.905059 
L 131.137432 88.190169 
L 132.009534 83.117669 
L 132.881636 73.697317 
L 133.753738 86.378567 
L 134.62584 75.327766 
L 135.497942 73.63694 
L 136.370044 73.90867 
L 137.242146 81.336255 
L 138.114249 76.928015 
L 138.986351 74.301176 
L 139.858453 77.320521 
L 140.730555 73.485963 
L 141.602657 81.396643 
L 142.474759 74.905059 
L 143.346861 71.040301 
L 144.218963 76.263755 
L 145.091065 77.018591 
L 145.963167 75.539119 
L 146.83527 84.71793 
L 147.707372 76.173178 
L 148.579474 74.452153 
L 149.451576 80.822972 
L 150.323678 78.075357 
L 151.19578 70.889325 
L 152.067882 73.063257 
L 152.939984 72.549974 
L 153.812086 75.237189 
L 154.684189 72.398997 
L 155.556291 70.708172 
L 156.428393 74.784283 
L 158.172597 67.809604 
L 159.044699 72.459397 
L 159.916801 68.775793 
L 160.788903 70.345842 
L 161.661005 77.562074 
L 162.533108 70.708172 
L 163.40521 71.493208 
L 164.277312 67.175544 
L 165.149414 71.402608 
L 166.021516 69.470229 
L 166.893618 71.915914 
L 167.76572 65.394119 
L 169.509924 72.217844 
L 170.382027 70.074112 
L 171.254129 68.594617 
L 172.126231 71.553585 
L 172.998333 71.553585 
L 173.870435 71.130878 
L 174.742537 67.054767 
L 175.614639 69.741982 
L 176.486741 69.379653 
L 177.358843 66.239531 
L 178.230946 65.514895 
L 179.103048 70.164689 
L 179.97515 66.783014 
L 180.847252 67.628427 
L 181.719354 68.956946 
L 182.591456 71.704561 
L 183.463558 68.020957 
L 184.33566 69.107923 
L 185.207762 68.322887 
L 186.951967 64.337352 
L 187.824069 68.443663 
L 189.568273 66.420708 
L 190.440375 69.198499 
L 191.312477 64.488306 
L 192.184579 71.100678 
L 193.056681 67.024567 
L 193.928784 68.896569 
L 194.800886 68.80597 
L 195.672988 70.043912 
L 196.54509 66.028178 
L 197.417192 67.658627 
L 198.289294 67.145344 
L 199.161396 65.847025 
L 200.033498 68.081333 
L 200.9056 63.340963 
L 202.649805 67.145344 
L 204.394009 69.772159 
L 205.266111 63.854246 
L 206.138213 68.987146 
L 207.010315 66.118755 
L 208.754519 66.903791 
L 209.626622 66.118755 
L 210.498724 67.960557 
L 211.370826 71.432808 
L 212.242928 69.319276 
L 213.11503 71.613961 
L 213.987132 66.903791 
L 214.859234 72.67075 
L 215.731336 66.692438 
L 216.603438 63.069233 
L 217.475541 66.239531 
L 218.347643 63.76367 
L 219.219745 65.424318 
L 220.091847 63.310763 
L 220.963949 64.458129 
L 221.836051 62.978633 
L 222.708153 66.722638 
L 223.580255 62.435174 
L 224.452357 64.005223 
L 225.324459 66.269731 
L 226.196562 65.997978 
L 227.068664 64.458129 
L 227.940766 62.676704 
L 228.812868 65.243142 
L 229.68497 66.994368 
L 230.557072 66.601861 
L 231.429174 65.303542 
L 232.301276 67.56805 
L 233.173378 66.964191 
L 234.045481 62.737103 
L 234.917583 66.662238 
L 235.789685 67.688827 
L 236.661787 68.292687 
L 237.533889 63.310763 
L 238.405991 61.740714 
L 239.278093 62.676704 
L 240.150195 60.744325 
L 241.022297 72.187644 
L 241.8944 63.49194 
L 242.766502 64.337352 
L 243.638604 62.85788 
L 244.510706 61.680337 
L 245.382808 62.46535 
L 246.25491 61.227431 
L 247.127012 62.253997 
L 247.999114 62.79748 
L 248.871216 61.016078 
L 249.743319 68.383263 
L 250.615421 62.404974 
L 251.487523 60.261242 
L 252.359625 62.85788 
L 253.231727 63.039033 
L 254.103829 61.227431 
L 254.975931 65.182765 
L 255.848033 63.552316 
L 256.720135 68.926746 
L 257.592238 72.036668 
L 258.46434 69.228699 
L 259.336442 64.246776 
L 260.208544 70.889325 
L 261.080646 60.382018 
L 261.952748 62.163421 
L 262.82485 59.355429 
L 263.696952 62.46535 
L 264.569054 63.069233 
L 265.441157 59.687559 
L 266.313259 61.016078 
L 267.185361 63.49194 
L 268.057463 64.005223 
L 268.929565 61.468961 
L 270.673769 63.340963 
L 271.545871 64.760059 
L 272.417973 64.729859 
L 273.290076 61.589738 
L 274.162178 62.404974 
L 275.03428 60.472595 
L 275.906382 67.628427 
L 276.778484 62.374774 
L 277.650586 64.216576 
L 278.522688 65.061989 
L 279.39479 65.454518 
L 280.266892 60.653748 
L 282.011097 63.824069 
L 282.883199 63.069233 
L 283.755301 63.975023 
L 284.627403 68.141733 
L 285.499505 66.450885 
L 286.371607 68.081333 
L 287.243709 59.838535 
L 288.115811 65.545095 
L 288.987914 62.948457 
L 289.860016 68.745593 
L 290.732118 63.371163 
L 291.60422 65.967801 
L 292.476322 62.82768 
L 293.348424 61.197231 
L 294.220526 59.838535 
L 295.092628 59.385629 
L 295.96473 61.921867 
L 296.836833 63.673093 
L 297.708935 60.351818 
L 298.581037 59.144076 
L 299.453139 59.898912 
L 300.325241 60.140465 
L 301.197343 61.499161 
L 302.069445 64.548706 
L 302.941547 63.43154 
L 303.813649 60.623548 
L 304.685751 59.898912 
L 305.557854 60.714125 
L 306.429956 60.804725 
L 307.302058 59.113876 
L 308.17416 62.646527 
L 309.046262 59.536582 
L 309.918364 59.898912 
L 310.790466 59.778135 
L 311.662568 57.996733 
L 312.53467 57.69478 
L 313.406773 61.287808 
L 314.278875 61.197231 
L 315.150977 60.502772 
L 316.023079 60.623548 
L 316.895181 62.76728 
L 317.767283 63.73347 
L 318.639385 66.390508 
L 319.511487 61.952067 
L 320.383589 64.005223 
L 321.255692 67.83978 
L 322.127794 59.929112 
L 322.999896 61.106654 
L 323.871998 62.616327 
L 324.7441 59.989489 
L 325.616202 63.008833 
L 326.488304 61.891691 
L 327.360406 63.703293 
L 328.232508 59.506405 
L 329.104611 64.488306 
L 329.976713 59.415829 
L 330.848815 62.49555 
L 331.720917 61.770914 
L 332.593019 62.646527 
L 333.465121 64.427929 
L 334.337223 64.488306 
L 335.209325 58.238263 
L 336.081427 61.982267 
L 336.95353 61.831291 
L 337.825632 59.898912 
L 338.697734 60.593371 
L 339.569836 59.959289 
L 340.441938 61.801091 
L 341.31404 61.227431 
L 343.058244 63.76367 
L 343.930346 63.944846 
L 344.802449 60.532972 
L 345.674551 58.751569 
L 346.546653 58.902523 
L 347.418755 59.234652 
L 348.290857 63.220187 
L 350.035061 60.080065 
L 350.907163 63.824069 
L 351.779265 60.593371 
L 352.651368 59.868712 
L 353.52347 60.382018 
L 354.395572 66.632061 
L 355.267674 59.325229 
L 356.139776 57.39285 
L 357.011878 57.12112 
L 357.88398 61.529361 
L 358.756082 60.412195 
L 359.628184 63.371163 
L 360.500287 61.016078 
L 361.372389 59.627182 
L 362.244491 61.559561 
L 363.116593 67.175544 
L 363.988695 61.831291 
L 364.860797 59.536582 
L 365.732899 62.133221 
L 366.605001 59.385629 
L 367.477103 63.19001 
L 368.349206 59.023299 
L 369.221308 62.19362 
L 370.09341 61.378384 
L 370.965512 59.778135 
L 371.837614 62.253997 
L 372.709716 62.76728 
L 373.581818 59.506405 
L 373.581818 59.506405 
" style="fill:none;stroke:#ff0000;stroke-linecap:square;stroke-width:1.5;"/>
   </g>
   <g id="patch_3">
    <path d="M 54 252 
L 54 34.56 
" style="fill:none;stroke:#000000;stroke-linecap:square;stroke-linejoin:miter;stroke-width:0.8;"/>
   </g>
   <g id="patch_4">
    <path d="M 388.8 252 
L 388.8 34.56 
" style="fill:none;stroke:#000000;stroke-linecap:square;stroke-linejoin:miter;stroke-width:0.8;"/>
   </g>
   <g id="patch_5">
    <path d="M 54 252 
L 388.8 252 
" style="fill:none;stroke:#000000;stroke-linecap:square;stroke-linejoin:miter;stroke-width:0.8;"/>
   </g>
   <g id="patch_6">
    <path d="M 54 34.56 
L 388.8 34.56 
" style="fill:none;stroke:#000000;stroke-linecap:square;stroke-linejoin:miter;stroke-width:0.8;"/>
   </g>
   <g id="text_18">
    <!-- VGGNet Accuracy -->
    <defs>
     <path d="M 28.609375 0 
L 0.78125 72.90625 
L 11.078125 72.90625 
L 34.1875 11.53125 
L 57.328125 72.90625 
L 67.578125 72.90625 
L 39.796875 0 
z
" id="DejaVuSans-86"/>
     <path d="M 59.515625 10.40625 
L 59.515625 29.984375 
L 43.40625 29.984375 
L 43.40625 38.09375 
L 69.28125 38.09375 
L 69.28125 6.78125 
Q 63.578125 2.734375 56.6875 0.65625 
Q 49.8125 -1.421875 42 -1.421875 
Q 24.90625 -1.421875 15.25 8.5625 
Q 5.609375 18.5625 5.609375 36.375 
Q 5.609375 54.25 15.25 64.234375 
Q 24.90625 74.21875 42 74.21875 
Q 49.125 74.21875 55.546875 72.453125 
Q 61.96875 70.703125 67.390625 67.28125 
L 67.390625 56.78125 
Q 61.921875 61.421875 55.765625 63.765625 
Q 49.609375 66.109375 42.828125 66.109375 
Q 29.4375 66.109375 22.71875 58.640625 
Q 16.015625 51.171875 16.015625 36.375 
Q 16.015625 21.625 22.71875 14.15625 
Q 29.4375 6.6875 42.828125 6.6875 
Q 48.046875 6.6875 52.140625 7.59375 
Q 56.25 8.5 59.515625 10.40625 
z
" id="DejaVuSans-71"/>
     <path d="M 9.8125 72.90625 
L 23.09375 72.90625 
L 55.421875 11.921875 
L 55.421875 72.90625 
L 64.984375 72.90625 
L 64.984375 0 
L 51.703125 0 
L 19.390625 60.984375 
L 19.390625 0 
L 9.8125 0 
z
" id="DejaVuSans-78"/>
     <path d="M 56.203125 29.59375 
L 56.203125 25.203125 
L 14.890625 25.203125 
Q 15.484375 15.921875 20.484375 11.0625 
Q 25.484375 6.203125 34.421875 6.203125 
Q 39.59375 6.203125 44.453125 7.46875 
Q 49.3125 8.734375 54.109375 11.28125 
L 54.109375 2.78125 
Q 49.265625 0.734375 44.1875 -0.34375 
Q 39.109375 -1.421875 33.890625 -1.421875 
Q 20.796875 -1.421875 13.15625 6.1875 
Q 5.515625 13.8125 5.515625 26.8125 
Q 5.515625 40.234375 12.765625 48.109375 
Q 20.015625 56 32.328125 56 
Q 43.359375 56 49.78125 48.890625 
Q 56.203125 41.796875 56.203125 29.59375 
z
M 47.21875 32.234375 
Q 47.125 39.59375 43.09375 43.984375 
Q 39.0625 48.390625 32.421875 48.390625 
Q 24.90625 48.390625 20.390625 44.140625 
Q 15.875 39.890625 15.1875 32.171875 
z
" id="DejaVuSans-101"/>
     <path d="M 18.3125 70.21875 
L 18.3125 54.6875 
L 36.8125 54.6875 
L 36.8125 47.703125 
L 18.3125 47.703125 
L 18.3125 18.015625 
Q 18.3125 11.328125 20.140625 9.421875 
Q 21.96875 7.515625 27.59375 7.515625 
L 36.8125 7.515625 
L 36.8125 0 
L 27.59375 0 
Q 17.1875 0 13.234375 3.875 
Q 9.28125 7.765625 9.28125 18.015625 
L 9.28125 47.703125 
L 2.6875 47.703125 
L 2.6875 54.6875 
L 9.28125 54.6875 
L 9.28125 70.21875 
z
" id="DejaVuSans-116"/>
     <path id="DejaVuSans-32"/>
    </defs>
    <g transform="translate(154.725 28.56)scale(0.15 -0.15)">
     <use xlink:href="#DejaVuSans-86"/>
     <use x="68.408203" xlink:href="#DejaVuSans-71"/>
     <use x="145.898438" xlink:href="#DejaVuSans-71"/>
     <use x="223.388672" xlink:href="#DejaVuSans-78"/>
     <use x="298.193359" xlink:href="#DejaVuSans-101"/>
     <use x="359.716797" xlink:href="#DejaVuSans-116"/>
     <use x="398.925781" xlink:href="#DejaVuSans-32"/>
     <use x="430.712891" xlink:href="#DejaVuSans-65"/>
     <use x="499.105469" xlink:href="#DejaVuSans-99"/>
     <use x="554.085938" xlink:href="#DejaVuSans-99"/>
     <use x="609.066406" xlink:href="#DejaVuSans-117"/>
     <use x="672.445312" xlink:href="#DejaVuSans-114"/>
     <use x="713.558594" xlink:href="#DejaVuSans-97"/>
     <use x="774.837891" xlink:href="#DejaVuSans-99"/>
     <use x="829.818359" xlink:href="#DejaVuSans-121"/>
    </g>
   </g>
   <g id="legend_1">
    <g id="patch_7">
     <path d="M 250.646875 247 
L 381.8 247 
Q 383.8 247 383.8 245 
L 383.8 216.64375 
Q 383.8 214.64375 381.8 214.64375 
L 250.646875 214.64375 
Q 248.646875 214.64375 248.646875 216.64375 
L 248.646875 245 
Q 248.646875 247 250.646875 247 
z
" style="fill:#ffffff;opacity:0.8;stroke:#cccccc;stroke-linejoin:miter;"/>
    </g>
    <g id="line2d_33">
     <path d="M 252.646875 222.742188 
L 272.646875 222.742188 
" style="fill:none;stroke:#008000;stroke-linecap:square;stroke-width:1.5;"/>
    </g>
    <g id="line2d_34"/>
    <g id="text_19">
     <!-- Validation Accuracy -->
     <defs>
      <path d="M 9.421875 75.984375 
L 18.40625 75.984375 
L 18.40625 0 
L 9.421875 0 
z
" id="DejaVuSans-108"/>
      <path d="M 9.421875 54.6875 
L 18.40625 54.6875 
L 18.40625 0 
L 9.421875 0 
z
M 9.421875 75.984375 
L 18.40625 75.984375 
L 18.40625 64.59375 
L 9.421875 64.59375 
z
" id="DejaVuSans-105"/>
      <path d="M 45.40625 46.390625 
L 45.40625 75.984375 
L 54.390625 75.984375 
L 54.390625 0 
L 45.40625 0 
L 45.40625 8.203125 
Q 42.578125 3.328125 38.25 0.953125 
Q 33.9375 -1.421875 27.875 -1.421875 
Q 17.96875 -1.421875 11.734375 6.484375 
Q 5.515625 14.40625 5.515625 27.296875 
Q 5.515625 40.1875 11.734375 48.09375 
Q 17.96875 56 27.875 56 
Q 33.9375 56 38.25 53.625 
Q 42.578125 51.265625 45.40625 46.390625 
z
M 14.796875 27.296875 
Q 14.796875 17.390625 18.875 11.75 
Q 22.953125 6.109375 30.078125 6.109375 
Q 37.203125 6.109375 41.296875 11.75 
Q 45.40625 17.390625 45.40625 27.296875 
Q 45.40625 37.203125 41.296875 42.84375 
Q 37.203125 48.484375 30.078125 48.484375 
Q 22.953125 48.484375 18.875 42.84375 
Q 14.796875 37.203125 14.796875 27.296875 
z
" id="DejaVuSans-100"/>
      <path d="M 54.890625 33.015625 
L 54.890625 0 
L 45.90625 0 
L 45.90625 32.71875 
Q 45.90625 40.484375 42.875 44.328125 
Q 39.84375 48.1875 33.796875 48.1875 
Q 26.515625 48.1875 22.3125 43.546875 
Q 18.109375 38.921875 18.109375 30.90625 
L 18.109375 0 
L 9.078125 0 
L 9.078125 54.6875 
L 18.109375 54.6875 
L 18.109375 46.1875 
Q 21.34375 51.125 25.703125 53.5625 
Q 30.078125 56 35.796875 56 
Q 45.21875 56 50.046875 50.171875 
Q 54.890625 44.34375 54.890625 33.015625 
z
" id="DejaVuSans-110"/>
     </defs>
     <g transform="translate(280.646875 226.242188)scale(0.1 -0.1)">
      <use xlink:href="#DejaVuSans-86"/>
      <use x="68.298828" xlink:href="#DejaVuSans-97"/>
      <use x="129.578125" xlink:href="#DejaVuSans-108"/>
      <use x="157.361328" xlink:href="#DejaVuSans-105"/>
      <use x="185.144531" xlink:href="#DejaVuSans-100"/>
      <use x="248.621094" xlink:href="#DejaVuSans-97"/>
      <use x="309.900391" xlink:href="#DejaVuSans-116"/>
      <use x="349.109375" xlink:href="#DejaVuSans-105"/>
      <use x="376.892578" xlink:href="#DejaVuSans-111"/>
      <use x="438.074219" xlink:href="#DejaVuSans-110"/>
      <use x="501.453125" xlink:href="#DejaVuSans-32"/>
      <use x="533.240234" xlink:href="#DejaVuSans-65"/>
      <use x="601.632812" xlink:href="#DejaVuSans-99"/>
      <use x="656.613281" xlink:href="#DejaVuSans-99"/>
      <use x="711.59375" xlink:href="#DejaVuSans-117"/>
      <use x="774.972656" xlink:href="#DejaVuSans-114"/>
      <use x="816.085938" xlink:href="#DejaVuSans-97"/>
      <use x="877.365234" xlink:href="#DejaVuSans-99"/>
      <use x="932.345703" xlink:href="#DejaVuSans-121"/>
     </g>
    </g>
    <g id="line2d_35">
     <path d="M 252.646875 237.420312 
L 272.646875 237.420312 
" style="fill:none;stroke:#ff0000;stroke-linecap:square;stroke-width:1.5;"/>
    </g>
    <g id="line2d_36"/>
    <g id="text_20">
     <!-- Test Accuracy -->
     <defs>
      <path d="M -0.296875 72.90625 
L 61.375 72.90625 
L 61.375 64.59375 
L 35.5 64.59375 
L 35.5 0 
L 25.59375 0 
L 25.59375 64.59375 
L -0.296875 64.59375 
z
" id="DejaVuSans-84"/>
     </defs>
     <g transform="translate(280.646875 240.920312)scale(0.1 -0.1)">
      <use xlink:href="#DejaVuSans-84"/>
      <use x="60.818359" xlink:href="#DejaVuSans-101"/>
      <use x="122.341797" xlink:href="#DejaVuSans-115"/>
      <use x="174.441406" xlink:href="#DejaVuSans-116"/>
      <use x="213.650391" xlink:href="#DejaVuSans-32"/>
      <use x="245.4375" xlink:href="#DejaVuSans-65"/>
      <use x="313.830078" xlink:href="#DejaVuSans-99"/>
      <use x="368.810547" xlink:href="#DejaVuSans-99"/>
      <use x="423.791016" xlink:href="#DejaVuSans-117"/>
      <use x="487.169922" xlink:href="#DejaVuSans-114"/>
      <use x="528.283203" xlink:href="#DejaVuSans-97"/>
      <use x="589.5625" xlink:href="#DejaVuSans-99"/>
      <use x="644.542969" xlink:href="#DejaVuSans-121"/>
     </g>
    </g>
   </g>
  </g>
 </g>
 <defs>
  <clipPath id="pad0fdad669">
   <rect height="217.44" width="334.8" x="54" y="34.56"/>
  </clipPath>
 </defs>
</svg>
