<?xml version="1.0" encoding="utf-8" standalone="no"?>
<!DOCTYPE svg PUBLIC "-//W3C//DTD SVG 1.1//EN"
  "http://www.w3.org/Graphics/SVG/1.1/DTD/svg11.dtd">
<!-- Created with matplotlib (https://matplotlib.org/) -->
<svg height="288pt" version="1.1" viewBox="0 0 432 288" width="432pt" xmlns="http://www.w3.org/2000/svg" xmlns:xlink="http://www.w3.org/1999/xlink">
 <defs>
  <style type="text/css">
*{stroke-linecap:butt;stroke-linejoin:round;}
  </style>
 </defs>
 <g id="figure_1">
  <g id="patch_1">
   <path d="M 0 288 
L 432 288 
L 432 0 
L 0 0 
z
" style="fill:#ffffff;"/>
  </g>
  <g id="axes_1">
   <g id="patch_2">
    <path d="M 54 252 
L 388.8 252 
L 388.8 34.56 
L 54 34.56 
z
" style="fill:#ffffff;"/>
   </g>
   <g id="matplotlib.axis_1">
    <g id="xtick_1">
     <g id="line2d_1">
      <path clip-path="url(#pf594a111eb)" d="M 69.218182 252 
L 69.218182 34.56 
" style="fill:none;stroke:#b0b0b0;stroke-dasharray:0.8,1.32;stroke-dashoffset:0;stroke-width:0.8;"/>
     </g>
     <g id="line2d_2">
      <defs>
       <path d="M 0 0 
L 0 3.5 
" id="m01162a4126" style="stroke:#000000;stroke-width:0.8;"/>
      </defs>
      <g>
       <use style="stroke:#000000;stroke-width:0.8;" x="69.218182" xlink:href="#m01162a4126" y="252"/>
      </g>
     </g>
     <g id="text_1">
      <!-- 0 -->
      <defs>
       <path d="M 31.78125 66.40625 
Q 24.171875 66.40625 20.328125 58.90625 
Q 16.5 51.421875 16.5 36.375 
Q 16.5 21.390625 20.328125 13.890625 
Q 24.171875 6.390625 31.78125 6.390625 
Q 39.453125 6.390625 43.28125 13.890625 
Q 47.125 21.390625 47.125 36.375 
Q 47.125 51.421875 43.28125 58.90625 
Q 39.453125 66.40625 31.78125 66.40625 
z
M 31.78125 74.21875 
Q 44.046875 74.21875 50.515625 64.515625 
Q 56.984375 54.828125 56.984375 36.375 
Q 56.984375 17.96875 50.515625 8.265625 
Q 44.046875 -1.421875 31.78125 -1.421875 
Q 19.53125 -1.421875 13.0625 8.265625 
Q 6.59375 17.96875 6.59375 36.375 
Q 6.59375 54.828125 13.0625 64.515625 
Q 19.53125 74.21875 31.78125 74.21875 
z
" id="DejaVuSans-48"/>
      </defs>
      <g transform="translate(66.036932 266.598437)scale(0.1 -0.1)">
       <use xlink:href="#DejaVuSans-48"/>
      </g>
     </g>
    </g>
    <g id="xtick_2">
     <g id="line2d_3">
      <path clip-path="url(#pf594a111eb)" d="M 112.823287 252 
L 112.823287 34.56 
" style="fill:none;stroke:#b0b0b0;stroke-dasharray:0.8,1.32;stroke-dashoffset:0;stroke-width:0.8;"/>
     </g>
     <g id="line2d_4">
      <g>
       <use style="stroke:#000000;stroke-width:0.8;" x="112.823287" xlink:href="#m01162a4126" y="252"/>
      </g>
     </g>
     <g id="text_2">
      <!-- 50 -->
      <defs>
       <path d="M 10.796875 72.90625 
L 49.515625 72.90625 
L 49.515625 64.59375 
L 19.828125 64.59375 
L 19.828125 46.734375 
Q 21.96875 47.46875 24.109375 47.828125 
Q 26.265625 48.1875 28.421875 48.1875 
Q 40.625 48.1875 47.75 41.5 
Q 54.890625 34.8125 54.890625 23.390625 
Q 54.890625 11.625 47.5625 5.09375 
Q 40.234375 -1.421875 26.90625 -1.421875 
Q 22.3125 -1.421875 17.546875 -0.640625 
Q 12.796875 0.140625 7.71875 1.703125 
L 7.71875 11.625 
Q 12.109375 9.234375 16.796875 8.0625 
Q 21.484375 6.890625 26.703125 6.890625 
Q 35.15625 6.890625 40.078125 11.328125 
Q 45.015625 15.765625 45.015625 23.390625 
Q 45.015625 31 40.078125 35.4375 
Q 35.15625 39.890625 26.703125 39.890625 
Q 22.75 39.890625 18.8125 39.015625 
Q 14.890625 38.140625 10.796875 36.28125 
z
" id="DejaVuSans-53"/>
      </defs>
      <g transform="translate(106.460787 266.598437)scale(0.1 -0.1)">
       <use xlink:href="#DejaVuSans-53"/>
       <use x="63.623047" xlink:href="#DejaVuSans-48"/>
      </g>
     </g>
    </g>
    <g id="xtick_3">
     <g id="line2d_5">
      <path clip-path="url(#pf594a111eb)" d="M 156.428393 252 
L 156.428393 34.56 
" style="fill:none;stroke:#b0b0b0;stroke-dasharray:0.8,1.32;stroke-dashoffset:0;stroke-width:0.8;"/>
     </g>
     <g id="line2d_6">
      <g>
       <use style="stroke:#000000;stroke-width:0.8;" x="156.428393" xlink:href="#m01162a4126" y="252"/>
      </g>
     </g>
     <g id="text_3">
      <!-- 100 -->
      <defs>
       <path d="M 12.40625 8.296875 
L 28.515625 8.296875 
L 28.515625 63.921875 
L 10.984375 60.40625 
L 10.984375 69.390625 
L 28.421875 72.90625 
L 38.28125 72.90625 
L 38.28125 8.296875 
L 54.390625 8.296875 
L 54.390625 0 
L 12.40625 0 
z
" id="DejaVuSans-49"/>
      </defs>
      <g transform="translate(146.884643 266.598437)scale(0.1 -0.1)">
       <use xlink:href="#DejaVuSans-49"/>
       <use x="63.623047" xlink:href="#DejaVuSans-48"/>
       <use x="127.246094" xlink:href="#DejaVuSans-48"/>
      </g>
     </g>
    </g>
    <g id="xtick_4">
     <g id="line2d_7">
      <path clip-path="url(#pf594a111eb)" d="M 200.033498 252 
L 200.033498 34.56 
" style="fill:none;stroke:#b0b0b0;stroke-dasharray:0.8,1.32;stroke-dashoffset:0;stroke-width:0.8;"/>
     </g>
     <g id="line2d_8">
      <g>
       <use style="stroke:#000000;stroke-width:0.8;" x="200.033498" xlink:href="#m01162a4126" y="252"/>
      </g>
     </g>
     <g id="text_4">
      <!-- 150 -->
      <g transform="translate(190.489748 266.598437)scale(0.1 -0.1)">
       <use xlink:href="#DejaVuSans-49"/>
       <use x="63.623047" xlink:href="#DejaVuSans-53"/>
       <use x="127.246094" xlink:href="#DejaVuSans-48"/>
      </g>
     </g>
    </g>
    <g id="xtick_5">
     <g id="line2d_9">
      <path clip-path="url(#pf594a111eb)" d="M 243.638604 252 
L 243.638604 34.56 
" style="fill:none;stroke:#b0b0b0;stroke-dasharray:0.8,1.32;stroke-dashoffset:0;stroke-width:0.8;"/>
     </g>
     <g id="line2d_10">
      <g>
       <use style="stroke:#000000;stroke-width:0.8;" x="243.638604" xlink:href="#m01162a4126" y="252"/>
      </g>
     </g>
     <g id="text_5">
      <!-- 200 -->
      <defs>
       <path d="M 19.1875 8.296875 
L 53.609375 8.296875 
L 53.609375 0 
L 7.328125 0 
L 7.328125 8.296875 
Q 12.9375 14.109375 22.625 23.890625 
Q 32.328125 33.6875 34.8125 36.53125 
Q 39.546875 41.84375 41.421875 45.53125 
Q 43.3125 49.21875 43.3125 52.78125 
Q 43.3125 58.59375 39.234375 62.25 
Q 35.15625 65.921875 28.609375 65.921875 
Q 23.96875 65.921875 18.8125 64.3125 
Q 13.671875 62.703125 7.8125 59.421875 
L 7.8125 69.390625 
Q 13.765625 71.78125 18.9375 73 
Q 24.125 74.21875 28.421875 74.21875 
Q 39.75 74.21875 46.484375 68.546875 
Q 53.21875 62.890625 53.21875 53.421875 
Q 53.21875 48.921875 51.53125 44.890625 
Q 49.859375 40.875 45.40625 35.40625 
Q 44.1875 33.984375 37.640625 27.21875 
Q 31.109375 20.453125 19.1875 8.296875 
z
" id="DejaVuSans-50"/>
      </defs>
      <g transform="translate(234.094854 266.598437)scale(0.1 -0.1)">
       <use xlink:href="#DejaVuSans-50"/>
       <use x="63.623047" xlink:href="#DejaVuSans-48"/>
       <use x="127.246094" xlink:href="#DejaVuSans-48"/>
      </g>
     </g>
    </g>
    <g id="xtick_6">
     <g id="line2d_11">
      <path clip-path="url(#pf594a111eb)" d="M 287.243709 252 
L 287.243709 34.56 
" style="fill:none;stroke:#b0b0b0;stroke-dasharray:0.8,1.32;stroke-dashoffset:0;stroke-width:0.8;"/>
     </g>
     <g id="line2d_12">
      <g>
       <use style="stroke:#000000;stroke-width:0.8;" x="287.243709" xlink:href="#m01162a4126" y="252"/>
      </g>
     </g>
     <g id="text_6">
      <!-- 250 -->
      <g transform="translate(277.699959 266.598437)scale(0.1 -0.1)">
       <use xlink:href="#DejaVuSans-50"/>
       <use x="63.623047" xlink:href="#DejaVuSans-53"/>
       <use x="127.246094" xlink:href="#DejaVuSans-48"/>
      </g>
     </g>
    </g>
    <g id="xtick_7">
     <g id="line2d_13">
      <path clip-path="url(#pf594a111eb)" d="M 330.848815 252 
L 330.848815 34.56 
" style="fill:none;stroke:#b0b0b0;stroke-dasharray:0.8,1.32;stroke-dashoffset:0;stroke-width:0.8;"/>
     </g>
     <g id="line2d_14">
      <g>
       <use style="stroke:#000000;stroke-width:0.8;" x="330.848815" xlink:href="#m01162a4126" y="252"/>
      </g>
     </g>
     <g id="text_7">
      <!-- 300 -->
      <defs>
       <path d="M 40.578125 39.3125 
Q 47.65625 37.796875 51.625 33 
Q 55.609375 28.21875 55.609375 21.1875 
Q 55.609375 10.40625 48.1875 4.484375 
Q 40.765625 -1.421875 27.09375 -1.421875 
Q 22.515625 -1.421875 17.65625 -0.515625 
Q 12.796875 0.390625 7.625 2.203125 
L 7.625 11.71875 
Q 11.71875 9.328125 16.59375 8.109375 
Q 21.484375 6.890625 26.8125 6.890625 
Q 36.078125 6.890625 40.9375 10.546875 
Q 45.796875 14.203125 45.796875 21.1875 
Q 45.796875 27.640625 41.28125 31.265625 
Q 36.765625 34.90625 28.71875 34.90625 
L 20.21875 34.90625 
L 20.21875 43.015625 
L 29.109375 43.015625 
Q 36.375 43.015625 40.234375 45.921875 
Q 44.09375 48.828125 44.09375 54.296875 
Q 44.09375 59.90625 40.109375 62.90625 
Q 36.140625 65.921875 28.71875 65.921875 
Q 24.65625 65.921875 20.015625 65.03125 
Q 15.375 64.15625 9.8125 62.3125 
L 9.8125 71.09375 
Q 15.4375 72.65625 20.34375 73.4375 
Q 25.25 74.21875 29.59375 74.21875 
Q 40.828125 74.21875 47.359375 69.109375 
Q 53.90625 64.015625 53.90625 55.328125 
Q 53.90625 49.265625 50.4375 45.09375 
Q 46.96875 40.921875 40.578125 39.3125 
z
" id="DejaVuSans-51"/>
      </defs>
      <g transform="translate(321.305065 266.598437)scale(0.1 -0.1)">
       <use xlink:href="#DejaVuSans-51"/>
       <use x="63.623047" xlink:href="#DejaVuSans-48"/>
       <use x="127.246094" xlink:href="#DejaVuSans-48"/>
      </g>
     </g>
    </g>
    <g id="xtick_8">
     <g id="line2d_15">
      <path clip-path="url(#pf594a111eb)" d="M 374.45392 252 
L 374.45392 34.56 
" style="fill:none;stroke:#b0b0b0;stroke-dasharray:0.8,1.32;stroke-dashoffset:0;stroke-width:0.8;"/>
     </g>
     <g id="line2d_16">
      <g>
       <use style="stroke:#000000;stroke-width:0.8;" x="374.45392" xlink:href="#m01162a4126" y="252"/>
      </g>
     </g>
     <g id="text_8">
      <!-- 350 -->
      <g transform="translate(364.91017 266.598437)scale(0.1 -0.1)">
       <use xlink:href="#DejaVuSans-51"/>
       <use x="63.623047" xlink:href="#DejaVuSans-53"/>
       <use x="127.246094" xlink:href="#DejaVuSans-48"/>
      </g>
     </g>
    </g>
    <g id="text_9">
     <!-- Epochs -->
     <defs>
      <path d="M 9.8125 72.90625 
L 55.90625 72.90625 
L 55.90625 64.59375 
L 19.671875 64.59375 
L 19.671875 43.015625 
L 54.390625 43.015625 
L 54.390625 34.71875 
L 19.671875 34.71875 
L 19.671875 8.296875 
L 56.78125 8.296875 
L 56.78125 0 
L 9.8125 0 
z
" id="DejaVuSans-69"/>
      <path d="M 18.109375 8.203125 
L 18.109375 -20.796875 
L 9.078125 -20.796875 
L 9.078125 54.6875 
L 18.109375 54.6875 
L 18.109375 46.390625 
Q 20.953125 51.265625 25.265625 53.625 
Q 29.59375 56 35.59375 56 
Q 45.5625 56 51.78125 48.09375 
Q 58.015625 40.1875 58.015625 27.296875 
Q 58.015625 14.40625 51.78125 6.484375 
Q 45.5625 -1.421875 35.59375 -1.421875 
Q 29.59375 -1.421875 25.265625 0.953125 
Q 20.953125 3.328125 18.109375 8.203125 
z
M 48.6875 27.296875 
Q 48.6875 37.203125 44.609375 42.84375 
Q 40.53125 48.484375 33.40625 48.484375 
Q 26.265625 48.484375 22.1875 42.84375 
Q 18.109375 37.203125 18.109375 27.296875 
Q 18.109375 17.390625 22.1875 11.75 
Q 26.265625 6.109375 33.40625 6.109375 
Q 40.53125 6.109375 44.609375 11.75 
Q 48.6875 17.390625 48.6875 27.296875 
z
" id="DejaVuSans-112"/>
      <path d="M 30.609375 48.390625 
Q 23.390625 48.390625 19.1875 42.75 
Q 14.984375 37.109375 14.984375 27.296875 
Q 14.984375 17.484375 19.15625 11.84375 
Q 23.34375 6.203125 30.609375 6.203125 
Q 37.796875 6.203125 41.984375 11.859375 
Q 46.1875 17.53125 46.1875 27.296875 
Q 46.1875 37.015625 41.984375 42.703125 
Q 37.796875 48.390625 30.609375 48.390625 
z
M 30.609375 56 
Q 42.328125 56 49.015625 48.375 
Q 55.71875 40.765625 55.71875 27.296875 
Q 55.71875 13.875 49.015625 6.21875 
Q 42.328125 -1.421875 30.609375 -1.421875 
Q 18.84375 -1.421875 12.171875 6.21875 
Q 5.515625 13.875 5.515625 27.296875 
Q 5.515625 40.765625 12.171875 48.375 
Q 18.84375 56 30.609375 56 
z
" id="DejaVuSans-111"/>
      <path d="M 48.78125 52.59375 
L 48.78125 44.1875 
Q 44.96875 46.296875 41.140625 47.34375 
Q 37.3125 48.390625 33.40625 48.390625 
Q 24.65625 48.390625 19.8125 42.84375 
Q 14.984375 37.3125 14.984375 27.296875 
Q 14.984375 17.28125 19.8125 11.734375 
Q 24.65625 6.203125 33.40625 6.203125 
Q 37.3125 6.203125 41.140625 7.25 
Q 44.96875 8.296875 48.78125 10.40625 
L 48.78125 2.09375 
Q 45.015625 0.34375 40.984375 -0.53125 
Q 36.96875 -1.421875 32.421875 -1.421875 
Q 20.0625 -1.421875 12.78125 6.34375 
Q 5.515625 14.109375 5.515625 27.296875 
Q 5.515625 40.671875 12.859375 48.328125 
Q 20.21875 56 33.015625 56 
Q 37.15625 56 41.109375 55.140625 
Q 45.0625 54.296875 48.78125 52.59375 
z
" id="DejaVuSans-99"/>
      <path d="M 54.890625 33.015625 
L 54.890625 0 
L 45.90625 0 
L 45.90625 32.71875 
Q 45.90625 40.484375 42.875 44.328125 
Q 39.84375 48.1875 33.796875 48.1875 
Q 26.515625 48.1875 22.3125 43.546875 
Q 18.109375 38.921875 18.109375 30.90625 
L 18.109375 0 
L 9.078125 0 
L 9.078125 75.984375 
L 18.109375 75.984375 
L 18.109375 46.1875 
Q 21.34375 51.125 25.703125 53.5625 
Q 30.078125 56 35.796875 56 
Q 45.21875 56 50.046875 50.171875 
Q 54.890625 44.34375 54.890625 33.015625 
z
" id="DejaVuSans-104"/>
      <path d="M 44.28125 53.078125 
L 44.28125 44.578125 
Q 40.484375 46.53125 36.375 47.5 
Q 32.28125 48.484375 27.875 48.484375 
Q 21.1875 48.484375 17.84375 46.4375 
Q 14.5 44.390625 14.5 40.28125 
Q 14.5 37.15625 16.890625 35.375 
Q 19.28125 33.59375 26.515625 31.984375 
L 29.59375 31.296875 
Q 39.15625 29.25 43.1875 25.515625 
Q 47.21875 21.78125 47.21875 15.09375 
Q 47.21875 7.46875 41.1875 3.015625 
Q 35.15625 -1.421875 24.609375 -1.421875 
Q 20.21875 -1.421875 15.453125 -0.5625 
Q 10.6875 0.296875 5.421875 2 
L 5.421875 11.28125 
Q 10.40625 8.6875 15.234375 7.390625 
Q 20.0625 6.109375 24.8125 6.109375 
Q 31.15625 6.109375 34.5625 8.28125 
Q 37.984375 10.453125 37.984375 14.40625 
Q 37.984375 18.0625 35.515625 20.015625 
Q 33.0625 21.96875 24.703125 23.78125 
L 21.578125 24.515625 
Q 13.234375 26.265625 9.515625 29.90625 
Q 5.8125 33.546875 5.8125 39.890625 
Q 5.8125 47.609375 11.28125 51.796875 
Q 16.75 56 26.8125 56 
Q 31.78125 56 36.171875 55.265625 
Q 40.578125 54.546875 44.28125 53.078125 
z
" id="DejaVuSans-115"/>
     </defs>
     <g transform="translate(203.484375 280.276563)scale(0.1 -0.1)">
      <use xlink:href="#DejaVuSans-69"/>
      <use x="63.183594" xlink:href="#DejaVuSans-112"/>
      <use x="126.660156" xlink:href="#DejaVuSans-111"/>
      <use x="187.841797" xlink:href="#DejaVuSans-99"/>
      <use x="242.822266" xlink:href="#DejaVuSans-104"/>
      <use x="306.201172" xlink:href="#DejaVuSans-115"/>
     </g>
    </g>
   </g>
   <g id="matplotlib.axis_2">
    <g id="ytick_1">
     <g id="line2d_17">
      <path clip-path="url(#pf594a111eb)" d="M 54 217.642597 
L 388.8 217.642597 
" style="fill:none;stroke:#b0b0b0;stroke-dasharray:0.8,1.32;stroke-dashoffset:0;stroke-width:0.8;"/>
     </g>
     <g id="line2d_18">
      <defs>
       <path d="M 0 0 
L -3.5 0 
" id="m437c608b12" style="stroke:#000000;stroke-width:0.8;"/>
      </defs>
      <g>
       <use style="stroke:#000000;stroke-width:0.8;" x="54" xlink:href="#m437c608b12" y="217.642597"/>
      </g>
     </g>
     <g id="text_10">
      <!-- 20 -->
      <g transform="translate(34.275 221.441816)scale(0.1 -0.1)">
       <use xlink:href="#DejaVuSans-50"/>
       <use x="63.623047" xlink:href="#DejaVuSans-48"/>
      </g>
     </g>
    </g>
    <g id="ytick_2">
     <g id="line2d_19">
      <path clip-path="url(#pf594a111eb)" d="M 54 169.448104 
L 388.8 169.448104 
" style="fill:none;stroke:#b0b0b0;stroke-dasharray:0.8,1.32;stroke-dashoffset:0;stroke-width:0.8;"/>
     </g>
     <g id="line2d_20">
      <g>
       <use style="stroke:#000000;stroke-width:0.8;" x="54" xlink:href="#m437c608b12" y="169.448104"/>
      </g>
     </g>
     <g id="text_11">
      <!-- 40 -->
      <defs>
       <path d="M 37.796875 64.3125 
L 12.890625 25.390625 
L 37.796875 25.390625 
z
M 35.203125 72.90625 
L 47.609375 72.90625 
L 47.609375 25.390625 
L 58.015625 25.390625 
L 58.015625 17.1875 
L 47.609375 17.1875 
L 47.609375 0 
L 37.796875 0 
L 37.796875 17.1875 
L 4.890625 17.1875 
L 4.890625 26.703125 
z
" id="DejaVuSans-52"/>
      </defs>
      <g transform="translate(34.275 173.247323)scale(0.1 -0.1)">
       <use xlink:href="#DejaVuSans-52"/>
       <use x="63.623047" xlink:href="#DejaVuSans-48"/>
      </g>
     </g>
    </g>
    <g id="ytick_3">
     <g id="line2d_21">
      <path clip-path="url(#pf594a111eb)" d="M 54 121.25361 
L 388.8 121.25361 
" style="fill:none;stroke:#b0b0b0;stroke-dasharray:0.8,1.32;stroke-dashoffset:0;stroke-width:0.8;"/>
     </g>
     <g id="line2d_22">
      <g>
       <use style="stroke:#000000;stroke-width:0.8;" x="54" xlink:href="#m437c608b12" y="121.25361"/>
      </g>
     </g>
     <g id="text_12">
      <!-- 60 -->
      <defs>
       <path d="M 33.015625 40.375 
Q 26.375 40.375 22.484375 35.828125 
Q 18.609375 31.296875 18.609375 23.390625 
Q 18.609375 15.53125 22.484375 10.953125 
Q 26.375 6.390625 33.015625 6.390625 
Q 39.65625 6.390625 43.53125 10.953125 
Q 47.40625 15.53125 47.40625 23.390625 
Q 47.40625 31.296875 43.53125 35.828125 
Q 39.65625 40.375 33.015625 40.375 
z
M 52.59375 71.296875 
L 52.59375 62.3125 
Q 48.875 64.0625 45.09375 64.984375 
Q 41.3125 65.921875 37.59375 65.921875 
Q 27.828125 65.921875 22.671875 59.328125 
Q 17.53125 52.734375 16.796875 39.40625 
Q 19.671875 43.65625 24.015625 45.921875 
Q 28.375 48.1875 33.59375 48.1875 
Q 44.578125 48.1875 50.953125 41.515625 
Q 57.328125 34.859375 57.328125 23.390625 
Q 57.328125 12.15625 50.6875 5.359375 
Q 44.046875 -1.421875 33.015625 -1.421875 
Q 20.359375 -1.421875 13.671875 8.265625 
Q 6.984375 17.96875 6.984375 36.375 
Q 6.984375 53.65625 15.1875 63.9375 
Q 23.390625 74.21875 37.203125 74.21875 
Q 40.921875 74.21875 44.703125 73.484375 
Q 48.484375 72.75 52.59375 71.296875 
z
" id="DejaVuSans-54"/>
      </defs>
      <g transform="translate(34.275 125.052829)scale(0.1 -0.1)">
       <use xlink:href="#DejaVuSans-54"/>
       <use x="63.623047" xlink:href="#DejaVuSans-48"/>
      </g>
     </g>
    </g>
    <g id="ytick_4">
     <g id="line2d_23">
      <path clip-path="url(#pf594a111eb)" d="M 54 73.059117 
L 388.8 73.059117 
" style="fill:none;stroke:#b0b0b0;stroke-dasharray:0.8,1.32;stroke-dashoffset:0;stroke-width:0.8;"/>
     </g>
     <g id="line2d_24">
      <g>
       <use style="stroke:#000000;stroke-width:0.8;" x="54" xlink:href="#m437c608b12" y="73.059117"/>
      </g>
     </g>
     <g id="text_13">
      <!-- 80 -->
      <defs>
       <path d="M 31.78125 34.625 
Q 24.75 34.625 20.71875 30.859375 
Q 16.703125 27.09375 16.703125 20.515625 
Q 16.703125 13.921875 20.71875 10.15625 
Q 24.75 6.390625 31.78125 6.390625 
Q 38.8125 6.390625 42.859375 10.171875 
Q 46.921875 13.96875 46.921875 20.515625 
Q 46.921875 27.09375 42.890625 30.859375 
Q 38.875 34.625 31.78125 34.625 
z
M 21.921875 38.8125 
Q 15.578125 40.375 12.03125 44.71875 
Q 8.5 49.078125 8.5 55.328125 
Q 8.5 64.0625 14.71875 69.140625 
Q 20.953125 74.21875 31.78125 74.21875 
Q 42.671875 74.21875 48.875 69.140625 
Q 55.078125 64.0625 55.078125 55.328125 
Q 55.078125 49.078125 51.53125 44.71875 
Q 48 40.375 41.703125 38.8125 
Q 48.828125 37.15625 52.796875 32.3125 
Q 56.78125 27.484375 56.78125 20.515625 
Q 56.78125 9.90625 50.3125 4.234375 
Q 43.84375 -1.421875 31.78125 -1.421875 
Q 19.734375 -1.421875 13.25 4.234375 
Q 6.78125 9.90625 6.78125 20.515625 
Q 6.78125 27.484375 10.78125 32.3125 
Q 14.796875 37.15625 21.921875 38.8125 
z
M 18.3125 54.390625 
Q 18.3125 48.734375 21.84375 45.5625 
Q 25.390625 42.390625 31.78125 42.390625 
Q 38.140625 42.390625 41.71875 45.5625 
Q 45.3125 48.734375 45.3125 54.390625 
Q 45.3125 60.0625 41.71875 63.234375 
Q 38.140625 66.40625 31.78125 66.40625 
Q 25.390625 66.40625 21.84375 63.234375 
Q 18.3125 60.0625 18.3125 54.390625 
z
" id="DejaVuSans-56"/>
      </defs>
      <g transform="translate(34.275 76.858336)scale(0.1 -0.1)">
       <use xlink:href="#DejaVuSans-56"/>
       <use x="63.623047" xlink:href="#DejaVuSans-48"/>
      </g>
     </g>
    </g>
    <g id="text_14">
     <!-- Accuracy -->
     <defs>
      <path d="M 34.1875 63.1875 
L 20.796875 26.90625 
L 47.609375 26.90625 
z
M 28.609375 72.90625 
L 39.796875 72.90625 
L 67.578125 0 
L 57.328125 0 
L 50.6875 18.703125 
L 17.828125 18.703125 
L 11.1875 0 
L 0.78125 0 
z
" id="DejaVuSans-65"/>
      <path d="M 8.5 21.578125 
L 8.5 54.6875 
L 17.484375 54.6875 
L 17.484375 21.921875 
Q 17.484375 14.15625 20.5 10.265625 
Q 23.53125 6.390625 29.59375 6.390625 
Q 36.859375 6.390625 41.078125 11.03125 
Q 45.3125 15.671875 45.3125 23.6875 
L 45.3125 54.6875 
L 54.296875 54.6875 
L 54.296875 0 
L 45.3125 0 
L 45.3125 8.40625 
Q 42.046875 3.421875 37.71875 1 
Q 33.40625 -1.421875 27.6875 -1.421875 
Q 18.265625 -1.421875 13.375 4.4375 
Q 8.5 10.296875 8.5 21.578125 
z
M 31.109375 56 
z
" id="DejaVuSans-117"/>
      <path d="M 41.109375 46.296875 
Q 39.59375 47.171875 37.8125 47.578125 
Q 36.03125 48 33.890625 48 
Q 26.265625 48 22.1875 43.046875 
Q 18.109375 38.09375 18.109375 28.8125 
L 18.109375 0 
L 9.078125 0 
L 9.078125 54.6875 
L 18.109375 54.6875 
L 18.109375 46.1875 
Q 20.953125 51.171875 25.484375 53.578125 
Q 30.03125 56 36.53125 56 
Q 37.453125 56 38.578125 55.875 
Q 39.703125 55.765625 41.0625 55.515625 
z
" id="DejaVuSans-114"/>
      <path d="M 34.28125 27.484375 
Q 23.390625 27.484375 19.1875 25 
Q 14.984375 22.515625 14.984375 16.5 
Q 14.984375 11.71875 18.140625 8.90625 
Q 21.296875 6.109375 26.703125 6.109375 
Q 34.1875 6.109375 38.703125 11.40625 
Q 43.21875 16.703125 43.21875 25.484375 
L 43.21875 27.484375 
z
M 52.203125 31.203125 
L 52.203125 0 
L 43.21875 0 
L 43.21875 8.296875 
Q 40.140625 3.328125 35.546875 0.953125 
Q 30.953125 -1.421875 24.3125 -1.421875 
Q 15.921875 -1.421875 10.953125 3.296875 
Q 6 8.015625 6 15.921875 
Q 6 25.140625 12.171875 29.828125 
Q 18.359375 34.515625 30.609375 34.515625 
L 43.21875 34.515625 
L 43.21875 35.40625 
Q 43.21875 41.609375 39.140625 45 
Q 35.0625 48.390625 27.6875 48.390625 
Q 23 48.390625 18.546875 47.265625 
Q 14.109375 46.140625 10.015625 43.890625 
L 10.015625 52.203125 
Q 14.9375 54.109375 19.578125 55.046875 
Q 24.21875 56 28.609375 56 
Q 40.484375 56 46.34375 49.84375 
Q 52.203125 43.703125 52.203125 31.203125 
z
" id="DejaVuSans-97"/>
      <path d="M 32.171875 -5.078125 
Q 28.375 -14.84375 24.75 -17.8125 
Q 21.140625 -20.796875 15.09375 -20.796875 
L 7.90625 -20.796875 
L 7.90625 -13.28125 
L 13.1875 -13.28125 
Q 16.890625 -13.28125 18.9375 -11.515625 
Q 21 -9.765625 23.484375 -3.21875 
L 25.09375 0.875 
L 2.984375 54.6875 
L 12.5 54.6875 
L 29.59375 11.921875 
L 46.6875 54.6875 
L 56.203125 54.6875 
z
" id="DejaVuSans-121"/>
     </defs>
     <g transform="translate(28.195312 166.194844)rotate(-90)scale(0.1 -0.1)">
      <use xlink:href="#DejaVuSans-65"/>
      <use x="68.392578" xlink:href="#DejaVuSans-99"/>
      <use x="123.373047" xlink:href="#DejaVuSans-99"/>
      <use x="178.353516" xlink:href="#DejaVuSans-117"/>
      <use x="241.732422" xlink:href="#DejaVuSans-114"/>
      <use x="282.845703" xlink:href="#DejaVuSans-97"/>
      <use x="344.125" xlink:href="#DejaVuSans-99"/>
      <use x="399.105469" xlink:href="#DejaVuSans-121"/>
     </g>
    </g>
   </g>
   <g id="line2d_25">
    <path clip-path="url(#pf594a111eb)" d="M 69.218182 242.116364 
L 70.090284 237.22161 
L 70.962386 219.525195 
L 72.70659 206.723532 
L 73.578692 199.193143 
L 74.450794 207.853091 
L 75.322897 198.063584 
L 76.194999 197.687065 
L 77.067101 189.403636 
L 77.939203 190.909714 
L 78.811305 181.873247 
L 79.683407 176.978494 
L 80.555509 169.071584 
L 82.299713 161.164675 
L 83.171816 160.788156 
L 84.043918 148.363013 
L 84.91602 143.09174 
L 85.788122 135.184831 
L 86.660224 133.678753 
L 87.532326 132.925714 
L 88.404428 132.925714 
L 89.27653 122.759688 
L 90.148632 124.265766 
L 91.020735 114.47626 
L 91.892837 110.334545 
L 92.764939 113.723221 
L 93.637041 103.557195 
L 94.509143 105.816312 
L 95.381245 97.909403 
L 96.253347 94.144208 
L 97.125449 97.156364 
L 97.997551 101.298078 
L 98.869654 88.119896 
L 99.741756 90.755532 
L 100.613858 89.625974 
L 101.48596 91.132052 
L 102.358062 84.731221 
L 103.230164 83.225143 
L 104.102266 88.496416 
L 104.974368 80.589506 
L 105.84647 84.731221 
L 106.718573 82.095584 
L 107.590675 80.589506 
L 108.462777 78.33039 
L 109.334879 73.812156 
L 110.206981 76.824312 
L 111.079083 76.071273 
L 111.951185 76.824312 
L 112.823287 73.059117 
L 113.695389 79.836468 
L 114.567492 71.929558 
L 115.439594 70.046961 
L 117.183798 63.64613 
L 118.0559 67.411325 
L 118.928002 68.917403 
L 119.800104 70.046961 
L 120.672206 68.540883 
L 121.544308 69.293922 
L 122.416411 71.553039 
L 123.288513 67.411325 
L 124.160615 71.929558 
L 125.032717 69.293922 
L 126.776921 67.787844 
L 127.649023 65.152208 
L 128.521125 63.26961 
L 129.393227 72.682597 
L 130.26533 66.281766 
L 131.137432 66.658286 
L 132.009534 61.387013 
L 132.881636 63.26961 
L 133.753738 70.8 
L 134.62584 61.387013 
L 135.497942 70.8 
L 136.370044 59.127896 
L 137.242146 59.127896 
L 138.986351 66.281766 
L 139.858453 59.127896 
L 140.730555 62.893091 
L 141.602657 58.374857 
L 142.474759 59.880935 
L 143.346861 62.516571 
L 144.218963 57.245299 
L 145.091065 58.751377 
L 145.963167 61.763532 
L 146.83527 59.504416 
L 147.707372 56.49226 
L 148.579474 57.245299 
L 149.451576 61.010494 
L 150.323678 62.140052 
L 151.19578 54.609662 
L 152.067882 56.49226 
L 152.939984 59.504416 
L 153.812086 60.633974 
L 154.684189 57.621818 
L 155.556291 56.868779 
L 156.428393 52.727065 
L 157.300495 59.127896 
L 158.172597 60.633974 
L 159.044699 58.374857 
L 159.916801 58.751377 
L 160.788903 56.49226 
L 161.661005 57.245299 
L 162.533108 63.64613 
L 163.40521 56.868779 
L 164.277312 55.362701 
L 165.149414 56.868779 
L 166.021516 59.127896 
L 166.893618 56.868779 
L 167.76572 55.739221 
L 168.637822 57.245299 
L 169.509924 59.880935 
L 170.382027 56.11574 
L 171.254129 53.480104 
L 172.126231 56.868779 
L 172.998333 55.362701 
L 174.742537 59.880935 
L 175.614639 50.091429 
L 176.486741 52.350545 
L 177.358843 56.11574 
L 178.230946 53.480104 
L 179.103048 47.832312 
L 179.97515 49.33839 
L 180.847252 51.220987 
L 181.719354 56.49226 
L 182.591456 51.974026 
L 183.463558 52.727065 
L 184.33566 56.11574 
L 185.207762 53.103584 
L 186.079865 56.11574 
L 186.951967 51.974026 
L 187.824069 53.480104 
L 188.696171 51.974026 
L 189.568273 52.727065 
L 190.440375 52.727065 
L 191.312477 50.467948 
L 192.184579 48.96187 
L 193.056681 54.609662 
L 193.928784 54.609662 
L 194.800886 51.597506 
L 195.672988 50.467948 
L 196.54509 47.079273 
L 197.417192 52.727065 
L 198.289294 52.350545 
L 199.161396 48.96187 
L 200.033498 50.467948 
L 200.9056 49.33839 
L 201.777703 48.96187 
L 202.649805 56.11574 
L 203.521907 51.597506 
L 204.394009 47.832312 
L 205.266111 50.844468 
L 206.138213 48.96187 
L 207.010315 51.220987 
L 207.882417 52.727065 
L 208.754519 46.326234 
L 209.626622 51.974026 
L 210.498724 50.091429 
L 211.370826 47.832312 
L 212.242928 56.11574 
L 213.11503 49.714909 
L 213.987132 50.844468 
L 214.859234 47.079273 
L 215.731336 53.103584 
L 216.603438 49.33839 
L 217.475541 51.597506 
L 218.347643 54.609662 
L 219.219745 51.597506 
L 220.091847 54.986182 
L 220.963949 54.609662 
L 221.836051 47.832312 
L 222.708153 54.233143 
L 223.580255 53.480104 
L 224.452357 53.480104 
L 225.324459 53.103584 
L 226.196562 52.350545 
L 227.068664 54.986182 
L 227.940766 57.245299 
L 228.812868 51.220987 
L 229.68497 52.727065 
L 230.557072 53.103584 
L 231.429174 51.597506 
L 232.301276 50.467948 
L 233.173378 48.208831 
L 234.045481 51.220987 
L 234.917583 49.714909 
L 235.789685 51.220987 
L 236.661787 49.714909 
L 237.533889 50.467948 
L 238.405991 46.702753 
L 239.278093 50.467948 
L 240.150195 48.208831 
L 241.022297 46.326234 
L 241.8944 56.868779 
L 242.766502 48.96187 
L 243.638604 47.832312 
L 244.510706 51.597506 
L 245.382808 52.727065 
L 246.25491 47.832312 
L 247.127012 56.868779 
L 247.999114 50.844468 
L 248.871216 48.585351 
L 249.743319 53.480104 
L 250.615421 49.714909 
L 251.487523 53.103584 
L 252.359625 48.585351 
L 253.231727 51.220987 
L 254.103829 48.208831 
L 254.975931 50.467948 
L 255.848033 52.350545 
L 256.720135 50.467948 
L 257.592238 50.467948 
L 258.46434 46.702753 
L 259.336442 57.998338 
L 260.208544 53.856623 
L 261.080646 51.220987 
L 261.952748 51.597506 
L 262.82485 48.208831 
L 263.696952 51.597506 
L 264.569054 50.844468 
L 265.441157 50.844468 
L 266.313259 51.597506 
L 267.185361 50.844468 
L 268.057463 48.96187 
L 268.929565 51.220987 
L 269.801667 48.96187 
L 270.673769 47.455792 
L 271.545871 51.974026 
L 272.417973 50.467948 
L 273.290076 50.091429 
L 274.162178 51.597506 
L 275.03428 47.832312 
L 275.906382 48.585351 
L 276.778484 48.208831 
L 277.650586 46.326234 
L 278.522688 53.103584 
L 279.39479 46.702753 
L 280.266892 49.714909 
L 281.138995 47.455792 
L 282.011097 49.33839 
L 282.883199 52.727065 
L 283.755301 47.832312 
L 284.627403 53.480104 
L 285.499505 50.844468 
L 286.371607 52.350545 
L 287.243709 56.868779 
L 288.115811 55.362701 
L 288.987914 50.091429 
L 289.860016 53.103584 
L 290.732118 49.714909 
L 291.60422 50.467948 
L 292.476322 51.974026 
L 293.348424 48.585351 
L 295.092628 50.844468 
L 295.96473 50.091429 
L 296.836833 47.079273 
L 297.708935 52.350545 
L 298.581037 53.856623 
L 299.453139 47.832312 
L 300.325241 51.974026 
L 301.197343 51.974026 
L 302.069445 48.96187 
L 302.941547 54.986182 
L 303.813649 48.208831 
L 304.685751 50.844468 
L 305.557854 52.350545 
L 306.429956 51.220987 
L 307.302058 44.443636 
L 308.17416 47.455792 
L 309.046262 56.11574 
L 309.918364 51.220987 
L 310.790466 54.233143 
L 311.662568 55.739221 
L 312.53467 48.208831 
L 313.406773 52.727065 
L 314.278875 50.091429 
L 315.150977 52.727065 
L 316.023079 50.844468 
L 316.895181 51.220987 
L 317.767283 49.33839 
L 318.639385 53.856623 
L 319.511487 51.597506 
L 320.383589 52.727065 
L 321.255692 52.727065 
L 322.127794 53.856623 
L 322.999896 50.844468 
L 323.871998 52.350545 
L 324.7441 45.573195 
L 325.616202 51.220987 
L 326.488304 49.33839 
L 327.360406 48.208831 
L 328.232508 48.208831 
L 329.104611 52.350545 
L 329.976713 51.220987 
L 330.848815 52.350545 
L 331.720917 50.467948 
L 332.593019 53.103584 
L 333.465121 51.220987 
L 334.337223 45.573195 
L 335.209325 56.49226 
L 336.081427 50.091429 
L 336.95353 49.714909 
L 337.825632 47.079273 
L 338.697734 48.96187 
L 339.569836 45.573195 
L 341.31404 56.868779 
L 342.186142 48.96187 
L 343.058244 48.96187 
L 343.930346 49.33839 
L 344.802449 51.597506 
L 345.674551 47.832312 
L 346.546653 52.727065 
L 347.418755 50.091429 
L 348.290857 50.467948 
L 349.162959 48.585351 
L 350.035061 49.714909 
L 350.907163 51.974026 
L 351.779265 47.079273 
L 352.651368 47.832312 
L 353.52347 52.350545 
L 354.395572 48.208831 
L 355.267674 50.467948 
L 356.139776 53.856623 
L 357.011878 51.974026 
L 357.88398 49.33839 
L 358.756082 49.714909 
L 359.628184 47.079273 
L 360.500287 48.96187 
L 361.372389 47.455792 
L 362.244491 48.585351 
L 363.116593 48.208831 
L 363.988695 53.480104 
L 364.860797 54.986182 
L 365.732899 47.455792 
L 366.605001 56.11574 
L 367.477103 49.714909 
L 368.349206 48.208831 
L 369.221308 50.844468 
L 370.09341 52.350545 
L 370.965512 50.844468 
L 371.837614 53.103584 
L 372.709716 47.832312 
L 373.581818 47.832312 
L 373.581818 47.832312 
" style="fill:none;stroke:#008000;stroke-linecap:square;stroke-width:1.5;"/>
   </g>
   <g id="line2d_26">
    <path clip-path="url(#pf594a111eb)" d="M 69.218182 241.739844 
L 70.090284 236.944493 
L 70.962386 223.93198 
L 71.834488 212.847246 
L 72.70659 211.015855 
L 73.578692 212.317108 
L 74.450794 210.124259 
L 75.322897 195.304453 
L 76.194999 192.846533 
L 77.067101 197.280427 
L 77.939203 184.340203 
L 78.811305 180.219576 
L 79.683407 178.267696 
L 80.555509 164.387686 
L 81.427611 168.460117 
L 82.299713 157.375387 
L 83.171816 162.074352 
L 84.043918 158.315178 
L 84.91602 150.2908 
L 85.788122 135.97703 
L 86.660224 140.844675 
L 87.532326 131.928691 
L 88.404428 132.699803 
L 89.27653 118.024579 
L 90.148632 124.145282 
L 91.892837 112.19305 
L 92.764939 110.313458 
L 93.637041 114.337703 
L 94.509143 105.518111 
L 95.381245 99.782973 
L 96.253347 97.590115 
L 97.125449 96.867208 
L 97.997551 93.879137 
L 98.869654 92.071843 
L 99.741756 89.541643 
L 100.613858 89.517541 
L 101.48596 92.553799 
L 102.358062 93.686373 
L 103.230164 85.059554 
L 104.102266 94.722555 
L 104.974368 83.975167 
L 105.84647 81.469069 
L 106.718573 79.999136 
L 107.590675 82.57754 
L 108.462777 77.15566 
L 109.334879 81.589544 
L 111.079083 77.252051 
L 111.951185 73.974824 
L 112.823287 76.239953 
L 113.695389 75.950798 
L 114.567492 76.167664 
L 115.439594 74.649544 
L 116.311696 70.263846 
L 117.183798 70.528917 
L 118.0559 72.769962 
L 118.928002 70.432526 
L 119.800104 73.492868 
L 120.672206 69.299952 
L 121.544308 71.034957 
L 122.416411 68.046904 
L 123.288513 67.396268 
L 124.160615 69.78189 
L 125.032717 68.673419 
L 125.904819 66.432374 
L 126.776921 69.854197 
L 127.649023 67.733628 
L 128.521125 68.215584 
L 129.393227 66.480579 
L 130.26533 66.384188 
L 131.137432 64.456401 
L 132.009534 66.263694 
L 132.881636 65.179325 
L 133.753738 67.805916 
L 134.62584 67.348081 
L 135.497942 68.76981 
L 136.370044 63.372032 
L 137.242146 65.950436 
L 138.114249 61.998489 
L 138.986351 64.408214 
L 139.858453 61.926201 
L 140.730555 63.010569 
L 141.602657 66.215508 
L 142.474759 63.203352 
L 143.346861 64.070854 
L 144.218963 61.998489 
L 145.091065 62.287645 
L 145.963167 59.395982 
L 146.83527 60.81773 
L 147.707372 61.106885 
L 149.451576 61.034596 
L 150.323678 60.697236 
L 151.19578 60.890018 
L 152.067882 59.564662 
L 152.939984 60.070702 
L 153.812086 60.938205 
L 154.684189 60.0466 
L 155.556291 62.167169 
L 157.300495 59.130911 
L 158.172597 58.86584 
L 159.044699 60.890018 
L 159.916801 60.504454 
L 160.788903 60.287587 
L 161.661005 58.793551 
L 162.533108 59.516476 
L 163.40521 56.889867 
L 164.277312 61.444245 
L 165.149414 56.84168 
L 166.021516 58.335698 
L 166.893618 61.010494 
L 167.76572 58.745365 
L 168.637822 60.793627 
L 169.509924 55.468138 
L 170.382027 55.901889 
L 171.254129 56.16696 
L 172.126231 56.938071 
L 172.998333 55.853684 
L 173.870435 57.926049 
L 174.742537 57.034444 
L 175.614639 55.540427 
L 176.486741 56.33564 
L 177.358843 56.889867 
L 178.230946 58.456191 
L 179.103048 57.5164 
L 179.97515 56.889867 
L 180.847252 55.130778 
L 181.719354 58.383902 
L 182.591456 53.588555 
L 183.463558 55.564529 
L 184.33566 55.877787 
L 185.207762 56.84168 
L 186.079865 54.793418 
L 186.951967 54.456039 
L 187.824069 54.480142 
L 188.696171 56.383827 
L 189.568273 54.239173 
L 191.312477 54.359667 
L 192.184579 54.986182 
L 193.056681 54.528347 
L 193.928784 54.865707 
L 194.800886 54.215071 
L 195.672988 54.383751 
L 196.54509 52.793342 
L 197.417192 56.239249 
L 198.289294 55.106675 
L 199.161396 54.504244 
L 200.033498 53.612639 
L 200.9056 54.287359 
L 201.777703 54.142782 
L 202.649805 55.323542 
L 203.521907 54.817502 
L 204.394009 53.660844 
L 205.266111 55.034387 
L 206.138213 54.166884 
L 207.010315 55.034387 
L 207.882417 52.070417 
L 208.754519 53.709031 
L 209.626622 52.60056 
L 210.498724 53.395773 
L 211.370826 54.793418 
L 212.242928 53.419857 
L 213.11503 53.034311 
L 213.987132 53.733133 
L 214.859234 53.925915 
L 215.731336 54.263275 
L 216.603438 51.516191 
L 217.475541 55.010284 
L 218.347643 53.371671 
L 219.219745 56.745289 
L 220.091847 59.130911 
L 220.963949 51.829448 
L 221.836051 51.323408 
L 222.708153 51.058337 
L 223.580255 53.299382 
L 225.324459 52.070417 
L 226.196562 52.962022 
L 227.068664 53.058413 
L 227.940766 54.070493 
L 228.812868 52.745137 
L 229.68497 52.407777 
L 230.557072 52.60056 
L 231.429174 53.010208 
L 232.301276 53.612639 
L 233.173378 53.998204 
L 234.045481 52.2632 
L 234.917583 52.480066 
L 235.789685 51.853551 
L 236.661787 55.323542 
L 237.533889 52.745137 
L 238.405991 52.2632 
L 239.278093 53.130702 
L 240.150195 52.022231 
L 241.022297 53.660844 
L 241.8944 54.504244 
L 242.766502 54.046391 
L 243.638604 52.672848 
L 244.510706 53.468062 
L 246.25491 51.058337 
L 247.127012 53.395773 
L 247.999114 51.901737 
L 248.871216 53.853608 
L 249.743319 54.841604 
L 250.615421 52.239097 
L 251.487523 53.419857 
L 252.359625 52.841528 
L 253.231727 51.202915 
L 254.103829 52.528271 
L 254.975931 51.443884 
L 255.848033 51.323408 
L 256.720135 52.287302 
L 257.592238 51.829448 
L 258.46434 52.359591 
L 259.336442 56.33564 
L 260.208544 54.769315 
L 261.080646 52.865631 
L 261.952748 53.371671 
L 262.82485 52.070417 
L 263.696952 53.347568 
L 264.569054 51.395697 
L 265.441157 51.998128 
L 266.313259 53.178888 
L 267.185361 51.733057 
L 268.057463 52.43188 
L 268.929565 51.202915 
L 269.801667 52.142706 
L 270.673769 51.684871 
L 271.545871 52.480066 
L 272.417973 51.733057 
L 273.290076 52.166808 
L 274.162178 50.841452 
L 275.03428 50.769164 
L 275.906382 51.227017 
L 276.778484 51.227017 
L 277.650586 52.455982 
L 278.522688 53.492164 
L 279.39479 52.335488 
L 280.266892 52.287302 
L 281.138995 51.395697 
L 282.883199 54.215071 
L 283.755301 51.540275 
L 285.499505 52.986124 
L 286.371607 53.612639 
L 287.243709 52.913817 
L 288.115811 53.058413 
L 288.987914 53.709031 
L 289.860016 52.552373 
L 290.732118 51.75716 
L 291.60422 52.817426 
L 292.476322 51.58848 
L 293.348424 50.600484 
L 295.092628 52.624662 
L 295.96473 51.227017 
L 296.836833 51.467986 
L 297.708935 51.130626 
L 298.581037 51.829448 
L 299.453139 51.154728 
L 300.325241 53.323484 
L 301.197343 51.202915 
L 302.069445 51.853551 
L 302.941547 51.781262 
L 303.813649 50.865555 
L 304.685751 50.455906 
L 305.557854 50.407701 
L 306.429956 51.612564 
L 307.302058 51.612564 
L 308.17416 50.407701 
L 309.046262 50.889657 
L 309.918364 52.745137 
L 310.790466 51.4198 
L 311.662568 53.516248 
L 312.53467 52.455982 
L 313.406773 52.504168 
L 314.278875 50.480008 
L 315.150977 51.58848 
L 316.895181 50.889657 
L 317.767283 52.504168 
L 318.639385 51.540275 
L 319.511487 51.058337 
L 320.383589 51.227017 
L 321.255692 51.781262 
L 322.127794 52.672848 
L 322.999896 50.648688 
L 323.871998 51.106524 
L 324.7441 50.166732 
L 325.616202 50.672772 
L 326.488304 50.094444 
L 327.360406 51.75716 
L 328.232508 50.696875 
L 329.104611 50.793266 
L 329.976713 53.034311 
L 330.848815 50.311328 
L 331.720917 51.4198 
L 332.593019 53.468062 
L 333.465121 52.070417 
L 334.337223 49.901661 
L 335.209325 51.58848 
L 336.081427 51.154728 
L 336.95353 51.684871 
L 337.825632 50.407701 
L 338.697734 50.91376 
L 339.569836 51.178831 
L 340.441938 52.76924 
L 341.31404 50.311328 
L 342.186142 50.865555 
L 343.058244 49.949866 
L 343.930346 51.058337 
L 344.802449 49.973968 
L 345.674551 50.311328 
L 346.546653 51.154728 
L 347.418755 50.889657 
L 348.290857 50.865555 
L 349.162959 51.395697 
L 350.035061 53.733133 
L 350.907163 53.130702 
L 351.779265 50.552297 
L 352.651368 51.75716 
L 353.52347 52.070417 
L 354.395572 51.4198 
L 355.267674 52.142706 
L 356.139776 50.383617 
L 357.011878 54.480142 
L 357.88398 50.720977 
L 358.756082 51.467986 
L 359.628184 50.672772 
L 360.500287 52.528271 
L 361.372389 48.985973 
L 362.244491 51.227017 
L 363.116593 50.239021 
L 363.988695 50.311328 
L 364.860797 51.202915 
L 365.732899 52.480066 
L 366.605001 50.672772 
L 367.477103 51.227017 
L 368.349206 50.74508 
L 369.221308 49.492013 
L 370.09341 51.540275 
L 370.965512 49.540217 
L 371.837614 53.347568 
L 372.709716 50.672772 
L 373.581818 50.480008 
L 373.581818 50.480008 
" style="fill:none;stroke:#ff0000;stroke-linecap:square;stroke-width:1.5;"/>
   </g>
   <g id="patch_3">
    <path d="M 54 252 
L 54 34.56 
" style="fill:none;stroke:#000000;stroke-linecap:square;stroke-linejoin:miter;stroke-width:0.8;"/>
   </g>
   <g id="patch_4">
    <path d="M 388.8 252 
L 388.8 34.56 
" style="fill:none;stroke:#000000;stroke-linecap:square;stroke-linejoin:miter;stroke-width:0.8;"/>
   </g>
   <g id="patch_5">
    <path d="M 54 252 
L 388.8 252 
" style="fill:none;stroke:#000000;stroke-linecap:square;stroke-linejoin:miter;stroke-width:0.8;"/>
   </g>
   <g id="patch_6">
    <path d="M 54 34.56 
L 388.8 34.56 
" style="fill:none;stroke:#000000;stroke-linecap:square;stroke-linejoin:miter;stroke-width:0.8;"/>
   </g>
   <g id="text_15">
    <!-- VGGNet Accuracy -->
    <defs>
     <path d="M 28.609375 0 
L 0.78125 72.90625 
L 11.078125 72.90625 
L 34.1875 11.53125 
L 57.328125 72.90625 
L 67.578125 72.90625 
L 39.796875 0 
z
" id="DejaVuSans-86"/>
     <path d="M 59.515625 10.40625 
L 59.515625 29.984375 
L 43.40625 29.984375 
L 43.40625 38.09375 
L 69.28125 38.09375 
L 69.28125 6.78125 
Q 63.578125 2.734375 56.6875 0.65625 
Q 49.8125 -1.421875 42 -1.421875 
Q 24.90625 -1.421875 15.25 8.5625 
Q 5.609375 18.5625 5.609375 36.375 
Q 5.609375 54.25 15.25 64.234375 
Q 24.90625 74.21875 42 74.21875 
Q 49.125 74.21875 55.546875 72.453125 
Q 61.96875 70.703125 67.390625 67.28125 
L 67.390625 56.78125 
Q 61.921875 61.421875 55.765625 63.765625 
Q 49.609375 66.109375 42.828125 66.109375 
Q 29.4375 66.109375 22.71875 58.640625 
Q 16.015625 51.171875 16.015625 36.375 
Q 16.015625 21.625 22.71875 14.15625 
Q 29.4375 6.6875 42.828125 6.6875 
Q 48.046875 6.6875 52.140625 7.59375 
Q 56.25 8.5 59.515625 10.40625 
z
" id="DejaVuSans-71"/>
     <path d="M 9.8125 72.90625 
L 23.09375 72.90625 
L 55.421875 11.921875 
L 55.421875 72.90625 
L 64.984375 72.90625 
L 64.984375 0 
L 51.703125 0 
L 19.390625 60.984375 
L 19.390625 0 
L 9.8125 0 
z
" id="DejaVuSans-78"/>
     <path d="M 56.203125 29.59375 
L 56.203125 25.203125 
L 14.890625 25.203125 
Q 15.484375 15.921875 20.484375 11.0625 
Q 25.484375 6.203125 34.421875 6.203125 
Q 39.59375 6.203125 44.453125 7.46875 
Q 49.3125 8.734375 54.109375 11.28125 
L 54.109375 2.78125 
Q 49.265625 0.734375 44.1875 -0.34375 
Q 39.109375 -1.421875 33.890625 -1.421875 
Q 20.796875 -1.421875 13.15625 6.1875 
Q 5.515625 13.8125 5.515625 26.8125 
Q 5.515625 40.234375 12.765625 48.109375 
Q 20.015625 56 32.328125 56 
Q 43.359375 56 49.78125 48.890625 
Q 56.203125 41.796875 56.203125 29.59375 
z
M 47.21875 32.234375 
Q 47.125 39.59375 43.09375 43.984375 
Q 39.0625 48.390625 32.421875 48.390625 
Q 24.90625 48.390625 20.390625 44.140625 
Q 15.875 39.890625 15.1875 32.171875 
z
" id="DejaVuSans-101"/>
     <path d="M 18.3125 70.21875 
L 18.3125 54.6875 
L 36.8125 54.6875 
L 36.8125 47.703125 
L 18.3125 47.703125 
L 18.3125 18.015625 
Q 18.3125 11.328125 20.140625 9.421875 
Q 21.96875 7.515625 27.59375 7.515625 
L 36.8125 7.515625 
L 36.8125 0 
L 27.59375 0 
Q 17.1875 0 13.234375 3.875 
Q 9.28125 7.765625 9.28125 18.015625 
L 9.28125 47.703125 
L 2.6875 47.703125 
L 2.6875 54.6875 
L 9.28125 54.6875 
L 9.28125 70.21875 
z
" id="DejaVuSans-116"/>
     <path id="DejaVuSans-32"/>
    </defs>
    <g transform="translate(154.725 28.56)scale(0.15 -0.15)">
     <use xlink:href="#DejaVuSans-86"/>
     <use x="68.408203" xlink:href="#DejaVuSans-71"/>
     <use x="145.898438" xlink:href="#DejaVuSans-71"/>
     <use x="223.388672" xlink:href="#DejaVuSans-78"/>
     <use x="298.193359" xlink:href="#DejaVuSans-101"/>
     <use x="359.716797" xlink:href="#DejaVuSans-116"/>
     <use x="398.925781" xlink:href="#DejaVuSans-32"/>
     <use x="430.712891" xlink:href="#DejaVuSans-65"/>
     <use x="499.105469" xlink:href="#DejaVuSans-99"/>
     <use x="554.085938" xlink:href="#DejaVuSans-99"/>
     <use x="609.066406" xlink:href="#DejaVuSans-117"/>
     <use x="672.445312" xlink:href="#DejaVuSans-114"/>
     <use x="713.558594" xlink:href="#DejaVuSans-97"/>
     <use x="774.837891" xlink:href="#DejaVuSans-99"/>
     <use x="829.818359" xlink:href="#DejaVuSans-121"/>
    </g>
   </g>
   <g id="legend_1">
    <g id="patch_7">
     <path d="M 250.646875 247 
L 381.8 247 
Q 383.8 247 383.8 245 
L 383.8 216.64375 
Q 383.8 214.64375 381.8 214.64375 
L 250.646875 214.64375 
Q 248.646875 214.64375 248.646875 216.64375 
L 248.646875 245 
Q 248.646875 247 250.646875 247 
z
" style="fill:#ffffff;opacity:0.8;stroke:#cccccc;stroke-linejoin:miter;"/>
    </g>
    <g id="line2d_27">
     <path d="M 252.646875 222.742188 
L 272.646875 222.742188 
" style="fill:none;stroke:#008000;stroke-linecap:square;stroke-width:1.5;"/>
    </g>
    <g id="line2d_28"/>
    <g id="text_16">
     <!-- Validation Accuracy -->
     <defs>
      <path d="M 9.421875 75.984375 
L 18.40625 75.984375 
L 18.40625 0 
L 9.421875 0 
z
" id="DejaVuSans-108"/>
      <path d="M 9.421875 54.6875 
L 18.40625 54.6875 
L 18.40625 0 
L 9.421875 0 
z
M 9.421875 75.984375 
L 18.40625 75.984375 
L 18.40625 64.59375 
L 9.421875 64.59375 
z
" id="DejaVuSans-105"/>
      <path d="M 45.40625 46.390625 
L 45.40625 75.984375 
L 54.390625 75.984375 
L 54.390625 0 
L 45.40625 0 
L 45.40625 8.203125 
Q 42.578125 3.328125 38.25 0.953125 
Q 33.9375 -1.421875 27.875 -1.421875 
Q 17.96875 -1.421875 11.734375 6.484375 
Q 5.515625 14.40625 5.515625 27.296875 
Q 5.515625 40.1875 11.734375 48.09375 
Q 17.96875 56 27.875 56 
Q 33.9375 56 38.25 53.625 
Q 42.578125 51.265625 45.40625 46.390625 
z
M 14.796875 27.296875 
Q 14.796875 17.390625 18.875 11.75 
Q 22.953125 6.109375 30.078125 6.109375 
Q 37.203125 6.109375 41.296875 11.75 
Q 45.40625 17.390625 45.40625 27.296875 
Q 45.40625 37.203125 41.296875 42.84375 
Q 37.203125 48.484375 30.078125 48.484375 
Q 22.953125 48.484375 18.875 42.84375 
Q 14.796875 37.203125 14.796875 27.296875 
z
" id="DejaVuSans-100"/>
      <path d="M 54.890625 33.015625 
L 54.890625 0 
L 45.90625 0 
L 45.90625 32.71875 
Q 45.90625 40.484375 42.875 44.328125 
Q 39.84375 48.1875 33.796875 48.1875 
Q 26.515625 48.1875 22.3125 43.546875 
Q 18.109375 38.921875 18.109375 30.90625 
L 18.109375 0 
L 9.078125 0 
L 9.078125 54.6875 
L 18.109375 54.6875 
L 18.109375 46.1875 
Q 21.34375 51.125 25.703125 53.5625 
Q 30.078125 56 35.796875 56 
Q 45.21875 56 50.046875 50.171875 
Q 54.890625 44.34375 54.890625 33.015625 
z
" id="DejaVuSans-110"/>
     </defs>
     <g transform="translate(280.646875 226.242188)scale(0.1 -0.1)">
      <use xlink:href="#DejaVuSans-86"/>
      <use x="68.298828" xlink:href="#DejaVuSans-97"/>
      <use x="129.578125" xlink:href="#DejaVuSans-108"/>
      <use x="157.361328" xlink:href="#DejaVuSans-105"/>
      <use x="185.144531" xlink:href="#DejaVuSans-100"/>
      <use x="248.621094" xlink:href="#DejaVuSans-97"/>
      <use x="309.900391" xlink:href="#DejaVuSans-116"/>
      <use x="349.109375" xlink:href="#DejaVuSans-105"/>
      <use x="376.892578" xlink:href="#DejaVuSans-111"/>
      <use x="438.074219" xlink:href="#DejaVuSans-110"/>
      <use x="501.453125" xlink:href="#DejaVuSans-32"/>
      <use x="533.240234" xlink:href="#DejaVuSans-65"/>
      <use x="601.632812" xlink:href="#DejaVuSans-99"/>
      <use x="656.613281" xlink:href="#DejaVuSans-99"/>
      <use x="711.59375" xlink:href="#DejaVuSans-117"/>
      <use x="774.972656" xlink:href="#DejaVuSans-114"/>
      <use x="816.085938" xlink:href="#DejaVuSans-97"/>
      <use x="877.365234" xlink:href="#DejaVuSans-99"/>
      <use x="932.345703" xlink:href="#DejaVuSans-121"/>
     </g>
    </g>
    <g id="line2d_29">
     <path d="M 252.646875 237.420312 
L 272.646875 237.420312 
" style="fill:none;stroke:#ff0000;stroke-linecap:square;stroke-width:1.5;"/>
    </g>
    <g id="line2d_30"/>
    <g id="text_17">
     <!-- Test Accuracy -->
     <defs>
      <path d="M -0.296875 72.90625 
L 61.375 72.90625 
L 61.375 64.59375 
L 35.5 64.59375 
L 35.5 0 
L 25.59375 0 
L 25.59375 64.59375 
L -0.296875 64.59375 
z
" id="DejaVuSans-84"/>
     </defs>
     <g transform="translate(280.646875 240.920312)scale(0.1 -0.1)">
      <use xlink:href="#DejaVuSans-84"/>
      <use x="60.818359" xlink:href="#DejaVuSans-101"/>
      <use x="122.341797" xlink:href="#DejaVuSans-115"/>
      <use x="174.441406" xlink:href="#DejaVuSans-116"/>
      <use x="213.650391" xlink:href="#DejaVuSans-32"/>
      <use x="245.4375" xlink:href="#DejaVuSans-65"/>
      <use x="313.830078" xlink:href="#DejaVuSans-99"/>
      <use x="368.810547" xlink:href="#DejaVuSans-99"/>
      <use x="423.791016" xlink:href="#DejaVuSans-117"/>
      <use x="487.169922" xlink:href="#DejaVuSans-114"/>
      <use x="528.283203" xlink:href="#DejaVuSans-97"/>
      <use x="589.5625" xlink:href="#DejaVuSans-99"/>
      <use x="644.542969" xlink:href="#DejaVuSans-121"/>
     </g>
    </g>
   </g>
  </g>
 </g>
 <defs>
  <clipPath id="pf594a111eb">
   <rect height="217.44" width="334.8" x="54" y="34.56"/>
  </clipPath>
 </defs>
</svg>
