<?xml version="1.0" encoding="utf-8" standalone="no"?>
<!DOCTYPE svg PUBLIC "-//W3C//DTD SVG 1.1//EN"
  "http://www.w3.org/Graphics/SVG/1.1/DTD/svg11.dtd">
<!-- Created with matplotlib (https://matplotlib.org/) -->
<svg height="288pt" version="1.1" viewBox="0 0 432 288" width="432pt" xmlns="http://www.w3.org/2000/svg" xmlns:xlink="http://www.w3.org/1999/xlink">
 <defs>
  <style type="text/css">
*{stroke-linecap:butt;stroke-linejoin:round;}
  </style>
 </defs>
 <g id="figure_1">
  <g id="patch_1">
   <path d="M 0 288 
L 432 288 
L 432 0 
L 0 0 
z
" style="fill:#ffffff;"/>
  </g>
  <g id="axes_1">
   <g id="patch_2">
    <path d="M 54 252 
L 388.8 252 
L 388.8 34.56 
L 54 34.56 
z
" style="fill:#ffffff;"/>
   </g>
   <g id="matplotlib.axis_1">
    <g id="xtick_1">
     <g id="line2d_1">
      <path clip-path="url(#pf4dd9d356f)" d="M 69.218182 252 
L 69.218182 34.56 
" style="fill:none;stroke:#b0b0b0;stroke-dasharray:0.8,1.32;stroke-dashoffset:0;stroke-width:0.8;"/>
     </g>
     <g id="line2d_2">
      <defs>
       <path d="M 0 0 
L 0 3.5 
" id="mfa3cde9473" style="stroke:#000000;stroke-width:0.8;"/>
      </defs>
      <g>
       <use style="stroke:#000000;stroke-width:0.8;" x="69.218182" xlink:href="#mfa3cde9473" y="252"/>
      </g>
     </g>
     <g id="text_1">
      <!-- 0 -->
      <defs>
       <path d="M 31.78125 66.40625 
Q 24.171875 66.40625 20.328125 58.90625 
Q 16.5 51.421875 16.5 36.375 
Q 16.5 21.390625 20.328125 13.890625 
Q 24.171875 6.390625 31.78125 6.390625 
Q 39.453125 6.390625 43.28125 13.890625 
Q 47.125 21.390625 47.125 36.375 
Q 47.125 51.421875 43.28125 58.90625 
Q 39.453125 66.40625 31.78125 66.40625 
z
M 31.78125 74.21875 
Q 44.046875 74.21875 50.515625 64.515625 
Q 56.984375 54.828125 56.984375 36.375 
Q 56.984375 17.96875 50.515625 8.265625 
Q 44.046875 -1.421875 31.78125 -1.421875 
Q 19.53125 -1.421875 13.0625 8.265625 
Q 6.59375 17.96875 6.59375 36.375 
Q 6.59375 54.828125 13.0625 64.515625 
Q 19.53125 74.21875 31.78125 74.21875 
z
" id="DejaVuSans-48"/>
      </defs>
      <g transform="translate(66.036932 266.598437)scale(0.1 -0.1)">
       <use xlink:href="#DejaVuSans-48"/>
      </g>
     </g>
    </g>
    <g id="xtick_2">
     <g id="line2d_3">
      <path clip-path="url(#pf4dd9d356f)" d="M 112.823287 252 
L 112.823287 34.56 
" style="fill:none;stroke:#b0b0b0;stroke-dasharray:0.8,1.32;stroke-dashoffset:0;stroke-width:0.8;"/>
     </g>
     <g id="line2d_4">
      <g>
       <use style="stroke:#000000;stroke-width:0.8;" x="112.823287" xlink:href="#mfa3cde9473" y="252"/>
      </g>
     </g>
     <g id="text_2">
      <!-- 50 -->
      <defs>
       <path d="M 10.796875 72.90625 
L 49.515625 72.90625 
L 49.515625 64.59375 
L 19.828125 64.59375 
L 19.828125 46.734375 
Q 21.96875 47.46875 24.109375 47.828125 
Q 26.265625 48.1875 28.421875 48.1875 
Q 40.625 48.1875 47.75 41.5 
Q 54.890625 34.8125 54.890625 23.390625 
Q 54.890625 11.625 47.5625 5.09375 
Q 40.234375 -1.421875 26.90625 -1.421875 
Q 22.3125 -1.421875 17.546875 -0.640625 
Q 12.796875 0.140625 7.71875 1.703125 
L 7.71875 11.625 
Q 12.109375 9.234375 16.796875 8.0625 
Q 21.484375 6.890625 26.703125 6.890625 
Q 35.15625 6.890625 40.078125 11.328125 
Q 45.015625 15.765625 45.015625 23.390625 
Q 45.015625 31 40.078125 35.4375 
Q 35.15625 39.890625 26.703125 39.890625 
Q 22.75 39.890625 18.8125 39.015625 
Q 14.890625 38.140625 10.796875 36.28125 
z
" id="DejaVuSans-53"/>
      </defs>
      <g transform="translate(106.460787 266.598437)scale(0.1 -0.1)">
       <use xlink:href="#DejaVuSans-53"/>
       <use x="63.623047" xlink:href="#DejaVuSans-48"/>
      </g>
     </g>
    </g>
    <g id="xtick_3">
     <g id="line2d_5">
      <path clip-path="url(#pf4dd9d356f)" d="M 156.428393 252 
L 156.428393 34.56 
" style="fill:none;stroke:#b0b0b0;stroke-dasharray:0.8,1.32;stroke-dashoffset:0;stroke-width:0.8;"/>
     </g>
     <g id="line2d_6">
      <g>
       <use style="stroke:#000000;stroke-width:0.8;" x="156.428393" xlink:href="#mfa3cde9473" y="252"/>
      </g>
     </g>
     <g id="text_3">
      <!-- 100 -->
      <defs>
       <path d="M 12.40625 8.296875 
L 28.515625 8.296875 
L 28.515625 63.921875 
L 10.984375 60.40625 
L 10.984375 69.390625 
L 28.421875 72.90625 
L 38.28125 72.90625 
L 38.28125 8.296875 
L 54.390625 8.296875 
L 54.390625 0 
L 12.40625 0 
z
" id="DejaVuSans-49"/>
      </defs>
      <g transform="translate(146.884643 266.598437)scale(0.1 -0.1)">
       <use xlink:href="#DejaVuSans-49"/>
       <use x="63.623047" xlink:href="#DejaVuSans-48"/>
       <use x="127.246094" xlink:href="#DejaVuSans-48"/>
      </g>
     </g>
    </g>
    <g id="xtick_4">
     <g id="line2d_7">
      <path clip-path="url(#pf4dd9d356f)" d="M 200.033498 252 
L 200.033498 34.56 
" style="fill:none;stroke:#b0b0b0;stroke-dasharray:0.8,1.32;stroke-dashoffset:0;stroke-width:0.8;"/>
     </g>
     <g id="line2d_8">
      <g>
       <use style="stroke:#000000;stroke-width:0.8;" x="200.033498" xlink:href="#mfa3cde9473" y="252"/>
      </g>
     </g>
     <g id="text_4">
      <!-- 150 -->
      <g transform="translate(190.489748 266.598437)scale(0.1 -0.1)">
       <use xlink:href="#DejaVuSans-49"/>
       <use x="63.623047" xlink:href="#DejaVuSans-53"/>
       <use x="127.246094" xlink:href="#DejaVuSans-48"/>
      </g>
     </g>
    </g>
    <g id="xtick_5">
     <g id="line2d_9">
      <path clip-path="url(#pf4dd9d356f)" d="M 243.638604 252 
L 243.638604 34.56 
" style="fill:none;stroke:#b0b0b0;stroke-dasharray:0.8,1.32;stroke-dashoffset:0;stroke-width:0.8;"/>
     </g>
     <g id="line2d_10">
      <g>
       <use style="stroke:#000000;stroke-width:0.8;" x="243.638604" xlink:href="#mfa3cde9473" y="252"/>
      </g>
     </g>
     <g id="text_5">
      <!-- 200 -->
      <defs>
       <path d="M 19.1875 8.296875 
L 53.609375 8.296875 
L 53.609375 0 
L 7.328125 0 
L 7.328125 8.296875 
Q 12.9375 14.109375 22.625 23.890625 
Q 32.328125 33.6875 34.8125 36.53125 
Q 39.546875 41.84375 41.421875 45.53125 
Q 43.3125 49.21875 43.3125 52.78125 
Q 43.3125 58.59375 39.234375 62.25 
Q 35.15625 65.921875 28.609375 65.921875 
Q 23.96875 65.921875 18.8125 64.3125 
Q 13.671875 62.703125 7.8125 59.421875 
L 7.8125 69.390625 
Q 13.765625 71.78125 18.9375 73 
Q 24.125 74.21875 28.421875 74.21875 
Q 39.75 74.21875 46.484375 68.546875 
Q 53.21875 62.890625 53.21875 53.421875 
Q 53.21875 48.921875 51.53125 44.890625 
Q 49.859375 40.875 45.40625 35.40625 
Q 44.1875 33.984375 37.640625 27.21875 
Q 31.109375 20.453125 19.1875 8.296875 
z
" id="DejaVuSans-50"/>
      </defs>
      <g transform="translate(234.094854 266.598437)scale(0.1 -0.1)">
       <use xlink:href="#DejaVuSans-50"/>
       <use x="63.623047" xlink:href="#DejaVuSans-48"/>
       <use x="127.246094" xlink:href="#DejaVuSans-48"/>
      </g>
     </g>
    </g>
    <g id="xtick_6">
     <g id="line2d_11">
      <path clip-path="url(#pf4dd9d356f)" d="M 287.243709 252 
L 287.243709 34.56 
" style="fill:none;stroke:#b0b0b0;stroke-dasharray:0.8,1.32;stroke-dashoffset:0;stroke-width:0.8;"/>
     </g>
     <g id="line2d_12">
      <g>
       <use style="stroke:#000000;stroke-width:0.8;" x="287.243709" xlink:href="#mfa3cde9473" y="252"/>
      </g>
     </g>
     <g id="text_6">
      <!-- 250 -->
      <g transform="translate(277.699959 266.598437)scale(0.1 -0.1)">
       <use xlink:href="#DejaVuSans-50"/>
       <use x="63.623047" xlink:href="#DejaVuSans-53"/>
       <use x="127.246094" xlink:href="#DejaVuSans-48"/>
      </g>
     </g>
    </g>
    <g id="xtick_7">
     <g id="line2d_13">
      <path clip-path="url(#pf4dd9d356f)" d="M 330.848815 252 
L 330.848815 34.56 
" style="fill:none;stroke:#b0b0b0;stroke-dasharray:0.8,1.32;stroke-dashoffset:0;stroke-width:0.8;"/>
     </g>
     <g id="line2d_14">
      <g>
       <use style="stroke:#000000;stroke-width:0.8;" x="330.848815" xlink:href="#mfa3cde9473" y="252"/>
      </g>
     </g>
     <g id="text_7">
      <!-- 300 -->
      <defs>
       <path d="M 40.578125 39.3125 
Q 47.65625 37.796875 51.625 33 
Q 55.609375 28.21875 55.609375 21.1875 
Q 55.609375 10.40625 48.1875 4.484375 
Q 40.765625 -1.421875 27.09375 -1.421875 
Q 22.515625 -1.421875 17.65625 -0.515625 
Q 12.796875 0.390625 7.625 2.203125 
L 7.625 11.71875 
Q 11.71875 9.328125 16.59375 8.109375 
Q 21.484375 6.890625 26.8125 6.890625 
Q 36.078125 6.890625 40.9375 10.546875 
Q 45.796875 14.203125 45.796875 21.1875 
Q 45.796875 27.640625 41.28125 31.265625 
Q 36.765625 34.90625 28.71875 34.90625 
L 20.21875 34.90625 
L 20.21875 43.015625 
L 29.109375 43.015625 
Q 36.375 43.015625 40.234375 45.921875 
Q 44.09375 48.828125 44.09375 54.296875 
Q 44.09375 59.90625 40.109375 62.90625 
Q 36.140625 65.921875 28.71875 65.921875 
Q 24.65625 65.921875 20.015625 65.03125 
Q 15.375 64.15625 9.8125 62.3125 
L 9.8125 71.09375 
Q 15.4375 72.65625 20.34375 73.4375 
Q 25.25 74.21875 29.59375 74.21875 
Q 40.828125 74.21875 47.359375 69.109375 
Q 53.90625 64.015625 53.90625 55.328125 
Q 53.90625 49.265625 50.4375 45.09375 
Q 46.96875 40.921875 40.578125 39.3125 
z
" id="DejaVuSans-51"/>
      </defs>
      <g transform="translate(321.305065 266.598437)scale(0.1 -0.1)">
       <use xlink:href="#DejaVuSans-51"/>
       <use x="63.623047" xlink:href="#DejaVuSans-48"/>
       <use x="127.246094" xlink:href="#DejaVuSans-48"/>
      </g>
     </g>
    </g>
    <g id="xtick_8">
     <g id="line2d_15">
      <path clip-path="url(#pf4dd9d356f)" d="M 374.45392 252 
L 374.45392 34.56 
" style="fill:none;stroke:#b0b0b0;stroke-dasharray:0.8,1.32;stroke-dashoffset:0;stroke-width:0.8;"/>
     </g>
     <g id="line2d_16">
      <g>
       <use style="stroke:#000000;stroke-width:0.8;" x="374.45392" xlink:href="#mfa3cde9473" y="252"/>
      </g>
     </g>
     <g id="text_8">
      <!-- 350 -->
      <g transform="translate(364.91017 266.598437)scale(0.1 -0.1)">
       <use xlink:href="#DejaVuSans-51"/>
       <use x="63.623047" xlink:href="#DejaVuSans-53"/>
       <use x="127.246094" xlink:href="#DejaVuSans-48"/>
      </g>
     </g>
    </g>
    <g id="text_9">
     <!-- Epochs -->
     <defs>
      <path d="M 9.8125 72.90625 
L 55.90625 72.90625 
L 55.90625 64.59375 
L 19.671875 64.59375 
L 19.671875 43.015625 
L 54.390625 43.015625 
L 54.390625 34.71875 
L 19.671875 34.71875 
L 19.671875 8.296875 
L 56.78125 8.296875 
L 56.78125 0 
L 9.8125 0 
z
" id="DejaVuSans-69"/>
      <path d="M 18.109375 8.203125 
L 18.109375 -20.796875 
L 9.078125 -20.796875 
L 9.078125 54.6875 
L 18.109375 54.6875 
L 18.109375 46.390625 
Q 20.953125 51.265625 25.265625 53.625 
Q 29.59375 56 35.59375 56 
Q 45.5625 56 51.78125 48.09375 
Q 58.015625 40.1875 58.015625 27.296875 
Q 58.015625 14.40625 51.78125 6.484375 
Q 45.5625 -1.421875 35.59375 -1.421875 
Q 29.59375 -1.421875 25.265625 0.953125 
Q 20.953125 3.328125 18.109375 8.203125 
z
M 48.6875 27.296875 
Q 48.6875 37.203125 44.609375 42.84375 
Q 40.53125 48.484375 33.40625 48.484375 
Q 26.265625 48.484375 22.1875 42.84375 
Q 18.109375 37.203125 18.109375 27.296875 
Q 18.109375 17.390625 22.1875 11.75 
Q 26.265625 6.109375 33.40625 6.109375 
Q 40.53125 6.109375 44.609375 11.75 
Q 48.6875 17.390625 48.6875 27.296875 
z
" id="DejaVuSans-112"/>
      <path d="M 30.609375 48.390625 
Q 23.390625 48.390625 19.1875 42.75 
Q 14.984375 37.109375 14.984375 27.296875 
Q 14.984375 17.484375 19.15625 11.84375 
Q 23.34375 6.203125 30.609375 6.203125 
Q 37.796875 6.203125 41.984375 11.859375 
Q 46.1875 17.53125 46.1875 27.296875 
Q 46.1875 37.015625 41.984375 42.703125 
Q 37.796875 48.390625 30.609375 48.390625 
z
M 30.609375 56 
Q 42.328125 56 49.015625 48.375 
Q 55.71875 40.765625 55.71875 27.296875 
Q 55.71875 13.875 49.015625 6.21875 
Q 42.328125 -1.421875 30.609375 -1.421875 
Q 18.84375 -1.421875 12.171875 6.21875 
Q 5.515625 13.875 5.515625 27.296875 
Q 5.515625 40.765625 12.171875 48.375 
Q 18.84375 56 30.609375 56 
z
" id="DejaVuSans-111"/>
      <path d="M 48.78125 52.59375 
L 48.78125 44.1875 
Q 44.96875 46.296875 41.140625 47.34375 
Q 37.3125 48.390625 33.40625 48.390625 
Q 24.65625 48.390625 19.8125 42.84375 
Q 14.984375 37.3125 14.984375 27.296875 
Q 14.984375 17.28125 19.8125 11.734375 
Q 24.65625 6.203125 33.40625 6.203125 
Q 37.3125 6.203125 41.140625 7.25 
Q 44.96875 8.296875 48.78125 10.40625 
L 48.78125 2.09375 
Q 45.015625 0.34375 40.984375 -0.53125 
Q 36.96875 -1.421875 32.421875 -1.421875 
Q 20.0625 -1.421875 12.78125 6.34375 
Q 5.515625 14.109375 5.515625 27.296875 
Q 5.515625 40.671875 12.859375 48.328125 
Q 20.21875 56 33.015625 56 
Q 37.15625 56 41.109375 55.140625 
Q 45.0625 54.296875 48.78125 52.59375 
z
" id="DejaVuSans-99"/>
      <path d="M 54.890625 33.015625 
L 54.890625 0 
L 45.90625 0 
L 45.90625 32.71875 
Q 45.90625 40.484375 42.875 44.328125 
Q 39.84375 48.1875 33.796875 48.1875 
Q 26.515625 48.1875 22.3125 43.546875 
Q 18.109375 38.921875 18.109375 30.90625 
L 18.109375 0 
L 9.078125 0 
L 9.078125 75.984375 
L 18.109375 75.984375 
L 18.109375 46.1875 
Q 21.34375 51.125 25.703125 53.5625 
Q 30.078125 56 35.796875 56 
Q 45.21875 56 50.046875 50.171875 
Q 54.890625 44.34375 54.890625 33.015625 
z
" id="DejaVuSans-104"/>
      <path d="M 44.28125 53.078125 
L 44.28125 44.578125 
Q 40.484375 46.53125 36.375 47.5 
Q 32.28125 48.484375 27.875 48.484375 
Q 21.1875 48.484375 17.84375 46.4375 
Q 14.5 44.390625 14.5 40.28125 
Q 14.5 37.15625 16.890625 35.375 
Q 19.28125 33.59375 26.515625 31.984375 
L 29.59375 31.296875 
Q 39.15625 29.25 43.1875 25.515625 
Q 47.21875 21.78125 47.21875 15.09375 
Q 47.21875 7.46875 41.1875 3.015625 
Q 35.15625 -1.421875 24.609375 -1.421875 
Q 20.21875 -1.421875 15.453125 -0.5625 
Q 10.6875 0.296875 5.421875 2 
L 5.421875 11.28125 
Q 10.40625 8.6875 15.234375 7.390625 
Q 20.0625 6.109375 24.8125 6.109375 
Q 31.15625 6.109375 34.5625 8.28125 
Q 37.984375 10.453125 37.984375 14.40625 
Q 37.984375 18.0625 35.515625 20.015625 
Q 33.0625 21.96875 24.703125 23.78125 
L 21.578125 24.515625 
Q 13.234375 26.265625 9.515625 29.90625 
Q 5.8125 33.546875 5.8125 39.890625 
Q 5.8125 47.609375 11.28125 51.796875 
Q 16.75 56 26.8125 56 
Q 31.78125 56 36.171875 55.265625 
Q 40.578125 54.546875 44.28125 53.078125 
z
" id="DejaVuSans-115"/>
     </defs>
     <g transform="translate(203.484375 280.276563)scale(0.1 -0.1)">
      <use xlink:href="#DejaVuSans-69"/>
      <use x="63.183594" xlink:href="#DejaVuSans-112"/>
      <use x="126.660156" xlink:href="#DejaVuSans-111"/>
      <use x="187.841797" xlink:href="#DejaVuSans-99"/>
      <use x="242.822266" xlink:href="#DejaVuSans-104"/>
      <use x="306.201172" xlink:href="#DejaVuSans-115"/>
     </g>
    </g>
   </g>
   <g id="matplotlib.axis_2">
    <g id="ytick_1">
     <g id="line2d_17">
      <path clip-path="url(#pf4dd9d356f)" d="M 54 242.184712 
L 388.8 242.184712 
" style="fill:none;stroke:#b0b0b0;stroke-dasharray:0.8,1.32;stroke-dashoffset:0;stroke-width:0.8;"/>
     </g>
     <g id="line2d_18">
      <defs>
       <path d="M 0 0 
L -3.5 0 
" id="m762b47f836" style="stroke:#000000;stroke-width:0.8;"/>
      </defs>
      <g>
       <use style="stroke:#000000;stroke-width:0.8;" x="54" xlink:href="#m762b47f836" y="242.184712"/>
      </g>
     </g>
     <g id="text_10">
      <!-- 0.0 -->
      <defs>
       <path d="M 10.6875 12.40625 
L 21 12.40625 
L 21 0 
L 10.6875 0 
z
" id="DejaVuSans-46"/>
      </defs>
      <g transform="translate(31.096875 245.98393)scale(0.1 -0.1)">
       <use xlink:href="#DejaVuSans-48"/>
       <use x="63.623047" xlink:href="#DejaVuSans-46"/>
       <use x="95.410156" xlink:href="#DejaVuSans-48"/>
      </g>
     </g>
    </g>
    <g id="ytick_2">
     <g id="line2d_19">
      <path clip-path="url(#pf4dd9d356f)" d="M 54 199.249415 
L 388.8 199.249415 
" style="fill:none;stroke:#b0b0b0;stroke-dasharray:0.8,1.32;stroke-dashoffset:0;stroke-width:0.8;"/>
     </g>
     <g id="line2d_20">
      <g>
       <use style="stroke:#000000;stroke-width:0.8;" x="54" xlink:href="#m762b47f836" y="199.249415"/>
      </g>
     </g>
     <g id="text_11">
      <!-- 0.5 -->
      <g transform="translate(31.096875 203.048634)scale(0.1 -0.1)">
       <use xlink:href="#DejaVuSans-48"/>
       <use x="63.623047" xlink:href="#DejaVuSans-46"/>
       <use x="95.410156" xlink:href="#DejaVuSans-53"/>
      </g>
     </g>
    </g>
    <g id="ytick_3">
     <g id="line2d_21">
      <path clip-path="url(#pf4dd9d356f)" d="M 54 156.314119 
L 388.8 156.314119 
" style="fill:none;stroke:#b0b0b0;stroke-dasharray:0.8,1.32;stroke-dashoffset:0;stroke-width:0.8;"/>
     </g>
     <g id="line2d_22">
      <g>
       <use style="stroke:#000000;stroke-width:0.8;" x="54" xlink:href="#m762b47f836" y="156.314119"/>
      </g>
     </g>
     <g id="text_12">
      <!-- 1.0 -->
      <g transform="translate(31.096875 160.113338)scale(0.1 -0.1)">
       <use xlink:href="#DejaVuSans-49"/>
       <use x="63.623047" xlink:href="#DejaVuSans-46"/>
       <use x="95.410156" xlink:href="#DejaVuSans-48"/>
      </g>
     </g>
    </g>
    <g id="ytick_4">
     <g id="line2d_23">
      <path clip-path="url(#pf4dd9d356f)" d="M 54 113.378823 
L 388.8 113.378823 
" style="fill:none;stroke:#b0b0b0;stroke-dasharray:0.8,1.32;stroke-dashoffset:0;stroke-width:0.8;"/>
     </g>
     <g id="line2d_24">
      <g>
       <use style="stroke:#000000;stroke-width:0.8;" x="54" xlink:href="#m762b47f836" y="113.378823"/>
      </g>
     </g>
     <g id="text_13">
      <!-- 1.5 -->
      <g transform="translate(31.096875 117.178042)scale(0.1 -0.1)">
       <use xlink:href="#DejaVuSans-49"/>
       <use x="63.623047" xlink:href="#DejaVuSans-46"/>
       <use x="95.410156" xlink:href="#DejaVuSans-53"/>
      </g>
     </g>
    </g>
    <g id="ytick_5">
     <g id="line2d_25">
      <path clip-path="url(#pf4dd9d356f)" d="M 54 70.443527 
L 388.8 70.443527 
" style="fill:none;stroke:#b0b0b0;stroke-dasharray:0.8,1.32;stroke-dashoffset:0;stroke-width:0.8;"/>
     </g>
     <g id="line2d_26">
      <g>
       <use style="stroke:#000000;stroke-width:0.8;" x="54" xlink:href="#m762b47f836" y="70.443527"/>
      </g>
     </g>
     <g id="text_14">
      <!-- 2.0 -->
      <g transform="translate(31.096875 74.242746)scale(0.1 -0.1)">
       <use xlink:href="#DejaVuSans-50"/>
       <use x="63.623047" xlink:href="#DejaVuSans-46"/>
       <use x="95.410156" xlink:href="#DejaVuSans-48"/>
      </g>
     </g>
    </g>
    <g id="text_15">
     <!-- Loss -->
     <defs>
      <path d="M 9.8125 72.90625 
L 19.671875 72.90625 
L 19.671875 8.296875 
L 55.171875 8.296875 
L 55.171875 0 
L 9.8125 0 
z
" id="DejaVuSans-76"/>
     </defs>
     <g transform="translate(25.017187 154.333906)rotate(-90)scale(0.1 -0.1)">
      <use xlink:href="#DejaVuSans-76"/>
      <use x="55.697266" xlink:href="#DejaVuSans-111"/>
      <use x="116.878906" xlink:href="#DejaVuSans-115"/>
      <use x="168.978516" xlink:href="#DejaVuSans-115"/>
     </g>
    </g>
   </g>
   <g id="line2d_27">
    <path clip-path="url(#pf4dd9d356f)" d="M 69.218182 44.443636 
L 70.090284 55.595727 
L 70.962386 59.078127 
L 71.834488 56.331593 
L 72.70659 67.670542 
L 73.578692 66.423052 
L 74.450794 76.901668 
L 75.322897 72.949532 
L 76.194999 87.137288 
L 77.067101 87.467069 
L 77.939203 83.330573 
L 78.811305 84.720423 
L 79.683407 82.910833 
L 80.555509 101.109165 
L 82.299713 91.296776 
L 83.171816 96.719774 
L 84.043918 110.140944 
L 84.91602 96.406811 
L 85.788122 107.018687 
L 86.660224 105.730097 
L 87.532326 112.326063 
L 88.404428 107.462934 
L 89.27653 122.239897 
L 90.148632 120.979294 
L 91.020735 108.000487 
L 91.892837 112.586195 
L 92.764939 106.381645 
L 93.637041 125.247668 
L 94.509143 124.578339 
L 95.381245 117.832479 
L 96.253347 121.541886 
L 97.125449 124.097865 
L 97.997551 145.078887 
L 98.869654 146.643322 
L 99.741756 143.993125 
L 100.613858 137.87491 
L 101.48596 143.339233 
L 102.358062 149.608571 
L 103.230164 135.650503 
L 104.102266 151.186006 
L 104.974368 154.395407 
L 105.84647 149.418232 
L 106.718573 163.420542 
L 107.590675 146.809636 
L 108.462777 162.236452 
L 109.334879 157.257952 
L 110.206981 161.594271 
L 111.079083 175.596136 
L 111.951185 175.471429 
L 112.823287 162.834621 
L 113.695389 171.965838 
L 114.567492 174.677204 
L 115.439594 165.388406 
L 116.311696 173.072903 
L 117.183798 179.279183 
L 118.0559 179.79718 
L 118.928002 180.782342 
L 119.800104 178.486386 
L 120.672206 185.25165 
L 121.544308 158.582825 
L 122.416411 190.171413 
L 123.288513 187.797598 
L 124.160615 199.232858 
L 125.032717 201.702029 
L 125.904819 180.637653 
L 126.776921 187.864643 
L 127.649023 169.972163 
L 128.521125 202.943267 
L 129.393227 190.266485 
L 130.26533 200.643388 
L 131.137432 185.038402 
L 132.009534 196.915718 
L 132.881636 203.432614 
L 133.753738 206.814186 
L 134.62584 197.952114 
L 135.497942 198.144403 
L 136.370044 208.335269 
L 137.242146 189.84717 
L 138.114249 200.581137 
L 138.986351 208.085359 
L 139.858453 207.237484 
L 140.730555 221.581451 
L 141.602657 219.649868 
L 142.474759 211.564941 
L 143.346861 213.323981 
L 144.218963 229.332044 
L 145.091065 217.964073 
L 145.963167 216.957856 
L 146.83527 207.367368 
L 147.707372 225.046302 
L 148.579474 208.471052 
L 149.451576 220.659383 
L 150.323678 224.497094 
L 151.19578 215.041857 
L 152.067882 222.902513 
L 152.939984 221.683868 
L 153.812086 215.184956 
L 154.684189 222.635992 
L 155.556291 213.486282 
L 156.428393 222.279287 
L 157.300495 227.327617 
L 158.172597 221.847811 
L 159.044699 224.879872 
L 159.916801 233.330766 
L 160.788903 234.3895 
L 161.661005 231.134053 
L 162.533108 226.196257 
L 163.40521 238.237863 
L 164.277312 220.864825 
L 165.149414 222.727036 
L 166.893618 234.671763 
L 167.76572 222.583787 
L 168.637822 228.316646 
L 169.509924 229.404116 
L 170.382027 234.954952 
L 171.254129 234.26007 
L 172.126231 223.968139 
L 172.998333 229.013997 
L 173.870435 233.330535 
L 174.742537 231.253596 
L 175.614639 236.115838 
L 176.486741 232.638062 
L 177.358843 234.109831 
L 179.103048 234.383241 
L 179.97515 235.886693 
L 180.847252 232.907874 
L 181.719354 232.101204 
L 182.591456 230.619981 
L 183.463558 222.323724 
L 184.33566 225.544255 
L 185.207762 239.225382 
L 186.079865 232.919591 
L 186.951967 237.576849 
L 187.824069 229.443863 
L 188.696171 233.753375 
L 189.568273 236.73765 
L 190.440375 238.81692 
L 191.312477 239.548626 
L 192.184579 238.813922 
L 193.056681 235.289911 
L 193.928784 238.621931 
L 194.800886 236.909407 
L 195.672988 240.303137 
L 196.54509 238.256687 
L 197.417192 239.992724 
L 199.161396 233.082018 
L 200.033498 228.902785 
L 200.9056 226.767771 
L 201.777703 238.590541 
L 202.649805 241.708719 
L 203.521907 236.875376 
L 204.394009 228.657117 
L 205.266111 236.702608 
L 206.138213 237.882778 
L 207.010315 241.259939 
L 207.882417 241.234906 
L 209.626622 238.192289 
L 210.498724 234.576995 
L 211.370826 235.72859 
L 212.242928 231.512366 
L 213.11503 229.285625 
L 213.987132 237.6582 
L 214.859234 233.438489 
L 215.731336 235.421911 
L 216.603438 239.593907 
L 217.475541 230.861072 
L 218.347643 232.138341 
L 219.219745 239.3548 
L 220.091847 238.240857 
L 220.963949 241.371658 
L 221.836051 235.292612 
L 222.708153 236.601956 
L 223.580255 240.03365 
L 224.452357 238.506939 
L 225.324459 234.841038 
L 226.196562 232.58266 
L 227.068664 240.319987 
L 227.940766 239.956954 
L 228.812868 237.563404 
L 229.68497 240.258522 
L 230.557072 234.669741 
L 231.429174 241.154858 
L 232.301276 241.749824 
L 233.173378 236.308926 
L 234.045481 240.435384 
L 235.789685 228.586562 
L 236.661787 239.51658 
L 237.533889 241.282734 
L 238.405991 240.732353 
L 239.278093 239.094417 
L 240.150195 236.302066 
L 241.022297 236.99868 
L 241.8944 237.038779 
L 242.766502 241.119594 
L 243.638604 241.362789 
L 244.510706 241.823019 
L 245.382808 241.197991 
L 246.25491 238.307376 
L 247.127012 238.820997 
L 247.999114 240.24526 
L 248.871216 242.094438 
L 249.743319 241.708479 
L 250.615421 238.387289 
L 251.487523 241.180522 
L 252.359625 239.307103 
L 253.231727 241.056212 
L 254.103829 237.775457 
L 254.975931 239.062897 
L 255.848033 233.02068 
L 256.720135 241.943439 
L 257.592238 239.588997 
L 258.46434 241.238374 
L 259.336442 242.011463 
L 260.208544 238.824139 
L 261.080646 240.60038 
L 261.952748 239.482508 
L 262.82485 241.549771 
L 263.696952 240.671743 
L 264.569054 234.950461 
L 265.441157 241.479243 
L 266.313259 242.116364 
L 268.057463 241.357799 
L 268.929565 239.479816 
L 269.801667 241.356739 
L 270.673769 240.095423 
L 271.545871 241.829442 
L 272.417973 236.368594 
L 273.290076 240.347305 
L 274.162178 241.819854 
L 275.03428 241.547032 
L 275.906382 236.494357 
L 276.778484 235.886213 
L 277.650586 235.562167 
L 280.266892 240.859722 
L 281.138995 235.269887 
L 282.011097 240.835874 
L 282.883199 238.039431 
L 283.755301 240.703965 
L 284.627403 240.905227 
L 285.499505 239.151767 
L 286.371607 240.788208 
L 287.243709 241.980664 
L 288.115811 233.82258 
L 288.987914 241.73652 
L 289.860016 240.186877 
L 290.732118 240.300513 
L 291.60422 241.765625 
L 292.476322 241.510787 
L 293.348424 240.83874 
L 294.220526 235.941046 
L 295.092628 240.253374 
L 295.96473 238.878915 
L 296.836833 238.151489 
L 297.708935 241.217825 
L 298.581037 241.712306 
L 299.453139 242.071589 
L 300.325241 240.142255 
L 301.197343 237.10332 
L 302.069445 241.790986 
L 303.813649 240.667697 
L 304.685751 240.595913 
L 305.557854 238.282201 
L 306.429956 240.12441 
L 307.302058 239.315477 
L 308.17416 241.852655 
L 309.918364 241.92119 
L 310.790466 237.818528 
L 311.662568 238.946888 
L 312.53467 242.011264 
L 313.406773 241.994388 
L 314.278875 241.793391 
L 315.150977 241.836804 
L 316.023079 235.458416 
L 316.895181 240.535363 
L 317.767283 237.103695 
L 318.639385 234.509691 
L 319.511487 235.63861 
L 320.383589 235.710753 
L 321.255692 236.931945 
L 322.127794 236.551729 
L 322.999896 232.581574 
L 323.871998 241.288355 
L 324.7441 238.92894 
L 325.616202 239.79154 
L 326.488304 240.235789 
L 327.360406 234.819517 
L 328.232508 236.083406 
L 329.104611 238.970276 
L 329.976713 240.331071 
L 330.848815 239.443675 
L 331.720917 238.836828 
L 332.593019 238.905668 
L 333.465121 240.424023 
L 334.337223 234.899266 
L 335.209325 238.655591 
L 336.081427 241.58828 
L 336.95353 241.531243 
L 337.825632 239.024876 
L 338.697734 242.067758 
L 339.569836 241.83336 
L 340.441938 240.418409 
L 341.31404 235.263206 
L 342.186142 239.655795 
L 343.058244 239.170301 
L 343.930346 241.15753 
L 344.802449 241.509656 
L 345.674551 239.93987 
L 346.546653 238.690046 
L 347.418755 239.898803 
L 348.290857 241.597896 
L 349.162959 240.569734 
L 350.035061 241.480373 
L 351.779265 236.72453 
L 352.651368 241.644509 
L 353.52347 241.608015 
L 354.395572 240.231714 
L 355.267674 241.195281 
L 356.139776 240.314709 
L 357.011878 240.861995 
L 357.88398 240.786628 
L 358.756082 238.871702 
L 359.628184 237.435937 
L 360.500287 238.636101 
L 361.372389 241.845993 
L 362.244491 239.622427 
L 363.116593 238.324396 
L 363.988695 241.744561 
L 364.860797 241.942492 
L 365.732899 241.942128 
L 366.605001 242.053936 
L 368.349206 240.981883 
L 369.221308 241.563045 
L 370.09341 241.887627 
L 370.965512 240.900314 
L 371.837614 241.972689 
L 372.709716 238.672379 
L 373.581818 241.974803 
L 373.581818 241.974803 
" style="fill:none;stroke:#4363d8;stroke-linecap:square;stroke-width:1.5;"/>
   </g>
   <g id="line2d_28">
    <path clip-path="url(#pf4dd9d356f)" d="M 69.218182 45.77652 
L 70.090284 52.909016 
L 70.962386 57.908824 
L 71.834488 58.208632 
L 72.70659 66.096874 
L 73.578692 60.703776 
L 74.450794 75.208201 
L 75.322897 81.26081 
L 76.194999 89.240771 
L 77.067101 92.597189 
L 77.939203 90.586481 
L 78.811305 95.317998 
L 79.683407 95.240282 
L 80.555509 101.949322 
L 81.427611 98.314192 
L 82.299713 105.324432 
L 83.171816 103.469227 
L 84.043918 101.05183 
L 84.91602 104.893431 
L 85.788122 93.669419 
L 86.660224 104.674952 
L 87.532326 107.218853 
L 88.404428 113.470369 
L 89.27653 96.666165 
L 90.148632 113.923859 
L 91.892837 121.091231 
L 92.764939 110.010796 
L 93.637041 124.518425 
L 94.509143 114.109469 
L 95.381245 116.993705 
L 96.253347 126.951832 
L 97.125449 129.598436 
L 97.997551 132.816743 
L 98.869654 123.136467 
L 99.741756 135.715904 
L 100.613858 134.892669 
L 101.48596 138.381334 
L 102.358062 131.806056 
L 103.230164 134.279949 
L 104.102266 138.381661 
L 104.974368 128.269484 
L 105.84647 139.531607 
L 106.718573 136.463205 
L 107.590675 141.224746 
L 108.462777 145.326807 
L 109.334879 133.629988 
L 110.206981 137.022613 
L 111.079083 138.996623 
L 111.951185 148.946449 
L 112.823287 135.991176 
L 113.695389 141.996655 
L 114.567492 145.005297 
L 115.439594 149.606145 
L 116.311696 145.295483 
L 118.928002 127.484492 
L 119.800104 153.873393 
L 120.672206 140.398399 
L 121.544308 147.665894 
L 122.416411 134.420732 
L 123.288513 155.462713 
L 124.160615 149.814766 
L 125.032717 139.431719 
L 125.904819 151.451706 
L 126.776921 155.28908 
L 128.521125 150.227924 
L 129.393227 157.440905 
L 130.26533 152.420649 
L 131.137432 139.72341 
L 132.009534 143.549666 
L 132.881636 141.92675 
L 133.753738 149.801008 
L 134.62584 145.587717 
L 135.497942 143.1699 
L 136.370044 154.437919 
L 137.242146 140.32705 
L 138.114249 134.054058 
L 138.986351 137.717082 
L 139.858453 134.206593 
L 140.730555 142.17382 
L 141.602657 118.194977 
L 143.346861 145.902133 
L 144.218963 130.765754 
L 145.091065 129.59425 
L 145.963167 121.357955 
L 146.83527 124.613359 
L 147.707372 128.637765 
L 148.579474 136.994114 
L 149.451576 124.444609 
L 150.323678 122.052987 
L 151.19578 133.440386 
L 152.067882 121.488451 
L 152.939984 130.373806 
L 153.812086 119.81258 
L 154.684189 133.499502 
L 155.556291 129.702317 
L 156.428393 118.985332 
L 157.300495 130.738647 
L 158.172597 133.702647 
L 159.044699 129.827582 
L 159.916801 114.327344 
L 160.788903 120.550125 
L 161.661005 103.981465 
L 162.533108 106.459852 
L 163.40521 122.777757 
L 164.277312 129.305865 
L 165.149414 114.972289 
L 166.021516 133.21514 
L 166.893618 119.283483 
L 167.76572 115.46995 
L 168.637822 132.169157 
L 169.509924 99.302932 
L 170.382027 115.964315 
L 171.254129 109.857217 
L 172.126231 115.007881 
L 172.998333 106.53116 
L 173.870435 107.267692 
L 174.742537 121.347258 
L 175.614639 101.511247 
L 176.486741 99.483925 
L 177.358843 93.515727 
L 178.230946 114.750268 
L 179.103048 108.756007 
L 179.97515 104.082459 
L 180.847252 128.511968 
L 181.719354 103.265346 
L 182.591456 108.034933 
L 183.463558 93.975195 
L 184.33566 128.163556 
L 185.207762 123.089543 
L 186.079865 115.026532 
L 186.951967 109.10965 
L 187.824069 109.648002 
L 188.696171 99.640688 
L 189.568273 100.534064 
L 190.440375 93.817255 
L 191.312477 109.325642 
L 192.184579 92.329861 
L 193.056681 128.136695 
L 193.928784 102.848584 
L 194.800886 83.986113 
L 195.672988 92.092055 
L 196.54509 123.690337 
L 197.417192 94.240415 
L 198.289294 112.810734 
L 199.161396 103.515937 
L 200.033498 125.524363 
L 200.9056 122.795958 
L 201.777703 107.960902 
L 202.649805 81.151504 
L 203.521907 104.240594 
L 204.394009 98.259907 
L 205.266111 110.186261 
L 206.138213 94.850269 
L 207.010315 114.988156 
L 207.882417 98.316567 
L 208.754519 107.984364 
L 209.626622 96.827627 
L 210.498724 94.300882 
L 212.242928 132.452833 
L 213.11503 104.494 
L 213.987132 97.468661 
L 214.859234 108.143932 
L 215.731336 86.983125 
L 216.603438 114.733879 
L 217.475541 116.850679 
L 218.347643 110.157261 
L 219.219745 122.249243 
L 220.091847 114.633428 
L 220.963949 90.378965 
L 221.836051 97.995937 
L 222.708153 102.403743 
L 223.580255 113.852868 
L 224.452357 90.481003 
L 225.324459 100.806644 
L 226.196562 133.799823 
L 227.068664 115.131949 
L 227.940766 108.202721 
L 228.812868 102.540473 
L 229.68497 81.209842 
L 230.557072 111.124146 
L 231.429174 95.318019 
L 232.301276 97.226218 
L 233.173378 105.682036 
L 234.045481 106.206456 
L 234.917583 108.873237 
L 235.789685 106.523186 
L 236.661787 103.266625 
L 237.533889 89.691292 
L 238.405991 92.995105 
L 239.278093 91.566745 
L 240.150195 90.781057 
L 241.022297 98.711105 
L 241.8944 103.527535 
L 242.766502 104.193915 
L 243.638604 100.917066 
L 244.510706 84.083391 
L 245.382808 90.269638 
L 246.25491 98.592606 
L 247.127012 100.914588 
L 247.999114 77.843043 
L 248.871216 89.260404 
L 249.743319 90.209509 
L 250.615421 88.912381 
L 251.487523 82.576353 
L 252.359625 103.374908 
L 253.231727 93.565241 
L 254.103829 108.644951 
L 254.975931 108.027338 
L 255.848033 93.264951 
L 256.720135 86.097242 
L 257.592238 95.72309 
L 258.46434 89.288708 
L 259.336442 92.668088 
L 260.208544 86.589335 
L 261.080646 112.928434 
L 261.952748 107.573049 
L 262.82485 104.245763 
L 263.696952 104.095613 
L 264.569054 104.089431 
L 265.441157 100.115173 
L 266.313259 110.21086 
L 267.185361 86.456321 
L 268.057463 93.138724 
L 268.929565 100.892774 
L 269.801667 111.033102 
L 270.673769 83.570754 
L 271.545871 77.955594 
L 272.417973 114.018578 
L 273.290076 93.865357 
L 274.162178 82.790041 
L 275.03428 108.8288 
L 275.906382 94.488478 
L 276.778484 96.217558 
L 277.650586 97.649255 
L 278.522688 109.764494 
L 279.39479 109.333913 
L 280.266892 99.411307 
L 282.011097 88.904929 
L 282.883199 78.300659 
L 283.755301 110.140105 
L 284.627403 118.918539 
L 285.499505 91.52281 
L 286.371607 84.773919 
L 287.243709 108.061763 
L 288.115811 87.574451 
L 289.860016 113.850883 
L 290.732118 106.582128 
L 291.60422 103.56324 
L 292.476322 107.073473 
L 293.348424 96.489922 
L 294.220526 107.414965 
L 295.092628 97.361894 
L 295.96473 94.928681 
L 296.836833 97.579677 
L 297.708935 105.515835 
L 298.581037 110.990211 
L 299.453139 97.231377 
L 300.325241 107.647499 
L 301.197343 104.066009 
L 302.069445 110.283806 
L 302.941547 114.318172 
L 303.813649 95.278598 
L 304.685751 94.216789 
L 305.557854 99.751632 
L 306.429956 98.306504 
L 307.302058 87.322826 
L 308.17416 92.444244 
L 309.046262 101.806061 
L 309.918364 93.997562 
L 310.790466 92.481506 
L 311.662568 95.859851 
L 312.53467 102.545223 
L 314.278875 99.109645 
L 315.150977 93.201208 
L 316.023079 103.611639 
L 316.895181 105.4563 
L 317.767283 111.964876 
L 318.639385 91.413278 
L 319.511487 111.118915 
L 320.383589 93.462927 
L 321.255692 110.432287 
L 322.127794 97.179089 
L 322.999896 104.276791 
L 323.871998 107.20399 
L 324.7441 118.762943 
L 325.616202 105.091182 
L 326.488304 95.789833 
L 327.360406 129.390562 
L 328.232508 109.62111 
L 329.104611 112.034403 
L 329.976713 111.833612 
L 330.848815 114.021557 
L 331.720917 104.01976 
L 332.593019 96.049053 
L 333.465121 92.241038 
L 334.337223 110.735935 
L 335.209325 115.972197 
L 336.081427 107.200571 
L 336.95353 86.064731 
L 337.825632 88.531233 
L 338.697734 91.891736 
L 339.569836 102.751326 
L 340.441938 98.240192 
L 341.31404 124.898601 
L 342.186142 110.748597 
L 343.058244 112.492643 
L 343.930346 107.92188 
L 344.802449 102.693326 
L 345.674551 107.69471 
L 346.546653 97.230477 
L 347.418755 94.512339 
L 348.290857 84.782098 
L 349.162959 101.953908 
L 350.035061 100.719469 
L 350.907163 105.952743 
L 351.779265 115.548976 
L 352.651368 101.074525 
L 353.52347 94.659162 
L 354.395572 96.25703 
L 355.267674 116.163375 
L 356.139776 99.244174 
L 357.011878 88.725308 
L 357.88398 92.555762 
L 358.756082 85.493714 
L 359.628184 113.853278 
L 360.500287 112.995392 
L 361.372389 92.786781 
L 363.116593 100.517072 
L 363.988695 100.509517 
L 364.860797 99.080276 
L 365.732899 98.637422 
L 366.605001 105.038422 
L 367.477103 98.427429 
L 368.349206 99.383064 
L 369.221308 102.634169 
L 370.09341 102.850519 
L 370.965512 105.674318 
L 371.837614 95.344194 
L 372.709716 91.121004 
L 373.581818 101.794954 
L 373.581818 101.794954 
" style="fill:none;stroke:#008000;stroke-linecap:square;stroke-width:1.5;"/>
   </g>
   <g id="patch_3">
    <path d="M 54 252 
L 54 34.56 
" style="fill:none;stroke:#000000;stroke-linecap:square;stroke-linejoin:miter;stroke-width:0.8;"/>
   </g>
   <g id="patch_4">
    <path d="M 388.8 252 
L 388.8 34.56 
" style="fill:none;stroke:#000000;stroke-linecap:square;stroke-linejoin:miter;stroke-width:0.8;"/>
   </g>
   <g id="patch_5">
    <path d="M 54 252 
L 388.8 252 
" style="fill:none;stroke:#000000;stroke-linecap:square;stroke-linejoin:miter;stroke-width:0.8;"/>
   </g>
   <g id="patch_6">
    <path d="M 54 34.56 
L 388.8 34.56 
" style="fill:none;stroke:#000000;stroke-linecap:square;stroke-linejoin:miter;stroke-width:0.8;"/>
   </g>
   <g id="text_16">
    <!-- VGGNet Loss -->
    <defs>
     <path d="M 28.609375 0 
L 0.78125 72.90625 
L 11.078125 72.90625 
L 34.1875 11.53125 
L 57.328125 72.90625 
L 67.578125 72.90625 
L 39.796875 0 
z
" id="DejaVuSans-86"/>
     <path d="M 59.515625 10.40625 
L 59.515625 29.984375 
L 43.40625 29.984375 
L 43.40625 38.09375 
L 69.28125 38.09375 
L 69.28125 6.78125 
Q 63.578125 2.734375 56.6875 0.65625 
Q 49.8125 -1.421875 42 -1.421875 
Q 24.90625 -1.421875 15.25 8.5625 
Q 5.609375 18.5625 5.609375 36.375 
Q 5.609375 54.25 15.25 64.234375 
Q 24.90625 74.21875 42 74.21875 
Q 49.125 74.21875 55.546875 72.453125 
Q 61.96875 70.703125 67.390625 67.28125 
L 67.390625 56.78125 
Q 61.921875 61.421875 55.765625 63.765625 
Q 49.609375 66.109375 42.828125 66.109375 
Q 29.4375 66.109375 22.71875 58.640625 
Q 16.015625 51.171875 16.015625 36.375 
Q 16.015625 21.625 22.71875 14.15625 
Q 29.4375 6.6875 42.828125 6.6875 
Q 48.046875 6.6875 52.140625 7.59375 
Q 56.25 8.5 59.515625 10.40625 
z
" id="DejaVuSans-71"/>
     <path d="M 9.8125 72.90625 
L 23.09375 72.90625 
L 55.421875 11.921875 
L 55.421875 72.90625 
L 64.984375 72.90625 
L 64.984375 0 
L 51.703125 0 
L 19.390625 60.984375 
L 19.390625 0 
L 9.8125 0 
z
" id="DejaVuSans-78"/>
     <path d="M 56.203125 29.59375 
L 56.203125 25.203125 
L 14.890625 25.203125 
Q 15.484375 15.921875 20.484375 11.0625 
Q 25.484375 6.203125 34.421875 6.203125 
Q 39.59375 6.203125 44.453125 7.46875 
Q 49.3125 8.734375 54.109375 11.28125 
L 54.109375 2.78125 
Q 49.265625 0.734375 44.1875 -0.34375 
Q 39.109375 -1.421875 33.890625 -1.421875 
Q 20.796875 -1.421875 13.15625 6.1875 
Q 5.515625 13.8125 5.515625 26.8125 
Q 5.515625 40.234375 12.765625 48.109375 
Q 20.015625 56 32.328125 56 
Q 43.359375 56 49.78125 48.890625 
Q 56.203125 41.796875 56.203125 29.59375 
z
M 47.21875 32.234375 
Q 47.125 39.59375 43.09375 43.984375 
Q 39.0625 48.390625 32.421875 48.390625 
Q 24.90625 48.390625 20.390625 44.140625 
Q 15.875 39.890625 15.1875 32.171875 
z
" id="DejaVuSans-101"/>
     <path d="M 18.3125 70.21875 
L 18.3125 54.6875 
L 36.8125 54.6875 
L 36.8125 47.703125 
L 18.3125 47.703125 
L 18.3125 18.015625 
Q 18.3125 11.328125 20.140625 9.421875 
Q 21.96875 7.515625 27.59375 7.515625 
L 36.8125 7.515625 
L 36.8125 0 
L 27.59375 0 
Q 17.1875 0 13.234375 3.875 
Q 9.28125 7.765625 9.28125 18.015625 
L 9.28125 47.703125 
L 2.6875 47.703125 
L 2.6875 54.6875 
L 9.28125 54.6875 
L 9.28125 70.21875 
z
" id="DejaVuSans-116"/>
     <path id="DejaVuSans-32"/>
    </defs>
    <g transform="translate(172.516406 28.56)scale(0.15 -0.15)">
     <use xlink:href="#DejaVuSans-86"/>
     <use x="68.408203" xlink:href="#DejaVuSans-71"/>
     <use x="145.898438" xlink:href="#DejaVuSans-71"/>
     <use x="223.388672" xlink:href="#DejaVuSans-78"/>
     <use x="298.193359" xlink:href="#DejaVuSans-101"/>
     <use x="359.716797" xlink:href="#DejaVuSans-116"/>
     <use x="398.925781" xlink:href="#DejaVuSans-32"/>
     <use x="430.712891" xlink:href="#DejaVuSans-76"/>
     <use x="486.410156" xlink:href="#DejaVuSans-111"/>
     <use x="547.591797" xlink:href="#DejaVuSans-115"/>
     <use x="599.691406" xlink:href="#DejaVuSans-115"/>
    </g>
   </g>
   <g id="legend_1">
    <g id="patch_7">
     <path d="M 274.36875 71.91625 
L 381.8 71.91625 
Q 383.8 71.91625 383.8 69.91625 
L 383.8 41.56 
Q 383.8 39.56 381.8 39.56 
L 274.36875 39.56 
Q 272.36875 39.56 272.36875 41.56 
L 272.36875 69.91625 
Q 272.36875 71.91625 274.36875 71.91625 
z
" style="fill:#ffffff;opacity:0.8;stroke:#cccccc;stroke-linejoin:miter;"/>
    </g>
    <g id="line2d_29">
     <path d="M 276.36875 47.658437 
L 296.36875 47.658437 
" style="fill:none;stroke:#4363d8;stroke-linecap:square;stroke-width:1.5;"/>
    </g>
    <g id="line2d_30"/>
    <g id="text_17">
     <!-- Train Loss -->
     <defs>
      <path d="M -0.296875 72.90625 
L 61.375 72.90625 
L 61.375 64.59375 
L 35.5 64.59375 
L 35.5 0 
L 25.59375 0 
L 25.59375 64.59375 
L -0.296875 64.59375 
z
" id="DejaVuSans-84"/>
      <path d="M 41.109375 46.296875 
Q 39.59375 47.171875 37.8125 47.578125 
Q 36.03125 48 33.890625 48 
Q 26.265625 48 22.1875 43.046875 
Q 18.109375 38.09375 18.109375 28.8125 
L 18.109375 0 
L 9.078125 0 
L 9.078125 54.6875 
L 18.109375 54.6875 
L 18.109375 46.1875 
Q 20.953125 51.171875 25.484375 53.578125 
Q 30.03125 56 36.53125 56 
Q 37.453125 56 38.578125 55.875 
Q 39.703125 55.765625 41.0625 55.515625 
z
" id="DejaVuSans-114"/>
      <path d="M 34.28125 27.484375 
Q 23.390625 27.484375 19.1875 25 
Q 14.984375 22.515625 14.984375 16.5 
Q 14.984375 11.71875 18.140625 8.90625 
Q 21.296875 6.109375 26.703125 6.109375 
Q 34.1875 6.109375 38.703125 11.40625 
Q 43.21875 16.703125 43.21875 25.484375 
L 43.21875 27.484375 
z
M 52.203125 31.203125 
L 52.203125 0 
L 43.21875 0 
L 43.21875 8.296875 
Q 40.140625 3.328125 35.546875 0.953125 
Q 30.953125 -1.421875 24.3125 -1.421875 
Q 15.921875 -1.421875 10.953125 3.296875 
Q 6 8.015625 6 15.921875 
Q 6 25.140625 12.171875 29.828125 
Q 18.359375 34.515625 30.609375 34.515625 
L 43.21875 34.515625 
L 43.21875 35.40625 
Q 43.21875 41.609375 39.140625 45 
Q 35.0625 48.390625 27.6875 48.390625 
Q 23 48.390625 18.546875 47.265625 
Q 14.109375 46.140625 10.015625 43.890625 
L 10.015625 52.203125 
Q 14.9375 54.109375 19.578125 55.046875 
Q 24.21875 56 28.609375 56 
Q 40.484375 56 46.34375 49.84375 
Q 52.203125 43.703125 52.203125 31.203125 
z
" id="DejaVuSans-97"/>
      <path d="M 9.421875 54.6875 
L 18.40625 54.6875 
L 18.40625 0 
L 9.421875 0 
z
M 9.421875 75.984375 
L 18.40625 75.984375 
L 18.40625 64.59375 
L 9.421875 64.59375 
z
" id="DejaVuSans-105"/>
      <path d="M 54.890625 33.015625 
L 54.890625 0 
L 45.90625 0 
L 45.90625 32.71875 
Q 45.90625 40.484375 42.875 44.328125 
Q 39.84375 48.1875 33.796875 48.1875 
Q 26.515625 48.1875 22.3125 43.546875 
Q 18.109375 38.921875 18.109375 30.90625 
L 18.109375 0 
L 9.078125 0 
L 9.078125 54.6875 
L 18.109375 54.6875 
L 18.109375 46.1875 
Q 21.34375 51.125 25.703125 53.5625 
Q 30.078125 56 35.796875 56 
Q 45.21875 56 50.046875 50.171875 
Q 54.890625 44.34375 54.890625 33.015625 
z
" id="DejaVuSans-110"/>
     </defs>
     <g transform="translate(304.36875 51.158437)scale(0.1 -0.1)">
      <use xlink:href="#DejaVuSans-84"/>
      <use x="60.865234" xlink:href="#DejaVuSans-114"/>
      <use x="101.978516" xlink:href="#DejaVuSans-97"/>
      <use x="163.257812" xlink:href="#DejaVuSans-105"/>
      <use x="191.041016" xlink:href="#DejaVuSans-110"/>
      <use x="254.419922" xlink:href="#DejaVuSans-32"/>
      <use x="286.207031" xlink:href="#DejaVuSans-76"/>
      <use x="341.904297" xlink:href="#DejaVuSans-111"/>
      <use x="403.085938" xlink:href="#DejaVuSans-115"/>
      <use x="455.185547" xlink:href="#DejaVuSans-115"/>
     </g>
    </g>
    <g id="line2d_31">
     <path d="M 276.36875 62.336562 
L 296.36875 62.336562 
" style="fill:none;stroke:#008000;stroke-linecap:square;stroke-width:1.5;"/>
    </g>
    <g id="line2d_32"/>
    <g id="text_18">
     <!-- Validation Loss -->
     <defs>
      <path d="M 9.421875 75.984375 
L 18.40625 75.984375 
L 18.40625 0 
L 9.421875 0 
z
" id="DejaVuSans-108"/>
      <path d="M 45.40625 46.390625 
L 45.40625 75.984375 
L 54.390625 75.984375 
L 54.390625 0 
L 45.40625 0 
L 45.40625 8.203125 
Q 42.578125 3.328125 38.25 0.953125 
Q 33.9375 -1.421875 27.875 -1.421875 
Q 17.96875 -1.421875 11.734375 6.484375 
Q 5.515625 14.40625 5.515625 27.296875 
Q 5.515625 40.1875 11.734375 48.09375 
Q 17.96875 56 27.875 56 
Q 33.9375 56 38.25 53.625 
Q 42.578125 51.265625 45.40625 46.390625 
z
M 14.796875 27.296875 
Q 14.796875 17.390625 18.875 11.75 
Q 22.953125 6.109375 30.078125 6.109375 
Q 37.203125 6.109375 41.296875 11.75 
Q 45.40625 17.390625 45.40625 27.296875 
Q 45.40625 37.203125 41.296875 42.84375 
Q 37.203125 48.484375 30.078125 48.484375 
Q 22.953125 48.484375 18.875 42.84375 
Q 14.796875 37.203125 14.796875 27.296875 
z
" id="DejaVuSans-100"/>
     </defs>
     <g transform="translate(304.36875 65.836562)scale(0.1 -0.1)">
      <use xlink:href="#DejaVuSans-86"/>
      <use x="68.298828" xlink:href="#DejaVuSans-97"/>
      <use x="129.578125" xlink:href="#DejaVuSans-108"/>
      <use x="157.361328" xlink:href="#DejaVuSans-105"/>
      <use x="185.144531" xlink:href="#DejaVuSans-100"/>
      <use x="248.621094" xlink:href="#DejaVuSans-97"/>
      <use x="309.900391" xlink:href="#DejaVuSans-116"/>
      <use x="349.109375" xlink:href="#DejaVuSans-105"/>
      <use x="376.892578" xlink:href="#DejaVuSans-111"/>
      <use x="438.074219" xlink:href="#DejaVuSans-110"/>
      <use x="501.453125" xlink:href="#DejaVuSans-32"/>
      <use x="533.240234" xlink:href="#DejaVuSans-76"/>
      <use x="588.9375" xlink:href="#DejaVuSans-111"/>
      <use x="650.119141" xlink:href="#DejaVuSans-115"/>
      <use x="702.21875" xlink:href="#DejaVuSans-115"/>
     </g>
    </g>
   </g>
  </g>
 </g>
 <defs>
  <clipPath id="pf4dd9d356f">
   <rect height="217.44" width="334.8" x="54" y="34.56"/>
  </clipPath>
 </defs>
</svg>
