<?xml version="1.0" encoding="utf-8" standalone="no"?>
<!DOCTYPE svg PUBLIC "-//W3C//DTD SVG 1.1//EN"
  "http://www.w3.org/Graphics/SVG/1.1/DTD/svg11.dtd">
<!-- Created with matplotlib (https://matplotlib.org/) -->
<svg height="288pt" version="1.1" viewBox="0 0 432 288" width="432pt" xmlns="http://www.w3.org/2000/svg" xmlns:xlink="http://www.w3.org/1999/xlink">
 <defs>
  <style type="text/css">
*{stroke-linecap:butt;stroke-linejoin:round;}
  </style>
 </defs>
 <g id="figure_1">
  <g id="patch_1">
   <path d="M 0 288 
L 432 288 
L 432 0 
L 0 0 
z
" style="fill:#ffffff;"/>
  </g>
  <g id="axes_1">
   <g id="patch_2">
    <path d="M 54 252 
L 388.8 252 
L 388.8 34.56 
L 54 34.56 
z
" style="fill:#ffffff;"/>
   </g>
   <g id="matplotlib.axis_1">
    <g id="xtick_1">
     <g id="line2d_1">
      <path clip-path="url(#pf45a441b82)" d="M 69.218182 252 
L 69.218182 34.56 
" style="fill:none;stroke:#b0b0b0;stroke-dasharray:0.8,1.32;stroke-dashoffset:0;stroke-width:0.8;"/>
     </g>
     <g id="line2d_2">
      <defs>
       <path d="M 0 0 
L 0 3.5 
" id="mbda7572c83" style="stroke:#000000;stroke-width:0.8;"/>
      </defs>
      <g>
       <use style="stroke:#000000;stroke-width:0.8;" x="69.218182" xlink:href="#mbda7572c83" y="252"/>
      </g>
     </g>
     <g id="text_1">
      <!-- 0 -->
      <defs>
       <path d="M 31.78125 66.40625 
Q 24.171875 66.40625 20.328125 58.90625 
Q 16.5 51.421875 16.5 36.375 
Q 16.5 21.390625 20.328125 13.890625 
Q 24.171875 6.390625 31.78125 6.390625 
Q 39.453125 6.390625 43.28125 13.890625 
Q 47.125 21.390625 47.125 36.375 
Q 47.125 51.421875 43.28125 58.90625 
Q 39.453125 66.40625 31.78125 66.40625 
z
M 31.78125 74.21875 
Q 44.046875 74.21875 50.515625 64.515625 
Q 56.984375 54.828125 56.984375 36.375 
Q 56.984375 17.96875 50.515625 8.265625 
Q 44.046875 -1.421875 31.78125 -1.421875 
Q 19.53125 -1.421875 13.0625 8.265625 
Q 6.59375 17.96875 6.59375 36.375 
Q 6.59375 54.828125 13.0625 64.515625 
Q 19.53125 74.21875 31.78125 74.21875 
z
" id="DejaVuSans-48"/>
      </defs>
      <g transform="translate(66.036932 266.598437)scale(0.1 -0.1)">
       <use xlink:href="#DejaVuSans-48"/>
      </g>
     </g>
    </g>
    <g id="xtick_2">
     <g id="line2d_3">
      <path clip-path="url(#pf45a441b82)" d="M 112.823287 252 
L 112.823287 34.56 
" style="fill:none;stroke:#b0b0b0;stroke-dasharray:0.8,1.32;stroke-dashoffset:0;stroke-width:0.8;"/>
     </g>
     <g id="line2d_4">
      <g>
       <use style="stroke:#000000;stroke-width:0.8;" x="112.823287" xlink:href="#mbda7572c83" y="252"/>
      </g>
     </g>
     <g id="text_2">
      <!-- 50 -->
      <defs>
       <path d="M 10.796875 72.90625 
L 49.515625 72.90625 
L 49.515625 64.59375 
L 19.828125 64.59375 
L 19.828125 46.734375 
Q 21.96875 47.46875 24.109375 47.828125 
Q 26.265625 48.1875 28.421875 48.1875 
Q 40.625 48.1875 47.75 41.5 
Q 54.890625 34.8125 54.890625 23.390625 
Q 54.890625 11.625 47.5625 5.09375 
Q 40.234375 -1.421875 26.90625 -1.421875 
Q 22.3125 -1.421875 17.546875 -0.640625 
Q 12.796875 0.140625 7.71875 1.703125 
L 7.71875 11.625 
Q 12.109375 9.234375 16.796875 8.0625 
Q 21.484375 6.890625 26.703125 6.890625 
Q 35.15625 6.890625 40.078125 11.328125 
Q 45.015625 15.765625 45.015625 23.390625 
Q 45.015625 31 40.078125 35.4375 
Q 35.15625 39.890625 26.703125 39.890625 
Q 22.75 39.890625 18.8125 39.015625 
Q 14.890625 38.140625 10.796875 36.28125 
z
" id="DejaVuSans-53"/>
      </defs>
      <g transform="translate(106.460787 266.598437)scale(0.1 -0.1)">
       <use xlink:href="#DejaVuSans-53"/>
       <use x="63.623047" xlink:href="#DejaVuSans-48"/>
      </g>
     </g>
    </g>
    <g id="xtick_3">
     <g id="line2d_5">
      <path clip-path="url(#pf45a441b82)" d="M 156.428393 252 
L 156.428393 34.56 
" style="fill:none;stroke:#b0b0b0;stroke-dasharray:0.8,1.32;stroke-dashoffset:0;stroke-width:0.8;"/>
     </g>
     <g id="line2d_6">
      <g>
       <use style="stroke:#000000;stroke-width:0.8;" x="156.428393" xlink:href="#mbda7572c83" y="252"/>
      </g>
     </g>
     <g id="text_3">
      <!-- 100 -->
      <defs>
       <path d="M 12.40625 8.296875 
L 28.515625 8.296875 
L 28.515625 63.921875 
L 10.984375 60.40625 
L 10.984375 69.390625 
L 28.421875 72.90625 
L 38.28125 72.90625 
L 38.28125 8.296875 
L 54.390625 8.296875 
L 54.390625 0 
L 12.40625 0 
z
" id="DejaVuSans-49"/>
      </defs>
      <g transform="translate(146.884643 266.598437)scale(0.1 -0.1)">
       <use xlink:href="#DejaVuSans-49"/>
       <use x="63.623047" xlink:href="#DejaVuSans-48"/>
       <use x="127.246094" xlink:href="#DejaVuSans-48"/>
      </g>
     </g>
    </g>
    <g id="xtick_4">
     <g id="line2d_7">
      <path clip-path="url(#pf45a441b82)" d="M 200.033498 252 
L 200.033498 34.56 
" style="fill:none;stroke:#b0b0b0;stroke-dasharray:0.8,1.32;stroke-dashoffset:0;stroke-width:0.8;"/>
     </g>
     <g id="line2d_8">
      <g>
       <use style="stroke:#000000;stroke-width:0.8;" x="200.033498" xlink:href="#mbda7572c83" y="252"/>
      </g>
     </g>
     <g id="text_4">
      <!-- 150 -->
      <g transform="translate(190.489748 266.598437)scale(0.1 -0.1)">
       <use xlink:href="#DejaVuSans-49"/>
       <use x="63.623047" xlink:href="#DejaVuSans-53"/>
       <use x="127.246094" xlink:href="#DejaVuSans-48"/>
      </g>
     </g>
    </g>
    <g id="xtick_5">
     <g id="line2d_9">
      <path clip-path="url(#pf45a441b82)" d="M 243.638604 252 
L 243.638604 34.56 
" style="fill:none;stroke:#b0b0b0;stroke-dasharray:0.8,1.32;stroke-dashoffset:0;stroke-width:0.8;"/>
     </g>
     <g id="line2d_10">
      <g>
       <use style="stroke:#000000;stroke-width:0.8;" x="243.638604" xlink:href="#mbda7572c83" y="252"/>
      </g>
     </g>
     <g id="text_5">
      <!-- 200 -->
      <defs>
       <path d="M 19.1875 8.296875 
L 53.609375 8.296875 
L 53.609375 0 
L 7.328125 0 
L 7.328125 8.296875 
Q 12.9375 14.109375 22.625 23.890625 
Q 32.328125 33.6875 34.8125 36.53125 
Q 39.546875 41.84375 41.421875 45.53125 
Q 43.3125 49.21875 43.3125 52.78125 
Q 43.3125 58.59375 39.234375 62.25 
Q 35.15625 65.921875 28.609375 65.921875 
Q 23.96875 65.921875 18.8125 64.3125 
Q 13.671875 62.703125 7.8125 59.421875 
L 7.8125 69.390625 
Q 13.765625 71.78125 18.9375 73 
Q 24.125 74.21875 28.421875 74.21875 
Q 39.75 74.21875 46.484375 68.546875 
Q 53.21875 62.890625 53.21875 53.421875 
Q 53.21875 48.921875 51.53125 44.890625 
Q 49.859375 40.875 45.40625 35.40625 
Q 44.1875 33.984375 37.640625 27.21875 
Q 31.109375 20.453125 19.1875 8.296875 
z
" id="DejaVuSans-50"/>
      </defs>
      <g transform="translate(234.094854 266.598437)scale(0.1 -0.1)">
       <use xlink:href="#DejaVuSans-50"/>
       <use x="63.623047" xlink:href="#DejaVuSans-48"/>
       <use x="127.246094" xlink:href="#DejaVuSans-48"/>
      </g>
     </g>
    </g>
    <g id="xtick_6">
     <g id="line2d_11">
      <path clip-path="url(#pf45a441b82)" d="M 287.243709 252 
L 287.243709 34.56 
" style="fill:none;stroke:#b0b0b0;stroke-dasharray:0.8,1.32;stroke-dashoffset:0;stroke-width:0.8;"/>
     </g>
     <g id="line2d_12">
      <g>
       <use style="stroke:#000000;stroke-width:0.8;" x="287.243709" xlink:href="#mbda7572c83" y="252"/>
      </g>
     </g>
     <g id="text_6">
      <!-- 250 -->
      <g transform="translate(277.699959 266.598437)scale(0.1 -0.1)">
       <use xlink:href="#DejaVuSans-50"/>
       <use x="63.623047" xlink:href="#DejaVuSans-53"/>
       <use x="127.246094" xlink:href="#DejaVuSans-48"/>
      </g>
     </g>
    </g>
    <g id="xtick_7">
     <g id="line2d_13">
      <path clip-path="url(#pf45a441b82)" d="M 330.848815 252 
L 330.848815 34.56 
" style="fill:none;stroke:#b0b0b0;stroke-dasharray:0.8,1.32;stroke-dashoffset:0;stroke-width:0.8;"/>
     </g>
     <g id="line2d_14">
      <g>
       <use style="stroke:#000000;stroke-width:0.8;" x="330.848815" xlink:href="#mbda7572c83" y="252"/>
      </g>
     </g>
     <g id="text_7">
      <!-- 300 -->
      <defs>
       <path d="M 40.578125 39.3125 
Q 47.65625 37.796875 51.625 33 
Q 55.609375 28.21875 55.609375 21.1875 
Q 55.609375 10.40625 48.1875 4.484375 
Q 40.765625 -1.421875 27.09375 -1.421875 
Q 22.515625 -1.421875 17.65625 -0.515625 
Q 12.796875 0.390625 7.625 2.203125 
L 7.625 11.71875 
Q 11.71875 9.328125 16.59375 8.109375 
Q 21.484375 6.890625 26.8125 6.890625 
Q 36.078125 6.890625 40.9375 10.546875 
Q 45.796875 14.203125 45.796875 21.1875 
Q 45.796875 27.640625 41.28125 31.265625 
Q 36.765625 34.90625 28.71875 34.90625 
L 20.21875 34.90625 
L 20.21875 43.015625 
L 29.109375 43.015625 
Q 36.375 43.015625 40.234375 45.921875 
Q 44.09375 48.828125 44.09375 54.296875 
Q 44.09375 59.90625 40.109375 62.90625 
Q 36.140625 65.921875 28.71875 65.921875 
Q 24.65625 65.921875 20.015625 65.03125 
Q 15.375 64.15625 9.8125 62.3125 
L 9.8125 71.09375 
Q 15.4375 72.65625 20.34375 73.4375 
Q 25.25 74.21875 29.59375 74.21875 
Q 40.828125 74.21875 47.359375 69.109375 
Q 53.90625 64.015625 53.90625 55.328125 
Q 53.90625 49.265625 50.4375 45.09375 
Q 46.96875 40.921875 40.578125 39.3125 
z
" id="DejaVuSans-51"/>
      </defs>
      <g transform="translate(321.305065 266.598437)scale(0.1 -0.1)">
       <use xlink:href="#DejaVuSans-51"/>
       <use x="63.623047" xlink:href="#DejaVuSans-48"/>
       <use x="127.246094" xlink:href="#DejaVuSans-48"/>
      </g>
     </g>
    </g>
    <g id="xtick_8">
     <g id="line2d_15">
      <path clip-path="url(#pf45a441b82)" d="M 374.45392 252 
L 374.45392 34.56 
" style="fill:none;stroke:#b0b0b0;stroke-dasharray:0.8,1.32;stroke-dashoffset:0;stroke-width:0.8;"/>
     </g>
     <g id="line2d_16">
      <g>
       <use style="stroke:#000000;stroke-width:0.8;" x="374.45392" xlink:href="#mbda7572c83" y="252"/>
      </g>
     </g>
     <g id="text_8">
      <!-- 350 -->
      <g transform="translate(364.91017 266.598437)scale(0.1 -0.1)">
       <use xlink:href="#DejaVuSans-51"/>
       <use x="63.623047" xlink:href="#DejaVuSans-53"/>
       <use x="127.246094" xlink:href="#DejaVuSans-48"/>
      </g>
     </g>
    </g>
    <g id="text_9">
     <!-- Epochs -->
     <defs>
      <path d="M 9.8125 72.90625 
L 55.90625 72.90625 
L 55.90625 64.59375 
L 19.671875 64.59375 
L 19.671875 43.015625 
L 54.390625 43.015625 
L 54.390625 34.71875 
L 19.671875 34.71875 
L 19.671875 8.296875 
L 56.78125 8.296875 
L 56.78125 0 
L 9.8125 0 
z
" id="DejaVuSans-69"/>
      <path d="M 18.109375 8.203125 
L 18.109375 -20.796875 
L 9.078125 -20.796875 
L 9.078125 54.6875 
L 18.109375 54.6875 
L 18.109375 46.390625 
Q 20.953125 51.265625 25.265625 53.625 
Q 29.59375 56 35.59375 56 
Q 45.5625 56 51.78125 48.09375 
Q 58.015625 40.1875 58.015625 27.296875 
Q 58.015625 14.40625 51.78125 6.484375 
Q 45.5625 -1.421875 35.59375 -1.421875 
Q 29.59375 -1.421875 25.265625 0.953125 
Q 20.953125 3.328125 18.109375 8.203125 
z
M 48.6875 27.296875 
Q 48.6875 37.203125 44.609375 42.84375 
Q 40.53125 48.484375 33.40625 48.484375 
Q 26.265625 48.484375 22.1875 42.84375 
Q 18.109375 37.203125 18.109375 27.296875 
Q 18.109375 17.390625 22.1875 11.75 
Q 26.265625 6.109375 33.40625 6.109375 
Q 40.53125 6.109375 44.609375 11.75 
Q 48.6875 17.390625 48.6875 27.296875 
z
" id="DejaVuSans-112"/>
      <path d="M 30.609375 48.390625 
Q 23.390625 48.390625 19.1875 42.75 
Q 14.984375 37.109375 14.984375 27.296875 
Q 14.984375 17.484375 19.15625 11.84375 
Q 23.34375 6.203125 30.609375 6.203125 
Q 37.796875 6.203125 41.984375 11.859375 
Q 46.1875 17.53125 46.1875 27.296875 
Q 46.1875 37.015625 41.984375 42.703125 
Q 37.796875 48.390625 30.609375 48.390625 
z
M 30.609375 56 
Q 42.328125 56 49.015625 48.375 
Q 55.71875 40.765625 55.71875 27.296875 
Q 55.71875 13.875 49.015625 6.21875 
Q 42.328125 -1.421875 30.609375 -1.421875 
Q 18.84375 -1.421875 12.171875 6.21875 
Q 5.515625 13.875 5.515625 27.296875 
Q 5.515625 40.765625 12.171875 48.375 
Q 18.84375 56 30.609375 56 
z
" id="DejaVuSans-111"/>
      <path d="M 48.78125 52.59375 
L 48.78125 44.1875 
Q 44.96875 46.296875 41.140625 47.34375 
Q 37.3125 48.390625 33.40625 48.390625 
Q 24.65625 48.390625 19.8125 42.84375 
Q 14.984375 37.3125 14.984375 27.296875 
Q 14.984375 17.28125 19.8125 11.734375 
Q 24.65625 6.203125 33.40625 6.203125 
Q 37.3125 6.203125 41.140625 7.25 
Q 44.96875 8.296875 48.78125 10.40625 
L 48.78125 2.09375 
Q 45.015625 0.34375 40.984375 -0.53125 
Q 36.96875 -1.421875 32.421875 -1.421875 
Q 20.0625 -1.421875 12.78125 6.34375 
Q 5.515625 14.109375 5.515625 27.296875 
Q 5.515625 40.671875 12.859375 48.328125 
Q 20.21875 56 33.015625 56 
Q 37.15625 56 41.109375 55.140625 
Q 45.0625 54.296875 48.78125 52.59375 
z
" id="DejaVuSans-99"/>
      <path d="M 54.890625 33.015625 
L 54.890625 0 
L 45.90625 0 
L 45.90625 32.71875 
Q 45.90625 40.484375 42.875 44.328125 
Q 39.84375 48.1875 33.796875 48.1875 
Q 26.515625 48.1875 22.3125 43.546875 
Q 18.109375 38.921875 18.109375 30.90625 
L 18.109375 0 
L 9.078125 0 
L 9.078125 75.984375 
L 18.109375 75.984375 
L 18.109375 46.1875 
Q 21.34375 51.125 25.703125 53.5625 
Q 30.078125 56 35.796875 56 
Q 45.21875 56 50.046875 50.171875 
Q 54.890625 44.34375 54.890625 33.015625 
z
" id="DejaVuSans-104"/>
      <path d="M 44.28125 53.078125 
L 44.28125 44.578125 
Q 40.484375 46.53125 36.375 47.5 
Q 32.28125 48.484375 27.875 48.484375 
Q 21.1875 48.484375 17.84375 46.4375 
Q 14.5 44.390625 14.5 40.28125 
Q 14.5 37.15625 16.890625 35.375 
Q 19.28125 33.59375 26.515625 31.984375 
L 29.59375 31.296875 
Q 39.15625 29.25 43.1875 25.515625 
Q 47.21875 21.78125 47.21875 15.09375 
Q 47.21875 7.46875 41.1875 3.015625 
Q 35.15625 -1.421875 24.609375 -1.421875 
Q 20.21875 -1.421875 15.453125 -0.5625 
Q 10.6875 0.296875 5.421875 2 
L 5.421875 11.28125 
Q 10.40625 8.6875 15.234375 7.390625 
Q 20.0625 6.109375 24.8125 6.109375 
Q 31.15625 6.109375 34.5625 8.28125 
Q 37.984375 10.453125 37.984375 14.40625 
Q 37.984375 18.0625 35.515625 20.015625 
Q 33.0625 21.96875 24.703125 23.78125 
L 21.578125 24.515625 
Q 13.234375 26.265625 9.515625 29.90625 
Q 5.8125 33.546875 5.8125 39.890625 
Q 5.8125 47.609375 11.28125 51.796875 
Q 16.75 56 26.8125 56 
Q 31.78125 56 36.171875 55.265625 
Q 40.578125 54.546875 44.28125 53.078125 
z
" id="DejaVuSans-115"/>
     </defs>
     <g transform="translate(203.484375 280.276563)scale(0.1 -0.1)">
      <use xlink:href="#DejaVuSans-69"/>
      <use x="63.183594" xlink:href="#DejaVuSans-112"/>
      <use x="126.660156" xlink:href="#DejaVuSans-111"/>
      <use x="187.841797" xlink:href="#DejaVuSans-99"/>
      <use x="242.822266" xlink:href="#DejaVuSans-104"/>
      <use x="306.201172" xlink:href="#DejaVuSans-115"/>
     </g>
    </g>
   </g>
   <g id="matplotlib.axis_2">
    <g id="ytick_1">
     <g id="line2d_17">
      <path clip-path="url(#pf45a441b82)" d="M 54 242.184712 
L 388.8 242.184712 
" style="fill:none;stroke:#b0b0b0;stroke-dasharray:0.8,1.32;stroke-dashoffset:0;stroke-width:0.8;"/>
     </g>
     <g id="line2d_18">
      <defs>
       <path d="M 0 0 
L -3.5 0 
" id="m00d30d020f" style="stroke:#000000;stroke-width:0.8;"/>
      </defs>
      <g>
       <use style="stroke:#000000;stroke-width:0.8;" x="54" xlink:href="#m00d30d020f" y="242.184712"/>
      </g>
     </g>
     <g id="text_10">
      <!-- 0.0 -->
      <defs>
       <path d="M 10.6875 12.40625 
L 21 12.40625 
L 21 0 
L 10.6875 0 
z
" id="DejaVuSans-46"/>
      </defs>
      <g transform="translate(31.096875 245.98393)scale(0.1 -0.1)">
       <use xlink:href="#DejaVuSans-48"/>
       <use x="63.623047" xlink:href="#DejaVuSans-46"/>
       <use x="95.410156" xlink:href="#DejaVuSans-48"/>
      </g>
     </g>
    </g>
    <g id="ytick_2">
     <g id="line2d_19">
      <path clip-path="url(#pf45a441b82)" d="M 54 199.249415 
L 388.8 199.249415 
" style="fill:none;stroke:#b0b0b0;stroke-dasharray:0.8,1.32;stroke-dashoffset:0;stroke-width:0.8;"/>
     </g>
     <g id="line2d_20">
      <g>
       <use style="stroke:#000000;stroke-width:0.8;" x="54" xlink:href="#m00d30d020f" y="199.249415"/>
      </g>
     </g>
     <g id="text_11">
      <!-- 0.5 -->
      <g transform="translate(31.096875 203.048634)scale(0.1 -0.1)">
       <use xlink:href="#DejaVuSans-48"/>
       <use x="63.623047" xlink:href="#DejaVuSans-46"/>
       <use x="95.410156" xlink:href="#DejaVuSans-53"/>
      </g>
     </g>
    </g>
    <g id="ytick_3">
     <g id="line2d_21">
      <path clip-path="url(#pf45a441b82)" d="M 54 156.314119 
L 388.8 156.314119 
" style="fill:none;stroke:#b0b0b0;stroke-dasharray:0.8,1.32;stroke-dashoffset:0;stroke-width:0.8;"/>
     </g>
     <g id="line2d_22">
      <g>
       <use style="stroke:#000000;stroke-width:0.8;" x="54" xlink:href="#m00d30d020f" y="156.314119"/>
      </g>
     </g>
     <g id="text_12">
      <!-- 1.0 -->
      <g transform="translate(31.096875 160.113338)scale(0.1 -0.1)">
       <use xlink:href="#DejaVuSans-49"/>
       <use x="63.623047" xlink:href="#DejaVuSans-46"/>
       <use x="95.410156" xlink:href="#DejaVuSans-48"/>
      </g>
     </g>
    </g>
    <g id="ytick_4">
     <g id="line2d_23">
      <path clip-path="url(#pf45a441b82)" d="M 54 113.378823 
L 388.8 113.378823 
" style="fill:none;stroke:#b0b0b0;stroke-dasharray:0.8,1.32;stroke-dashoffset:0;stroke-width:0.8;"/>
     </g>
     <g id="line2d_24">
      <g>
       <use style="stroke:#000000;stroke-width:0.8;" x="54" xlink:href="#m00d30d020f" y="113.378823"/>
      </g>
     </g>
     <g id="text_13">
      <!-- 1.5 -->
      <g transform="translate(31.096875 117.178042)scale(0.1 -0.1)">
       <use xlink:href="#DejaVuSans-49"/>
       <use x="63.623047" xlink:href="#DejaVuSans-46"/>
       <use x="95.410156" xlink:href="#DejaVuSans-53"/>
      </g>
     </g>
    </g>
    <g id="ytick_5">
     <g id="line2d_25">
      <path clip-path="url(#pf45a441b82)" d="M 54 70.443527 
L 388.8 70.443527 
" style="fill:none;stroke:#b0b0b0;stroke-dasharray:0.8,1.32;stroke-dashoffset:0;stroke-width:0.8;"/>
     </g>
     <g id="line2d_26">
      <g>
       <use style="stroke:#000000;stroke-width:0.8;" x="54" xlink:href="#m00d30d020f" y="70.443527"/>
      </g>
     </g>
     <g id="text_14">
      <!-- 2.0 -->
      <g transform="translate(31.096875 74.242746)scale(0.1 -0.1)">
       <use xlink:href="#DejaVuSans-50"/>
       <use x="63.623047" xlink:href="#DejaVuSans-46"/>
       <use x="95.410156" xlink:href="#DejaVuSans-48"/>
      </g>
     </g>
    </g>
    <g id="text_15">
     <!-- Loss -->
     <defs>
      <path d="M 9.8125 72.90625 
L 19.671875 72.90625 
L 19.671875 8.296875 
L 55.171875 8.296875 
L 55.171875 0 
L 9.8125 0 
z
" id="DejaVuSans-76"/>
     </defs>
     <g transform="translate(25.017187 154.333906)rotate(-90)scale(0.1 -0.1)">
      <use xlink:href="#DejaVuSans-76"/>
      <use x="55.697266" xlink:href="#DejaVuSans-111"/>
      <use x="116.878906" xlink:href="#DejaVuSans-115"/>
      <use x="168.978516" xlink:href="#DejaVuSans-115"/>
     </g>
    </g>
   </g>
   <g id="line2d_27">
    <path clip-path="url(#pf45a441b82)" d="M 69.218182 83.224839 
L 70.090284 98.90993 
L 70.962386 120.862965 
L 71.834488 156.67179 
L 72.70659 164.399015 
L 73.578692 185.520079 
L 74.450794 168.162353 
L 75.322897 184.954841 
L 76.194999 192.186206 
L 77.067101 179.915847 
L 77.939203 185.60735 
L 78.811305 193.985268 
L 79.683407 198.050242 
L 80.555509 196.140732 
L 81.427611 211.015237 
L 82.299713 200.219699 
L 83.171816 204.831119 
L 84.043918 215.189297 
L 84.91602 223.617582 
L 85.788122 200.734194 
L 86.660224 216.109396 
L 87.532326 209.355295 
L 88.404428 213.754295 
L 89.27653 223.17423 
L 90.148632 222.679118 
L 91.020735 217.038293 
L 91.892837 220.321256 
L 92.764939 215.928751 
L 93.637041 212.834673 
L 94.509143 222.810394 
L 95.381245 227.361556 
L 96.253347 219.64976 
L 97.125449 230.739562 
L 97.997551 221.410874 
L 98.869654 222.326487 
L 99.741756 223.544681 
L 100.613858 226.367814 
L 101.48596 224.990739 
L 102.358062 224.427911 
L 103.230164 220.788991 
L 104.102266 219.546335 
L 104.974368 227.602549 
L 105.84647 228.832462 
L 106.718573 218.492416 
L 107.590675 227.342224 
L 108.462777 229.222063 
L 109.334879 223.001113 
L 110.206981 233.187965 
L 111.079083 225.524959 
L 111.951185 233.65528 
L 112.823287 235.610587 
L 113.695389 232.435 
L 114.567492 234.672338 
L 115.439594 233.995817 
L 116.311696 232.384299 
L 117.183798 228.453581 
L 118.0559 222.775591 
L 118.928002 229.301059 
L 119.800104 231.187584 
L 120.672206 237.957585 
L 121.544308 231.689169 
L 122.416411 231.743693 
L 123.288513 227.148072 
L 124.160615 232.951414 
L 125.032717 236.643249 
L 125.904819 233.918609 
L 126.776921 235.722422 
L 127.649023 226.079661 
L 128.521125 230.696912 
L 129.393227 230.681974 
L 130.26533 234.330726 
L 131.137432 232.611805 
L 132.009534 233.85946 
L 132.881636 239.650079 
L 133.753738 233.995383 
L 134.62584 230.665155 
L 135.497942 236.148279 
L 136.370044 231.883726 
L 137.242146 238.462056 
L 138.114249 235.922229 
L 138.986351 232.719761 
L 139.858453 236.488464 
L 140.730555 231.999425 
L 141.602657 234.596416 
L 142.474759 233.870193 
L 143.346861 238.153031 
L 144.218963 235.620579 
L 145.091065 234.24105 
L 145.963167 231.323537 
L 146.83527 230.427164 
L 147.707372 235.699164 
L 148.579474 232.683839 
L 149.451576 238.174644 
L 150.323678 233.312509 
L 151.19578 234.949884 
L 152.067882 240.4242 
L 152.939984 230.403315 
L 153.812086 238.834089 
L 154.684189 227.295064 
L 155.556291 226.150326 
L 156.428393 237.48251 
L 157.300495 229.429131 
L 158.172597 231.843696 
L 159.044699 233.79251 
L 159.916801 228.876419 
L 160.788903 235.30751 
L 161.661005 237.841575 
L 162.533108 239.927974 
L 163.40521 234.749538 
L 165.149414 236.580846 
L 166.021516 234.629182 
L 166.893618 239.636651 
L 167.76572 233.695287 
L 168.637822 231.825173 
L 169.509924 235.516241 
L 170.382027 235.334171 
L 171.254129 231.362886 
L 172.126231 241.345599 
L 172.998333 232.520512 
L 173.870435 239.435345 
L 174.742537 237.701183 
L 175.614639 235.61415 
L 176.486741 239.63986 
L 177.358843 240.037656 
L 178.230946 236.770728 
L 179.103048 234.39064 
L 179.97515 237.849684 
L 180.847252 234.328527 
L 181.719354 233.977927 
L 182.591456 236.262339 
L 183.463558 235.385608 
L 184.33566 238.990662 
L 185.207762 227.655256 
L 186.079865 234.786596 
L 186.951967 237.308537 
L 187.824069 235.335467 
L 188.696171 238.548862 
L 189.568273 240.911292 
L 190.440375 236.31768 
L 191.312477 235.101947 
L 192.184579 237.087073 
L 193.056681 235.886223 
L 193.928784 239.374602 
L 194.800886 235.548213 
L 195.672988 236.276743 
L 196.54509 236.357084 
L 197.417192 233.195356 
L 198.289294 239.397855 
L 199.161396 235.080278 
L 200.033498 233.098589 
L 200.9056 233.603097 
L 201.777703 237.745484 
L 202.649805 237.781517 
L 203.521907 234.952081 
L 204.394009 240.083165 
L 205.266111 239.998239 
L 206.138213 231.753222 
L 207.010315 239.866135 
L 207.882417 236.377389 
L 208.754519 234.474925 
L 209.626622 239.461031 
L 211.370826 229.358298 
L 212.242928 236.579293 
L 213.11503 239.460478 
L 213.987132 238.042181 
L 214.859234 234.403535 
L 215.731336 233.930313 
L 216.603438 236.061359 
L 217.475541 237.628808 
L 218.347643 237.306995 
L 219.219745 239.803949 
L 220.091847 237.275359 
L 220.963949 236.838138 
L 221.836051 234.749072 
L 222.708153 226.284606 
L 223.580255 234.245753 
L 224.452357 239.421048 
L 225.324459 237.082959 
L 226.196562 231.371792 
L 227.068664 230.894952 
L 227.940766 233.28945 
L 228.812868 233.844117 
L 229.68497 239.75826 
L 230.557072 234.601978 
L 231.429174 238.522702 
L 232.301276 236.214218 
L 233.173378 235.471512 
L 234.045481 227.737582 
L 234.917583 237.938955 
L 235.789685 239.246236 
L 236.661787 234.068694 
L 237.533889 235.925675 
L 238.405991 235.919008 
L 239.278093 231.515372 
L 240.150195 235.226417 
L 241.022297 231.329014 
L 241.8944 237.106925 
L 242.766502 235.690233 
L 243.638604 235.799418 
L 244.510706 236.245546 
L 245.382808 241.539842 
L 246.25491 231.036125 
L 247.127012 239.504884 
L 247.999114 239.754403 
L 248.871216 231.883593 
L 249.743319 232.544258 
L 250.615421 236.682877 
L 251.487523 236.468763 
L 252.359625 234.016228 
L 253.231727 239.411443 
L 254.103829 233.296584 
L 254.975931 230.995479 
L 255.848033 239.346003 
L 256.720135 238.965449 
L 257.592238 235.474889 
L 258.46434 236.689491 
L 259.336442 240.045173 
L 260.208544 233.628417 
L 261.080646 231.421647 
L 262.82485 240.102402 
L 264.569054 236.963336 
L 265.441157 241.128674 
L 266.313259 236.583861 
L 267.185361 241.076471 
L 268.057463 238.870839 
L 268.929565 229.90269 
L 269.801667 231.834109 
L 270.673769 236.186566 
L 271.545871 235.506265 
L 272.417973 237.544423 
L 273.290076 234.477733 
L 274.162178 235.675749 
L 275.03428 227.636536 
L 275.906382 239.675694 
L 276.778484 237.495324 
L 277.650586 240.304442 
L 278.522688 236.773253 
L 279.39479 239.121226 
L 280.266892 235.387157 
L 281.138995 238.906996 
L 282.011097 236.808329 
L 282.883199 237.190177 
L 283.755301 241.224183 
L 284.627403 238.717302 
L 285.499505 236.625014 
L 286.371607 238.267311 
L 287.243709 234.374425 
L 288.115811 237.968554 
L 288.987914 233.302846 
L 289.860016 229.691923 
L 290.732118 237.478236 
L 291.60422 234.115414 
L 292.476322 238.082467 
L 293.348424 240.980907 
L 294.220526 228.267099 
L 295.092628 238.784268 
L 295.96473 227.871621 
L 296.836833 239.408635 
L 297.708935 239.446223 
L 298.581037 234.887102 
L 299.453139 231.742406 
L 300.325241 235.023675 
L 301.197343 239.370603 
L 302.069445 236.612876 
L 302.941547 237.281356 
L 303.813649 235.862187 
L 304.685751 239.856376 
L 305.557854 240.023995 
L 306.429956 240.77093 
L 307.302058 230.1357 
L 308.17416 239.921373 
L 309.046262 240.943524 
L 309.918364 240.34787 
L 310.790466 239.196749 
L 311.662568 232.104609 
L 312.53467 237.112115 
L 313.406773 232.538069 
L 314.278875 240.351386 
L 315.150977 232.929988 
L 316.023079 236.911006 
L 316.895181 239.089917 
L 317.767283 236.312398 
L 318.639385 240.253485 
L 319.511487 238.312479 
L 320.383589 238.815527 
L 321.255692 240.891969 
L 322.127794 232.411738 
L 322.999896 239.511557 
L 323.871998 240.933705 
L 324.7441 234.274318 
L 325.616202 238.930411 
L 326.488304 236.154444 
L 327.360406 238.413737 
L 328.232508 238.604906 
L 329.104611 240.38558 
L 329.976713 235.407395 
L 330.848815 238.261621 
L 331.720917 239.723471 
L 332.593019 239.938437 
L 333.465121 237.666363 
L 334.337223 236.931623 
L 335.209325 239.502751 
L 336.081427 237.829583 
L 336.95353 238.774163 
L 337.825632 231.442662 
L 338.697734 231.549546 
L 339.569836 238.481037 
L 340.441938 240.888348 
L 341.31404 236.383275 
L 342.186142 238.248525 
L 343.058244 235.903057 
L 343.930346 240.143601 
L 344.802449 237.102607 
L 345.674551 238.911759 
L 346.546653 237.357741 
L 347.418755 236.943047 
L 348.290857 233.842517 
L 349.162959 238.508029 
L 350.035061 234.858191 
L 350.907163 238.709695 
L 351.779265 236.694899 
L 352.651368 240.905665 
L 353.52347 233.074428 
L 354.395572 241.048081 
L 355.267674 239.949922 
L 356.139776 241.313861 
L 357.011878 240.044732 
L 357.88398 233.628815 
L 358.756082 239.297812 
L 359.628184 234.825527 
L 360.500287 237.681495 
L 361.372389 234.395304 
L 362.244491 240.291691 
L 363.116593 233.523298 
L 363.988695 233.599586 
L 364.860797 237.40586 
L 365.732899 235.467157 
L 366.605001 238.020293 
L 367.477103 239.406032 
L 368.349206 233.830055 
L 369.221308 237.911943 
L 370.09341 238.092801 
L 370.965512 239.726842 
L 371.837614 238.860061 
L 372.709716 236.313696 
L 373.581818 237.919191 
L 373.581818 237.919191 
" style="fill:none;stroke:#ff0000;stroke-linecap:square;stroke-width:1.5;"/>
   </g>
   <g id="line2d_28">
    <path clip-path="url(#pf45a441b82)" d="M 69.218182 44.452378 
L 70.090284 54.172147 
L 70.962386 54.778807 
L 71.834488 58.842583 
L 72.70659 62.36595 
L 73.578692 64.936353 
L 74.450794 84.283444 
L 75.322897 78.956189 
L 76.194999 87.648267 
L 77.067101 92.592624 
L 77.939203 79.397569 
L 78.811305 91.67945 
L 79.683407 91.716025 
L 80.555509 101.986992 
L 81.427611 95.012488 
L 83.171816 110.849796 
L 84.043918 123.812613 
L 84.91602 125.223899 
L 85.788122 118.341564 
L 86.660224 148.167282 
L 87.532326 120.762381 
L 88.404428 155.67593 
L 89.27653 142.660252 
L 90.148632 150.596052 
L 91.020735 144.81247 
L 91.892837 155.735006 
L 92.764939 157.693891 
L 93.637041 163.022089 
L 94.509143 158.853664 
L 95.381245 192.132003 
L 96.253347 176.981139 
L 97.125449 173.377323 
L 98.869654 182.721635 
L 99.741756 174.676339 
L 100.613858 179.599404 
L 101.48596 187.55257 
L 102.358062 181.657462 
L 103.230164 185.798426 
L 104.102266 185.157827 
L 104.974368 187.236388 
L 105.84647 182.83044 
L 106.718573 214.685296 
L 107.590675 197.167921 
L 108.462777 208.031993 
L 109.334879 195.307301 
L 110.206981 207.263945 
L 111.079083 196.506122 
L 111.951185 189.967731 
L 112.823287 200.343459 
L 113.695389 220.096213 
L 114.567492 202.762169 
L 115.439594 212.711263 
L 116.311696 202.093263 
L 117.183798 203.673938 
L 118.0559 215.869824 
L 118.928002 216.934038 
L 119.800104 203.965965 
L 120.672206 216.18778 
L 121.544308 206.878231 
L 122.416411 203.556023 
L 124.160615 217.855164 
L 125.032717 211.555004 
L 125.904819 219.042296 
L 126.776921 203.513483 
L 127.649023 221.531708 
L 128.521125 222.549118 
L 129.393227 209.161138 
L 130.26533 223.837839 
L 131.137432 210.228375 
L 132.009534 219.820713 
L 132.881636 220.667785 
L 133.753738 218.986842 
L 134.62584 224.075161 
L 135.497942 228.164599 
L 136.370044 216.090007 
L 137.242146 218.237356 
L 138.114249 227.360415 
L 138.986351 217.871959 
L 139.858453 218.163553 
L 140.730555 223.580683 
L 141.602657 215.686259 
L 142.474759 214.961433 
L 143.346861 230.582627 
L 144.218963 224.192608 
L 145.091065 230.424757 
L 145.963167 227.84986 
L 146.83527 227.618831 
L 147.707372 224.716369 
L 148.579474 235.695269 
L 149.451576 223.163818 
L 150.323678 221.229822 
L 151.19578 224.334745 
L 152.067882 228.521508 
L 152.939984 220.928248 
L 153.812086 214.8739 
L 154.684189 229.589362 
L 155.556291 219.546511 
L 156.428393 225.900303 
L 157.300495 230.213982 
L 158.172597 231.770738 
L 159.044699 222.350165 
L 159.916801 233.496905 
L 160.788903 213.379954 
L 161.661005 237.299077 
L 162.533108 227.177239 
L 163.40521 220.590281 
L 164.277312 231.977729 
L 165.149414 232.258325 
L 166.021516 228.050997 
L 166.893618 235.654916 
L 167.76572 224.608614 
L 168.637822 231.532267 
L 169.509924 231.143238 
L 170.382027 223.675592 
L 172.126231 234.561773 
L 172.998333 233.349503 
L 173.870435 231.52708 
L 174.742537 224.649395 
L 175.614639 225.45904 
L 176.486741 227.003659 
L 177.358843 237.362302 
L 178.230946 233.008392 
L 179.103048 238.861133 
L 179.97515 216.145756 
L 180.847252 229.044784 
L 181.719354 228.965049 
L 182.591456 224.735641 
L 183.463558 236.167935 
L 185.207762 227.781478 
L 186.079865 222.209182 
L 186.951967 231.436668 
L 187.824069 232.456701 
L 188.696171 229.205657 
L 189.568273 233.072919 
L 190.440375 226.757557 
L 191.312477 232.902244 
L 192.184579 238.255086 
L 193.056681 224.519347 
L 193.928784 234.254263 
L 194.800886 232.840861 
L 195.672988 233.916717 
L 196.54509 232.033814 
L 197.417192 232.242573 
L 198.289294 235.171253 
L 199.161396 237.432126 
L 200.033498 238.318814 
L 200.9056 235.816685 
L 201.777703 240.365775 
L 202.649805 232.27506 
L 203.521907 233.323702 
L 204.394009 231.554969 
L 205.266111 233.504407 
L 206.138213 230.591488 
L 207.010315 235.291368 
L 207.882417 233.440761 
L 208.754519 238.457401 
L 209.626622 233.077876 
L 210.498724 234.461966 
L 211.370826 234.665435 
L 212.242928 234.486462 
L 213.11503 230.804087 
L 213.987132 228.684375 
L 214.859234 227.029759 
L 215.731336 233.447056 
L 216.603438 232.710887 
L 217.475541 237.477236 
L 218.347643 239.070599 
L 219.219745 236.115429 
L 220.091847 236.10429 
L 220.963949 231.967653 
L 221.836051 234.348259 
L 222.708153 230.592182 
L 223.580255 234.487586 
L 224.452357 235.479211 
L 225.324459 236.734484 
L 227.068664 228.502826 
L 227.940766 236.362977 
L 228.812868 232.47587 
L 229.68497 235.367954 
L 230.557072 231.580966 
L 231.429174 233.391962 
L 232.301276 237.089859 
L 233.173378 237.134469 
L 234.045481 236.11731 
L 234.917583 235.460065 
L 235.789685 234.52873 
L 237.533889 237.518842 
L 238.405991 238.103539 
L 239.278093 238.386947 
L 240.150195 239.781285 
L 241.022297 231.528659 
L 241.8944 234.765543 
L 242.766502 231.359936 
L 243.638604 235.41506 
L 244.510706 229.12587 
L 245.382808 235.311113 
L 246.25491 235.942664 
L 247.127012 235.259457 
L 247.999114 235.767227 
L 248.871216 231.81545 
L 249.743319 236.869324 
L 250.615421 237.522693 
L 251.487523 233.107432 
L 252.359625 237.860414 
L 253.231727 236.744476 
L 254.103829 239.701813 
L 255.848033 232.173638 
L 256.720135 237.336006 
L 258.46434 232.602823 
L 259.336442 230.754601 
L 260.208544 235.55028 
L 261.080646 231.997872 
L 261.952748 236.843677 
L 262.82485 239.398277 
L 263.696952 238.990297 
L 264.569054 237.272944 
L 265.441157 237.031873 
L 266.313259 232.516224 
L 267.185361 234.740342 
L 268.057463 240.265598 
L 268.929565 237.514903 
L 269.801667 234.24009 
L 270.673769 229.312917 
L 271.545871 240.288714 
L 272.417973 235.985041 
L 273.290076 229.820914 
L 274.162178 234.86052 
L 275.03428 239.038872 
L 275.906382 237.797003 
L 276.778484 232.482021 
L 277.650586 232.391666 
L 278.522688 236.742547 
L 279.39479 236.816793 
L 280.266892 239.112199 
L 281.138995 236.360691 
L 282.011097 235.727871 
L 282.883199 227.653129 
L 283.755301 228.880566 
L 284.627403 238.484094 
L 285.499505 234.700428 
L 286.371607 235.153805 
L 287.243709 238.909243 
L 288.115811 234.87413 
L 288.987914 232.0264 
L 289.860016 238.71456 
L 290.732118 239.37546 
L 291.60422 232.275378 
L 292.476322 240.667727 
L 293.348424 236.835892 
L 294.220526 238.318414 
L 295.092628 232.173895 
L 295.96473 240.872447 
L 296.836833 229.398547 
L 298.581037 237.539907 
L 299.453139 231.167903 
L 300.325241 235.846518 
L 301.197343 238.282205 
L 302.069445 235.685649 
L 302.941547 233.497289 
L 303.813649 239.56635 
L 304.685751 235.460059 
L 305.557854 240.524104 
L 306.429956 239.383866 
L 307.302058 236.088698 
L 308.17416 236.115877 
L 309.046262 236.000892 
L 309.918364 239.35529 
L 310.790466 236.782176 
L 311.662568 229.234938 
L 313.406773 240.539176 
L 314.278875 230.317942 
L 315.150977 239.539246 
L 316.023079 227.552001 
L 316.895181 239.093918 
L 317.767283 239.975165 
L 318.639385 239.326943 
L 319.511487 234.750444 
L 320.383589 240.126035 
L 321.255692 240.845632 
L 322.127794 239.644738 
L 322.999896 231.747481 
L 324.7441 237.418038 
L 325.616202 232.687103 
L 326.488304 231.03115 
L 327.360406 237.98616 
L 328.232508 235.72561 
L 329.104611 232.336366 
L 329.976713 237.192405 
L 330.848815 240.52746 
L 331.720917 237.79685 
L 332.593019 237.616521 
L 333.465121 234.469257 
L 334.337223 236.965328 
L 335.209325 231.45559 
L 336.081427 231.328648 
L 336.95353 232.886983 
L 337.825632 240.114934 
L 338.697734 240.492388 
L 339.569836 235.863361 
L 340.441938 236.414205 
L 341.31404 232.043446 
L 342.186142 234.197722 
L 343.058244 231.979807 
L 343.930346 237.053137 
L 344.802449 231.595207 
L 345.674551 239.636725 
L 346.546653 234.34434 
L 347.418755 238.098759 
L 348.290857 239.372037 
L 349.162959 239.931709 
L 350.035061 231.800403 
L 350.907163 237.163571 
L 351.779265 239.591551 
L 353.52347 232.394128 
L 354.395572 241.707152 
L 355.267674 238.194307 
L 356.139776 233.751366 
L 357.011878 225.888667 
L 357.88398 235.596443 
L 358.756082 240.236703 
L 359.628184 238.624269 
L 360.500287 232.67153 
L 361.372389 240.324534 
L 362.244491 232.40688 
L 363.116593 240.462545 
L 363.988695 234.395681 
L 364.860797 232.478158 
L 365.732899 238.883347 
L 366.605001 237.983124 
L 367.477103 239.174196 
L 368.349206 234.380554 
L 369.221308 237.576938 
L 370.09341 239.276911 
L 370.965512 240.146524 
L 371.837614 235.490773 
L 372.709716 236.195956 
L 373.581818 237.553136 
L 373.581818 237.553136 
" style="fill:none;stroke:#008000;stroke-linecap:square;stroke-width:1.5;"/>
   </g>
   <g id="line2d_29">
    <path clip-path="url(#pf45a441b82)" d="M 69.218182 44.443636 
L 70.090284 55.595727 
L 70.962386 59.078127 
L 71.834488 56.331593 
L 72.70659 67.670542 
L 73.578692 66.423052 
L 74.450794 76.901668 
L 75.322897 72.949532 
L 76.194999 87.137288 
L 77.067101 87.467069 
L 77.939203 83.330573 
L 78.811305 84.720423 
L 79.683407 82.910833 
L 80.555509 101.109165 
L 82.299713 91.296776 
L 83.171816 96.719774 
L 84.043918 110.140944 
L 84.91602 96.406811 
L 85.788122 107.018687 
L 86.660224 105.730097 
L 87.532326 112.326063 
L 88.404428 107.462934 
L 89.27653 122.239897 
L 90.148632 120.979294 
L 91.020735 108.000487 
L 91.892837 112.586195 
L 92.764939 106.381645 
L 93.637041 125.247668 
L 94.509143 124.578339 
L 95.381245 117.832479 
L 96.253347 121.541886 
L 97.125449 124.097865 
L 97.997551 145.078887 
L 98.869654 146.643322 
L 99.741756 143.993125 
L 100.613858 137.87491 
L 101.48596 143.339233 
L 102.358062 149.608571 
L 103.230164 135.650503 
L 104.102266 151.186006 
L 104.974368 154.395407 
L 105.84647 149.418232 
L 106.718573 163.420542 
L 107.590675 146.809636 
L 108.462777 162.236452 
L 109.334879 157.257952 
L 110.206981 161.594271 
L 111.079083 175.596136 
L 111.951185 175.471429 
L 112.823287 162.834621 
L 113.695389 171.965838 
L 114.567492 174.677204 
L 115.439594 165.388406 
L 116.311696 173.072903 
L 117.183798 179.279183 
L 118.0559 179.79718 
L 118.928002 180.782342 
L 119.800104 178.486386 
L 120.672206 185.25165 
L 121.544308 158.582825 
L 122.416411 190.171413 
L 123.288513 187.797598 
L 124.160615 199.232858 
L 125.032717 201.702029 
L 125.904819 180.637653 
L 126.776921 187.864643 
L 127.649023 169.972163 
L 128.521125 202.943267 
L 129.393227 190.266485 
L 130.26533 200.643388 
L 131.137432 185.038402 
L 132.009534 196.915718 
L 132.881636 203.432614 
L 133.753738 206.814186 
L 134.62584 197.952114 
L 135.497942 198.144403 
L 136.370044 208.335269 
L 137.242146 189.84717 
L 138.114249 200.581137 
L 138.986351 208.085359 
L 139.858453 207.237484 
L 140.730555 221.581451 
L 141.602657 219.649868 
L 142.474759 211.564941 
L 143.346861 213.323981 
L 144.218963 229.332044 
L 145.091065 217.964073 
L 145.963167 216.957856 
L 146.83527 207.367368 
L 147.707372 225.046302 
L 148.579474 208.471052 
L 149.451576 220.659383 
L 150.323678 224.497094 
L 151.19578 215.041857 
L 152.067882 222.902513 
L 152.939984 221.683868 
L 153.812086 215.184956 
L 154.684189 222.635992 
L 155.556291 213.486282 
L 156.428393 222.279287 
L 157.300495 227.327617 
L 158.172597 221.847811 
L 159.044699 224.879872 
L 159.916801 233.330766 
L 160.788903 234.3895 
L 161.661005 231.134053 
L 162.533108 226.196257 
L 163.40521 238.237863 
L 164.277312 220.864825 
L 165.149414 222.727036 
L 166.893618 234.671763 
L 167.76572 222.583787 
L 168.637822 228.316646 
L 169.509924 229.404116 
L 170.382027 234.954952 
L 171.254129 234.26007 
L 172.126231 223.968139 
L 172.998333 229.013997 
L 173.870435 233.330535 
L 174.742537 231.253596 
L 175.614639 236.115838 
L 176.486741 232.638062 
L 177.358843 234.109831 
L 179.103048 234.383241 
L 179.97515 235.886693 
L 180.847252 232.907874 
L 181.719354 232.101204 
L 182.591456 230.619981 
L 183.463558 222.323724 
L 184.33566 225.544255 
L 185.207762 239.225382 
L 186.079865 232.919591 
L 186.951967 237.576849 
L 187.824069 229.443863 
L 188.696171 233.753375 
L 189.568273 236.73765 
L 190.440375 238.81692 
L 191.312477 239.548626 
L 192.184579 238.813922 
L 193.056681 235.289911 
L 193.928784 238.621931 
L 194.800886 236.909407 
L 195.672988 240.303137 
L 196.54509 238.256687 
L 197.417192 239.992724 
L 199.161396 233.082018 
L 200.033498 228.902785 
L 200.9056 226.767771 
L 201.777703 238.590541 
L 202.649805 241.708719 
L 203.521907 236.875376 
L 204.394009 228.657117 
L 205.266111 236.702608 
L 206.138213 237.882778 
L 207.010315 241.259939 
L 207.882417 241.234906 
L 209.626622 238.192289 
L 210.498724 234.576995 
L 211.370826 235.72859 
L 212.242928 231.512366 
L 213.11503 229.285625 
L 213.987132 237.6582 
L 214.859234 233.438489 
L 215.731336 235.421911 
L 216.603438 239.593907 
L 217.475541 230.861072 
L 218.347643 232.138341 
L 219.219745 239.3548 
L 220.091847 238.240857 
L 220.963949 241.371658 
L 221.836051 235.292612 
L 222.708153 236.601956 
L 223.580255 240.03365 
L 224.452357 238.506939 
L 225.324459 234.841038 
L 226.196562 232.58266 
L 227.068664 240.319987 
L 227.940766 239.956954 
L 228.812868 237.563404 
L 229.68497 240.258522 
L 230.557072 234.669741 
L 231.429174 241.154858 
L 232.301276 241.749824 
L 233.173378 236.308926 
L 234.045481 240.435384 
L 235.789685 228.586562 
L 236.661787 239.51658 
L 237.533889 241.282734 
L 238.405991 240.732353 
L 239.278093 239.094417 
L 240.150195 236.302066 
L 241.022297 236.99868 
L 241.8944 237.038779 
L 242.766502 241.119594 
L 243.638604 241.362789 
L 244.510706 241.823019 
L 245.382808 241.197991 
L 246.25491 238.307376 
L 247.127012 238.820997 
L 247.999114 240.24526 
L 248.871216 242.094438 
L 249.743319 241.708479 
L 250.615421 238.387289 
L 251.487523 241.180522 
L 252.359625 239.307103 
L 253.231727 241.056212 
L 254.103829 237.775457 
L 254.975931 239.062897 
L 255.848033 233.02068 
L 256.720135 241.943439 
L 257.592238 239.588997 
L 258.46434 241.238374 
L 259.336442 242.011463 
L 260.208544 238.824139 
L 261.080646 240.60038 
L 261.952748 239.482508 
L 262.82485 241.549771 
L 263.696952 240.671743 
L 264.569054 234.950461 
L 265.441157 241.479243 
L 266.313259 242.116364 
L 268.057463 241.357799 
L 268.929565 239.479816 
L 269.801667 241.356739 
L 270.673769 240.095423 
L 271.545871 241.829442 
L 272.417973 236.368594 
L 273.290076 240.347305 
L 274.162178 241.819854 
L 275.03428 241.547032 
L 275.906382 236.494357 
L 276.778484 235.886213 
L 277.650586 235.562167 
L 280.266892 240.859722 
L 281.138995 235.269887 
L 282.011097 240.835874 
L 282.883199 238.039431 
L 283.755301 240.703965 
L 284.627403 240.905227 
L 285.499505 239.151767 
L 286.371607 240.788208 
L 287.243709 241.980664 
L 288.115811 233.82258 
L 288.987914 241.73652 
L 289.860016 240.186877 
L 290.732118 240.300513 
L 291.60422 241.765625 
L 292.476322 241.510787 
L 293.348424 240.83874 
L 294.220526 235.941046 
L 295.092628 240.253374 
L 295.96473 238.878915 
L 296.836833 238.151489 
L 297.708935 241.217825 
L 298.581037 241.712306 
L 299.453139 242.071589 
L 300.325241 240.142255 
L 301.197343 237.10332 
L 302.069445 241.790986 
L 303.813649 240.667697 
L 304.685751 240.595913 
L 305.557854 238.282201 
L 306.429956 240.12441 
L 307.302058 239.315477 
L 308.17416 241.852655 
L 309.918364 241.92119 
L 310.790466 237.818528 
L 311.662568 238.946888 
L 312.53467 242.011264 
L 313.406773 241.994388 
L 314.278875 241.793391 
L 315.150977 241.836804 
L 316.023079 235.458416 
L 316.895181 240.535363 
L 317.767283 237.103695 
L 318.639385 234.509691 
L 319.511487 235.63861 
L 320.383589 235.710753 
L 321.255692 236.931945 
L 322.127794 236.551729 
L 322.999896 232.581574 
L 323.871998 241.288355 
L 324.7441 238.92894 
L 325.616202 239.79154 
L 326.488304 240.235789 
L 327.360406 234.819517 
L 328.232508 236.083406 
L 329.104611 238.970276 
L 329.976713 240.331071 
L 330.848815 239.443675 
L 331.720917 238.836828 
L 332.593019 238.905668 
L 333.465121 240.424023 
L 334.337223 234.899266 
L 335.209325 238.655591 
L 336.081427 241.58828 
L 336.95353 241.531243 
L 337.825632 239.024876 
L 338.697734 242.067758 
L 339.569836 241.83336 
L 340.441938 240.418409 
L 341.31404 235.263206 
L 342.186142 239.655795 
L 343.058244 239.170301 
L 343.930346 241.15753 
L 344.802449 241.509656 
L 345.674551 239.93987 
L 346.546653 238.690046 
L 347.418755 239.898803 
L 348.290857 241.597896 
L 349.162959 240.569734 
L 350.035061 241.480373 
L 351.779265 236.72453 
L 352.651368 241.644509 
L 353.52347 241.608015 
L 354.395572 240.231714 
L 355.267674 241.195281 
L 356.139776 240.314709 
L 357.011878 240.861995 
L 357.88398 240.786628 
L 358.756082 238.871702 
L 359.628184 237.435937 
L 360.500287 238.636101 
L 361.372389 241.845993 
L 362.244491 239.622427 
L 363.116593 238.324396 
L 363.988695 241.744561 
L 364.860797 241.942492 
L 365.732899 241.942128 
L 366.605001 242.053936 
L 368.349206 240.981883 
L 369.221308 241.563045 
L 370.09341 241.887627 
L 370.965512 240.900314 
L 371.837614 241.972689 
L 372.709716 238.672379 
L 373.581818 241.974803 
L 373.581818 241.974803 
" style="fill:none;stroke:#4363d8;stroke-linecap:square;stroke-width:1.5;"/>
   </g>
   <g id="patch_3">
    <path d="M 54 252 
L 54 34.56 
" style="fill:none;stroke:#000000;stroke-linecap:square;stroke-linejoin:miter;stroke-width:0.8;"/>
   </g>
   <g id="patch_4">
    <path d="M 388.8 252 
L 388.8 34.56 
" style="fill:none;stroke:#000000;stroke-linecap:square;stroke-linejoin:miter;stroke-width:0.8;"/>
   </g>
   <g id="patch_5">
    <path d="M 54 252 
L 388.8 252 
" style="fill:none;stroke:#000000;stroke-linecap:square;stroke-linejoin:miter;stroke-width:0.8;"/>
   </g>
   <g id="patch_6">
    <path d="M 54 34.56 
L 388.8 34.56 
" style="fill:none;stroke:#000000;stroke-linecap:square;stroke-linejoin:miter;stroke-width:0.8;"/>
   </g>
   <g id="text_16">
    <!-- VGGNet Train Loss for different settings -->
    <defs>
     <path d="M 28.609375 0 
L 0.78125 72.90625 
L 11.078125 72.90625 
L 34.1875 11.53125 
L 57.328125 72.90625 
L 67.578125 72.90625 
L 39.796875 0 
z
" id="DejaVuSans-86"/>
     <path d="M 59.515625 10.40625 
L 59.515625 29.984375 
L 43.40625 29.984375 
L 43.40625 38.09375 
L 69.28125 38.09375 
L 69.28125 6.78125 
Q 63.578125 2.734375 56.6875 0.65625 
Q 49.8125 -1.421875 42 -1.421875 
Q 24.90625 -1.421875 15.25 8.5625 
Q 5.609375 18.5625 5.609375 36.375 
Q 5.609375 54.25 15.25 64.234375 
Q 24.90625 74.21875 42 74.21875 
Q 49.125 74.21875 55.546875 72.453125 
Q 61.96875 70.703125 67.390625 67.28125 
L 67.390625 56.78125 
Q 61.921875 61.421875 55.765625 63.765625 
Q 49.609375 66.109375 42.828125 66.109375 
Q 29.4375 66.109375 22.71875 58.640625 
Q 16.015625 51.171875 16.015625 36.375 
Q 16.015625 21.625 22.71875 14.15625 
Q 29.4375 6.6875 42.828125 6.6875 
Q 48.046875 6.6875 52.140625 7.59375 
Q 56.25 8.5 59.515625 10.40625 
z
" id="DejaVuSans-71"/>
     <path d="M 9.8125 72.90625 
L 23.09375 72.90625 
L 55.421875 11.921875 
L 55.421875 72.90625 
L 64.984375 72.90625 
L 64.984375 0 
L 51.703125 0 
L 19.390625 60.984375 
L 19.390625 0 
L 9.8125 0 
z
" id="DejaVuSans-78"/>
     <path d="M 56.203125 29.59375 
L 56.203125 25.203125 
L 14.890625 25.203125 
Q 15.484375 15.921875 20.484375 11.0625 
Q 25.484375 6.203125 34.421875 6.203125 
Q 39.59375 6.203125 44.453125 7.46875 
Q 49.3125 8.734375 54.109375 11.28125 
L 54.109375 2.78125 
Q 49.265625 0.734375 44.1875 -0.34375 
Q 39.109375 -1.421875 33.890625 -1.421875 
Q 20.796875 -1.421875 13.15625 6.1875 
Q 5.515625 13.8125 5.515625 26.8125 
Q 5.515625 40.234375 12.765625 48.109375 
Q 20.015625 56 32.328125 56 
Q 43.359375 56 49.78125 48.890625 
Q 56.203125 41.796875 56.203125 29.59375 
z
M 47.21875 32.234375 
Q 47.125 39.59375 43.09375 43.984375 
Q 39.0625 48.390625 32.421875 48.390625 
Q 24.90625 48.390625 20.390625 44.140625 
Q 15.875 39.890625 15.1875 32.171875 
z
" id="DejaVuSans-101"/>
     <path d="M 18.3125 70.21875 
L 18.3125 54.6875 
L 36.8125 54.6875 
L 36.8125 47.703125 
L 18.3125 47.703125 
L 18.3125 18.015625 
Q 18.3125 11.328125 20.140625 9.421875 
Q 21.96875 7.515625 27.59375 7.515625 
L 36.8125 7.515625 
L 36.8125 0 
L 27.59375 0 
Q 17.1875 0 13.234375 3.875 
Q 9.28125 7.765625 9.28125 18.015625 
L 9.28125 47.703125 
L 2.6875 47.703125 
L 2.6875 54.6875 
L 9.28125 54.6875 
L 9.28125 70.21875 
z
" id="DejaVuSans-116"/>
     <path id="DejaVuSans-32"/>
     <path d="M -0.296875 72.90625 
L 61.375 72.90625 
L 61.375 64.59375 
L 35.5 64.59375 
L 35.5 0 
L 25.59375 0 
L 25.59375 64.59375 
L -0.296875 64.59375 
z
" id="DejaVuSans-84"/>
     <path d="M 41.109375 46.296875 
Q 39.59375 47.171875 37.8125 47.578125 
Q 36.03125 48 33.890625 48 
Q 26.265625 48 22.1875 43.046875 
Q 18.109375 38.09375 18.109375 28.8125 
L 18.109375 0 
L 9.078125 0 
L 9.078125 54.6875 
L 18.109375 54.6875 
L 18.109375 46.1875 
Q 20.953125 51.171875 25.484375 53.578125 
Q 30.03125 56 36.53125 56 
Q 37.453125 56 38.578125 55.875 
Q 39.703125 55.765625 41.0625 55.515625 
z
" id="DejaVuSans-114"/>
     <path d="M 34.28125 27.484375 
Q 23.390625 27.484375 19.1875 25 
Q 14.984375 22.515625 14.984375 16.5 
Q 14.984375 11.71875 18.140625 8.90625 
Q 21.296875 6.109375 26.703125 6.109375 
Q 34.1875 6.109375 38.703125 11.40625 
Q 43.21875 16.703125 43.21875 25.484375 
L 43.21875 27.484375 
z
M 52.203125 31.203125 
L 52.203125 0 
L 43.21875 0 
L 43.21875 8.296875 
Q 40.140625 3.328125 35.546875 0.953125 
Q 30.953125 -1.421875 24.3125 -1.421875 
Q 15.921875 -1.421875 10.953125 3.296875 
Q 6 8.015625 6 15.921875 
Q 6 25.140625 12.171875 29.828125 
Q 18.359375 34.515625 30.609375 34.515625 
L 43.21875 34.515625 
L 43.21875 35.40625 
Q 43.21875 41.609375 39.140625 45 
Q 35.0625 48.390625 27.6875 48.390625 
Q 23 48.390625 18.546875 47.265625 
Q 14.109375 46.140625 10.015625 43.890625 
L 10.015625 52.203125 
Q 14.9375 54.109375 19.578125 55.046875 
Q 24.21875 56 28.609375 56 
Q 40.484375 56 46.34375 49.84375 
Q 52.203125 43.703125 52.203125 31.203125 
z
" id="DejaVuSans-97"/>
     <path d="M 9.421875 54.6875 
L 18.40625 54.6875 
L 18.40625 0 
L 9.421875 0 
z
M 9.421875 75.984375 
L 18.40625 75.984375 
L 18.40625 64.59375 
L 9.421875 64.59375 
z
" id="DejaVuSans-105"/>
     <path d="M 54.890625 33.015625 
L 54.890625 0 
L 45.90625 0 
L 45.90625 32.71875 
Q 45.90625 40.484375 42.875 44.328125 
Q 39.84375 48.1875 33.796875 48.1875 
Q 26.515625 48.1875 22.3125 43.546875 
Q 18.109375 38.921875 18.109375 30.90625 
L 18.109375 0 
L 9.078125 0 
L 9.078125 54.6875 
L 18.109375 54.6875 
L 18.109375 46.1875 
Q 21.34375 51.125 25.703125 53.5625 
Q 30.078125 56 35.796875 56 
Q 45.21875 56 50.046875 50.171875 
Q 54.890625 44.34375 54.890625 33.015625 
z
" id="DejaVuSans-110"/>
     <path d="M 37.109375 75.984375 
L 37.109375 68.5 
L 28.515625 68.5 
Q 23.6875 68.5 21.796875 66.546875 
Q 19.921875 64.59375 19.921875 59.515625 
L 19.921875 54.6875 
L 34.71875 54.6875 
L 34.71875 47.703125 
L 19.921875 47.703125 
L 19.921875 0 
L 10.890625 0 
L 10.890625 47.703125 
L 2.296875 47.703125 
L 2.296875 54.6875 
L 10.890625 54.6875 
L 10.890625 58.5 
Q 10.890625 67.625 15.140625 71.796875 
Q 19.390625 75.984375 28.609375 75.984375 
z
" id="DejaVuSans-102"/>
     <path d="M 45.40625 46.390625 
L 45.40625 75.984375 
L 54.390625 75.984375 
L 54.390625 0 
L 45.40625 0 
L 45.40625 8.203125 
Q 42.578125 3.328125 38.25 0.953125 
Q 33.9375 -1.421875 27.875 -1.421875 
Q 17.96875 -1.421875 11.734375 6.484375 
Q 5.515625 14.40625 5.515625 27.296875 
Q 5.515625 40.1875 11.734375 48.09375 
Q 17.96875 56 27.875 56 
Q 33.9375 56 38.25 53.625 
Q 42.578125 51.265625 45.40625 46.390625 
z
M 14.796875 27.296875 
Q 14.796875 17.390625 18.875 11.75 
Q 22.953125 6.109375 30.078125 6.109375 
Q 37.203125 6.109375 41.296875 11.75 
Q 45.40625 17.390625 45.40625 27.296875 
Q 45.40625 37.203125 41.296875 42.84375 
Q 37.203125 48.484375 30.078125 48.484375 
Q 22.953125 48.484375 18.875 42.84375 
Q 14.796875 37.203125 14.796875 27.296875 
z
" id="DejaVuSans-100"/>
     <path d="M 45.40625 27.984375 
Q 45.40625 37.75 41.375 43.109375 
Q 37.359375 48.484375 30.078125 48.484375 
Q 22.859375 48.484375 18.828125 43.109375 
Q 14.796875 37.75 14.796875 27.984375 
Q 14.796875 18.265625 18.828125 12.890625 
Q 22.859375 7.515625 30.078125 7.515625 
Q 37.359375 7.515625 41.375 12.890625 
Q 45.40625 18.265625 45.40625 27.984375 
z
M 54.390625 6.78125 
Q 54.390625 -7.171875 48.1875 -13.984375 
Q 42 -20.796875 29.203125 -20.796875 
Q 24.46875 -20.796875 20.265625 -20.09375 
Q 16.0625 -19.390625 12.109375 -17.921875 
L 12.109375 -9.1875 
Q 16.0625 -11.328125 19.921875 -12.34375 
Q 23.78125 -13.375 27.78125 -13.375 
Q 36.625 -13.375 41.015625 -8.765625 
Q 45.40625 -4.15625 45.40625 5.171875 
L 45.40625 9.625 
Q 42.625 4.78125 38.28125 2.390625 
Q 33.9375 0 27.875 0 
Q 17.828125 0 11.671875 7.65625 
Q 5.515625 15.328125 5.515625 27.984375 
Q 5.515625 40.671875 11.671875 48.328125 
Q 17.828125 56 27.875 56 
Q 33.9375 56 38.28125 53.609375 
Q 42.625 51.21875 45.40625 46.390625 
L 45.40625 54.6875 
L 54.390625 54.6875 
z
" id="DejaVuSans-103"/>
    </defs>
    <g transform="translate(71.552344 28.56)scale(0.15 -0.15)">
     <use xlink:href="#DejaVuSans-86"/>
     <use x="68.408203" xlink:href="#DejaVuSans-71"/>
     <use x="145.898438" xlink:href="#DejaVuSans-71"/>
     <use x="223.388672" xlink:href="#DejaVuSans-78"/>
     <use x="298.193359" xlink:href="#DejaVuSans-101"/>
     <use x="359.716797" xlink:href="#DejaVuSans-116"/>
     <use x="398.925781" xlink:href="#DejaVuSans-32"/>
     <use x="430.712891" xlink:href="#DejaVuSans-84"/>
     <use x="491.578125" xlink:href="#DejaVuSans-114"/>
     <use x="532.691406" xlink:href="#DejaVuSans-97"/>
     <use x="593.970703" xlink:href="#DejaVuSans-105"/>
     <use x="621.753906" xlink:href="#DejaVuSans-110"/>
     <use x="685.132812" xlink:href="#DejaVuSans-32"/>
     <use x="716.919922" xlink:href="#DejaVuSans-76"/>
     <use x="772.617188" xlink:href="#DejaVuSans-111"/>
     <use x="833.798828" xlink:href="#DejaVuSans-115"/>
     <use x="885.898438" xlink:href="#DejaVuSans-115"/>
     <use x="937.998047" xlink:href="#DejaVuSans-32"/>
     <use x="969.785156" xlink:href="#DejaVuSans-102"/>
     <use x="1004.990234" xlink:href="#DejaVuSans-111"/>
     <use x="1066.171875" xlink:href="#DejaVuSans-114"/>
     <use x="1107.285156" xlink:href="#DejaVuSans-32"/>
     <use x="1139.072266" xlink:href="#DejaVuSans-100"/>
     <use x="1202.548828" xlink:href="#DejaVuSans-105"/>
     <use x="1230.332031" xlink:href="#DejaVuSans-102"/>
     <use x="1265.537109" xlink:href="#DejaVuSans-102"/>
     <use x="1300.742188" xlink:href="#DejaVuSans-101"/>
     <use x="1362.265625" xlink:href="#DejaVuSans-114"/>
     <use x="1403.347656" xlink:href="#DejaVuSans-101"/>
     <use x="1464.871094" xlink:href="#DejaVuSans-110"/>
     <use x="1528.25" xlink:href="#DejaVuSans-116"/>
     <use x="1567.458984" xlink:href="#DejaVuSans-32"/>
     <use x="1599.246094" xlink:href="#DejaVuSans-115"/>
     <use x="1651.345703" xlink:href="#DejaVuSans-101"/>
     <use x="1712.869141" xlink:href="#DejaVuSans-116"/>
     <use x="1752.078125" xlink:href="#DejaVuSans-116"/>
     <use x="1791.287109" xlink:href="#DejaVuSans-105"/>
     <use x="1819.070312" xlink:href="#DejaVuSans-110"/>
     <use x="1882.449219" xlink:href="#DejaVuSans-103"/>
     <use x="1945.925781" xlink:href="#DejaVuSans-115"/>
    </g>
   </g>
   <g id="legend_1">
    <g id="patch_7">
     <path d="M 331.284375 86.594375 
L 381.8 86.594375 
Q 383.8 86.594375 383.8 84.594375 
L 383.8 41.56 
Q 383.8 39.56 381.8 39.56 
L 331.284375 39.56 
Q 329.284375 39.56 329.284375 41.56 
L 329.284375 84.594375 
Q 329.284375 86.594375 331.284375 86.594375 
z
" style="fill:#ffffff;opacity:0.8;stroke:#cccccc;stroke-linejoin:miter;"/>
    </g>
    <g id="line2d_30">
     <path d="M 333.284375 47.658438 
L 353.284375 47.658438 
" style="fill:none;stroke:#ff0000;stroke-linecap:square;stroke-width:1.5;"/>
    </g>
    <g id="line2d_31"/>
    <g id="text_17">
     <!-- 49k -->
     <defs>
      <path d="M 37.796875 64.3125 
L 12.890625 25.390625 
L 37.796875 25.390625 
z
M 35.203125 72.90625 
L 47.609375 72.90625 
L 47.609375 25.390625 
L 58.015625 25.390625 
L 58.015625 17.1875 
L 47.609375 17.1875 
L 47.609375 0 
L 37.796875 0 
L 37.796875 17.1875 
L 4.890625 17.1875 
L 4.890625 26.703125 
z
" id="DejaVuSans-52"/>
      <path d="M 10.984375 1.515625 
L 10.984375 10.5 
Q 14.703125 8.734375 18.5 7.8125 
Q 22.3125 6.890625 25.984375 6.890625 
Q 35.75 6.890625 40.890625 13.453125 
Q 46.046875 20.015625 46.78125 33.40625 
Q 43.953125 29.203125 39.59375 26.953125 
Q 35.25 24.703125 29.984375 24.703125 
Q 19.046875 24.703125 12.671875 31.3125 
Q 6.296875 37.9375 6.296875 49.421875 
Q 6.296875 60.640625 12.9375 67.421875 
Q 19.578125 74.21875 30.609375 74.21875 
Q 43.265625 74.21875 49.921875 64.515625 
Q 56.59375 54.828125 56.59375 36.375 
Q 56.59375 19.140625 48.40625 8.859375 
Q 40.234375 -1.421875 26.421875 -1.421875 
Q 22.703125 -1.421875 18.890625 -0.6875 
Q 15.09375 0.046875 10.984375 1.515625 
z
M 30.609375 32.421875 
Q 37.25 32.421875 41.125 36.953125 
Q 45.015625 41.5 45.015625 49.421875 
Q 45.015625 57.28125 41.125 61.84375 
Q 37.25 66.40625 30.609375 66.40625 
Q 23.96875 66.40625 20.09375 61.84375 
Q 16.21875 57.28125 16.21875 49.421875 
Q 16.21875 41.5 20.09375 36.953125 
Q 23.96875 32.421875 30.609375 32.421875 
z
" id="DejaVuSans-57"/>
      <path d="M 9.078125 75.984375 
L 18.109375 75.984375 
L 18.109375 31.109375 
L 44.921875 54.6875 
L 56.390625 54.6875 
L 27.390625 29.109375 
L 57.625 0 
L 45.90625 0 
L 18.109375 26.703125 
L 18.109375 0 
L 9.078125 0 
z
" id="DejaVuSans-107"/>
     </defs>
     <g transform="translate(361.284375 51.158438)scale(0.1 -0.1)">
      <use xlink:href="#DejaVuSans-52"/>
      <use x="63.623047" xlink:href="#DejaVuSans-57"/>
      <use x="127.246094" xlink:href="#DejaVuSans-107"/>
     </g>
    </g>
    <g id="line2d_32">
     <path d="M 333.284375 62.336563 
L 353.284375 62.336563 
" style="fill:none;stroke:#008000;stroke-linecap:square;stroke-width:1.5;"/>
    </g>
    <g id="line2d_33"/>
    <g id="text_18">
     <!-- SSL -->
     <defs>
      <path d="M 53.515625 70.515625 
L 53.515625 60.890625 
Q 47.90625 63.578125 42.921875 64.890625 
Q 37.9375 66.21875 33.296875 66.21875 
Q 25.25 66.21875 20.875 63.09375 
Q 16.5 59.96875 16.5 54.203125 
Q 16.5 49.359375 19.40625 46.890625 
Q 22.3125 44.4375 30.421875 42.921875 
L 36.375 41.703125 
Q 47.40625 39.59375 52.65625 34.296875 
Q 57.90625 29 57.90625 20.125 
Q 57.90625 9.515625 50.796875 4.046875 
Q 43.703125 -1.421875 29.984375 -1.421875 
Q 24.8125 -1.421875 18.96875 -0.25 
Q 13.140625 0.921875 6.890625 3.21875 
L 6.890625 13.375 
Q 12.890625 10.015625 18.65625 8.296875 
Q 24.421875 6.59375 29.984375 6.59375 
Q 38.421875 6.59375 43.015625 9.90625 
Q 47.609375 13.234375 47.609375 19.390625 
Q 47.609375 24.75 44.3125 27.78125 
Q 41.015625 30.8125 33.5 32.328125 
L 27.484375 33.5 
Q 16.453125 35.6875 11.515625 40.375 
Q 6.59375 45.0625 6.59375 53.421875 
Q 6.59375 63.09375 13.40625 68.65625 
Q 20.21875 74.21875 32.171875 74.21875 
Q 37.3125 74.21875 42.625 73.28125 
Q 47.953125 72.359375 53.515625 70.515625 
z
" id="DejaVuSans-83"/>
     </defs>
     <g transform="translate(361.284375 65.836563)scale(0.1 -0.1)">
      <use xlink:href="#DejaVuSans-83"/>
      <use x="63.476562" xlink:href="#DejaVuSans-83"/>
      <use x="126.953125" xlink:href="#DejaVuSans-76"/>
     </g>
    </g>
    <g id="line2d_34">
     <path d="M 333.284375 77.014688 
L 353.284375 77.014688 
" style="fill:none;stroke:#4363d8;stroke-linecap:square;stroke-width:1.5;"/>
    </g>
    <g id="line2d_35"/>
    <g id="text_19">
     <!-- 4k -->
     <g transform="translate(361.284375 80.514688)scale(0.1 -0.1)">
      <use xlink:href="#DejaVuSans-52"/>
      <use x="63.623047" xlink:href="#DejaVuSans-107"/>
     </g>
    </g>
   </g>
  </g>
 </g>
 <defs>
  <clipPath id="pf45a441b82">
   <rect height="217.44" width="334.8" x="54" y="34.56"/>
  </clipPath>
 </defs>
</svg>
