<?xml version="1.0" encoding="utf-8" standalone="no"?>
<!DOCTYPE svg PUBLIC "-//W3C//DTD SVG 1.1//EN"
  "http://www.w3.org/Graphics/SVG/1.1/DTD/svg11.dtd">
<!-- Created with matplotlib (https://matplotlib.org/) -->
<svg height="288pt" version="1.1" viewBox="0 0 432 288" width="432pt" xmlns="http://www.w3.org/2000/svg" xmlns:xlink="http://www.w3.org/1999/xlink">
 <defs>
  <style type="text/css">
*{stroke-linecap:butt;stroke-linejoin:round;}
  </style>
 </defs>
 <g id="figure_1">
  <g id="patch_1">
   <path d="M 0 288 
L 432 288 
L 432 0 
L 0 0 
z
" style="fill:#ffffff;"/>
  </g>
  <g id="axes_1">
   <g id="patch_2">
    <path d="M 54 252 
L 388.8 252 
L 388.8 34.56 
L 54 34.56 
z
" style="fill:#ffffff;"/>
   </g>
   <g id="matplotlib.axis_1">
    <g id="xtick_1">
     <g id="line2d_1">
      <path clip-path="url(#p6687670696)" d="M 69.218182 252 
L 69.218182 34.56 
" style="fill:none;stroke:#b0b0b0;stroke-dasharray:0.8,1.32;stroke-dashoffset:0;stroke-width:0.8;"/>
     </g>
     <g id="line2d_2">
      <defs>
       <path d="M 0 0 
L 0 3.5 
" id="mb27a680f4b" style="stroke:#000000;stroke-width:0.8;"/>
      </defs>
      <g>
       <use style="stroke:#000000;stroke-width:0.8;" x="69.218182" xlink:href="#mb27a680f4b" y="252"/>
      </g>
     </g>
     <g id="text_1">
      <!-- 0 -->
      <defs>
       <path d="M 31.78125 66.40625 
Q 24.171875 66.40625 20.328125 58.90625 
Q 16.5 51.421875 16.5 36.375 
Q 16.5 21.390625 20.328125 13.890625 
Q 24.171875 6.390625 31.78125 6.390625 
Q 39.453125 6.390625 43.28125 13.890625 
Q 47.125 21.390625 47.125 36.375 
Q 47.125 51.421875 43.28125 58.90625 
Q 39.453125 66.40625 31.78125 66.40625 
z
M 31.78125 74.21875 
Q 44.046875 74.21875 50.515625 64.515625 
Q 56.984375 54.828125 56.984375 36.375 
Q 56.984375 17.96875 50.515625 8.265625 
Q 44.046875 -1.421875 31.78125 -1.421875 
Q 19.53125 -1.421875 13.0625 8.265625 
Q 6.59375 17.96875 6.59375 36.375 
Q 6.59375 54.828125 13.0625 64.515625 
Q 19.53125 74.21875 31.78125 74.21875 
z
" id="DejaVuSans-48"/>
      </defs>
      <g transform="translate(66.036932 266.598437)scale(0.1 -0.1)">
       <use xlink:href="#DejaVuSans-48"/>
      </g>
     </g>
    </g>
    <g id="xtick_2">
     <g id="line2d_3">
      <path clip-path="url(#p6687670696)" d="M 112.823287 252 
L 112.823287 34.56 
" style="fill:none;stroke:#b0b0b0;stroke-dasharray:0.8,1.32;stroke-dashoffset:0;stroke-width:0.8;"/>
     </g>
     <g id="line2d_4">
      <g>
       <use style="stroke:#000000;stroke-width:0.8;" x="112.823287" xlink:href="#mb27a680f4b" y="252"/>
      </g>
     </g>
     <g id="text_2">
      <!-- 50 -->
      <defs>
       <path d="M 10.796875 72.90625 
L 49.515625 72.90625 
L 49.515625 64.59375 
L 19.828125 64.59375 
L 19.828125 46.734375 
Q 21.96875 47.46875 24.109375 47.828125 
Q 26.265625 48.1875 28.421875 48.1875 
Q 40.625 48.1875 47.75 41.5 
Q 54.890625 34.8125 54.890625 23.390625 
Q 54.890625 11.625 47.5625 5.09375 
Q 40.234375 -1.421875 26.90625 -1.421875 
Q 22.3125 -1.421875 17.546875 -0.640625 
Q 12.796875 0.140625 7.71875 1.703125 
L 7.71875 11.625 
Q 12.109375 9.234375 16.796875 8.0625 
Q 21.484375 6.890625 26.703125 6.890625 
Q 35.15625 6.890625 40.078125 11.328125 
Q 45.015625 15.765625 45.015625 23.390625 
Q 45.015625 31 40.078125 35.4375 
Q 35.15625 39.890625 26.703125 39.890625 
Q 22.75 39.890625 18.8125 39.015625 
Q 14.890625 38.140625 10.796875 36.28125 
z
" id="DejaVuSans-53"/>
      </defs>
      <g transform="translate(106.460787 266.598437)scale(0.1 -0.1)">
       <use xlink:href="#DejaVuSans-53"/>
       <use x="63.623047" xlink:href="#DejaVuSans-48"/>
      </g>
     </g>
    </g>
    <g id="xtick_3">
     <g id="line2d_5">
      <path clip-path="url(#p6687670696)" d="M 156.428393 252 
L 156.428393 34.56 
" style="fill:none;stroke:#b0b0b0;stroke-dasharray:0.8,1.32;stroke-dashoffset:0;stroke-width:0.8;"/>
     </g>
     <g id="line2d_6">
      <g>
       <use style="stroke:#000000;stroke-width:0.8;" x="156.428393" xlink:href="#mb27a680f4b" y="252"/>
      </g>
     </g>
     <g id="text_3">
      <!-- 100 -->
      <defs>
       <path d="M 12.40625 8.296875 
L 28.515625 8.296875 
L 28.515625 63.921875 
L 10.984375 60.40625 
L 10.984375 69.390625 
L 28.421875 72.90625 
L 38.28125 72.90625 
L 38.28125 8.296875 
L 54.390625 8.296875 
L 54.390625 0 
L 12.40625 0 
z
" id="DejaVuSans-49"/>
      </defs>
      <g transform="translate(146.884643 266.598437)scale(0.1 -0.1)">
       <use xlink:href="#DejaVuSans-49"/>
       <use x="63.623047" xlink:href="#DejaVuSans-48"/>
       <use x="127.246094" xlink:href="#DejaVuSans-48"/>
      </g>
     </g>
    </g>
    <g id="xtick_4">
     <g id="line2d_7">
      <path clip-path="url(#p6687670696)" d="M 200.033498 252 
L 200.033498 34.56 
" style="fill:none;stroke:#b0b0b0;stroke-dasharray:0.8,1.32;stroke-dashoffset:0;stroke-width:0.8;"/>
     </g>
     <g id="line2d_8">
      <g>
       <use style="stroke:#000000;stroke-width:0.8;" x="200.033498" xlink:href="#mb27a680f4b" y="252"/>
      </g>
     </g>
     <g id="text_4">
      <!-- 150 -->
      <g transform="translate(190.489748 266.598437)scale(0.1 -0.1)">
       <use xlink:href="#DejaVuSans-49"/>
       <use x="63.623047" xlink:href="#DejaVuSans-53"/>
       <use x="127.246094" xlink:href="#DejaVuSans-48"/>
      </g>
     </g>
    </g>
    <g id="xtick_5">
     <g id="line2d_9">
      <path clip-path="url(#p6687670696)" d="M 243.638604 252 
L 243.638604 34.56 
" style="fill:none;stroke:#b0b0b0;stroke-dasharray:0.8,1.32;stroke-dashoffset:0;stroke-width:0.8;"/>
     </g>
     <g id="line2d_10">
      <g>
       <use style="stroke:#000000;stroke-width:0.8;" x="243.638604" xlink:href="#mb27a680f4b" y="252"/>
      </g>
     </g>
     <g id="text_5">
      <!-- 200 -->
      <defs>
       <path d="M 19.1875 8.296875 
L 53.609375 8.296875 
L 53.609375 0 
L 7.328125 0 
L 7.328125 8.296875 
Q 12.9375 14.109375 22.625 23.890625 
Q 32.328125 33.6875 34.8125 36.53125 
Q 39.546875 41.84375 41.421875 45.53125 
Q 43.3125 49.21875 43.3125 52.78125 
Q 43.3125 58.59375 39.234375 62.25 
Q 35.15625 65.921875 28.609375 65.921875 
Q 23.96875 65.921875 18.8125 64.3125 
Q 13.671875 62.703125 7.8125 59.421875 
L 7.8125 69.390625 
Q 13.765625 71.78125 18.9375 73 
Q 24.125 74.21875 28.421875 74.21875 
Q 39.75 74.21875 46.484375 68.546875 
Q 53.21875 62.890625 53.21875 53.421875 
Q 53.21875 48.921875 51.53125 44.890625 
Q 49.859375 40.875 45.40625 35.40625 
Q 44.1875 33.984375 37.640625 27.21875 
Q 31.109375 20.453125 19.1875 8.296875 
z
" id="DejaVuSans-50"/>
      </defs>
      <g transform="translate(234.094854 266.598437)scale(0.1 -0.1)">
       <use xlink:href="#DejaVuSans-50"/>
       <use x="63.623047" xlink:href="#DejaVuSans-48"/>
       <use x="127.246094" xlink:href="#DejaVuSans-48"/>
      </g>
     </g>
    </g>
    <g id="xtick_6">
     <g id="line2d_11">
      <path clip-path="url(#p6687670696)" d="M 287.243709 252 
L 287.243709 34.56 
" style="fill:none;stroke:#b0b0b0;stroke-dasharray:0.8,1.32;stroke-dashoffset:0;stroke-width:0.8;"/>
     </g>
     <g id="line2d_12">
      <g>
       <use style="stroke:#000000;stroke-width:0.8;" x="287.243709" xlink:href="#mb27a680f4b" y="252"/>
      </g>
     </g>
     <g id="text_6">
      <!-- 250 -->
      <g transform="translate(277.699959 266.598437)scale(0.1 -0.1)">
       <use xlink:href="#DejaVuSans-50"/>
       <use x="63.623047" xlink:href="#DejaVuSans-53"/>
       <use x="127.246094" xlink:href="#DejaVuSans-48"/>
      </g>
     </g>
    </g>
    <g id="xtick_7">
     <g id="line2d_13">
      <path clip-path="url(#p6687670696)" d="M 330.848815 252 
L 330.848815 34.56 
" style="fill:none;stroke:#b0b0b0;stroke-dasharray:0.8,1.32;stroke-dashoffset:0;stroke-width:0.8;"/>
     </g>
     <g id="line2d_14">
      <g>
       <use style="stroke:#000000;stroke-width:0.8;" x="330.848815" xlink:href="#mb27a680f4b" y="252"/>
      </g>
     </g>
     <g id="text_7">
      <!-- 300 -->
      <defs>
       <path d="M 40.578125 39.3125 
Q 47.65625 37.796875 51.625 33 
Q 55.609375 28.21875 55.609375 21.1875 
Q 55.609375 10.40625 48.1875 4.484375 
Q 40.765625 -1.421875 27.09375 -1.421875 
Q 22.515625 -1.421875 17.65625 -0.515625 
Q 12.796875 0.390625 7.625 2.203125 
L 7.625 11.71875 
Q 11.71875 9.328125 16.59375 8.109375 
Q 21.484375 6.890625 26.8125 6.890625 
Q 36.078125 6.890625 40.9375 10.546875 
Q 45.796875 14.203125 45.796875 21.1875 
Q 45.796875 27.640625 41.28125 31.265625 
Q 36.765625 34.90625 28.71875 34.90625 
L 20.21875 34.90625 
L 20.21875 43.015625 
L 29.109375 43.015625 
Q 36.375 43.015625 40.234375 45.921875 
Q 44.09375 48.828125 44.09375 54.296875 
Q 44.09375 59.90625 40.109375 62.90625 
Q 36.140625 65.921875 28.71875 65.921875 
Q 24.65625 65.921875 20.015625 65.03125 
Q 15.375 64.15625 9.8125 62.3125 
L 9.8125 71.09375 
Q 15.4375 72.65625 20.34375 73.4375 
Q 25.25 74.21875 29.59375 74.21875 
Q 40.828125 74.21875 47.359375 69.109375 
Q 53.90625 64.015625 53.90625 55.328125 
Q 53.90625 49.265625 50.4375 45.09375 
Q 46.96875 40.921875 40.578125 39.3125 
z
" id="DejaVuSans-51"/>
      </defs>
      <g transform="translate(321.305065 266.598437)scale(0.1 -0.1)">
       <use xlink:href="#DejaVuSans-51"/>
       <use x="63.623047" xlink:href="#DejaVuSans-48"/>
       <use x="127.246094" xlink:href="#DejaVuSans-48"/>
      </g>
     </g>
    </g>
    <g id="xtick_8">
     <g id="line2d_15">
      <path clip-path="url(#p6687670696)" d="M 374.45392 252 
L 374.45392 34.56 
" style="fill:none;stroke:#b0b0b0;stroke-dasharray:0.8,1.32;stroke-dashoffset:0;stroke-width:0.8;"/>
     </g>
     <g id="line2d_16">
      <g>
       <use style="stroke:#000000;stroke-width:0.8;" x="374.45392" xlink:href="#mb27a680f4b" y="252"/>
      </g>
     </g>
     <g id="text_8">
      <!-- 350 -->
      <g transform="translate(364.91017 266.598437)scale(0.1 -0.1)">
       <use xlink:href="#DejaVuSans-51"/>
       <use x="63.623047" xlink:href="#DejaVuSans-53"/>
       <use x="127.246094" xlink:href="#DejaVuSans-48"/>
      </g>
     </g>
    </g>
    <g id="text_9">
     <!-- Epochs -->
     <defs>
      <path d="M 9.8125 72.90625 
L 55.90625 72.90625 
L 55.90625 64.59375 
L 19.671875 64.59375 
L 19.671875 43.015625 
L 54.390625 43.015625 
L 54.390625 34.71875 
L 19.671875 34.71875 
L 19.671875 8.296875 
L 56.78125 8.296875 
L 56.78125 0 
L 9.8125 0 
z
" id="DejaVuSans-69"/>
      <path d="M 18.109375 8.203125 
L 18.109375 -20.796875 
L 9.078125 -20.796875 
L 9.078125 54.6875 
L 18.109375 54.6875 
L 18.109375 46.390625 
Q 20.953125 51.265625 25.265625 53.625 
Q 29.59375 56 35.59375 56 
Q 45.5625 56 51.78125 48.09375 
Q 58.015625 40.1875 58.015625 27.296875 
Q 58.015625 14.40625 51.78125 6.484375 
Q 45.5625 -1.421875 35.59375 -1.421875 
Q 29.59375 -1.421875 25.265625 0.953125 
Q 20.953125 3.328125 18.109375 8.203125 
z
M 48.6875 27.296875 
Q 48.6875 37.203125 44.609375 42.84375 
Q 40.53125 48.484375 33.40625 48.484375 
Q 26.265625 48.484375 22.1875 42.84375 
Q 18.109375 37.203125 18.109375 27.296875 
Q 18.109375 17.390625 22.1875 11.75 
Q 26.265625 6.109375 33.40625 6.109375 
Q 40.53125 6.109375 44.609375 11.75 
Q 48.6875 17.390625 48.6875 27.296875 
z
" id="DejaVuSans-112"/>
      <path d="M 30.609375 48.390625 
Q 23.390625 48.390625 19.1875 42.75 
Q 14.984375 37.109375 14.984375 27.296875 
Q 14.984375 17.484375 19.15625 11.84375 
Q 23.34375 6.203125 30.609375 6.203125 
Q 37.796875 6.203125 41.984375 11.859375 
Q 46.1875 17.53125 46.1875 27.296875 
Q 46.1875 37.015625 41.984375 42.703125 
Q 37.796875 48.390625 30.609375 48.390625 
z
M 30.609375 56 
Q 42.328125 56 49.015625 48.375 
Q 55.71875 40.765625 55.71875 27.296875 
Q 55.71875 13.875 49.015625 6.21875 
Q 42.328125 -1.421875 30.609375 -1.421875 
Q 18.84375 -1.421875 12.171875 6.21875 
Q 5.515625 13.875 5.515625 27.296875 
Q 5.515625 40.765625 12.171875 48.375 
Q 18.84375 56 30.609375 56 
z
" id="DejaVuSans-111"/>
      <path d="M 48.78125 52.59375 
L 48.78125 44.1875 
Q 44.96875 46.296875 41.140625 47.34375 
Q 37.3125 48.390625 33.40625 48.390625 
Q 24.65625 48.390625 19.8125 42.84375 
Q 14.984375 37.3125 14.984375 27.296875 
Q 14.984375 17.28125 19.8125 11.734375 
Q 24.65625 6.203125 33.40625 6.203125 
Q 37.3125 6.203125 41.140625 7.25 
Q 44.96875 8.296875 48.78125 10.40625 
L 48.78125 2.09375 
Q 45.015625 0.34375 40.984375 -0.53125 
Q 36.96875 -1.421875 32.421875 -1.421875 
Q 20.0625 -1.421875 12.78125 6.34375 
Q 5.515625 14.109375 5.515625 27.296875 
Q 5.515625 40.671875 12.859375 48.328125 
Q 20.21875 56 33.015625 56 
Q 37.15625 56 41.109375 55.140625 
Q 45.0625 54.296875 48.78125 52.59375 
z
" id="DejaVuSans-99"/>
      <path d="M 54.890625 33.015625 
L 54.890625 0 
L 45.90625 0 
L 45.90625 32.71875 
Q 45.90625 40.484375 42.875 44.328125 
Q 39.84375 48.1875 33.796875 48.1875 
Q 26.515625 48.1875 22.3125 43.546875 
Q 18.109375 38.921875 18.109375 30.90625 
L 18.109375 0 
L 9.078125 0 
L 9.078125 75.984375 
L 18.109375 75.984375 
L 18.109375 46.1875 
Q 21.34375 51.125 25.703125 53.5625 
Q 30.078125 56 35.796875 56 
Q 45.21875 56 50.046875 50.171875 
Q 54.890625 44.34375 54.890625 33.015625 
z
" id="DejaVuSans-104"/>
      <path d="M 44.28125 53.078125 
L 44.28125 44.578125 
Q 40.484375 46.53125 36.375 47.5 
Q 32.28125 48.484375 27.875 48.484375 
Q 21.1875 48.484375 17.84375 46.4375 
Q 14.5 44.390625 14.5 40.28125 
Q 14.5 37.15625 16.890625 35.375 
Q 19.28125 33.59375 26.515625 31.984375 
L 29.59375 31.296875 
Q 39.15625 29.25 43.1875 25.515625 
Q 47.21875 21.78125 47.21875 15.09375 
Q 47.21875 7.46875 41.1875 3.015625 
Q 35.15625 -1.421875 24.609375 -1.421875 
Q 20.21875 -1.421875 15.453125 -0.5625 
Q 10.6875 0.296875 5.421875 2 
L 5.421875 11.28125 
Q 10.40625 8.6875 15.234375 7.390625 
Q 20.0625 6.109375 24.8125 6.109375 
Q 31.15625 6.109375 34.5625 8.28125 
Q 37.984375 10.453125 37.984375 14.40625 
Q 37.984375 18.0625 35.515625 20.015625 
Q 33.0625 21.96875 24.703125 23.78125 
L 21.578125 24.515625 
Q 13.234375 26.265625 9.515625 29.90625 
Q 5.8125 33.546875 5.8125 39.890625 
Q 5.8125 47.609375 11.28125 51.796875 
Q 16.75 56 26.8125 56 
Q 31.78125 56 36.171875 55.265625 
Q 40.578125 54.546875 44.28125 53.078125 
z
" id="DejaVuSans-115"/>
     </defs>
     <g transform="translate(203.484375 280.276563)scale(0.1 -0.1)">
      <use xlink:href="#DejaVuSans-69"/>
      <use x="63.183594" xlink:href="#DejaVuSans-112"/>
      <use x="126.660156" xlink:href="#DejaVuSans-111"/>
      <use x="187.841797" xlink:href="#DejaVuSans-99"/>
      <use x="242.822266" xlink:href="#DejaVuSans-104"/>
      <use x="306.201172" xlink:href="#DejaVuSans-115"/>
     </g>
    </g>
   </g>
   <g id="matplotlib.axis_2">
    <g id="ytick_1">
     <g id="line2d_17">
      <path clip-path="url(#p6687670696)" d="M 54 251.610646 
L 388.8 251.610646 
" style="fill:none;stroke:#b0b0b0;stroke-dasharray:0.8,1.32;stroke-dashoffset:0;stroke-width:0.8;"/>
     </g>
     <g id="line2d_18">
      <defs>
       <path d="M 0 0 
L -3.5 0 
" id="mf75361f149" style="stroke:#000000;stroke-width:0.8;"/>
      </defs>
      <g>
       <use style="stroke:#000000;stroke-width:0.8;" x="54" xlink:href="#mf75361f149" y="251.610646"/>
      </g>
     </g>
     <g id="text_10">
      <!-- 30 -->
      <g transform="translate(34.275 255.409864)scale(0.1 -0.1)">
       <use xlink:href="#DejaVuSans-51"/>
       <use x="63.623047" xlink:href="#DejaVuSans-48"/>
      </g>
     </g>
    </g>
    <g id="ytick_2">
     <g id="line2d_19">
      <path clip-path="url(#p6687670696)" d="M 54 218.297358 
L 388.8 218.297358 
" style="fill:none;stroke:#b0b0b0;stroke-dasharray:0.8,1.32;stroke-dashoffset:0;stroke-width:0.8;"/>
     </g>
     <g id="line2d_20">
      <g>
       <use style="stroke:#000000;stroke-width:0.8;" x="54" xlink:href="#mf75361f149" y="218.297358"/>
      </g>
     </g>
     <g id="text_11">
      <!-- 40 -->
      <defs>
       <path d="M 37.796875 64.3125 
L 12.890625 25.390625 
L 37.796875 25.390625 
z
M 35.203125 72.90625 
L 47.609375 72.90625 
L 47.609375 25.390625 
L 58.015625 25.390625 
L 58.015625 17.1875 
L 47.609375 17.1875 
L 47.609375 0 
L 37.796875 0 
L 37.796875 17.1875 
L 4.890625 17.1875 
L 4.890625 26.703125 
z
" id="DejaVuSans-52"/>
      </defs>
      <g transform="translate(34.275 222.096576)scale(0.1 -0.1)">
       <use xlink:href="#DejaVuSans-52"/>
       <use x="63.623047" xlink:href="#DejaVuSans-48"/>
      </g>
     </g>
    </g>
    <g id="ytick_3">
     <g id="line2d_21">
      <path clip-path="url(#p6687670696)" d="M 54 184.98407 
L 388.8 184.98407 
" style="fill:none;stroke:#b0b0b0;stroke-dasharray:0.8,1.32;stroke-dashoffset:0;stroke-width:0.8;"/>
     </g>
     <g id="line2d_22">
      <g>
       <use style="stroke:#000000;stroke-width:0.8;" x="54" xlink:href="#mf75361f149" y="184.98407"/>
      </g>
     </g>
     <g id="text_12">
      <!-- 50 -->
      <g transform="translate(34.275 188.783289)scale(0.1 -0.1)">
       <use xlink:href="#DejaVuSans-53"/>
       <use x="63.623047" xlink:href="#DejaVuSans-48"/>
      </g>
     </g>
    </g>
    <g id="ytick_4">
     <g id="line2d_23">
      <path clip-path="url(#p6687670696)" d="M 54 151.670782 
L 388.8 151.670782 
" style="fill:none;stroke:#b0b0b0;stroke-dasharray:0.8,1.32;stroke-dashoffset:0;stroke-width:0.8;"/>
     </g>
     <g id="line2d_24">
      <g>
       <use style="stroke:#000000;stroke-width:0.8;" x="54" xlink:href="#mf75361f149" y="151.670782"/>
      </g>
     </g>
     <g id="text_13">
      <!-- 60 -->
      <defs>
       <path d="M 33.015625 40.375 
Q 26.375 40.375 22.484375 35.828125 
Q 18.609375 31.296875 18.609375 23.390625 
Q 18.609375 15.53125 22.484375 10.953125 
Q 26.375 6.390625 33.015625 6.390625 
Q 39.65625 6.390625 43.53125 10.953125 
Q 47.40625 15.53125 47.40625 23.390625 
Q 47.40625 31.296875 43.53125 35.828125 
Q 39.65625 40.375 33.015625 40.375 
z
M 52.59375 71.296875 
L 52.59375 62.3125 
Q 48.875 64.0625 45.09375 64.984375 
Q 41.3125 65.921875 37.59375 65.921875 
Q 27.828125 65.921875 22.671875 59.328125 
Q 17.53125 52.734375 16.796875 39.40625 
Q 19.671875 43.65625 24.015625 45.921875 
Q 28.375 48.1875 33.59375 48.1875 
Q 44.578125 48.1875 50.953125 41.515625 
Q 57.328125 34.859375 57.328125 23.390625 
Q 57.328125 12.15625 50.6875 5.359375 
Q 44.046875 -1.421875 33.015625 -1.421875 
Q 20.359375 -1.421875 13.671875 8.265625 
Q 6.984375 17.96875 6.984375 36.375 
Q 6.984375 53.65625 15.1875 63.9375 
Q 23.390625 74.21875 37.203125 74.21875 
Q 40.921875 74.21875 44.703125 73.484375 
Q 48.484375 72.75 52.59375 71.296875 
z
" id="DejaVuSans-54"/>
      </defs>
      <g transform="translate(34.275 155.470001)scale(0.1 -0.1)">
       <use xlink:href="#DejaVuSans-54"/>
       <use x="63.623047" xlink:href="#DejaVuSans-48"/>
      </g>
     </g>
    </g>
    <g id="ytick_5">
     <g id="line2d_25">
      <path clip-path="url(#p6687670696)" d="M 54 118.357494 
L 388.8 118.357494 
" style="fill:none;stroke:#b0b0b0;stroke-dasharray:0.8,1.32;stroke-dashoffset:0;stroke-width:0.8;"/>
     </g>
     <g id="line2d_26">
      <g>
       <use style="stroke:#000000;stroke-width:0.8;" x="54" xlink:href="#mf75361f149" y="118.357494"/>
      </g>
     </g>
     <g id="text_14">
      <!-- 70 -->
      <defs>
       <path d="M 8.203125 72.90625 
L 55.078125 72.90625 
L 55.078125 68.703125 
L 28.609375 0 
L 18.3125 0 
L 43.21875 64.59375 
L 8.203125 64.59375 
z
" id="DejaVuSans-55"/>
      </defs>
      <g transform="translate(34.275 122.156713)scale(0.1 -0.1)">
       <use xlink:href="#DejaVuSans-55"/>
       <use x="63.623047" xlink:href="#DejaVuSans-48"/>
      </g>
     </g>
    </g>
    <g id="ytick_6">
     <g id="line2d_27">
      <path clip-path="url(#p6687670696)" d="M 54 85.044206 
L 388.8 85.044206 
" style="fill:none;stroke:#b0b0b0;stroke-dasharray:0.8,1.32;stroke-dashoffset:0;stroke-width:0.8;"/>
     </g>
     <g id="line2d_28">
      <g>
       <use style="stroke:#000000;stroke-width:0.8;" x="54" xlink:href="#mf75361f149" y="85.044206"/>
      </g>
     </g>
     <g id="text_15">
      <!-- 80 -->
      <defs>
       <path d="M 31.78125 34.625 
Q 24.75 34.625 20.71875 30.859375 
Q 16.703125 27.09375 16.703125 20.515625 
Q 16.703125 13.921875 20.71875 10.15625 
Q 24.75 6.390625 31.78125 6.390625 
Q 38.8125 6.390625 42.859375 10.171875 
Q 46.921875 13.96875 46.921875 20.515625 
Q 46.921875 27.09375 42.890625 30.859375 
Q 38.875 34.625 31.78125 34.625 
z
M 21.921875 38.8125 
Q 15.578125 40.375 12.03125 44.71875 
Q 8.5 49.078125 8.5 55.328125 
Q 8.5 64.0625 14.71875 69.140625 
Q 20.953125 74.21875 31.78125 74.21875 
Q 42.671875 74.21875 48.875 69.140625 
Q 55.078125 64.0625 55.078125 55.328125 
Q 55.078125 49.078125 51.53125 44.71875 
Q 48 40.375 41.703125 38.8125 
Q 48.828125 37.15625 52.796875 32.3125 
Q 56.78125 27.484375 56.78125 20.515625 
Q 56.78125 9.90625 50.3125 4.234375 
Q 43.84375 -1.421875 31.78125 -1.421875 
Q 19.734375 -1.421875 13.25 4.234375 
Q 6.78125 9.90625 6.78125 20.515625 
Q 6.78125 27.484375 10.78125 32.3125 
Q 14.796875 37.15625 21.921875 38.8125 
z
M 18.3125 54.390625 
Q 18.3125 48.734375 21.84375 45.5625 
Q 25.390625 42.390625 31.78125 42.390625 
Q 38.140625 42.390625 41.71875 45.5625 
Q 45.3125 48.734375 45.3125 54.390625 
Q 45.3125 60.0625 41.71875 63.234375 
Q 38.140625 66.40625 31.78125 66.40625 
Q 25.390625 66.40625 21.84375 63.234375 
Q 18.3125 60.0625 18.3125 54.390625 
z
" id="DejaVuSans-56"/>
      </defs>
      <g transform="translate(34.275 88.843425)scale(0.1 -0.1)">
       <use xlink:href="#DejaVuSans-56"/>
       <use x="63.623047" xlink:href="#DejaVuSans-48"/>
      </g>
     </g>
    </g>
    <g id="ytick_7">
     <g id="line2d_29">
      <path clip-path="url(#p6687670696)" d="M 54 51.730918 
L 388.8 51.730918 
" style="fill:none;stroke:#b0b0b0;stroke-dasharray:0.8,1.32;stroke-dashoffset:0;stroke-width:0.8;"/>
     </g>
     <g id="line2d_30">
      <g>
       <use style="stroke:#000000;stroke-width:0.8;" x="54" xlink:href="#mf75361f149" y="51.730918"/>
      </g>
     </g>
     <g id="text_16">
      <!-- 90 -->
      <defs>
       <path d="M 10.984375 1.515625 
L 10.984375 10.5 
Q 14.703125 8.734375 18.5 7.8125 
Q 22.3125 6.890625 25.984375 6.890625 
Q 35.75 6.890625 40.890625 13.453125 
Q 46.046875 20.015625 46.78125 33.40625 
Q 43.953125 29.203125 39.59375 26.953125 
Q 35.25 24.703125 29.984375 24.703125 
Q 19.046875 24.703125 12.671875 31.3125 
Q 6.296875 37.9375 6.296875 49.421875 
Q 6.296875 60.640625 12.9375 67.421875 
Q 19.578125 74.21875 30.609375 74.21875 
Q 43.265625 74.21875 49.921875 64.515625 
Q 56.59375 54.828125 56.59375 36.375 
Q 56.59375 19.140625 48.40625 8.859375 
Q 40.234375 -1.421875 26.421875 -1.421875 
Q 22.703125 -1.421875 18.890625 -0.6875 
Q 15.09375 0.046875 10.984375 1.515625 
z
M 30.609375 32.421875 
Q 37.25 32.421875 41.125 36.953125 
Q 45.015625 41.5 45.015625 49.421875 
Q 45.015625 57.28125 41.125 61.84375 
Q 37.25 66.40625 30.609375 66.40625 
Q 23.96875 66.40625 20.09375 61.84375 
Q 16.21875 57.28125 16.21875 49.421875 
Q 16.21875 41.5 20.09375 36.953125 
Q 23.96875 32.421875 30.609375 32.421875 
z
" id="DejaVuSans-57"/>
      </defs>
      <g transform="translate(34.275 55.530137)scale(0.1 -0.1)">
       <use xlink:href="#DejaVuSans-57"/>
       <use x="63.623047" xlink:href="#DejaVuSans-48"/>
      </g>
     </g>
    </g>
    <g id="text_17">
     <!-- Accuracy -->
     <defs>
      <path d="M 34.1875 63.1875 
L 20.796875 26.90625 
L 47.609375 26.90625 
z
M 28.609375 72.90625 
L 39.796875 72.90625 
L 67.578125 0 
L 57.328125 0 
L 50.6875 18.703125 
L 17.828125 18.703125 
L 11.1875 0 
L 0.78125 0 
z
" id="DejaVuSans-65"/>
      <path d="M 8.5 21.578125 
L 8.5 54.6875 
L 17.484375 54.6875 
L 17.484375 21.921875 
Q 17.484375 14.15625 20.5 10.265625 
Q 23.53125 6.390625 29.59375 6.390625 
Q 36.859375 6.390625 41.078125 11.03125 
Q 45.3125 15.671875 45.3125 23.6875 
L 45.3125 54.6875 
L 54.296875 54.6875 
L 54.296875 0 
L 45.3125 0 
L 45.3125 8.40625 
Q 42.046875 3.421875 37.71875 1 
Q 33.40625 -1.421875 27.6875 -1.421875 
Q 18.265625 -1.421875 13.375 4.4375 
Q 8.5 10.296875 8.5 21.578125 
z
M 31.109375 56 
z
" id="DejaVuSans-117"/>
      <path d="M 41.109375 46.296875 
Q 39.59375 47.171875 37.8125 47.578125 
Q 36.03125 48 33.890625 48 
Q 26.265625 48 22.1875 43.046875 
Q 18.109375 38.09375 18.109375 28.8125 
L 18.109375 0 
L 9.078125 0 
L 9.078125 54.6875 
L 18.109375 54.6875 
L 18.109375 46.1875 
Q 20.953125 51.171875 25.484375 53.578125 
Q 30.03125 56 36.53125 56 
Q 37.453125 56 38.578125 55.875 
Q 39.703125 55.765625 41.0625 55.515625 
z
" id="DejaVuSans-114"/>
      <path d="M 34.28125 27.484375 
Q 23.390625 27.484375 19.1875 25 
Q 14.984375 22.515625 14.984375 16.5 
Q 14.984375 11.71875 18.140625 8.90625 
Q 21.296875 6.109375 26.703125 6.109375 
Q 34.1875 6.109375 38.703125 11.40625 
Q 43.21875 16.703125 43.21875 25.484375 
L 43.21875 27.484375 
z
M 52.203125 31.203125 
L 52.203125 0 
L 43.21875 0 
L 43.21875 8.296875 
Q 40.140625 3.328125 35.546875 0.953125 
Q 30.953125 -1.421875 24.3125 -1.421875 
Q 15.921875 -1.421875 10.953125 3.296875 
Q 6 8.015625 6 15.921875 
Q 6 25.140625 12.171875 29.828125 
Q 18.359375 34.515625 30.609375 34.515625 
L 43.21875 34.515625 
L 43.21875 35.40625 
Q 43.21875 41.609375 39.140625 45 
Q 35.0625 48.390625 27.6875 48.390625 
Q 23 48.390625 18.546875 47.265625 
Q 14.109375 46.140625 10.015625 43.890625 
L 10.015625 52.203125 
Q 14.9375 54.109375 19.578125 55.046875 
Q 24.21875 56 28.609375 56 
Q 40.484375 56 46.34375 49.84375 
Q 52.203125 43.703125 52.203125 31.203125 
z
" id="DejaVuSans-97"/>
      <path d="M 32.171875 -5.078125 
Q 28.375 -14.84375 24.75 -17.8125 
Q 21.140625 -20.796875 15.09375 -20.796875 
L 7.90625 -20.796875 
L 7.90625 -13.28125 
L 13.1875 -13.28125 
Q 16.890625 -13.28125 18.9375 -11.515625 
Q 21 -9.765625 23.484375 -3.21875 
L 25.09375 0.875 
L 2.984375 54.6875 
L 12.5 54.6875 
L 29.59375 11.921875 
L 46.6875 54.6875 
L 56.203125 54.6875 
z
" id="DejaVuSans-121"/>
     </defs>
     <g transform="translate(28.195312 166.194844)rotate(-90)scale(0.1 -0.1)">
      <use xlink:href="#DejaVuSans-65"/>
      <use x="68.392578" xlink:href="#DejaVuSans-99"/>
      <use x="123.373047" xlink:href="#DejaVuSans-99"/>
      <use x="178.353516" xlink:href="#DejaVuSans-117"/>
      <use x="241.732422" xlink:href="#DejaVuSans-114"/>
      <use x="282.845703" xlink:href="#DejaVuSans-97"/>
      <use x="344.125" xlink:href="#DejaVuSans-99"/>
      <use x="399.105469" xlink:href="#DejaVuSans-121"/>
     </g>
    </g>
   </g>
   <g id="line2d_31">
    <path clip-path="url(#p6687670696)" d="M 69.218182 228.70776 
L 70.962386 168.327426 
L 71.834488 143.34246 
L 72.70659 124.603735 
L 74.450794 102.74189 
L 75.322897 94.413568 
L 76.194999 94.413568 
L 77.067101 80.880045 
L 77.939203 82.962126 
L 78.811305 86.085246 
L 79.683407 90.769927 
L 80.555509 82.962126 
L 81.427611 84.523686 
L 82.299713 72.031203 
L 83.171816 65.264441 
L 84.043918 73.072243 
L 84.91602 71.510683 
L 85.788122 63.702881 
L 86.660224 68.908082 
L 87.532326 64.223401 
L 88.404428 73.592763 
L 89.27653 64.223401 
L 90.148632 62.141321 
L 91.020735 62.661841 
L 91.892837 67.867042 
L 92.764939 63.702881 
L 93.637041 71.510683 
L 94.509143 60.05924 
L 95.381245 64.223401 
L 96.253347 50.689878 
L 97.125449 60.05924 
L 97.997551 60.57976 
L 98.869654 63.702881 
L 99.741756 61.6208 
L 100.613858 60.05924 
L 101.48596 57.97716 
L 102.358062 56.415599 
L 103.230164 56.415599 
L 104.102266 57.97716 
L 104.974368 62.661841 
L 105.84647 57.97716 
L 106.718573 55.895079 
L 107.590675 57.456639 
L 109.334879 56.415599 
L 110.206981 56.936119 
L 111.079083 55.895079 
L 111.951185 52.251438 
L 112.823287 56.936119 
L 113.695389 53.812999 
L 114.567492 56.936119 
L 115.439594 61.10028 
L 116.311696 56.936119 
L 117.183798 55.374559 
L 118.0559 57.456639 
L 118.928002 52.251438 
L 119.800104 56.936119 
L 120.672206 59.0182 
L 121.544308 56.415599 
L 122.416411 52.771958 
L 123.288513 54.854039 
L 124.160615 63.702881 
L 125.032717 53.812999 
L 125.904819 53.812999 
L 126.776921 55.374559 
L 127.649023 52.251438 
L 128.521125 63.182361 
L 129.393227 61.6208 
L 130.26533 53.292478 
L 131.137432 63.702881 
L 132.009534 63.702881 
L 132.881636 54.854039 
L 133.753738 54.854039 
L 135.497942 56.936119 
L 136.370044 54.854039 
L 137.242146 55.895079 
L 138.114249 54.854039 
L 138.986351 47.566757 
L 139.858453 60.57976 
L 140.730555 53.812999 
L 141.602657 52.771958 
L 142.474759 53.812999 
L 143.346861 48.607797 
L 144.218963 52.771958 
L 145.091065 54.333519 
L 145.963167 54.854039 
L 146.83527 53.812999 
L 147.707372 53.292478 
L 148.579474 49.648838 
L 149.451576 53.812999 
L 150.323678 53.812999 
L 151.19578 53.292478 
L 152.067882 61.6208 
L 152.939984 57.97716 
L 153.812086 56.415599 
L 154.684189 50.689878 
L 155.556291 51.730918 
L 156.428393 55.895079 
L 157.300495 56.415599 
L 158.172597 51.730918 
L 159.044699 52.251438 
L 159.916801 55.374559 
L 160.788903 56.415599 
L 161.661005 54.333519 
L 162.533108 52.771958 
L 163.40521 52.251438 
L 164.277312 48.087277 
L 165.149414 53.292478 
L 166.021516 53.812999 
L 166.893618 57.97716 
L 167.76572 55.374559 
L 168.637822 53.812999 
L 169.509924 54.333519 
L 170.382027 52.251438 
L 171.254129 54.854039 
L 172.126231 54.333519 
L 172.998333 54.333519 
L 174.742537 55.374559 
L 175.614639 47.566757 
L 176.486741 49.128317 
L 177.358843 54.854039 
L 178.230946 56.415599 
L 179.103048 56.936119 
L 179.97515 51.210398 
L 180.847252 56.936119 
L 182.591456 57.97716 
L 183.463558 49.648838 
L 184.33566 59.0182 
L 185.207762 50.689878 
L 186.079865 52.771958 
L 186.951967 53.292478 
L 187.824069 46.005197 
L 188.696171 56.415599 
L 189.568273 54.333519 
L 190.440375 53.812999 
L 191.312477 56.415599 
L 192.184579 53.812999 
L 193.056681 50.689878 
L 193.928784 54.333519 
L 194.800886 55.895079 
L 195.672988 47.566757 
L 196.54509 50.169358 
L 197.417192 63.182361 
L 198.289294 53.812999 
L 199.161396 54.333519 
L 200.033498 53.812999 
L 200.9056 59.0182 
L 201.777703 50.689878 
L 202.649805 51.730918 
L 203.521907 62.661841 
L 204.394009 47.046237 
L 205.266111 53.292478 
L 206.138213 54.333519 
L 207.010315 54.333519 
L 207.882417 65.784961 
L 209.626622 50.689878 
L 210.498724 52.771958 
L 211.370826 50.689878 
L 212.242928 53.292478 
L 213.11503 51.730918 
L 213.987132 49.648838 
L 214.859234 51.730918 
L 215.731336 46.005197 
L 216.603438 54.333519 
L 217.475541 51.210398 
L 218.347643 59.53872 
L 219.219745 56.936119 
L 220.091847 52.251438 
L 220.963949 53.812999 
L 221.836051 50.689878 
L 222.708153 49.648838 
L 223.580255 53.292478 
L 224.452357 52.771958 
L 225.324459 51.210398 
L 226.196562 48.607797 
L 227.068664 52.251438 
L 227.940766 53.812999 
L 228.812868 51.210398 
L 229.68497 50.169358 
L 230.557072 44.443636 
L 231.429174 52.251438 
L 232.301276 49.128317 
L 233.173378 51.210398 
L 234.045481 54.333519 
L 234.917583 54.333519 
L 236.661787 51.210398 
L 237.533889 56.936119 
L 238.405991 48.607797 
L 239.278093 51.210398 
L 240.150195 49.128317 
L 241.022297 57.456639 
L 241.8944 51.730918 
L 242.766502 62.141321 
L 243.638604 49.648838 
L 244.510706 50.689878 
L 245.382808 49.128317 
L 246.25491 58.49768 
L 247.127012 49.648838 
L 247.999114 54.333519 
L 248.871216 51.210398 
L 249.743319 53.292478 
L 250.615421 50.169358 
L 251.487523 54.854039 
L 253.231727 51.730918 
L 254.103829 52.771958 
L 254.975931 52.251438 
L 255.848033 55.374559 
L 256.720135 56.415599 
L 257.592238 53.292478 
L 258.46434 55.374559 
L 259.336442 58.49768 
L 260.208544 53.292478 
L 261.080646 59.0182 
L 261.952748 52.251438 
L 262.82485 50.689878 
L 263.696952 54.333519 
L 264.569054 53.292478 
L 265.441157 56.415599 
L 266.313259 50.689878 
L 267.185361 59.53872 
L 268.057463 51.730918 
L 268.929565 53.292478 
L 269.801667 48.607797 
L 270.673769 48.607797 
L 271.545871 51.210398 
L 272.417973 46.005197 
L 273.290076 53.292478 
L 274.162178 59.53872 
L 275.03428 55.374559 
L 275.906382 52.251438 
L 276.778484 51.210398 
L 277.650586 47.566757 
L 278.522688 47.566757 
L 279.39479 59.53872 
L 280.266892 54.854039 
L 281.138995 46.525717 
L 282.011097 53.812999 
L 282.883199 45.484677 
L 283.755301 47.046237 
L 284.627403 49.128317 
L 285.499505 48.607797 
L 286.371607 49.648838 
L 287.243709 49.128317 
L 288.115811 51.210398 
L 288.987914 55.895079 
L 289.860016 53.292478 
L 290.732118 52.771958 
L 291.60422 49.648838 
L 292.476322 51.210398 
L 293.348424 52.251438 
L 294.220526 52.771958 
L 295.092628 46.525717 
L 295.96473 54.333519 
L 297.708935 50.169358 
L 298.581037 50.169358 
L 299.453139 51.730918 
L 300.325241 48.087277 
L 301.197343 51.730918 
L 302.069445 51.730918 
L 302.941547 45.484677 
L 303.813649 50.689878 
L 304.685751 53.812999 
L 305.557854 54.333519 
L 306.429956 50.689878 
L 307.302058 48.087277 
L 308.17416 52.771958 
L 309.046262 54.333519 
L 309.918364 53.292478 
L 310.790466 50.169358 
L 311.662568 56.936119 
L 312.53467 50.169358 
L 313.406773 54.333519 
L 314.278875 52.251438 
L 315.150977 54.854039 
L 316.023079 54.854039 
L 316.895181 49.128317 
L 317.767283 52.251438 
L 318.639385 52.771958 
L 319.511487 48.607797 
L 320.383589 47.046237 
L 321.255692 48.607797 
L 322.127794 48.087277 
L 322.999896 51.210398 
L 323.871998 47.046237 
L 324.7441 47.046237 
L 325.616202 52.251438 
L 326.488304 47.566757 
L 327.360406 46.525717 
L 328.232508 48.087277 
L 329.104611 56.415599 
L 329.976713 49.128317 
L 330.848815 44.964156 
L 331.720917 48.087277 
L 332.593019 44.964156 
L 333.465121 50.689878 
L 334.337223 52.251438 
L 335.209325 49.128317 
L 336.081427 53.812999 
L 336.95353 50.169358 
L 338.697734 55.374559 
L 339.569836 50.689878 
L 340.441938 51.210398 
L 341.31404 53.812999 
L 342.186142 58.49768 
L 343.058244 55.374559 
L 343.930346 49.648838 
L 344.802449 56.936119 
L 346.546653 52.771958 
L 347.418755 51.730918 
L 348.290857 51.730918 
L 349.162959 47.046237 
L 350.035061 49.128317 
L 350.907163 52.771958 
L 351.779265 51.210398 
L 352.651368 51.210398 
L 353.52347 54.854039 
L 354.395572 52.771958 
L 355.267674 49.648838 
L 356.139776 48.607797 
L 357.011878 54.333519 
L 357.88398 50.169358 
L 358.756082 51.730918 
L 359.628184 50.169358 
L 360.500287 55.895079 
L 361.372389 51.730918 
L 362.244491 59.0182 
L 363.116593 51.210398 
L 363.988695 53.292478 
L 364.860797 52.251438 
L 365.732899 57.456639 
L 366.605001 51.210398 
L 367.477103 50.689878 
L 368.349206 52.251438 
L 369.221308 49.648838 
L 370.09341 53.812999 
L 370.965512 55.895079 
L 371.837614 46.005197 
L 372.709716 51.210398 
L 373.581818 52.771958 
L 373.581818 52.771958 
" style="fill:none;stroke:#008000;stroke-linecap:square;stroke-width:1.5;"/>
   </g>
   <g id="line2d_32">
    <path clip-path="url(#p6687670696)" d="M 69.218182 242.116364 
L 70.090284 205.338491 
L 71.834488 148.406081 
L 72.70659 122.155207 
L 73.578692 110.462261 
L 74.450794 108.396828 
L 75.322897 95.671153 
L 76.194999 103.46645 
L 77.067101 90.041199 
L 77.939203 85.110847 
L 78.811305 78.481484 
L 79.683407 84.611142 
L 80.555509 79.947277 
L 81.427611 76.682589 
L 82.299713 69.953291 
L 83.171816 69.720099 
L 84.043918 69.91997 
L 84.91602 69.520227 
L 85.788122 65.356066 
L 86.660224 63.823658 
L 87.532326 63.890273 
L 88.404428 65.522617 
L 89.27653 64.389978 
L 90.148632 64.023529 
L 91.020735 67.121666 
L 91.892837 67.154987 
L 92.764939 59.293049 
L 93.637041 62.324545 
L 94.509143 62.890864 
L 95.381245 65.589258 
L 96.253347 60.392368 
L 97.125449 59.426305 
L 97.997551 62.757634 
L 98.869654 60.65888 
L 99.741756 61.358456 
L 100.613858 58.526832 
L 101.48596 59.692792 
L 102.358062 57.627384 
L 103.230164 59.626176 
L 104.102266 59.326344 
L 104.974368 60.392368 
L 105.84647 56.627975 
L 106.718573 58.32696 
L 107.590675 56.194912 
L 109.334879 58.360281 
L 110.206981 57.161 
L 111.079083 58.760024 
L 111.951185 55.96172 
L 112.823287 57.893871 
L 113.695389 57.360872 
L 114.567492 56.961103 
L 115.439594 55.528631 
L 116.311696 55.295439 
L 117.183798 55.895079 
L 118.0559 58.426896 
L 118.928002 54.19612 
L 119.800104 55.295439 
L 120.672206 59.193113 
L 122.416411 55.495336 
L 123.288513 58.526832 
L 124.160615 56.894488 
L 125.032717 56.861167 
L 125.904819 54.19612 
L 126.776921 53.696415 
L 127.649023 55.462015 
L 128.521125 60.359073 
L 129.393227 59.626176 
L 130.26533 54.762439 
L 131.137432 55.128888 
L 132.009534 56.594655 
L 132.881636 53.763031 
L 134.62584 56.594655 
L 135.497942 54.928991 
L 136.370044 54.829055 
L 137.242146 55.262144 
L 138.114249 56.494719 
L 138.986351 54.595863 
L 139.858453 56.52804 
L 140.730555 56.394783 
L 141.602657 57.627384 
L 142.474759 55.328759 
L 143.346861 57.027744 
L 144.218963 54.895696 
L 145.091065 56.328168 
L 145.963167 54.462607 
L 146.83527 53.796351 
L 147.707372 57.227616 
L 148.579474 52.164007 
L 149.451576 56.261527 
L 150.323678 53.763031 
L 151.19578 55.96172 
L 152.067882 55.095567 
L 152.939984 52.796942 
L 153.812086 55.695207 
L 154.684189 55.195503 
L 155.556291 53.796351 
L 156.428393 57.227616 
L 157.300495 55.995015 
L 158.172597 56.194912 
L 159.044699 55.128888 
L 159.916801 52.397199 
L 160.788903 53.063455 
L 161.661005 54.062863 
L 162.533108 54.595863 
L 163.40521 55.595272 
L 164.277312 52.730327 
L 165.149414 56.827847 
L 166.021516 54.429312 
L 166.893618 57.560743 
L 167.76572 54.529247 
L 168.637822 55.162183 
L 169.509924 52.463814 
L 170.382027 54.729119 
L 171.254129 54.429312 
L 172.126231 52.930198 
L 172.998333 53.363288 
L 174.742537 52.930198 
L 175.614639 53.529839 
L 176.486741 53.263326 
L 177.358843 51.764239 
L 178.230946 55.495336 
L 179.103048 53.929607 
L 179.97515 53.063455 
L 180.847252 55.561951 
L 181.719354 56.694616 
L 182.591456 53.496518 
L 183.463558 53.063455 
L 184.33566 57.227616 
L 185.207762 56.694616 
L 186.079865 52.297263 
L 186.951967 57.360872 
L 187.824069 53.962928 
L 188.696171 56.161591 
L 189.568273 53.862966 
L 190.440375 55.195503 
L 191.312477 53.329967 
L 192.184579 53.130096 
L 193.056681 55.928399 
L 193.928784 55.96172 
L 194.800886 53.763031 
L 195.672988 52.996839 
L 196.54509 52.796942 
L 197.417192 56.694616 
L 198.289294 54.395991 
L 199.161396 53.59648 
L 200.033498 53.529839 
L 200.9056 55.228823 
L 201.777703 54.062863 
L 202.649805 55.295439 
L 203.521907 54.296055 
L 204.394009 53.59648 
L 205.266111 55.195503 
L 206.138213 53.496518 
L 207.010315 55.495336 
L 207.882417 53.16339 
L 208.754519 55.96172 
L 209.626622 53.230031 
L 210.498724 54.32935 
L 211.370826 53.896287 
L 212.242928 52.530455 
L 213.11503 53.529839 
L 213.987132 53.929607 
L 214.859234 53.663095 
L 215.731336 52.930198 
L 216.603438 52.463814 
L 217.475541 53.329967 
L 218.347643 53.663095 
L 219.219745 54.495927 
L 220.091847 53.59648 
L 220.963949 56.661296 
L 221.836051 56.494719 
L 222.708153 51.96411 
L 223.580255 52.263943 
L 224.452357 55.028952 
L 225.324459 53.796351 
L 226.196562 54.495927 
L 227.068664 54.062863 
L 227.940766 52.097366 
L 228.812868 54.662504 
L 229.68497 53.962928 
L 230.557072 56.861167 
L 231.429174 51.630982 
L 232.301276 54.595863 
L 233.173378 53.629774 
L 234.917583 53.063455 
L 235.789685 53.363288 
L 236.661787 56.394783 
L 237.533889 53.16339 
L 238.405991 52.363879 
L 239.278093 55.195503 
L 240.150195 55.095567 
L 241.022297 53.030134 
L 241.8944 52.730327 
L 242.766502 52.297263 
L 243.638604 51.164598 
L 244.510706 52.530455 
L 245.382808 52.397199 
L 246.25491 51.597662 
L 247.127012 52.397199 
L 247.999114 53.396582 
L 248.871216 53.363288 
L 249.743319 54.928991 
L 250.615421 54.262735 
L 252.359625 51.564367 
L 253.231727 50.931406 
L 254.103829 52.097366 
L 254.975931 51.297855 
L 255.848033 52.330558 
L 256.720135 51.297855 
L 257.592238 51.131278 
L 258.46434 50.431702 
L 259.336442 52.164007 
L 260.208544 59.026536 
L 261.080646 55.861784 
L 261.952748 52.197302 
L 262.82485 52.697006 
L 263.696952 55.861784 
L 264.569054 53.529839 
L 265.441157 53.030134 
L 266.313259 50.998022 
L 267.185361 51.630982 
L 268.057463 51.564367 
L 268.929565 51.630982 
L 269.801667 53.629774 
L 270.673769 50.664894 
L 271.545871 53.363288 
L 272.417973 57.76064 
L 273.290076 52.164007 
L 274.162178 52.830263 
L 275.03428 53.996223 
L 275.906382 52.197302 
L 276.778484 52.397199 
L 277.650586 51.197919 
L 278.522688 52.896878 
L 279.39479 50.298446 
L 280.266892 52.730327 
L 281.138995 53.030134 
L 282.011097 52.330558 
L 282.883199 50.864791 
L 283.755301 52.397199 
L 284.627403 53.230031 
L 285.499505 52.130687 
L 286.371607 53.59648 
L 287.243709 53.763031 
L 288.115811 53.796351 
L 288.987914 54.562542 
L 289.860016 54.495927 
L 290.732118 55.595272 
L 291.60422 52.796942 
L 292.476322 52.164007 
L 293.348424 55.295439 
L 294.220526 51.39779 
L 295.092628 53.929607 
L 295.96473 55.262144 
L 296.836833 54.096158 
L 297.708935 53.230031 
L 298.581037 52.164007 
L 299.453139 52.397199 
L 300.325241 53.563159 
L 301.197343 53.896287 
L 302.069445 51.031342 
L 302.941547 56.994424 
L 303.813649 51.264534 
L 304.685751 51.131278 
L 305.557854 52.697006 
L 306.429956 53.196711 
L 307.302058 53.962928 
L 308.17416 50.598279 
L 309.046262 53.563159 
L 309.918364 53.563159 
L 310.790466 51.864174 
L 311.662568 56.794552 
L 312.53467 50.365087 
L 313.406773 51.331175 
L 314.278875 58.227024 
L 315.150977 53.996223 
L 316.023079 51.730918 
L 316.895181 52.597071 
L 317.767283 51.39779 
L 318.639385 51.36447 
L 319.511487 52.863583 
L 320.383589 52.830263 
L 321.255692 53.296647 
L 322.127794 52.197302 
L 322.999896 54.062863 
L 323.871998 53.263326 
L 324.7441 51.597662 
L 326.488304 51.930815 
L 327.360406 53.096775 
L 328.232508 51.897495 
L 329.104611 52.530455 
L 329.976713 49.865382 
L 330.848815 52.030751 
L 331.720917 52.263943 
L 332.593019 51.664303 
L 333.465121 52.530455 
L 334.337223 53.862966 
L 335.209325 53.396582 
L 336.081427 53.130096 
L 337.825632 51.930815 
L 338.697734 51.730918 
L 339.569836 50.031959 
L 340.441938 50.23183 
L 341.31404 49.832062 
L 342.186142 50.498343 
L 343.058244 53.929607 
L 343.930346 50.098574 
L 344.802449 54.129479 
L 345.674551 50.964727 
L 346.546653 53.063455 
L 347.418755 51.36447 
L 348.290857 58.060448 
L 349.162959 52.730327 
L 350.035061 50.098574 
L 350.907163 51.197919 
L 351.779265 49.099165 
L 352.651368 53.829672 
L 353.52347 50.431702 
L 354.395572 54.895696 
L 355.267674 53.263326 
L 356.139776 51.097983 
L 357.011878 52.763647 
L 357.88398 53.230031 
L 358.756082 55.195503 
L 359.628184 52.263943 
L 360.500287 50.598279 
L 361.372389 56.927808 
L 362.244491 53.263326 
L 363.116593 50.598279 
L 363.988695 51.697623 
L 364.860797 52.097366 
L 365.732899 52.996839 
L 366.605001 52.697006 
L 367.477103 51.830854 
L 368.349206 50.23183 
L 369.221308 49.03255 
L 370.09341 49.965318 
L 370.965512 53.429903 
L 371.837614 53.296647 
L 372.709716 52.697006 
L 373.581818 51.697623 
L 373.581818 51.697623 
" style="fill:none;stroke:#ff0000;stroke-linecap:square;stroke-width:1.5;"/>
   </g>
   <g id="patch_3">
    <path d="M 54 252 
L 54 34.56 
" style="fill:none;stroke:#000000;stroke-linecap:square;stroke-linejoin:miter;stroke-width:0.8;"/>
   </g>
   <g id="patch_4">
    <path d="M 388.8 252 
L 388.8 34.56 
" style="fill:none;stroke:#000000;stroke-linecap:square;stroke-linejoin:miter;stroke-width:0.8;"/>
   </g>
   <g id="patch_5">
    <path d="M 54 252 
L 388.8 252 
" style="fill:none;stroke:#000000;stroke-linecap:square;stroke-linejoin:miter;stroke-width:0.8;"/>
   </g>
   <g id="patch_6">
    <path d="M 54 34.56 
L 388.8 34.56 
" style="fill:none;stroke:#000000;stroke-linecap:square;stroke-linejoin:miter;stroke-width:0.8;"/>
   </g>
   <g id="text_18">
    <!-- VGGNet Accuracy -->
    <defs>
     <path d="M 28.609375 0 
L 0.78125 72.90625 
L 11.078125 72.90625 
L 34.1875 11.53125 
L 57.328125 72.90625 
L 67.578125 72.90625 
L 39.796875 0 
z
" id="DejaVuSans-86"/>
     <path d="M 59.515625 10.40625 
L 59.515625 29.984375 
L 43.40625 29.984375 
L 43.40625 38.09375 
L 69.28125 38.09375 
L 69.28125 6.78125 
Q 63.578125 2.734375 56.6875 0.65625 
Q 49.8125 -1.421875 42 -1.421875 
Q 24.90625 -1.421875 15.25 8.5625 
Q 5.609375 18.5625 5.609375 36.375 
Q 5.609375 54.25 15.25 64.234375 
Q 24.90625 74.21875 42 74.21875 
Q 49.125 74.21875 55.546875 72.453125 
Q 61.96875 70.703125 67.390625 67.28125 
L 67.390625 56.78125 
Q 61.921875 61.421875 55.765625 63.765625 
Q 49.609375 66.109375 42.828125 66.109375 
Q 29.4375 66.109375 22.71875 58.640625 
Q 16.015625 51.171875 16.015625 36.375 
Q 16.015625 21.625 22.71875 14.15625 
Q 29.4375 6.6875 42.828125 6.6875 
Q 48.046875 6.6875 52.140625 7.59375 
Q 56.25 8.5 59.515625 10.40625 
z
" id="DejaVuSans-71"/>
     <path d="M 9.8125 72.90625 
L 23.09375 72.90625 
L 55.421875 11.921875 
L 55.421875 72.90625 
L 64.984375 72.90625 
L 64.984375 0 
L 51.703125 0 
L 19.390625 60.984375 
L 19.390625 0 
L 9.8125 0 
z
" id="DejaVuSans-78"/>
     <path d="M 56.203125 29.59375 
L 56.203125 25.203125 
L 14.890625 25.203125 
Q 15.484375 15.921875 20.484375 11.0625 
Q 25.484375 6.203125 34.421875 6.203125 
Q 39.59375 6.203125 44.453125 7.46875 
Q 49.3125 8.734375 54.109375 11.28125 
L 54.109375 2.78125 
Q 49.265625 0.734375 44.1875 -0.34375 
Q 39.109375 -1.421875 33.890625 -1.421875 
Q 20.796875 -1.421875 13.15625 6.1875 
Q 5.515625 13.8125 5.515625 26.8125 
Q 5.515625 40.234375 12.765625 48.109375 
Q 20.015625 56 32.328125 56 
Q 43.359375 56 49.78125 48.890625 
Q 56.203125 41.796875 56.203125 29.59375 
z
M 47.21875 32.234375 
Q 47.125 39.59375 43.09375 43.984375 
Q 39.0625 48.390625 32.421875 48.390625 
Q 24.90625 48.390625 20.390625 44.140625 
Q 15.875 39.890625 15.1875 32.171875 
z
" id="DejaVuSans-101"/>
     <path d="M 18.3125 70.21875 
L 18.3125 54.6875 
L 36.8125 54.6875 
L 36.8125 47.703125 
L 18.3125 47.703125 
L 18.3125 18.015625 
Q 18.3125 11.328125 20.140625 9.421875 
Q 21.96875 7.515625 27.59375 7.515625 
L 36.8125 7.515625 
L 36.8125 0 
L 27.59375 0 
Q 17.1875 0 13.234375 3.875 
Q 9.28125 7.765625 9.28125 18.015625 
L 9.28125 47.703125 
L 2.6875 47.703125 
L 2.6875 54.6875 
L 9.28125 54.6875 
L 9.28125 70.21875 
z
" id="DejaVuSans-116"/>
     <path id="DejaVuSans-32"/>
    </defs>
    <g transform="translate(154.725 28.56)scale(0.15 -0.15)">
     <use xlink:href="#DejaVuSans-86"/>
     <use x="68.408203" xlink:href="#DejaVuSans-71"/>
     <use x="145.898438" xlink:href="#DejaVuSans-71"/>
     <use x="223.388672" xlink:href="#DejaVuSans-78"/>
     <use x="298.193359" xlink:href="#DejaVuSans-101"/>
     <use x="359.716797" xlink:href="#DejaVuSans-116"/>
     <use x="398.925781" xlink:href="#DejaVuSans-32"/>
     <use x="430.712891" xlink:href="#DejaVuSans-65"/>
     <use x="499.105469" xlink:href="#DejaVuSans-99"/>
     <use x="554.085938" xlink:href="#DejaVuSans-99"/>
     <use x="609.066406" xlink:href="#DejaVuSans-117"/>
     <use x="672.445312" xlink:href="#DejaVuSans-114"/>
     <use x="713.558594" xlink:href="#DejaVuSans-97"/>
     <use x="774.837891" xlink:href="#DejaVuSans-99"/>
     <use x="829.818359" xlink:href="#DejaVuSans-121"/>
    </g>
   </g>
   <g id="legend_1">
    <g id="patch_7">
     <path d="M 250.646875 247 
L 381.8 247 
Q 383.8 247 383.8 245 
L 383.8 216.64375 
Q 383.8 214.64375 381.8 214.64375 
L 250.646875 214.64375 
Q 248.646875 214.64375 248.646875 216.64375 
L 248.646875 245 
Q 248.646875 247 250.646875 247 
z
" style="fill:#ffffff;opacity:0.8;stroke:#cccccc;stroke-linejoin:miter;"/>
    </g>
    <g id="line2d_33">
     <path d="M 252.646875 222.742188 
L 272.646875 222.742188 
" style="fill:none;stroke:#008000;stroke-linecap:square;stroke-width:1.5;"/>
    </g>
    <g id="line2d_34"/>
    <g id="text_19">
     <!-- Validation Accuracy -->
     <defs>
      <path d="M 9.421875 75.984375 
L 18.40625 75.984375 
L 18.40625 0 
L 9.421875 0 
z
" id="DejaVuSans-108"/>
      <path d="M 9.421875 54.6875 
L 18.40625 54.6875 
L 18.40625 0 
L 9.421875 0 
z
M 9.421875 75.984375 
L 18.40625 75.984375 
L 18.40625 64.59375 
L 9.421875 64.59375 
z
" id="DejaVuSans-105"/>
      <path d="M 45.40625 46.390625 
L 45.40625 75.984375 
L 54.390625 75.984375 
L 54.390625 0 
L 45.40625 0 
L 45.40625 8.203125 
Q 42.578125 3.328125 38.25 0.953125 
Q 33.9375 -1.421875 27.875 -1.421875 
Q 17.96875 -1.421875 11.734375 6.484375 
Q 5.515625 14.40625 5.515625 27.296875 
Q 5.515625 40.1875 11.734375 48.09375 
Q 17.96875 56 27.875 56 
Q 33.9375 56 38.25 53.625 
Q 42.578125 51.265625 45.40625 46.390625 
z
M 14.796875 27.296875 
Q 14.796875 17.390625 18.875 11.75 
Q 22.953125 6.109375 30.078125 6.109375 
Q 37.203125 6.109375 41.296875 11.75 
Q 45.40625 17.390625 45.40625 27.296875 
Q 45.40625 37.203125 41.296875 42.84375 
Q 37.203125 48.484375 30.078125 48.484375 
Q 22.953125 48.484375 18.875 42.84375 
Q 14.796875 37.203125 14.796875 27.296875 
z
" id="DejaVuSans-100"/>
      <path d="M 54.890625 33.015625 
L 54.890625 0 
L 45.90625 0 
L 45.90625 32.71875 
Q 45.90625 40.484375 42.875 44.328125 
Q 39.84375 48.1875 33.796875 48.1875 
Q 26.515625 48.1875 22.3125 43.546875 
Q 18.109375 38.921875 18.109375 30.90625 
L 18.109375 0 
L 9.078125 0 
L 9.078125 54.6875 
L 18.109375 54.6875 
L 18.109375 46.1875 
Q 21.34375 51.125 25.703125 53.5625 
Q 30.078125 56 35.796875 56 
Q 45.21875 56 50.046875 50.171875 
Q 54.890625 44.34375 54.890625 33.015625 
z
" id="DejaVuSans-110"/>
     </defs>
     <g transform="translate(280.646875 226.242188)scale(0.1 -0.1)">
      <use xlink:href="#DejaVuSans-86"/>
      <use x="68.298828" xlink:href="#DejaVuSans-97"/>
      <use x="129.578125" xlink:href="#DejaVuSans-108"/>
      <use x="157.361328" xlink:href="#DejaVuSans-105"/>
      <use x="185.144531" xlink:href="#DejaVuSans-100"/>
      <use x="248.621094" xlink:href="#DejaVuSans-97"/>
      <use x="309.900391" xlink:href="#DejaVuSans-116"/>
      <use x="349.109375" xlink:href="#DejaVuSans-105"/>
      <use x="376.892578" xlink:href="#DejaVuSans-111"/>
      <use x="438.074219" xlink:href="#DejaVuSans-110"/>
      <use x="501.453125" xlink:href="#DejaVuSans-32"/>
      <use x="533.240234" xlink:href="#DejaVuSans-65"/>
      <use x="601.632812" xlink:href="#DejaVuSans-99"/>
      <use x="656.613281" xlink:href="#DejaVuSans-99"/>
      <use x="711.59375" xlink:href="#DejaVuSans-117"/>
      <use x="774.972656" xlink:href="#DejaVuSans-114"/>
      <use x="816.085938" xlink:href="#DejaVuSans-97"/>
      <use x="877.365234" xlink:href="#DejaVuSans-99"/>
      <use x="932.345703" xlink:href="#DejaVuSans-121"/>
     </g>
    </g>
    <g id="line2d_35">
     <path d="M 252.646875 237.420312 
L 272.646875 237.420312 
" style="fill:none;stroke:#ff0000;stroke-linecap:square;stroke-width:1.5;"/>
    </g>
    <g id="line2d_36"/>
    <g id="text_20">
     <!-- Test Accuracy -->
     <defs>
      <path d="M -0.296875 72.90625 
L 61.375 72.90625 
L 61.375 64.59375 
L 35.5 64.59375 
L 35.5 0 
L 25.59375 0 
L 25.59375 64.59375 
L -0.296875 64.59375 
z
" id="DejaVuSans-84"/>
     </defs>
     <g transform="translate(280.646875 240.920312)scale(0.1 -0.1)">
      <use xlink:href="#DejaVuSans-84"/>
      <use x="60.818359" xlink:href="#DejaVuSans-101"/>
      <use x="122.341797" xlink:href="#DejaVuSans-115"/>
      <use x="174.441406" xlink:href="#DejaVuSans-116"/>
      <use x="213.650391" xlink:href="#DejaVuSans-32"/>
      <use x="245.4375" xlink:href="#DejaVuSans-65"/>
      <use x="313.830078" xlink:href="#DejaVuSans-99"/>
      <use x="368.810547" xlink:href="#DejaVuSans-99"/>
      <use x="423.791016" xlink:href="#DejaVuSans-117"/>
      <use x="487.169922" xlink:href="#DejaVuSans-114"/>
      <use x="528.283203" xlink:href="#DejaVuSans-97"/>
      <use x="589.5625" xlink:href="#DejaVuSans-99"/>
      <use x="644.542969" xlink:href="#DejaVuSans-121"/>
     </g>
    </g>
   </g>
  </g>
 </g>
 <defs>
  <clipPath id="p6687670696">
   <rect height="217.44" width="334.8" x="54" y="34.56"/>
  </clipPath>
 </defs>
</svg>
