<?xml version="1.0" encoding="utf-8" standalone="no"?>
<!DOCTYPE svg PUBLIC "-//W3C//DTD SVG 1.1//EN"
  "http://www.w3.org/Graphics/SVG/1.1/DTD/svg11.dtd">
<!-- Created with matplotlib (https://matplotlib.org/) -->
<svg height="288pt" version="1.1" viewBox="0 0 432 288" width="432pt" xmlns="http://www.w3.org/2000/svg" xmlns:xlink="http://www.w3.org/1999/xlink">
 <defs>
  <style type="text/css">
*{stroke-linecap:butt;stroke-linejoin:round;}
  </style>
 </defs>
 <g id="figure_1">
  <g id="patch_1">
   <path d="M 0 288 
L 432 288 
L 432 0 
L 0 0 
z
" style="fill:#ffffff;"/>
  </g>
  <g id="axes_1">
   <g id="patch_2">
    <path d="M 54 252 
L 388.8 252 
L 388.8 34.56 
L 54 34.56 
z
" style="fill:#ffffff;"/>
   </g>
   <g id="matplotlib.axis_1">
    <g id="xtick_1">
     <g id="line2d_1">
      <path clip-path="url(#p1297b98933)" d="M 69.218182 252 
L 69.218182 34.56 
" style="fill:none;stroke:#b0b0b0;stroke-dasharray:0.8,1.32;stroke-dashoffset:0;stroke-width:0.8;"/>
     </g>
     <g id="line2d_2">
      <defs>
       <path d="M 0 0 
L 0 3.5 
" id="m531dba8396" style="stroke:#000000;stroke-width:0.8;"/>
      </defs>
      <g>
       <use style="stroke:#000000;stroke-width:0.8;" x="69.218182" xlink:href="#m531dba8396" y="252"/>
      </g>
     </g>
     <g id="text_1">
      <!-- 0 -->
      <defs>
       <path d="M 31.78125 66.40625 
Q 24.171875 66.40625 20.328125 58.90625 
Q 16.5 51.421875 16.5 36.375 
Q 16.5 21.390625 20.328125 13.890625 
Q 24.171875 6.390625 31.78125 6.390625 
Q 39.453125 6.390625 43.28125 13.890625 
Q 47.125 21.390625 47.125 36.375 
Q 47.125 51.421875 43.28125 58.90625 
Q 39.453125 66.40625 31.78125 66.40625 
z
M 31.78125 74.21875 
Q 44.046875 74.21875 50.515625 64.515625 
Q 56.984375 54.828125 56.984375 36.375 
Q 56.984375 17.96875 50.515625 8.265625 
Q 44.046875 -1.421875 31.78125 -1.421875 
Q 19.53125 -1.421875 13.0625 8.265625 
Q 6.59375 17.96875 6.59375 36.375 
Q 6.59375 54.828125 13.0625 64.515625 
Q 19.53125 74.21875 31.78125 74.21875 
z
" id="DejaVuSans-48"/>
      </defs>
      <g transform="translate(66.036932 266.598437)scale(0.1 -0.1)">
       <use xlink:href="#DejaVuSans-48"/>
      </g>
     </g>
    </g>
    <g id="xtick_2">
     <g id="line2d_3">
      <path clip-path="url(#p1297b98933)" d="M 112.823287 252 
L 112.823287 34.56 
" style="fill:none;stroke:#b0b0b0;stroke-dasharray:0.8,1.32;stroke-dashoffset:0;stroke-width:0.8;"/>
     </g>
     <g id="line2d_4">
      <g>
       <use style="stroke:#000000;stroke-width:0.8;" x="112.823287" xlink:href="#m531dba8396" y="252"/>
      </g>
     </g>
     <g id="text_2">
      <!-- 50 -->
      <defs>
       <path d="M 10.796875 72.90625 
L 49.515625 72.90625 
L 49.515625 64.59375 
L 19.828125 64.59375 
L 19.828125 46.734375 
Q 21.96875 47.46875 24.109375 47.828125 
Q 26.265625 48.1875 28.421875 48.1875 
Q 40.625 48.1875 47.75 41.5 
Q 54.890625 34.8125 54.890625 23.390625 
Q 54.890625 11.625 47.5625 5.09375 
Q 40.234375 -1.421875 26.90625 -1.421875 
Q 22.3125 -1.421875 17.546875 -0.640625 
Q 12.796875 0.140625 7.71875 1.703125 
L 7.71875 11.625 
Q 12.109375 9.234375 16.796875 8.0625 
Q 21.484375 6.890625 26.703125 6.890625 
Q 35.15625 6.890625 40.078125 11.328125 
Q 45.015625 15.765625 45.015625 23.390625 
Q 45.015625 31 40.078125 35.4375 
Q 35.15625 39.890625 26.703125 39.890625 
Q 22.75 39.890625 18.8125 39.015625 
Q 14.890625 38.140625 10.796875 36.28125 
z
" id="DejaVuSans-53"/>
      </defs>
      <g transform="translate(106.460787 266.598437)scale(0.1 -0.1)">
       <use xlink:href="#DejaVuSans-53"/>
       <use x="63.623047" xlink:href="#DejaVuSans-48"/>
      </g>
     </g>
    </g>
    <g id="xtick_3">
     <g id="line2d_5">
      <path clip-path="url(#p1297b98933)" d="M 156.428393 252 
L 156.428393 34.56 
" style="fill:none;stroke:#b0b0b0;stroke-dasharray:0.8,1.32;stroke-dashoffset:0;stroke-width:0.8;"/>
     </g>
     <g id="line2d_6">
      <g>
       <use style="stroke:#000000;stroke-width:0.8;" x="156.428393" xlink:href="#m531dba8396" y="252"/>
      </g>
     </g>
     <g id="text_3">
      <!-- 100 -->
      <defs>
       <path d="M 12.40625 8.296875 
L 28.515625 8.296875 
L 28.515625 63.921875 
L 10.984375 60.40625 
L 10.984375 69.390625 
L 28.421875 72.90625 
L 38.28125 72.90625 
L 38.28125 8.296875 
L 54.390625 8.296875 
L 54.390625 0 
L 12.40625 0 
z
" id="DejaVuSans-49"/>
      </defs>
      <g transform="translate(146.884643 266.598437)scale(0.1 -0.1)">
       <use xlink:href="#DejaVuSans-49"/>
       <use x="63.623047" xlink:href="#DejaVuSans-48"/>
       <use x="127.246094" xlink:href="#DejaVuSans-48"/>
      </g>
     </g>
    </g>
    <g id="xtick_4">
     <g id="line2d_7">
      <path clip-path="url(#p1297b98933)" d="M 200.033498 252 
L 200.033498 34.56 
" style="fill:none;stroke:#b0b0b0;stroke-dasharray:0.8,1.32;stroke-dashoffset:0;stroke-width:0.8;"/>
     </g>
     <g id="line2d_8">
      <g>
       <use style="stroke:#000000;stroke-width:0.8;" x="200.033498" xlink:href="#m531dba8396" y="252"/>
      </g>
     </g>
     <g id="text_4">
      <!-- 150 -->
      <g transform="translate(190.489748 266.598437)scale(0.1 -0.1)">
       <use xlink:href="#DejaVuSans-49"/>
       <use x="63.623047" xlink:href="#DejaVuSans-53"/>
       <use x="127.246094" xlink:href="#DejaVuSans-48"/>
      </g>
     </g>
    </g>
    <g id="xtick_5">
     <g id="line2d_9">
      <path clip-path="url(#p1297b98933)" d="M 243.638604 252 
L 243.638604 34.56 
" style="fill:none;stroke:#b0b0b0;stroke-dasharray:0.8,1.32;stroke-dashoffset:0;stroke-width:0.8;"/>
     </g>
     <g id="line2d_10">
      <g>
       <use style="stroke:#000000;stroke-width:0.8;" x="243.638604" xlink:href="#m531dba8396" y="252"/>
      </g>
     </g>
     <g id="text_5">
      <!-- 200 -->
      <defs>
       <path d="M 19.1875 8.296875 
L 53.609375 8.296875 
L 53.609375 0 
L 7.328125 0 
L 7.328125 8.296875 
Q 12.9375 14.109375 22.625 23.890625 
Q 32.328125 33.6875 34.8125 36.53125 
Q 39.546875 41.84375 41.421875 45.53125 
Q 43.3125 49.21875 43.3125 52.78125 
Q 43.3125 58.59375 39.234375 62.25 
Q 35.15625 65.921875 28.609375 65.921875 
Q 23.96875 65.921875 18.8125 64.3125 
Q 13.671875 62.703125 7.8125 59.421875 
L 7.8125 69.390625 
Q 13.765625 71.78125 18.9375 73 
Q 24.125 74.21875 28.421875 74.21875 
Q 39.75 74.21875 46.484375 68.546875 
Q 53.21875 62.890625 53.21875 53.421875 
Q 53.21875 48.921875 51.53125 44.890625 
Q 49.859375 40.875 45.40625 35.40625 
Q 44.1875 33.984375 37.640625 27.21875 
Q 31.109375 20.453125 19.1875 8.296875 
z
" id="DejaVuSans-50"/>
      </defs>
      <g transform="translate(234.094854 266.598437)scale(0.1 -0.1)">
       <use xlink:href="#DejaVuSans-50"/>
       <use x="63.623047" xlink:href="#DejaVuSans-48"/>
       <use x="127.246094" xlink:href="#DejaVuSans-48"/>
      </g>
     </g>
    </g>
    <g id="xtick_6">
     <g id="line2d_11">
      <path clip-path="url(#p1297b98933)" d="M 287.243709 252 
L 287.243709 34.56 
" style="fill:none;stroke:#b0b0b0;stroke-dasharray:0.8,1.32;stroke-dashoffset:0;stroke-width:0.8;"/>
     </g>
     <g id="line2d_12">
      <g>
       <use style="stroke:#000000;stroke-width:0.8;" x="287.243709" xlink:href="#m531dba8396" y="252"/>
      </g>
     </g>
     <g id="text_6">
      <!-- 250 -->
      <g transform="translate(277.699959 266.598437)scale(0.1 -0.1)">
       <use xlink:href="#DejaVuSans-50"/>
       <use x="63.623047" xlink:href="#DejaVuSans-53"/>
       <use x="127.246094" xlink:href="#DejaVuSans-48"/>
      </g>
     </g>
    </g>
    <g id="xtick_7">
     <g id="line2d_13">
      <path clip-path="url(#p1297b98933)" d="M 330.848815 252 
L 330.848815 34.56 
" style="fill:none;stroke:#b0b0b0;stroke-dasharray:0.8,1.32;stroke-dashoffset:0;stroke-width:0.8;"/>
     </g>
     <g id="line2d_14">
      <g>
       <use style="stroke:#000000;stroke-width:0.8;" x="330.848815" xlink:href="#m531dba8396" y="252"/>
      </g>
     </g>
     <g id="text_7">
      <!-- 300 -->
      <defs>
       <path d="M 40.578125 39.3125 
Q 47.65625 37.796875 51.625 33 
Q 55.609375 28.21875 55.609375 21.1875 
Q 55.609375 10.40625 48.1875 4.484375 
Q 40.765625 -1.421875 27.09375 -1.421875 
Q 22.515625 -1.421875 17.65625 -0.515625 
Q 12.796875 0.390625 7.625 2.203125 
L 7.625 11.71875 
Q 11.71875 9.328125 16.59375 8.109375 
Q 21.484375 6.890625 26.8125 6.890625 
Q 36.078125 6.890625 40.9375 10.546875 
Q 45.796875 14.203125 45.796875 21.1875 
Q 45.796875 27.640625 41.28125 31.265625 
Q 36.765625 34.90625 28.71875 34.90625 
L 20.21875 34.90625 
L 20.21875 43.015625 
L 29.109375 43.015625 
Q 36.375 43.015625 40.234375 45.921875 
Q 44.09375 48.828125 44.09375 54.296875 
Q 44.09375 59.90625 40.109375 62.90625 
Q 36.140625 65.921875 28.71875 65.921875 
Q 24.65625 65.921875 20.015625 65.03125 
Q 15.375 64.15625 9.8125 62.3125 
L 9.8125 71.09375 
Q 15.4375 72.65625 20.34375 73.4375 
Q 25.25 74.21875 29.59375 74.21875 
Q 40.828125 74.21875 47.359375 69.109375 
Q 53.90625 64.015625 53.90625 55.328125 
Q 53.90625 49.265625 50.4375 45.09375 
Q 46.96875 40.921875 40.578125 39.3125 
z
" id="DejaVuSans-51"/>
      </defs>
      <g transform="translate(321.305065 266.598437)scale(0.1 -0.1)">
       <use xlink:href="#DejaVuSans-51"/>
       <use x="63.623047" xlink:href="#DejaVuSans-48"/>
       <use x="127.246094" xlink:href="#DejaVuSans-48"/>
      </g>
     </g>
    </g>
    <g id="xtick_8">
     <g id="line2d_15">
      <path clip-path="url(#p1297b98933)" d="M 374.45392 252 
L 374.45392 34.56 
" style="fill:none;stroke:#b0b0b0;stroke-dasharray:0.8,1.32;stroke-dashoffset:0;stroke-width:0.8;"/>
     </g>
     <g id="line2d_16">
      <g>
       <use style="stroke:#000000;stroke-width:0.8;" x="374.45392" xlink:href="#m531dba8396" y="252"/>
      </g>
     </g>
     <g id="text_8">
      <!-- 350 -->
      <g transform="translate(364.91017 266.598437)scale(0.1 -0.1)">
       <use xlink:href="#DejaVuSans-51"/>
       <use x="63.623047" xlink:href="#DejaVuSans-53"/>
       <use x="127.246094" xlink:href="#DejaVuSans-48"/>
      </g>
     </g>
    </g>
    <g id="text_9">
     <!-- Epochs -->
     <defs>
      <path d="M 9.8125 72.90625 
L 55.90625 72.90625 
L 55.90625 64.59375 
L 19.671875 64.59375 
L 19.671875 43.015625 
L 54.390625 43.015625 
L 54.390625 34.71875 
L 19.671875 34.71875 
L 19.671875 8.296875 
L 56.78125 8.296875 
L 56.78125 0 
L 9.8125 0 
z
" id="DejaVuSans-69"/>
      <path d="M 18.109375 8.203125 
L 18.109375 -20.796875 
L 9.078125 -20.796875 
L 9.078125 54.6875 
L 18.109375 54.6875 
L 18.109375 46.390625 
Q 20.953125 51.265625 25.265625 53.625 
Q 29.59375 56 35.59375 56 
Q 45.5625 56 51.78125 48.09375 
Q 58.015625 40.1875 58.015625 27.296875 
Q 58.015625 14.40625 51.78125 6.484375 
Q 45.5625 -1.421875 35.59375 -1.421875 
Q 29.59375 -1.421875 25.265625 0.953125 
Q 20.953125 3.328125 18.109375 8.203125 
z
M 48.6875 27.296875 
Q 48.6875 37.203125 44.609375 42.84375 
Q 40.53125 48.484375 33.40625 48.484375 
Q 26.265625 48.484375 22.1875 42.84375 
Q 18.109375 37.203125 18.109375 27.296875 
Q 18.109375 17.390625 22.1875 11.75 
Q 26.265625 6.109375 33.40625 6.109375 
Q 40.53125 6.109375 44.609375 11.75 
Q 48.6875 17.390625 48.6875 27.296875 
z
" id="DejaVuSans-112"/>
      <path d="M 30.609375 48.390625 
Q 23.390625 48.390625 19.1875 42.75 
Q 14.984375 37.109375 14.984375 27.296875 
Q 14.984375 17.484375 19.15625 11.84375 
Q 23.34375 6.203125 30.609375 6.203125 
Q 37.796875 6.203125 41.984375 11.859375 
Q 46.1875 17.53125 46.1875 27.296875 
Q 46.1875 37.015625 41.984375 42.703125 
Q 37.796875 48.390625 30.609375 48.390625 
z
M 30.609375 56 
Q 42.328125 56 49.015625 48.375 
Q 55.71875 40.765625 55.71875 27.296875 
Q 55.71875 13.875 49.015625 6.21875 
Q 42.328125 -1.421875 30.609375 -1.421875 
Q 18.84375 -1.421875 12.171875 6.21875 
Q 5.515625 13.875 5.515625 27.296875 
Q 5.515625 40.765625 12.171875 48.375 
Q 18.84375 56 30.609375 56 
z
" id="DejaVuSans-111"/>
      <path d="M 48.78125 52.59375 
L 48.78125 44.1875 
Q 44.96875 46.296875 41.140625 47.34375 
Q 37.3125 48.390625 33.40625 48.390625 
Q 24.65625 48.390625 19.8125 42.84375 
Q 14.984375 37.3125 14.984375 27.296875 
Q 14.984375 17.28125 19.8125 11.734375 
Q 24.65625 6.203125 33.40625 6.203125 
Q 37.3125 6.203125 41.140625 7.25 
Q 44.96875 8.296875 48.78125 10.40625 
L 48.78125 2.09375 
Q 45.015625 0.34375 40.984375 -0.53125 
Q 36.96875 -1.421875 32.421875 -1.421875 
Q 20.0625 -1.421875 12.78125 6.34375 
Q 5.515625 14.109375 5.515625 27.296875 
Q 5.515625 40.671875 12.859375 48.328125 
Q 20.21875 56 33.015625 56 
Q 37.15625 56 41.109375 55.140625 
Q 45.0625 54.296875 48.78125 52.59375 
z
" id="DejaVuSans-99"/>
      <path d="M 54.890625 33.015625 
L 54.890625 0 
L 45.90625 0 
L 45.90625 32.71875 
Q 45.90625 40.484375 42.875 44.328125 
Q 39.84375 48.1875 33.796875 48.1875 
Q 26.515625 48.1875 22.3125 43.546875 
Q 18.109375 38.921875 18.109375 30.90625 
L 18.109375 0 
L 9.078125 0 
L 9.078125 75.984375 
L 18.109375 75.984375 
L 18.109375 46.1875 
Q 21.34375 51.125 25.703125 53.5625 
Q 30.078125 56 35.796875 56 
Q 45.21875 56 50.046875 50.171875 
Q 54.890625 44.34375 54.890625 33.015625 
z
" id="DejaVuSans-104"/>
      <path d="M 44.28125 53.078125 
L 44.28125 44.578125 
Q 40.484375 46.53125 36.375 47.5 
Q 32.28125 48.484375 27.875 48.484375 
Q 21.1875 48.484375 17.84375 46.4375 
Q 14.5 44.390625 14.5 40.28125 
Q 14.5 37.15625 16.890625 35.375 
Q 19.28125 33.59375 26.515625 31.984375 
L 29.59375 31.296875 
Q 39.15625 29.25 43.1875 25.515625 
Q 47.21875 21.78125 47.21875 15.09375 
Q 47.21875 7.46875 41.1875 3.015625 
Q 35.15625 -1.421875 24.609375 -1.421875 
Q 20.21875 -1.421875 15.453125 -0.5625 
Q 10.6875 0.296875 5.421875 2 
L 5.421875 11.28125 
Q 10.40625 8.6875 15.234375 7.390625 
Q 20.0625 6.109375 24.8125 6.109375 
Q 31.15625 6.109375 34.5625 8.28125 
Q 37.984375 10.453125 37.984375 14.40625 
Q 37.984375 18.0625 35.515625 20.015625 
Q 33.0625 21.96875 24.703125 23.78125 
L 21.578125 24.515625 
Q 13.234375 26.265625 9.515625 29.90625 
Q 5.8125 33.546875 5.8125 39.890625 
Q 5.8125 47.609375 11.28125 51.796875 
Q 16.75 56 26.8125 56 
Q 31.78125 56 36.171875 55.265625 
Q 40.578125 54.546875 44.28125 53.078125 
z
" id="DejaVuSans-115"/>
     </defs>
     <g transform="translate(203.484375 280.276563)scale(0.1 -0.1)">
      <use xlink:href="#DejaVuSans-69"/>
      <use x="63.183594" xlink:href="#DejaVuSans-112"/>
      <use x="126.660156" xlink:href="#DejaVuSans-111"/>
      <use x="187.841797" xlink:href="#DejaVuSans-99"/>
      <use x="242.822266" xlink:href="#DejaVuSans-104"/>
      <use x="306.201172" xlink:href="#DejaVuSans-115"/>
     </g>
    </g>
   </g>
   <g id="matplotlib.axis_2">
    <g id="ytick_1">
     <g id="line2d_17">
      <path clip-path="url(#p1297b98933)" d="M 54 242.594935 
L 388.8 242.594935 
" style="fill:none;stroke:#b0b0b0;stroke-dasharray:0.8,1.32;stroke-dashoffset:0;stroke-width:0.8;"/>
     </g>
     <g id="line2d_18">
      <defs>
       <path d="M 0 0 
L -3.5 0 
" id="m5105926d2c" style="stroke:#000000;stroke-width:0.8;"/>
      </defs>
      <g>
       <use style="stroke:#000000;stroke-width:0.8;" x="54" xlink:href="#m5105926d2c" y="242.594935"/>
      </g>
     </g>
     <g id="text_10">
      <!-- 0.0 -->
      <defs>
       <path d="M 10.6875 12.40625 
L 21 12.40625 
L 21 0 
L 10.6875 0 
z
" id="DejaVuSans-46"/>
      </defs>
      <g transform="translate(31.096875 246.394154)scale(0.1 -0.1)">
       <use xlink:href="#DejaVuSans-48"/>
       <use x="63.623047" xlink:href="#DejaVuSans-46"/>
       <use x="95.410156" xlink:href="#DejaVuSans-48"/>
      </g>
     </g>
    </g>
    <g id="ytick_2">
     <g id="line2d_19">
      <path clip-path="url(#p1297b98933)" d="M 54 199.568666 
L 388.8 199.568666 
" style="fill:none;stroke:#b0b0b0;stroke-dasharray:0.8,1.32;stroke-dashoffset:0;stroke-width:0.8;"/>
     </g>
     <g id="line2d_20">
      <g>
       <use style="stroke:#000000;stroke-width:0.8;" x="54" xlink:href="#m5105926d2c" y="199.568666"/>
      </g>
     </g>
     <g id="text_11">
      <!-- 0.5 -->
      <g transform="translate(31.096875 203.367884)scale(0.1 -0.1)">
       <use xlink:href="#DejaVuSans-48"/>
       <use x="63.623047" xlink:href="#DejaVuSans-46"/>
       <use x="95.410156" xlink:href="#DejaVuSans-53"/>
      </g>
     </g>
    </g>
    <g id="ytick_3">
     <g id="line2d_21">
      <path clip-path="url(#p1297b98933)" d="M 54 156.542396 
L 388.8 156.542396 
" style="fill:none;stroke:#b0b0b0;stroke-dasharray:0.8,1.32;stroke-dashoffset:0;stroke-width:0.8;"/>
     </g>
     <g id="line2d_22">
      <g>
       <use style="stroke:#000000;stroke-width:0.8;" x="54" xlink:href="#m5105926d2c" y="156.542396"/>
      </g>
     </g>
     <g id="text_12">
      <!-- 1.0 -->
      <g transform="translate(31.096875 160.341615)scale(0.1 -0.1)">
       <use xlink:href="#DejaVuSans-49"/>
       <use x="63.623047" xlink:href="#DejaVuSans-46"/>
       <use x="95.410156" xlink:href="#DejaVuSans-48"/>
      </g>
     </g>
    </g>
    <g id="ytick_4">
     <g id="line2d_23">
      <path clip-path="url(#p1297b98933)" d="M 54 113.516126 
L 388.8 113.516126 
" style="fill:none;stroke:#b0b0b0;stroke-dasharray:0.8,1.32;stroke-dashoffset:0;stroke-width:0.8;"/>
     </g>
     <g id="line2d_24">
      <g>
       <use style="stroke:#000000;stroke-width:0.8;" x="54" xlink:href="#m5105926d2c" y="113.516126"/>
      </g>
     </g>
     <g id="text_13">
      <!-- 1.5 -->
      <g transform="translate(31.096875 117.315345)scale(0.1 -0.1)">
       <use xlink:href="#DejaVuSans-49"/>
       <use x="63.623047" xlink:href="#DejaVuSans-46"/>
       <use x="95.410156" xlink:href="#DejaVuSans-53"/>
      </g>
     </g>
    </g>
    <g id="ytick_5">
     <g id="line2d_25">
      <path clip-path="url(#p1297b98933)" d="M 54 70.489856 
L 388.8 70.489856 
" style="fill:none;stroke:#b0b0b0;stroke-dasharray:0.8,1.32;stroke-dashoffset:0;stroke-width:0.8;"/>
     </g>
     <g id="line2d_26">
      <g>
       <use style="stroke:#000000;stroke-width:0.8;" x="54" xlink:href="#m5105926d2c" y="70.489856"/>
      </g>
     </g>
     <g id="text_14">
      <!-- 2.0 -->
      <g transform="translate(31.096875 74.289075)scale(0.1 -0.1)">
       <use xlink:href="#DejaVuSans-50"/>
       <use x="63.623047" xlink:href="#DejaVuSans-46"/>
       <use x="95.410156" xlink:href="#DejaVuSans-48"/>
      </g>
     </g>
    </g>
    <g id="text_15">
     <!-- Loss -->
     <defs>
      <path d="M 9.8125 72.90625 
L 19.671875 72.90625 
L 19.671875 8.296875 
L 55.171875 8.296875 
L 55.171875 0 
L 9.8125 0 
z
" id="DejaVuSans-76"/>
     </defs>
     <g transform="translate(25.017187 154.333906)rotate(-90)scale(0.1 -0.1)">
      <use xlink:href="#DejaVuSans-76"/>
      <use x="55.697266" xlink:href="#DejaVuSans-111"/>
      <use x="116.878906" xlink:href="#DejaVuSans-115"/>
      <use x="168.978516" xlink:href="#DejaVuSans-115"/>
     </g>
    </g>
   </g>
   <g id="line2d_27">
    <path clip-path="url(#p1297b98933)" d="M 69.218182 44.443636 
L 70.090284 54.184 
L 70.962386 54.791945 
L 71.834488 58.864332 
L 72.70659 62.395164 
L 73.578692 64.971014 
L 74.450794 84.359098 
L 75.322897 79.020555 
L 76.194999 87.731051 
L 77.067101 92.685884 
L 77.939203 79.462871 
L 78.811305 91.770775 
L 79.683407 91.807428 
L 80.555509 102.100157 
L 81.427611 95.110875 
L 83.171816 110.98174 
L 84.043918 123.972024 
L 84.91602 125.3863 
L 85.788122 118.489383 
L 86.660224 148.378296 
L 87.532326 120.915328 
L 88.404428 155.902855 
L 89.27653 142.859598 
L 90.148632 150.812213 
L 91.020735 145.016377 
L 91.892837 155.962055 
L 92.764939 157.925092 
L 93.637041 163.264578 
L 94.509143 159.087322 
L 95.381245 192.436173 
L 96.253347 177.253206 
L 97.125449 173.641754 
L 98.869654 183.005865 
L 99.741756 174.943523 
L 100.613858 179.877018 
L 101.48596 187.847037 
L 102.358062 181.939437 
L 103.230164 186.089176 
L 104.102266 185.447219 
L 104.974368 187.530185 
L 105.84647 183.1149 
L 106.718573 215.037253 
L 107.590675 197.482761 
L 108.462777 208.369852 
L 109.334879 195.618199 
L 110.206981 207.600177 
L 111.079083 196.819559 
L 111.951185 190.267315 
L 112.823287 200.665028 
L 113.695389 220.459634 
L 114.567492 203.088863 
L 115.439594 213.059037 
L 116.311696 202.418539 
L 117.183798 204.002563 
L 118.0559 216.22429 
L 118.928002 217.29076 
L 119.800104 204.295209 
L 120.672206 216.542919 
L 121.544308 207.213646 
L 122.416411 203.884398 
L 124.160615 218.213837 
L 125.032717 211.900328 
L 125.904819 219.403485 
L 126.776921 203.841768 
L 127.649023 221.898171 
L 128.521125 222.917737 
L 129.393227 209.501389 
L 130.26533 224.209188 
L 131.137432 210.570888 
L 132.009534 220.183551 
L 132.881636 221.032417 
L 133.753738 219.347913 
L 134.62584 224.447013 
L 135.497942 228.545116 
L 136.370044 216.44494 
L 137.242146 218.596839 
L 138.114249 227.739228 
L 138.986351 218.230668 
L 139.858453 218.522879 
L 140.730555 223.951488 
L 141.602657 216.040336 
L 142.474759 215.313975 
L 143.346861 230.968267 
L 144.218963 224.564709 
L 145.091065 230.810063 
L 145.963167 228.22971 
L 146.83527 227.998191 
L 147.707372 225.08958 
L 148.579474 236.091742 
L 149.451576 223.533739 
L 150.323678 221.595646 
L 151.19578 224.707147 
L 152.067882 228.902781 
L 152.939984 221.293432 
L 153.812086 215.226256 
L 154.684189 229.972898 
L 155.556291 219.908768 
L 156.428393 226.276023 
L 157.300495 230.598842 
L 158.172597 232.158896 
L 159.044699 222.718363 
L 159.916801 233.888721 
L 160.788903 213.729145 
L 161.661005 237.698949 
L 162.533108 227.555664 
L 163.40521 220.954749 
L 164.277312 232.366325 
L 165.149414 232.647516 
L 166.021516 228.431273 
L 166.893618 236.051304 
L 167.76572 224.981597 
L 168.637822 231.91992 
L 169.509924 231.530066 
L 170.382027 224.046597 
L 172.126231 234.955845 
L 172.998333 233.741006 
L 173.870435 231.914721 
L 174.742537 225.022464 
L 175.614639 225.833825 
L 176.486741 227.381716 
L 177.358843 237.762308 
L 178.230946 233.399173 
L 179.103048 239.264314 
L 179.97515 216.500807 
L 180.847252 229.427166 
L 181.719354 229.347262 
L 182.591456 225.108893 
L 183.463558 236.56541 
L 185.207762 228.161184 
L 186.079865 222.577081 
L 186.951967 231.824118 
L 187.824069 232.846313 
L 188.696171 229.58838 
L 189.568273 233.463836 
L 190.440375 227.135093 
L 191.312477 233.2928 
L 192.184579 238.656983 
L 193.056681 224.892141 
L 193.928784 234.647683 
L 194.800886 233.231286 
L 195.672988 234.309422 
L 196.54509 232.422529 
L 197.417192 232.63173 
L 198.289294 235.566616 
L 199.161396 237.832279 
L 200.033498 238.720847 
L 200.9056 236.213416 
L 201.777703 240.772145 
L 202.649805 232.664286 
L 203.521907 233.71515 
L 204.394009 231.94267 
L 205.266111 233.896239 
L 206.138213 230.977147 
L 207.010315 235.686986 
L 207.882417 233.832457 
L 208.754519 238.859727 
L 209.626622 233.468803 
L 210.498724 234.855827 
L 211.370826 235.059726 
L 212.242928 234.880375 
L 213.11503 231.190197 
L 213.987132 229.065993 
L 214.859234 227.407872 
L 215.731336 233.838766 
L 216.603438 233.101037 
L 217.475541 237.877485 
L 218.347643 239.474224 
L 219.219745 236.512793 
L 220.091847 236.50163 
L 220.963949 232.356228 
L 221.836051 234.741878 
L 222.708153 230.977843 
L 223.580255 234.881501 
L 224.452357 235.875227 
L 225.324459 237.133159 
L 227.068664 228.88406 
L 227.940766 236.760865 
L 228.812868 232.865522 
L 229.68497 235.763734 
L 230.557072 231.968722 
L 231.429174 233.783555 
L 232.301276 237.489287 
L 233.173378 237.533992 
L 234.045481 236.514677 
L 234.917583 235.856041 
L 235.789685 234.922732 
L 237.533889 237.919179 
L 238.405991 238.505115 
L 239.278093 238.789124 
L 240.150195 240.186416 
L 241.022297 231.916304 
L 241.8944 235.160047 
L 242.766502 231.747223 
L 243.638604 235.81094 
L 244.510706 229.508424 
L 245.382808 235.706773 
L 246.25491 236.339661 
L 247.127012 235.655007 
L 247.999114 236.163853 
L 248.871216 232.203702 
L 249.743319 237.268286 
L 250.615421 237.923038 
L 251.487523 233.498423 
L 252.359625 238.261475 
L 253.231727 237.143172 
L 254.103829 240.106775 
L 255.848033 232.562649 
L 256.720135 237.735956 
L 258.46434 232.992744 
L 259.336442 231.140606 
L 260.208544 235.946446 
L 261.080646 232.386512 
L 261.952748 237.242584 
L 262.82485 239.802596 
L 263.696952 239.393752 
L 264.569054 237.67276 
L 265.441157 237.431179 
L 266.313259 232.905961 
L 267.185361 235.134792 
L 268.057463 240.671755 
L 268.929565 237.915232 
L 269.801667 234.63348 
L 270.673769 229.695867 
L 271.545871 240.69492 
L 272.417973 236.382128 
L 273.290076 230.204941 
L 274.162178 235.255224 
L 275.03428 239.44243 
L 275.906382 238.19793 
L 276.778484 232.871686 
L 277.650586 232.781139 
L 278.522688 237.141239 
L 279.39479 237.215643 
L 280.266892 239.515912 
L 281.138995 236.758575 
L 282.011097 236.124414 
L 282.883199 228.032563 
L 283.755301 229.2626 
L 284.627403 238.886477 
L 285.499505 235.094794 
L 286.371607 235.549131 
L 287.243709 239.312527 
L 288.115811 235.268864 
L 288.987914 232.4151 
L 289.860016 239.117431 
L 290.732118 239.779732 
L 291.60422 232.664605 
L 292.476322 241.074736 
L 293.348424 237.234783 
L 294.220526 238.720445 
L 295.092628 232.562908 
L 295.96473 241.279891 
L 296.836833 229.781679 
L 298.581037 237.940289 
L 299.453139 231.554783 
L 300.325241 236.243312 
L 301.197343 238.68416 
L 302.069445 236.082102 
L 302.941547 233.889105 
L 303.813649 239.971026 
L 304.685751 235.856034 
L 305.557854 240.930809 
L 306.429956 239.788155 
L 307.302058 236.486005 
L 308.17416 236.513241 
L 309.046262 236.398013 
L 309.918364 239.759519 
L 310.790466 237.180952 
L 311.662568 229.617723 
L 313.406773 240.945913 
L 314.278875 230.703022 
L 315.150977 239.943865 
L 316.023079 227.93122 
L 316.895181 239.497593 
L 317.767283 240.380707 
L 318.639385 239.731112 
L 319.511487 235.144916 
L 320.383589 240.531896 
L 321.255692 241.253018 
L 322.127794 240.04958 
L 322.999896 232.135589 
L 324.7441 237.818161 
L 325.616202 233.077202 
L 326.488304 231.417741 
L 327.360406 238.387488 
L 328.232508 236.122148 
L 329.104611 232.725722 
L 329.976713 237.59205 
L 330.848815 240.934172 
L 331.720917 238.197776 
L 332.593019 238.017065 
L 333.465121 234.863133 
L 334.337223 237.364493 
L 335.209325 231.84308 
L 336.081427 231.715869 
L 336.95353 233.277506 
L 337.825632 240.520772 
L 338.697734 240.899026 
L 339.569836 236.26019 
L 340.441938 236.812202 
L 341.31404 232.432182 
L 342.186142 234.591022 
L 343.058244 232.368408 
L 343.930346 237.452488 
L 344.802449 231.982993 
L 345.674551 240.04155 
L 346.546653 234.737951 
L 347.418755 238.500326 
L 348.290857 239.776301 
L 349.162959 240.337159 
L 350.035061 232.188623 
L 350.907163 237.563155 
L 351.779265 239.996281 
L 353.52347 232.783606 
L 354.395572 242.116364 
L 355.267674 238.596076 
L 356.139776 234.143721 
L 357.011878 226.264362 
L 357.88398 235.992708 
L 358.756082 240.642799 
L 359.628184 239.026948 
L 360.500287 233.061597 
L 361.372389 240.730816 
L 362.244491 232.796386 
L 363.116593 240.869119 
L 363.988695 234.789401 
L 364.860797 232.867815 
L 365.732899 239.286576 
L 366.605001 238.384445 
L 367.477103 239.578041 
L 368.349206 234.774241 
L 369.221308 237.977398 
L 370.09341 239.680973 
L 370.965512 240.552429 
L 371.837614 235.886813 
L 372.709716 236.59349 
L 373.581818 237.953546 
L 373.581818 237.953546 
" style="fill:none;stroke:#4363d8;stroke-linecap:square;stroke-width:1.5;"/>
   </g>
   <g id="line2d_28">
    <path clip-path="url(#p1297b98933)" d="M 69.218182 45.621654 
L 70.090284 53.011522 
L 70.962386 55.808047 
L 71.834488 57.75369 
L 72.70659 68.833003 
L 73.578692 76.674603 
L 74.450794 70.458466 
L 75.322897 82.64283 
L 76.194999 90.904926 
L 77.067101 91.288442 
L 77.939203 91.382223 
L 78.811305 100.127535 
L 79.683407 100.74144 
L 80.555509 106.144518 
L 81.427611 105.730844 
L 82.299713 115.200676 
L 83.171816 112.575792 
L 84.043918 125.492647 
L 84.91602 123.14885 
L 85.788122 134.329801 
L 87.532326 138.95281 
L 88.404428 135.791388 
L 89.27653 147.265757 
L 90.148632 144.8608 
L 91.020735 150.811854 
L 91.892837 153.311536 
L 92.764939 155.109522 
L 93.637041 158.40742 
L 94.509143 159.631979 
L 95.381245 169.081603 
L 96.253347 173.209117 
L 97.997551 163.508376 
L 98.869654 175.996677 
L 99.741756 174.06142 
L 100.613858 173.787822 
L 101.48596 170.920802 
L 102.358062 177.414051 
L 103.230164 179.849788 
L 104.102266 174.058409 
L 104.974368 178.397803 
L 105.84647 179.638673 
L 106.718573 177.665188 
L 107.590675 182.926882 
L 108.462777 189.418956 
L 109.334879 190.969288 
L 110.206981 188.030116 
L 111.079083 186.180962 
L 111.951185 182.572644 
L 112.823287 188.478664 
L 113.695389 175.935522 
L 114.567492 188.945373 
L 115.439594 190.434709 
L 116.311696 194.710937 
L 117.183798 198.160452 
L 118.0559 192.101548 
L 118.928002 187.581096 
L 120.672206 190.320042 
L 121.544308 192.791098 
L 122.416411 189.310614 
L 123.288513 188.985683 
L 124.160615 188.399598 
L 125.032717 192.445595 
L 125.904819 191.921726 
L 126.776921 189.214684 
L 127.649023 194.502218 
L 128.521125 197.479473 
L 129.393227 187.46961 
L 130.26533 196.626781 
L 131.137432 190.329239 
L 132.009534 196.732225 
L 132.881636 194.416925 
L 133.753738 184.792424 
L 134.62584 195.458231 
L 135.497942 182.427689 
L 136.370044 195.598969 
L 137.242146 193.718543 
L 138.114249 199.893927 
L 138.986351 191.699542 
L 139.858453 197.754764 
L 140.730555 195.561778 
L 141.602657 196.477497 
L 142.474759 194.059609 
L 143.346861 195.246465 
L 144.218963 200.959578 
L 145.091065 199.024778 
L 145.963167 198.272088 
L 146.83527 201.042744 
L 147.707372 202.621027 
L 148.579474 201.178569 
L 149.451576 201.959189 
L 150.323678 191.705374 
L 151.19578 205.86343 
L 152.067882 202.425502 
L 152.939984 197.773567 
L 153.812086 195.721556 
L 154.684189 200.88268 
L 155.556291 199.771364 
L 156.428393 206.216863 
L 157.300495 197.482232 
L 158.172597 202.000743 
L 159.044699 197.018015 
L 159.916801 200.870393 
L 160.788903 200.775386 
L 161.661005 202.742564 
L 162.533108 190.870726 
L 163.40521 201.034902 
L 164.277312 202.693901 
L 165.149414 203.379592 
L 166.021516 199.707727 
L 166.893618 196.752901 
L 167.76572 208.082974 
L 169.509924 199.759143 
L 170.382027 204.308416 
L 171.254129 206.810439 
L 172.126231 201.580877 
L 172.998333 206.131368 
L 173.870435 200.915727 
L 174.742537 200.09555 
L 175.614639 210.958304 
L 176.486741 204.228358 
L 177.358843 201.235933 
L 178.230946 205.220016 
L 179.103048 212.811115 
L 179.97515 210.719186 
L 180.847252 210.540926 
L 181.719354 204.961006 
L 182.591456 203.032039 
L 183.463558 204.622509 
L 184.33566 202.25631 
L 185.207762 203.729522 
L 186.079865 202.219072 
L 186.951967 199.245894 
L 187.824069 199.895058 
L 188.696171 206.448718 
L 189.568273 206.373848 
L 190.440375 207.450963 
L 191.312477 211.816069 
L 192.184579 207.779658 
L 193.056681 204.65225 
L 193.928784 204.844649 
L 194.800886 206.56588 
L 195.672988 206.858694 
L 196.54509 214.044112 
L 197.417192 202.700854 
L 198.289294 202.34174 
L 199.161396 207.216967 
L 200.033498 208.122858 
L 200.9056 211.558312 
L 201.777703 207.095686 
L 202.649805 198.662235 
L 203.521907 208.423636 
L 204.394009 210.1272 
L 205.266111 209.083478 
L 206.138213 212.690388 
L 207.010315 205.137099 
L 207.882417 212.918863 
L 208.754519 211.05466 
L 209.626622 210.047508 
L 210.498724 208.530111 
L 211.370826 212.892419 
L 212.242928 200.932686 
L 213.11503 210.254146 
L 213.987132 208.127954 
L 214.859234 210.904389 
L 215.731336 206.812168 
L 216.603438 211.413391 
L 217.475541 203.046888 
L 218.347643 204.079785 
L 219.219745 205.85023 
L 220.091847 205.140284 
L 220.963949 204.265952 
L 221.836051 212.31044 
L 222.708153 200.062519 
L 223.580255 206.204194 
L 225.324459 201.640691 
L 226.196562 206.448013 
L 227.068664 202.958262 
L 227.940766 202.452155 
L 228.812868 207.465935 
L 229.68497 205.120678 
L 230.557072 204.113296 
L 232.301276 210.073941 
L 233.173378 209.668568 
L 234.045481 206.609724 
L 234.917583 207.191449 
L 235.789685 206.749811 
L 236.661787 211.185999 
L 237.533889 208.223859 
L 238.405991 212.734622 
L 239.278093 211.427742 
L 240.150195 211.492664 
L 241.022297 212.043079 
L 241.8944 199.825494 
L 242.766502 205.6814 
L 243.638604 208.418122 
L 244.510706 205.098713 
L 245.382808 202.848322 
L 246.25491 211.542345 
L 247.127012 199.885866 
L 247.999114 206.539968 
L 248.871216 207.901488 
L 249.743319 206.454619 
L 250.615421 209.192918 
L 251.487523 203.02084 
L 252.359625 214.916518 
L 253.231727 211.509429 
L 254.975931 211.238911 
L 255.848033 205.322335 
L 256.720135 205.453074 
L 257.592238 205.703293 
L 258.46434 210.899034 
L 259.336442 203.364251 
L 260.208544 207.186589 
L 261.080646 205.737261 
L 261.952748 203.554549 
L 262.82485 206.248141 
L 263.696952 204.099535 
L 264.569054 210.009973 
L 265.441157 205.889732 
L 266.313259 200.394861 
L 267.185361 209.432272 
L 268.057463 209.537263 
L 268.929565 208.084044 
L 269.801667 208.091858 
L 270.673769 210.365715 
L 271.545871 206.290407 
L 272.417973 208.52897 
L 273.290076 208.929563 
L 274.162178 207.409891 
L 275.03428 208.142803 
L 275.906382 209.559531 
L 276.778484 208.725706 
L 277.650586 214.556758 
L 278.522688 204.576154 
L 279.39479 211.188076 
L 280.266892 209.966968 
L 281.138995 210.420766 
L 282.011097 208.209795 
L 282.883199 203.105748 
L 283.755301 213.01774 
L 284.627403 203.393597 
L 285.499505 208.012987 
L 286.371607 203.157654 
L 287.243709 200.212802 
L 288.115811 200.822812 
L 288.987914 204.155504 
L 289.860016 200.143808 
L 290.732118 210.697723 
L 291.60422 206.836208 
L 292.476322 200.58042 
L 293.348424 207.570625 
L 294.220526 206.383929 
L 295.092628 202.383166 
L 295.96473 208.631437 
L 296.836833 212.687105 
L 297.708935 201.172245 
L 298.581037 200.342613 
L 299.453139 211.43718 
L 300.325241 212.000022 
L 301.197343 208.252659 
L 302.069445 212.478104 
L 302.941547 198.965069 
L 303.813649 211.996063 
L 304.685751 207.737856 
L 305.557854 209.80142 
L 306.429956 205.49948 
L 307.302058 211.642514 
L 308.17416 210.133357 
L 309.046262 194.147656 
L 309.918364 208.612013 
L 310.790466 204.68263 
L 311.662568 199.950034 
L 312.53467 208.293423 
L 313.406773 201.028137 
L 314.278875 208.704015 
L 315.150977 205.735022 
L 316.023079 207.820632 
L 316.895181 207.806919 
L 317.767283 203.145621 
L 318.639385 202.604139 
L 319.511487 205.193222 
L 320.383589 206.453288 
L 321.255692 200.653431 
L 322.127794 202.440528 
L 323.871998 210.385611 
L 324.7441 212.245285 
L 325.616202 203.707759 
L 326.488304 212.218077 
L 327.360406 210.327315 
L 328.232508 206.549995 
L 329.104611 203.668218 
L 329.976713 207.168609 
L 330.848815 204.140391 
L 331.720917 205.026328 
L 332.593019 198.309592 
L 334.337223 209.836573 
L 335.209325 203.165199 
L 336.081427 206.306151 
L 336.95353 209.953176 
L 337.825632 208.517258 
L 338.697734 208.891013 
L 339.569836 212.957121 
L 341.31404 200.396859 
L 342.186142 213.36304 
L 343.058244 209.002261 
L 343.930346 213.101783 
L 344.802449 205.342121 
L 345.674551 210.522984 
L 346.546653 197.579332 
L 347.418755 208.274188 
L 348.290857 203.538941 
L 349.162959 206.850719 
L 350.035061 204.254027 
L 350.907163 202.337999 
L 351.779265 211.839273 
L 352.651368 211.240224 
L 353.52347 204.312058 
L 354.395572 207.96731 
L 355.267674 203.907726 
L 356.139776 204.703523 
L 357.011878 204.744841 
L 357.88398 209.028768 
L 358.756082 209.766473 
L 359.628184 211.310367 
L 360.500287 206.335072 
L 361.372389 212.812667 
L 362.244491 210.693807 
L 363.116593 215.429639 
L 363.988695 203.395259 
L 364.860797 200.82114 
L 365.732899 211.25695 
L 366.605001 198.862461 
L 367.477103 212.197615 
L 368.349206 210.791438 
L 369.221308 202.135939 
L 370.09341 206.157309 
L 370.965512 202.267348 
L 371.837614 204.67878 
L 372.709716 209.445692 
L 373.581818 205.777692 
L 373.581818 205.777692 
" style="fill:none;stroke:#008000;stroke-linecap:square;stroke-width:1.5;"/>
   </g>
   <g id="patch_3">
    <path d="M 54 252 
L 54 34.56 
" style="fill:none;stroke:#000000;stroke-linecap:square;stroke-linejoin:miter;stroke-width:0.8;"/>
   </g>
   <g id="patch_4">
    <path d="M 388.8 252 
L 388.8 34.56 
" style="fill:none;stroke:#000000;stroke-linecap:square;stroke-linejoin:miter;stroke-width:0.8;"/>
   </g>
   <g id="patch_5">
    <path d="M 54 252 
L 388.8 252 
" style="fill:none;stroke:#000000;stroke-linecap:square;stroke-linejoin:miter;stroke-width:0.8;"/>
   </g>
   <g id="patch_6">
    <path d="M 54 34.56 
L 388.8 34.56 
" style="fill:none;stroke:#000000;stroke-linecap:square;stroke-linejoin:miter;stroke-width:0.8;"/>
   </g>
   <g id="text_16">
    <!-- VGGNet Loss -->
    <defs>
     <path d="M 28.609375 0 
L 0.78125 72.90625 
L 11.078125 72.90625 
L 34.1875 11.53125 
L 57.328125 72.90625 
L 67.578125 72.90625 
L 39.796875 0 
z
" id="DejaVuSans-86"/>
     <path d="M 59.515625 10.40625 
L 59.515625 29.984375 
L 43.40625 29.984375 
L 43.40625 38.09375 
L 69.28125 38.09375 
L 69.28125 6.78125 
Q 63.578125 2.734375 56.6875 0.65625 
Q 49.8125 -1.421875 42 -1.421875 
Q 24.90625 -1.421875 15.25 8.5625 
Q 5.609375 18.5625 5.609375 36.375 
Q 5.609375 54.25 15.25 64.234375 
Q 24.90625 74.21875 42 74.21875 
Q 49.125 74.21875 55.546875 72.453125 
Q 61.96875 70.703125 67.390625 67.28125 
L 67.390625 56.78125 
Q 61.921875 61.421875 55.765625 63.765625 
Q 49.609375 66.109375 42.828125 66.109375 
Q 29.4375 66.109375 22.71875 58.640625 
Q 16.015625 51.171875 16.015625 36.375 
Q 16.015625 21.625 22.71875 14.15625 
Q 29.4375 6.6875 42.828125 6.6875 
Q 48.046875 6.6875 52.140625 7.59375 
Q 56.25 8.5 59.515625 10.40625 
z
" id="DejaVuSans-71"/>
     <path d="M 9.8125 72.90625 
L 23.09375 72.90625 
L 55.421875 11.921875 
L 55.421875 72.90625 
L 64.984375 72.90625 
L 64.984375 0 
L 51.703125 0 
L 19.390625 60.984375 
L 19.390625 0 
L 9.8125 0 
z
" id="DejaVuSans-78"/>
     <path d="M 56.203125 29.59375 
L 56.203125 25.203125 
L 14.890625 25.203125 
Q 15.484375 15.921875 20.484375 11.0625 
Q 25.484375 6.203125 34.421875 6.203125 
Q 39.59375 6.203125 44.453125 7.46875 
Q 49.3125 8.734375 54.109375 11.28125 
L 54.109375 2.78125 
Q 49.265625 0.734375 44.1875 -0.34375 
Q 39.109375 -1.421875 33.890625 -1.421875 
Q 20.796875 -1.421875 13.15625 6.1875 
Q 5.515625 13.8125 5.515625 26.8125 
Q 5.515625 40.234375 12.765625 48.109375 
Q 20.015625 56 32.328125 56 
Q 43.359375 56 49.78125 48.890625 
Q 56.203125 41.796875 56.203125 29.59375 
z
M 47.21875 32.234375 
Q 47.125 39.59375 43.09375 43.984375 
Q 39.0625 48.390625 32.421875 48.390625 
Q 24.90625 48.390625 20.390625 44.140625 
Q 15.875 39.890625 15.1875 32.171875 
z
" id="DejaVuSans-101"/>
     <path d="M 18.3125 70.21875 
L 18.3125 54.6875 
L 36.8125 54.6875 
L 36.8125 47.703125 
L 18.3125 47.703125 
L 18.3125 18.015625 
Q 18.3125 11.328125 20.140625 9.421875 
Q 21.96875 7.515625 27.59375 7.515625 
L 36.8125 7.515625 
L 36.8125 0 
L 27.59375 0 
Q 17.1875 0 13.234375 3.875 
Q 9.28125 7.765625 9.28125 18.015625 
L 9.28125 47.703125 
L 2.6875 47.703125 
L 2.6875 54.6875 
L 9.28125 54.6875 
L 9.28125 70.21875 
z
" id="DejaVuSans-116"/>
     <path id="DejaVuSans-32"/>
    </defs>
    <g transform="translate(172.516406 28.56)scale(0.15 -0.15)">
     <use xlink:href="#DejaVuSans-86"/>
     <use x="68.408203" xlink:href="#DejaVuSans-71"/>
     <use x="145.898438" xlink:href="#DejaVuSans-71"/>
     <use x="223.388672" xlink:href="#DejaVuSans-78"/>
     <use x="298.193359" xlink:href="#DejaVuSans-101"/>
     <use x="359.716797" xlink:href="#DejaVuSans-116"/>
     <use x="398.925781" xlink:href="#DejaVuSans-32"/>
     <use x="430.712891" xlink:href="#DejaVuSans-76"/>
     <use x="486.410156" xlink:href="#DejaVuSans-111"/>
     <use x="547.591797" xlink:href="#DejaVuSans-115"/>
     <use x="599.691406" xlink:href="#DejaVuSans-115"/>
    </g>
   </g>
   <g id="legend_1">
    <g id="patch_7">
     <path d="M 274.36875 71.91625 
L 381.8 71.91625 
Q 383.8 71.91625 383.8 69.91625 
L 383.8 41.56 
Q 383.8 39.56 381.8 39.56 
L 274.36875 39.56 
Q 272.36875 39.56 272.36875 41.56 
L 272.36875 69.91625 
Q 272.36875 71.91625 274.36875 71.91625 
z
" style="fill:#ffffff;opacity:0.8;stroke:#cccccc;stroke-linejoin:miter;"/>
    </g>
    <g id="line2d_29">
     <path d="M 276.36875 47.658437 
L 296.36875 47.658437 
" style="fill:none;stroke:#4363d8;stroke-linecap:square;stroke-width:1.5;"/>
    </g>
    <g id="line2d_30"/>
    <g id="text_17">
     <!-- Train Loss -->
     <defs>
      <path d="M -0.296875 72.90625 
L 61.375 72.90625 
L 61.375 64.59375 
L 35.5 64.59375 
L 35.5 0 
L 25.59375 0 
L 25.59375 64.59375 
L -0.296875 64.59375 
z
" id="DejaVuSans-84"/>
      <path d="M 41.109375 46.296875 
Q 39.59375 47.171875 37.8125 47.578125 
Q 36.03125 48 33.890625 48 
Q 26.265625 48 22.1875 43.046875 
Q 18.109375 38.09375 18.109375 28.8125 
L 18.109375 0 
L 9.078125 0 
L 9.078125 54.6875 
L 18.109375 54.6875 
L 18.109375 46.1875 
Q 20.953125 51.171875 25.484375 53.578125 
Q 30.03125 56 36.53125 56 
Q 37.453125 56 38.578125 55.875 
Q 39.703125 55.765625 41.0625 55.515625 
z
" id="DejaVuSans-114"/>
      <path d="M 34.28125 27.484375 
Q 23.390625 27.484375 19.1875 25 
Q 14.984375 22.515625 14.984375 16.5 
Q 14.984375 11.71875 18.140625 8.90625 
Q 21.296875 6.109375 26.703125 6.109375 
Q 34.1875 6.109375 38.703125 11.40625 
Q 43.21875 16.703125 43.21875 25.484375 
L 43.21875 27.484375 
z
M 52.203125 31.203125 
L 52.203125 0 
L 43.21875 0 
L 43.21875 8.296875 
Q 40.140625 3.328125 35.546875 0.953125 
Q 30.953125 -1.421875 24.3125 -1.421875 
Q 15.921875 -1.421875 10.953125 3.296875 
Q 6 8.015625 6 15.921875 
Q 6 25.140625 12.171875 29.828125 
Q 18.359375 34.515625 30.609375 34.515625 
L 43.21875 34.515625 
L 43.21875 35.40625 
Q 43.21875 41.609375 39.140625 45 
Q 35.0625 48.390625 27.6875 48.390625 
Q 23 48.390625 18.546875 47.265625 
Q 14.109375 46.140625 10.015625 43.890625 
L 10.015625 52.203125 
Q 14.9375 54.109375 19.578125 55.046875 
Q 24.21875 56 28.609375 56 
Q 40.484375 56 46.34375 49.84375 
Q 52.203125 43.703125 52.203125 31.203125 
z
" id="DejaVuSans-97"/>
      <path d="M 9.421875 54.6875 
L 18.40625 54.6875 
L 18.40625 0 
L 9.421875 0 
z
M 9.421875 75.984375 
L 18.40625 75.984375 
L 18.40625 64.59375 
L 9.421875 64.59375 
z
" id="DejaVuSans-105"/>
      <path d="M 54.890625 33.015625 
L 54.890625 0 
L 45.90625 0 
L 45.90625 32.71875 
Q 45.90625 40.484375 42.875 44.328125 
Q 39.84375 48.1875 33.796875 48.1875 
Q 26.515625 48.1875 22.3125 43.546875 
Q 18.109375 38.921875 18.109375 30.90625 
L 18.109375 0 
L 9.078125 0 
L 9.078125 54.6875 
L 18.109375 54.6875 
L 18.109375 46.1875 
Q 21.34375 51.125 25.703125 53.5625 
Q 30.078125 56 35.796875 56 
Q 45.21875 56 50.046875 50.171875 
Q 54.890625 44.34375 54.890625 33.015625 
z
" id="DejaVuSans-110"/>
     </defs>
     <g transform="translate(304.36875 51.158437)scale(0.1 -0.1)">
      <use xlink:href="#DejaVuSans-84"/>
      <use x="60.865234" xlink:href="#DejaVuSans-114"/>
      <use x="101.978516" xlink:href="#DejaVuSans-97"/>
      <use x="163.257812" xlink:href="#DejaVuSans-105"/>
      <use x="191.041016" xlink:href="#DejaVuSans-110"/>
      <use x="254.419922" xlink:href="#DejaVuSans-32"/>
      <use x="286.207031" xlink:href="#DejaVuSans-76"/>
      <use x="341.904297" xlink:href="#DejaVuSans-111"/>
      <use x="403.085938" xlink:href="#DejaVuSans-115"/>
      <use x="455.185547" xlink:href="#DejaVuSans-115"/>
     </g>
    </g>
    <g id="line2d_31">
     <path d="M 276.36875 62.336562 
L 296.36875 62.336562 
" style="fill:none;stroke:#008000;stroke-linecap:square;stroke-width:1.5;"/>
    </g>
    <g id="line2d_32"/>
    <g id="text_18">
     <!-- Validation Loss -->
     <defs>
      <path d="M 9.421875 75.984375 
L 18.40625 75.984375 
L 18.40625 0 
L 9.421875 0 
z
" id="DejaVuSans-108"/>
      <path d="M 45.40625 46.390625 
L 45.40625 75.984375 
L 54.390625 75.984375 
L 54.390625 0 
L 45.40625 0 
L 45.40625 8.203125 
Q 42.578125 3.328125 38.25 0.953125 
Q 33.9375 -1.421875 27.875 -1.421875 
Q 17.96875 -1.421875 11.734375 6.484375 
Q 5.515625 14.40625 5.515625 27.296875 
Q 5.515625 40.1875 11.734375 48.09375 
Q 17.96875 56 27.875 56 
Q 33.9375 56 38.25 53.625 
Q 42.578125 51.265625 45.40625 46.390625 
z
M 14.796875 27.296875 
Q 14.796875 17.390625 18.875 11.75 
Q 22.953125 6.109375 30.078125 6.109375 
Q 37.203125 6.109375 41.296875 11.75 
Q 45.40625 17.390625 45.40625 27.296875 
Q 45.40625 37.203125 41.296875 42.84375 
Q 37.203125 48.484375 30.078125 48.484375 
Q 22.953125 48.484375 18.875 42.84375 
Q 14.796875 37.203125 14.796875 27.296875 
z
" id="DejaVuSans-100"/>
     </defs>
     <g transform="translate(304.36875 65.836562)scale(0.1 -0.1)">
      <use xlink:href="#DejaVuSans-86"/>
      <use x="68.298828" xlink:href="#DejaVuSans-97"/>
      <use x="129.578125" xlink:href="#DejaVuSans-108"/>
      <use x="157.361328" xlink:href="#DejaVuSans-105"/>
      <use x="185.144531" xlink:href="#DejaVuSans-100"/>
      <use x="248.621094" xlink:href="#DejaVuSans-97"/>
      <use x="309.900391" xlink:href="#DejaVuSans-116"/>
      <use x="349.109375" xlink:href="#DejaVuSans-105"/>
      <use x="376.892578" xlink:href="#DejaVuSans-111"/>
      <use x="438.074219" xlink:href="#DejaVuSans-110"/>
      <use x="501.453125" xlink:href="#DejaVuSans-32"/>
      <use x="533.240234" xlink:href="#DejaVuSans-76"/>
      <use x="588.9375" xlink:href="#DejaVuSans-111"/>
      <use x="650.119141" xlink:href="#DejaVuSans-115"/>
      <use x="702.21875" xlink:href="#DejaVuSans-115"/>
     </g>
    </g>
   </g>
  </g>
 </g>
 <defs>
  <clipPath id="p1297b98933">
   <rect height="217.44" width="334.8" x="54" y="34.56"/>
  </clipPath>
 </defs>
</svg>
