<?xml version="1.0" encoding="utf-8" standalone="no"?>
<!DOCTYPE svg PUBLIC "-//W3C//DTD SVG 1.1//EN"
  "http://www.w3.org/Graphics/SVG/1.1/DTD/svg11.dtd">
<!-- Created with matplotlib (https://matplotlib.org/) -->
<svg height="288pt" version="1.1" viewBox="0 0 432 288" width="432pt" xmlns="http://www.w3.org/2000/svg" xmlns:xlink="http://www.w3.org/1999/xlink">
 <defs>
  <style type="text/css">
*{stroke-linecap:butt;stroke-linejoin:round;}
  </style>
 </defs>
 <g id="figure_1">
  <g id="patch_1">
   <path d="M 0 288 
L 432 288 
L 432 0 
L 0 0 
z
" style="fill:#ffffff;"/>
  </g>
  <g id="axes_1">
   <g id="patch_2">
    <path d="M 54 252 
L 388.8 252 
L 388.8 34.56 
L 54 34.56 
z
" style="fill:#ffffff;"/>
   </g>
   <g id="matplotlib.axis_1">
    <g id="xtick_1">
     <g id="line2d_1">
      <path clip-path="url(#pcf99a43255)" d="M 69.218182 252 
L 69.218182 34.56 
" style="fill:none;stroke:#b0b0b0;stroke-dasharray:0.8,1.32;stroke-dashoffset:0;stroke-width:0.8;"/>
     </g>
     <g id="line2d_2">
      <defs>
       <path d="M 0 0 
L 0 3.5 
" id="mea9ed229e1" style="stroke:#000000;stroke-width:0.8;"/>
      </defs>
      <g>
       <use style="stroke:#000000;stroke-width:0.8;" x="69.218182" xlink:href="#mea9ed229e1" y="252"/>
      </g>
     </g>
     <g id="text_1">
      <!-- 0 -->
      <defs>
       <path d="M 31.78125 66.40625 
Q 24.171875 66.40625 20.328125 58.90625 
Q 16.5 51.421875 16.5 36.375 
Q 16.5 21.390625 20.328125 13.890625 
Q 24.171875 6.390625 31.78125 6.390625 
Q 39.453125 6.390625 43.28125 13.890625 
Q 47.125 21.390625 47.125 36.375 
Q 47.125 51.421875 43.28125 58.90625 
Q 39.453125 66.40625 31.78125 66.40625 
z
M 31.78125 74.21875 
Q 44.046875 74.21875 50.515625 64.515625 
Q 56.984375 54.828125 56.984375 36.375 
Q 56.984375 17.96875 50.515625 8.265625 
Q 44.046875 -1.421875 31.78125 -1.421875 
Q 19.53125 -1.421875 13.0625 8.265625 
Q 6.59375 17.96875 6.59375 36.375 
Q 6.59375 54.828125 13.0625 64.515625 
Q 19.53125 74.21875 31.78125 74.21875 
z
" id="DejaVuSans-48"/>
      </defs>
      <g transform="translate(66.036932 266.598437)scale(0.1 -0.1)">
       <use xlink:href="#DejaVuSans-48"/>
      </g>
     </g>
    </g>
    <g id="xtick_2">
     <g id="line2d_3">
      <path clip-path="url(#pcf99a43255)" d="M 112.823287 252 
L 112.823287 34.56 
" style="fill:none;stroke:#b0b0b0;stroke-dasharray:0.8,1.32;stroke-dashoffset:0;stroke-width:0.8;"/>
     </g>
     <g id="line2d_4">
      <g>
       <use style="stroke:#000000;stroke-width:0.8;" x="112.823287" xlink:href="#mea9ed229e1" y="252"/>
      </g>
     </g>
     <g id="text_2">
      <!-- 50 -->
      <defs>
       <path d="M 10.796875 72.90625 
L 49.515625 72.90625 
L 49.515625 64.59375 
L 19.828125 64.59375 
L 19.828125 46.734375 
Q 21.96875 47.46875 24.109375 47.828125 
Q 26.265625 48.1875 28.421875 48.1875 
Q 40.625 48.1875 47.75 41.5 
Q 54.890625 34.8125 54.890625 23.390625 
Q 54.890625 11.625 47.5625 5.09375 
Q 40.234375 -1.421875 26.90625 -1.421875 
Q 22.3125 -1.421875 17.546875 -0.640625 
Q 12.796875 0.140625 7.71875 1.703125 
L 7.71875 11.625 
Q 12.109375 9.234375 16.796875 8.0625 
Q 21.484375 6.890625 26.703125 6.890625 
Q 35.15625 6.890625 40.078125 11.328125 
Q 45.015625 15.765625 45.015625 23.390625 
Q 45.015625 31 40.078125 35.4375 
Q 35.15625 39.890625 26.703125 39.890625 
Q 22.75 39.890625 18.8125 39.015625 
Q 14.890625 38.140625 10.796875 36.28125 
z
" id="DejaVuSans-53"/>
      </defs>
      <g transform="translate(106.460787 266.598437)scale(0.1 -0.1)">
       <use xlink:href="#DejaVuSans-53"/>
       <use x="63.623047" xlink:href="#DejaVuSans-48"/>
      </g>
     </g>
    </g>
    <g id="xtick_3">
     <g id="line2d_5">
      <path clip-path="url(#pcf99a43255)" d="M 156.428393 252 
L 156.428393 34.56 
" style="fill:none;stroke:#b0b0b0;stroke-dasharray:0.8,1.32;stroke-dashoffset:0;stroke-width:0.8;"/>
     </g>
     <g id="line2d_6">
      <g>
       <use style="stroke:#000000;stroke-width:0.8;" x="156.428393" xlink:href="#mea9ed229e1" y="252"/>
      </g>
     </g>
     <g id="text_3">
      <!-- 100 -->
      <defs>
       <path d="M 12.40625 8.296875 
L 28.515625 8.296875 
L 28.515625 63.921875 
L 10.984375 60.40625 
L 10.984375 69.390625 
L 28.421875 72.90625 
L 38.28125 72.90625 
L 38.28125 8.296875 
L 54.390625 8.296875 
L 54.390625 0 
L 12.40625 0 
z
" id="DejaVuSans-49"/>
      </defs>
      <g transform="translate(146.884643 266.598437)scale(0.1 -0.1)">
       <use xlink:href="#DejaVuSans-49"/>
       <use x="63.623047" xlink:href="#DejaVuSans-48"/>
       <use x="127.246094" xlink:href="#DejaVuSans-48"/>
      </g>
     </g>
    </g>
    <g id="xtick_4">
     <g id="line2d_7">
      <path clip-path="url(#pcf99a43255)" d="M 200.033498 252 
L 200.033498 34.56 
" style="fill:none;stroke:#b0b0b0;stroke-dasharray:0.8,1.32;stroke-dashoffset:0;stroke-width:0.8;"/>
     </g>
     <g id="line2d_8">
      <g>
       <use style="stroke:#000000;stroke-width:0.8;" x="200.033498" xlink:href="#mea9ed229e1" y="252"/>
      </g>
     </g>
     <g id="text_4">
      <!-- 150 -->
      <g transform="translate(190.489748 266.598437)scale(0.1 -0.1)">
       <use xlink:href="#DejaVuSans-49"/>
       <use x="63.623047" xlink:href="#DejaVuSans-53"/>
       <use x="127.246094" xlink:href="#DejaVuSans-48"/>
      </g>
     </g>
    </g>
    <g id="xtick_5">
     <g id="line2d_9">
      <path clip-path="url(#pcf99a43255)" d="M 243.638604 252 
L 243.638604 34.56 
" style="fill:none;stroke:#b0b0b0;stroke-dasharray:0.8,1.32;stroke-dashoffset:0;stroke-width:0.8;"/>
     </g>
     <g id="line2d_10">
      <g>
       <use style="stroke:#000000;stroke-width:0.8;" x="243.638604" xlink:href="#mea9ed229e1" y="252"/>
      </g>
     </g>
     <g id="text_5">
      <!-- 200 -->
      <defs>
       <path d="M 19.1875 8.296875 
L 53.609375 8.296875 
L 53.609375 0 
L 7.328125 0 
L 7.328125 8.296875 
Q 12.9375 14.109375 22.625 23.890625 
Q 32.328125 33.6875 34.8125 36.53125 
Q 39.546875 41.84375 41.421875 45.53125 
Q 43.3125 49.21875 43.3125 52.78125 
Q 43.3125 58.59375 39.234375 62.25 
Q 35.15625 65.921875 28.609375 65.921875 
Q 23.96875 65.921875 18.8125 64.3125 
Q 13.671875 62.703125 7.8125 59.421875 
L 7.8125 69.390625 
Q 13.765625 71.78125 18.9375 73 
Q 24.125 74.21875 28.421875 74.21875 
Q 39.75 74.21875 46.484375 68.546875 
Q 53.21875 62.890625 53.21875 53.421875 
Q 53.21875 48.921875 51.53125 44.890625 
Q 49.859375 40.875 45.40625 35.40625 
Q 44.1875 33.984375 37.640625 27.21875 
Q 31.109375 20.453125 19.1875 8.296875 
z
" id="DejaVuSans-50"/>
      </defs>
      <g transform="translate(234.094854 266.598437)scale(0.1 -0.1)">
       <use xlink:href="#DejaVuSans-50"/>
       <use x="63.623047" xlink:href="#DejaVuSans-48"/>
       <use x="127.246094" xlink:href="#DejaVuSans-48"/>
      </g>
     </g>
    </g>
    <g id="xtick_6">
     <g id="line2d_11">
      <path clip-path="url(#pcf99a43255)" d="M 287.243709 252 
L 287.243709 34.56 
" style="fill:none;stroke:#b0b0b0;stroke-dasharray:0.8,1.32;stroke-dashoffset:0;stroke-width:0.8;"/>
     </g>
     <g id="line2d_12">
      <g>
       <use style="stroke:#000000;stroke-width:0.8;" x="287.243709" xlink:href="#mea9ed229e1" y="252"/>
      </g>
     </g>
     <g id="text_6">
      <!-- 250 -->
      <g transform="translate(277.699959 266.598437)scale(0.1 -0.1)">
       <use xlink:href="#DejaVuSans-50"/>
       <use x="63.623047" xlink:href="#DejaVuSans-53"/>
       <use x="127.246094" xlink:href="#DejaVuSans-48"/>
      </g>
     </g>
    </g>
    <g id="xtick_7">
     <g id="line2d_13">
      <path clip-path="url(#pcf99a43255)" d="M 330.848815 252 
L 330.848815 34.56 
" style="fill:none;stroke:#b0b0b0;stroke-dasharray:0.8,1.32;stroke-dashoffset:0;stroke-width:0.8;"/>
     </g>
     <g id="line2d_14">
      <g>
       <use style="stroke:#000000;stroke-width:0.8;" x="330.848815" xlink:href="#mea9ed229e1" y="252"/>
      </g>
     </g>
     <g id="text_7">
      <!-- 300 -->
      <defs>
       <path d="M 40.578125 39.3125 
Q 47.65625 37.796875 51.625 33 
Q 55.609375 28.21875 55.609375 21.1875 
Q 55.609375 10.40625 48.1875 4.484375 
Q 40.765625 -1.421875 27.09375 -1.421875 
Q 22.515625 -1.421875 17.65625 -0.515625 
Q 12.796875 0.390625 7.625 2.203125 
L 7.625 11.71875 
Q 11.71875 9.328125 16.59375 8.109375 
Q 21.484375 6.890625 26.8125 6.890625 
Q 36.078125 6.890625 40.9375 10.546875 
Q 45.796875 14.203125 45.796875 21.1875 
Q 45.796875 27.640625 41.28125 31.265625 
Q 36.765625 34.90625 28.71875 34.90625 
L 20.21875 34.90625 
L 20.21875 43.015625 
L 29.109375 43.015625 
Q 36.375 43.015625 40.234375 45.921875 
Q 44.09375 48.828125 44.09375 54.296875 
Q 44.09375 59.90625 40.109375 62.90625 
Q 36.140625 65.921875 28.71875 65.921875 
Q 24.65625 65.921875 20.015625 65.03125 
Q 15.375 64.15625 9.8125 62.3125 
L 9.8125 71.09375 
Q 15.4375 72.65625 20.34375 73.4375 
Q 25.25 74.21875 29.59375 74.21875 
Q 40.828125 74.21875 47.359375 69.109375 
Q 53.90625 64.015625 53.90625 55.328125 
Q 53.90625 49.265625 50.4375 45.09375 
Q 46.96875 40.921875 40.578125 39.3125 
z
" id="DejaVuSans-51"/>
      </defs>
      <g transform="translate(321.305065 266.598437)scale(0.1 -0.1)">
       <use xlink:href="#DejaVuSans-51"/>
       <use x="63.623047" xlink:href="#DejaVuSans-48"/>
       <use x="127.246094" xlink:href="#DejaVuSans-48"/>
      </g>
     </g>
    </g>
    <g id="xtick_8">
     <g id="line2d_15">
      <path clip-path="url(#pcf99a43255)" d="M 374.45392 252 
L 374.45392 34.56 
" style="fill:none;stroke:#b0b0b0;stroke-dasharray:0.8,1.32;stroke-dashoffset:0;stroke-width:0.8;"/>
     </g>
     <g id="line2d_16">
      <g>
       <use style="stroke:#000000;stroke-width:0.8;" x="374.45392" xlink:href="#mea9ed229e1" y="252"/>
      </g>
     </g>
     <g id="text_8">
      <!-- 350 -->
      <g transform="translate(364.91017 266.598437)scale(0.1 -0.1)">
       <use xlink:href="#DejaVuSans-51"/>
       <use x="63.623047" xlink:href="#DejaVuSans-53"/>
       <use x="127.246094" xlink:href="#DejaVuSans-48"/>
      </g>
     </g>
    </g>
    <g id="text_9">
     <!-- Epochs -->
     <defs>
      <path d="M 9.8125 72.90625 
L 55.90625 72.90625 
L 55.90625 64.59375 
L 19.671875 64.59375 
L 19.671875 43.015625 
L 54.390625 43.015625 
L 54.390625 34.71875 
L 19.671875 34.71875 
L 19.671875 8.296875 
L 56.78125 8.296875 
L 56.78125 0 
L 9.8125 0 
z
" id="DejaVuSans-69"/>
      <path d="M 18.109375 8.203125 
L 18.109375 -20.796875 
L 9.078125 -20.796875 
L 9.078125 54.6875 
L 18.109375 54.6875 
L 18.109375 46.390625 
Q 20.953125 51.265625 25.265625 53.625 
Q 29.59375 56 35.59375 56 
Q 45.5625 56 51.78125 48.09375 
Q 58.015625 40.1875 58.015625 27.296875 
Q 58.015625 14.40625 51.78125 6.484375 
Q 45.5625 -1.421875 35.59375 -1.421875 
Q 29.59375 -1.421875 25.265625 0.953125 
Q 20.953125 3.328125 18.109375 8.203125 
z
M 48.6875 27.296875 
Q 48.6875 37.203125 44.609375 42.84375 
Q 40.53125 48.484375 33.40625 48.484375 
Q 26.265625 48.484375 22.1875 42.84375 
Q 18.109375 37.203125 18.109375 27.296875 
Q 18.109375 17.390625 22.1875 11.75 
Q 26.265625 6.109375 33.40625 6.109375 
Q 40.53125 6.109375 44.609375 11.75 
Q 48.6875 17.390625 48.6875 27.296875 
z
" id="DejaVuSans-112"/>
      <path d="M 30.609375 48.390625 
Q 23.390625 48.390625 19.1875 42.75 
Q 14.984375 37.109375 14.984375 27.296875 
Q 14.984375 17.484375 19.15625 11.84375 
Q 23.34375 6.203125 30.609375 6.203125 
Q 37.796875 6.203125 41.984375 11.859375 
Q 46.1875 17.53125 46.1875 27.296875 
Q 46.1875 37.015625 41.984375 42.703125 
Q 37.796875 48.390625 30.609375 48.390625 
z
M 30.609375 56 
Q 42.328125 56 49.015625 48.375 
Q 55.71875 40.765625 55.71875 27.296875 
Q 55.71875 13.875 49.015625 6.21875 
Q 42.328125 -1.421875 30.609375 -1.421875 
Q 18.84375 -1.421875 12.171875 6.21875 
Q 5.515625 13.875 5.515625 27.296875 
Q 5.515625 40.765625 12.171875 48.375 
Q 18.84375 56 30.609375 56 
z
" id="DejaVuSans-111"/>
      <path d="M 48.78125 52.59375 
L 48.78125 44.1875 
Q 44.96875 46.296875 41.140625 47.34375 
Q 37.3125 48.390625 33.40625 48.390625 
Q 24.65625 48.390625 19.8125 42.84375 
Q 14.984375 37.3125 14.984375 27.296875 
Q 14.984375 17.28125 19.8125 11.734375 
Q 24.65625 6.203125 33.40625 6.203125 
Q 37.3125 6.203125 41.140625 7.25 
Q 44.96875 8.296875 48.78125 10.40625 
L 48.78125 2.09375 
Q 45.015625 0.34375 40.984375 -0.53125 
Q 36.96875 -1.421875 32.421875 -1.421875 
Q 20.0625 -1.421875 12.78125 6.34375 
Q 5.515625 14.109375 5.515625 27.296875 
Q 5.515625 40.671875 12.859375 48.328125 
Q 20.21875 56 33.015625 56 
Q 37.15625 56 41.109375 55.140625 
Q 45.0625 54.296875 48.78125 52.59375 
z
" id="DejaVuSans-99"/>
      <path d="M 54.890625 33.015625 
L 54.890625 0 
L 45.90625 0 
L 45.90625 32.71875 
Q 45.90625 40.484375 42.875 44.328125 
Q 39.84375 48.1875 33.796875 48.1875 
Q 26.515625 48.1875 22.3125 43.546875 
Q 18.109375 38.921875 18.109375 30.90625 
L 18.109375 0 
L 9.078125 0 
L 9.078125 75.984375 
L 18.109375 75.984375 
L 18.109375 46.1875 
Q 21.34375 51.125 25.703125 53.5625 
Q 30.078125 56 35.796875 56 
Q 45.21875 56 50.046875 50.171875 
Q 54.890625 44.34375 54.890625 33.015625 
z
" id="DejaVuSans-104"/>
      <path d="M 44.28125 53.078125 
L 44.28125 44.578125 
Q 40.484375 46.53125 36.375 47.5 
Q 32.28125 48.484375 27.875 48.484375 
Q 21.1875 48.484375 17.84375 46.4375 
Q 14.5 44.390625 14.5 40.28125 
Q 14.5 37.15625 16.890625 35.375 
Q 19.28125 33.59375 26.515625 31.984375 
L 29.59375 31.296875 
Q 39.15625 29.25 43.1875 25.515625 
Q 47.21875 21.78125 47.21875 15.09375 
Q 47.21875 7.46875 41.1875 3.015625 
Q 35.15625 -1.421875 24.609375 -1.421875 
Q 20.21875 -1.421875 15.453125 -0.5625 
Q 10.6875 0.296875 5.421875 2 
L 5.421875 11.28125 
Q 10.40625 8.6875 15.234375 7.390625 
Q 20.0625 6.109375 24.8125 6.109375 
Q 31.15625 6.109375 34.5625 8.28125 
Q 37.984375 10.453125 37.984375 14.40625 
Q 37.984375 18.0625 35.515625 20.015625 
Q 33.0625 21.96875 24.703125 23.78125 
L 21.578125 24.515625 
Q 13.234375 26.265625 9.515625 29.90625 
Q 5.8125 33.546875 5.8125 39.890625 
Q 5.8125 47.609375 11.28125 51.796875 
Q 16.75 56 26.8125 56 
Q 31.78125 56 36.171875 55.265625 
Q 40.578125 54.546875 44.28125 53.078125 
z
" id="DejaVuSans-115"/>
     </defs>
     <g transform="translate(203.484375 280.276563)scale(0.1 -0.1)">
      <use xlink:href="#DejaVuSans-69"/>
      <use x="63.183594" xlink:href="#DejaVuSans-112"/>
      <use x="126.660156" xlink:href="#DejaVuSans-111"/>
      <use x="187.841797" xlink:href="#DejaVuSans-99"/>
      <use x="242.822266" xlink:href="#DejaVuSans-104"/>
      <use x="306.201172" xlink:href="#DejaVuSans-115"/>
     </g>
    </g>
   </g>
   <g id="matplotlib.axis_2">
    <g id="ytick_1">
     <g id="line2d_17">
      <path clip-path="url(#pcf99a43255)" d="M 54 242.921551 
L 388.8 242.921551 
" style="fill:none;stroke:#b0b0b0;stroke-dasharray:0.8,1.32;stroke-dashoffset:0;stroke-width:0.8;"/>
     </g>
     <g id="line2d_18">
      <defs>
       <path d="M 0 0 
L -3.5 0 
" id="mf15bd1862e" style="stroke:#000000;stroke-width:0.8;"/>
      </defs>
      <g>
       <use style="stroke:#000000;stroke-width:0.8;" x="54" xlink:href="#mf15bd1862e" y="242.921551"/>
      </g>
     </g>
     <g id="text_10">
      <!-- 0.00 -->
      <defs>
       <path d="M 10.6875 12.40625 
L 21 12.40625 
L 21 0 
L 10.6875 0 
z
" id="DejaVuSans-46"/>
      </defs>
      <g transform="translate(24.734375 246.720769)scale(0.1 -0.1)">
       <use xlink:href="#DejaVuSans-48"/>
       <use x="63.623047" xlink:href="#DejaVuSans-46"/>
       <use x="95.410156" xlink:href="#DejaVuSans-48"/>
       <use x="159.033203" xlink:href="#DejaVuSans-48"/>
      </g>
     </g>
    </g>
    <g id="ytick_2">
     <g id="line2d_19">
      <path clip-path="url(#pcf99a43255)" d="M 54 216.116962 
L 388.8 216.116962 
" style="fill:none;stroke:#b0b0b0;stroke-dasharray:0.8,1.32;stroke-dashoffset:0;stroke-width:0.8;"/>
     </g>
     <g id="line2d_20">
      <g>
       <use style="stroke:#000000;stroke-width:0.8;" x="54" xlink:href="#mf15bd1862e" y="216.116962"/>
      </g>
     </g>
     <g id="text_11">
      <!-- 0.25 -->
      <g transform="translate(24.734375 219.916181)scale(0.1 -0.1)">
       <use xlink:href="#DejaVuSans-48"/>
       <use x="63.623047" xlink:href="#DejaVuSans-46"/>
       <use x="95.410156" xlink:href="#DejaVuSans-50"/>
       <use x="159.033203" xlink:href="#DejaVuSans-53"/>
      </g>
     </g>
    </g>
    <g id="ytick_3">
     <g id="line2d_21">
      <path clip-path="url(#pcf99a43255)" d="M 54 189.312373 
L 388.8 189.312373 
" style="fill:none;stroke:#b0b0b0;stroke-dasharray:0.8,1.32;stroke-dashoffset:0;stroke-width:0.8;"/>
     </g>
     <g id="line2d_22">
      <g>
       <use style="stroke:#000000;stroke-width:0.8;" x="54" xlink:href="#mf15bd1862e" y="189.312373"/>
      </g>
     </g>
     <g id="text_12">
      <!-- 0.50 -->
      <g transform="translate(24.734375 193.111592)scale(0.1 -0.1)">
       <use xlink:href="#DejaVuSans-48"/>
       <use x="63.623047" xlink:href="#DejaVuSans-46"/>
       <use x="95.410156" xlink:href="#DejaVuSans-53"/>
       <use x="159.033203" xlink:href="#DejaVuSans-48"/>
      </g>
     </g>
    </g>
    <g id="ytick_4">
     <g id="line2d_23">
      <path clip-path="url(#pcf99a43255)" d="M 54 162.507784 
L 388.8 162.507784 
" style="fill:none;stroke:#b0b0b0;stroke-dasharray:0.8,1.32;stroke-dashoffset:0;stroke-width:0.8;"/>
     </g>
     <g id="line2d_24">
      <g>
       <use style="stroke:#000000;stroke-width:0.8;" x="54" xlink:href="#mf15bd1862e" y="162.507784"/>
      </g>
     </g>
     <g id="text_13">
      <!-- 0.75 -->
      <defs>
       <path d="M 8.203125 72.90625 
L 55.078125 72.90625 
L 55.078125 68.703125 
L 28.609375 0 
L 18.3125 0 
L 43.21875 64.59375 
L 8.203125 64.59375 
z
" id="DejaVuSans-55"/>
      </defs>
      <g transform="translate(24.734375 166.307003)scale(0.1 -0.1)">
       <use xlink:href="#DejaVuSans-48"/>
       <use x="63.623047" xlink:href="#DejaVuSans-46"/>
       <use x="95.410156" xlink:href="#DejaVuSans-55"/>
       <use x="159.033203" xlink:href="#DejaVuSans-53"/>
      </g>
     </g>
    </g>
    <g id="ytick_5">
     <g id="line2d_25">
      <path clip-path="url(#pcf99a43255)" d="M 54 135.703195 
L 388.8 135.703195 
" style="fill:none;stroke:#b0b0b0;stroke-dasharray:0.8,1.32;stroke-dashoffset:0;stroke-width:0.8;"/>
     </g>
     <g id="line2d_26">
      <g>
       <use style="stroke:#000000;stroke-width:0.8;" x="54" xlink:href="#mf15bd1862e" y="135.703195"/>
      </g>
     </g>
     <g id="text_14">
      <!-- 1.00 -->
      <g transform="translate(24.734375 139.502414)scale(0.1 -0.1)">
       <use xlink:href="#DejaVuSans-49"/>
       <use x="63.623047" xlink:href="#DejaVuSans-46"/>
       <use x="95.410156" xlink:href="#DejaVuSans-48"/>
       <use x="159.033203" xlink:href="#DejaVuSans-48"/>
      </g>
     </g>
    </g>
    <g id="ytick_6">
     <g id="line2d_27">
      <path clip-path="url(#pcf99a43255)" d="M 54 108.898606 
L 388.8 108.898606 
" style="fill:none;stroke:#b0b0b0;stroke-dasharray:0.8,1.32;stroke-dashoffset:0;stroke-width:0.8;"/>
     </g>
     <g id="line2d_28">
      <g>
       <use style="stroke:#000000;stroke-width:0.8;" x="54" xlink:href="#mf15bd1862e" y="108.898606"/>
      </g>
     </g>
     <g id="text_15">
      <!-- 1.25 -->
      <g transform="translate(24.734375 112.697825)scale(0.1 -0.1)">
       <use xlink:href="#DejaVuSans-49"/>
       <use x="63.623047" xlink:href="#DejaVuSans-46"/>
       <use x="95.410156" xlink:href="#DejaVuSans-50"/>
       <use x="159.033203" xlink:href="#DejaVuSans-53"/>
      </g>
     </g>
    </g>
    <g id="ytick_7">
     <g id="line2d_29">
      <path clip-path="url(#pcf99a43255)" d="M 54 82.094018 
L 388.8 82.094018 
" style="fill:none;stroke:#b0b0b0;stroke-dasharray:0.8,1.32;stroke-dashoffset:0;stroke-width:0.8;"/>
     </g>
     <g id="line2d_30">
      <g>
       <use style="stroke:#000000;stroke-width:0.8;" x="54" xlink:href="#mf15bd1862e" y="82.094018"/>
      </g>
     </g>
     <g id="text_16">
      <!-- 1.50 -->
      <g transform="translate(24.734375 85.893236)scale(0.1 -0.1)">
       <use xlink:href="#DejaVuSans-49"/>
       <use x="63.623047" xlink:href="#DejaVuSans-46"/>
       <use x="95.410156" xlink:href="#DejaVuSans-53"/>
       <use x="159.033203" xlink:href="#DejaVuSans-48"/>
      </g>
     </g>
    </g>
    <g id="ytick_8">
     <g id="line2d_31">
      <path clip-path="url(#pcf99a43255)" d="M 54 55.289429 
L 388.8 55.289429 
" style="fill:none;stroke:#b0b0b0;stroke-dasharray:0.8,1.32;stroke-dashoffset:0;stroke-width:0.8;"/>
     </g>
     <g id="line2d_32">
      <g>
       <use style="stroke:#000000;stroke-width:0.8;" x="54" xlink:href="#mf15bd1862e" y="55.289429"/>
      </g>
     </g>
     <g id="text_17">
      <!-- 1.75 -->
      <g transform="translate(24.734375 59.088647)scale(0.1 -0.1)">
       <use xlink:href="#DejaVuSans-49"/>
       <use x="63.623047" xlink:href="#DejaVuSans-46"/>
       <use x="95.410156" xlink:href="#DejaVuSans-55"/>
       <use x="159.033203" xlink:href="#DejaVuSans-53"/>
      </g>
     </g>
    </g>
    <g id="text_18">
     <!-- Loss -->
     <defs>
      <path d="M 9.8125 72.90625 
L 19.671875 72.90625 
L 19.671875 8.296875 
L 55.171875 8.296875 
L 55.171875 0 
L 9.8125 0 
z
" id="DejaVuSans-76"/>
     </defs>
     <g transform="translate(18.654688 154.333906)rotate(-90)scale(0.1 -0.1)">
      <use xlink:href="#DejaVuSans-76"/>
      <use x="55.697266" xlink:href="#DejaVuSans-111"/>
      <use x="116.878906" xlink:href="#DejaVuSans-115"/>
      <use x="168.978516" xlink:href="#DejaVuSans-115"/>
     </g>
    </g>
   </g>
   <g id="line2d_33">
    <path clip-path="url(#pcf99a43255)" d="M 69.218182 44.443636 
L 70.090284 64.028101 
L 70.962386 91.438747 
L 71.834488 136.149785 
L 72.70659 145.798028 
L 73.578692 172.16987 
L 74.450794 150.496946 
L 75.322897 171.464111 
L 76.194999 180.493222 
L 77.067101 165.172404 
L 77.939203 172.278838 
L 78.811305 182.739538 
L 79.683407 187.81508 
L 80.555509 185.430859 
L 81.427611 204.003223 
L 82.299713 190.523873 
L 83.171816 196.28171 
L 84.043918 209.21497 
L 84.91602 219.738561 
L 85.788122 191.166274 
L 86.660224 210.36381 
L 87.532326 201.930613 
L 88.404428 207.423223 
L 89.27653 219.184989 
L 90.148632 218.56679 
L 91.020735 211.523634 
L 91.892837 215.622755 
L 92.764939 210.138256 
L 93.637041 206.274978 
L 94.509143 218.730702 
L 95.381245 224.413301 
L 96.253347 214.784323 
L 97.125449 228.631093 
L 97.997551 216.983256 
L 98.869654 218.126494 
L 99.741756 219.647536 
L 100.613858 223.172511 
L 101.48596 221.45309 
L 102.358062 220.75034 
L 103.230164 216.20677 
L 104.102266 214.655185 
L 104.974368 224.714206 
L 105.84647 226.24988 
L 106.718573 213.339258 
L 107.590675 224.389163 
L 108.462777 226.736338 
L 109.334879 218.968835 
L 110.206981 231.688178 
L 111.079083 222.120119 
L 111.951185 232.271669 
L 112.823287 234.713073 
L 113.695389 230.748022 
L 114.567492 233.541572 
L 115.439594 232.696865 
L 116.311696 230.684717 
L 117.183798 225.776807 
L 118.0559 218.687247 
L 118.928002 226.834972 
L 119.800104 229.190494 
L 120.672206 237.643544 
L 121.544308 229.816776 
L 122.416411 229.884854 
L 123.288513 224.146744 
L 124.160615 231.39282 
L 125.032717 236.002459 
L 125.904819 232.600463 
L 126.776921 234.852711 
L 127.649023 222.812722 
L 128.521125 228.577839 
L 129.393227 228.559188 
L 130.26533 233.115034 
L 131.137432 230.968782 
L 132.009534 232.526609 
L 132.881636 239.756798 
L 133.753738 232.696324 
L 134.62584 228.538188 
L 135.497942 235.384437 
L 136.370044 230.0597 
L 137.242146 238.273429 
L 138.114249 235.102191 
L 138.986351 231.103577 
L 139.858453 235.809194 
L 140.730555 230.204162 
L 141.602657 233.446775 
L 142.474759 232.54001 
L 143.346861 237.887578 
L 144.218963 234.72555 
L 145.091065 233.003063 
L 145.963167 229.360246 
L 146.83527 228.241031 
L 147.707372 234.82367 
L 148.579474 231.058724 
L 149.451576 237.914564 
L 150.323678 231.843684 
L 151.19578 233.888116 
L 152.067882 240.723368 
L 152.939984 228.211253 
L 153.812086 238.73795 
L 154.684189 224.330279 
L 155.556291 222.900955 
L 156.428393 237.050364 
L 157.300495 226.994883 
L 158.172597 230.009718 
L 159.044699 232.443015 
L 159.916801 226.304765 
L 160.788903 234.33465 
L 161.661005 237.498693 
L 162.533108 240.103779 
L 163.40521 233.637964 
L 165.149414 235.924542 
L 166.021516 233.487687 
L 166.893618 239.740032 
L 167.76572 232.321623 
L 168.637822 229.986591 
L 169.509924 234.595273 
L 170.382027 234.367939 
L 171.254129 229.409377 
L 172.126231 241.873831 
L 172.998333 230.854794 
L 173.870435 239.488681 
L 174.742537 237.323399 
L 175.614639 234.717522 
L 176.486741 239.744039 
L 177.358843 240.240729 
L 178.230946 236.16163 
L 179.103048 233.189843 
L 179.97515 237.508819 
L 180.847252 233.112288 
L 181.719354 232.674528 
L 182.591456 235.526853 
L 183.463558 234.432164 
L 184.33566 238.933448 
L 185.207762 224.780016 
L 186.079865 233.684234 
L 186.951967 236.83314 
L 187.824069 234.369557 
L 188.696171 238.381815 
L 189.568273 241.331554 
L 190.440375 235.595953 
L 191.312477 234.077984 
L 192.184579 236.556619 
L 193.056681 235.057233 
L 193.928784 239.412837 
L 194.800886 234.635192 
L 195.672988 235.544838 
L 196.54509 235.645152 
L 197.417192 231.697407 
L 198.289294 239.44187 
L 199.161396 234.050928 
L 200.033498 231.576582 
L 200.9056 232.206513 
L 201.777703 237.378714 
L 202.649805 237.423705 
L 203.521907 233.890859 
L 204.394009 240.297551 
L 205.266111 240.191513 
L 206.138213 229.896752 
L 207.010315 240.026566 
L 207.882417 235.670505 
L 208.754519 233.295081 
L 209.626622 239.520752 
L 211.370826 226.906441 
L 212.242928 235.922603 
L 213.11503 239.520061 
L 213.987132 237.74917 
L 214.859234 233.205943 
L 215.731336 232.615077 
L 216.603438 235.275909 
L 217.475541 237.233032 
L 218.347643 236.831214 
L 219.219745 239.948921 
L 220.091847 236.791713 
L 220.963949 236.245798 
L 221.836051 233.637381 
L 222.708153 223.068617 
L 223.580255 233.008936 
L 224.452357 239.470829 
L 225.324459 236.551483 
L 226.196562 229.420497 
L 227.068664 228.825113 
L 227.940766 231.814892 
L 228.812868 232.507452 
L 229.68497 239.891874 
L 230.557072 233.45372 
L 231.429174 238.349151 
L 232.301276 235.466769 
L 233.173378 234.539423 
L 234.045481 224.882809 
L 234.917583 237.620283 
L 235.789685 239.252558 
L 236.661787 232.787859 
L 237.533889 235.106494 
L 238.405991 235.098169 
L 239.278093 229.599771 
L 240.150195 234.233397 
L 241.022297 229.367084 
L 241.8944 236.581406 
L 242.766502 234.81252 
L 243.638604 234.948848 
L 244.510706 235.505885 
L 245.382808 242.116364 
L 246.25491 229.001382 
L 247.127012 239.575507 
L 247.999114 239.887058 
L 248.871216 230.059534 
L 249.743319 230.884443 
L 250.615421 236.051939 
L 251.487523 235.784594 
L 252.359625 232.72235 
L 253.231727 239.458837 
L 254.103829 231.8238 
L 254.975931 228.950631 
L 255.848033 239.377128 
L 256.720135 238.901967 
L 257.592238 234.54364 
L 258.46434 236.060197 
L 259.336442 240.250114 
L 260.208544 232.238128 
L 261.080646 229.482746 
L 262.82485 240.321571 
L 264.569054 236.402121 
L 265.441157 241.602977 
L 266.313259 235.928306 
L 267.185361 241.537797 
L 268.057463 238.783836 
L 268.929565 227.586171 
L 269.801667 229.997748 
L 270.673769 235.432243 
L 271.545871 234.582816 
L 272.417973 237.127669 
L 273.290076 233.298587 
L 274.162178 234.794435 
L 275.03428 224.756642 
L 275.906382 239.788782 
L 276.778484 237.066363 
L 277.650586 240.573838 
L 278.522688 236.164782 
L 279.39479 239.096471 
L 280.266892 234.434097 
L 281.138995 238.828982 
L 282.011097 236.208579 
L 282.883199 236.685355 
L 283.755301 241.722231 
L 284.627403 238.59213 
L 285.499505 235.97969 
L 286.371607 238.030269 
L 287.243709 233.169597 
L 288.115811 237.65724 
L 288.987914 231.831619 
L 289.860016 227.323007 
L 290.732118 237.045027 
L 291.60422 232.846194 
L 292.476322 237.799472 
L 293.348424 241.418476 
L 294.220526 225.543965 
L 295.092628 238.675744 
L 295.96473 225.050171 
L 296.836833 239.455331 
L 297.708935 239.502262 
L 298.581037 233.809727 
L 299.453139 229.883247 
L 300.325241 233.980253 
L 301.197343 239.407844 
L 302.069445 235.964535 
L 302.941547 236.799202 
L 303.813649 235.027222 
L 304.685751 240.014381 
L 305.557854 240.223671 
L 306.429956 241.156297 
L 307.302058 227.877108 
L 308.17416 240.095537 
L 309.046262 241.371798 
L 309.918364 240.628063 
L 310.790466 239.190769 
L 311.662568 230.335495 
L 312.53467 236.587887 
L 313.406773 230.876715 
L 314.278875 240.632453 
L 315.150977 231.366067 
L 316.023079 236.336781 
L 316.895181 239.057378 
L 317.767283 235.589357 
L 318.639385 240.510214 
L 319.511487 238.086666 
L 320.383589 238.714773 
L 321.255692 241.307427 
L 322.127794 230.718977 
L 322.999896 239.58384 
L 323.871998 241.359538 
L 324.7441 233.044602 
L 325.616202 238.858218 
L 326.488304 235.392135 
L 327.360406 238.213096 
L 328.232508 238.451792 
L 329.104611 240.675147 
L 329.976713 234.459367 
L 330.848815 238.023164 
L 331.720917 239.848436 
L 332.593019 240.116844 
L 333.465121 237.279923 
L 334.337223 236.362524 
L 335.209325 239.572844 
L 336.081427 237.48372 
L 336.95353 238.663126 
L 337.825632 229.508986 
L 338.697734 229.642442 
L 339.569836 238.297128 
L 340.441938 241.302906 
L 341.31404 235.677854 
L 342.186142 238.006813 
L 343.058244 235.078252 
L 343.930346 240.373013 
L 344.802449 236.576015 
L 345.674551 238.834929 
L 346.546653 236.894576 
L 347.418755 236.376787 
L 348.290857 232.505454 
L 349.162959 238.330831 
L 350.035061 233.773629 
L 350.907163 238.582631 
L 351.779265 236.06695 
L 352.651368 241.324528 
L 353.52347 231.546415 
L 354.395572 241.502349 
L 355.267674 240.131184 
L 356.139776 241.834203 
L 357.011878 240.249563 
L 357.88398 232.238625 
L 358.756082 239.316957 
L 359.628184 233.732844 
L 360.500287 237.298816 
L 361.372389 233.195666 
L 362.244491 240.557918 
L 363.116593 232.106876 
L 363.988695 232.202129 
L 364.860797 236.954658 
L 365.732899 234.533986 
L 366.605001 237.721841 
L 367.477103 239.452081 
L 368.349206 232.489894 
L 369.221308 237.586555 
L 370.09341 237.812374 
L 370.965512 239.852645 
L 371.837614 238.770379 
L 372.709716 235.590977 
L 373.581818 237.595605 
L 373.581818 237.595605 
" style="fill:none;stroke:#4363d8;stroke-linecap:square;stroke-width:1.5;"/>
   </g>
   <g id="line2d_34">
    <path clip-path="url(#pcf99a43255)" d="M 69.218182 58.680328 
L 70.090284 80.849184 
L 70.962386 107.95489 
L 71.834488 127.833788 
L 72.70659 141.389759 
L 73.578692 150.781 
L 74.450794 164.217664 
L 75.322897 171.382662 
L 76.194999 170.751502 
L 77.067101 179.635832 
L 77.939203 179.357363 
L 78.811305 176.334211 
L 79.683407 175.637885 
L 80.555509 173.839788 
L 81.427611 181.863774 
L 82.299713 192.108456 
L 83.171816 194.418418 
L 84.043918 187.210711 
L 84.91602 191.613857 
L 85.788122 200.001804 
L 86.660224 193.695245 
L 87.532326 196.598593 
L 88.404428 190.315299 
L 89.27653 197.938796 
L 90.148632 195.677091 
L 91.020735 196.69214 
L 91.892837 195.322831 
L 92.764939 195.366681 
L 93.637041 190.37705 
L 94.509143 199.538621 
L 95.381245 194.698685 
L 96.253347 207.639692 
L 97.125449 197.170255 
L 97.997551 199.220689 
L 98.869654 196.978968 
L 99.741756 199.463108 
L 100.613858 195.541671 
L 101.48596 201.745704 
L 102.358062 197.022633 
L 103.230164 205.934062 
L 104.102266 199.262226 
L 104.974368 195.078984 
L 105.84647 202.719815 
L 106.718573 203.622254 
L 107.590675 202.01329 
L 108.462777 199.694861 
L 109.334879 199.544801 
L 110.206981 199.832364 
L 111.079083 202.144568 
L 111.951185 201.512057 
L 112.823287 200.155919 
L 113.695389 202.195713 
L 114.567492 200.188544 
L 115.439594 199.977612 
L 116.311696 200.657404 
L 117.183798 205.925716 
L 118.0559 196.648741 
L 118.928002 203.479447 
L 119.800104 203.559382 
L 120.672206 195.37681 
L 121.544308 204.070524 
L 122.416411 202.091742 
L 124.160615 188.518595 
L 125.032717 200.807893 
L 125.904819 203.609651 
L 126.776921 202.010312 
L 127.649023 199.766776 
L 128.521125 183.542864 
L 129.393227 191.348412 
L 130.26533 197.651776 
L 131.137432 188.423227 
L 132.009534 187.597285 
L 132.881636 197.772407 
L 133.753738 203.891018 
L 134.62584 197.579491 
L 135.497942 197.058232 
L 136.370044 195.259109 
L 137.242146 197.152534 
L 138.114249 195.928616 
L 138.986351 205.760337 
L 139.858453 189.610845 
L 140.730555 199.690586 
L 141.602657 200.51708 
L 142.474759 199.013272 
L 143.346861 202.327914 
L 144.218963 201.603974 
L 145.091065 195.078585 
L 145.963167 201.143725 
L 146.83527 196.961001 
L 147.707372 199.216842 
L 148.579474 199.551147 
L 149.451576 199.082487 
L 150.323678 202.996757 
L 151.19578 199.636766 
L 152.067882 195.139066 
L 152.939984 189.21317 
L 153.812086 196.408751 
L 154.684189 199.321046 
L 155.556291 206.523225 
L 156.428393 194.682201 
L 157.300495 197.566463 
L 158.172597 196.997258 
L 159.044699 198.814905 
L 159.916801 196.586256 
L 160.788903 196.264934 
L 161.661005 200.891643 
L 162.533108 197.72888 
L 163.40521 204.603669 
L 164.277312 202.808032 
L 165.149414 203.631265 
L 166.021516 204.631178 
L 166.893618 192.519855 
L 167.76572 194.170202 
L 168.637822 198.637026 
L 169.509924 195.943912 
L 170.382027 203.363964 
L 171.254129 197.571135 
L 172.126231 198.198303 
L 172.998333 198.162547 
L 173.870435 194.599479 
L 174.742537 200.672327 
L 175.614639 208.646127 
L 176.486741 205.253403 
L 177.358843 198.923969 
L 178.230946 199.829491 
L 179.103048 199.195676 
L 179.97515 200.934659 
L 180.847252 189.702277 
L 181.719354 193.223703 
L 182.591456 188.417629 
L 183.463558 205.300864 
L 184.33566 190.330337 
L 185.207762 198.39701 
L 186.079865 198.552055 
L 187.824069 205.75825 
L 188.696171 193.350018 
L 189.568273 201.691029 
L 190.440375 198.257938 
L 191.312477 203.094685 
L 192.184579 201.242736 
L 193.056681 196.098865 
L 193.928784 198.438038 
L 194.800886 194.775297 
L 195.672988 204.345452 
L 196.54509 203.839583 
L 197.417192 190.075782 
L 198.289294 202.445219 
L 199.161396 198.981613 
L 200.033498 202.72611 
L 200.9056 196.811055 
L 201.777703 202.833186 
L 202.649805 201.219471 
L 203.521907 192.235207 
L 204.394009 211.98844 
L 205.266111 204.027042 
L 206.138213 198.002942 
L 207.010315 203.127983 
L 207.882417 188.59961 
L 208.754519 186.172252 
L 209.626622 194.344225 
L 210.498724 199.59422 
L 211.370826 202.391598 
L 212.242928 201.508964 
L 213.11503 201.916509 
L 213.987132 206.582074 
L 214.859234 193.921236 
L 215.731336 204.307351 
L 216.603438 195.247239 
L 217.475541 200.672403 
L 218.347643 191.324878 
L 219.219745 190.502419 
L 220.091847 205.213688 
L 220.963949 194.565088 
L 221.836051 204.542088 
L 222.708153 204.300484 
L 223.580255 198.105935 
L 224.452357 196.989893 
L 225.324459 201.225906 
L 226.196562 200.521001 
L 227.068664 204.071403 
L 227.940766 199.041225 
L 228.812868 195.185351 
L 229.68497 195.667527 
L 230.557072 211.095028 
L 231.429174 203.977737 
L 232.301276 199.242865 
L 234.045481 194.465463 
L 234.917583 193.479961 
L 235.789685 199.47959 
L 236.661787 203.542274 
L 237.533889 196.358107 
L 238.405991 202.123501 
L 239.278093 200.19889 
L 240.150195 201.607352 
L 241.022297 190.265698 
L 241.8944 201.437618 
L 242.766502 185.986237 
L 243.638604 201.377075 
L 244.510706 198.913303 
L 245.382808 202.614113 
L 246.25491 197.372726 
L 247.127012 202.949913 
L 248.871216 193.513116 
L 249.743319 203.632096 
L 250.615421 201.328755 
L 251.487523 202.110237 
L 252.359625 195.898222 
L 253.231727 201.687865 
L 254.103829 196.605096 
L 254.975931 197.684707 
L 255.848033 196.716687 
L 256.720135 191.251459 
L 257.592238 198.338349 
L 258.46434 193.013544 
L 259.336442 191.499386 
L 260.208544 202.028276 
L 261.080646 190.273664 
L 261.952748 200.443929 
L 262.82485 201.975252 
L 263.696952 197.544473 
L 264.569054 206.01114 
L 265.441157 190.157497 
L 266.313259 203.948017 
L 267.185361 194.90632 
L 268.057463 195.365246 
L 268.929565 193.816208 
L 269.801667 205.144266 
L 270.673769 203.466781 
L 271.545871 198.150482 
L 272.417973 206.821457 
L 274.162178 192.268272 
L 275.03428 197.923221 
L 275.906382 200.123588 
L 276.778484 199.688502 
L 277.650586 198.168462 
L 278.522688 206.565905 
L 279.39479 193.635734 
L 280.266892 194.540717 
L 281.138995 205.955247 
L 282.011097 199.761427 
L 282.883199 208.584047 
L 283.755301 211.52226 
L 284.627403 208.425251 
L 285.499505 203.658004 
L 286.371607 201.586234 
L 287.243709 204.032579 
L 288.115811 200.093459 
L 288.987914 198.568415 
L 289.860016 196.246784 
L 290.732118 192.089971 
L 291.60422 205.661942 
L 292.476322 203.652127 
L 293.348424 196.828799 
L 294.220526 201.562751 
L 295.092628 203.778353 
L 295.96473 195.801352 
L 296.836833 197.525102 
L 297.708935 200.259643 
L 298.581037 202.147214 
L 299.453139 198.371099 
L 300.325241 197.982652 
L 301.197343 197.718527 
L 302.069445 199.209787 
L 302.941547 201.63234 
L 303.813649 211.259273 
L 304.685751 200.939062 
L 305.557854 200.993335 
L 306.429956 206.557412 
L 307.302058 205.583771 
L 308.17416 200.033179 
L 309.046262 195.594615 
L 309.918364 195.001669 
L 310.790466 201.439922 
L 311.662568 197.29335 
L 312.53467 203.490522 
L 313.406773 196.261764 
L 314.278875 207.854049 
L 315.150977 197.829837 
L 316.023079 198.025256 
L 316.895181 202.377292 
L 317.767283 199.701952 
L 318.639385 198.12381 
L 319.511487 202.569135 
L 320.383589 209.04707 
L 321.255692 204.860033 
L 322.127794 202.426929 
L 322.999896 202.973354 
L 323.871998 207.309771 
L 324.7441 204.098947 
L 325.616202 203.632926 
L 327.360406 209.757925 
L 328.232508 204.619205 
L 329.104611 193.264006 
L 329.976713 196.26518 
L 330.848815 207.048609 
L 331.720917 198.668369 
L 332.593019 211.600128 
L 333.465121 205.894475 
L 334.337223 203.557407 
L 335.209325 206.08363 
L 336.081427 194.692442 
L 336.95353 208.856129 
L 337.825632 200.35273 
L 338.697734 195.264826 
L 339.569836 207.798022 
L 340.441938 206.191218 
L 341.31404 197.523041 
L 343.058244 193.254685 
L 343.930346 207.182772 
L 344.802449 199.491627 
L 345.674551 200.247776 
L 346.546653 207.021732 
L 347.418755 199.267163 
L 348.290857 200.469879 
L 349.162959 203.694191 
L 350.035061 204.633456 
L 350.907163 200.470997 
L 351.779265 203.627053 
L 352.651368 200.942015 
L 353.52347 202.8683 
L 354.395572 198.989138 
L 355.267674 207.51021 
L 356.139776 202.42828 
L 357.011878 195.4561 
L 357.88398 201.094018 
L 358.756082 197.785016 
L 359.628184 202.709232 
L 360.500287 195.569509 
L 361.372389 200.548983 
L 362.244491 191.462787 
L 363.116593 199.464086 
L 363.988695 199.493586 
L 364.860797 201.586921 
L 365.732899 192.260821 
L 366.605001 206.260158 
L 367.477103 202.182835 
L 368.349206 199.121384 
L 369.221308 201.484129 
L 370.09341 194.843365 
L 370.965512 194.155587 
L 371.837614 205.634628 
L 372.709716 205.866225 
L 373.581818 202.247251 
L 373.581818 202.247251 
" style="fill:none;stroke:#008000;stroke-linecap:square;stroke-width:1.5;"/>
   </g>
   <g id="patch_3">
    <path d="M 54 252 
L 54 34.56 
" style="fill:none;stroke:#000000;stroke-linecap:square;stroke-linejoin:miter;stroke-width:0.8;"/>
   </g>
   <g id="patch_4">
    <path d="M 388.8 252 
L 388.8 34.56 
" style="fill:none;stroke:#000000;stroke-linecap:square;stroke-linejoin:miter;stroke-width:0.8;"/>
   </g>
   <g id="patch_5">
    <path d="M 54 252 
L 388.8 252 
" style="fill:none;stroke:#000000;stroke-linecap:square;stroke-linejoin:miter;stroke-width:0.8;"/>
   </g>
   <g id="patch_6">
    <path d="M 54 34.56 
L 388.8 34.56 
" style="fill:none;stroke:#000000;stroke-linecap:square;stroke-linejoin:miter;stroke-width:0.8;"/>
   </g>
   <g id="text_19">
    <!-- VGGNet Loss -->
    <defs>
     <path d="M 28.609375 0 
L 0.78125 72.90625 
L 11.078125 72.90625 
L 34.1875 11.53125 
L 57.328125 72.90625 
L 67.578125 72.90625 
L 39.796875 0 
z
" id="DejaVuSans-86"/>
     <path d="M 59.515625 10.40625 
L 59.515625 29.984375 
L 43.40625 29.984375 
L 43.40625 38.09375 
L 69.28125 38.09375 
L 69.28125 6.78125 
Q 63.578125 2.734375 56.6875 0.65625 
Q 49.8125 -1.421875 42 -1.421875 
Q 24.90625 -1.421875 15.25 8.5625 
Q 5.609375 18.5625 5.609375 36.375 
Q 5.609375 54.25 15.25 64.234375 
Q 24.90625 74.21875 42 74.21875 
Q 49.125 74.21875 55.546875 72.453125 
Q 61.96875 70.703125 67.390625 67.28125 
L 67.390625 56.78125 
Q 61.921875 61.421875 55.765625 63.765625 
Q 49.609375 66.109375 42.828125 66.109375 
Q 29.4375 66.109375 22.71875 58.640625 
Q 16.015625 51.171875 16.015625 36.375 
Q 16.015625 21.625 22.71875 14.15625 
Q 29.4375 6.6875 42.828125 6.6875 
Q 48.046875 6.6875 52.140625 7.59375 
Q 56.25 8.5 59.515625 10.40625 
z
" id="DejaVuSans-71"/>
     <path d="M 9.8125 72.90625 
L 23.09375 72.90625 
L 55.421875 11.921875 
L 55.421875 72.90625 
L 64.984375 72.90625 
L 64.984375 0 
L 51.703125 0 
L 19.390625 60.984375 
L 19.390625 0 
L 9.8125 0 
z
" id="DejaVuSans-78"/>
     <path d="M 56.203125 29.59375 
L 56.203125 25.203125 
L 14.890625 25.203125 
Q 15.484375 15.921875 20.484375 11.0625 
Q 25.484375 6.203125 34.421875 6.203125 
Q 39.59375 6.203125 44.453125 7.46875 
Q 49.3125 8.734375 54.109375 11.28125 
L 54.109375 2.78125 
Q 49.265625 0.734375 44.1875 -0.34375 
Q 39.109375 -1.421875 33.890625 -1.421875 
Q 20.796875 -1.421875 13.15625 6.1875 
Q 5.515625 13.8125 5.515625 26.8125 
Q 5.515625 40.234375 12.765625 48.109375 
Q 20.015625 56 32.328125 56 
Q 43.359375 56 49.78125 48.890625 
Q 56.203125 41.796875 56.203125 29.59375 
z
M 47.21875 32.234375 
Q 47.125 39.59375 43.09375 43.984375 
Q 39.0625 48.390625 32.421875 48.390625 
Q 24.90625 48.390625 20.390625 44.140625 
Q 15.875 39.890625 15.1875 32.171875 
z
" id="DejaVuSans-101"/>
     <path d="M 18.3125 70.21875 
L 18.3125 54.6875 
L 36.8125 54.6875 
L 36.8125 47.703125 
L 18.3125 47.703125 
L 18.3125 18.015625 
Q 18.3125 11.328125 20.140625 9.421875 
Q 21.96875 7.515625 27.59375 7.515625 
L 36.8125 7.515625 
L 36.8125 0 
L 27.59375 0 
Q 17.1875 0 13.234375 3.875 
Q 9.28125 7.765625 9.28125 18.015625 
L 9.28125 47.703125 
L 2.6875 47.703125 
L 2.6875 54.6875 
L 9.28125 54.6875 
L 9.28125 70.21875 
z
" id="DejaVuSans-116"/>
     <path id="DejaVuSans-32"/>
    </defs>
    <g transform="translate(172.516406 28.56)scale(0.15 -0.15)">
     <use xlink:href="#DejaVuSans-86"/>
     <use x="68.408203" xlink:href="#DejaVuSans-71"/>
     <use x="145.898438" xlink:href="#DejaVuSans-71"/>
     <use x="223.388672" xlink:href="#DejaVuSans-78"/>
     <use x="298.193359" xlink:href="#DejaVuSans-101"/>
     <use x="359.716797" xlink:href="#DejaVuSans-116"/>
     <use x="398.925781" xlink:href="#DejaVuSans-32"/>
     <use x="430.712891" xlink:href="#DejaVuSans-76"/>
     <use x="486.410156" xlink:href="#DejaVuSans-111"/>
     <use x="547.591797" xlink:href="#DejaVuSans-115"/>
     <use x="599.691406" xlink:href="#DejaVuSans-115"/>
    </g>
   </g>
   <g id="legend_1">
    <g id="patch_7">
     <path d="M 274.36875 71.91625 
L 381.8 71.91625 
Q 383.8 71.91625 383.8 69.91625 
L 383.8 41.56 
Q 383.8 39.56 381.8 39.56 
L 274.36875 39.56 
Q 272.36875 39.56 272.36875 41.56 
L 272.36875 69.91625 
Q 272.36875 71.91625 274.36875 71.91625 
z
" style="fill:#ffffff;opacity:0.8;stroke:#cccccc;stroke-linejoin:miter;"/>
    </g>
    <g id="line2d_35">
     <path d="M 276.36875 47.658437 
L 296.36875 47.658437 
" style="fill:none;stroke:#4363d8;stroke-linecap:square;stroke-width:1.5;"/>
    </g>
    <g id="line2d_36"/>
    <g id="text_20">
     <!-- Train Loss -->
     <defs>
      <path d="M -0.296875 72.90625 
L 61.375 72.90625 
L 61.375 64.59375 
L 35.5 64.59375 
L 35.5 0 
L 25.59375 0 
L 25.59375 64.59375 
L -0.296875 64.59375 
z
" id="DejaVuSans-84"/>
      <path d="M 41.109375 46.296875 
Q 39.59375 47.171875 37.8125 47.578125 
Q 36.03125 48 33.890625 48 
Q 26.265625 48 22.1875 43.046875 
Q 18.109375 38.09375 18.109375 28.8125 
L 18.109375 0 
L 9.078125 0 
L 9.078125 54.6875 
L 18.109375 54.6875 
L 18.109375 46.1875 
Q 20.953125 51.171875 25.484375 53.578125 
Q 30.03125 56 36.53125 56 
Q 37.453125 56 38.578125 55.875 
Q 39.703125 55.765625 41.0625 55.515625 
z
" id="DejaVuSans-114"/>
      <path d="M 34.28125 27.484375 
Q 23.390625 27.484375 19.1875 25 
Q 14.984375 22.515625 14.984375 16.5 
Q 14.984375 11.71875 18.140625 8.90625 
Q 21.296875 6.109375 26.703125 6.109375 
Q 34.1875 6.109375 38.703125 11.40625 
Q 43.21875 16.703125 43.21875 25.484375 
L 43.21875 27.484375 
z
M 52.203125 31.203125 
L 52.203125 0 
L 43.21875 0 
L 43.21875 8.296875 
Q 40.140625 3.328125 35.546875 0.953125 
Q 30.953125 -1.421875 24.3125 -1.421875 
Q 15.921875 -1.421875 10.953125 3.296875 
Q 6 8.015625 6 15.921875 
Q 6 25.140625 12.171875 29.828125 
Q 18.359375 34.515625 30.609375 34.515625 
L 43.21875 34.515625 
L 43.21875 35.40625 
Q 43.21875 41.609375 39.140625 45 
Q 35.0625 48.390625 27.6875 48.390625 
Q 23 48.390625 18.546875 47.265625 
Q 14.109375 46.140625 10.015625 43.890625 
L 10.015625 52.203125 
Q 14.9375 54.109375 19.578125 55.046875 
Q 24.21875 56 28.609375 56 
Q 40.484375 56 46.34375 49.84375 
Q 52.203125 43.703125 52.203125 31.203125 
z
" id="DejaVuSans-97"/>
      <path d="M 9.421875 54.6875 
L 18.40625 54.6875 
L 18.40625 0 
L 9.421875 0 
z
M 9.421875 75.984375 
L 18.40625 75.984375 
L 18.40625 64.59375 
L 9.421875 64.59375 
z
" id="DejaVuSans-105"/>
      <path d="M 54.890625 33.015625 
L 54.890625 0 
L 45.90625 0 
L 45.90625 32.71875 
Q 45.90625 40.484375 42.875 44.328125 
Q 39.84375 48.1875 33.796875 48.1875 
Q 26.515625 48.1875 22.3125 43.546875 
Q 18.109375 38.921875 18.109375 30.90625 
L 18.109375 0 
L 9.078125 0 
L 9.078125 54.6875 
L 18.109375 54.6875 
L 18.109375 46.1875 
Q 21.34375 51.125 25.703125 53.5625 
Q 30.078125 56 35.796875 56 
Q 45.21875 56 50.046875 50.171875 
Q 54.890625 44.34375 54.890625 33.015625 
z
" id="DejaVuSans-110"/>
     </defs>
     <g transform="translate(304.36875 51.158437)scale(0.1 -0.1)">
      <use xlink:href="#DejaVuSans-84"/>
      <use x="60.865234" xlink:href="#DejaVuSans-114"/>
      <use x="101.978516" xlink:href="#DejaVuSans-97"/>
      <use x="163.257812" xlink:href="#DejaVuSans-105"/>
      <use x="191.041016" xlink:href="#DejaVuSans-110"/>
      <use x="254.419922" xlink:href="#DejaVuSans-32"/>
      <use x="286.207031" xlink:href="#DejaVuSans-76"/>
      <use x="341.904297" xlink:href="#DejaVuSans-111"/>
      <use x="403.085938" xlink:href="#DejaVuSans-115"/>
      <use x="455.185547" xlink:href="#DejaVuSans-115"/>
     </g>
    </g>
    <g id="line2d_37">
     <path d="M 276.36875 62.336562 
L 296.36875 62.336562 
" style="fill:none;stroke:#008000;stroke-linecap:square;stroke-width:1.5;"/>
    </g>
    <g id="line2d_38"/>
    <g id="text_21">
     <!-- Validation Loss -->
     <defs>
      <path d="M 9.421875 75.984375 
L 18.40625 75.984375 
L 18.40625 0 
L 9.421875 0 
z
" id="DejaVuSans-108"/>
      <path d="M 45.40625 46.390625 
L 45.40625 75.984375 
L 54.390625 75.984375 
L 54.390625 0 
L 45.40625 0 
L 45.40625 8.203125 
Q 42.578125 3.328125 38.25 0.953125 
Q 33.9375 -1.421875 27.875 -1.421875 
Q 17.96875 -1.421875 11.734375 6.484375 
Q 5.515625 14.40625 5.515625 27.296875 
Q 5.515625 40.1875 11.734375 48.09375 
Q 17.96875 56 27.875 56 
Q 33.9375 56 38.25 53.625 
Q 42.578125 51.265625 45.40625 46.390625 
z
M 14.796875 27.296875 
Q 14.796875 17.390625 18.875 11.75 
Q 22.953125 6.109375 30.078125 6.109375 
Q 37.203125 6.109375 41.296875 11.75 
Q 45.40625 17.390625 45.40625 27.296875 
Q 45.40625 37.203125 41.296875 42.84375 
Q 37.203125 48.484375 30.078125 48.484375 
Q 22.953125 48.484375 18.875 42.84375 
Q 14.796875 37.203125 14.796875 27.296875 
z
" id="DejaVuSans-100"/>
     </defs>
     <g transform="translate(304.36875 65.836562)scale(0.1 -0.1)">
      <use xlink:href="#DejaVuSans-86"/>
      <use x="68.298828" xlink:href="#DejaVuSans-97"/>
      <use x="129.578125" xlink:href="#DejaVuSans-108"/>
      <use x="157.361328" xlink:href="#DejaVuSans-105"/>
      <use x="185.144531" xlink:href="#DejaVuSans-100"/>
      <use x="248.621094" xlink:href="#DejaVuSans-97"/>
      <use x="309.900391" xlink:href="#DejaVuSans-116"/>
      <use x="349.109375" xlink:href="#DejaVuSans-105"/>
      <use x="376.892578" xlink:href="#DejaVuSans-111"/>
      <use x="438.074219" xlink:href="#DejaVuSans-110"/>
      <use x="501.453125" xlink:href="#DejaVuSans-32"/>
      <use x="533.240234" xlink:href="#DejaVuSans-76"/>
      <use x="588.9375" xlink:href="#DejaVuSans-111"/>
      <use x="650.119141" xlink:href="#DejaVuSans-115"/>
      <use x="702.21875" xlink:href="#DejaVuSans-115"/>
     </g>
    </g>
   </g>
  </g>
 </g>
 <defs>
  <clipPath id="pcf99a43255">
   <rect height="217.44" width="334.8" x="54" y="34.56"/>
  </clipPath>
 </defs>
</svg>
